<?xml version="1.0" encoding="utf-8" ?>
<svg baseProfile="full" height="200mm" version="1.1" viewBox="0,0,200,200" width="200mm" xmlns="http://www.w3.org/2000/svg" xmlns:ev="http://www.w3.org/2001/xml-events" xmlns:xlink="http://www.w3.org/1999/xlink"><defs /><rect fill="#1a1a1a" height="200" width="200" x="0" y="0" /><text alignment-baseline="middle" fill="#e1ed5e" style="dominant-baseline: central; font-size:9.0px; font-family:Arial;" text-anchor="middle" x="100.0" y="100.0">2021</text><line stroke="#e1ed5e" stroke-width="0.3" x1="100.0" x2="100.0" y1="15.0" y2="10.0" /><path d="M 100.0 14.0 a86.0,86.0 0 0,1 42.46469731375804,11.215312516191453" fill="none" id="id37" stroke="none" /><text fill="#e1ed5e" style="font-size:6.75px; font-family:Arial;" text-anchor="middle"><textPath startOffset="22.20632615414155" xlink:href="#id37">January</textPath></text><path d="M 100.0 79.0 l 0.0 -36.76982180990618 a57.76982180990618,57.76982180990618 0 0,0 0.9944125178730214,0.008559222488569338 l -0.6329320386004931 36.76437396402617" fill="#5dff2a" stroke="none" /><path d="M 100.36148047927253 79.00311137660856 l 0.4845120947045833 -28.14328040527018 a49.14745075383523,49.14745075383523 0 0,0 0.8457418881194271,0.021843017788508928 l -0.9688806180188781 28.13077059533931" fill="#c3ff1e" stroke="none" /><path d="M 103.59715602781102 79.31037775812273 l 4.725676250346263 -27.180488058109763 a48.58823928959828,48.58823928959828 0 0,0 0.8227721404000414,0.15035634963093705 l -5.192843511849205 27.095116227128084" fill="#caff1d" stroke="none" /><path d="M 103.95276090670814 79.375362276772 l 5.079081999336173 -26.50153365590656 a47.98385369199753,47.98385369199753 0 0,0 0.8098614072218485,0.162450579508146 l -5.534509816025147 26.410179120321207" fill="#d2ff1c" stroke="none" /><path d="M 105.71112130821622 79.79150937346287 l 7.459871723569582 -26.39634839905206 a48.43021864543284,48.43021864543284 0 0,0 0.8002742679884985,0.23362200379118622 l -7.913136209281507 26.26402806634217" fill="#ccff1d" stroke="none" /><line stroke="#e1ed5e" stroke-width="0.3" x1="143.23703022742887" x2="145.7803849466894" y1="26.81831364943548" y2="22.513508569990506" /><path d="M 143.74570117128098 25.957352633546492 a86.0,86.0 0 0,1 28.547481713284135,27.462654790039103" fill="none" id="id38" stroke="none" /><text fill="#e1ed5e" style="font-size:6.75px; font-family:Arial;" text-anchor="middle"><textPath startOffset="19.985693538727396" xlink:href="#id38">February</textPath></text><path d="M 112.19680574252982 82.90503203632743 l 16.983806960133457 -23.804399447986935 a50.24207810567502,50.24207810567502 0 0,0 0.6996919551487346,0.5083559619187722 l -17.39104423163598 23.508524251251487" fill="#b6ff1f" stroke="none" /><path d="M 113.06298171725822 83.55741782278167 l 16.681906006897115 -20.997779552018624 a47.81776900001418,47.81776900001418 0 0,0 0.640067254958677,0.517556539815978 l -17.040876660420285 20.707516914938516" fill="#d4ff1c" stroke="none" /><path d="M 113.34407831869373 83.78471172551755 l 17.634334589098593 -21.428667612833852 a48.75171259691181,48.75171259691181 0 0,0 0.6433890336461602,0.5388198128005899 l -18.00058115970387 21.121946642639443" fill="#c8ff1d" stroke="none" /><path d="M 114.94478906791727 85.2469230424477 l 20.559412097706108 -20.29567546929322 a49.88951139355207,49.88951139355207 0 0,0 0.5980463278165695,0.6163393105713294 l -20.905722689225787 19.938771963171778" fill="#baff1f" stroke="none" /><path d="M 115.19652480421416 85.50635884689758 l 23.862084829116707 -22.75839372053005 a53.974893132967445,53.974893132967445 0 0,0 0.6354455893153149,0.6778490495191514 l -24.250297740402488 22.344275254132846" fill="#89ff24" stroke="none" /><path d="M 115.4437574822437 85.77008943001954 l 20.863272568824826 -19.223463149615085 a49.36930872872456,49.36930872872456 0 0,0 0.5704655581626321,0.6299223175376605 l -21.191081767603492 18.861488044807874" fill="#c1ff1e" stroke="none" /><path d="M 116.82858285166822 87.43820079747576 l 26.499385535754115 -19.78062936282364 a54.067971388670564,54.067971388670564 0 0,0 0.5503022357763068,0.7506116311567911 l -26.835950384044047 19.321555287995352" fill="#88ff25" stroke="none" /><path d="M 117.04232023915458 87.72973835380427 l 23.461015962912644 -16.891643878931916 a49.90928748593953,49.90928748593953 0 0,0 0.4959732596616939,0.701519002531972 l -23.74830184237822 16.485298376068148" fill="#baff1f" stroke="none" /><line stroke="#e1ed5e" stroke-width="0.3" x1="172.23445277983987" x2="176.4835382374775" y1="55.19839476539836" y2="52.563006222186495" /><path d="M 173.08426987136738 54.67131705675599 a86.0,86.0 0 0,1 12.851231095245387,41.99856678651699" fill="none" id="id39" stroke="none" /><text fill="#e1ed5e" style="font-size:6.75px; font-family:Arial;" text-anchor="middle"><textPath startOffset="22.20632615414155" xlink:href="#id39">March</textPath></text><path d="M 117.84615892207809 88.93136811851018 l 23.169796537942858 -14.370484414449203 a48.26445110240799,48.26445110240799 0 0,0 0.4318156126918812,0.7097913289949805 l -23.41372794892096 13.969525312247141" fill="#ceff1d" stroke="none" /><path d="M 118.21658344932153 89.55222093294921 l 24.436378031803194 -14.015025352337517 a49.17015276742136,49.17015276742136 0 0,0 0.4147674685348773,0.7378250455257046 l -24.674003141630504 13.592316796877018" fill="#c3ff1e" stroke="none" /><path d="M 118.3937258080291 89.86733742301442 l 25.063657071881334 -13.806967805499996 a49.61501818624235,49.61501818624235 0 0,0 0.4056427037955422,0.751594323683314 l -25.29760787489534 13.373492498484222" fill="#bdff1f" stroke="none" /><path d="M 118.56541770881063 90.18545643968196 l 25.879946003397386 -13.681343526597908 a50.27372142095273,50.27372142095273 0 0,0 0.39785801238564455,0.7685350442671545 l -26.111613448943146 13.23383576007041" fill="#b5ff1f" stroke="none" /><path d="M 119.04729006885535 91.15688171328212 l 23.857063170529212 -11.076159959135271 a47.302866432443686,47.302866432443686 0 0,0 0.3365208879047312,0.7414791689640016 l -24.04418637539729 10.663858781329207" fill="#dbff1b" stroke="none" /><path d="M 119.196687751892 91.48605970444005 l 29.58872839190759 -13.12292361089282 a53.36825562101558,53.36825562101558 0 0,0 0.3652149586776434,0.8429664781624625 l -29.810234060427913 12.611657988143754" fill="#90ff24" stroke="none" /><path d="M 119.47837535516314 92.15188598940014 l 30.908991439267783 -12.453671538048907 a54.32356053260723,54.32356053260723 0 0,0 0.34199643313345546,0.8703436189904665 l -31.11878142228294 11.919778914162656" fill="#85ff25" stroke="none" /><path d="M 119.61058180528143 92.48833698450437 l 34.384878504970985 -13.170829031117302 a57.82106200489793,57.82106200489793 0 0,0 0.3480150916848626,0.9325074234976782 l -34.60649818515748 12.57699847059029" fill="#5dff2a" stroke="none" /><path d="M 119.85752413597 93.16781622104841 l 31.27818630489779 -10.761579119536574 a54.07773456072742,54.07773456072742 0 0,0 0.2952713995916612,0.8828239019259487 l -31.458794998261222 10.22158211468831" fill="#88ff25" stroke="none" /><path d="M 119.97218684219823 93.5106431181261 l 30.90474622033555 -10.041560754066488 a53.4951732003532,53.4951732003532 0 0,0 0.27701460620992524,0.8782120027529356 l -31.07301631031368 9.508098584887133" fill="#8eff24" stroke="none" /><path d="M 120.08093135843002 93.85539295169968 l 30.70035831230184 -9.394068168652092 a53.10545930618348,53.10545930618348 0 0,0 0.25994895465953005,0.8764186475643433 l -30.857513164073072 8.86422013434122" fill="#93ff23" stroke="none" /><path d="M 120.18372546131832 94.20196356495316 l 35.65068765333844 -10.241121558290853 a58.09248038251941,58.09248038251941 0 0,0 0.26781526817342394,0.9634740130279902 l -35.82168969207822 9.625936241843911" fill="#5aff2a" stroke="none" /><path d="M 120.28053869075195 94.5502522615342 l 30.466586558142588 -8.186923124962311 a52.547402535848136,52.547402535848136 0 0,0 0.22721413814013186,0.8755487607341269 l -30.602997028153023 7.661277938679334" fill="#9aff23" stroke="none" /><path d="M 120.6074358757038 95.95851677861258 l 31.168166941104047 -6.112629659199283 a52.761909133725794,52.761909133725794 0 0,0 0.16711524719826448,0.892736332863858 l -31.268767912212173 5.575215248872863" fill="#97ff23" stroke="none" /><path d="M 120.67395015179393 96.31383870115 l 27.637797163639977 -4.927813869244315 a49.07367417329664,49.07367417329664 0 0,0 0.14111751579469012,0.832883566424807 l -27.71852654095489 4.4513445145036705" fill="#c4ff1e" stroke="none" /><path d="M 120.73433829027371 96.67025291283417 l 26.252284146318967 -4.215879255170643 a47.58864533580544,47.58864533580544 0 0,0 0.12292397850832355,0.8099154325273935 l -26.32096401826659 3.763364710251167" fill="#d7ff1c" stroke="none" /><path d="M 120.78858239683441 97.02765380044208 l 27.12058993077413 -3.8776950189148183 a48.39640335615104,48.39640335615104 0 0,0 0.11081393831307172,0.8256925539309066 l -27.18331986814504 3.4102841229192475" fill="#cdff1d" stroke="none" /><path d="M 120.87857604477298 97.74499172005257 l 27.75438962986668 -2.997636346751967 a48.91580139264892,48.91580139264892 0 0,0 0.08321014406203148,0.8379147950541854 l -27.80187689961094 2.5194460209933465" fill="#c6ff1e" stroke="none" /><path d="M 120.91429891909075 98.10471618934814 l 30.301873396075578 -2.7459992946539207 a51.426042191485124,51.426042191485124 0 0,0 0.07230383051543046,0.8822898711751517 l -30.344651710410506 2.223995506271" fill="#a7ff21" stroke="none" /><path d="M 120.94382443527127 98.46500227214037 l 32.14166054537185 -2.3557004146622273 a53.22787096687514,53.22787096687514 0 0,0 0.05910678538289327,0.9143558085909159 l -32.17744792175916 1.8020855418182764" fill="#92ff23" stroke="none" /><path d="M 120.96714384426684 98.82574320788733 l 28.494389837017305 -1.5958172964207913 a49.539041417459536,49.539041417459536 0 0,0 0.04035401191543367,0.8518094116375164 l -28.517637457166234 1.1050967781602752" fill="#beff1e" stroke="none" /><line stroke="#e1ed5e" stroke-width="0.3" x1="184.98032266829074" x2="189.97916517819016" y1="98.17113171792111" y2="98.06355123074" /><path d="M 185.9800911702706 98.14961562048488 a86.0,86.0 0 0,1 -9.607161424134198,41.387399972396054" fill="none" id="id40" stroke="none" /><text fill="#e1ed5e" style="font-size:6.75px; font-family:Arial;" text-anchor="middle"><textPath startOffset="21.466115282336823" xlink:href="#id40">April</textPath></text><path d="M 120.99824983174949 100.27111621757518 l 27.50133886366781 0.35508002003564354 a48.503631053279385,48.503631053279385 0 0,0 -0.017964676280092042,0.8347479158959051 l -27.49115212470271 -0.8284177517216635" fill="#cbff1d" stroke="none" /><path d="M 120.9764740272857 100.99374915477107 l 32.55620089882519 1.5423324760720445 a53.59271400837022,53.59271400837022 0 0,0 -0.051585919807151846,0.9211012516175038 l -32.52482862813051 -2.1025054440249717" fill="#8dff24" stroke="none" /><path d="M 120.89721153311464 102.0752229133903 l 28.138302856208895 2.7943082615873363 a49.27670854764587,49.27670854764587 0 0,0 -0.09108611502014556,0.8433442998778601 l -28.086034439687698 -3.2782488833499874" fill="#c2ff1e" stroke="none" /><path d="M 120.8583938346157 102.4346265915055 l 31.285406956768487 3.651684991037726 a52.49780137921357,52.49780137921357 0 0,0 -0.11249151571063551,0.8966680616033629 l -31.217913931811005 -4.189670806928484" fill="#9aff22" stroke="none" /><path d="M 120.76222939487914 103.15116336523771 l 31.447558439866846 4.772916828783405 a52.80769823302724,52.80769823302724 0 0,0 -0.14413545804455288,0.8975316348314696 l -31.360741227461002 -5.313527693308079" fill="#97ff23" stroke="none" /><path d="M 120.70491114924044 103.5080841355445 l 31.271639854690992 5.298431028076498 a52.71732697691881,52.71732697691881 0 0,0 -0.1592905689073219,0.8933861039310133 l -31.175802843444483 -5.8359358827407295" fill="#98ff23" stroke="none" /><path d="M 120.64145759157962 103.86396538481128 l 32.48019859797447 6.080111470692169 a54.04438010403441,54.04438010403441 0 0,0 -0.17904148314887422,0.9129286652870703 l -32.37072718184993 -6.6383038630471844" fill="#88ff25" stroke="none" /><path d="M 120.5718875245553 104.21870165774334 l 31.19241331923109 6.396665625445576 a52.841544871464734,52.841544871464734 0 0,0 -0.19039553752308827,0.8894645653696757 l -31.07768374298356 -6.932644010231421" fill="#96ff23" stroke="none" /><path d="M 120.49622156327973 104.57218783832717 l 30.994670222798764 6.914125796704414 a52.75649095464897,52.75649095464897 0 0,0 -0.20534693876775786,0.8846292377828014 l -30.87106271810045 -7.44662369183578" fill="#97ff23" stroke="none" /><path d="M 120.41448212921028 104.9243191809786 l 30.67124571437911 7.39842444299455 a52.55094290049853,52.55094290049853 0 0,0 -0.2196846766566699,0.8775310804105664 l -30.53934972342738 -7.925283362802512" fill="#9aff23" stroke="none" /><path d="M 120.23288151984713 105.62410040840565 l 32.41512002820328 9.010376975237385 a54.6441213242182,54.6441213242182 0 0,0 -0.2597088409069659,0.9040805457962036 l -32.25521855041022 -9.56701499653817" fill="#81ff25" stroke="none" /><path d="M 120.13307415673323 105.97154293290107 l 27.055901428353593 8.024878650423076 a49.220922725077614,49.220922725077614 0 0,0 -0.24791694556465227,0.8102069224837538 l -26.91375771028281 -8.489412545458887" fill="#c2ff1e" stroke="none" /><path d="M 120.02730092923936 106.31721596034902 l 30.154559852970053 9.511659481900896 a52.6191262691743,52.6191262691743 0 0,0 -0.2799030547153013,0.8614530235023532 l -29.9863645472385 -10.029311405381046" fill="#99ff23" stroke="none" /><path d="M 119.9155931802556 106.66101706037122 l 30.168552534593093 10.09024643658899 a52.8112344177902,52.8112344177902 0 0,0 -0.2957659712732646,0.8596343575024062 l -29.990395732376598 -10.608053497180697" fill="#97ff23" stroke="none" /><path d="M 119.79798401119884 107.00284435728193 l 31.10865694578258 11.00359928728931 a53.99738980958374,53.99738980958374 0 0,0 -0.31749369573939007,0.8736062925583219 l -30.914638989037964 -11.537453376853763" fill="#89ff25" stroke="none" /><path d="M 119.67450827220406 107.3425965602758 l 31.281867380470672 11.67450432046382 a54.389358753020154,54.389358753020154 0 0,0 -0.33489786742888,0.8743126538131938 l -31.076275233448285 -12.211240541110156" fill="#84ff25" stroke="none" /><path d="M 119.26925614724726 108.34839909993367 l 31.347542226566226 13.58131270400824 a55.16314473830546,55.16314473830546 0 0,0 -0.3849833645551352,0.8680358544317944 l -31.109117777279817 -14.118896894932723" fill="#7bff26" stroke="none" /><path d="M 119.12269723197855 108.67885076344098 l 29.92408012189836 13.581066648741581 a53.8617702271097,53.8617702271097 0 0,0 -0.3904346957384161,0.8409615999194197 l -29.685870809320114 -14.094148315939833" fill="#8aff24" stroke="none" /><path d="M 118.81262510543309 109.33194174019688 l 32.89830578116921 16.31909800894242 a57.723445958907234,57.723445958907234 0 0,0 -0.4492020153869063,0.8863181921646079 l -32.61252509599604 -16.88297041280972" fill="#5eff2a" stroke="none" /><line stroke="#e1ed5e" stroke-width="0.3" x1="174.80103733775053" x2="179.2010983576182" y1="140.37084112569926" y2="142.7455964860345" /><path d="M 175.68104954172406 140.8457921977663 a86.0,86.0 0 0,1 -30.038265399797805,32.042727171017184" fill="none" id="id41" stroke="none" /><text fill="#e1ed5e" style="font-size:6.75px; font-family:Arial;" text-anchor="middle"><textPath startOffset="22.206326154141568" xlink:href="#id41">May</textPath></text><path d="M 118.48025628344425 109.97397251340804 l 27.70148137451224 14.950756611399976 a52.47851955851432,52.47851955851432 0 0,0 -0.4358805622888214,0.7912498306220495 l -27.440024402771908 -15.42537696041983" fill="#9bff22" stroke="none" /><path d="M 117.94076556474637 110.91462005526583 l 37.82815195722995 23.0135054446804 a65.27855590860676,65.27855590860676 0 0,0 -0.5922796748572104,0.9549434218238618 l -37.42640764270478 -23.661245197869537" fill="#34ff59" stroke="none" /><path d="M 117.75023020441432 111.22182372390056 l 32.74773626958484 20.703355367339082 a59.743298184958526,59.743298184958526 0 0,0 -0.5570212966871226,0.8645094222790839 l -32.38651010952067 -21.26398638953962" fill="#48ff2c" stroke="none" /><path d="M 117.35343817320211 111.8261652097733 l 32.37432943507372 22.062726972804903 a60.17730373375908,60.17730373375908 0 0,0 -0.5907092762431282,0.8509607696078787 l -31.989759251668453 -22.6167290045998" fill="#43ff2d" stroke="none" /><path d="M 116.93607887273984 112.41649034213515 l 25.395921733825073 18.618726288834683 a52.48983660372204,52.48983660372204 0 0,0 -0.540492179931926,0.724077600988514 l -25.071668287198055 -19.05311676933251" fill="#9aff22" stroke="none" /><path d="M 116.71984013943494 112.70617746262583 l 29.46260630087313 22.389993029145295 a58.004823440808686,58.004823440808686 0 0,0 -0.6109653101703079,0.7897550223477448 l -29.072834173484754 -22.893826045606293" fill="#5bff2a" stroke="none" /><path d="M 116.498646956653 112.99209946851258 l 23.110665121762846 18.198829324264697 a50.415985979463315,50.415985979463315 0 0,0 -0.5427691131452512,0.677187923215037 l -22.79397809656274 -18.593945081057985" fill="#b4ff20" stroke="none" /><path d="M 116.0416608686014 113.55231037782055 l 24.108344324845994 20.367203100844957 a52.5600257958767,52.5600257958767 0 0,0 -0.589817322664354,0.6860907971100304 l -23.754184492610865 -20.779170997116516" fill="#9aff23" stroke="none" /><path d="M 115.80600337817218 113.82643327865902 l 27.73508037651102 24.26149287261639 a57.84908031280486,57.84908031280486 0 0,0 -0.6620721194840564,0.743845044818687 l -27.313349407378627 -24.73531208717594" fill="#5dff2a" stroke="none" /><path d="M 115.56566222782051 114.09645910891815 l 21.048502713038967 19.06178827830389 a49.397028697166405,49.397028697166405 0 0,0 -0.5761895054147291,0.6253399093182925 l -20.71726679962852 -19.42127944242352" fill="#c0ff1e" stroke="none" /><path d="M 115.32070863581623 114.36230785411682 l 21.366133077041685 20.029555303148168 a50.286425666300175,50.286425666300175 0 0,0 -0.5974349408719326,0.6264081469908039 l -21.018191584790788 -20.394370566721477" fill="#b5ff1f" stroke="none" /><path d="M 114.81725581225074 114.88116024355365 l 30.014816128681666 30.144265183194115 a63.538992826268206,63.538992826268206 0 0,0 -0.7816810391743076,0.7650394188821596 l -29.491485137131566 -30.656454704998847" fill="#31ff43" stroke="none" /><path d="M 114.55890576462653 115.13401014063108 l 19.597740200102837 20.37188808807555 a49.2680958896032,49.2680958896032 0 0,0 -0.6162363475236335,0.5826899301170511 l -19.244168018188397 -20.706212654938525" fill="#c2ff1e" stroke="none" /><path d="M 113.48314897796784 116.09983520530334 l 28.86373578674659 34.46534562032821 a65.95525878354826,65.95525878354826 0 0,0 -0.8766706145739742,0.7214402323628093 l -28.266195043627924 -34.9570809715482" fill="#35ff62" stroke="none" /><path d="M 113.20401910651253 116.32954008644616 l 20.517938455216846 25.37473596432809 a53.632239023876856,53.632239023876856 0 0,0 -0.7228668287857348,0.5742891272590824 l -20.07811413371376 -25.7241590055923" fill="#8dff24" stroke="none" /><path d="M 112.63410532772338 116.77436683061366 l 19.16438903159167 25.44465819792525 a52.85442571705595,52.85442571705595 0 0,0 -0.7314424044415244,0.5411036044876156 l -18.723561656731583 -25.770771751152633" fill="#96ff23" stroke="none" /><path d="M 112.34349029814194 116.9893568818739 l 19.025063360043116 26.185753244581896 a53.3673710523389,53.3673710523389 0 0,0 -0.7478361373929454,0.5335612277489171 l -18.57149989480129 -26.50935873417503" fill="#90ff24" stroke="none" /><path d="M 111.7513745106137 117.40417183066458 l 23.906117719315258 35.40574595893202 a63.72082994650491,63.72082994650491 0 0,0 -0.914318965722386,0.6059607541914576 l -23.29312405485291 -35.8120047342148" fill="#32ff45" stroke="none" /><path d="M 111.45004920935366 117.60387380957326 l 17.767484148132812 27.3166117575995 a53.586512100400896,53.586512100400896 0 0,0 -0.7775612096106912,0.4962763530088736 l -17.294641136475192 -27.618402539432182" fill="#8dff24" stroke="none" /><path d="M 111.1453310114006 117.79835938074945 l 3.160698718231745 5.047427629006178 a26.955379253875165,26.955379253875165 0 0,0 -0.3953722611384131,0.2428699350403928 l -3.073347257161023 -5.101086030874948" fill="#ff0000" stroke="none" /><line stroke="#e1ed5e" stroke-width="0.3" x1="143.8653032363475" x2="146.44561519142675" y1="172.8068346515853" y2="177.08958963109032" /><path d="M 144.38136562736335 173.6633856474863 a86.0,86.0 0 0,1 -40.68145358897372,12.25698825130547" fill="none" id="id42" stroke="none" /><text fill="#e1ed5e" style="font-size:6.75px; font-family:Arial;" text-anchor="middle"><textPath startOffset="21.466115282336833" xlink:href="#id42">June</textPath></text><path d="M 110.8373102113329 117.98757091392108 l 21.710320141343985 36.03439557335725 a63.06917713691147,63.06917713691147 0 0,0 -0.934721632038526,0.5522500160092234 l -21.086830638277075 -36.40276416166022" fill="#31ff3d" stroke="none" /><path d="M 110.5260780823613 118.17145234162733 l 14.191679840394233 24.499479468948294 a49.31304065164445,49.31304065164445 0 0,0 -0.7381721493194985,0.41915341149330126 l -13.767858924153536 -24.740136046236223" fill="#c1ff1e" stroke="none" /><path d="M 110.21172684928248 118.3499491758327 l 17.935587573359307 32.22933057918256 a57.88380472760196,57.88380472760196 0 0,0 -0.8748094848947872,0.4770158818963577 l -17.37815527659587 -32.533287112838686" fill="#5cff2a" stroke="none" /><path d="M 109.57404056367764 118.69057910512821 l 11.975365371417773 23.378479785897152 a47.267140934607895,47.267140934607895 0 0,0 -0.7273424708584177,0.3647046142704203 l -11.571168992876595 -23.581152241076875" fill="#dbff1b" stroke="none" /><path d="M 109.2508944713604 118.85261126421891 l 18.9350466831632 38.588168473077204 a63.98351706177799,63.98351706177799 0 0,0 -0.9929246508202103,0.47666417232536196 l -18.268009364342756 -38.90838692190213" fill="#32ff49" stroke="none" /><path d="M 108.92500713936063 119.00905698771935 l 13.390613951383914 28.520194967669415 a52.507301740848476,52.507301740848476 0 0,0 -0.8214442417983722,0.37708476211381503 l -12.897701713818122 -28.746466800117304" fill="#9aff22" stroke="none" /><path d="M 108.59647513512805 119.15986991738527 l 11.270657301806535 25.120101482481065 a48.53265723654207,48.53265723654207 0 0,0 -0.7651504483305158,0.3354194708491741 l -10.836586178818266 -25.310385506624694" fill="#cbff1d" stroke="none" /><path d="M 106.91757812671514 119.82793768551818 l 14.314460397867844 41.02971062583696 a64.45504493752188,64.45504493752188 0 0,0 -1.0507101308097573,0.35645792373290697 l -13.60608053412086 -41.270031536468" fill="#33ff4f" stroke="none" /><path d="M 106.57524785965236 119.94407469862006 l 10.83408533335465 32.86200182742209 a55.60185788532031,55.60185788532031 0 0,0 -0.9115491830096555,0.29184926262525734 l -10.266814805254056 -33.04362393670705" fill="#76ff27" stroke="none" /><path d="M 105.53697534728816 120.25689768951611 l 14.034350483398269 51.34435030855745 a74.22786208461434,74.22786208461434 0 0,0 -1.2353974861068,0.326279704433829 l -13.148462554479972 -51.578321362294865" fill="#40ffc5" stroke="none" /><path d="M 105.18746579009965 120.34920634021253 l 10.483085982822182 41.12267692516969 a63.43783275822561,63.43783275822561 0 0,0 -1.0604591815611724,0.26063506598403413 l -9.773673516517798 -41.29703324946775" fill="#31ff42" stroke="none" /><path d="M 104.83641907484287 120.43548508189849 l 6.116427057576441 25.843946100490612 a47.55786568976726,47.55786568976726 0 0,0 -0.7982471139773093,0.18167844427175717 l -5.67065979420627 -25.945401278340054" fill="#d7ff1c" stroke="none" /><path d="M 104.48393922423573 120.51570834832081 l 5.936683625472554 27.162560357228376 a48.80375689774726,48.80375689774726 0 0,0 -0.8222469478451367,0.17230984247827486 l -5.4682452161980395 -27.260726180433192" fill="#c8ff1d" stroke="none" /><path d="M 104.13013068566511 120.58985236759428 l 5.4819912632019046 27.329254055212058 a48.87364984038055,48.87364984038055 0 0,0 -0.8262727851151213,0.158357145813116 l -5.010750863515079 -27.41956839937364" fill="#c7ff1e" stroke="none" /><path d="M 103.06178313531738 120.77559828337769 l 6.133665953686839 41.61972753338696 a63.06927118437857,63.06927118437857 0 0,0 -1.07539537075287,0.14903999936141268 l -5.416341991747139 -41.71914209824097" fill="#31ff3d" stroke="none" /><path d="M 102.34483914955558 120.86867818915974 l 4.7445136513044535 42.225381886818695 a63.49109654121779,63.49109654121779 0 0,0 -1.0871108915232706,0.11268348883464763 l -4.01697016317558 -42.3007947441091" fill="#31ff42" stroke="none" /><path d="M 101.98527174616119 120.90594882070398 l 4.559614327623026 48.015121335281414 a69.23113060730032,69.23113060730032 0 0,0 -1.1873326227331753,0.10244805472454135 l -3.7324373871483094 -48.086493642284616" fill="#39ff8a" stroke="none" /><path d="M 101.62511606390274 120.93702456842531 l 2.0914450484647644 26.94492863362596 a48.025974940082065,48.025974940082065 0 0,0 -0.8247597625376891,0.056880262046630645 l -1.627322525148145 -26.976937240188875" fill="#d1ff1c" stroke="none" /><path d="M 100.90346689309514 120.98055641714683 l 0.9693144551904705 22.509686595608304 a43.53054728908176,43.53054728908176 0 0,0 -0.7488905150480656,0.02579330354954767 l -0.5817035884677527 -22.523036697583947" fill="#fff216" stroke="none" /><line stroke="#e1ed5e" stroke-width="0.3" x1="102.19456741930631" x2="102.32365962044197" y1="184.97166512339345" y2="189.96999836594603" /><path d="M 102.22038585953345 185.97133177190398 a86.0,86.0 0 0,1 -42.740103519485714,-10.115201625700543" fill="none" id="id43" stroke="none" /><text fill="#e1ed5e" style="font-size:6.75px; font-family:Arial;" text-anchor="middle"><textPath startOffset="22.20632615414155" xlink:href="#id43">July</textPath></text><path d="M 100.18074693466247 120.99922214144158 l 0.2902397206583074 33.72012023194499 a54.721369301264644,54.721369301264644 0 0,0 -0.9419733106415025,0.0 l 0.29023972065828413 -33.72012023194499" fill="#80ff25" stroke="none" /><path d="M 99.81925306533755 120.99922214144158 l -0.2929759954221536 34.03802128909887 a55.039282134190806,55.039282134190806 0 0,0 -0.9473054858412793,-0.016308723029464005 l 0.8788411711561008 -34.027935088790244" fill="#7cff26" stroke="none" /><path d="M 99.45781275523022 120.99299961872073 l -0.9105435780806858 35.25542360479717 a56.26717997177083,56.26717997177083 0 0,0 -0.9680089044029017,-0.033340183923047766 l 1.5172728341582304 -35.23452662244803" fill="#6eff28" stroke="none" /><path d="M 99.09653310690486 120.98055641714683 l -1.4275285914314186 33.150461160797825 a54.18118311713612,54.18118311713612 0 0,0 -0.9314311225123703,-0.04814434984848973 l 1.9979477823572778 -33.12097700418713" fill="#86ff25" stroke="none" /><path d="M 98.73552117531835 120.96189622390904 l -2.259583771138495 37.45824729944295 a58.52633754531632,58.52633754531632 0 0,0 -1.005084609241111,-0.06931651924527202 l 2.904031141158536 -37.41380243568139" fill="#55ff2b" stroke="none" /><path d="M 98.37488393609728 120.93702456842531 l -2.8444872969862858 36.64667511719375 a57.756902822842186,57.756902822842186 0 0,0 -0.9905465114902955,-0.08546852101373319 l 3.474878126218123 -36.59228234390135" fill="#5eff2a" stroke="none" /><path d="M 98.01472825383883 120.90594882070398 l -3.066030436538948 32.2869025426608 a53.43215408259309,53.43215408259309 0 0,0 -0.9148790905356115,-0.09483095844892127 l 3.6213421236801526 -32.22934221575611" fill="#8fff24" stroke="none" /><path d="M 96.93821686468263 120.77559828337769 l -5.524247817904458 37.484546883400554 a58.88942555657813,58.88942555657813 0 0,0 -1.0015805153097976,-0.15642627794773983 l 6.168664196822772 -37.3839022981057" fill="#51ff2b" stroke="none" /><path d="M 96.58105272829116 120.7198165907248 l -4.574315067562061 27.721682054693623 a49.09654808475318,49.09654808475318 0 0,0 -0.8326564808360382,-0.14476800224379469 l 5.0508205198701495 -27.638835473928822" fill="#c4ff1e" stroke="none" /><path d="M 96.22490169976321 120.6578951692458 l -5.790618611535762 31.687119838624096 a53.21187401520733,53.21187401520733 0 0,0 -0.8996161221299759,-0.17241357091062168 l 6.3352023482374324 -31.582749069365004" fill="#92ff23" stroke="none" /><path d="M 95.86986931433489 120.58985236759428 l -6.210248653864782 30.95982008340144 a52.576536351212056,52.576536351212056 0 0,0 -0.8858108328346219,-0.18563027259790357 l 6.742250948128791 -30.848333830076996" fill="#99ff23" stroke="none" /><path d="M 95.51606077576429 120.51570834832081 l -7.19904468365194 32.93833696898668 a54.715875884214135,54.715875884214135 0 0,0 -0.9183925598812603,-0.20902315659950169 l 7.764957392926063 -32.8095370788095" fill="#80ff25" stroke="none" /><path d="M 94.81253420990036 120.34920634021253 l -13.238323197075406 51.93082349571216 a74.59163768735786,74.59163768735786 0 0,0 -1.241451917051156,-0.32787873467410056 l 14.13026555693805 -51.695253411734484" fill="#40ffc9" stroke="none" /><path d="M 94.46302465271185 120.25689768951611 l -7.155116943491589 26.176831715860896 a48.13710038223578,48.13710038223578 0 0,0 -0.7973998514666335,-0.22535316303630112 l 7.604647963062837 -26.049789759486075" fill="#d0ff1d" stroke="none" /><path d="M 94.11515582081647 120.15858648285463 l -10.288634824721036 35.24381081121917 a57.71487718968255,57.71487718968255 0 0,0 -0.9512649210693783,-0.28660831737306774 l 10.893774720230661 -35.061487124740374" fill="#5eff2a" stroke="none" /><path d="M 92.7421414339146 119.70592522655815 l -18.19892171254943 49.41217677446609 a73.65704098304982,73.65704098304982 0 0,0 -1.1859828098594967,-0.44843721817382637 l 19.046774743169212 -49.09159130618563" fill="#3fffbe" stroke="none" /><path d="M 92.40401165467489 119.57807347666478 l -15.506636147895557 39.967157409640734 a63.86991294638025,63.86991294638025 0 0,0 -1.0215503635109713,-0.40649597203778776 l 16.192307587448386 -39.69431459319688" fill="#32ff47" stroke="none" /><path d="M 92.06813273071674 119.44442032107085 l -16.61085512472103 40.720354737690336 a64.97803767720669,64.97803767720669 0 0,0 -1.032001431961793,-0.43137668225782533 l 17.309328016180284 -40.42839301241254" fill="#33ff56" stroke="none" /><path d="M 91.7346041902142 119.30500536409082 l -13.67259433088554 31.934285178004508 a55.7381405024374,55.7381405024374 0 0,0 -0.8787498073037566,-0.38521809144561137 l 14.22026481284704 -31.694202533264445" fill="#74ff27" stroke="none" /><path d="M 91.07499286063937 119.00905698771935 l -13.697691050598214 29.174227618561638 a53.229835513965675,53.229835513965675 0 0,0 -0.8260442418301066,-0.3965514347043642 l 14.197847960428565 -28.934121907357714" fill="#92ff23" stroke="none" /><line stroke="#e1ed5e" stroke-width="0.3" x1="58.666819895761336" x2="56.23545636021788" y1="174.27360380694188" y2="178.64263932499728" /><path d="M 58.180547188652646 175.14741091055294 a86.0,86.0 0 0,1 -31.652253787137756,-30.449443065178592" fill="none" id="id44" stroke="none" /><text fill="#e1ed5e" style="font-size:6.75px; font-family:Arial;" text-anchor="middle"><textPath startOffset="22.20632615414155" xlink:href="#id44">August</textPath></text><path d="M 89.7882731507175 118.34994917583269 l -21.026802885634027 37.78408588247216 a64.2407630085934,64.2407630085934 0 0,0 -0.9616268126511349,-0.5460368011414839 l 21.674078465206367 -37.41654591553605" fill="#32ff4c" stroke="none" /><path d="M 89.4739219176387 118.17145234162733 l -16.179588622508472 27.93125998691953 a53.279008232139006,53.279008232139006 0 0,0 -0.7896256743611895,-0.4665247666904187 l 16.657982167898044 -27.648616647935363" fill="#91ff24" stroke="none" /><path d="M 89.1626897886671 117.98757091392108 l -19.29909130626849 32.032281689484485 a58.396817986055595,58.396817986055595 0 0,0 -0.8565445046415328,-0.5261595934993202 l 19.847615010842333 -31.69533362915679" fill="#56ff2a" stroke="none" /><path d="M 88.8546689885994 117.79835938074946 l -17.256417135612946 27.55736132821825 a53.51449055009558,53.51449055009558 0 0,0 -0.7765161488000984,-0.49560934575421295 l 17.72821508645997 -27.25623755364023" fill="#8eff24" stroke="none" /><path d="M 88.24862548938628 117.40417183066458 l -19.29024102824304 28.569480889852453 a55.47214291632238,55.47214291632238 0 0,0 -0.7867617077543679,-0.541141876669719 l 19.779159620620298 -28.23319822381763" fill="#77ff26" stroke="none" /><path d="M 87.95078237400918 117.19931262002967 l -15.516543440753473 22.148648128333946 a48.0430348567157,48.0430348567157 0 0,0 -0.6732262974064189,-0.4803290879326499 l 15.89549706600878 -21.878274778557078" fill="#d1ff1c" stroke="none" /><path d="M 87.65650970185807 116.9893568818739 l -19.164169539907505 26.377216475573068 a53.60403262103573,53.60403262103573 0 0,0 -0.7418160726593591,-0.5487777962357947 l 19.61537058298543 -26.04342873059751" fill="#8dff24" stroke="none" /><path d="M 87.07902340077011 116.55440617244103 l -22.588262887572288 28.940171487736826 a57.711893795031756,57.711893795031756 0 0,0 -0.777853291417873,-0.6179736987162084 l 23.08307367170752 -28.547063875015485" fill="#5eff2a" stroke="none" /><path d="M 86.79598089348748 116.32954008644616 l -27.148469105254918 33.57477832800536 a64.17759968471707,64.17759968471707 0 0,0 -0.8530421500145474,-0.7019956146480653 l 27.722381383814156 -33.10248759450011" fill="#32ff4b" stroke="none" /><path d="M 86.51685102203217 116.09983520530335 l -21.314599156920938 25.451141603068272 a54.19748102069865,54.19748102069865 0 0,0 -0.7100761005406641,-0.6051422576527776 l 21.749540734038657 -25.080474955192546" fill="#86ff25" stroke="none" /><path d="M 85.97065885151581 115.62618273729859 l -36.279259285015506 40.408621414323534 a75.30507654792055,75.30507654792055 0 0,0 -0.9570932789558568,-0.8742820178635538 l 36.969452113438216 -39.778146629873405" fill="#41ffd1" stroke="none" /><path d="M 85.70375840098266 115.38237550388516 l -18.409048489189498 19.80764626623314 a48.04137416784786,48.04137416784786 0 0,0 -0.6008927362150628,-0.5681815879248663 l 18.747277059795376 -19.487830041562344" fill="#d1ff1c" stroke="none" /><path d="M 84.67929136418377 114.36230785411682 l -29.026422593745295 27.21064848270002 a60.78633684369236,60.78633684369236 0 0,0 -0.7090395978401908,-0.7695224464342113 l 29.490508599581215 -26.706974781464464" fill="#3dff2e" stroke="none" /><path d="M 84.43433777217949 114.09645910891817 l -22.059992479189777 19.977806107738118 a50.761653264902606,50.761653264902606 0 0,0 -0.580957816163756,-0.6527122651515095 l 22.400609145001873 -19.595119672845748" fill="#afff20" stroke="none" /><path d="M 83.95833913139862 113.55231037782056 l -24.670480781429244 20.842107027358967 a53.29591378683619,53.29591378683619 0 0,0 -0.5860114134623666,-0.705888498173523 l 25.02558819478515 -20.414357272071683" fill="#91ff24" stroke="none" /><path d="M 83.50135304334701 112.99209946851258 l -25.04096453922378 19.718871670861606 a52.87293216863756,52.87293216863756 0 0,0 -0.5569110547330532,-0.7198826106081324 l 25.3766824111749 -19.28491106614022" fill="#96ff23" stroke="none" /><path d="M 82.05923443525364 110.91462005526583 l -36.8329403349401 22.408048743700885 a64.11364218222965,64.11364218222965 0 0,0 -0.5654796505137847,-0.9477764205898321 l 37.21320086115212 -21.770710229224942" fill="#32ff4b" stroke="none" /><line stroke="#e1ed5e" stroke-width="0.3" x1="26.63291911575756" x2="22.317208475507996" y1="142.92168965132927" y2="145.44649492493687" /><path d="M 25.769776987707644 143.4266507060508 a86.0,86.0 0 0,1 -11.730757126820373,-40.83630448921669" fill="none" id="id45" stroke="none" /><text fill="#e1ed5e" style="font-size:6.75px; font-family:Arial;" text-anchor="middle"><textPath startOffset="21.46611528233685" xlink:href="#id45">September</textPath></text><path d="M 81.87401531095188 110.60418214915194 l -29.29548838883436 17.13863827829808 a54.94051505169998,54.94051505169998 0 0,0 -0.47052104582897697,-0.8203931037398137 l 29.586161430815714 -16.63182532869996" fill="#7eff26" stroke="none" /><path d="M 81.69416730710424 110.29060199501025 l -29.14513775922116 16.383904398202276 a54.43458356751899,54.43458356751899 0 0,0 -0.45212740551705416,-0.8207425702959023 l 29.422841574189732 -15.87979130950855" fill="#83ff25" stroke="none" /><path d="M 81.18737489456691 109.33194174019688 l -48.17240885033366 23.895767356062954 a74.7734941395739,74.7734941395739 0 0,0 -0.5620358353081017,-1.1579602902502137 l 48.576597942256484 -23.063018109847455" fill="#41ffcb" stroke="none" /><path d="M 80.87730276802145 108.67885076344099 l -39.08715536155142 17.739735354019324 a63.92439777898696,63.92439777898696 0 0,0 -0.446128114175929,-1.0059011230842314 l 39.386724560458624 -17.0642858944424" fill="#32ff48" stroke="none" /><path d="M 80.73074385275274 108.34839909993369 l -29.824115160710562 12.921288412036791 a53.50288509265542,53.50288509265542 0 0,0 -0.35884899374672774,-0.8482130189381574 l 30.042115135649595 -12.406000867432475" fill="#8eff24" stroke="none" /><path d="M 80.45479744820244 107.68017299344265 l -29.320242572834363 11.521217780798075 a52.5026202669306,52.5026202669306 0 0,0 -0.32328043508780435,-0.8439832038868376 l 29.514217287515677 -11.014811010078079" fill="#9aff22" stroke="none" /><path d="M 80.32549172779594 107.34259656027581 l -39.52957621444793 14.752578632495112 a63.192724159525405,63.192724159525405 0 0,0 -0.3715603959376385,-1.0223746307801678 l 39.77766087139079 -14.069956204708827" fill="#31ff3f" stroke="none" /><path d="M 80.20201598880116 107.00284435728193 l -31.271666256950216 11.061258129434508 a54.17029607784742,54.17029607784742 0 0,0 -0.30337730996547263,-0.8817564705306212 l 31.45743439785892 -10.521328955814589" fill="#87ff25" stroke="none" /><path d="M 79.97269907076064 106.31721596034903 l -33.00847964665293 10.411872033452871 a55.61165710890622,55.61165710890622 0 0,0 -0.2801059266043529,-0.9154023749634784 l 33.18281234576341 -9.842142685937345" fill="#76ff27" stroke="none" /><path d="M 79.86692584326677 105.97154293290107 l -33.32482469754982 9.884264065369665 a55.75978448201865,55.75978448201865 0 0,0 -0.2650112884261626,-0.9225390612262959 l 33.49002862286209 -9.309167528638774" fill="#74ff27" stroke="none" /><path d="M 79.50377843672027 104.57218783832718 l -31.92709461211119 7.122126058597177 a53.71183348522746,53.71183348522746 0 0,0 -0.19353131012059557,-0.9041138509927645 l 32.04495996095623 -6.571498388188248" fill="#8cff24" stroke="none" /><path d="M 79.4281124754447 104.21870165774334 l -41.36050107601369 8.481847581861409 a63.22123621663461,63.22123621663461 0 0,0 -0.20944312575964252,-1.067945985983114 l 41.500374134749 -7.768637868810341" fill="#31ff3f" stroke="none" /><path d="M 79.35854240842038 103.8639653848113 l -31.03287094633327 5.809179831218091 a52.571912350746295,52.571912350746295 0 0,0 -0.158851184366057,-0.8909218020822659 l 31.128268573038515 -5.274139278402611" fill="#99ff23" stroke="none" /><path d="M 79.23777060512086 103.15116336523772 l -34.06606430262964 5.170337529107334 a55.45619142093034,55.45619142093034 0 0,0 -0.13511755528843053,-0.9450118669857898 l 34.15001590893467 -4.583180190141143" fill="#78ff26" stroke="none" /><path d="M 79.18660465613746 102.79330883721812 l -35.13013557099444 4.714719368075901 a56.44509844754503,56.44509844754503 0 0,0 -0.1209497257406001,-0.9640883176492265 l 35.20608680598189 -4.109313296139266" fill="#6cff28" stroke="none" /><path d="M 79.1416061653843 102.43462659150553 l -27.26922343483736 3.1829093376299302 a48.4543522704626,48.4543522704626 0 0,0 -0.08956602082841139,-0.8292701155568913 l 27.319971757166826 -2.7130429001882566" fill="#ccff1d" stroke="none" /><path d="M 79.10278846688536 102.07522291339032 l -27.032232914377207 2.684468645738891 a48.16519810800381,48.16519810800381 0 0,0 -0.07482900160325101,-0.8257317972917504 l 27.07443651225753 -2.2187554598985746" fill="#d0ff1d" stroke="none" /><path d="M 79.04373962182676 101.35467743843564 l -32.3015922139237 2.088074752274348 a53.36901165815388,53.36901165815388 0 0,0 -0.051370594054150294,-0.9172564656500715 l 32.33274915886538 -1.5317465702888386" fill="#90ff24" stroke="none" /><path d="M 79.0235259727143 100.99374915477108 l -26.775292233472896 1.2684650428452064 a47.805321817743476,47.805321817743476 0 0,0 -0.03186535922906486,-0.8223033311612925 l 26.793159725553163 -0.8073844646699172" fill="#d4ff1c" stroke="none" /><line stroke="#e1ed5e" stroke-width="0.3" x1="15.007084014347285" x2="10.007500721073583" y1="101.09737516637583" y2="101.16192664675087" /><path d="M 14.007167355692545 101.11028546245083 a86.0,86.0 0 0,1 10.666146001902534,-42.60595125391555" fill="none" id="id46" stroke="none" /><text fill="#e1ed5e" style="font-size:6.75px; font-family:Arial;" text-anchor="middle"><textPath startOffset="22.20632615414155" xlink:href="#id46">October</textPath></text><path d="M 79.00175016825051 100.2711162175752 l -54.53453173572985 0.704115632964358 a75.53907709578436,75.53907709578436 0 0,0 -0.005596016523159647,-1.3003171616841849 l 54.53857204954251 0.23471100692350225" fill="#42ffd3" stroke="none" /><path d="M 79.00019446554 99.90962569577889 l -32.79305015460222 -0.1411274540684305 a53.79335382970989,53.79335382970989 0 0,0 0.011954914258926903,-0.925921284131618 l 32.785762233225576 0.7055849962605205" fill="#8bff24" stroke="none" /><path d="M 79.00486145842228 99.54816195383935 l -32.12423191719888 -0.6913481497220895 a53.13167033526429,53.13167033526429 0 0,0 0.027548279080585568,-0.9141932671097545 l 32.10757194366265 1.2442115642568383" fill="#93ff23" stroke="none" /><path d="M 79.01574976396665 99.18683210126434 l -33.280108556729516 -1.2896489338608734 a54.30508699763911,54.30508699763911 0 0,0 0.044236385385502126,-0.9337601794627963 l 33.25297856311052 1.8623202199466788" fill="#85ff25" stroke="none" /><path d="M 79.03285615573316 98.82574320788736 l -38.16849663804743 -2.1376119110381877 a59.22830783975208,59.22830783975208 0 0,0 0.06576995879198572,-1.017432152039183 l 38.12604608825103 2.7943031273303824" fill="#4dff2c" stroke="none" /><path d="M 79.32604984820605 96.31383870115002 l -41.79041806901481 -7.451223429374304 a63.44949673408975,63.44949673408975 0 0,0 0.2009665401691228,-1.0735712935042374 l 41.65596580493583 8.169472800341113" fill="#31ff42" stroke="none" /><path d="M 79.3925641242962 95.95851677861259 l -52.54288653408103 -10.304590809432694 a74.54380932547812,74.54380932547812 0 0,0 0.2577820913521245,-1.2570370268793039 l 52.357725146813905 11.2075034924754" fill="#40ffc8" stroke="none" /><path d="M 79.46518482838121 95.60439243477599 l -33.72956202584932 -7.2200269042318315 a55.493653661991914,55.493653661991914 0 0,0 0.20798390614112836,-0.9323510696849807 l 33.60028373270615 7.799556143466772" fill="#77ff27" stroke="none" /><path d="M 79.81627453868168 94.20196356495316 l -24.11946271456911 -6.928627912663428 a46.09490718037483,46.09490718037483 0 0,0 0.22563260149170328,-0.7607209642554218 l 23.9966242159657 7.342778263665388" fill="#eaff1a" stroke="none" /><path d="M 79.91906864156998 93.8553929516997 l -31.629057052666823 -9.678242678486189 a54.076662942088404,54.076662942088404 0 0,0 0.2800257405270144,-0.8877581214047551 l 31.457775828371606 10.221250966317358" fill="#88ff25" stroke="none" /><path d="M 80.38941819471856 92.48833698450439 l -58.83174541584431 -22.534989046486853 a84.0,84.0 0 0,0 0.5288258004732356,-1.3458039804169464 l 58.435126065489385 23.544342031799562" fill="#4dd2ff" stroke="none" /><path d="M 80.52162464483688 92.15188598940014 l -39.436610907442635 -15.889570508314273 a63.51734623425731,63.51734623425731 0 0,0 0.417334108898477,-1.010607647342237 l 39.15725511165796 16.56605272610982" fill="#31ff43" stroke="none" /><path d="M 80.65960295795068 91.81776055985345 l -38.65334482285975 -16.352866066583857 a62.97019531270409,62.97019531270409 0 0,0 0.4309239080693551,-0.9946317928939459 l 38.366130204947716 17.0157970040644" fill="#31ff3c" stroke="none" /><path d="M 81.43458229118936 90.18545643968196 l -47.70235267437973 -25.21768298432466 a74.95781672537169,74.95781672537169 0 0,0 0.6128404777148805,-1.1355003308676177 l 47.261204097446374 26.035064298524752" fill="#41ffcd" stroke="none" /><path d="M 81.6062741919709 89.86733742301443 l -37.822196427735285 -20.835341263781448 a64.18136158340107,64.18136158340107 0 0,0 0.5413922750450972,-0.9630764471318001 l 37.45794651139776 21.48330122084803" fill="#32ff4b" stroke="none" /><line stroke="#e1ed5e" stroke-width="0.3" x1="26.266209847984243" x2="21.928928074336255" y1="57.711370442889674" y2="55.22380399835377" /><path d="M 25.398753493254645 57.213857153982495 a86.0,86.0 0 0,1 29.58750427330803,-30.492523968695096" fill="none" id="id47" stroke="none" /><text fill="#e1ed5e" style="font-size:6.75px; font-family:Arial;" text-anchor="middle"><textPath startOffset="21.46611528233685" xlink:href="#id47">November</textPath></text><path d="M 81.96595687620814 89.24020034530311 l -41.20806944154358 -24.586309808857674 a68.98532710231544,68.98532710231544 0 0,0 0.6172025291706066,-1.0145186754784017 l 40.77875111408675 25.29199625754315" fill="#39ff87" stroke="none" /><path d="M 82.15384107792192 88.93136811851018 l -36.82809677678506 -22.841702121895516 a64.3364981052421,64.3364981052421 0 0,0 0.5918112375288898,-0.9361032539946019 l 36.429457943010206 23.472253023604335" fill="#32ff4d" stroke="none" /><path d="M 82.34701348167596 88.62581576622439 l -36.0087945476614 -23.201210899704435 a63.83607675766133,63.83607675766133 0 0,0 0.6031091625842891,-0.9185766315571597 l 35.60408874971919 23.81760559523926" fill="#32ff47" stroke="none" /><path d="M 82.54541684631803 88.32363383020206 l -36.19150642663718 -24.210562781894257 a64.54281212376348,64.54281212376348 0 0,0 0.6256827364446311,-0.9181122105379429 l 35.769399224523816 24.829953015702614" fill="#33ff50" stroke="none" /><path d="M 82.7489923806493 88.02491185347247 l -35.96660831545211 -24.96684914949795 a64.78287873325526,64.78287873325526 0 0,0 0.6437794878288615,-0.9105804302036409 l 35.53151620781938 25.58225608003338" fill="#33ff53" stroke="none" /><path d="M 82.95767976084542 87.72973835380427 l -34.7714347300923 -25.035006734095667 a63.84628613270098,63.84628613270098 0 0,0 0.6498256380338355,-0.886361439989419 l 34.33534647954483 25.62983061775659" fill="#32ff47" stroke="none" /><path d="M 83.39014120810768 87.1503855733568 l -34.199622498102464 -26.457296726199512 a64.23890295868853,64.23890295868853 0 0,0 0.6841318339919319,-0.8687779544942671 l 33.73913658351656 27.042067074646827" fill="#32ff4c" stroke="none" /><path d="M 83.84228863543731 86.58626213691792 l -34.77256653419979 -28.867336579567652 a66.19352281658729,66.19352281658729 0 0,0 0.7353450632860807,-0.8704166151581665 l 34.270510857426586 29.461612144354937" fill="#35ff65" stroke="none" /><path d="M 84.07557802195018 86.31012108654704 l -33.19467405360941 -28.536738664162403 a64.77478542622535,64.77478542622535 0 0,0 0.7341393317352836,-0.8392481649889634 l 32.698542858296285 29.10390238535431" fill="#33ff53" stroke="none" /><path d="M 84.31358615837235 86.03803664274999 l -31.482116903908228 -28.021201471465144 a63.14630964456775,63.14630964456775 0 0,0 0.7296596955658446,-0.8057084601654991 l 30.99511356772634 28.558962718900197" fill="#31ff3e" stroke="none" /><path d="M 85.31137513191541 84.99185889309783 l -31.399879549786295 -32.08290954770477 a65.89170882008496,65.89170882008496 0 0,0 0.8174235359353776,-0.7863607939260061 l 30.84297277023849 32.61865342839309" fill="#35ff61" stroke="none" /><path d="M 85.57189188830299 84.74124197986013 l -29.78841431890043 -31.503382312978065 a64.35680713327645,64.35680713327645 0 0,0 0.8114845310965033,-0.7541864328751308 l 29.24172190400907 32.011473331927846" fill="#32ff4e" stroke="none" /><path d="M 86.93701828274178 83.55741782278169 l -33.36462714056171 -41.99658511702176 a74.63684839473662,74.63684839473662 0 0,0 1.0128129513334008,-0.7905165734885483 l 32.63678163406888 42.56468007973353" fill="#40ffc9" stroke="none" /><path d="M 87.22198572758235 83.33499621200491 l -20.162271536369047 -26.295504478615857 a54.13564167616472,54.13564167616472 0 0,0 0.7443749882261983,-0.5606478086200624 l 19.70665039438446 26.638668876741775" fill="#87ff25" stroke="none" /><path d="M 89.00827224532344 82.1063720568725 l -28.27291903098744 -46.02598474943258 a75.0161940781445,75.0161940781445 0 0,0 1.1060885397415468,-0.6664059690851478 l 27.476468425028244 46.50583732797635" fill="#41ffce" stroke="none" /><line stroke="#e1ed5e" stroke-width="0.3" x1="56.762969772571076" x2="54.21961505331055" y1="26.818313649435495" y2="22.513508569990535" /><path d="M 56.25429882871897 25.957352633546506 a86.0,86.0 0 0,1 42.265352541879196,-11.944610805530505" fill="none" id="id48" stroke="none" /><text fill="#e1ed5e" style="font-size:6.75px; font-family:Arial;" text-anchor="middle"><textPath startOffset="22.20632615414155" xlink:href="#id48">December</textPath></text><path d="M 89.3179101791058 81.91981866633112 l -21.53367291338923 -36.44724183955605 a63.333208085992226,63.333208085992226 0 0,0 0.9433730682262941,-0.5464625716348971 l 20.903103112697615 36.81250856858099" fill="#31ff40" stroke="none" /><path d="M 91.56875222667455 80.76684994638697 l -16.898316812761596 -38.54801467720905 a63.089221264580154,63.089221264580154 0 0,0 0.9983606159324311,-0.4274459134278425 l 16.23227243903886 38.833180118599685" fill="#31ff3d" stroke="none" /><path d="M 92.57280143429618 80.3572730644239 l -22.140001596798996 -58.55370660578681 a83.5996503822731,83.5996503822731 0 0,0 1.3504037604238575,-0.49736510149024443 l 21.128815510602568 58.92613497508338" fill="#4cd6ff" stroke="none" /><path d="M 92.91201910852362 80.23233633223022 l -18.22293075326832 -50.82191553378105 a74.99020562806913,74.99020562806913 0 0,0 1.2188336523740333,-0.42522712888719155 l 17.345415096831 51.12806351584045" fill="#41ffcd" stroke="none" /><path d="M 93.59665428221793 80.00007090966166 l -16.359987377500765 -51.09806683718729 a74.65316040541921,74.65316040541921 0 0,0 1.2272077593010942,-0.38129942455611776 l 15.47799424548894 51.37210639662593" fill="#40ffca" stroke="none" /><path d="M 93.94186890950719 79.89281104454417 l -9.322269781947098 -30.94100097858699 a53.3148612165413,53.3148612165413 0 0,0 0.8809894468027623,-0.2571849778430137 l 8.788290117420914 31.096884285348704" fill="#91ff24" stroke="none" /><path d="M 94.63758080256005 79.69619591428918 l -10.926100207337264 -41.369648634804335 a63.78817002289235,63.78817002289235 0 0,0 1.0640204269556748,-0.2712424982340678 l 10.212370891696589 41.55159412920727" fill="#32ff46" stroke="none" /><path d="M 95.33964822691252 79.52364482259891 l -11.896619324507745 -52.27060414316522 a74.60732793978573,74.60732793978573 0 0,0 1.2546724139714112,-0.2742227933374503 l 10.995104186382813 52.467640434598536" fill="#40ffc9" stroke="none" /><path d="M 96.40284397218896 79.31037775812273 l -9.19917057571395 -52.91051115898735 a74.70425430435102,74.70425430435102 0 0,0 1.2688012232159738,-0.20936307333902443 l 8.287040146359091 53.061020495266" fill="#40ffca" stroke="none" /><path d="M 96.75951476605007 79.25152402106235 l -6.814128960103409 -43.63012969935785 a65.15903725250028,65.15903725250028 0 0,0 1.1096615679475872,-0.16353526999846038 l 6.062098411727174 43.74095945351728" fill="#34ff58" stroke="none" /><path d="M 98.55514903715128 79.0497635885617 l -3.7617426133801493 -54.54500090024006 a75.67456292186074,75.67456292186074 0 0,0 1.300297820937203,-0.07843751551824739 l 2.8222827436033233 54.60167168513861" fill="#42ffd5" stroke="none" /><path d="M 98.91598698831166 79.02799685794201 l -1.6811313816254834 -32.52423378456504 a53.567652448331735,53.567652448331735 0 0,0 0.9212594651951178,-0.039671370492069896 l 1.1210310840410416 32.5483528815813" fill="#8eff24" stroke="none" /></svg>