<?xml version="1.0" encoding="utf-8" ?>
<svg baseProfile="full" height="200mm" version="1.1" viewBox="0,0,200,200" width="200mm" xmlns="http://www.w3.org/2000/svg" xmlns:ev="http://www.w3.org/2001/xml-events" xmlns:xlink="http://www.w3.org/1999/xlink"><defs /><rect fill="#1a1a1a" height="200" width="200" x="0" y="0" /><text alignment-baseline="middle" fill="#e1ed5e" style="dominant-baseline: central; font-size:9.0px; font-family:Arial;" text-anchor="middle" x="100.0" y="100.0">2018</text><line stroke="#e1ed5e" stroke-width="0.3" x1="100.0" x2="100.0" y1="15.0" y2="10.0" /><path d="M 100.0 14.0 a86.0,86.0 0 0,1 42.46469731375804,11.215312516191453" fill="none" id="id1" stroke="none" /><text fill="#e1ed5e" style="font-size:6.75px; font-family:Arial;" text-anchor="middle"><textPath startOffset="22.20632615414155" xlink:href="#id1">January</textPath></text><line stroke="#e1ed5e" stroke-width="0.3" x1="143.23703022742887" x2="145.7803849466894" y1="26.81831364943548" y2="22.513508569990506" /><path d="M 143.74570117128098 25.957352633546492 a86.0,86.0 0 0,1 28.547481713284135,27.462654790039103" fill="none" id="id2" stroke="none" /><text fill="#e1ed5e" style="font-size:6.75px; font-family:Arial;" text-anchor="middle"><textPath startOffset="19.985693538727396" xlink:href="#id2">February</textPath></text><path d="M 117.2510076193507 88.02491185347247 l 7.963661453530529 -5.528114645787922 a30.694325932390704,30.694325932390704 0 0,0 0.2975530382202139,0.43662236747172267 l -8.057638957419476 5.390214255045794" fill="#ff3f05" stroke="none" /><path d="M 117.45458315368197 88.32363383020206 l 29.032648556327523 -19.42159445676742 a55.9298298512656,55.9298298512656 0 0,0 0.5284126869690412,0.8048087745645106 l -29.36265787865449 18.918967618225235" fill="#71ff27" stroke="none" /><path d="M 117.65298651832404 88.62581576622439 l 20.593872430463684 -13.269057837200721 a45.498479086857415,45.498479086857415 0 0,0 0.41852621773149346,0.6620079671626323 l -20.819226244441133 12.912602222323882" fill="#efff19" stroke="none" /><line stroke="#e1ed5e" stroke-width="0.3" x1="172.23445277983987" x2="176.4835382374775" y1="55.19839476539836" y2="52.563006222186495" /><path d="M 173.08426987136738 54.67131705675599 a86.0,86.0 0 0,1 12.851231095245387,41.99856678651699" fill="none" id="id3" stroke="none" /><text fill="#e1ed5e" style="font-size:6.75px; font-family:Arial;" text-anchor="middle"><textPath startOffset="22.20632615414155" xlink:href="#id3">March</textPath></text><path d="M 117.84615892207809 88.93136811851018 l 22.65868470353825 -14.053480135265142 a47.663013640746804,47.663013640746804 0 0,0 0.42643463186497776,0.7009464113491947 l -22.897235133689453 13.661365950708865" fill="#d4ff1c" stroke="none" /><path d="M 118.03404312379186 89.2402003453031 l 27.134520586667065 -16.189492463484687 a52.597181420080595,52.597181420080595 0 0,0 0.45719555325546496,0.7814954026296346 l -27.409175814392857 15.720017648501159" fill="#97ff23" stroke="none" /><path d="M 118.21658344932153 89.55222093294921 l 28.66239544469281 -16.438778213910727 a54.04188768508986,54.04188768508986 0 0,0 0.4558622596926779,0.8109280935154096 l -28.941115345677918 15.942966610460523" fill="#86ff25" stroke="none" /><path d="M 118.3937258080291 89.86733742301442 l 19.103024570897123 -10.523398260741281 a42.80980189525966,42.80980189525966 0 0,0 0.35000458378467136,0.6485053372691547 l -19.28133725390026 10.193011940139668" fill="#ffeb16" stroke="none" /><path d="M 118.56541770881063 90.18545643968196 l 25.686635678161903 -13.579150694880338 a50.055061281244775,50.055061281244775 0 0,0 0.3961275717873896,0.765192383819506 l -25.91657268310941 13.134985588800488" fill="#b6ff1f" stroke="none" /><path d="M 118.89224826269711 90.83032412892265 l 35.754014005237174 -17.353822316919917 a60.742982606919725,60.742982606919725 0 0,0 0.4484619873721725,0.944575317471637 l -36.047434186451106 16.735804583807738" fill="#3cff2e" stroke="none" /><path d="M 119.04729006885535 91.15688171328212 l 18.116577998532602 -8.411014984936497 a40.97387221982112,40.97387221982112 0 0,0 0.2914953130800551,0.6422712832039393 l -18.258675628576004 8.097921692890495" fill="#ffd313" stroke="none" /><path d="M 119.196687751892 91.48605970444005 l 9.046811526124877 -4.012359537963487 a30.89665740798945,30.89665740798945 0 0,0 0.21143508115885923,0.4880213186497513 l -9.114537317126416 3.856039074727133" fill="#ff4206" stroke="none" /><path d="M 119.47837535516314 92.15188598940014 l 45.09448177601102 -18.16920701927236 a69.61720241186411,69.61720241186411 0 0,0 0.43827824752569894,1.1153703346592039 l -45.40055357341842 17.39028767971737" fill="#3aff90" stroke="none" /><path d="M 119.85752413597 93.16781622104841 l 24.695573160030047 -8.496763906747105 a47.11639964829373,47.11639964829373 0 0,0 0.2572616138763895,0.7691794806141292 l -24.838172067678208 8.070411323210664" fill="#daff1b" stroke="none" /><path d="M 119.97218684219823 93.5106431181261 l 24.78353753313086 -8.052659486841714 a47.058953499078356,47.058953499078356 0 0,0 0.2436858634586551,0.7725507803311497 l -24.918478880357725 7.624858540084145" fill="#dbff1b" stroke="none" /><path d="M 120.18372546131832 94.20196356495316 l 24.73216388074071 -7.104634254607924 a46.73238733805248,46.73238733805248 0 0,0 0.21544349225430778,0.7750648701948084 l -24.850794143561384 6.677858080994164" fill="#dfff1b" stroke="none" /><path d="M 120.45610955862082 95.25157060432595 l 38.6437971846486 -8.97029525512686 a60.67126488798166,60.67126488798166 0 0,0 0.22738900449382618,1.0193403206426996 l -38.792480576144456 8.303776764934197" fill="#3cff2e" stroke="none" /><path d="M 120.53481517161879 95.60439243477599 l 21.863008500142236 -4.679915780036037 a43.35828151682329,43.35828151682329 0 0,0 0.14993852055559445,0.7311534758108151 l -21.940326316612826 4.30288664806181" fill="#fff316" stroke="none" /><path d="M 120.67395015179393 96.31383870115 l 24.93712918185279 -4.446285292343716 a46.33041382870256,46.33041382870256 0 0,0 0.13322892600538402,0.7863246629408585 l -25.009969969378396 4.01637484108702" fill="#e4ff1a" stroke="none" /><path d="M 120.73433829027371 96.67025291283417 l 35.68547613670596 -5.730764520035899 a57.14270146360829,57.14270146360829 0 0,0 0.14760260892182106,0.9725167725432319 l -35.77883463906708 5.115648635100586" fill="#63ff29" stroke="none" /><path d="M 120.78858239683441 97.02765380044208 l 31.35227725713239 -4.482740591629467 a52.671126478544195,52.671126478544195 0 0,0 0.12060183310567373,0.8986237390502176 l -31.4247950892959 3.942398510514585" fill="#96ff23" stroke="none" /><path d="M 120.83666639777658 97.38593545837742 l 32.68184437177267 -4.100101661952729 a53.93802946715417,53.93802946715417 0 0,0 0.10764398926906908,0.9222279629809673 l -32.74757871404533 3.5369299606469085" fill="#87ff25" stroke="none" /><path d="M 120.87857604477298 97.74499172005257 l 25.73888093068949 -2.7799496235193026 a46.888571058934794,46.888571058934794 0 0,0 0.07976164432753417,0.8031888733429862 l -25.782919700699253 2.3364852194718813" fill="#ddff1b" stroke="none" /><path d="M 120.94382443527127 98.46500227214037 l 35.35554253624248 -2.5912496367654883 a56.45037323798,56.45037323798 0 0,0 0.06268520673761203,0.9697124031016344 l -35.39490833398451 1.9822781694108187" fill="#6bff28" stroke="none" /><path d="M 120.96714384426684 98.82574320788733 l 34.03484606133798 -1.9061084071764611 a55.08817970615155,55.08817970615155 0 0,0 0.04487428494080845,0.9472252308689326 l -34.06261395451229 1.3199720696845287" fill="#7aff26" stroke="none" /><path d="M 120.98425023603335 99.18683210126433 l 19.224487433605965 -0.7449747250827043 a40.238916404670135,40.238916404670135 0 0,0 0.02086350555180022,0.6923581777274879 l -19.234462633613408 0.41394639993021737" fill="#ffc912" stroke="none" /><line stroke="#e1ed5e" stroke-width="0.3" x1="184.98032266829074" x2="189.97916517819016" y1="98.17113171792111" y2="98.06355123074" /><path d="M 185.9800911702706 98.14961562048488 a86.0,86.0 0 0,1 -9.607161424134198,41.387399972396054" fill="none" id="id4" stroke="none" /><text fill="#e1ed5e" style="font-size:6.75px; font-family:Arial;" text-anchor="middle"><textPath startOffset="21.466115282336823" xlink:href="#id4">April</textPath></text><path d="M 120.99513854157772 99.54816195383933 l 23.545409668619147 -0.5067226338922697 a44.55086164646217,44.55086164646217 0 0,0 0.009900883533508485,0.7668343408267062 l -23.55064355927037 0.10135203500510076" fill="#fbff18" stroke="none" /><path d="M 120.99980553446 99.90962569577887 l 28.54442524038625 -0.12284316472639692 a49.544689571742055,49.544689571742055 0 0,0 -0.003670324183690043,0.8528540802631188 l -28.542310618913056 -0.3685203937404066" fill="#bcff1f" stroke="none" /><path d="M 120.99824983174949 100.27111621757518 l 27.907386866259923 0.3603226568981825 a48.90971289927883,48.90971289927883 0 0,0 -0.018115080048803477,0.8417365880276647 l -27.897049723526113 -0.840649060715962" fill="#c4ff1e" stroke="none" /><path d="M 120.9904718944345 100.63252640178507 l 16.62468942789367 0.500968012415577 a37.63223579448606,37.63223579448606 0 0,0 -0.025084335103019603,0.6473152292715386 l -16.61360295993945 -0.7870604887011219" fill="#ffa40f" stroke="none" /><path d="M 120.9764740272857 100.99374915477107 l 28.425232302646553 1.3466300646229872 a49.45711236212078,49.45711236212078 0 0,0 -0.04760517692399745,0.85002241332697 l -28.397840774835025 -1.8357241942853806" fill="#bdff1f" stroke="none" /><path d="M 120.95626037817324 101.35467743843564 l 28.4175753913763 1.8369999008905766 a49.47688816848547,49.47688816848547 0 0,0 -0.06225474533290958,0.8494165384421012 l -28.381744087379055 -2.325889575829448" fill="#bdff1f" stroke="none" /><path d="M 120.92983693683757 101.71520430193887 l 28.75608979689448 2.3565672812177363 a49.852488796600625,49.852488796600625 0 0,0 -0.07745036064674639,0.8546582759023857 l -28.711264839970656 -2.8512069456686926" fill="#b8ff1f" stroke="none" /><path d="M 120.89721153311464 102.0752229133903 l 19.293245168825777 1.9159390899861597 a40.38814410254257,40.38814410254257 0 0,0 -0.07465594289069366,0.6912213115571842 l -19.257406924434033 -2.2477567234281355" fill="#ffcb12" stroke="none" /><path d="M 120.8583938346157 102.4346265915055 l 35.17866956458554 4.106113109897728 a56.417495072429546,56.417495072429546 0 0,0 -0.12089057763489107,0.963616849050422 l -35.1027774777038 -4.711047713235545" fill="#6bff28" stroke="none" /><path d="M 120.76222939487914 103.15116336523771 l 32.79576450070004 4.977539245138019 a54.17134405058477,54.17134405058477 0 0,0 -0.14785744785097976,0.9207084689090065 l -32.70522529848777 -5.5413269437402315" fill="#85ff25" stroke="none" /><path d="M 120.70491114924044 103.5080841355445 l 27.211558527116548 4.610521440268058 a48.5993808884522,48.5993808884522 0 0,0 -0.1468477913088158,0.8236003992464058 l -27.128164293468544 -5.078240590247683" fill="#c8ff1d" stroke="none" /><path d="M 120.5718875245553 104.21870165774334 l 39.08298851921094 8.014795349175099 a60.89632735079675,60.89632735079675 0 0,0 -0.21941805462614403,1.025048103181706 l -38.93923642586036 -8.686357271772973" fill="#3aff2e" stroke="none" /><path d="M 120.49622156327973 104.57218783832717 l 22.368073315281748 4.989750548079877 a43.91786016123414,43.91786016123414 0 0,0 -0.17094385881525706,0.7364216697596833 l -22.27886889053594 -5.3740408751881255" fill="#fffa17" stroke="none" /><path d="M 120.41448212921028 104.9243191809786 l 22.04952310740544 5.318718784145213 a43.68193639813025,43.68193639813025 0 0,0 -0.1826085612113618,0.7294304293351365 l -21.954703231899018 -5.697477052877746" fill="#fff717" stroke="none" /><path d="M 120.32669344350535 105.2749913415812 l 31.941197505569857 8.289077648064342 a53.999225844638566,53.999225844638566 0 0,0 -0.24122720250192206,0.897696159231647 l -31.793782226726158 -8.837664740471538" fill="#87ff25" stroke="none" /><path d="M 120.23288151984713 105.62410040840565 l 38.24072234813786 10.629709958263746 a60.69059812479753,60.69059812479753 0 0,0 -0.28844612212578485,1.0041187916960255 l -38.05208358912597 -11.286386225464353" fill="#3cff2e" stroke="none" /><path d="M 120.13307415673323 105.97154293290107 l 21.775881180780107 6.45880546410705 a43.71354594119184,43.71354594119184 0 0,0 -0.22017727806672877,0.71955208409412 l -21.661477130207246 -6.832684520753227" fill="#fff717" stroke="none" /><path d="M 120.02730092923936 106.31721596034902 l 26.643876987223003 8.404284009310771 a48.93793425827021,48.93793425827021 0 0,0 -0.2603212607574408,0.8011864586098875 l -26.495263475449317 -8.861669367898454" fill="#c4ff1e" stroke="none" /><path d="M 119.9155931802556 106.66101706037122 l 31.435559501142777 10.514012625394436 a54.14723008996138,54.14723008996138 0 0,0 -0.30324813036219284,0.8813810141358666 l -31.24992053983735 -11.053566342619602" fill="#85ff25" stroke="none" /><path d="M 119.79798401119884 107.00284435728193 l 26.859644596257176 9.500659789052317 a49.49040266940015,49.49040266940015 0 0,0 -0.2909935258453849,0.8006892063801119 l -26.692126809406567 -9.961596792438561" fill="#bdff1f" stroke="none" /><path d="M 119.67450827220406 107.3425965602758 l 20.71701398569683 7.7316634055587485 a43.11274038875359,43.11274038875359 0 0,0 -0.265463045460281,0.6930402440230522 l -20.580856660643043 -8.087127216414945" fill="#fff016" stroke="none" /><path d="M 119.41010516605496 108.01547362559984 l 22.675495261303627 9.363928358938116 a45.53286040511234,45.53286040511234 0 0,0 -0.3053932719794114,0.7218594832451614 l -22.510951008131908 -9.75286236784944" fill="#efff19" stroke="none" /><path d="M 119.26925614724726 108.34839909993367 l 27.403518103411415 11.872565506490394 a50.864872612316674,50.864872612316674 0 0,0 -0.35498574073062467,0.8003991318489322 l -27.195091277949516 -12.342512974832013" fill="#acff21" stroke="none" /><path d="M 119.12269723197855 108.67885076344098 l 25.523997194685748 11.58408564711895 a49.02972481267187,49.02972481267187 0 0,0 -0.3554080307546002,0.7655172796626811 l -25.320814547091317 -12.021722994060463" fill="#c2ff1e" stroke="none" /><path d="M 118.97047184881838 109.00673069616215 l 31.427910407610078 14.92122745497693 a55.79017938085291,55.79017938085291 0 0,0 -0.4193475299118356,0.8639801182538923 l -31.166409621083528 -15.459996529196097" fill="#72ff27" stroke="none" /><line stroke="#e1ed5e" stroke-width="0.3" x1="174.80103733775053" x2="179.2010983576182" y1="140.37084112569926" y2="142.7455964860345" /><path d="M 175.68104954172406 140.8457921977663 a86.0,86.0 0 0,1 -30.038265399797805,32.042727171017184" fill="none" id="id5" stroke="none" /><text fill="#e1ed5e" style="font-size:6.75px; font-family:Arial;" text-anchor="middle"><textPath startOffset="22.206326154141568" xlink:href="#id5">May</textPath></text><path d="M 118.30583269289576 110.29060199501025 l 28.833317196101422 16.20861484089245 a54.07687070433654,54.07687070433654 0 0,0 -0.4631246309762282,0.8074968309983722 l -28.550040568972815 -16.70253151774914" fill="#86ff25" stroke="none" /><path d="M 117.94076556474637 110.91462005526583 l 23.571328505495238 14.340084535794695 a48.59067871596693,48.59067871596693 0 0,0 -0.44086868942500024,0.7108207029998267 l -23.320995176402274 -14.743701570159795" fill="#c8ff1d" stroke="none" /><path d="M 117.55443506779139 111.5257021239791 l 37.01443492712236 24.302539478480373 a65.27958692306504,65.27958692306504 0 0,0 -0.6248092500765227,0.9340050536321133 l -36.590622571635116 -24.936081446318294" fill="#34ff5b" stroke="none" /><path d="M 117.35343817320211 111.8261652097733 l 11.699973310501019 7.973395009041691 a35.158545244362045,35.158545244362045 0 0,0 -0.3451214581986563,0.4971732009098247 l -11.560990945140226 -8.173609472138535" fill="#ff810b" stroke="none" /><path d="M 117.14729908036423 112.12312394758627 l 31.389950092547604 22.192664506346173 a59.4427278520121,59.4427278520121 0 0,0 -0.5978812056505968,0.8304047024806864 l -31.003289094521406 -22.72970281427799" fill="#4aff2c" stroke="none" /><path d="M 116.93607887273984 112.41649034213515 l 23.41651676486778 17.16754842972635 a50.03546067287952,50.03546067287952 0 0,0 -0.5152192683919526,0.690220405940542 l -23.117536229780736 -17.568081715176206" fill="#b6ff1f" stroke="none" /><path d="M 116.498646956653 112.99209946851258 l 22.304289626340466 17.56383721412235 a49.38960572850331,49.38960572850331 0 0,0 -0.531719294566075,0.6634015755502376 l -21.998652419719537 -17.945166623250838" fill="#beff1f" stroke="none" /><path d="M 116.27256486870786 113.27417163493432 l 26.57879714382526 21.68137094452118 a55.30035427873218,55.30035427873218 0 0,0 -0.6080510957268316,0.7324367152499853 l -26.201650048204883 -22.13566891688494" fill="#78ff26" stroke="none" /><path d="M 115.80600337817218 113.82643327865902 l 28.95447212415583 25.328165973714263 a59.46917529114101,59.46917529114101 0 0,0 -0.6806138095208308,0.7646768301341096 l -28.514199464986664 -25.82281697358924" fill="#49ff2c" stroke="none" /><path d="M 115.56566222782051 114.09645910891815 l 14.331834569446631 12.979089293284236 a40.33541416698983,40.33541416698983 0 0,0 -0.47049069453259057,0.5106247258744148 l -14.106297466918319 -13.223865273959985" fill="#ffca12" stroke="none" /><path d="M 115.32070863581623 114.36230785411682 l 21.044809497263447 19.728332410443763 a49.84598943480836,49.84598943480836 0 0,0 -0.5922022763818113,0.6209217191928288 l -20.70210066950267 -20.0876612462191" fill="#b8ff1f" stroke="none" /><path d="M 115.07121518719521 114.62390073753431 l 20.40110971472668 19.795603718616444 a49.426593256611255,49.426593256611255 0 0,0 -0.5977307966230131,0.6054981412102106 l -20.05733829304813 -20.14384235380732" fill="#beff1f" stroke="none" /><path d="M 114.55890576462653 115.13401014063108 l 30.551179151565456 31.75800864179088 a65.06751252842747,65.06751252842747 0 0,0 -0.8138525660259558,0.7695483992934379 l -29.999990751148694 -32.27919167783024" fill="#34ff58" stroke="none" /><path d="M 114.29624159901734 115.38237550388516 l 18.711817986439172 20.133418187864418 a48.48611759206924,48.48611759206924 0 0,0 -0.6162365061869474,0.5629174375752386 l -18.36248193078536 -20.45252839202624" fill="#c9ff1d" stroke="none" /><path d="M 114.0293411484842 115.62618273729858 l 19.420113809399183 21.630541588019955 a50.06924749217079,50.06924749217079 0 0,0 -0.6462691627126451,0.570257395666815 l -19.044902293779952 -21.96162212545906" fill="#b6ff1f" stroke="none" /><path d="M 113.75828350139079 115.86535959552629 l 22.736046850919884 26.218064123632363 a55.70323778551682,55.70323778551682 0 0,0 -0.7298039895825517,0.6219547926816783 l -22.281377384760283 -26.60554330653699" fill="#73ff27" stroke="none" /><path d="M 113.20401910651253 116.32954008644616 l 18.107542688839853 22.393775851066845 a49.798685718205654,49.798685718205654 0 0,0 -0.6711973745267413,0.5332397878638923 l -17.719387821595763 -22.702149552935865" fill="#b9ff1f" stroke="none" /><path d="M 112.92097659922987 116.55440617244103 l 21.17135239800279 27.12482018095374 a55.40903997802749,55.40903997802749 0 0,0 -0.7569172262595992,0.5803718524895435 l -20.701306443249695 -27.485231375270654" fill="#76ff27" stroke="none" /><path d="M 111.7513745106137 117.40417183066458 l 16.40893146259391 24.30216673586963 a50.32317069830806,50.32317069830806 0 0,0 -0.7220783129060898,0.47855413206721426 l -15.988178450947853 -24.58101888902816" fill="#b3ff20" stroke="none" /><line stroke="#e1ed5e" stroke-width="0.3" x1="143.8653032363475" x2="146.44561519142675" y1="172.8068346515853" y2="177.08958963109032" /><path d="M 144.38136562736335 173.6633856474863 a86.0,86.0 0 0,1 -40.68145358897372,12.25698825130547" fill="none" id="id6" stroke="none" /><text fill="#e1ed5e" style="font-size:6.75px; font-family:Arial;" text-anchor="middle"><textPath startOffset="21.466115282336833" xlink:href="#id6">June</textPath></text><path d="M 110.8373102113329 117.98757091392108 l 14.453292692478561 23.989313046861636 a49.00687076620271,49.00687076620271 0 0,0 -0.7263101296572482,0.4291168268526221 l -14.03821469179293 -24.234548446008006" fill="#c3ff1e" stroke="none" /><path d="M 110.5260780823613 118.17145234162733 l 14.690475101255048 25.360563173633164 a50.308159669014245,50.308159669014245 0 0,0 -0.7530681917085633,0.4276117731246379 l -14.251758142625285 -25.60967811255243" fill="#b3ff20" stroke="none" /><path d="M 109.89434966115114 118.52300852407294 l 14.050577785692942 26.30379772350402 a50.821276142895414,50.821276142895414 0 0,0 -0.7751674806563129,0.40553098920171365 l -13.595719402510134 -26.541758131650447" fill="#acff20" stroke="none" /><path d="M 109.57404056367764 118.69057910512821 l 13.775044700524782 26.891839546681137 a51.214613859950276,51.214613859950276 0 0,0 -0.7880858256371079,0.39516259336781545 l -13.310104967204914 -27.12496998095825" fill="#a8ff21" stroke="none" /><path d="M 108.59647513512805 119.15986991738527 l 18.095567815922237 40.33149866478725 a65.20496984648193,65.20496984648193 0 0,0 -1.0280008297968926,0.4506453536233703 l -17.398646311467594 -40.637008571705074" fill="#34ff5a" stroke="none" /><path d="M 108.2653958097858 119.30500536409082 l 11.311783479325417 26.420276266415154 a49.739997276910785,49.739997276910785 0 0,0 -0.789986128398491,0.33021426574034135 l -10.855325891429464 -26.61107557517547" fill="#baff1f" stroke="none" /><path d="M 107.2578585660854 119.70592522655815 l 11.62117285024598 31.552828034147193 a54.624880897450915,54.624880897450915 0 0,0 -0.8851323082063335,0.31737695422368073 l -11.07632098140991 -31.748192529410836" fill="#7fff26" stroke="none" /><path d="M 106.91757812671514 119.82793768551818 l 9.306170744133661 26.674389537122053 a49.2511569868757,49.2511569868757 0 0,0 -0.8028648440222723,0.2723753459174944 l -8.845636167174161 -26.83062786993767" fill="#c0ff1e" stroke="none" /><path d="M 106.57524785965236 119.94407469862006 l 8.790247331455127 26.662622176368508 a49.07425634754965,49.07425634754965 0 0,0 -0.8045342364760368,0.25758645616582015 l -8.32999174988815 -26.809981479194036" fill="#c2ff1e" stroke="none" /><path d="M 106.2309692047433 120.05430185196036 l 2.2094104999228583 7.110961974681912 a28.446292699225666,28.446292699225666 0 0,0 -0.4688558946476063,0.14126243497377342 l -2.086679630835006 -7.147939778761411" fill="#ff1c02" stroke="none" /><path d="M 105.53697534728816 120.25689768951611 l 7.869748459786466 28.79129477616311 a50.84747218288726,50.84747218288726 0 0,0 -0.8462703565140776,0.2235076927869462 l -7.3729876604608915 -28.922493818253642" fill="#acff20" stroke="none" /><path d="M 104.83641907484287 120.43548508189849 l 12.786841905129865 54.02867554552552 a76.52117710487101,76.52117710487101 0 0,0 -1.2843891940098704,0.2923227989444411 l -11.854932561727132 -54.240775078047655" fill="#43ffdf" stroke="none" /><path d="M 104.48393922423573 120.51570834832081 l 6.043140767212345 27.64964181893166 a49.30233635316276,49.30233635316276 0 0,0 -0.8306470272966554,0.17407016079978327 l -5.5663022784863125 -27.749567960457984" fill="#bfff1e" stroke="none" /><path d="M 103.7750983002368 120.6578951692458 l 5.0667251580486035 27.7258680018432 a49.18502191382571,49.18502191382571 0 0,0 -0.8341569591799423,0.14502887963712138 l -4.588719227396611 -27.808975460001328" fill="#c1ff1e" stroke="none" /><path d="M 103.06178313531738 120.77559828337769 l 5.934956571884099 40.2713935368173 a61.706373541588796,61.706373541588796 0 0,0 -1.0521565765137328,0.14581931423224362 l -5.240871404183536 -40.36758741654214" fill="#32ff2f" stroke="none" /><path d="M 102.70371172650421 120.8252237178851 l 3.059033774759597 23.56207656882978 a44.75982196630516,44.75982196630516 0 0,0 -0.7649082215623508,0.0926197332330102 l -2.6529981301458654 -23.611241830788142" fill="#f9ff18" stroke="none" /><path d="M 102.34483914955558 120.86867818915974 l 3.3188136715521854 29.536889340376625 a50.722758218108495,50.722758218108495 0 0,0 -0.8684881174041477,0.09002234440260828 l -2.809892957542435 -29.589641053234992" fill="#aeff20" stroke="none" /><path d="M 101.98527174616119 120.90594882070398 l 2.728739219768589 28.735049790457257 a49.86432234072993,49.86432234072993 0 0,0 -0.8551866206181559,0.07378910006456815 l -2.2337082814088918 -28.777763142800488" fill="#b8ff1f" stroke="none" /><path d="M 101.62511606390274 120.93702456842531 l 0.43753259135610156 5.636908537295574 a26.653863513238935,26.653863513238935 0 0,0 -0.4577321786661757,0.03156789098148743 l -0.3404376519109955 -5.643604772793347" fill="#ff0000" stroke="none" /><line stroke="#e1ed5e" stroke-width="0.3" x1="102.19456741930631" x2="102.32365962044197" y1="184.97166512339345" y2="189.96999836594603" /><path d="M 102.22038585953345 185.97133177190398 a86.0,86.0 0 0,1 -42.740103519485714,-10.115201625700543" fill="none" id="id7" stroke="none" /><text fill="#e1ed5e" style="font-size:6.75px; font-family:Arial;" text-anchor="middle"><textPath startOffset="22.20632615414155" xlink:href="#id7">July</textPath></text><path d="M 100.54218724476979 120.99299961872073 l 0.8730951263591076 33.80545343250536 a54.81672628858329,54.81672628858329 0 0,0 -0.943474978514966,0.01624277737203788 l -0.2910604579514737 -33.815473687156555" fill="#7dff26" stroke="none" /><path d="M 99.81925306533755 120.99922214144158 l -0.2976157266732446 34.57706637664187 a55.57834718917984,55.57834718917984 0 0,0 -0.9565835734909585,-0.01646845372244878 l 0.892758990056871 -34.56682044564027" fill="#75ff27" stroke="none" /><path d="M 99.45781275523022 120.99299961872073 l -0.8551144145770199 33.10925653885567 a54.12029723927269,54.12029723927269 0 0,0 -0.9310743787556297,-0.03206808418038048 l 1.4249091450072926 -33.08963165624919" fill="#85ff25" stroke="none" /><path d="M 99.09653310690486 120.98055641714683 l -1.423906015835957 33.06633671502474 a54.09698070962557,54.09698070962557 0 0,0 -0.9299835951895312,-0.04806952922014522 l 1.9928776794389773 -33.036927379042396" fill="#86ff25" stroke="none" /><path d="M 98.73552117531835 120.96189622390904 l -1.2618309225177382 20.918000628911685 a41.95602461317918,41.95602461317918 0 0,0 -0.7205192802470571,-0.04969122807834537 l 1.6217129635437255 -20.893181056317054" fill="#ffe015" stroke="none" /><path d="M 98.37488393609728 120.93702456842531 l -2.6225117768231327 33.78687511738085 a54.88850097329573,54.88850097329573 0 0,0 -0.9413526436276846,-0.08122386709754646 l 3.203708738192359 -33.73672699800464" fill="#7cff26" stroke="none" /><path d="M 97.65516085044442 120.86867818915974 l -3.0918370832739606 27.516835479475645 a48.68999262105423,48.68999262105423 0 0,0 -0.8320715773107891,-0.10075228027212334 l 3.565036083636139 -27.459537670478174" fill="#c7ff1e" stroke="none" /><path d="M 97.2962882734958 120.8252237178851 l -5.2808954781729485 40.67587113139253 a62.01724453628059,62.01724453628059 0 0,0 -1.057457243896038,-0.14655393843163328 l 5.9802813132558175 -40.578942627468294" fill="#2fff31" stroke="none" /><path d="M 96.93821686468263 120.77559828337769 l -5.997619338151314 40.69658905255343 a62.13616168576959,62.13616168576959 0 0,0 -1.056800406056164,-0.16505048922791152 l 6.697255607815995 -40.58732025597841" fill="#30ff32" stroke="none" /><path d="M 96.58105272829116 120.7198165907248 l -1.7385850830306129 10.536332146988444 a31.67880954051521,31.67880954051521 0 0,0 -0.5372590762093109,-0.09340937702433395 l 1.9196931307119738 -10.504844191443105" fill="#ff4e07" stroke="none" /><path d="M 94.46302465271185 120.25689768951611 l -8.003793204099306 29.281694407921016 a51.355861592991545,51.355861592991545 0 0,0 -0.850719218254052,-0.240421748683185 l 8.506643590457971 -29.13958386589931" fill="#a6ff21" stroke="none" /><path d="M 94.11515582081647 120.15858648285463 l -7.9762804896408 27.322820310297192 a49.46326685674386,49.46326685674386 0 0,0 -0.8152606907171147,-0.2456313584276443 l 8.44541615479816 -27.181473582763825" fill="#bdff1f" stroke="none" /><path d="M 93.76903079525671 120.05430185196036 l -8.244353082358925 26.53435442465444 a48.78563158324424,48.78563158324424 0 0,0 -0.7998024581127744,-0.25607149015853925 l 8.699876885562642 -26.388510087836195" fill="#c5ff1e" stroke="none" /><path d="M 93.42475214034765 119.94407469862007 l -12.365891320479543 37.50828340997342 a60.49413364681898,60.49413364681898 0 0,0 -0.9861415679546046,-0.3345527615203482 l 13.009702621371375 -37.28986766155495" fill="#3eff2d" stroke="none" /><path d="M 93.08242187328487 119.8279376855182 l -16.37694189573669 46.941426239043565 a70.7162118751208,70.7162118751208 0 0,0 -1.1458735070222594,-0.41086947139156316 l 17.182534963388676 -46.652569226612044" fill="#3bff9d" stroke="none" /><path d="M 92.7421414339146 119.70592522655815 l -9.619395598026678 26.117771330674604 a48.832907698491425,48.832907698491425 0 0,0 -0.7862790618916373,-0.2973034619825424 l 10.067544880678598 -25.948319618585426" fill="#c5ff1e" stroke="none" /><path d="M 92.40401165467489 119.57807347666478 l -9.964175605539214 25.681893293016625 a48.54713122290441,48.54713122290441 0 0,0 -0.7764741998287547,-0.30897510871304507 l 10.404770881409828 -25.506571339897512" fill="#c8ff1d" stroke="none" /><path d="M 92.06813273071674 119.44442032107085 l -12.455306002523676 30.53331541218687 a53.976021556224616,53.976021556224616 0 0,0 -0.85726398532291,-0.35833641539114547 l 12.979041447344049 -30.31439395377575" fill="#87ff25" stroke="none" /><path d="M 91.40352486487194 119.15986991738527 l -18.028926921604302 40.18296908187803 a65.04217535703378,65.04217535703378 0 0,0 -1.0175445823663463,-0.46710481035424467 l 18.71793949973807 -39.86667720118971" fill="#34ff58" stroke="none" /><path d="M 90.42595943632237 118.69057910512821 l -25.051978871234226 48.90683193982026 a75.94979395552443,75.94979395552443 0 0,0 -1.1584480931044119,-0.6060452906741078 l 25.890117866865133 -48.468357230201434" fill="#42ffd9" stroke="none" /><line stroke="#e1ed5e" stroke-width="0.3" x1="58.666819895761336" x2="56.23545636021788" y1="174.27360380694188" y2="178.64263932499728" /><path d="M 58.180547188652646 175.14741091055294 a86.0,86.0 0 0,1 -31.652253787137756,-30.449443065178592" fill="none" id="id8" stroke="none" /><text fill="#e1ed5e" style="font-size:6.75px; font-family:Arial;" text-anchor="middle"><textPath startOffset="22.20632615414155" xlink:href="#id8">August</textPath></text><path d="M 89.7882731507175 118.34994917583269 l -21.77146851903856 39.12221181627763 a65.77213752852526,65.77213752852526 0 0,0 -0.984550120681898,-0.5590532537029411 l 22.441667406641667 -38.741655396780054" fill="#35ff61" stroke="none" /><path d="M 89.1626897886671 117.98757091392108 l -22.76393534757479 37.78316698143633 a65.11082021064294,65.11082021064294 0 0,0 -0.955023187349802,-0.5866532437198845 l 23.4109377348569 -37.385725270888074" fill="#34ff59" stroke="none" /><path d="M 88.54995079064634 117.60387380957326 l -22.947997486058256 35.281390022058886 a63.087849440293006,63.087849440293006 0 0,0 -0.9052364399259154,-0.5999413513485463 l 23.55190862472413 -34.88115064961902" fill="#31ff3f" stroke="none" /><path d="M 88.24862548938628 117.40417183066458 l -18.477208760415508 27.36535338286465 a54.019233930317604,54.019233930317604 0 0,0 -0.766155091623365,-0.5269684581936576 l 18.945520736661763 -27.043244135305894" fill="#86ff25" stroke="none" /><path d="M 87.65650970185807 116.9893568818739 l -22.67480044423602 31.2091853817382 a59.57667465422114,59.57667465422114 0 0,0 -0.8244703365238117,-0.6099234446583449 l 23.208655751178398 -30.814251988340093" fill="#48ff2c" stroke="none" /><path d="M 87.07902340077011 116.55440617244103 l -23.897477963393342 30.61754300573158 a59.83971411736566,59.83971411736566 0 0,0 -0.806532510421699,-0.6407582047916164 l 24.420967966532398 -30.201650886934832" fill="#45ff2d" stroke="none" /><path d="M 86.79598089348748 116.32954008644616 l -27.790559832718458 34.36885823569648 a65.19879672843263,65.19879672843263 0 0,0 -0.8666157976118268,-0.7131658025314024 l 28.378045758874975 -33.885397314307895" fill="#34ff5a" stroke="none" /><path d="M 86.51685102203217 116.09983520530335 l -9.570187449855506 11.427481894497204 a35.90556373554631,35.90556373554631 0 0,0 -0.47042191269579303,-0.4009037595848048 l 9.765474839128357 -11.261053744689448" fill="#ff8c0c" stroke="none" /><path d="M 86.24171649860922 115.8653595955263 l -22.321010190942832 25.739464750738506 a55.06974525291734,55.06974525291734 0 0,0 -0.7108131225852089,-0.6272099358568182 l 22.76076566643463 -25.3514316731094" fill="#7aff26" stroke="none" /><path d="M 85.97065885151581 115.62618273729859 l -22.09582963700852 24.610811583081237 a54.074427192706295,54.074427192706295 0 0,0 -0.6872613800026227,-0.6277969758223498 l 22.516190566477995 -24.22682184067231" fill="#86ff25" stroke="none" /><path d="M 85.70375840098266 115.38237550388516 l -18.90422661108549 20.34044474753723 a48.76874999510939,48.76874999510939 0 0,0 -0.6099906202508694,-0.5767842051420109 l 19.251553065727176 -20.01202590564929" fill="#c6ff1e" stroke="none" /><path d="M 84.9287848128048 114.62390073753433 l -31.740852327632695 30.798782181705448 a65.22721662461615,65.22721662461615 0 0,0 -0.7749411056965371,-0.8125226511491057 l 32.26629998470819 -30.247852413973845" fill="#34ff5a" stroke="none" /><path d="M 84.67929136418377 114.36230785411682 l -20.26702267300242 18.999200744249293 a48.77988187426788,48.77988187426788 0 0,0 -0.5689908229831404,-0.6175271612958464 l 20.59105990398129 -18.647522328152103" fill="#c6ff1e" stroke="none" /><path d="M 84.43433777217949 114.09645910891817 l -20.548435299444783 18.608920951218156 a48.722376020538974,48.722376020538974 0 0,0 -0.5576186619353597,-0.6264904779592309 l 20.86571281102848 -18.25245630351806" fill="#c6ff1e" stroke="none" /><path d="M 84.19399662182784 113.82643327865904 l -20.822023974990323 18.214239129824545 a48.664330635197075,48.664330635197075 0 0,0 -0.5461006681384959,-0.6352384514801253 l 21.132467152699597 -17.85312357918289" fill="#c7ff1e" stroke="none" /><path d="M 83.95833913139862 113.55231037782056 l -21.04833326850197 17.78204562028092 a48.554191692439076,48.554191692439076 0 0,0 -0.5338741468438194,-0.6430858018663079 l 21.35130341523933 -17.417098561300847" fill="#c8ff1d" stroke="none" /><path d="M 83.50135304334701 112.99209946851258 l -30.379110613860117 23.922472424386356 a59.66749343550308,59.66749343550308 0 0,0 -0.6284782276961398,-0.8123928290149224 l 30.786395658774325 -23.39600160125818" fill="#47ff2c" stroke="none" /><path d="M 83.28015986056508 112.70617746262583 l -21.92870299738511 16.664632525571932 a48.54229460956143,48.54229460956143 0 0,0 -0.4998440141945507,-0.6696227403549853 l 22.212308278274747 -16.284696905707637" fill="#c9ff1d" stroke="none" /><path d="M 83.06392112726016 112.41649034213515 l -23.5841820819746 17.29047031773898 a50.24335836193142,50.24335836193142 0 0,0 -0.5053529802359006,-0.7018910901269633 l 23.878314854586108 -16.881945622160877" fill="#b4ff20" stroke="none" /><path d="M 82.85270091963577 112.12312394758628 l -23.490709909098268 16.607909298724525 a49.768665302861514,49.768665302861514 0 0,0 -0.48853654844205985,-0.7037733348083227 l 23.773107364702458 -16.20109470172919" fill="#b9ff1f" stroke="none" /><path d="M 82.6465618267979 111.8261652097733 l -22.957260885345878 15.645104865341482 a48.78138106007985,48.78138106007985 0 0,0 -0.4669002908024697,-0.6979525848863485 l 23.22316428155908 -15.247615366249311" fill="#c6ff1e" stroke="none" /><path d="M 82.24976979558568 111.22182372390057 l -23.56299989453584 14.896698700674314 a48.87699044388701,48.87699044388701 0 0,0 -0.44346642791294705,-0.715009084580334 l 23.81593096211674 -14.488893284728716" fill="#c4ff1e" stroke="none" /><line stroke="#e1ed5e" stroke-width="0.3" x1="26.63291911575756" x2="22.317208475507996" y1="142.92168965132927" y2="145.44649492493687" /><path d="M 25.769776987707644 143.4266507060508 a86.0,86.0 0 0,1 -11.730757126820373,-40.83630448921669" fill="none" id="id9" stroke="none" /><text fill="#e1ed5e" style="font-size:6.75px; font-family:Arial;" text-anchor="middle"><textPath startOffset="21.46611528233685" xlink:href="#id9">September</textPath></text><path d="M 81.87401531095188 110.60418214915194 l -23.964184367962147 14.019683920800833 a48.7638914718532,48.7638914718532 0 0,0 -0.4176232638597578,-0.7281613621091675 l 24.201959627974283 -13.605102712833359" fill="#c6ff1e" stroke="none" /><path d="M 81.69416730710424 110.29060199501025 l -24.274720170639522 13.646004965031889 a48.847360572746,48.847360572746 0 0,0 -0.40572057237689435,-0.736500688370629 l 24.506017152467933 -13.226133758263439" fill="#c5ff1e" stroke="none" /><path d="M 81.51974371655577 109.97397251340807 l -38.84207892518698 20.963444533532126 a65.13811393728705,65.13811393728705 0 0,0 -0.5240438556507732,-0.9912934838079083 l 39.19717528906264 -20.29173603463809" fill="#34ff59" stroke="none" /><path d="M 81.35079622478065 109.6543875284942 l -24.63794667334628 12.754661698046764 a48.74364452104799,48.74364452104799 0 0,0 -0.3793214870045245,-0.7484372800987342 l 24.853846830137073 -12.328670206245345" fill="#c6ff1e" stroke="none" /><path d="M 81.18737489456691 109.33194174019688 l -39.78314295174431 19.734299184029556 a65.40879448266652,65.40879448266652 0 0,0 -0.49164596180219283,-1.0129363020361952 l 40.116942170161224 -19.046573926028078" fill="#34ff5c" stroke="none" /><path d="M 80.73074385275274 108.34839909993369 l -40.95129205147427 17.74213426253555 a65.62949303851633,65.62949303851633 0 0,0 -0.44018331901530333,-1.0404633381017894 l 41.25062635168188 -17.0345963987676" fill="#34ff5f" stroke="none" /><path d="M 80.58989483394504 108.01547362559985 l -26.77168944779158 11.05546666778506 a49.96457662613941,49.96457662613941 0 0,0 -0.3214325562822791,-0.7977692442005303 l 26.958024618331248 -10.592998055741726" fill="#b7ff1f" stroke="none" /><path d="M 80.32549172779594 107.34259656027581 l -41.28111271213582 15.406258291736725 a65.06226346096814,65.06226346096814 0 0,0 -0.38255290769122985,-1.0526213020301112 l 41.54018988083227 -14.693389192700495" fill="#34ff58" stroke="none" /><path d="M 80.0844068197444 106.66101706037122 l -26.861836804890345 8.984274362848069 a49.32446755650476,49.32446755650476 0 0,0 -0.2623773924075804,-0.8075145811397849 l 27.012506448314177 -8.52056088173048" fill="#bfff1e" stroke="none" /><path d="M 79.97269907076064 106.31721596034903 l -42.18287735484184 13.305754331099145 a65.23164297483412,65.23164297483412 0 0,0 -0.3285600672464768,-1.073753310119755 l 42.40566419459445 -12.577674048427342" fill="#34ff5a" stroke="none" /><path d="M 79.86692584326677 105.97154293290107 l -28.686642520472585 8.50856238238697 a50.92188317790771,50.92188317790771 0 0,0 -0.24201804213242017,-0.8424965544472525 l 28.82885319949111 -8.013508352435121" fill="#abff21" stroke="none" /><path d="M 79.76711848015287 105.62410040840567 l -28.805693905485466 8.00707080201761 a50.89784581211572,50.89784581211572 0 0,0 -0.22737261074734819,-0.8461380692782392 l 28.93925459257459 -7.510041799563833" fill="#acff21" stroke="none" /><path d="M 79.50377843672027 104.57218783832718 l -27.400962855124373 6.112460715642612 a49.074453536768615,49.074453536768615 0 0,0 -0.17682217623487456,-0.8260543402357747 l 27.502119070083687 -5.6398925559906745" fill="#c2ff1e" stroke="none" /><path d="M 79.4281124754447 104.21870165774334 l -28.16959719991141 5.77677309694495 a49.75582225948067,49.75582225948067 0 0,0 -0.1648340899734713,-0.8404854735713077 l 28.26486122286055 -5.2910238963056875" fill="#b9ff1f" stroke="none" /><path d="M 79.29508885075956 103.50808413554451 l -27.367293022477938 4.636907919717145 a48.757334930322564,48.757334930322564 0 0,0 -0.13308023334404986,-0.8286907400684147 l 27.443055010183276 -4.165137949955517" fill="#c6ff1e" stroke="none" /><path d="M 79.23777060512086 103.15116336523772 l -28.58322596927091 4.338186079231608 a49.91056321257754,49.91056321257754 0 0,0 -0.12160577766988347,-0.8505105257918723 l 28.653665797957395 -3.845530081459335" fill="#b8ff1f" stroke="none" /><path d="M 79.04373962182676 101.35467743843564 l -33.439403929522804 2.1616264181009117 a54.509198198900805,54.509198198900805 0 0,0 -0.052468085990217794,-0.9368529214219392 l 33.471658366400554 -1.5857017803435347" fill="#81ff25" stroke="none" /><line stroke="#e1ed5e" stroke-width="0.3" x1="15.007084014347285" x2="10.007500721073583" y1="101.09737516637583" y2="101.16192664675087" /><path d="M 14.007167355692545 101.11028546245083 a86.0,86.0 0 0,1 10.666146001902534,-42.60595125391555" fill="none" id="id10" stroke="none" /><text fill="#e1ed5e" style="font-size:6.75px; font-family:Arial;" text-anchor="middle"><textPath startOffset="22.20632615414155" xlink:href="#id10">October</textPath></text><path d="M 79.00486145842228 99.54816195383935 l -55.596589619577884 -1.196498626439534 a76.60946310018491,76.60946310018491 0 0,0 0.03972129722970468,-1.3181564765638163 l 55.567756627892535 2.153325250428345" fill="#43ffe0" stroke="none" /><path d="M 79.01574976396665 99.18683210126434 l -32.98933257067196 -1.2783809736085128 a54.01409276918089,54.01409276918089 0 0,0 0.04399934437246417,-0.9287566183231264 l 32.96243961806599 1.8460486985546483" fill="#87ff25" stroke="none" /><path d="M 79.05617556472873 98.46500227214037 l -38.869729274117255 -2.8488085498753497 a59.97398573403817,59.97398573403817 0 0,0 0.08432204219998073,-1.0289424947406283 l 38.81493274809778 3.5174649618237566" fill="#44ff2d" stroke="none" /><path d="M 79.08570108090925 98.10471618934814 l -33.29656679295734 -3.017382712043771 a54.43300702343135,54.43300702343135 0 0,0 0.09259540326840009,-0.932423074460279 l 33.239694264006715 3.5900813172084804" fill="#82ff25" stroke="none" /><path d="M 79.12142395522702 97.74499172005258 l -39.050637738219024 -4.21769718624835 a60.277745318647085,60.277745318647085 0 0,0 0.12029614419257477,-1.0306238998247375 l 38.97225124102286 4.88926482439795" fill="#41ff2d" stroke="none" /><path d="M 79.16333360222342 97.38593545837743 l -43.87114214972895 -5.503855314702686 a65.21503745160582,65.21503745160582 0 0,0 0.14932380582221022,-1.1126357971655554 l 43.769902344848916 6.258209453932901" fill="#34ff5a" stroke="none" /><path d="M 79.21141760316559 97.0276538004421 l -38.332559560107065 -5.480779571826941 a59.722397487037284,59.722397487037284 0 0,0 0.1542660996832,-1.0164208510447341 l 38.23253756698457 6.1397995352637675" fill="#47ff2c" stroke="none" /><path d="M 79.32604984820605 96.31383870115002 l -43.88316931316756 -7.824360569963115 a65.57525285735264,65.57525285735264 0 0,0 0.20769954634450424,-1.109539281721546 l 43.741984042913195 8.578577929147233" fill="#34ff5e" stroke="none" /><path d="M 79.3925641242962 95.95851677861259 l -44.56402265226252 -8.739794262273612 a66.41295100186991,66.41295100186991 0 0,0 0.22966453629136951,-1.1199258426566325 l 44.40697882005615 9.505595761093646" fill="#35ff69" stroke="none" /><path d="M 79.54389044137918 95.25157060432595 l -33.085478810471095 -7.6800556676420095 a54.965161020908056,54.965161020908056 0 0,0 0.22186870395027578,-0.9197890155698265 l 32.94837730626001 8.248429914871233" fill="#7cff26" stroke="none" /><path d="M 79.62865764111835 94.90015583598534 l -32.2226031263961 -8.066736673926917 a54.21698952054068,54.21698952054068 0 0,0 0.23443340587686667,-0.9033675442484274 l 32.078973388648926 8.620200643724207" fill="#84ff25" stroke="none" /><path d="M 79.71946130924805 94.55025226153421 l -27.129733574558042 -7.2902503453001275 a49.09217317908407,49.09217317908407 0 0,0 0.2263224678753627,-0.8142023337559399 l 27.000224336116318 7.756163982475011" fill="#c2ff1e" stroke="none" /><path d="M 79.91906864156998 93.8553929516997 l -42.15782992490615 -12.89996436290177 a65.08731908997697,65.08731908997697 0 0,0 0.33704233463162364,-1.068516305905734 l 41.92953210650632 13.623730835233918" fill="#34ff58" stroke="none" /><path d="M 80.2630227832202 92.82701384747504 l -51.72869911989307 -18.799699589239413 a76.03895908610622,76.03895908610622 0 0,0 0.4576655011236333,-1.2263160060398433 l 51.39742903026781 19.687338732308596" fill="#42ffd9" stroke="none" /><path d="M 80.38941819471856 92.48833698450439 l -18.65829226667786 -7.1468967796848375 a40.98024033609807,40.98024033609807 0 0,0 0.2579929571347933,-0.6565639352709987 l 18.532505759661376 7.4670097198516" fill="#ffd313" stroke="none" /><path d="M 80.52162464483688 92.15188598940014 l -28.098782688190617 -11.321398529140449 a51.29382203046991,51.29382203046991 0 0,0 0.3370207160439868,-0.8161223961439126 l 27.899740285260428 11.803395495737673" fill="#a7ff21" stroke="none" /><path d="M 80.803312248108 91.48605970444005 l -15.412545646485478 -6.835632018020225 a37.86038043434316,37.86038043434316 0 0,0 0.26934538646556777,-0.5934668559929545 l 15.29259794305656 7.09992088285525" fill="#ffa80f" stroke="none" /><path d="M 81.10775173730289 90.83032412892265 l -26.22192402678954 -12.72725938693272 a50.14742580690428,50.14742580690428 0 0,0 0.3836038967638475,-0.7733220480488419 l 25.99896011707228 13.176741023480524" fill="#b5ff20" stroke="none" /><path d="M 81.26839172434947 90.50648371742162 l -25.283880029043303 -12.814325561916807 a49.34574975070953,49.34574975070953 0 0,0 0.3905141962956942,-0.7543491290710956 l 25.059556399587496 13.247647413248238" fill="#bfff1e" stroke="none" /><line stroke="#e1ed5e" stroke-width="0.3" x1="26.266209847984243" x2="21.928928074336255" y1="57.711370442889674" y2="55.22380399835377" /><path d="M 25.398753493254645 57.213857153982495 a86.0,86.0 0 0,1 29.58750427330803,-30.492523968695096" fill="none" id="id11" stroke="none" /><text fill="#e1ed5e" style="font-size:6.75px; font-family:Arial;" text-anchor="middle"><textPath startOffset="21.46611528233685" xlink:href="#id11">November</textPath></text><path d="M 81.78341655067845 89.55222093294921 l -24.086856311118122 -13.814563738500187 a48.767225612897214,48.767225612897214 0 0,0 0.4239040589789221,-0.7245894473145965 l 23.845492577668875 14.227132598168676" fill="#c6ff1e" stroke="none" /><path d="M 81.96595687620814 89.24020034530311 l -23.84054787903798 -14.224182401906193 a48.7614676877034,48.7614676877034 0 0,0 0.4362623538522181,-0.7171006022707013 l 23.592169726899545 14.632450777383967" fill="#c6ff1e" stroke="none" /><path d="M 82.15384107792192 88.93136811851018 l -23.63211768977822 -14.657227498102984 a48.80847540651366,48.80847540651366 0 0,0 0.44897383418314557,-0.7101687843782433 l 23.376316259349114 15.061843930195442" fill="#c5ff1e" stroke="none" /><path d="M 82.34701348167596 88.62581576622439 l -37.41829624913532 -24.109381990966703 a65.51282055963657,65.51282055963657 0 0,0 0.6189506679154625,-0.9427043309997466 l 36.997748945861936 24.749904385944117" fill="#34ff5e" stroke="none" /><path d="M 82.95767976084542 87.72973835380427 l -35.82621741219789 -25.79443733437136 a65.1460173907328,65.1460173907328 0 0,0 0.6630542648684111,-0.9044052721251504 l 35.376900534815846 26.40730505016801" fill="#34ff59" stroke="none" /><path d="M 83.17141714833178 87.43820079747576 l -26.278214963075914 -19.615535228161203 a53.79197773744151,53.79197773744151 0 0,0 0.560266654957503,-0.737245244204979 l 25.936672367894303 20.06496524824721" fill="#89ff24" stroke="none" /><path d="M 83.39014120810768 87.1503855733568 l -22.18506552208194 -17.162670770429322 a49.048786073433156,49.048786073433156 0 0,0 0.5223600408163137,-0.6633442053440401 l 21.886351400671654 17.54200736972641" fill="#c2ff1e" stroke="none" /><path d="M 83.84228863543731 86.58626213691792 l -34.045929820420476 -28.26410050359069 a65.24912106035634,65.24912106035634 0 0,0 0.7248536867940426,-0.8579981345420845 l 33.55436552013931 28.84595758776189" fill="#34ff5a" stroke="none" /><path d="M 84.07557802195018 86.31012108654704 l -21.65734198728321 -18.61834544461482 a49.560168925430915,49.560168925430915 0 0,0 0.5617011165099562,-0.6421214760268596 l 21.333649007195408 18.988382476844624" fill="#bcff1f" stroke="none" /><path d="M 85.31137513191541 84.99185889309783 l -20.259059539189497 -20.699747388738178 a49.96392644946465,49.96392644946465 0 0,0 0.6198304788096081,-0.5962764295237918 l 19.899745816767464 21.045406905024283" fill="#b7ff1f" stroke="none" /><path d="M 85.57189188830299 84.74124197986013 l -23.197179274590543 -24.5326790290559 a54.76331539763493,54.76331539763493 0 0,0 0.6905187702166425,-0.6417619414621714 l 22.771452620579044 24.928345556592717" fill="#7eff26" stroke="none" /><path d="M 85.83668400450813 84.49514656593479 l -19.49382805681937 -21.34026713702196 a49.9035695682782,49.9035695682782 0 0,0 0.6392148520765185,-0.5738934055566877 l 19.123602217146882 21.672659551347927" fill="#b8ff1f" stroke="none" /><path d="M 86.65592168130627 83.78471172551755 l -21.955480509647565 -26.679583045460333 a55.55203721763926,55.55203721763926 0 0,0 0.7435947078427038,-0.6012685401964424 l 21.492982403240358 27.05355768292091" fill="#75ff27" stroke="none" /><path d="M 86.93701828274178 83.55741782278169 l -21.371288126890068 -26.90037916803842 a55.356401959267906,55.356401959267906 0 0,0 0.7511796391381114,-0.5863076233612938 l 20.90507593259253 27.264265180622935" fill="#77ff27" stroke="none" /><path d="M 87.22198572758235 83.33499621200491 l -21.49824450008347 -28.037871800040627 a56.331243562332794,56.331243562332794 0 0,0 0.7745649162950728,-0.5833862365386916 l 21.012433430030004 28.403774626085173" fill="#6cff28" stroke="none" /><path d="M 87.51073957382395 83.11751280151077 l -32.833294409481596 -44.38274594631212 a76.20736689532096,76.20736689532096 0 0,0 1.0612953036610657,-0.7710761728821302 l 32.06445378946675 44.941341354010916" fill="#43ffdb" stroke="none" /><line stroke="#e1ed5e" stroke-width="0.3" x1="56.762969772571076" x2="54.21961505331055" y1="26.818313649435495" y2="22.513508569990535" /><path d="M 56.25429882871897 25.957352633546506 a86.0,86.0 0 0,1 42.265352541879196,-11.944610805530505" fill="none" id="id12" stroke="none" /><text fill="#e1ed5e" style="font-size:6.75px; font-family:Arial;" text-anchor="middle"><textPath startOffset="22.20632615414155" xlink:href="#id12">December</textPath></text><path d="M 89.3179101791058 81.91981866633112 l -17.465119241451763 -29.56093125915728 a55.3348080965476,55.3348080965476 0 0,0 0.824233751476407,-0.4774493894625705 l 16.953688757510037 29.857184806009897" fill="#77ff27" stroke="none" /><path d="M 89.63071344664047 81.73862282372117 l -14.521176064514407 -25.573280455957285 a50.40845503551101,50.40845503551101 0 0,0 0.7582293644196606,-0.4219538203820293 l 14.0788226110227 25.8194496738995" fill="#b1ff20" stroke="none" /><path d="M 90.26544431104013 81.39251694778311 l -16.003278547170776 -30.59006942495635 a55.5232859340183,55.5232859340183 0 0,0 0.8506683306609857,-0.4357453591017741 l 15.474349728921025 30.86100730937063" fill="#75ff27" stroke="none" /><path d="M 90.58718382345135 81.22770947309562 l -15.310852826527624 -30.534940031054436 a55.15852422127864,55.15852422127864 0 0,0 0.8524059990050613,-0.4182719217531732 l 14.782975560512137 30.79396711294244" fill="#79ff26" stroke="none" /><path d="M 91.90106846888425 80.62456947434976 l -20.020188362565854 -47.89517817739678 a72.9110396227739,72.9110396227739 0 0,0 1.1621190974677689,-0.4740575589298883 l 19.192785395509702 48.23269662251025" fill="#3effb6" stroke="none" /><path d="M 92.23578459929587 80.48803036053334 l -16.291230925162775 -40.940904752911464 a65.06315793317529,65.06315793317529 0 0,0 1.044160931512616,-0.4051182194135246 l 15.584086828650483 41.215265676215544" fill="#34ff58" stroke="none" /><path d="M 92.57280143429618 80.3572730644239 l -10.422958135938512 -27.565618276395238 a50.47034725386625,50.47034725386625 0 0,0 0.8152587529955855,-0.3002666789799143 l 9.946917057170356 27.740948223181476" fill="#b1ff20" stroke="none" /><path d="M 92.91201910852362 80.23233633223022 l -15.165860282313504 -42.29605438887072 a65.93283359603492,65.93283359603492 0 0,0 1.0716220299727397,-0.3738678844073572 l 14.435556248277479 42.55084312645029" fill="#35ff63" stroke="none" /><path d="M 93.25333710446033 80.11325718540243 l -11.229940185323647 -33.101836529655394 a55.954872882074326,55.954872882074326 0 0,0 0.9147747161742144,-0.3015868414795229 l 10.658482646907023 33.290237095394154" fill="#70ff27" stroke="none" /><path d="M 93.94186890950719 79.89281104454417 l -16.13786417175063 -53.56224211590551 a76.94054379882944,76.94054379882944 0 0,0 1.2713867310415892,-0.3711526505107365 l 15.213487222985616 53.83209309533495" fill="#44ffe3" stroke="none" /><path d="M 94.63758080256005 79.69619591428918 l -8.623774822775292 -32.65232128150419 a54.77193475749508,54.77193475749508 0 0,0 0.9136248521464599,-0.23290331751803875 l 8.060441081943832 32.79592759519109" fill="#7eff26" stroke="none" /><path d="M 96.40284397218896 79.31037775812273 l -9.588389398681866 -55.14916590578592 a76.97649248894267,76.97649248894267 0 0,0 1.3073936516512041,-0.21573115470352425 l 8.637666540891777 55.30604332342907" fill="#44ffe4" stroke="none" /><path d="M 96.75951476605007 79.25152402106235 l -9.72145570184976 -62.24542793681294 a84.0,84.0 0 0,0 1.430524078285405,-0.2108220633561242 l 8.648562643135705 62.403544484330034" fill="#4dd2ff" stroke="none" /><path d="M 97.83486435360386 79.11191278185805 l -5.107256086249308 -49.272114083259126 a70.5361008857604,70.5361008857604 0 0,0 1.2087700162768236,-0.11478727808538824 l 4.258360942882248 49.3527269058597" fill="#3bff9b" stroke="none" /><path d="M 98.19473922651362 79.07773832637324 l -2.5277996961863343 -29.296203340189464 a50.40505571247516,50.40505571247516 0 0,0 0.8650703135482938,-0.06714610561583088 l 2.0231391932757066 29.335374707993758" fill="#b2ff20" stroke="none" /></svg>