<?xml version="1.0" encoding="utf-8" ?>
<svg baseProfile="full" height="200mm" version="1.1" viewBox="0,0,200,200" width="200mm" xmlns="http://www.w3.org/2000/svg" xmlns:ev="http://www.w3.org/2001/xml-events" xmlns:xlink="http://www.w3.org/1999/xlink"><defs /><rect fill="#1a1a1a" height="200" width="200" x="0" y="0" /><text alignment-baseline="middle" fill="#e1ed5e" style="dominant-baseline: central; font-size:9.0px; font-family:Arial;" text-anchor="middle" x="100.0" y="100.0">2024</text><line stroke="#e1ed5e" stroke-width="0.3" x1="100.0" x2="100.0" y1="15.0" y2="10.0" /><path d="M 100.0 14.0 a86.0,86.0 0 0,1 42.35913384403234,11.155469271406648" fill="none" id="id73" stroke="none" /><text fill="#e1ed5e" style="font-size:6.75px; font-family:Arial;" text-anchor="middle"><textPath startOffset="22.145653131862478" xlink:href="#id73">January</textPath></text><path d="M 100.72087961077811 79.0123766808444 l 0.6254850799130516 -18.21031563758251 a39.22105450311743,39.22105450311743 0 0,0 0.6726863559092127,0.028888046513986895 l -0.9379971964231005 18.196895022642693" fill="#ff840c" stroke="none" /><path d="M 101.08105385017728 79.02784411241856 l 0.9397347350063302 -18.230602806970186 a39.25480704027535,39.25480704027535 0 0,0 0.6726697152092126,0.04046613968072988 l -1.2525488023480051 18.211784689464764" fill="#ff840c" stroke="none" /><path d="M 101.44090949804482 79.04949213459386 l 1.2476650735874584 -18.140776345117544 a39.18363095037474,39.18363095037474 0 0,0 0.6706577076594984,0.05191314810862636 l -1.5588917760221903 18.116685430013863" fill="#ff830c" stroke="none" /><path d="M 101.80034050326958 79.07731436759882 l 5.401021509808744 -62.76805689720356 a84.0,84.0 0 0,0 1.4356017464599482,0.1359529779792652 l -6.477722819653705 62.666092163719114" fill="#4dd2ff" stroke="none" /><path d="M 102.51750503828377 79.15144685158666 l 2.37530666627753 -19.67094664065794 a40.81383919129441,40.81383919129441 0 0,0 0.6948501278414546,0.08996226043327128 l -2.7126346160097765 19.627272784024274" fill="#ff9d0e" stroke="none" /><path d="M 102.87502721639298 79.19773525538626 l 2.5014415250202178 -18.099184783344423 a39.27122599949828,39.27122599949828 0 0,0 0.6670028755251382,0.09802645319670111 l -2.811769506153038 18.05357725684884" fill="#ff840c" stroke="none" /><path d="M 103.23170211078529 79.25015418208739 l 2.817009626437008 -18.087222588080586 a39.305276949180836,39.305276949180836 0 0,0 0.6657986314072951,0.10955691143197727 l -3.1270857608973737 18.03619967815294" fill="#ff850c" stroke="none" /><path d="M 103.58742460773223 79.30868818359171 l 3.1127053654629755 -17.953257378728708 a39.22109725562812,39.22109725562812 0 0,0 0.6623981385041613,0.12071100647841605 l -3.4204382375181903 17.897178198318926" fill="#ff840c" stroke="none" /><path d="M 104.29559338865022 79.4440306129975 l 5.95678597424552 -28.50537726756138 a50.12112347264393,50.12112347264393 0 0,0 0.8406925432541948,0.18322502693784365 l -6.445240934118848 28.398920782489817" fill="#d9ff1c" stroke="none" /><path d="M 104.64783097203109 79.52079915486377 l 2.2615436992503652 -9.96477882171376 a31.218189510343507,31.218189510343507 0 0,0 0.5215932817921115,0.12309459427806342 l -2.432269134782362 9.924488083789468" fill="#ff0000" stroke="none" /><path d="M 104.9986988182912 79.60360301121754 l 3.6796501986911574 -15.01422849436915 a36.45855371196977,36.45855371196977 0 0,0 0.6065916992199946,0.15419323788333505 l -3.9368471911365464 14.948850024650547" fill="#ff5808" stroke="none" /><path d="M 106.04205211174951 79.88797359093562 l 4.542371619678412 -15.120077795605791 a36.787649998540985,36.787649998540985 0 0,0 0.6032462796017881,0.1868872394485315 l -4.80125853215183 15.039873968350612" fill="#ff5d08" stroke="none" /><path d="M 106.38641147887787 79.99465700312896 l 6.173650952408438 -19.33887367802222 a41.300394114811525,41.300394114811525 0 0,0 0.6735450433576163,0.22140763405613587 l -6.504718733413797 19.230045122564064" fill="#ffa40f" stroke="none" /><path d="M 106.72888874123014 80.10723608172694 l 5.781109075342035 -17.090821745484966 a39.04210104386249,39.04210104386249 0 0,0 0.6330290501271592,0.2202003639738354 l -6.073643897514212 16.98906294894254" fill="#ff810b" stroke="none" /><path d="M 107.06938296918511 80.22567764915836 l 6.031475076468442 -16.871109251406452 a38.916836187534685,38.916836187534685 0 0,0 0.6271371213886225,0.23029343772817065 l -6.320201349511189 16.765084964669562" fill="#ff7f0b" stroke="none" /><path d="M 107.74402155503746 80.48000691201159 l 8.807032786999022 -22.199475802863578 a44.88264123653833,44.88264123653833 0 0,0 0.7137313243300945,0.2902683161095998 l -9.186818572519556 22.045020230174682" fill="#ffda14" stroke="none" /><path d="M 108.73861861582097 80.90454125486305 l 7.544971789301047 -16.487125010236525 a39.1315164948913,39.1315164948913 0 0,0 0.6084229418526368,0.2847726578623388 l -7.826883445025189 16.35517612080365" fill="#ff820c" stroke="none" /><path d="M 109.06512990194946 81.05736502329252 l 7.699965642844934 -16.089966727805376 a38.83750263357728,38.83750263357728 0 0,0 0.5989108177210228,0.29295729275115595 l -7.975036709828024 15.955415684956998" fill="#ff7e0b" stroke="none" /><path d="M 109.3889696526874 81.21577127319529 l 8.138131195084274 -16.281713908133913 a39.20229071119141,39.20229071119141 0 0,0 0.5993708758968661,0.3060430399195122 l -8.416429292694717 16.139612916541566" fill="#ff830c" stroke="none" /><path d="M 110.02825361518725 81.54914285379988 l 15.10807389041677 -27.797154300540743 a52.63756760382131,52.63756760382131 0 0,0 0.7902047194490878,0.4383132374081387 l -15.583022798021958 27.53370814769946" fill="#b7ff1f" stroke="none" /><line stroke="#e1ed5e" stroke-width="0.3" x1="143.13028292997686" x2="145.6673583964461" y1="26.7553504044142" y2="22.446841604673864" /><path d="M 143.63769802327073 25.89364864446614 a86.0,86.0 0 0,1 29.32050498858742,28.57503671076993" fill="none" id="id74" stroke="none" /><text fill="#e1ed5e" style="font-size:6.75px; font-family:Arial;" text-anchor="middle"><textPath startOffset="20.669276256404974" xlink:href="#id74">February</textPath></text><path d="M 110.65571695917076 81.90426304109057 l 9.178806314586758 -15.587619800898393 a39.08934427827768,39.08934427827768 0 0,0 0.5752969468602244,0.3454492869656971 l -9.445036018004417 15.427756513396774" fill="#ff820b" stroke="none" /><path d="M 110.96478420261332 82.08984904055464 l 16.27253043871788 -26.57995554350671 a52.16551433193094,52.16551433193094 0 0,0 0.7597183582304208,0.47412044406261644 l -16.72641292573801 26.296699302602548" fill="#beff1f" stroke="none" /><path d="M 111.5731344415666 82.4767994020092 l 8.528031345023953 -12.912526396313009 a36.47451635939525,36.47451635939525 0 0,0 0.5195077729981801,0.3495480145684403 l -8.748435406119134 12.764228707687451" fill="#ff5808" stroke="none" /><path d="M 111.8722381534696 82.67804972795209 l 9.939161870274583 -14.501534204181755 a38.58071195823916,38.58071195823916 0 0,0 0.5430784686126994,0.3791109486910378 l -10.186635430061044 14.32877843968559" fill="#ff7a0b" stroke="none" /><path d="M 112.16784306229584 82.88440491214696 l 10.30722145594282 -14.498397786490056 a38.78882662002044,38.78882662002044 0 0,0 0.5393844742075098,0.39047276318170787 l -10.554586940524297 14.319324251935273" fill="#ff7d0b" stroke="none" /><path d="M 112.7482090630111 83.31218511350987 l 10.80142065336288 -14.1394063655131 a38.7930745094828,38.7930745094828 0 0,0 0.5257201534487387,0.4088031711116595 l -11.042550751446846 13.95190214278065" fill="#ff7d0b" stroke="none" /><path d="M 113.03279911837588 83.53348406188908 l 18.802356019295132 -23.756162605868656 a51.29659805378809,51.29659805378809 0 0,0 0.6857847803331857,0.552419674878948 l -19.207391569983578 23.429894637196302" fill="#c9ff1d" stroke="none" /><path d="M 113.59037401385872 83.9905735841838 l 11.674579535311423 -13.75262533728417 a39.03969265242684,39.03969265242684 0 0,0 0.5071823456825301,0.43809203049134965 l -11.908941360756813 13.5501891743281" fill="#ff810b" stroke="none" /><path d="M 113.86319453409587 84.22622945171908 l 11.767291199262504 -13.389017292909074 a38.82512065143064,38.82512065143064 0 0,0 0.4968413217543533,0.44427857358836237 l -11.995397547840232 13.185043189437325" fill="#ff7d0b" stroke="none" /><path d="M 114.13192950727249 84.46653392183569 l 12.319320566513811 -13.541091329920425 a39.30646917419567,39.30646917419567 0 0,0 0.4952057875360732,0.45835508395025537 l -12.54995612536385 13.327618499837795" fill="#ff850c" stroke="none" /><path d="M 114.39649973595853 84.71141617570332 l 16.538472246530315 -17.563284402758892 a45.12446938818442,45.12446938818442 0 0,0 0.5593876639272797,0.5358807281814464 l -16.837532396322906 17.276791544271866" fill="#ffdd14" stroke="none" /><path d="M 114.65682725009322 84.96080404539774 l 12.630889599135308 -12.960405449353672 a39.097278289211914,39.097278289211914 0 0,0 0.4766294829983641,0.472555751212144 l -12.851511002263635 12.74166968791287" fill="#ff820b" stroke="none" /><path d="M 115.16444852881244 85.47280134310134 l 12.878160745192226 -12.336986678112485 a38.83390771746156,38.83390771746156 0 0,0 0.4570273212188122,0.48534717734167504 l -13.088043900147296 12.114098040826315" fill="#ff7e0b" stroke="none" /><path d="M 115.41159269507618 85.73525988315684 l 13.119144702420359 -12.142884479102243 a38.87628600117671,38.87628600117671 0 0,0 0.44911792221972385,0.493659270399387 l -13.32566032548196 11.915887633145186" fill="#ff7e0b" stroke="none" /><path d="M 115.6541949942343 86.00192230759917 l 13.147345632002637 -11.75643753469301 a38.63707800840257,38.63707800840257 0 0,0 0.43786652795088954,0.4982117307582157 l -13.347223223912117 11.529013526123496" fill="#ff7a0b" stroke="none" /><path d="M 115.8921839302757 86.27271002978787 l 13.427324228455438 -11.598202866059129 a38.74292381932382,38.74292381932382 0 0,0 0.4304254644132402,0.5070401147893646 l -13.62444425637579 11.365995968820211" fill="#ff7c0b" stroke="none" /><path d="M 116.1254893667686 86.54754324733833 l 13.405076848708562 -11.182991875271997 a38.45724470247759,38.45724470247759 0 0,0 0.4185488380985568,0.5105615273911135 l -13.595072506045748 10.951228066182388" fill="#ff780b" stroke="none" /><path d="M 116.57777611688842 87.10902102172516 l 13.930280529191293 -10.832270396047669 a38.64626865813441,38.64626865813441 0 0,0 0.4027456894508069,0.5272070358014225 l -14.114178195996407 10.591542447005365" fill="#ff7b0b" stroke="none" /><path d="M 117.21940702142032 87.97951657250589 l 14.425188448465994 -10.069901853621582 a38.59229902870367,38.59229902870367 0 0,0 0.3745479343781796,0.5464766297583985 l -14.595926119659499 9.820790488793136" fill="#ff7a0b" stroke="none" /><path d="M 117.42321728460499 88.27688183743584 l 16.858260687203895 -11.342990150620846 a41.3190644212475,41.3190644212475 0 0,0 0.3909089670077182,0.5918859993388544 l -17.050494093132336 11.051924272942932" fill="#ffa40f" stroke="none" /><path d="M 117.62189284568427 88.57770195909679 l 14.810377015936698 -9.599907447831429 a38.64951813396375,38.64951813396375 0 0,0 0.3560951421955397,0.5598407093624032 l -14.972989849758127 9.344253063790354" fill="#ff7b0b" stroke="none" /><path d="M 117.81537515405839 88.88188828441811 l 14.929877685872453 -9.317347884963839 a38.59869936457102,38.59869936457102 0 0,0 0.34597675003653194,0.5651270200224916 l -15.087622400364388 9.059683748816793" fill="#ff7a0b" stroke="none" /><line stroke="#e1ed5e" stroke-width="0.3" x1="172.87174338648825" x2="177.1583165268699" y1="56.24261187166439" y2="53.66864786411523" /><path d="M 173.72905801456457 55.72781907015455 a86.0,86.0 0 0,1 12.242430191666344,42.057860355516425" fill="none" id="id75" stroke="none" /><text fill="#e1ed5e" style="font-size:6.75px; font-family:Arial;" text-anchor="middle"><textPath startOffset="22.145653131862474" xlink:href="#id75">March</textPath></text><path d="M 118.00360718960297 89.18935116829356 l 17.544671269950097 -10.535070998254895 a41.464682037815386,41.464682037815386 0 0,0 0.3611895450393539,0.613378811053643 l -17.722934525119218 10.232341018907695" fill="#ffa70f" stroke="none" /><path d="M 118.18653347947321 89.5 l 15.336045724862958 -8.85427012755404 a38.708540255108076,38.708540255108076 0 0,0 0.32730215419210235,0.5783115449707579 l -15.485781244076435 8.589701812484163" fill="#ff7c0b" stroke="none" /><path d="M 118.36410011445183 89.81374322990088 l 15.638593828893303 -8.674464377322405 a38.883286867310915,38.883286867310915 0 0,0 0.31875898364039534,0.5864806273257698 l -15.785198162149038 8.404728916522032" fill="#ff7e0b" stroke="none" /><path d="M 118.53625476483649 90.13048839642627 l 15.554337397780028 -8.281808562779798 a38.62174125773362,38.62174125773362 0 0,0 0.30656822046674614,0.5878849852800263 l -15.694213687221719 8.013577334395274" fill="#ff7a0b" stroke="none" /><path d="M 118.70294669586156 90.45014215332178 l 15.848437089600498 -8.092324902535127 a38.79490602704085,38.79490602704085 0 0,0 0.29776030097052153,0.5957200636591236 l -15.985017303782756 7.819072982712253" fill="#ff7d0b" stroke="none" /><path d="M 118.8641267826498 90.77261029715802 l 16.064228327694394 -7.857819063822461 a38.88308564549392,38.88308564549392 0 0,0 0.28814355433143135,0.6021092063355455 l -16.196751139985736 7.580897355421812" fill="#ff7e0b" stroke="none" /><path d="M 119.0197475246899 91.09779779509293 l 15.970156355051039 -7.474839554630947 a38.632898807974044,38.632898807974044 0 0,0 0.27597785661327967,0.6030614227732898 l -16.09611867651937 7.199589149642973" fill="#ff7a0b" stroke="none" /><path d="M 119.16976305983485 91.42560881287824 l 16.088192664215406 -7.196043945154217 a38.62421605806922,38.62421605806922 0 0,0 0.2655251491638691,0.6075735042453805 l -16.209351695396247 6.918808371132987" fill="#ff7a0b" stroke="none" /><path d="M 119.31412917781788 91.75594674310238 l 16.09929951871309 -6.871833641013886 a38.50455776599357,38.50455776599357 0 0,0 0.2542660490331122,0.6101459553744304 l -16.214891412282686 6.594455176198178" fill="#ff780b" stroke="none" /><path d="M 119.71291397450082 92.76114493625339 l 16.505514162036786 -6.061053425493218 a38.583184193424124,38.583184193424124 0 0,0 0.22297374632748423,0.623697252627802 l -16.607128078408213 5.7768212164845" fill="#ff7a0b" stroke="none" /><path d="M 119.83427380445688 93.10060997987247 l 21.960140013063437 -7.63887664052956 a44.250810431522126,44.250810431522126 0 0,0 0.24341017676564153,0.7195989364536242 l -22.088035611401445 7.260776029601774" fill="#ffd113" stroke="none" /><line stroke="#e1ed5e" stroke-width="0.3" x1="184.99686870605535" x2="189.99668451229388" y1="99.2704041080226" y2="99.22748670261217" /><path d="M 185.99683186730306 99.26182062694052 a86.0,86.0 0 0,1 -10.086455211305974,41.156179273409016" fill="none" id="id76" stroke="none" /><text fill="#e1ed5e" style="font-size:6.75px; font-family:Arial;" text-anchor="middle"><textPath startOffset="21.40746469413373" xlink:href="#id76">April</textPath></text><line stroke="#e1ed5e" stroke-width="0.3" x1="174.33088141563837" x2="178.70328620479359" y1="141.23008692659167" y2="143.65538615756765" /><path d="M 175.20536237346943 141.71514677278685 a86.0,86.0 0 0,1 -30.301960400862466,31.631185727798858" fill="none" id="id77" stroke="none" /><text fill="#e1ed5e" style="font-size:6.75px; font-family:Arial;" text-anchor="middle"><textPath startOffset="22.145653131862474" xlink:href="#id77">May</textPath></text><line stroke="#e1ed5e" stroke-width="0.3" x1="143.1302829299769" x2="145.66735839644613" y1="173.24464959558577" y2="177.55315839532614" /><path d="M 143.63769802327073 174.10635135553383 a86.0,86.0 0 0,1 -40.68552437913181,11.842963189579606" fill="none" id="id78" stroke="none" /><text fill="#e1ed5e" style="font-size:6.75px; font-family:Arial;" text-anchor="middle"><textPath startOffset="21.407464694133747" xlink:href="#id78">June</textPath></text><line stroke="#e1ed5e" stroke-width="0.3" x1="101.45913802915013" x2="101.54496967792366" y1="184.9874750549273" y2="189.98673829345242" /><path d="M 101.47630435890484 185.9873277026323 a86.0,86.0 0 0,1 -42.54439059252881,-10.42667462771756" fill="none" id="id79" stroke="none" /><text fill="#e1ed5e" style="font-size:6.75px; font-family:Arial;" text-anchor="middle"><textPath startOffset="22.145653131862474" xlink:href="#id79">July</textPath></text><line stroke="#e1ed5e" stroke-width="0.3" x1="58.13341422392154" x2="55.67067388415222" y1="173.97424548756322" y2="178.32567169271397" /><path d="M 57.64086615596768 174.84453072859336 a86.0,86.0 0 0,1 -31.369924170532247,-30.572349798747897" fill="none" id="id80" stroke="none" /><text fill="#e1ed5e" style="font-size:6.75px; font-family:Arial;" text-anchor="middle"><textPath startOffset="22.145653131862474" xlink:href="#id80">August</textPath></text><line stroke="#e1ed5e" stroke-width="0.3" x1="26.387840678322732" x2="22.057713659400548" y1="142.50000000000003" y2="145.00000000000006" /><path d="M 25.521815274538298 143.00000000000003 a86.0,86.0 0 0,1 -11.493303480769221,-40.785679425670985" fill="none" id="id81" stroke="none" /><text fill="#e1ed5e" style="font-size:6.75px; font-family:Arial;" text-anchor="middle"><textPath startOffset="21.40746469413373" xlink:href="#id81">September</textPath></text><line stroke="#e1ed5e" stroke-width="0.3" x1="15.003131293944662" x2="10.003315487706104" y1="100.72959589197737" y2="100.7725132973878" /><path d="M 14.003168132696942 100.73817937305945 a86.0,86.0 0 0,1 10.791469493833604,-42.45332614584628" fill="none" id="id82" stroke="none" /><text fill="#e1ed5e" style="font-size:6.75px; font-family:Arial;" text-anchor="middle"><textPath startOffset="22.145653131862435" xlink:href="#id82">October</textPath></text><line stroke="#e1ed5e" stroke-width="0.3" x1="26.387840678322718" x2="22.05771365940052" y1="57.49999999999999" y2="54.99999999999999" /><path d="M 25.521815274538284 56.99999999999999 a86.0,86.0 0 0,1 29.574782752854787,-30.34633250058573" fill="none" id="id83" stroke="none" /><text fill="#e1ed5e" style="font-size:6.75px; font-family:Arial;" text-anchor="middle"><textPath startOffset="21.40746469413373" xlink:href="#id83">November</textPath></text><line stroke="#e1ed5e" stroke-width="0.3" x1="56.869717070023135" x2="54.33264160355391" y1="26.7553504044142" y2="22.446841604673864" /><path d="M 56.362301976729285 25.89364864446614 a86.0,86.0 0 0,1 42.16139366436587,-11.88097634709845" fill="none" id="id84" stroke="none" /><text fill="#e1ed5e" style="font-size:6.75px; font-family:Arial;" text-anchor="middle"><textPath startOffset="22.145653131862474" xlink:href="#id84">December</textPath></text></svg>