<?xml version="1.0" encoding="utf-8" ?>
<svg baseProfile="full" height="200mm" version="1.1" viewBox="0,0,200,200" width="200mm" xmlns="http://www.w3.org/2000/svg" xmlns:ev="http://www.w3.org/2001/xml-events" xmlns:xlink="http://www.w3.org/1999/xlink"><defs /><rect fill="#1a1a1a" height="200" width="200" x="0" y="0" /><text alignment-baseline="middle" fill="#e1ed5e" style="dominant-baseline: central; font-size:9.0px; font-family:Arial;" text-anchor="middle" x="100.0" y="100.0">2026</text><line stroke="#e1ed5e" stroke-width="0.3" x1="100.0" x2="100.0" y1="15.0" y2="10.0" /><path d="M 100.0 14.0 a86.0,86.0 0 0,1 42.46469731375804,11.215312516191453" fill="none" id="id97" stroke="none" /><text fill="#e1ed5e" style="font-size:6.75px; font-family:Arial;" text-anchor="middle"><textPath startOffset="22.20632615414155" xlink:href="#id97">January</textPath></text><path d="M 100.0 79.0 l 0.0 -58.300527849102096 a79.3005278491021,79.3005278491021 0 0,0 1.3650282292122815,0.011749228923622259 l -1.003547749939753 58.291889996787035" fill="#47fffe" stroke="none" /><path d="M 101.08401301168833 79.027996857942 l 0.8768686946586066 -16.96445782593606 a37.98710475730445,37.98710475730445 0 0,0 0.6527232881495605,0.03937405125116263 l -1.168754031647779 16.946850505304592" fill="#ffb711" stroke="none" /><path d="M 101.44485096284872 79.0497635885617 l 1.509682794367256 -21.89029336694738 a42.942289894872616,42.942289894872616 0 0,0 0.7369915509218329,0.05720472861123861 l -1.88626453465143 21.861063376147676" fill="#fff917" stroke="none" /><path d="M 101.80526077348638 79.07773832637324 l 1.8797015064328093 -21.785000462812338 a42.86594436373649,42.86594436373649 0 0,0 0.7345893466693492,0.06975810987968381 l -2.2544159801924026 21.749416808417475" fill="#fff817" stroke="none" /><path d="M 102.16513564639614 79.11191278185805 l 1.7139691289518877 -16.535470520907758 a37.62406314722155,37.62406314722155 0 0,0 0.6436102967492694,0.07231711597616683 l -1.9983461292108822 16.50351745146099" fill="#ffb310" stroke="none" /><path d="M 102.88285421437855 79.19881850522331 l 3.9406027439120703 -28.43334653070536 a49.70511356745522,49.70511356745522 0 0,0 0.8464804972875459,0.12474922144811182 l -4.429452221628272 28.361302825096278" fill="#b1ff20" stroke="none" /><path d="M 103.2404852339499 79.25152402106235 l 9.185537757246111 -58.81400338230706 a80.52697789862862,80.52697789862862 0 0,0 1.3676962444924343,0.22568159921488307 l -10.196563207877421 58.647175520152544" fill="#48f4ff" stroke="none" /><path d="M 103.59715602781102 79.31037775812273 l 3.2805964375402885 -18.868878774229962 a40.15194243889084,40.15194243889084 0 0,0 0.6799155537364321,0.12425022153448452 l -3.6049071123796215 18.809613071344742" fill="#ffd513" stroke="none" /><path d="M 105.01212808612495 79.60689891045804 l 7.334113410584513 -29.840681166599918 a51.7287401630133,51.7287401630133 0 0,0 0.8628627561250242,0.2199629289769637 l -7.846685055394563 29.710015241454087" fill="#99ff23" stroke="none" /><path d="M 107.4271985657038 80.35727306442388 l 6.796279678781346 -17.97413449056706 a40.2161111611379,40.2161111611379 0 0,0 0.64540507140706,0.2504071407365521 l -7.104667915188073 17.854484645939962" fill="#ffd513" stroke="none" /><path d="M 107.76421540070413 80.48803036053334 l 8.614647011327676 -21.64915864190268 a44.30017624465631,44.30017624465631 0 0,0 0.7060944556744667,0.2880336574455536 l -8.986025336590531 21.497664098273546" fill="#f3ff19" stroke="none" /><path d="M 108.09893153111575 80.62456947434976 l 10.93023864548487 -26.148891207528692 a49.34139425346647,49.34139425346647 0 0,0 0.7808069868427862,0.33430080311224997 l -11.378729390117972 25.95687087645365" fill="#b5ff1f" stroke="none" /><path d="M 108.43124777332544 80.76684994638697 l 6.739812490869673 -15.374690491272837 a37.78708372870399,37.78708372870399 0 0,0 0.593469328796169,0.2662723886151322 l -7.003463938132622 15.256397772141174" fill="#ffb510" stroke="none" /><path d="M 108.76106565485865 80.91482961587045 l 6.997542490494185 -15.24349844669923 a37.77289020415961,37.77289020415961 0 0,0 0.5885767950947144,0.2763446972501583 l -7.258897496888498 15.120788766809067" fill="#ffb510" stroke="none" /><path d="M 109.08828744355905 81.06846463323043 l 7.148253982432786 -14.890310624471429 a37.51722995815621,37.51722995815621 0 0,0 0.5797818620761288,0.28449644175577476 l -7.403507111519347 14.765059022580822" fill="#ffb110" stroke="none" /><path d="M 109.73455568895987 81.39251694778311 l 9.140624148640883 -17.472190243404228 a40.71873326885951,40.71873326885951 0 0,0 0.6182557048508718,0.33025078598035923 l -9.440024900020067 17.312260730922116" fill="#ffdc14" stroke="none" /><path d="M 110.05341064243156 81.56283822128135 l 2.0918755415673678 -3.83633466816133 a25.369600321258716,25.369600321258716 0 0,0 0.38160217196933277,0.21236119554902835 l -2.1576018026087356 3.799758075052122" fill="#ff0000" stroke="none" /><path d="M 110.36928655335952 81.73862282372117 l 31.107859660078564 -54.7841315288365 a84.0,84.0 0 0,0 1.2512130701386868,0.7247833704398019 l -32.04626946268258 54.24054400100664" fill="#4dd2ff" stroke="none" /><line stroke="#e1ed5e" stroke-width="0.3" x1="143.23703022742887" x2="145.7803849466894" y1="26.81831364943548" y2="22.513508569990506" /><path d="M 143.74570117128098 25.957352633546492 a86.0,86.0 0 0,1 28.547481713284135,27.462654790039103" fill="none" id="id98" stroke="none" /><text fill="#e1ed5e" style="font-size:6.75px; font-family:Arial;" text-anchor="middle"><textPath startOffset="19.985693538727396" xlink:href="#id98">February</textPath></text><path d="M 110.68208982089419 81.91981866633111 l 8.524874732862584 -14.428944485702264 a37.75911477920229,37.75911477920229 0 0,0 0.5567454419849174,0.33543289932864395 l -8.771982241065137 14.280064976915005" fill="#ffb410" stroke="none" /><path d="M 110.99172775467656 82.1063720568725 l 8.598436519258668 -13.997546828136688 a37.427550875940106,37.427550875940106 0 0,0 0.5460516553333701,0.3419374964748812 l -8.838107326964302 13.847464990338862" fill="#ffb010" stroke="none" /><path d="M 111.2981086023043 82.29822771554956 l 15.260874943449714 -23.91059801419552 a49.36566589093339,49.36566589093339 0 0,0 0.71235355043186,0.46333456460401257 l -15.670195519665855 23.64436452543198" fill="#b5ff20" stroke="none" /><path d="M 111.60114157652 82.49532879139004 l 9.138159582904253 -13.78833952637018 a37.54159204723315,37.54159204723315 0 0,0 0.5355849877074169,0.3616293744999166 l -9.374149265018211 13.628998239571592" fill="#ffb110" stroke="none" /><path d="M 112.19680574252982 82.90503203632743 l 12.96161862273729 -18.166924995812614 a43.31682596438775,43.31682596438775 0 0,0 0.603248030189191,0.4382853488679065 l -13.272411969280272 17.941120412128033" fill="#fffe18" stroke="none" /><path d="M 112.77801427241765 83.33499621200491 l 16.711897131472153 -21.79554843679744 a48.465131301227935,48.465131301227935 0 0,0 0.6576659347987447,0.5133186938346218 l -17.084595621430328 21.504651353739593" fill="#c0ff1e" stroke="none" /><path d="M 113.06298171725822 83.55741782278167 l 17.19143647368656 -21.639133628240998 a48.636888251206415,48.636888251206415 0 0,0 0.6510316186577502,0.5264222927402432 l -17.561371490908805 21.340005238236625" fill="#beff1f" stroke="none" /><path d="M 113.34407831869373 83.78471172551755 l 17.642824008403565 -21.43898367798466 a48.765072665786306,48.765072665786306 0 0,0 0.6435653499506494,0.5389674726350142 l -18.009246895313332 21.132115047955825" fill="#bcff1f" stroke="none" /><path d="M 113.6212207817346 84.01681056812373 l 17.869712535363597 -20.968384928382193 a48.54995086386428,48.54995086386428 0 0,0 0.6313948883960107,0.5475394253484731 l -18.22800122240637 20.65768050961405" fill="#bfff1e" stroke="none" /><path d="M 113.89432698308785 84.25364557470407 l 11.086347542530147 -12.564088775165157 a37.75599679469996,37.75599679469996 0 0,0 0.4836165852445385,0.43419574527729854 l -11.300975115370676 12.371394021118562" fill="#ffb410" stroke="none" /><path d="M 114.16331599549186 84.49514656593476 l 11.348519930328845 -12.423442241161862 a37.82649166429401,37.82649166429401 0 0,0 0.4769598464954761,0.4432821963556474 l -11.560687660619166 12.226255458731574" fill="#ffb510" stroke="none" /><path d="M 114.42810811169701 84.74124197986012 l 11.713481071159242 -12.387845437157974 a38.048881294070924,38.048881294070924 0 0,0 0.4720176732813091,0.45408062771750696 l -11.924981988052968 12.184381722678165" fill="#ffb811" stroke="none" /><path d="M 115.4437574822437 85.77008943001954 l 24.476471314559937 -22.552672060237434 a54.282437787354006,54.282437787354006 0 0,0 0.6272370824745648,0.6926108526350292 l -24.861052037650538 22.128008420332854" fill="#7cff26" stroke="none" /><path d="M 115.68641384162765 86.03803664274999 l 20.557831814462936 -18.297852995331752 a48.52155288406735,48.52155288406735 0 0,0 0.5499297322974168,0.6286647489824152 l -20.869753410338202 17.94127269014639" fill="#bfff1e" stroke="none" /><path d="M 115.9244219780498 86.31012108654704 l 12.470406659170507 -10.72053713477824 a37.445089197181126,37.445089197181126 0 0,0 0.4159781850824076,0.49238696486387573 l -12.653095457740031 10.504291220285257" fill="#ffb010" stroke="none" /><line stroke="#e1ed5e" stroke-width="0.3" x1="172.23445277983987" x2="176.4835382374775" y1="55.19839476539836" y2="52.563006222186495" /><path d="M 173.08426987136738 54.67131705675599 a86.0,86.0 0 0,1 12.851231095245387,41.99856678651699" fill="none" id="id99" stroke="none" /><text fill="#e1ed5e" style="font-size:6.75px; font-family:Arial;" text-anchor="middle"><textPath startOffset="22.20632615414155" xlink:href="#id99">March</textPath></text><line stroke="#e1ed5e" stroke-width="0.3" x1="184.98032266829074" x2="189.97916517819016" y1="98.17113171792111" y2="98.06355123074" /><path d="M 185.9800911702706 98.14961562048488 a86.0,86.0 0 0,1 -9.607161424134198,41.387399972396054" fill="none" id="id100" stroke="none" /><text fill="#e1ed5e" style="font-size:6.75px; font-family:Arial;" text-anchor="middle"><textPath startOffset="21.466115282336823" xlink:href="#id100">April</textPath></text><line stroke="#e1ed5e" stroke-width="0.3" x1="174.80103733775053" x2="179.2010983576182" y1="140.37084112569926" y2="142.7455964860345" /><path d="M 175.68104954172406 140.8457921977663 a86.0,86.0 0 0,1 -30.038265399797805,32.042727171017184" fill="none" id="id101" stroke="none" /><text fill="#e1ed5e" style="font-size:6.75px; font-family:Arial;" text-anchor="middle"><textPath startOffset="22.206326154141568" xlink:href="#id101">May</textPath></text><line stroke="#e1ed5e" stroke-width="0.3" x1="143.8653032363475" x2="146.44561519142675" y1="172.8068346515853" y2="177.08958963109032" /><path d="M 144.38136562736335 173.6633856474863 a86.0,86.0 0 0,1 -40.68145358897372,12.25698825130547" fill="none" id="id102" stroke="none" /><text fill="#e1ed5e" style="font-size:6.75px; font-family:Arial;" text-anchor="middle"><textPath startOffset="21.466115282336833" xlink:href="#id102">June</textPath></text><line stroke="#e1ed5e" stroke-width="0.3" x1="102.19456741930631" x2="102.32365962044197" y1="184.97166512339345" y2="189.96999836594603" /><path d="M 102.22038585953345 185.97133177190398 a86.0,86.0 0 0,1 -42.740103519485714,-10.115201625700543" fill="none" id="id103" stroke="none" /><text fill="#e1ed5e" style="font-size:6.75px; font-family:Arial;" text-anchor="middle"><textPath startOffset="22.20632615414155" xlink:href="#id103">July</textPath></text><line stroke="#e1ed5e" stroke-width="0.3" x1="58.666819895761336" x2="56.23545636021788" y1="174.27360380694188" y2="178.64263932499728" /><path d="M 58.180547188652646 175.14741091055294 a86.0,86.0 0 0,1 -31.652253787137756,-30.449443065178592" fill="none" id="id104" stroke="none" /><text fill="#e1ed5e" style="font-size:6.75px; font-family:Arial;" text-anchor="middle"><textPath startOffset="22.20632615414155" xlink:href="#id104">August</textPath></text><line stroke="#e1ed5e" stroke-width="0.3" x1="26.63291911575756" x2="22.317208475507996" y1="142.92168965132927" y2="145.44649492493687" /><path d="M 25.769776987707644 143.4266507060508 a86.0,86.0 0 0,1 -11.730757126820373,-40.83630448921669" fill="none" id="id105" stroke="none" /><text fill="#e1ed5e" style="font-size:6.75px; font-family:Arial;" text-anchor="middle"><textPath startOffset="21.46611528233685" xlink:href="#id105">September</textPath></text><line stroke="#e1ed5e" stroke-width="0.3" x1="15.007084014347285" x2="10.007500721073583" y1="101.09737516637583" y2="101.16192664675087" /><path d="M 14.007167355692545 101.11028546245083 a86.0,86.0 0 0,1 10.666146001902534,-42.60595125391555" fill="none" id="id106" stroke="none" /><text fill="#e1ed5e" style="font-size:6.75px; font-family:Arial;" text-anchor="middle"><textPath startOffset="22.20632615414155" xlink:href="#id106">October</textPath></text><line stroke="#e1ed5e" stroke-width="0.3" x1="26.266209847984243" x2="21.928928074336255" y1="57.711370442889674" y2="55.22380399835377" /><path d="M 25.398753493254645 57.213857153982495 a86.0,86.0 0 0,1 29.58750427330803,-30.492523968695096" fill="none" id="id107" stroke="none" /><text fill="#e1ed5e" style="font-size:6.75px; font-family:Arial;" text-anchor="middle"><textPath startOffset="21.46611528233685" xlink:href="#id107">November</textPath></text><line stroke="#e1ed5e" stroke-width="0.3" x1="56.762969772571076" x2="54.21961505331055" y1="26.818313649435495" y2="22.513508569990535" /><path d="M 56.25429882871897 25.957352633546506 a86.0,86.0 0 0,1 42.265352541879196,-11.944610805530505" fill="none" id="id108" stroke="none" /><text fill="#e1ed5e" style="font-size:6.75px; font-family:Arial;" text-anchor="middle"><textPath startOffset="22.20632615414155" xlink:href="#id108">December</textPath></text></svg>