<?xml version="1.0" encoding="utf-8" ?>
<svg baseProfile="full" height="200mm" version="1.1" viewBox="0,0,200,200" width="200mm" xmlns="http://www.w3.org/2000/svg" xmlns:ev="http://www.w3.org/2001/xml-events" xmlns:xlink="http://www.w3.org/1999/xlink"><defs /><rect fill="#1a1a1a" height="200" width="200" x="0" y="0" /><text alignment-baseline="middle" fill="#e1ed5e" style="dominant-baseline: central; font-size:9.0px; font-family:Arial;" text-anchor="middle" x="100.0" y="100.0">2022</text><line stroke="#e1ed5e" stroke-width="0.3" x1="100.0" x2="100.0" y1="15.0" y2="10.0" /><path d="M 100.0 14.0 a86.0,86.0 0 0,1 42.46469731375804,11.215312516191453" fill="none" id="id49" stroke="none" /><text fill="#e1ed5e" style="font-size:6.75px; font-family:Arial;" text-anchor="middle"><textPath startOffset="22.20632615414155" xlink:href="#id49">January</textPath></text><path d="M 100.0 79.0 l 0.0 -46.84091121729708 a67.84091121729708,67.84091121729708 0 0,0 1.167769766719695,0.010051363060229386 l -0.8062892874471665 46.83397123084541" fill="#2fff2f" stroke="none" /><path d="M 100.36148047927253 79.00311137660856 l 0.7403376590695818 -43.003117076943965 a64.00948939690852,64.00948939690852 0 0,0 1.1014916458485364,0.02844827949537018 l -1.480455940112986 42.98400200530624" fill="#68ff28" stroke="none" /><path d="M 100.72285384407766 79.0124445844662 l 0.8870549141133927 -25.75501855472772 a46.770290009524956,46.770290009524956 0 0,0 0.8043580480356951,0.03463734956051683 l -1.3302537945384192 25.735933478643005" fill="#ff6309" stroke="none" /><path d="M 102.52436894288641 79.15227682838746 l 5.113328077439197 -42.228870127912636 a63.53732004143703,63.53732004143703 0 0,0 1.0846282583304012,0.1408158769707325 l -5.839471064277444 42.13459592777777" fill="#6fff27" stroke="none" /><path d="M 102.88285421437855 79.19881850522331 l 5.983652572721315 -43.17493494678644 a64.58760266142514,64.58760266142514 0 0,0 1.0999300091178257,0.16210109119413268 l -6.725951562267796 43.06553937143134" fill="#5fff29" stroke="none" /><path d="M 103.59715602781102 79.31037775812273 l 7.3878662021620025 -42.49250233087031 a64.1299585133126,64.1299585133126 0 0,0 1.0859488633715486,0.19845021357070128 l -8.118210186636452 42.35903663594887" fill="#66ff29" stroke="none" /><path d="M 105.01212808612495 79.60689891045804 l 10.290014767109007 -41.86750772380444 a64.11348520950429,64.11348520950429 0 0,0 1.0694468563958794,0.27262581592287327 l -11.009170512189911 41.68417891171269" fill="#67ff28" stroke="none" /><path d="M 105.36241919743992 79.69619591428918 l 11.608054740996012 -43.951742786149474 a66.45880144493256,66.45880144493256 0 0,0 1.1035392544528704,0.3016389646788113 l -12.362891884672592 43.74541728064437" fill="#43ff2d" stroke="none" /><path d="M 107.08798089147638 80.2323363322302 l 14.604183739283522 -40.72959517253113 a64.26871971307938,64.26871971307938 0 0,0 1.0381469346021406,0.38235827729635136 l -15.30311299965824 40.472173627428454" fill="#64ff29" stroke="none" /><path d="M 107.4271985657038 80.35727306442388 l 15.467657445961597 -40.90734465441932 a64.73396018589055,64.73396018589055 0 0,0 1.038877827566019,0.4030684571601926 l -16.169518438527284 40.63503349336858" fill="#5dff2a" stroke="none" /><path d="M 107.76421540070413 80.48803036053334 l 16.08946788933914 -40.43386134592403 a64.51744616017218,64.51744616017218 0 0,0 1.0283347582272564,0.41948356782897833 l -16.783086517154782 40.15091689191147" fill="#60ff29" stroke="none" /><path d="M 109.73455568895987 81.39251694778311 l 13.605981783267838 -26.00766624901599 a50.35168553945108,50.35168553945108 0 0,0 0.764518302376323,0.40837920018392954 l -14.051645132172473 25.769608322330306" fill="#ffaa0f" stroke="none" /><path d="M 110.05341064243156 81.56283822128135 l 17.443566983303374 -31.990125332361217 a57.43687895362569,57.43687895362569 0 0,0 0.8639488790636081,0.48078661582129334 l -17.99163995143902 31.685123318979745" fill="#d3ff1c" stroke="none" /><path d="M 110.36928655335952 81.73862282372117 l 12.875695236080986 -22.675419943594175 a47.07600808081611,47.07600808081611 0 0,0 0.7012156738175185,0.4061893786150625 l -13.264107642363832 22.450426407589063" fill="#ff6909" stroke="none" /><line stroke="#e1ed5e" stroke-width="0.3" x1="143.23703022742887" x2="145.7803849466894" y1="26.81831364943548" y2="22.513508569990506" /><path d="M 143.74570117128098 25.957352633546492 a86.0,86.0 0 0,1 28.547481713284135,27.462654790039103" fill="none" id="id50" stroke="none" /><text fill="#e1ed5e" style="font-size:6.75px; font-family:Arial;" text-anchor="middle"><textPath startOffset="19.985693538727396" xlink:href="#id50">February</textPath></text><path d="M 110.99172775467656 82.1063720568725 l 22.668883751925296 -36.90307664055636 a64.30952962220992,64.30952962220992 0 0,0 0.9382480093425581,0.5875308173752721 l -23.30075091364012 36.50740148185814" fill="#64ff29" stroke="none" /><path d="M 111.2981086023043 82.29822771554956 l 23.564718208876393 -36.92098300380083 a64.80017043609192,64.80017043609192 0 0,0 0.9350756369968807,0.6081992051237936 l -24.196760871657553 36.50988487451751" fill="#5cff2a" stroke="none" /><path d="M 111.60114157652 82.49532879139004 l 24.206723186019833 -36.52491676049513 a64.81820388566479,64.81820388566479 0 0,0 0.9247252191021342,0.6243785958221924 l -24.83185309952851 36.10282625237427" fill="#5cff2a" stroke="none" /><path d="M 111.90073688211348 82.69761687909136 l 14.666398872939293 -21.323356260826095 a46.880277783019764,46.880277783019764 0 0,0 0.6609424009152642,0.46303238988740103 l -15.031272413438208 21.067739028174756" fill="#ff6509" stroke="none" /><path d="M 112.48926042617603 83.11751280151076 l 25.805929130169634 -34.88343211036739 a64.39124121375129,64.39124121375129 0 0,0 0.8853913602258292,0.6668584164342034 l -26.402566644153847 34.43405710442734" fill="#62ff29" stroke="none" /><path d="M 112.77801427241765 83.33499621200491 l 15.962068421553008 -20.817626670179646 a47.23282692492966,47.23282692492966 0 0,0 0.6409437143520985,0.5002667355325489 l -16.318044691064536 20.53978154542387" fill="#ff6c0a" stroke="none" /><path d="M 113.89432698308785 84.25364557470407 l 27.712699671769972 -31.406630320750782 a62.88520205516528,62.88520205516528 0 0,0 0.8054965902688346,0.7231827919078776 l -28.249207249634797 30.924948520073606" fill="#7aff26" stroke="none" /><path d="M 114.16331599549186 84.49514656593476 l 29.302288673670567 -32.077776935326675 a64.4466097023427,64.4466097023427 0 0,0 0.8126168650157563,0.7552388138468626 l -29.850113422481172 31.568633535405176" fill="#61ff29" stroke="none" /><path d="M 114.94478906791727 85.2469230424477 l 24.674762902062763 -24.358234455444215 a55.67228734968898,55.67228734968898 0 0,0 0.6673668689193354,0.6877802216253216 l -25.090394034685207 23.92989003826878" fill="#f2ff19" stroke="none" /><path d="M 115.19652480421416 85.50635884689758 l 25.769880095923998 -24.57794788484953 a56.61126566676168,56.61126566676168 0 0,0 0.6664835627350036,0.7109581955031625 l -26.189130980629464 24.130720272468313" fill="#e2ff1b" stroke="none" /><path d="M 115.9244219780498 86.31012108654704 l 32.73359188376294 -28.14035636011075 a64.16674291264951,64.16674291264951 0 0,0 0.712829528029613,0.8437653231799104 l -33.21313202527967 27.57273208730173" fill="#66ff29" stroke="none" /><path d="M 117.2510076193507 88.02491185347247 l 24.66079419291187 -17.11872087357 a51.02008285418874,51.02008285418874 0 0,0 0.49459241088890327,0.7257533334814716 l -24.951811069469507 16.69168951681812" fill="#ffb610" stroke="none" /><path d="M 117.45458315368197 88.32363383020206 l 28.786341472610026 -19.25682560068082 a55.63349228121161,55.63349228121161 0 0,0 0.525612955018157,0.8005445907247455 l -29.113551062986108 18.7584629459784" fill="#f3ff19" stroke="none" /><line stroke="#e1ed5e" stroke-width="0.3" x1="172.23445277983987" x2="176.4835382374775" y1="55.19839476539836" y2="52.563006222186495" /><path d="M 173.08426987136738 54.67131705675599 a86.0,86.0 0 0,1 12.851231095245387,41.99856678651699" fill="none" id="id51" stroke="none" /><text fill="#e1ed5e" style="font-size:6.75px; font-family:Arial;" text-anchor="middle"><textPath startOffset="22.20632615414155" xlink:href="#id51">March</textPath></text><path d="M 118.03404312379186 89.2402003453031 l 26.5076057854602 -15.815451123157024 a51.867161494156406,51.867161494156406 0 0,0 0.45084993064016265,0.7706486766162902 l -26.77591539057069 15.356823034186839" fill="#ffc612" stroke="none" /><path d="M 118.21658344932153 89.55222093294921 l 30.300604430606857 -17.37834218857716 a55.93040804347113,55.93040804347113 0 0,0 0.47179259068081686,0.8392663747892092 l -30.595254662580107 16.854192303853157" fill="#eeff19" stroke="none" /><path d="M 118.56541770881063 90.18545643968196 l 38.05143823931492 -20.11576060339733 a64.04132638213639,64.04132638213639 0 0,0 0.5068125872678686,0.9790006033949527 l -38.392060259742905 19.45778727774203" fill="#68ff28" stroke="none" /><path d="M 118.73160827565052 90.50648371742162 l 38.414344799016774 -19.469081483414765 a64.06630957193326,64.06630957193326 0 0,0 0.4900767209408716,0.9879647645299302 l -38.74378153291105 18.804957130385883" fill="#67ff28" stroke="none" /><path d="M 119.04729006885535 91.15688171328212 l 31.35999061871038 -14.559557055576699 a55.57498681504009,55.57498681504009 0 0,0 0.39537020309331095,0.8711458342097022 l -31.605963138767038 14.017589212524934" fill="#f4ff19" stroke="none" /><path d="M 119.34039704204932 91.81776055985345 l 32.56697660701202 -13.777938470491103 a56.36155474266236,56.36155474266236 0 0,0 0.3703177260887521,0.8967537470624635 l -32.799316019986975 13.215310152975338" fill="#e6ff1a" stroke="none" /><path d="M 119.47837535516314 92.15188598940014 l 24.30299436353146 -9.79202151545986 a47.20151179594549,47.20151179594549 0 0,0 0.29715925308376173,0.756237886389011 l -24.467947166496923 9.372234624175064" fill="#ff6c09" stroke="none" /><path d="M 119.61058180528143 92.48833698450437 l 44.86672154323602 -17.185807957625286 a69.04554815167224,69.04554815167224 0 0,0 0.4155733557505457,1.1135299833380223 l -45.155899487488185 16.41095483725793" fill="#32ff45" stroke="none" /><path d="M 119.7369772167798 92.82701384747503 l 40.26501039620575 -14.633464832583941 a63.84167778242384,63.84167778242384 0 0,0 0.3664722653620963,1.0360664438646339 l -40.510935742377654 13.938200762292693" fill="#6bff28" stroke="none" /><path d="M 119.97218684219823 93.5106431181261 l 24.465593145175202 -7.949353092888203 a46.724646985734424,46.724646985734424 0 0,0 0.24195472059833492,0.7670625843864886 l -24.598803349541743 7.527040342075296" fill="#ff6209" stroke="none" /><path d="M 120.18372546131832 94.20196356495316 l 24.938279222286635 -7.163843554813464 a46.94683844029125,46.94683844029125 0 0,0 0.21643214481446674,0.778621579474766 l -25.057898137667465 6.733510671919746" fill="#ff6609" stroke="none" /><path d="M 120.28053869075195 94.5502522615342 l 24.781869585920177 -6.65933680511202 a46.66101765046498,46.66101765046498 0 0,0 0.2017615029203224,0.7774693744488513 l -24.892827420710802 6.231771005114318" fill="#ff6108" stroke="none" /><path d="M 120.37134235888165 94.90015583598534 l 33.63047051052392 -8.419187883874812 a55.66830355502275,55.66830355502275 0 0,0 0.224706962218569,0.9315554284620086 l -33.77041027300331 7.839047223753398" fill="#f2ff19" stroke="none" /><path d="M 120.45610955862082 95.25157060432595 l 24.851633951371923 -5.768752305860346 a46.5123933259769,46.5123933259769 0 0,0 0.17432316327254038,0.7814565596134864 l -24.9472515016465 5.340117576696896" fill="#ff5e08" stroke="none" /><path d="M 120.67395015179393 96.31383870115 l 25.68657747422451 -4.579911777391139 a47.09168170563224,47.09168170563224 0 0,0 0.13541804743263333,0.7992449815235426 l -25.761607383177367 4.137081007551759" fill="#ff6909" stroke="none" /><path d="M 120.78858239683441 97.02765380044208 l 25.16865679551827 -3.5986081179603597 a46.42461927497122,46.42461927497122 0 0,0 0.1062991160455863,0.7920518839454014 l -25.226871910621693 3.164837891950294" fill="#ff5c08" stroke="none" /><path d="M 120.94382443527127 98.46500227214037 l 25.218976157373234 -1.8483286670089387 a46.286618541976836,46.286618541976836 0 0,0 0.05139888518109345,0.7951180040664539 l -25.24705563355874 1.4139515986894495" fill="#ff5908" stroke="none" /><line stroke="#e1ed5e" stroke-width="0.3" x1="184.98032266829074" x2="189.97916517819016" y1="98.17113171792111" y2="98.06355123074" /><path d="M 185.9800911702706 98.14961562048488 a86.0,86.0 0 0,1 -9.607161424134198,41.387399972396054" fill="none" id="id52" stroke="none" /><text fill="#e1ed5e" style="font-size:6.75px; font-family:Arial;" text-anchor="middle"><textPath startOffset="21.466115282336823" xlink:href="#id52">April</textPath></text><path d="M 120.99824983174949 100.27111621757518 l 42.95021153205473 0.5545461639864013 a63.95379135881068,63.95379135881068 0 0,0 -0.02368707524975911,1.1006453102813492 l -42.93430239411997 -1.2937812900578654" fill="#69ff28" stroke="none" /><path d="M 120.9904718944345 100.63252640178507 l 21.48071372017583 0.6472993377914745 a42.49046435889312,42.49046435889312 0 0,0 -0.028322660723165312,0.7308820243510773 l -21.466388926601464 -1.0169586091565581" fill="#ff0901" stroke="none" /><path d="M 120.9764740272857 100.99374915477107 l 21.671765359898288 1.02668820702573 a42.69607113025151,42.69607113025151 0 0,0 -0.041097304776571156,0.7338199843934458 l -21.650881704234187 -1.399579907754599" fill="#ff0e01" stroke="none" /><path d="M 120.92983693683757 101.71520430193887 l 36.48145524622036 2.989662517110949 a57.60375197774399,57.60375197774399 0 0,0 -0.08949265067757703,0.9875439429247583 l -36.424587999265704 -3.6171878485842783" fill="#d0ff1d" stroke="none" /><path d="M 120.89721153311464 102.0752229133903 l 25.599114742387247 2.542151109095441 a46.72503076490645,46.72503076490645 0 0,0 -0.08636943602791494,0.7996737103311264 l -25.55156300485828 -2.982421141311359" fill="#ff6209" stroke="none" /><path d="M 120.8583938346157 102.4346265915055 l 33.27316853902466 3.8836998453024196 a54.49905773472953,54.49905773472953 0 0,0 -0.11677977835865319,0.9308497341673194 l -33.20138725141916 -4.4558673337571335" fill="#fff717" stroke="none" /><path d="M 120.64145759157962 103.86396538481128 l 41.12887136434631 7.699094628521744 a62.843280437889646,62.843280437889646 0 0,0 -0.20819101105205326,1.0615614800648048 l -40.990250420318596 -8.405919835654494" fill="#7aff26" stroke="none" /><path d="M 120.23288151984713 105.62410040840565 l 33.215011971797836 9.232721607772183 a55.47434072717413,55.47434072717413 0 0,0 -0.2636546508791101,0.9178164279508745 l -33.05116468403263 -9.803095511227639" fill="#f6ff19" stroke="none" /><path d="M 120.13307415673323 105.97154293290107 l 29.061255461008844 8.619673941417535 a51.31262687109728,51.31262687109728 0 0,0 -0.2584524835878334,0.8446376703256601 l -28.90857620491488 -9.118638584295251" fill="#ffbc11" stroke="none" /><path d="M 119.9155931802556 106.66101706037122 l 26.518950006309396 8.869591621819389 a48.96291052403139,48.96291052403139 0 0,0 -0.2742136772062987,0.7969933025385761 l -26.362345498159865 -9.324757627447264" fill="#ff8f0d" stroke="none" /><path d="M 119.79798401119884 107.00284435728193 l 23.896414405153447 8.45252075573659 a46.347262742729896,46.347262742729896 0 0,0 -0.27251250083540457,0.7498373628370545 l -23.747377643312817 -8.862605915579776" fill="#ff5a08" stroke="none" /><path d="M 119.67450827220406 107.3425965602758 l 31.471643027969254 11.745329268018715 a54.591919779823584,54.591919779823584 0 0,0 -0.33614511978588457,0.877568836143047 l -31.264803628589863 -12.285321670994906" fill="#fff917" stroke="none" /><path d="M 119.41010516605496 108.01547362559984 l 23.398167713433693 9.662358580229565 a46.31472744626943,46.31472744626943 0 0,0 -0.3106373293882233,0.7342548858900765 l -23.22837940285316 -10.063687991785805" fill="#ff5a08" stroke="none" /><path d="M 119.26925614724726 108.34839909993367 l 20.412951548677416 8.84390476901274 a43.24642089173038,43.24642089173038 0 0,0 -0.30181659691175344,0.6805167487814138 l -20.25769386703439 -9.193969854286841" fill="#ff1a02" stroke="none" /><path d="M 118.81262510543309 109.33194174019688 l 23.23619641742914 11.526239959387542 a46.93790723151598,46.93790723151598 0 0,0 -0.3652692970106211,0.7207109761091417 l -23.03434845063225 -11.92450514719938" fill="#ff6609" stroke="none" /><line stroke="#e1ed5e" stroke-width="0.3" x1="174.80103733775053" x2="179.2010983576182" y1="140.37084112569926" y2="142.7455964860345" /><path d="M 175.68104954172406 140.8457921977663 a86.0,86.0 0 0,1 -30.038265399797805,32.042727171017184" fill="none" id="id53" stroke="none" /><text fill="#e1ed5e" style="font-size:6.75px; font-family:Arial;" text-anchor="middle"><textPath startOffset="22.206326154141568" xlink:href="#id53">May</textPath></text><path d="M 118.48025628344425 109.97397251340804 l 22.98664160164901 12.406112122795703 a47.12082139072275,47.12082139072275 0 0,0 -0.39138013602685595,0.7104686309340078 l -22.76968505617064 -12.799951272127515" fill="#ff6a09" stroke="none" /><path d="M 118.30583269289576 110.29060199501025 l 18.623877374727282 10.469390433223603 a42.36485301873506,42.36485301873506 0 0,0 -0.36282067851034944,0.6326084352287983 l -18.440904700064554 -10.788418714310716" fill="#ff0701" stroke="none" /><path d="M 117.94076556474637 110.91462005526583 l 22.255958486799603 13.539853133498136 a47.051013627934836,47.051013627934836 0 0,0 -0.42689913502791205,0.6882973333087663 l -22.019594712103725 -13.920946798172176" fill="#ff6809" stroke="none" /><path d="M 117.55443506779139 111.5257021239791 l 25.233136833334253 16.567301520755045 a51.18586878208713,51.18586878208713 0 0,0 -0.489914317716849,0.7323554325391693 l -24.944219410206685 -16.999193867500022" fill="#ffba11" stroke="none" /><path d="M 117.35343817320211 111.8261652097733 l 21.101034097616036 14.38010801345542 a46.53509636691037,46.53509636691037 0 0,0 -0.45679535953321315,0.6580477848153865 l -20.85037783092069 -14.741197060457827" fill="#ff5e08" stroke="none" /><path d="M 117.14729908036423 112.12312394758627 l 27.54341217122182 19.47316589780305 a54.731939524983886,54.731939524983886 0 0,0 -0.5504996014358594,0.764595798338631 l -27.20413277741036 -19.944395301592813" fill="#fffb17" stroke="none" /><path d="M 116.71984013943494 112.70617746262583 l 23.937398577590564 18.191132916582532 a51.065201935979196,51.065201935979196 0 0,0 -0.5378702164581568,0.6952697604069993 l -23.620721543914335 -18.600480671102787" fill="#ffb711" stroke="none" /><path d="M 116.27256486870786 113.27417163493432 l 26.474879860968603 21.596601526816915 a55.1662473965291,55.1662473965291 0 0,0 -0.6065765330819508,0.730660509553397 l -26.09920732799311 -22.049123293484083" fill="#fbff18" stroke="none" /><path d="M 116.0416608686014 113.55231037782055 l 22.99002372013577 19.422423874985014 a51.096041929662334,51.096041929662334 0 0,0 -0.5733888100957376,0.6669807254820589 l -22.652292400469253 -19.815281699628603" fill="#ffb811" stroke="none" /><path d="M 115.56566222782051 114.09645910891815 l 19.1216284096415 17.316786721137838 a46.797437380131086,46.797437380131086 0 0,0 -0.545866684898018,0.5924304764771885 l -18.82071531674776 -17.64336845241636" fill="#ff6309" stroke="none" /><path d="M 115.07121518719521 114.62390073753431 l 18.67084550302261 18.116693838597847 a47.01566965194686,47.01566965194686 0 0,0 -0.5685747655906594,0.5759632357061002 l -18.356230112376416 -18.43539756828461" fill="#ff6809" stroke="none" /><path d="M 114.29624159901734 115.38237550388516 l 19.979870499543907 21.497808946101397 a50.34878216658439,50.34878216658439 0 0,0 -0.6399101259074333,0.5845427278937967 l -19.60686082416961 -21.838544440581774" fill="#ffa90f" stroke="none" /><path d="M 114.0293411484842 115.62618273729858 l 19.57867196872009 21.80714708544247 a50.306587315224334,50.306587315224334 0 0,0 -0.6493326281411432,0.5729605477244468 l -19.20039698767236 -22.140930774939207" fill="#ffa90f" stroke="none" /><path d="M 113.75828350139079 115.86535959552629 l 17.60825906690583 20.30495751300714 a47.8764225106746,47.8764225106746 0 0,0 -0.6272598424128754,0.5345644458159172 l -17.256133747915907 -20.605046349046006" fill="#ff790b" stroke="none" /><path d="M 113.20401910651253 116.32954008644616 l 19.28068304558979 23.844610049960668 a51.66447728462331,51.66447728462331 0 0,0 -0.6963449137184401,0.5532185139030629 l -18.867380639154 -24.172962477868857" fill="#ffc312" stroke="none" /><path d="M 112.04921762599082 117.19931262002967 l 15.098772884647031 21.552313443298523 a47.31492271279433,47.31492271279433 0 0,0 -0.6710678087907695,0.4615665580092678 l -14.725548191233377 -21.809020790672886" fill="#ff6e0a" stroke="none" /><path d="M 111.7513745106137 117.40417183066458 l 13.629071250975539 20.185102409093524 a45.35549101187987,45.35549101187987 0 0,0 -0.650797952045312,0.4313133956879681 l -13.279598600190264 -20.41671382587281" fill="#ff4606" stroke="none" /><line stroke="#e1ed5e" stroke-width="0.3" x1="143.8653032363475" x2="146.44561519142675" y1="172.8068346515853" y2="177.08958963109032" /><path d="M 144.38136562736335 173.6633856474863 a86.0,86.0 0 0,1 -40.68145358897372,12.25698825130547" fill="none" id="id54" stroke="none" /><text fill="#e1ed5e" style="font-size:6.75px; font-family:Arial;" text-anchor="middle"><textPath startOffset="21.466115282336833" xlink:href="#id54">June</textPath></text><path d="M 110.8373102113329 117.98757091392108 l 13.193935348478526 21.899054570410605 a46.566550824420034,46.566550824420034 0 0,0 -0.6901431786642521,0.40774875471190625 l -12.815024298785891 -22.12292189741626" fill="#ff5f08" stroke="none" /><path d="M 110.21172684928248 118.3499491758327 l 12.782013838813194 22.96862301242346 a47.28569042012099,47.28569042012099 0 0,0 -0.7146380697327417,0.3896776554854954 l -12.384752957211804 -23.185241319668727" fill="#ff6d0a" stroke="none" /><path d="M 109.89434966115114 118.52300852407294 l 11.881475064147848 22.243065125936297 a46.21752160495973,46.21752160495973 0 0,0 -0.70494726822604,0.3687950928703908 l -11.496836893395313 -22.444289637751403" fill="#ff5808" stroke="none" /><path d="M 109.57404056367764 118.69057910512821 l 10.697892908116827 20.884579747439652 a44.46509288071758,44.46509288071758 0 0,0 -0.6842248099489043,0.34308452398243283 l -10.336814190485162 -21.065632112331386" fill="#ff3304" stroke="none" /><path d="M 108.92500713936063 119.00905698771935 l 14.779370159345094 31.478057688334335 a55.774960792746334,55.774960792746334 0 0,0 -0.8725647454873596,0.40055167805505776 l -14.235337418090314 -31.72779643672347" fill="#f0ff19" stroke="none" /><path d="M 108.59647513512805 119.15986991738527 l 12.140872899074942 27.05964267601167 a50.65847360375993,50.65847360375993 0 0,0 -0.7986653935048013,0.3501114379001324 l -11.673286830912387 -27.264618667206257" fill="#ffaf10" stroke="none" /><path d="M 108.2653958097858 119.30500536409082 l 13.612731214953197 31.79446637189034 a55.58604549531251,55.58604549531251 0 0,0 -0.8828348869694909,0.36902505435327654 l -13.063424868486244 -32.02407646926359" fill="#f4ff19" stroke="none" /><path d="M 107.93186726928326 119.44442032107085 l 8.276092672927259 20.288264929964427 a42.91135330825791,42.91135330825791 0 0,0 -0.6863342464173795,0.2731065609740354 l -7.925637350468013 -20.427718335344533" fill="#ff1202" stroke="none" /><path d="M 107.59598834532513 119.57807347666477 l 7.695652265652628 19.834949536295003 a42.275532587956846,42.275532587956846 0 0,0 -0.6806960238670313,0.2573809913830683 l -7.353086021025321 -19.964478777784702" fill="#ff0500" stroke="none" /><path d="M 106.57524785965236 119.94407469862006 l 9.456121353190872 28.68235458993419 a51.2009221029589,51.2009221029589 0 0,0 -0.8393992662719157,0.26874913770510805 l -8.961000741828016 -28.840876574299006" fill="#ffba11" stroke="none" /><path d="M 106.2309692047433 120.05430185196036 l 6.345937177233838 20.42432493310123 a42.387472212262466,42.387472212262466 0 0,0 -0.6986364239467959,0.21049342353319547 l -5.993425778846797 -20.530533725740153" fill="#ff0701" stroke="none" /><path d="M 105.88484417918355 120.15858648285463 l 8.427688090865033 28.86912109434934 a51.07410978428313,51.07410978428313 0 0,0 -0.8460519481312238,0.23910273152637265 l -7.929504974629203 -29.00991261921423" fill="#ffb711" stroke="none" /><path d="M 105.53697534728816 120.25689768951611 l 5.568623848360934 20.37268300695874 a42.12003277617153,42.12003277617153 0 0,0 -0.7010168573507107,0.18514492346939104 l -5.217116548198725 -20.465519279731716" fill="#ff0100" stroke="none" /><path d="M 104.83641907484287 120.43548508189849 l 5.901484704118747 24.93574290519667 a46.62457406371887,46.62457406371887 0 0,0 -0.7825820428857649,0.17811312509241448 l -5.471382511840121 -25.03363276386677" fill="#ff6008" stroke="none" /><path d="M 104.48393922423573 120.51570834832081 l 4.5768813745014745 20.940953641078515 a42.435283588374986,42.435283588374986 0 0,0 -0.7149507462015644,0.14982488020243645 l -4.215739166870532 -21.01663450200749" fill="#ff0801" stroke="none" /><path d="M 102.34483914955558 120.86867818915974 l 4.743370494796356 42.21520798414744 a63.48085861650787,63.48085861650787 0 0,0 -1.0869355951421233,0.11266531864799804 l -4.01600230304863 -42.2906026712512" fill="#70ff27" stroke="none" /><path d="M 101.62511606390274 120.93702456842531 l 2.6448508953608956 34.074678975856294 a55.17717050263749,55.17717050263749 0 0,0 -0.9475686875286392,0.0653498845384663 l -2.057919447053326 -34.11515720491104" fill="#fbff18" stroke="none" /><path d="M 101.26447882468166 120.96189622390904 l 1.562001946402634 25.89408542312204 a46.941154754183685,46.941154754183685 0 0,0 -0.8069674737480775,0.041711000881831085 l -1.116046404241077 -25.917136230766072" fill="#ff6609" stroke="none" /><path d="M 100.90346689309514 120.98055641714683 l 0.9261433666194736 21.50715571564383 a42.52708732068703,42.52708732068703 0 0,0 -0.7316271976913887,0.02519871999440095 l -0.5557958172534325 -21.519911234064324" fill="#ff0a01" stroke="none" /><line stroke="#e1ed5e" stroke-width="0.3" x1="102.19456741930631" x2="102.32365962044197" y1="184.97166512339345" y2="189.96999836594603" /><path d="M 102.22038585953345 185.97133177190398 a86.0,86.0 0 0,1 -42.740103519485714,-10.115201625700543" fill="none" id="id55" stroke="none" /><text fill="#e1ed5e" style="font-size:6.75px; font-family:Arial;" text-anchor="middle"><textPath startOffset="22.20632615414155" xlink:href="#id55">July</textPath></text><path d="M 100.18074693466247 120.99922214144158 l 0.36625544804941595 42.55164563905701 a63.55322184800001,63.55322184800001 0 0,0 -1.0940047654237135,0.0 l 0.36625544804938664 -42.55164563905701" fill="#6fff27" stroke="none" /><path d="M 99.81925306533755 120.99922214144158 l -0.5422408039873445 62.99766642432473 a84.0,84.0 0 0,0 -1.4457612404293283,-0.02489009088336136 l 1.6265617343093406 -62.97899885616221" fill="#4dd2ff" stroke="none" /><path d="M 99.09653310690486 120.98055641714683 l -1.855978026806599 43.10003166469132 a64.13997431540014,64.13997431540014 0 0,0 -1.1026331437862769,-0.056993538809179706 l 2.5975992390063647 -43.06169831911994" fill="#66ff29" stroke="none" /><path d="M 98.73552117531835 120.96189622390904 l -1.539344087993726 25.51847480208791 a46.564861361760535,46.564861361760535 0 0,0 -0.7996677641055805,-0.055149770925554883 l 1.9783746128782365 -25.488196686646067" fill="#ff5f08" stroke="none" /><path d="M 98.37488393609728 120.93702456842531 l -2.2789927331493183 29.361180967359108 a50.44949499865419,50.44949499865419 0 0,0 -0.8652224900397609,-0.07465503710700046 l 2.784059540930621 -29.317601677973443" fill="#ffab0f" stroke="none" /><path d="M 98.01472825383883 120.90594882070398 l -2.4089461111658363 25.367461260277373 a46.48158378433676,46.48158378433676 0 0,0 -0.7958696374758824,-0.08249514203898581 l 2.8452483452473123 -25.322236749782626" fill="#ff5d08" stroke="none" /><path d="M 97.2962882734958 120.8252237178851 l -5.477692690616886 42.1916932273747 a63.54578821229822,63.54578821229822 0 0,0 -1.0835204718724232,-0.15016606434048593 l 6.20314175367614 -42.09115259754161" fill="#6fff27" stroke="none" /><path d="M 96.93821686468263 120.77559828337769 l -3.6793962802410887 24.966385816779813 a46.23605313315369,46.23605313315369 0 0,0 -0.7863742851168358,-0.12281549073126032 l 4.108606428966442 -24.899352018701446" fill="#ff5808" stroke="none" /><path d="M 96.58105272829116 120.7198165907248 l -4.19961769159874 25.450906786754068 a46.79506629228995,46.79506629228995 0 0,0 -0.7936243328586987,-0.13798176300106393 l 4.637090995929489 -25.374846445232" fill="#ff6309" stroke="none" /><path d="M 95.86986931433489 120.58985236759428 l -5.973145956346906 29.777797065390022 a51.37096756251559,51.37096756251559 0 0,0 -0.8654993789643818,-0.1813738099548278 l 6.484836796740675 -29.670567274708656" fill="#ffbd11" stroke="none" /><path d="M 95.51606077576429 120.51570834832081 l -4.849852061978038 22.189897199822816 a43.71370957729664,43.71370957729664 0 0,0 -0.7337238962518718,-0.16699316998700453 l 5.231096107622773 -22.103127296258126" fill="#ff2403" stroke="none" /><path d="M 95.16358092515715 120.4354850818985 l -8.007667827373941 33.8350696858121 a55.769738058796484,55.769738058796484 0 0,0 -0.9322753979177173,-0.22913061066043403 l 8.58889651003487 -33.69221781683764" fill="#f0ff19" stroke="none" /><path d="M 94.81253420990036 120.34920634021253 l -6.607391117080513 25.919238921742583 a47.74816935149862,47.74816935149862 0 0,0 -0.794687691743062,-0.2098842421933769 l 7.052569251635064 -25.801663330245624" fill="#ff760a" stroke="none" /><path d="M 94.11515582081647 120.15858648285463 l -7.260422538822022 24.870642483386312 a46.908735842928635,46.908735842928635 0 0,0 -0.7731565425052109,-0.23294572395699206 l 7.687454055767479 -24.741981390323595" fill="#ff6609" stroke="none" /><path d="M 93.76903079525671 120.05430185196036 l -7.663571342179929 24.66511515465611 a46.82824483601485,46.82824483601485 0 0,0 -0.7677126258997767,-0.2457973392474387 l 8.087005313170646 -24.529544968748965" fill="#ff6409" stroke="none" /><path d="M 93.42475214034765 119.94407469862007 l -10.774576006057629 32.68149783818712 a55.41179723667077,55.41179723667077 0 0,0 -0.9032921593551333,-0.30644574388922774 l 11.335537898349987 -32.49118910739977" fill="#f7ff19" stroke="none" /><path d="M 92.7421414339146 119.70592522655815 l -15.105969916301039 41.014455012426666 a64.70784651614127,64.70784651614127 0 0,0 -1.0418880884562067,-0.3939529242342885 l 15.809728225517528 -40.74835383808575" fill="#5dff2a" stroke="none" /><path d="M 92.40401165467489 119.57807347666478 l -15.509912608719091 39.97560223443908 a63.87897110631497,63.87897110631497 0 0,0 -1.021695241844872,-0.40655362211679485 l 16.19572892660582 -39.70270176791622" fill="#6aff28" stroke="none" /><path d="M 91.7346041902142 119.30500536409082 l -11.960327352832754 27.93504255771416 a51.387761238502264,51.387761238502264 0 0,0 -0.8101631105567761,-0.3551516991689552 l 12.439411138047273 -27.72502630525075" fill="#ffbd11" stroke="none" /><path d="M 91.40352486487194 119.15986991738527 l -10.805817801417298 24.08406470927779 a47.39711861696475,47.39711861696475 0 0,0 -0.7414985892419421,-0.34038563411180184 l 11.218784386426659 -23.894492004831914" fill="#ff6f0a" stroke="none" /><path d="M 91.07499286063937 119.00905698771935 l -9.778756283556309 20.827427088921848 a44.00881990884251,44.00881990884251 0 0,0 -0.682948424026215,-0.3278567462399681 l 10.135817375582766 -20.656016066182318" fill="#ff2a04" stroke="none" /><path d="M 90.7491055286396 118.85261126421891 l -10.42447096580219 21.244269877019235 a44.66407820990456,44.66407820990456 0 0,0 -0.6872867781182012,-0.34461985838793474 l 10.788611651603151 -21.061682177722" fill="#ff3705" stroke="none" /><path d="M 90.42595943632237 118.69057910512821 l -10.9817529424251 21.438735371779867 a45.087720357677426,45.087720357677426 0 0,0 -0.6877146197574003,-0.35977978565686325 l 11.349158464708998 -21.246526167178285" fill="#ff4006" stroke="none" /><line stroke="#e1ed5e" stroke-width="0.3" x1="58.666819895761336" x2="56.23545636021788" y1="174.27360380694188" y2="178.64263932499728" /><path d="M 58.180547188652646 175.14741091055294 a86.0,86.0 0 0,1 -31.652253787137756,-30.449443065178592" fill="none" id="id56" stroke="none" /><text fill="#e1ed5e" style="font-size:6.75px; font-family:Arial;" text-anchor="middle"><textPath startOffset="22.20632615414155" xlink:href="#id56">August</textPath></text><path d="M 89.7882731507175 118.34994917583269 l -13.168306618178942 23.662771315934982 a48.080085774247664,48.080085774247664 0 0,0 -0.7197159166508988,-0.40867348090598593 l 13.573671301751048 -23.432594669234362" fill="#ff7d0b" stroke="none" /><path d="M 89.4739219176387 118.17145234162733 l -17.252242698363283 29.783011633253075 a55.4190014391719,55.4190014391719 0 0,0 -0.8213416096854584,-0.4852631003185562 l 17.762352179077123 -29.48162996064077" fill="#f7ff19" stroke="none" /><path d="M 89.1626897886671 117.98757091392108 l -13.856048589943665 22.998018118713023 a47.84956088869113,47.84956088869113 0 0,0 -0.7018409537058262,-0.4311280370161011 l 14.2498687435818 -22.756101614868545" fill="#ff790b" stroke="none" /><path d="M 88.8546689885994 117.79835938074946 l -16.118671058899814 25.740455797403207 a51.3707527296095,51.3707527296095 0 0,0 -0.7454096761552236,-0.4757557231604392 l 16.559362537101958 -25.459185645418966" fill="#ffbd11" stroke="none" /><path d="M 88.54995079064634 117.60387380957326 l -14.689120470467477 22.58378269016412 a47.940629183307195,47.940629183307195 0 0,0 -0.6878916443455152,-0.45589707228732085 l 15.075686813552954 -22.327587596785484" fill="#ff7a0b" stroke="none" /><path d="M 87.95078237400918 117.19931262002967 l -14.831946648760221 21.17143993028771 a46.84988414119975,46.84988414119975 0 0,0 -0.6565066950571861,-0.46840009558944756 l 15.194180671666293 -20.912995572854047" fill="#ff6409" stroke="none" /><path d="M 87.65650970185807 116.9893568818739 l -13.384288235286055 18.421892345422762 a43.770711213125566,43.770711213125566 0 0,0 -0.605734596857284,-0.44810797368603494 l 13.699407802561904 -18.18877442299696" fill="#ff2503" stroke="none" /><path d="M 87.36589467227662 116.77436683061367 l -20.929727633637732 27.788507368312022 a55.788714270248484,55.788714270248484 0 0,0 -0.7621037808771306,-0.58434868140423 l 21.40496014300835 -27.424119345080424" fill="#f0ff19" stroke="none" /><path d="M 87.07902340077011 116.55440617244103 l -17.152408844163315 21.97573385118376 a48.87719511456265,48.87719511456265 0 0,0 -0.6587773263889861,-0.5233725504675835 l 17.52814366326966 -21.677227386711046" fill="#ff8d0d" stroke="none" /><path d="M 86.79598089348748 116.32954008644616 l -18.82697333562754 23.283502796428742 a50.94288609088535,50.94288609088535 0 0,0 -0.6771276783862566,-0.5572299806942381 l 19.224971142558484 -22.955977696877323" fill="#ffb510" stroke="none" /><path d="M 86.51685102203217 116.09983520530335 l -16.26813451254671 19.425305259008216 a46.33761403376343,46.33761403376343 0 0,0 -0.6070989216064665,-0.5173828717228667 l 16.60009891073023 -19.142397997062396" fill="#ff5a08" stroke="none" /><path d="M 86.24171649860922 115.8653595955263 l -13.984335919086426 16.12603185844463 a42.345035830314785,42.345035830314785 0 0,0 -0.5465688465833983,-0.4822834586397404 l 14.259847118576412 -15.882925258032602" fill="#ff0601" stroke="none" /><path d="M 85.70375840098266 115.38237550388516 l -28.876179027864495 31.070000170853053 a63.41672577965077,63.41672577965077 0 0,0 -0.7932048267894446,-0.7500246730784124 l 29.406719689044756 -30.568340861028712" fill="#71ff27" stroke="none" /><path d="M 85.44109423537348 115.13401014063109 l -19.33974033989972 20.103696744322107 a48.8959527387471,48.8959527387471 0 0,0 -0.601536748508868,-0.5887303151188144 l 19.68292704078438 -19.767816326280723" fill="#ff8d0d" stroke="none" /><path d="M 82.05923443525364 110.91462005526583 l -25.46511404311343 15.492206474775747 a50.80738993413976,50.80738993413976 0 0,0 -0.44811906055523026,-0.7510733212507725 l 25.728013979366896 -15.051571059638862" fill="#ffb210" stroke="none" /><line stroke="#e1ed5e" stroke-width="0.3" x1="26.63291911575756" x2="22.317208475507996" y1="142.92168965132927" y2="145.44649492493687" /><path d="M 25.769776987707644 143.4266507060508 a86.0,86.0 0 0,1 -11.730757126820373,-40.83630448921669" fill="none" id="id57" stroke="none" /><text fill="#e1ed5e" style="font-size:6.75px; font-family:Arial;" text-anchor="middle"><textPath startOffset="21.46611528233685" xlink:href="#id57">September</textPath></text><path d="M 81.87401531095188 110.60418214915194 l -18.17053717693802 10.63024653709483 a42.05161663003351,42.05161663003351 0 0,0 -0.3601380623560488,-0.6279310678453948 l 18.350827235446445 -10.315895623391128" fill="#ff0000" stroke="none" /><path d="M 81.69416730710424 110.29060199501025 l -29.77309018596552 16.736907105253938 a55.15495511154327,55.15495511154327 0 0,0 -0.4581107289093242,-0.831604040226634 l 30.056777324326358 -16.22193254662948" fill="#fbff18" stroke="none" /><path d="M 81.35079622478065 109.6543875284942 l -37.19987042621661 19.257764000717586 a62.889041932641994,62.889041932641994 0 0,0 -0.4894005184999813,-0.9656336524396975 l 37.52584961450286 -18.614576136575202" fill="#7aff26" stroke="none" /><path d="M 81.18737489456691 109.33194174019688 l -30.818889761940966 15.287610428856329 a55.4022528155228,55.4022528155228 0 0,0 -0.41643167538753767,-0.8579725942862577 l 31.077474693943223 -14.754848878604786" fill="#f7ff19" stroke="none" /><path d="M 81.02952815118164 109.00673069616217 l -22.986958635862102 10.913663487496498 a46.44618474438063,46.44618474438063 0 0,0 -0.33668039376388276,-0.7251796156734613 l 23.171413646465812 -10.51636380454421" fill="#ff5c08" stroke="none" /><path d="M 80.87730276802145 108.67885076344099 l -23.806473652588934 10.804586274006077 a47.14358950725496,47.14358950725496 0 0,0 -0.3290149209551001,-0.741841789351328 l 23.988929658275314 -10.393196148162053" fill="#ff6a09" stroke="none" /><path d="M 80.73074385275274 108.34839909993369 l -20.556505668715808 8.906099545882315 a43.40286888836138,43.40286888836138 0 0,0 -0.29110721411260304,-0.6880914624812967 l 20.70676386402072 -8.55093355773486" fill="#ff1d02" stroke="none" /><path d="M 80.45479744820244 107.68017299344265 l -40.5638550598494 15.939329526770521 a64.58312245674291,64.58312245674291 0 0,0 -0.39766510358903634,-1.0381781010345075 l 40.832214443031944 -15.238727858902855" fill="#5fff29" stroke="none" /><path d="M 80.32549172779594 107.34259656027581 l -27.514519277415637 10.26851659054766 a50.368200558386775,50.368200558386775 0 0,0 -0.29615479932304173,-0.814890814311887 l 27.687198337743904 -9.793377979229657" fill="#ffaa0f" stroke="none" /><path d="M 80.20201598880116 107.00284435728193 l -40.60709910368025 14.36334096759259 a64.07252095440239,64.07252095440239 0 0,0 -0.35883409280094514,-1.042939840195131 l 40.848324027424425 -13.662228424308163" fill="#67ff28" stroke="none" /><path d="M 80.0844068197444 106.66101706037122 l -32.40955010264022 10.839775857977822 a55.17425461523258,55.17425461523258 0 0,0 -0.2934948469011404,-0.9032842585534151 l 32.591337200557604 -10.280292699446603" fill="#fbff18" stroke="none" /><path d="M 79.97269907076064 106.31721596034903 l -32.75930866340469 10.333275975112652 a55.35038422611983,55.35038422611983 0 0,0 -0.27878994202964125,-0.9111016612309628 l 32.932325377940465 -9.767847341329642" fill="#f8ff18" stroke="none" /><path d="M 79.86692584326677 105.97154293290107 l -28.489109490806136 8.449973368203821 a50.71584441846629,50.71584441846629 0 0,0 -0.2410387952143675,-0.8390876674603844 l 28.63034092290661 -7.958328225238842" fill="#ffb110" stroke="none" /><path d="M 79.76711848015287 105.62410040840567 l -34.34477324480505 9.546759468898811 a56.646936272197166,56.646936272197166 0 0,0 -0.2530551457637954,-0.9417123362119747 l 34.50401646691062 -8.954156199511297" fill="#e1ff1b" stroke="none" /><path d="M 79.67330655649465 105.27499134158121 l -25.192292887576414 6.537665716555753 a47.02676879589285,47.02676879589285 0 0,0 -0.19659134407340886,-0.7852846961816694 l 25.301095545944882 -6.103053180976692" fill="#ff6809" stroke="none" /><path d="M 79.58551787078972 104.9243191809786 l -33.34275456508002 8.042837668487893 a55.299074619423955,55.299074619423955 0 0,0 -0.21524357447408166,-0.9272636853866256 l 33.47625870548466 -7.467705325752693" fill="#f9ff18" stroke="none" /><path d="M 79.50377843672027 104.57218783832718 l -33.59436304993791 7.494051413283783 a55.42008186097143,55.42008186097143 0 0,0 -0.1996863699038375,-0.9328682411751587 l 33.718383458566194 -6.91466935269246" fill="#f7ff19" stroke="none" /><path d="M 79.4281124754447 104.21870165774334 l -33.83899973643955 6.939404277516824 a55.543208230990565,55.543208230990565 0 0,0 -0.1840068913988823,-0.9382471749785756 l 33.9534365608141 -6.355893375470294" fill="#f4ff19" stroke="none" /><path d="M 79.35854240842038 103.8639653848113 l -25.78080287461415 4.8260220703013506 a47.22861578281913,47.22861578281913 0 0,0 -0.14270589022930552,-0.800370418377654 l 25.860055207182643 -4.381532901190482" fill="#ff6c0a" stroke="none" /><path d="M 79.1416061653843 102.43462659150553 l -34.367742758254685 4.011460377663838 a55.60106294117472,55.60106294117472 0 0,0 -0.10277644273674083,-0.9515822156273299 l 34.43170150249248 -3.4192818401517258" fill="#f3ff19" stroke="none" /><path d="M 79.10278846688536 102.07522291339032 l -29.99689631659559 2.978878137312636 a51.144443991978775,51.144443991978775 0 0,0 -0.07945753016299124,-0.8768072242594203 l 30.043728443035654 -2.4620895245046492" fill="#ffb911" stroke="none" /><path d="M 79.04373962182676 101.35467743843564 l -30.752562432375196 1.9879406797508814 a51.816748762699525,51.816748762699525 0 0,0 -0.04987645607800656,-0.8905776283809037 l 30.782225239340736 -1.4582913350345401" fill="#ffc512" stroke="none" /><path d="M 79.0235259727143 100.99374915477108 l -26.189390198529818 1.240708249627911 a47.21876266972842,47.21876266972842 0 0,0 -0.03147437937054926,-0.8122138782929533 l 26.20686671075157 -0.7897171243209609" fill="#ff6c09" stroke="none" /><line stroke="#e1ed5e" stroke-width="0.3" x1="15.007084014347285" x2="10.007500721073583" y1="101.09737516637583" y2="101.16192664675087" /><path d="M 14.007167355692545 101.11028546245083 a86.0,86.0 0 0,1 10.666146001902534,-42.60595125391555" fill="none" id="id58" stroke="none" /><text fill="#e1ed5e" style="font-size:6.75px; font-family:Arial;" text-anchor="middle"><textPath startOffset="22.20632615414155" xlink:href="#id58">October</textPath></text><path d="M 79.00175016825051 100.2711162175752 l -22.64603939845522 0.2923914418564996 a43.64792690715106,43.64792690715106 0 0,0 -0.0032334856284299647,-0.7513481844282797 l 22.647717181373153 0.09746622077545547" fill="#ff2203" stroke="none" /><path d="M 79.00019446554 99.90962569577889 l -43.92901378878901 -0.18905194382714996 a64.92942058681265,64.92942058681265 0 0,0 0.01442976874902419,-1.117601491774987 l 43.91925101292227 0.945189693662609" fill="#5aff2a" stroke="none" /><path d="M 79.00486145842228 99.54816195383935 l -21.436791132290928 -0.4613428866871568 a42.441754856087776,42.441754856087776 0 0,0 0.02200565689103303,-0.7302606202464154 l 21.425673780944248 0.8302736543585666" fill="#ff0801" stroke="none" /><path d="M 79.01574976396665 99.18683210126434 l -26.89466673487285 -1.042204481456198 a47.914852571787264,47.914852571787264 0 0,0 0.03903096378700668,-0.8238819567365872 l 26.872742162852344 1.5049975448157942" fill="#ff7a0b" stroke="none" /><path d="M 79.03285615573316 98.82574320788736 l -26.22053366479874 -1.4684708598079819 a47.26162204306789,47.26162204306789 0 0,0 0.05248157591510198,-0.811866750511276 l 26.191371497879224 1.9195966745722695" fill="#ff6d0a" stroke="none" /><path d="M 79.21141760316559 97.0276538004421 l -43.47713033484597 -6.2163489867467545 a64.91928798236842,64.91928798236842 0 0,0 0.16768994167429616,-1.1048671975129458 l 43.363684499732365 6.963815296651792" fill="#5aff2a" stroke="none" /><path d="M 79.26566170972629 96.67025291283419 l -26.772745887778907 -4.299460700758415 a48.115775568641745,48.115775568641745 0 0,0 0.13836295800480988,-0.8166260104223806 l 26.694771068253875 4.759672499496624" fill="#ff7e0b" stroke="none" /><path d="M 79.32604984820605 96.31383870115002 l -28.94417086474217 -5.160740046558339 a50.400650755987364,50.400650755987364 0 0,0 0.15963632378601833,-0.852783624940708 l 28.85104881704629 5.65820174896162" fill="#ffaa0f" stroke="none" /><path d="M 79.3925641242962 95.95851677861259 l -21.0059003236172 -4.119629158139301 a42.40605505006312,42.40605505006312 0 0,0 0.14664559881919445,-0.7150960199667731 l 20.93187542888301 4.4806008342694765" fill="#ff0801" stroke="none" /><path d="M 79.46518482838121 95.60439243477599 l -21.272727225894528 -4.553562325524326 a42.754628323180995,42.754628323180995 0 0,0 0.1602394871750479,-0.7183222011998036 l 21.19119335171744 4.919062696274089" fill="#ff0f01" stroke="none" /><path d="M 79.54389044137918 95.25157060432595 l -42.696099780328005 -9.910946883450826 a64.83131077869231,64.83131077869231 0 0,0 0.2616937461966954,-1.0848895265958005 l 42.5191732338705 10.644421641706023" fill="#5cff2a" stroke="none" /><path d="M 79.62865764111835 94.90015583598534 l -41.28524121903797 -10.335514114957258 a63.55929974206146,63.55929974206146 0 0,0 0.2748294076349433,-1.0590298175884991 l 41.101215479532726 11.044640358094622" fill="#6fff27" stroke="none" /><path d="M 79.71946130924805 94.55025226153421 l -22.01991743809469 -5.917150283300018 a43.80108399738188,43.80108399738188 0 0,0 0.2019297330705065,-0.7264486882993119 l 21.914800934457823 6.295310275018272" fill="#ff2503" stroke="none" /><path d="M 79.81627453868168 94.20196356495316 l -25.316270139377163 -7.272426339176431 a47.340116146833275,47.340116146833275 0 0,0 0.23172784618768202,-0.7812710992618128 l 25.187336396077775 7.707126825184783" fill="#ff6e0a" stroke="none" /><path d="M 79.91906864156998 93.8553929516997 l -21.513319498410066 -6.582906552627245 a43.49794600672011,43.49794600672011 0 0,0 0.2252458616941699,-0.7140909355528365 l 21.396818152947695 6.952247654606496" fill="#ff1f03" stroke="none" /><path d="M 80.02781315780177 93.51064311812611 l -40.92078474289936 -13.295968948274998 a64.0266593433443,64.0266593433443 0 0,0 0.3495938110028901,-1.0452409977584876 l 40.6858536381247 13.998383048955807" fill="#68ff28" stroke="none" /><path d="M 80.14247586403 93.16781622104843 l -25.647861091369975 -8.824408285413945 a48.123476181158864,48.123476181158864 0 0,0 0.2762446092552958,-0.7809807098638756 l 25.49216340130487 9.264586621704431" fill="#ff7e0b" stroke="none" /><path d="M 80.2630227832202 92.82701384747504 l -21.57954504700892 -7.842628387308759 a43.96047875061207,43.96047875061207 0 0,0 0.2645906095880509,-0.7089712875212186 l 21.44134984891924 8.212922811859318" fill="#ff2904" stroke="none" /><path d="M 80.38941819471856 92.48833698450439 l -20.912930011211472 -8.010516183082265 a43.394620139070284,43.394620139070284 0 0,0 0.27319279441995037,-0.6952458632362163 l 20.77194366690983 8.369311051214245" fill="#ff1d02" stroke="none" /><path d="M 80.52162464483688 92.15188598940014 l -22.129439759365685 -8.916265502408418 a44.85816201162263,44.85816201162263 0 0,0 0.29473588208329754,-0.7137263167051603 l 21.97268219039619 9.29586638956689" fill="#ff3c05" stroke="none" /><path d="M 80.803312248108 91.48605970444005 l -20.692746946777444 -9.177458858163156 a43.63659707855058,43.63659707855058 0 0,0 0.31043840472091594,-0.6840098746326303 l 20.531706225093174 9.532290741637857" fill="#ff2203" stroke="none" /><path d="M 81.43458229118936 90.18545643968196 l -23.21486615208086 -12.27245832386644 a47.25915542758503,47.25915542758503 0 0,0 0.38638162974722606,-0.7159064787219611 l 23.00017642311516 12.670245785920873" fill="#ff6d0a" stroke="none" /><path d="M 81.6062741919709 89.86733742301443 l -20.310716652923567 -11.188686875554112 a44.18861627942779,44.18861627942779 0 0,0 0.3727464626553112,-0.6630743648958058 l 20.115112548975826 11.536644750384703" fill="#ff2e04" stroke="none" /><line stroke="#e1ed5e" stroke-width="0.3" x1="26.266209847984243" x2="21.928928074336255" y1="57.711370442889674" y2="55.22380399835377" /><path d="M 25.398753493254645 57.213857153982495 a86.0,86.0 0 0,1 29.58750427330803,-30.492523968695096" fill="none" id="id59" stroke="none" /><text fill="#e1ed5e" style="font-size:6.75px; font-family:Arial;" text-anchor="middle"><textPath startOffset="21.46611528233685" xlink:href="#id59">November</textPath></text><path d="M 81.78341655067845 89.55222093294921 l -30.14778711293956 -17.290696688143484 a55.75424088896923,55.75424088896923 0 0,0 0.48463796578725526,-0.8284033812351834 l 29.84568947268198 17.80707948173256" fill="#f1ff19" stroke="none" /><path d="M 81.96595687620814 89.24020034530311 l -19.296270489576077 -11.512892762065393 a43.46981874777147,43.46981874777147 0 0,0 0.38891867590799445,-0.6392800439123393 l 19.095236015381865 11.843340579184806" fill="#ff1e03" stroke="none" /><path d="M 82.15384107792192 88.93136811851018 l -18.402830311037874 -11.413893330200269 a42.65504847397125,42.65504847397125 0 0,0 0.3923703926648575,-0.6206357332421941 l 18.203632322127053 11.728976711156678" fill="#ff0d01" stroke="none" /><path d="M 82.34701348167596 88.62581576622439 l -19.535875430947947 -12.587368493656346 a44.23988542245009,44.23988542245009 0 0,0 0.4179686723425806,-0.6365949631601026 l 19.316310123247444 12.921781520794116" fill="#ff2f04" stroke="none" /><path d="M 82.7489923806493 88.02491185347247 l -35.8372746761819 -24.877069945595988 a64.62543828197241,64.62543828197241 0 0,0 0.6422149242424275,-0.9083674659658074 l 35.4037471321356 25.49026391189358" fill="#5fff29" stroke="none" /><path d="M 82.95767976084542 87.72973835380427 l -28.17153531579084 -20.283160065588856 a55.713714642704964,55.713714642704964 0 0,0 0.5670525626139375,-0.7734590581389302 l 27.818220140663268 20.76508156739929" fill="#f1ff19" stroke="none" /><path d="M 83.17141714833178 87.43820079747576 l -27.548963884760735 -20.56409357866108 a55.37771597758904,55.37771597758904 0 0,0 0.5767828028445003,-0.7589785588231736 l 27.190905141692124 21.035256913365277" fill="#f7ff18" stroke="none" /><path d="M 83.39014120810768 87.1503855733568 l -22.086057946231385 -17.086077152690848 a48.923609868209994,48.923609868209994 0 0,0 0.5210269385541759,-0.6616513008497796 l 21.788676927083237 17.463720847493672" fill="#ff8e0d" stroke="none" /><path d="M 83.6137871275137 86.86637796730984 l -19.980073921882397 -16.01411754608781 a46.6057672156841,46.6057672156841 0 0,0 0.5071184803200212,-0.6216672945082747 l 19.701456949485983 16.355669010204167" fill="#ff5f08" stroke="none" /><path d="M 83.84228863543731 86.58626213691792 l -23.134997856137154 -19.206110921488705 a51.06830262139847,51.06830262139847 0 0,0 0.5673187137523779,-0.6715264155491023 l 22.800968528897652 19.601496286666922" fill="#ffb711" stroke="none" /><path d="M 84.31358615837235 86.03803664274999 l -19.701906384900788 -17.536021795113648 a47.37569289323212,47.37569289323212 0 0,0 0.5474291981316198,-0.6044849934245262 l 19.397133546153125 17.87255957580773" fill="#ff6f0a" stroke="none" /><path d="M 84.5562425177563 85.77008943001954 l -26.39011492679943 -24.31590730245686 a56.88455815237742,56.88455815237742 0 0,0 0.6697010309780764,-0.7143903662933793 l 25.9676465738509 24.76656708562829" fill="#ddff1b" stroke="none" /><path d="M 84.80347519578584 85.50635884689758 l -32.885512779586314 -31.364461776873664 a66.44432212421376,66.44432212421376 0 0,0 0.7964957310802919,-0.8208588648296244 l 32.3407527848029 31.925884837253413" fill="#44ff2d" stroke="none" /><path d="M 85.05521093208273 85.24692304244772 l -19.527380153005303 -19.276882454976988 a48.43932894265064,48.43932894265064 0 0,0 0.5908772351917337,-0.5883398205636534 l 19.19266711764626 19.61015812619075" fill="#ff840c" stroke="none" /><path d="M 85.31137513191541 84.99185889309783 l -15.73708353407426 -16.079406507526393 a43.49895801571071,43.49895801571071 0 0,0 0.5396289261186737,-0.5191225993787207 l 15.45797136434316 16.347912193667426" fill="#ff1f03" stroke="none" /><path d="M 85.57189188830299 84.74124197986013 l -18.815924801572105 -19.899188531833623 a48.3864333268112,48.3864333268112 0 0,0 0.610111717915497,-0.5670323494253845 l 18.47060519986175 20.220125467333656" fill="#ff830c" stroke="none" /><path d="M 85.83668400450813 84.49514656593479 l -18.013067869537167 -19.719250583969185 a47.7080410675497,47.7080410675497 0 0,0 0.6110923262138587,-0.5486447241661527 l 17.670964555727338 20.026394316904614" fill="#ff760a" stroke="none" /><path d="M 86.10567301691215 84.25364557470407 l -32.23040490907124 -36.52651759144405 a69.71329888193526,69.71329888193526 0 0,0 0.9066254400689272,-0.7862166475923291 l 31.596885670355537 37.07589923245606" fill="#33ff50" stroke="none" /><path d="M 86.37877921826538 84.01681056812374 l -19.417653075898208 -22.784743923298553 a50.936429423467146,50.936429423467146 0 0,0 0.6722213099489585,-0.5629660150323088 l 19.02257422899014 23.115611095724674" fill="#ffb510" stroke="none" /><path d="M 86.65592168130627 83.78471172551755 l -25.74898218192454 -31.28932241573435 a61.521991321267066,61.521991321267066 0 0,0 0.8235058416167843,-0.665884452928231 l 25.206572941743254 31.727912965926713" fill="#8fff24" stroke="none" /><path d="M 86.93701828274178 83.55741782278169 l -15.889294637648979 -20.00010705614103 a46.54356996073812,46.54356996073812 0 0,0 0.6315905812128596,-0.49296646676043054 l 15.542671501276693 20.270651912124684" fill="#ff5e08" stroke="none" /><path d="M 87.22198572758235 83.33499621200491 l -30.312775138880966 -39.533725799988154 a70.81746493197952,70.81746493197952 0 0,0 0.9737531133423536,-0.7334106569503079 l 29.62777587178022 40.04965304644431" fill="#35ff63" stroke="none" /><path d="M 87.51073957382395 83.11751280151077 l -27.90856481745227 -37.72569168878372 a67.92670671981041,67.92670671981041 0 0,0 0.9459754059462668,-0.6872913628671002 l 27.25504409515222 38.20050228646749" fill="#2fff31" stroke="none" /><path d="M 87.80319425747018 82.90503203632743 l -15.268867534934556 -21.400750890136436 a47.28936009987793,47.28936009987793 0 0,0 0.6667098549804183,-0.4670728600337486 l 14.898226540370477 21.660408592934125" fill="#ff6d0a" stroke="none" /><path d="M 88.09926311788651 82.69761687909137 l -14.975078642469583 -21.772143229817367 a47.42497305898023,47.42497305898023 0 0,0 0.676585680779372,-0.45683367187563906 l 14.598088267283671 22.02668881399167" fill="#ff700a" stroke="none" /><path d="M 88.39885842347998 82.49532879139004 l -19.44365381010549 -29.33804098458633 a56.19625437884686,56.19625437884686 0 0,0 0.8109199097240353,-0.5274448664892932 l 18.93576687459717 29.668384775235154" fill="#e9ff1a" stroke="none" /><line stroke="#e1ed5e" stroke-width="0.3" x1="56.762969772571076" x2="54.21961505331055" y1="26.818313649435495" y2="22.513508569990535" /><path d="M 56.25429882871897 25.957352633546506 a86.0,86.0 0 0,1 42.265352541879196,-11.944610805530505" fill="none" id="id60" stroke="none" /><text fill="#e1ed5e" style="font-size:6.75px; font-family:Arial;" text-anchor="middle"><textPath startOffset="22.20632615414155" xlink:href="#id60">December</textPath></text><path d="M 89.63071344664047 81.73862282372117 l -15.199645366434218 -26.768134485800843 a51.78249897450312,51.78249897450312 0 0,0 0.7788973349379542,-0.43345552359872286 l 14.736623942424218 27.02580540695975" fill="#ffc512" stroke="none" /></svg>