<?xml version="1.0" encoding="utf-8" ?>
<svg baseProfile="full" height="200mm" version="1.1" viewBox="0,0,200,200" width="200mm" xmlns="http://www.w3.org/2000/svg" xmlns:ev="http://www.w3.org/2001/xml-events" xmlns:xlink="http://www.w3.org/1999/xlink"><defs /><rect fill="#1a1a1a" height="200" width="200" x="0" y="0" /><text alignment-baseline="middle" fill="#e1ed5e" style="dominant-baseline: central; font-size:9.0px; font-family:Arial;" text-anchor="middle" x="100.0" y="100.0">2023</text><line stroke="#e1ed5e" stroke-width="0.3" x1="100.0" x2="100.0" y1="15.0" y2="10.0" /><path d="M 100.0 14.0 a86.0,86.0 0 0,1 42.46469731375804,11.215312516191453" fill="none" id="id61" stroke="none" /><text fill="#e1ed5e" style="font-size:6.75px; font-family:Arial;" text-anchor="middle"><textPath startOffset="22.20632615414155" xlink:href="#id61">January</textPath></text><path d="M 109.41281617654863 81.2277094730956 l 18.07941639868933 -36.056377902996495 a61.33519164204988,61.33519164204988 0 0,0 0.9397121263125411,0.4813570497142887 l -18.697389012590627 35.739828327969704" fill="#4bff2c" stroke="none" /><path d="M 109.73455568895987 81.39251694778311 l 13.257062946222133 -25.340712198479252 a49.59897572792164,49.59897572792164 0 0,0 0.7530894808557086,0.4022743195327715 l -13.691297473606152 25.10875915244473" fill="#e2ff1b" stroke="none" /><path d="M 110.36928655335952 81.73862282372117 l 15.883842128649059 -27.973075160677467 a53.16814223284828,53.16814223284828 0 0,0 0.7919604104372914,0.4587545872326971 l -16.36299927155168 27.69551641605472" fill="#b1ff20" stroke="none" /><line stroke="#e1ed5e" stroke-width="0.3" x1="143.23703022742887" x2="145.7803849466894" y1="26.81831364943548" y2="22.513508569990506" /><path d="M 143.74570117128098 25.957352633546492 a86.0,86.0 0 0,1 28.547481713284135,27.462654790039103" fill="none" id="id62" stroke="none" /><text fill="#e1ed5e" style="font-size:6.75px; font-family:Arial;" text-anchor="middle"><textPath startOffset="19.985693538727396" xlink:href="#id62">February</textPath></text><path d="M 110.68208982089419 81.91981866633111 l 17.890220215517004 -30.280444278153393 a56.17051727003807,56.17051727003807 0 0,0 0.8282153765229093,0.4989904973899546 l -18.40879765825755 29.968007171304826" fill="#8aff24" stroke="none" /><path d="M 111.2981086023043 82.29822771554956 l 19.023158575491905 -29.805309285632834 a56.358690923173924,56.358690923173924 0 0,0 0.8132638920644708,0.5289694578056297 l -19.533389493340657 29.473440903667676" fill="#88ff25" stroke="none" /><path d="M 111.60114157652 82.49532879139004 l 17.257830535061395 -26.039907133068336 a52.23954990513981,52.23954990513981 0 0,0 0.7452725675188128,0.5032113644137581 l -17.70350779698675 25.738983856355908" fill="#beff1f" stroke="none" /><path d="M 111.90073688211348 82.69761687909136 l 21.56192917106209 -31.3487108436396 a59.048107195181544,59.048107195181544 0 0,0 0.8324907527152295,0.5832129732562175 l -22.098351063360973 30.972913027619448" fill="#66ff29" stroke="none" /><path d="M 112.19680574252982 82.90503203632743 l 21.98292668186117 -30.811134923940593 a58.849373849528284,58.849373849528284 0 0,0 0.8195607148543531,0.5954457136241588 l -22.51003271306931 30.42816997549976" fill="#69ff28" stroke="none" /><path d="M 113.6212207817346 84.01681056812373 l 20.726196093616934 -24.320193004338588 a52.953825941181776,52.953825941181776 0 0,0 0.6886675357103139,0.5972057007253985 l -21.141757427974014 23.959822310193516" fill="#b4ff20" stroke="none" /><path d="M 114.42810811169701 84.74124197986012 l 23.355418198168714 -24.70002802766021 a54.993630929610184,54.993630929610184 0 0,0 0.6822267786551351,0.6563016205386717 l -23.777128220436268 24.294343320359236" fill="#99ff23" stroke="none" /><path d="M 114.94478906791727 85.2469230424477 l 22.738407871474127 -22.446719033340045 a52.951375367755716,52.951375367755716 0 0,0 0.6347501650540495,0.6541658412029316 l -23.121422300231284 22.051988996587" fill="#b4ff20" stroke="none" /><path d="M 115.19652480421416 85.50635884689758 l 26.69954645784678 -25.464614462597783 a57.895966863377666,57.895966863377666 0 0,0 0.681608330225819,0.727092242918448 l -27.13392211004306 25.001252802801282" fill="#75ff27" stroke="none" /><path d="M 115.4437574822437 85.77008943001954 l 27.305845568191565 -25.15966343811123 a58.129743690375214,58.129743690375214 0 0,0 0.6716929512299725,0.7417001332653123 l -27.73488216003757 24.685910517576367" fill="#72ff27" stroke="none" /><path d="M 115.68641384162765 86.03803664274999 l 22.958462988844854 -20.434576202394265 a51.735369322355915,51.735369322355915 0 0,0 0.5863542304536045,0.6703042469861089 l -23.306809082876306 20.036356399205207" fill="#c4ff1e" stroke="none" /><path d="M 116.38621287248628 86.86637796730983 l 24.350111103689244 -19.516721659758502 a52.206254743344275,52.206254743344275 0 0,0 0.5559864686105217,0.7060463538254782 l -24.682451652893732 19.094682911979987" fill="#beff1f" stroke="none" /><path d="M 116.60985879189232 87.15038557335679 l 24.755983089672352 -19.15156783934033 a52.299221227388365,52.299221227388365 0 0,0 0.5447189519034097,0.7167862894670566 l -25.081977981799877 18.72259677399224" fill="#bdff1f" stroke="none" /><path d="M 116.82858285166822 87.43820079747576 l 28.680661718737998 -21.40885638927084 a56.78993557581665,56.78993557581665 0 0,0 0.5780063078806913,0.788399954372709 l -29.044930639132318 20.911993991226637" fill="#82ff25" stroke="none" /><path d="M 117.04232023915458 87.72973835380427 l 28.661942544467358 -20.63624725821312 a56.31800746537744,56.31800746537744 0 0,0 0.5596598778959516,0.7915992075188408 l -29.012915042167194 20.139821550362488" fill="#88ff25" stroke="none" /><path d="M 117.2510076193507 88.02491185347247 l 47.813151897596775 -33.19033422110227 a79.20391550481062,79.20391550481062 0 0,0 0.7678085438104912,1.1266642954438444 l -48.377384907076 32.36239190238802" fill="#46fff7" stroke="none" /><path d="M 117.65298651832404 88.62581576622439 l 26.07334342097024 -16.799594298266772 a52.016860023771095,52.016860023771095 0 0,0 0.4784867565014056,0.7568511399421014 l -26.3586577737176 16.348295510610463" fill="#c1ff1e" stroke="none" /><line stroke="#e1ed5e" stroke-width="0.3" x1="172.23445277983987" x2="176.4835382374775" y1="55.19839476539836" y2="52.563006222186495" /><path d="M 173.08426987136738 54.67131705675599 a86.0,86.0 0 0,1 12.851231095245387,41.99856678651699" fill="none" id="id63" stroke="none" /><text fill="#e1ed5e" style="font-size:6.75px; font-family:Arial;" text-anchor="middle"><textPath startOffset="22.20632615414155" xlink:href="#id63">March</textPath></text><path d="M 117.84615892207809 88.93136811851018 l 25.715796338894542 -15.949576850537351 a51.26038967123026,51.26038967123026 0 0,0 0.45861987585315184,0.7538504899256554 l -25.986532013033916 15.504558587404615" fill="#cbff1d" stroke="none" /><path d="M 118.03404312379186 89.2402003453031 l 30.679629587663207 -18.304640039818132 a56.7253344088412,56.7253344088412 0 0,0 0.4930790956556865,0.8428320084127825 l -30.990168357789223 17.773828619051454" fill="#83ff25" stroke="none" /><path d="M 118.3937258080291 89.86733742301442 l 51.2677965582495 -28.24220003124793 a79.53211790583936,79.53211790583936 0 0,0 0.6502390712587965,1.2047942448425033 l -51.746343728726764 27.355524803072967" fill="#46fffb" stroke="none" /><path d="M 118.56541770881063 90.18545643968196 l 31.510487125512604 -16.65790952569937 a56.64262544557403,56.64262544557403 0 0,0 0.4482604776237698,0.8658965643247407 l -31.792557036296493 16.113040239114284" fill="#84ff25" stroke="none" /><path d="M 119.04729006885535 91.15688171328212 l 32.55253281873948 -15.113220684294348 a56.88978729899765,56.88978729899765 0 0,0 0.40472392432944093,0.89175551907078 l -32.807859060032264 14.550643156381506" fill="#81ff25" stroke="none" /><path d="M 119.196687751892 91.48605970444005 l 32.1746999406145 -14.269830184373829 a56.19715002325395,56.19715002325395 0 0,0 0.38457393041458104,0.8876496540242071 l -32.41556458087177 13.713881385763019" fill="#8aff24" stroke="none" /><path d="M 119.34039704204932 91.81776055985345 l 26.02698941096662 -11.011100692694066 a49.2603700659283,49.2603700659283 0 0,0 0.3236601316694497,0.7837686813289306 l -26.212671229522268 10.561457440911834" fill="#e6ff1a" stroke="none" /><path d="M 119.47837535516314 92.15188598940014 l 56.152033359467445 -22.624451562141893 a81.5385551437301,81.5385551437301 0 0,0 0.5133296630156081,1.306368000831807 l -56.53315657236475 21.6545345564143" fill="#49edff" stroke="none" /><path d="M 119.7369772167798 92.82701384747503 l 34.49224589374731 -12.535475896227553 a57.69949839901943,57.69949839901943 0 0,0 0.3312141319438628,0.9363869527799799 l -34.70291310650098 11.939891317020958" fill="#77ff27" stroke="none" /><path d="M 119.85752413597 93.16781622104841 l 34.5457304310433 -11.885811013845153 a57.533272430363446,57.533272430363446 0 0,0 0.31413908166816595,0.9392358698107942 l -34.74520680648324 11.289402041112044" fill="#79ff26" stroke="none" /><path d="M 119.97218684219823 93.5106431181261 l 33.787720352084165 -10.978295833201576 a56.52651159334299,56.52651159334299 0 0,0 0.2927118170232842,0.9279764506809564 l -33.97168765287566 10.3950692160942" fill="#86ff25" stroke="none" /><path d="M 120.08093135843002 93.85539295169968 l 30.350737128329225 -9.287086836316062 a52.73983658020654,52.73983658020654 0 0,0 0.2581592470351314,0.8703846431661894 l -30.50610227247606 8.763272806403343" fill="#b7ff1f" stroke="none" /><path d="M 120.18372546131832 94.20196356495316 l 34.41596606302532 -9.886431796903915 a56.80782391777171,56.80782391777171 0 0,0 0.2618928043131847,0.9421677594250666 l -34.58104563790487 9.292552734059898" fill="#82ff25" stroke="none" /><path d="M 120.37134235888165 94.90015583598534 l 34.685312519617696 -8.683261294907982 a56.755697885780314,56.755697885780314 0 0,0 0.22909626566764418,0.9497519249781059 l -34.829641585546156 8.08492413827047" fill="#83ff25" stroke="none" /><path d="M 120.53481517161879 95.60439243477599 l 29.712951140423055 -6.360245842314015 a51.38605260062321,51.38605260062321 0 0,0 0.17769958666696484,0.8665262933118143 l -29.818030023005015 5.847843892838789" fill="#c9ff1d" stroke="none" /><path d="M 120.6074358757038 95.95851677861258 l 34.15689383519256 -6.698771946314642 a55.80757018318498,55.80757018318498 0 0,0 0.17676191100401287,0.9442691966491544 l -34.26714147010644 6.109824672202924" fill="#8fff24" stroke="none" /><path d="M 120.83666639777658 97.38593545837742 l 35.500980283481105 -4.453776433345058 a56.7792639053172,56.7792639053172 0 0,0 0.11331423366609093,0.9708071542147532 l -35.57238487015079 3.842025540805452" fill="#83ff25" stroke="none" /><path d="M 120.98425023603335 99.18683210126433 l 39.445581288361836 -1.5285692883887132 a60.475187235099554,60.475187235099554 0 0,0 0.03135582459370654,1.0405471661001953 l -39.46604880741119 0.849351974863519" fill="#55ff2b" stroke="none" /><line stroke="#e1ed5e" stroke-width="0.3" x1="184.98032266829074" x2="189.97916517819016" y1="98.17113171792111" y2="98.06355123074" /><path d="M 185.9800911702706 98.14961562048488 a86.0,86.0 0 0,1 -9.607161424134198,41.387399972396054" fill="none" id="id64" stroke="none" /><text fill="#e1ed5e" style="font-size:6.75px; font-family:Arial;" text-anchor="middle"><textPath startOffset="21.466115282336823" xlink:href="#id64">April</textPath></text><path d="M 120.99513854157772 99.54816195383933 l 57.55627519032728 -1.2386731754487819 a78.56960243931044,78.56960243931044 0 0,0 0.017461132159437176,1.352383928591188 l -57.569069329604424 0.24775298879713112" fill="#45fff0" stroke="none" /><path d="M 120.99980553446 99.90962569577887 l 36.1492133278075 -0.15557096456349703 a57.14954808215935,57.14954808215935 0 0,0 -0.004233700326433008,0.9837628550782568 l -36.14653533019156 -0.4667013687184445" fill="#7eff26" stroke="none" /><path d="M 120.99824983174949 100.27111621757518 l 35.37001867849402 0.45667547326624025 a56.37296670912547,56.37296670912547 0 0,0 -0.020879304824939975,0.9701792515620362 l -35.35691731098407 -1.0654445406183912" fill="#88ff25" stroke="none" /><path d="M 120.9904718944345 100.63252640178507 l 35.14750100323706 1.0591339943724323 a56.16345534202499,56.16345534202499 0 0,0 -0.03743659935690705,0.9660722836120089 l -35.124062271028954 -1.6639835249984474" fill="#8aff24" stroke="none" /><path d="M 120.9764740272857 100.99374915477107 l 58.11655364616516 2.753240415379617 a79.181733735705,79.181733735705 0 0,0 -0.07621675151669641,1.3609012978482624 l -58.06055054376094 -3.7532134295633024" fill="#46fff7" stroke="none" /><path d="M 120.95626037817324 101.35467743843564 l 29.68572505238052 1.918977014331652 a50.747684694225626,50.747684694225626 0 0,0 -0.06385373663993141,0.8712335044219058 l -29.64829475707625 -2.429683655250328" fill="#d2ff1c" stroke="none" /><path d="M 120.89721153311464 102.0752229133903 l 36.9532031542369 3.6696826170955337 a58.13496726629118,58.13496726629118 0 0,0 -0.10746026817090995,0.9949486220291572 l -36.88456058456494 -4.305227561009482" fill="#72ff27" stroke="none" /><path d="M 120.8583938346157 102.4346265915055 l 59.18719790391538 6.908428665990159 a80.58901561823555,80.58901561823555 0 0,0 -0.1726849559096564,1.3764690048436634 l -59.05951143875888 -7.926215425121217" fill="#48f7ff" stroke="none" /><path d="M 120.76222939487914 103.15116336523771 l 32.97925448685786 5.005388225672409 a54.356935377798635,54.356935377798635 0 0,0 -0.1483640082929635,0.923862821264789 l -32.88820872420361 -5.572330276630403" fill="#a2ff22" stroke="none" /><path d="M 120.70491114924044 103.5080841355445 l 29.685367424363196 5.0296649798972135 a51.10844680367036,51.10844680367036 0 0,0 -0.15442917981958112,0.8661208522178601 l -29.594391802204427 -5.539904582848292" fill="#cdff1d" stroke="none" /><path d="M 120.5718875245553 104.21870165774334 l 34.2402965634247 7.021698699320778 a55.952856269199465,55.952856269199465 0 0,0 -0.20160603122485946,0.9418362597788277 l -34.1143564934754 -7.610048778515775" fill="#8dff24" stroke="none" /><path d="M 120.49622156327973 104.57218783832717 l 35.72748703754117 7.969897340478305 a57.60563609111902,57.60563609111902 0 0,0 -0.22422152825231378,0.965940475288367 l -35.5850049433583 -8.583706473115237" fill="#78ff26" stroke="none" /><path d="M 120.41448212921028 104.9243191809786 l 39.49962483693999 9.527979156898981 a61.632533136309725,61.632533136309725 0 0,0 -0.2576494800334639,1.029181598015301 l -39.32976404261146 -10.20648859431168" fill="#47ff2c" stroke="none" /><path d="M 120.32669344350535 105.2749913415812 l 29.90120345325631 7.759677674933476 a51.89165851118855,51.89165851118855 0 0,0 -0.23181220508334222,0.8626594513721026 l -29.76320317183119 -8.273228059481127" fill="#c2ff1e" stroke="none" /><path d="M 120.13307415673323 105.97154293290107 l 34.280102056226895 10.167602800217601 a56.75619587831351,56.75619587831351 0 0,0 -0.28587076277730233,0.9342421931278614 l -34.100004520943465 -10.75617196589752" fill="#83ff25" stroke="none" /><path d="M 120.02730092923936 106.31721596034902 l 29.368208228615234 9.263620415160348 a51.79458260401461,51.79458260401461 0 0,0 -0.2755169634403583,0.847954022592913 l -29.20439901415863 -9.767773337731057" fill="#c4ff1e" stroke="none" /><path d="M 119.9155931802556 106.66101706037122 l 30.701683556203 10.268558716731237 a53.37339449770726,53.37339449770726 0 0,0 -0.29891431317211853,0.8687849127666515 l -30.520378412087652 -10.795516332587187" fill="#afff20" stroke="none" /><path d="M 119.41010516605496 108.01547362559984 l 27.637086854696033 11.412835678996583 a50.90085931958795,50.90085931958795 0 0,0 -0.3413969567443943,0.8069615587130334 l -27.436538916759332 -11.88687176337578" fill="#d0ff1d" stroke="none" /><path d="M 119.26925614724726 108.34839909993367 l 33.4762865063659 14.50359048648545 a57.483090538713505,57.483090538713505 0 0,0 -0.4011742569356134,0.9045420424790154 l -33.22167116469902 -15.077680865457154" fill="#7aff26" stroke="none" /><path d="M 119.12269723197855 108.67885076344098 l 28.465694126395906 12.91917704933445 a52.26021237499164,52.26021237499164 0 0,0 -0.37882527870547095,0.8159559484526802 l -28.239094230850604 -13.407253065065962" fill="#bdff1f" stroke="none" /><line stroke="#e1ed5e" stroke-width="0.3" x1="174.80103733775053" x2="179.2010983576182" y1="140.37084112569926" y2="142.7455964860345" /><path d="M 175.68104954172406 140.8457921977663 a86.0,86.0 0 0,1 -30.038265399797805,32.042727171017184" fill="none" id="id65" stroke="none" /><text fill="#e1ed5e" style="font-size:6.75px; font-family:Arial;" text-anchor="middle"><textPath startOffset="22.206326154141568" xlink:href="#id65">May</textPath></text><path d="M 118.30583269289576 110.29060199501025 l 31.25151393360247 17.568001250062082 a56.850966389545654,56.850966389545654 0 0,0 -0.48688251533180704,0.8489207049303559 l -30.944479422118285 -18.103341800850753" fill="#82ff25" stroke="none" /><path d="M 118.12598468904814 110.60418214915192 l 34.01271402560651 19.898340482019158 a60.405693361823396,60.405693361823396 0 0,0 -0.5327756965389685,0.8929627126001197 l -33.66515745336932 -20.48086528850538" fill="#56ff2b" stroke="none" /><path d="M 117.94076556474637 110.91462005526583 l 25.9112996259971 15.763652311004822 a51.32965846313547,51.32965846313547 0 0,0 -0.46571976052351977,0.7508885423639406 l -25.636115225805618 -16.207337184734037" fill="#caff1d" stroke="none" /><path d="M 117.75023020441432 111.22182372390056 l 29.357000687217745 18.559707844941425 a55.73177571963293,55.73177571963293 0 0,0 -0.519619554345958,0.8064610875818319 l -29.03317626949474 -19.06229053244471" fill="#90ff24" stroke="none" /><path d="M 117.55443506779139 111.5257021239791 l 30.750549878931526 20.189865221206347 a57.7862335053092,57.7862335053092 0 0,0 -0.5530882611703853,0.8267919064489997 l -30.39845851235042 -20.716194041861154" fill="#76ff27" stroke="none" /><path d="M 117.14729908036423 112.12312394758627 l 28.85967712816594 20.40376395561443 a56.34394640526741,56.34394640526741 0 0,0 -0.5667133360999281,0.7871152576937142 l -28.504183999690408 -20.897512818759278" fill="#88ff25" stroke="none" /><line stroke="#e1ed5e" stroke-width="0.3" x1="143.8653032363475" x2="146.44561519142675" y1="172.8068346515853" y2="177.08958963109032" /><path d="M 144.38136562736335 173.6633856474863 a86.0,86.0 0 0,1 -40.68145358897372,12.25698825130547" fill="none" id="id66" stroke="none" /><text fill="#e1ed5e" style="font-size:6.75px; font-family:Arial;" text-anchor="middle"><textPath startOffset="21.466115282336833" xlink:href="#id66">June</textPath></text><path d="M 109.2508944713604 118.85261126421891 l 14.572064318913553 29.696746057602876 a54.079325641921805,54.079325641921805 0 0,0 -0.8392270071329762,0.4028799631650643 l -14.058724643780343 -29.9431802972675" fill="#a5ff21" stroke="none" /><path d="M 108.92500713936063 119.00905698771935 l 13.749963961883314 29.28556184317535 a53.352830500955214,53.352830500955214 0 0,0 -0.8346720159980938,0.38315698446755286 l -13.2438239501178 -29.517905897976977" fill="#afff20" stroke="none" /><path d="M 108.59647513512805 119.15986991738527 l 15.272189563120703 34.03873806222359 a58.30784720297543,58.30784720297543 0 0,0 -0.9192629863866612,0.40297787858297757 l -14.684005902076288 -34.296580494101015" fill="#6fff27" stroke="none" /><path d="M 108.2653958097858 119.30500536409082 l 15.235242887129413 35.58407273261386 a59.70838227141223,59.70838227141223 0 0,0 -0.948307123559609,0.39639245455790156 l -14.620464304072343 -35.84105023019174" fill="#5eff29" stroke="none" /><path d="M 107.93186726928326 119.44442032107085 l 14.024862204893754 34.38097315535346 a58.131497074254796,58.131497074254796 0 0,0 -0.929768794541719,0.3699741915892155 l -13.43097233431017 -34.61729419134874" fill="#72ff27" stroke="none" /><path d="M 107.59598834532513 119.57807347666477 l 12.423437821770568 32.02045177663969 a55.346049835337794,55.346049835337794 0 0,0 -0.8911498863149332,0.33695663433969286 l -11.87041771469536 -32.229556661086015" fill="#95ff23" stroke="none" /><path d="M 107.2578585660854 119.70592522655815 l 11.00197496386178 29.871634175321276 a52.833284175681015,52.833284175681015 0 0,0 -0.8561015786988008,0.3069675674861621 l -10.486153824533245 -30.056589283847398" fill="#b6ff1f" stroke="none" /><path d="M 106.91757812671514 119.82793768551818 l 12.23900368885572 35.0808040083089 a58.15448857359237,58.15448857359237 0 0,0 -0.9480019811569932,0.32161374292401196 l -11.633331974761498 -35.28628073813103" fill="#71ff27" stroke="none" /><path d="M 106.57524785965236 119.94407469862006 l 10.113619400225094 30.676680955136888 a53.30083670426925,53.30083670426925 0 0,0 -0.8738257317177739,0.2797714047889251 l -9.584072323416379 -30.84622520658552" fill="#afff20" stroke="none" /><path d="M 105.18746579009965 120.34920634021253 l 7.697942413834063 30.197214769713934 a52.16296034164493,52.16296034164493 0 0,0 -0.8719826612383142,0.21431212289963253 l -7.1770064678525385 -30.325248150927596" fill="#bfff1e" stroke="none" /><path d="M 104.48393922423573 120.51570834832081 l 8.858942598638729 40.532994213177744 a62.48981180785804,62.48981180785804 0 0,0 -1.0528299519662594,0.22063075290841147 l -8.159921185243093 -40.679480946812696" fill="#3dff2e" stroke="none" /><path d="M 104.13013068566511 120.58985236759428 l 6.198989191648816 30.903688526700325 a52.51928665997199,52.51928665997199 0 0,0 -0.887907029708682,0.17016949548021038 l -5.66611454736843 -31.005815220529005" fill="#baff1f" stroke="none" /><path d="M 103.7750983002368 120.6578951692458 l 7.627117768227609 41.736714323347364 a63.427894691571986,63.427894691571986 0 0,0 -1.0757099967507555,0.1870259714629554 l -6.907558800004804 -41.86181887333132" fill="#33ff2f" stroke="none" /><path d="M 103.41894727170886 120.7198165907248 l 5.186266780348825 31.43028772879744 a52.855303323496145,52.855303323496145 0 0,0 -0.8989532745355416,0.14039801357460766 l -4.644477642204767 -31.514904049719153" fill="#b5ff1f" stroke="none" /><path d="M 103.06178313531738 120.77559828337769 l 6.379959460741374 43.29094157312294 a64.75853636729921,64.75853636729921 0 0,0 -1.1041990642722717,0.15303192882334865 l -5.633831805282273 -43.3943480674389" fill="#31ff3e" stroke="none" /><path d="M 102.70371172650421 120.8252237178851 l 5.099907257791106 39.281817119344566 a60.61149088630346,60.61149088630346 0 0,0 -1.0358000917650239,0.12542096617297752 l -4.422979742974701 -39.36378361424289" fill="#53ff2b" stroke="none" /><path d="M 101.98527174616119 120.90594882070398 l 3.529524490784655 37.16773711631424 a58.33494643733257,58.33494643733257 0 0,0 -1.0004601158880064,0.0863239085154395 l -2.889220057155107 -37.22298527710834" fill="#6fff27" stroke="none" /><line stroke="#e1ed5e" stroke-width="0.3" x1="102.19456741930631" x2="102.32365962044197" y1="184.97166512339345" y2="189.96999836594603" /><path d="M 102.22038585953345 185.97133177190398 a86.0,86.0 0 0,1 -42.740103519485714,-10.115201625700543" fill="none" id="id67" stroke="none" /><text fill="#e1ed5e" style="font-size:6.75px; font-family:Arial;" text-anchor="middle"><textPath startOffset="22.20632615414155" xlink:href="#id67">July</textPath></text><path d="M 100.54218724476979 120.99299961872073 l 0.9540443768680191 36.93973518011607 a57.95205320209065,57.95205320209065 0 0,0 -0.9974384800342977,0.01717180798901701 l -0.31804620694105346 -36.95068446538424" fill="#74ff27" stroke="none" /><path d="M 100.18074693466247 120.99922214144158 l 0.3644622907096078 42.34331619002094 a63.344884681971195,63.344884681971195 0 0,0 -1.0904184507440973,0.0 l 0.3644622907095786 -42.34331619002094" fill="#34ff2f" stroke="none" /><path d="M 99.45781275523022 120.99299961872073 l -0.9481054247292399 36.70978432607597 a57.72202566802945,57.72202566802945 0 0,0 -0.9930377682844242,-0.03420222860197519 l 1.5798635446883071 -36.6880252990479" fill="#77ff27" stroke="none" /><path d="M 98.01472825383883 120.90594882070398 l -3.4581333382206942 36.415950976890926 a57.57977818052259,57.57977818052259 0 0,0 -0.9858957775426866,-0.10219212842691833 l 4.084461712368975 -36.35102948000824" fill="#78ff26" stroke="none" /><path d="M 97.65516085044442 120.86867818915974 l -4.050406041867704 36.04793968029137 a57.27478110613382,57.27478110613382 0 0,0 -0.9787784899869448,-0.11851644430183045 l 4.670311954906038 -35.97287770726419" fill="#7cff26" stroke="none" /><path d="M 97.2962882734958 120.8252237178851 l -4.702679626416005 36.222188310097444 a57.52618405528927,57.52618405528927 0 0,0 -0.9808800842058613,-0.1359410418712435 l 5.325488301808697 -36.13587270273359" fill="#79ff26" stroke="none" /><path d="M 96.93821686468263 120.77559828337769 l -4.61632691712908 31.323888510828876 a52.662224584584195,52.662224584584195 0 0,0 -0.8956694268670158,-0.1398851441045222 l 5.1548322076046125 -31.23978505937725" fill="#b8ff1f" stroke="none" /><path d="M 96.22490169976321 120.6578951692458 l -6.590400631652458 36.06364511447771 a57.660876686580714,57.660876686580714 0 0,0 -0.9748323140916232,-0.18682893311611665 l 7.210200560315776 -35.94485898301313" fill="#77ff26" stroke="none" /><path d="M 95.51606077576429 120.51570834832081 l -8.945374509913307 40.92845271406767 a62.894605460491924,62.894605460491924 0 0,0 -1.055670530319478,-0.24026717573253914 l 9.648565189625648 -40.76840880475744" fill="#39ff2e" stroke="none" /><path d="M 95.16358092515715 120.4354850818985 l -9.626226071297516 40.674018572589205 a62.797607769094384,62.797607769094384 0 0,0 -1.0497568539678488,-0.25800469424793143 l 10.324936210008575 -40.50229262002724" fill="#3aff2e" stroke="none" /><path d="M 94.81253420990036 120.34920634021253 l -9.296724421518357 36.468859978339495 a58.635180789912354,58.635180789912354 0 0,0 -0.9758836225500256,-0.2577397343836838 l 9.923098486879873 -36.30342889465223" fill="#6bff28" stroke="none" /><path d="M 94.46302465271185 120.25689768951611 l -9.999171401263883 36.58173991230466 a58.92370134524526,58.92370134524526 0 0,0 -0.9760818646630028,-0.2758504847719835 l 10.6273844340315 -36.404200634194154" fill="#68ff28" stroke="none" /><path d="M 94.11515582081647 120.15858648285463 l -10.327540376593182 35.37708212787562 a57.8537112122052,57.8537112122052 0 0,0 -0.9535532034310076,-0.28729775807756025 l 10.934968554464437 -35.19406900069234" fill="#75ff27" stroke="none" /><path d="M 93.76903079525671 120.05430185196036 l -10.794430031797408 34.74174740147023 a57.38005954116806,57.38005954116806 0 0,0 -0.9407014151159567,-0.30118288674854754 l 11.390852792004305 -34.550791668061976" fill="#7bff26" stroke="none" /><path d="M 93.08242187328487 119.8279376855182 l -17.45957001384546 50.0445762821995 a74.00279426910676,74.00279426910676 0 0,0 -1.1991287308818854,-0.4299648999375159 l 18.318418305357074 -49.73662384122203" fill="#3effb9" stroke="none" /><path d="M 92.7421414339146 119.70592522655815 l -14.180913231280226 38.50281914912547 a62.03127322547232,62.03127322547232 0 0,0 -0.9987914629375012,-0.3776574680947708 l 14.84157491497801 -38.253013430924064" fill="#43ff2d" stroke="none" /><path d="M 92.40401165467489 119.57807347666478 l -13.094053361268099 33.7489115517204 a57.20004508772859,57.20004508772859 0 0,0 -0.9148709330677847,-0.36404602505191413 l 13.673045370377743 -33.51851868226242" fill="#7dff26" stroke="none" /><path d="M 92.06813273071674 119.44442032107085 l -13.852857252583055 33.95931499133113 a57.67610569213817,57.67610569213817 0 0,0 -0.9160298739699502,-0.382900561611663 l 14.435358586050468 -33.71582938669949" fill="#77ff27" stroke="none" /><path d="M 91.7346041902142 119.30500536409082 l -14.163484343071627 33.08082849383836 a56.985351222062334,56.985351222062334 0 0,0 -0.8984129350948543,-0.3938378288231691 l 14.730817952824225 -32.83212611172074" fill="#80ff26" stroke="none" /><path d="M 91.40352486487194 119.15986991738527 l -12.644039818805016 28.181103807140264 a51.887640808717364,51.887640808717364 0 0,0 -0.8117500299899121,-0.3726346249436145 l 13.127257844562347 -27.959282111862578" fill="#c2ff1e" stroke="none" /><path d="M 90.7491055286396 118.85261126421891 l -21.759951544478103 44.34510726139101 a70.39619448137992,70.39619448137992 0 0,0 -1.0832502457458257,-0.5431641611231743 l 22.520055697906688 -43.96397525935853" fill="#39ff8b" stroke="none" /><path d="M 90.42595943632237 118.69057910512821 l -17.755826025108846 34.6631778601649 a59.94618411602552,59.94618411602552 0 0,0 -0.9143480062468885,-0.4783436621128279 l 18.34986493388223 -34.35240477910735" fill="#5bff2a" stroke="none" /><path d="M 90.10565033884886 118.52300852407294 l -14.664765615481953 27.4536061289248 a52.12484281147712,52.12484281147712 0 0,0 -0.7877731449188435,-0.4295567297180422 l 15.135161572269437 -27.19710874744699" fill="#bfff1e" stroke="none" /><line stroke="#e1ed5e" stroke-width="0.3" x1="58.666819895761336" x2="56.23545636021788" y1="174.27360380694188" y2="178.64263932499728" /><path d="M 58.180547188652646 175.14741091055294 a86.0,86.0 0 0,1 -31.652253787137756,-30.449443065178592" fill="none" id="id68" stroke="none" /><text fill="#e1ed5e" style="font-size:6.75px; font-family:Arial;" text-anchor="middle"><textPath startOffset="22.20632615414155" xlink:href="#id68">August</textPath></text><path d="M 89.4739219176387 118.17145234162733 l -5.17931423464402 8.941189780347242 a31.332965238951118,31.332965238951118 0 0,0 -0.46437264182440263,-0.2743595420194595 l 5.332454747496805 -8.850711666034034" fill="#ff0000" stroke="none" /><path d="M 88.8546689885994 117.79835938074946 l -20.361708465565137 32.51630700833125 a59.36547136549633,59.36547136549633 0 0,0 -0.8614161645299527,-0.5497965526982215 l 20.918406432142014 -32.16099602680923" fill="#62ff29" stroke="none" /><path d="M 88.54995079064634 117.60387380957326 l -28.0815649433649 43.1739913601853 a72.50308553511891,72.50308553511891 0 0,0 -1.0403340043405727,-0.6894766503975549 l 28.820573646445432 -42.684216688696424" fill="#3cffa6" stroke="none" /><path d="M 88.24862548938628 117.40417183066458 l -23.535094936588347 34.85624902494881 a63.05780295930199,63.05780295930199 0 0,0 -0.8943491658206872,-0.6151415113625521 l 24.131600987031923 -34.44596672422116" fill="#37ff2e" stroke="none" /><path d="M 87.95078237400918 117.19931262002967 l -32.65198907443332 46.60815209657994 a77.90757623001389,77.90757623001389 0 0,0 -1.0917176494296537,-0.778911555966682 l 33.449434051711854 -46.03919627876905" fill="#44ffe8" stroke="none" /><path d="M 87.65650970185807 116.9893568818739 l -19.339975711359735 26.61919291146717 a53.90313194475396,53.90313194475396 0 0,0 -0.7459552516503192,-0.551839861899513 l 19.79531593342862 -26.28234310082789" fill="#a8ff21" stroke="none" /><path d="M 87.36589467227662 116.77436683061367 l -28.91919080583649 38.39615884451592 a69.06854076085185,69.06854076085185 0 0,0 -0.9435133385316671,-0.7234457945133485 l 29.575832872861643 -37.892673708175195" fill="#37ff79" stroke="none" /><path d="M 87.07902340077011 116.55440617244103 l -25.61074622091928 32.81258905349898 a62.62422758906323,62.62422758906323 0 0,0 -0.8440627806403455,-0.6705745212573601 l 26.171766494276984 -32.36688061823649" fill="#3cff2e" stroke="none" /><path d="M 86.79598089348748 116.32954008644616 l -26.03453856103564 32.19716948568145 a62.40597687503277,62.40597687503277 0 0,0 -0.82949391919862,-0.6826170238419491 l 26.58490260877895 -31.74425734298232" fill="#3eff2d" stroke="none" /><path d="M 86.51685102203217 116.09983520530335 l -24.02374557426031 28.686054377337403 a58.41697565485952,58.41697565485952 0 0,0 -0.765358416981403,-0.6522550470478182 l 24.51396946781877 -28.268274940066632" fill="#6eff28" stroke="none" /><path d="M 86.24171649860922 115.8653595955263 l -30.368166838351343 35.01904050012323 a67.35254852401552,67.35254852401552 0 0,0 -0.8693534918411678,-0.7671033785525475 l 30.9664626830991 -34.49111397979839" fill="#35ff62" stroke="none" /><path d="M 85.97065885151581 115.62618273729859 l -24.57413758382121 27.371204423081323 a57.78411436420185,57.78411436420185 0 0,0 -0.7344098170221081,-0.6708659551609976 l 25.041646950310174 -26.94414570133375" fill="#76ff27" stroke="none" /><path d="M 85.70375840098266 115.38237550388516 l -31.828319358332937 34.24642460303043 a67.75317648317683,67.75317648317683 0 0,0 -0.847444360396446,-0.8013115375648225 l 32.4130995531202 -33.69347842871967" fill="#35ff68" stroke="none" /><path d="M 85.44109423537348 115.13401014063109 l -43.67671729387956 45.40203042189327 a84.0,84.0 0 0,0 -1.033400190496823,-1.0113995883097213 l 44.45176743675218 -44.64348073066098" fill="#4dd2ff" stroke="none" /><line stroke="#e1ed5e" stroke-width="0.3" x1="26.63291911575756" x2="22.317208475507996" y1="142.92168965132927" y2="145.44649492493687" /><path d="M 25.769776987707644 143.4266507060508 a86.0,86.0 0 0,1 -11.730757126820373,-40.83630448921669" fill="none" id="id69" stroke="none" /><text fill="#e1ed5e" style="font-size:6.75px; font-family:Arial;" text-anchor="middle"><textPath startOffset="21.46611528233685" xlink:href="#id69">September</textPath></text><line stroke="#e1ed5e" stroke-width="0.3" x1="15.007084014347285" x2="10.007500721073583" y1="101.09737516637583" y2="101.16192664675087" /><path d="M 14.007167355692545 101.11028546245083 a86.0,86.0 0 0,1 10.666146001902534,-42.60595125391555" fill="none" id="id70" stroke="none" /><text fill="#e1ed5e" style="font-size:6.75px; font-family:Arial;" text-anchor="middle"><textPath startOffset="22.20632615414155" xlink:href="#id70">October</textPath></text><line stroke="#e1ed5e" stroke-width="0.3" x1="26.266209847984243" x2="21.928928074336255" y1="57.711370442889674" y2="55.22380399835377" /><path d="M 25.398753493254645 57.213857153982495 a86.0,86.0 0 0,1 29.58750427330803,-30.492523968695096" fill="none" id="id71" stroke="none" /><text fill="#e1ed5e" style="font-size:6.75px; font-family:Arial;" text-anchor="middle"><textPath startOffset="21.46611528233685" xlink:href="#id71">November</textPath></text><line stroke="#e1ed5e" stroke-width="0.3" x1="56.762969772571076" x2="54.21961505331055" y1="26.818313649435495" y2="22.513508569990535" /><path d="M 56.25429882871897 25.957352633546506 a86.0,86.0 0 0,1 42.265352541879196,-11.944610805530505" fill="none" id="id72" stroke="none" /><text fill="#e1ed5e" style="font-size:6.75px; font-family:Arial;" text-anchor="middle"><textPath startOffset="22.20632615414155" xlink:href="#id72">December</textPath></text></svg>