<?xml version="1.0" encoding="utf-8" ?>
<svg baseProfile="full" height="200mm" version="1.1" viewBox="0,0,200,200" width="200mm" xmlns="http://www.w3.org/2000/svg" xmlns:ev="http://www.w3.org/2001/xml-events" xmlns:xlink="http://www.w3.org/1999/xlink"><defs /><rect fill="#1a1a1a" height="200" width="200" x="0" y="0" /><text alignment-baseline="middle" fill="#e1ed5e" style="dominant-baseline: central; font-size:9.0px; font-family:Arial;" text-anchor="middle" x="100.0" y="100.0">2023</text><line stroke="#e1ed5e" stroke-width="0.3" x1="100.0" x2="100.0" y1="15.0" y2="10.0" /><path d="M 100.0 14.0 a86.0,86.0 0 0,1 42.46469731375804,11.215312516191453" fill="none" id="id61" stroke="none" /><text fill="#e1ed5e" style="font-size:6.75px; font-family:Arial;" text-anchor="middle"><textPath startOffset="22.20632615414155" xlink:href="#id61">January</textPath></text><path d="M 109.41281617654863 81.2277094730956 l 9.152243851729018 -18.252622523935056 a41.41866294650002,41.41866294650002 0 0,0 0.634572401006314,0.32505263072120827 l -9.465076740324086 18.092377367901346" fill="#ffdd14" stroke="none" /><path d="M 109.73455568895987 81.39251694778311 l 6.7110502997398775 -12.8280898178649 a35.47750270249838,35.47750270249838 0 0,0 0.5386751177855637,0.28774159242033254 l -6.930870464053752 12.710669498942812" fill="#ff8b0c" stroke="none" /><path d="M 110.36928655335952 81.73862282372117 l 8.04079032519554 -14.160656489543772 a37.28430229603394,37.28430229603394 0 0,0 0.5553643612357085,0.32170288431685623 l -8.283351418896578 14.020149447836866" fill="#ffa40f" stroke="none" /><line stroke="#e1ed5e" stroke-width="0.3" x1="143.23703022742887" x2="145.7803849466894" y1="26.81831364943548" y2="22.513508569990506" /><path d="M 143.74570117128098 25.957352633546492 a86.0,86.0 0 0,1 28.547481713284135,27.462654790039103" fill="none" id="id62" stroke="none" /><text fill="#e1ed5e" style="font-size:6.75px; font-family:Arial;" text-anchor="middle"><textPath startOffset="19.985693538727396" xlink:href="#id62">February</textPath></text><path d="M 110.68208982089419 81.91981866633111 l 9.056468105099551 -15.328703308832658 a38.804178152021024,38.804178152021024 0 0,0 0.5721545497673564,0.3447167143538797 l -9.318984721084544 15.170539985020163" fill="#ffb911" stroke="none" /><path d="M 111.2981086023043 82.29822771554956 l 9.629989280275312 -15.088178326270008 a38.89943626887566,38.89943626887566 0 0,0 0.5613243746605826,0.36510098753253656 l -9.888280680720175 14.920178414577943" fill="#ffbb11" stroke="none" /><path d="M 111.60114157652 82.49532879139004 l 8.736336943937387 -13.182039436599108 a36.81422609254273,36.81422609254273 0 0,0 0.5252080626848572,0.3546228284030891 l -8.961949701028784 13.02970469589735" fill="#ff9e0e" stroke="none" /><path d="M 111.90073688211348 82.69761687909136 l 10.9151772012716 -15.86948603601669 a40.26088472481179,40.26088472481179 0 0,0 0.5676187742775725,0.39765322550761434 l -11.186727115132824 15.679247967745141" fill="#ffcd13" stroke="none" /><path d="M 112.19680574252982 82.90503203632743 l 11.128296463245311 -15.597351925191106 a40.16028103270254,40.16028103270254 0 0,0 0.5592886802172363,0.4063470116098103 l -11.395130459816336 15.40348567876462" fill="#ffcc13" stroke="none" /><path d="M 113.6212207817346 84.01681056812373 l 10.492108626984624 -12.311477980724932 a37.17581013459048,37.17581013459048 0 0,0 0.4834735375279587,0.4192634875168947 l -10.702475963159348 12.129049499788366" fill="#ffa30f" stroke="none" /><path d="M 114.42810811169701 84.74124197986012 l 11.823085319515393 -12.503759782316642 a38.208409431624396,38.208409431624396 0 0,0 0.47399670913597497,0.45598445864170745 l -12.036565272263786 12.298392236912632" fill="#ffb110" stroke="none" /><path d="M 114.94478906791727 85.2469230424477 l 11.510739564297694 -11.363079522814044 a37.1745695942391,37.1745695942391 0 0,0 0.44562703087265687,0.4592578270361753 l -11.70463085887346 11.163257500227754" fill="#ffa30f" stroke="none" /><path d="M 115.19652480421416 85.50635884689758 l 13.515965035823637 -12.890812181794542 a39.67764304070269,39.67764304070269 0 0,0 0.4671242831834739,0.49829561600137673 l -13.735856640977575 12.656247148915112" fill="#ffc512" stroke="none" /><path d="M 115.4437574822437 85.77008943001954 l 13.822888510707713 -12.736438496417296 a39.79598660226368,39.79598660226368 0 0,0 0.4598452012856346,0.5077725565683296 l -14.040077352609384 12.496613152579418" fill="#ffc712" stroke="none" /><path d="M 115.68641384162765 86.03803664274999 l 11.62213686001703 -10.344483488117971 a36.55899752004967,36.55899752004967 0 0,0 0.4143494699623377,0.4736730717152631 l -11.798478193557214 10.14289486019976" fill="#ff9a0e" stroke="none" /><path d="M 116.38621287248628 86.86637796730983 l 12.326623256147503 -9.879843014699333 a36.797371265311824,36.797371265311824 0 0,0 0.3918848537312339,0.49765396770868886 l -12.4948621904727 9.666196653037606" fill="#ff9d0e" stroke="none" /><path d="M 116.60985879189232 87.15038557335679 l 12.5320856066121 -9.69499319797074 a36.84443317888504,36.84443317888504 0 0,0 0.38375066690605275,0.5049708949008134 l -12.697112213742265 9.477837527188894" fill="#ff9e0e" stroke="none" /><path d="M 116.82858285166822 87.43820079747576 l 14.518854153824849 -10.837688006093947 a39.117742885289815,39.117742885289815 0 0,0 0.3981392461269297,0.5430614842792479 l -14.703256012465406 10.586164078143206" fill="#ffbe11" stroke="none" /><path d="M 117.04232023915458 87.72973835380427 l 14.509378048852769 -10.44657432113975 a38.878841305063006,38.878841305063006 0 0,0 0.38635826366734216,0.5464763643362038 l -14.687048932323995 10.195271456471753" fill="#ffba11" stroke="none" /><path d="M 117.2510076193507 88.02491185347247 l 24.20418977231419 -16.801760942567597 a50.464249070787275,50.464249070787275 0 0,0 0.4892041175815069,0.7178466779333394 l -24.48981835556443 16.38263624136385" fill="#aeff20" stroke="none" /><path d="M 117.65298651832404 88.62581576622439 l 13.19896570532518 -8.504366525846507 a36.70149501468853,36.70149501468853 0 0,0 0.3376055244454504,0.5340108635306389 l -13.343398826016587 8.275908014601663" fill="#ff9c0e" stroke="none" /><line stroke="#e1ed5e" stroke-width="0.3" x1="172.23445277983987" x2="176.4835382374775" y1="55.19839476539836" y2="52.563006222186495" /><path d="M 173.08426987136738 54.67131705675599 a86.0,86.0 0 0,1 12.851231095245387,41.99856678651699" fill="none" id="id63" stroke="none" /><text fill="#e1ed5e" style="font-size:6.75px; font-family:Arial;" text-anchor="middle"><textPath startOffset="22.20632615414155" xlink:href="#id63">March</textPath></text><path d="M 117.84615892207809 88.93136811851018 l 13.017966606047382 -8.07406685309778 a36.318551175109775,36.318551175109775 0 0,0 0.32493723785411543,0.5341113825381771 l -13.155019642187721 7.84878769735252" fill="#ff970d" stroke="none" /><path d="M 118.03404312379186 89.2402003453031 l 15.5307806997227 -9.266257580896434 a39.08504019067693,39.08504019067693 0 0,0 0.33974266474983367,0.5807303432603159 l -15.68798303894286 8.997547825282224" fill="#ffbd11" stroke="none" /><path d="M 118.3937258080291 89.86733742301442 l 25.953015600434373 -14.29689409742388 a50.63039317304689,50.63039317304689 0 0,0 0.41394421148556587,0.7669757566524129 l -26.195267911138405 13.848037357439008" fill="#acff21" stroke="none" /><path d="M 118.56541770881063 90.18545643968196 l 15.951381156327932 -8.432642220148917 a39.04317088561464,39.04317088561464 0 0,0 0.3089812714622257,0.5968534697015728 l -16.094171860950272 8.156816028186999" fill="#ffbd11" stroke="none" /><path d="M 119.04729006885535 91.15688171328212 l 16.478890235091544 -7.650682855984463 a39.16829027572628,39.16829027572628 0 0,0 0.27865008646193207,0.6139685290502164 l -16.608142638516824 7.365892318092183" fill="#ffbe11" stroke="none" /><path d="M 119.196687751892 91.48605970444005 l 16.287621968486928 -7.223737906695955 a38.81766030468013,38.81766030468013 0 0,0 0.26564087656921576,0.6131357680099558 l -16.409553554898825 6.942302994099396" fill="#ffba11" stroke="none" /><path d="M 119.34039704204932 91.81776055985345 l 13.175500168954809 -5.574089140553466 a35.306092214471576,35.306092214471576 0 0,0 0.23197500220919748,0.5617458679416956 l -13.269496858050204 5.346468702158467" fill="#ff880c" stroke="none" /><path d="M 119.47837535516314 92.15188598940014 l 28.425536020815652 -11.453052086535566 a51.6461008966489,51.6461008966489 0 0,0 0.32514036485702286,0.8274467638062022 l -28.618469935554376 10.96205631783358" fill="#a0ff22" stroke="none" /><path d="M 119.7369772167798 92.82701384747503 l 17.46082055150075 -6.345765243178046 a39.578185887035296,39.578185887035296 0 0,0 0.2271918274199419,0.6423018900966807 l -17.5674654597305 6.044265726654751" fill="#ffc412" stroke="none" /><path d="M 119.85752413597 93.16781622104841 l 17.48789573561262 -6.016888951247535 a39.49403822617718,39.49403822617718 0 0,0 0.21564253823307797,0.6447437418165638 l -17.58887556761747 5.714972106508657" fill="#ffc312" stroke="none" /><path d="M 119.97218684219823 93.5106431181261 l 17.10417244876996 -5.557482516369581 a38.98439120673855,38.98439120673855 0 0,0 0.20187327439846575,0.639993446690023 l -17.19730120693663 5.262238903253139" fill="#ffbc11" stroke="none" /><path d="M 120.08093135843002 93.85539295169968 l 15.364287273030135 -4.701351057123121 a37.06748347347862,37.06748347347862 0 0,0 0.18144374809443028,0.6117381180555406 l -15.442936918236267 4.436183552321051" fill="#ffa10e" stroke="none" /><path d="M 120.18372546131832 94.20196356495316 l 17.422205830962152 -5.004754170898553 a39.126798402573414,39.126798402573414 0 0,0 0.18038055765485703,0.6489248389057967 l -17.50577315918337 4.704118028573804" fill="#ffbe11" stroke="none" /><path d="M 120.37134235888165 94.90015583598534 l 17.558555611119402 -4.395679763481715 a39.100410927154535,39.100410927154535 0 0,0 0.15783011156886415,0.6543077070470493 l -17.631618522949086 4.09278682477526" fill="#ffbe11" stroke="none" /><path d="M 120.53481517161879 95.60439243477599 l 15.04142436872996 -3.2197123857395917 a36.38216483096929,36.38216483096929 0 0,0 0.1258142107696013,0.6135147737200759 l -15.094617875414558 2.960321955856104" fill="#ff980e" stroke="none" /><path d="M 120.6074358757038 95.95851677861258 l 17.29105711730634 -3.3910825995598852 a38.62044543792773,38.62044543792773 0 0,0 0.12232433193250192,0.6534614724884131 l -17.346867173148702 3.0929430496089094" fill="#ffb711" stroke="none" /><path d="M 120.83666639777658 97.38593545837742 l 17.971466631710403 -2.254610828146696 a39.11234062403523,39.11234062403523 0 0,0 0.07805639946460502,0.6687395623729089 l -18.007613384178597 1.9449275274489346" fill="#ffbe11" stroke="none" /><path d="M 120.98425023603335 99.18683210126433 l 19.96832037401709 -0.7737992512087722 a40.98330763013364,40.98330763013364 0 0,0 0.02124946550929467,0.7051663097158142 l -19.97868153398203 0.42996279406795895" fill="#ffd714" stroke="none" /><line stroke="#e1ed5e" stroke-width="0.3" x1="184.98032266829074" x2="189.97916517819016" y1="98.17113171792111" y2="98.06355123074" /><path d="M 185.9800911702706 98.14961562048488 a86.0,86.0 0 0,1 -9.607161424134198,41.387399972396054" fill="none" id="id64" stroke="none" /><text fill="#e1ed5e" style="font-size:6.75px; font-family:Arial;" text-anchor="middle"><textPath startOffset="21.466115282336823" xlink:href="#id64">April</textPath></text><path d="M 120.99513854157772 99.54816195383933 l 29.136397664765575 -0.627046731172397 a50.14314424495804,50.14314424495804 0 0,0 0.011143699870789598,0.863091835780786 l -29.14287437175408 0.12541863733114825" fill="#b2ff20" stroke="none" /><path d="M 120.99980553446 99.90962569577887 l 18.29961809211119 -0.07875383654734781 a39.299787552971594,39.299787552971594 0 0,0 -0.0029113707627673167,0.6765000337622875 l -18.29826242405892 -0.23625567541862444" fill="#ffc011" stroke="none" /><path d="M 120.99824983174949 100.27111621757518 l 17.90517065635234 0.23118032132604618 a38.90666302173773,38.90666302173773 0 0,0 -0.01441017076755307,0.6695840118894362 l -17.89853842289978 -0.5393541490055972" fill="#ffbb11" stroke="none" /><path d="M 120.9904718944345 100.63252640178507 l 17.792526753454066 0.5361595957740661 a38.80060323091662,38.80060323091662 0 0,0 -0.02586312806283557,0.6674124150756642 l -17.780661492540027 -0.8423492578637365" fill="#ffb911" stroke="none" /><path d="M 120.9764740272857 100.99374915477107 l 29.420024356004916 1.3937578021498915 a50.453020115413906,50.453020115413906 0 0,0 -0.04856379263225727,0.8671391407595573 l -29.391674212485132 -1.8999686592448721" fill="#aeff20" stroke="none" /><path d="M 120.95626037817324 101.35467743843564 l 15.027641855434222 0.971433214088669 a36.05900734526128,36.05900734526128 0 0,0 -0.04537157453379658,0.6190590866298558 l -15.008693722236087 -1.229965437215295" fill="#ff930d" stroke="none" /><path d="M 120.89721153311464 102.0752229133903 l 18.706617454453692 1.8576833139671627 a39.798630904463856,39.798630904463856 0 0,0 -0.07356625024382842,0.6811321110006628 l -18.671868902708812 -2.179411746852617" fill="#ffc712" stroke="none" /><path d="M 120.8583938346157 102.4346265915055 l 29.9620107293092 3.4972159714182283 a51.16542070805548,51.16542070805548 0 0,0 -0.10963651002916952,0.8739108572569317 l -29.89737271003318 -4.012444582962555" fill="#a5ff21" stroke="none" /><path d="M 120.76222939487914 103.15116336523771 l 16.694907205845045 2.533850241827948 a37.8860985328106,37.8860985328106 0 0,0 -0.10340784295219371,0.6439207367738047 l -16.648817608531562 -2.820850208294958" fill="#ffad10" stroke="none" /><path d="M 120.70491114924044 103.5080841355445 l 15.027460815363545 2.5461397300334423 a36.241633970219254,36.241633970219254 0 0,0 -0.10950764813577736,0.6141770463233839 l -14.98140672488858 -2.8044355270900447" fill="#ff960d" stroke="none" /><path d="M 120.5718875245553 104.21870165774334 l 17.3332776232036 3.554556039442241 a38.69399281678915,38.69399281678915 0 0,0 -0.13941991247961166,0.6513234158259518 l -17.269523671999547 -3.8523932746843617" fill="#ffb811" stroke="none" /><path d="M 120.49622156327973 104.57218783832717 l 18.086129904102947 4.0345574395085 a39.53067048546221,39.53067048546221 0 0,0 -0.15386736351749902,0.662856574950346 l -18.014001974654896 -4.345282671807411" fill="#ffc312" stroke="none" /><path d="M 120.41448212921028 104.9243191809786 l 19.995678543345825 4.8232966559945325 a41.56918450110623,41.56918450110623 0 0,0 -0.17377638443705914,0.6941502734995811 l -19.909690844613703 -5.16677476889151" fill="#ffdf14" stroke="none" /><path d="M 120.32669344350535 105.2749913415812 l 15.136722305051997 3.928139090648819 a36.638114939331466,36.638114939331466 0 0,0 -0.16367104960332166,0.6090808626989054 l -15.066863179106898 -4.188110886523273" fill="#ff9b0e" stroke="none" /><path d="M 120.13307415673323 105.97154293290107 l 17.353428139610227 5.147089826520089 a39.10066302318461,39.10066302318461 0 0,0 -0.19694301548154053,0.6436211696402885 l -17.262258351622553 -5.445037968712435" fill="#ffbe11" stroke="none" /><path d="M 120.02730092923936 106.31721596034902 l 14.866907054374115 4.689471779384932 a36.588972735015176,36.588972735015176 0 0,0 -0.1946319896122123,0.5990156702371751 l -14.783982813745657 -4.944686349599902" fill="#ff9a0e" stroke="none" /><path d="M 119.9155931802556 106.66101706037122 l 15.54194495931623 5.198196186694113 a37.38820602487583,37.38820602487583 0 0,0 -0.2093902782432828,0.6085861619916019 l -15.450163850129718 -5.464955051775015" fill="#ffa60f" stroke="none" /><path d="M 119.41010516605496 108.01547362559984 l 13.990570971302468 5.777457240348888 a36.136548096151614,36.136548096151614 0 0,0 -0.24237130202094723,0.5728941626523225 l -13.889048688089211 -6.017425928667374" fill="#ff940d" stroke="none" /><path d="M 119.26925614724726 108.34839909993367 l 16.946517000339554 7.342073102954529 a39.46863492226553,39.46863492226553 0 0,0 -0.2754514438735542,0.6210702888774021 l -16.817624471734728 -7.632691728324619" fill="#ffc312" stroke="none" /><path d="M 119.12269723197855 108.67885076344098 l 14.410032288010836 6.540004174456742 a36.824685941383684,36.824685941383684 0 0,0 -0.2669358060561908,0.5749559785209083 l -14.295321865114813 -6.787080220256481" fill="#ff9e0e" stroke="none" /><line stroke="#e1ed5e" stroke-width="0.3" x1="174.80103733775053" x2="179.2010983576182" y1="140.37084112569926" y2="142.7455964860345" /><path d="M 175.68104954172406 140.8457921977663 a86.0,86.0 0 0,1 -30.038265399797805,32.042727171017184" fill="none" id="id65" stroke="none" /><text fill="#e1ed5e" style="font-size:6.75px; font-family:Arial;" text-anchor="middle"><textPath startOffset="22.206326154141568" xlink:href="#id65">May</textPath></text><path d="M 118.30583269289576 110.29060199501025 l 15.820282577084297 8.893352964629136 a39.14863817955151,39.14863817955151 0 0,0 -0.33527640142595627,0.584582666418134 l -15.664854179505962 -9.164355476905586" fill="#ffbe11" stroke="none" /><path d="M 118.12598468904814 110.60418214915192 l 17.218069762696643 10.07302781904912 a40.948128127632074,40.948128127632074 0 0,0 -0.3611607825522287,0.6053262454869345 l -17.04212810444619 -10.36791615842216" fill="#ffd714" stroke="none" /><path d="M 117.94076556474637 110.91462005526583 l 13.116935163323765 7.97994729269286 a36.35361673590283,36.35361673590283 0 0,0 -0.32984045067371526,0.5318078299719114 l -12.977630072982086 -8.204551454030046" fill="#ff970d" stroke="none" /><path d="M 117.75023020441432 111.22182372390056 l 14.861233522132466 9.395379157596386 a38.58207642215078,38.58207642215078 0 0,0 -0.35972299639390937,0.5582980788034005 l -14.697305662361504 -9.64979883632124" fill="#ffb610" stroke="none" /><path d="M 117.55443506779139 111.5257021239791 l 15.566682289984781 10.22060478962248 a39.6220933244085,39.6220933244085 0 0,0 -0.3792341769206052,0.5669036393274894 l -15.388445007653454 -10.487045343155776" fill="#ffc512" stroke="none" /><path d="M 117.14729908036423 112.12312394758627 l 14.609476143172934 10.328885573344065 a38.891972232405635,38.891972232405635 0 0,0 -0.3911795452310004,0.5433141747959791 l -14.429516805566331 -10.578833353591175" fill="#ffbb11" stroke="none" /><line stroke="#e1ed5e" stroke-width="0.3" x1="143.8653032363475" x2="146.44561519142675" y1="172.8068346515853" y2="177.08958963109032" /><path d="M 144.38136562736335 173.6633856474863 a86.0,86.0 0 0,1 -40.68145358897372,12.25698825130547" fill="none" id="id66" stroke="none" /><text fill="#e1ed5e" style="font-size:6.75px; font-family:Arial;" text-anchor="middle"><textPath startOffset="21.466115282336833" xlink:href="#id66">June</textPath></text><path d="M 109.2508944713604 118.85261126421891 l 7.376736235769471 15.033220958490535 a37.74556567808067,37.74556567808067 0 0,0 -0.5857524616024617,0.2811967776876526 l -7.116871106166776 -15.157972012677748" fill="#ffab0f" stroke="none" /><path d="M 108.92500713936063 119.00905698771935 l 6.960568878803254 14.825069427742278 a37.37779602553235,37.37779602553235 0 0,0 -0.5847524877173679,0.2684311868126631 l -6.704348395318466 -14.942687684889016" fill="#ffa60f" stroke="none" /><path d="M 108.59647513512805 119.15986991738527 l 7.731156800041654 17.231243768088937 a39.88614696707971,39.88614696707971 0 0,0 -0.6288323156363063,0.27566160749667384 l -7.433403809747594 -17.361769928880065" fill="#ffc812" stroke="none" /><path d="M 108.2653958097858 119.30500536409082 l 7.712453486797112 18.01353006672014 a40.59513215700878,40.59513215700878 0 0,0 -0.6447445323730867,0.2695032668222801 l -7.401237494926565 -18.143618376562394" fill="#ffd213" stroke="none" /><path d="M 107.93186726928326 119.44442032107085 l 7.099729109363894 17.404491563143363 a39.79687420817295,39.79687420817295 0 0,0 -0.6365205374256351,0.2532846581284306 l -6.7990874958963925 -17.524123065677863" fill="#ffc712" stroke="none" /><path d="M 107.59598834532513 119.57807347666477 l 6.289048822941005 16.209537766029964 a38.38681252230228,38.38681252230228 0 0,0 -0.6180821163753709,0.23370576922881145 l -6.00909648580536 -16.315391785365406" fill="#ffb410" stroke="none" /><path d="M 107.2578585660854 119.70592522655815 l 5.569469472874154 15.12175361158241 a37.11478893745378,37.11478893745378 0 0,0 -0.6014017469891157,0.21564126962102959 l -5.308348165255303 -15.2153824222434" fill="#ffa20f" stroke="none" /><path d="M 106.91757812671514 119.82793768551818 l 6.1956837429077085 17.758763099346044 a39.80851306884267,39.80851306884267 0 0,0 -0.6489361385823239,0.2201543716115439 l -5.8890778713881575 -17.86278045785571" fill="#ffc712" stroke="none" /><path d="M 106.57524785965236 119.94407469862006 l 5.119762105880132 15.529288029643377 a37.351475490867216,37.351475490867216 0 0,0 -0.6123483686125939,0.19605461030562057 l -4.851692392176598 -15.615115486608705" fill="#ffa50f" stroke="none" /><path d="M 105.18746579009965 120.34920634021253 l 3.896887187856594 15.286570491041443 a36.77545457768048,36.77545457768048 0 0,0 -0.6147572634080939,0.1510923783758009 l -3.633176639705289 -15.351384127731274" fill="#ff9d0e" stroke="none" /><path d="M 104.48393922423573 120.51570834832081 l 4.484613946780356 20.518795457723815 a42.0031599833826,42.0031599833826 0 0,0 -0.7076703166223156,0.148299195397814 l -4.130752168728662 -20.59295063384817" fill="#ffe515" stroke="none" /><path d="M 104.13013068566511 120.58985236759428 l 3.1380803154860417 15.644204828135168 a36.955835696418056,36.955835696418056 0 0,0 -0.6247865953712124,0.11974183800752261 l -2.868326105543125 -15.695903864491157" fill="#ffa00e" stroke="none" /><path d="M 103.7750983002368 120.6578951692458 l 3.8610340157735865 21.128148090273445 a42.47804053901301,42.47804053901301 0 0,0 -0.7204094203724496,0.12525241199133383 l -3.496775623929087 -21.191479080785786" fill="#ffeb16" stroke="none" /><path d="M 103.41894727170886 120.7198165907248 l 2.625415400981364 15.910782255383763 a37.125935569942754,37.125935569942754 0 0,0 -0.6314310816935447,0.09861654892446192 l -2.351148455679302 -15.953617111655332" fill="#ffa20f" stroke="none" /><path d="M 103.06178313531738 120.77559828337769 l 3.2296919027255604 21.914936030617557 a43.15164397990792,43.15164397990792 0 0,0 -0.7357795215471407,0.10197233724816432 l -2.851983789991589 -21.967282933358323" fill="#fff417" stroke="none" /><path d="M 102.70371172650421 120.8252237178851 l 2.581698093301872 19.885418936494442 a41.052307880262816,41.052307880262816 0 0,0 -0.7015498818418117,0.0849479206448062 l -2.23902078840868 -19.9269123858646" fill="#ffd814" stroke="none" /><path d="M 101.98527174616119 120.90594882070398 l 1.7867318340349008 18.815219805995948 a39.899865263929684,39.899865263929684 0 0,0 -0.6842934855310074,0.059043721288438086 l -1.4625940307623517 -18.84318777956305" fill="#ffc812" stroke="none" /><line stroke="#e1ed5e" stroke-width="0.3" x1="102.19456741930631" x2="102.32365962044197" y1="184.97166512339345" y2="189.96999836594603" /><path d="M 102.22038585953345 185.97133177190398 a86.0,86.0 0 0,1 -42.740103519485714,-10.115201625700543" fill="none" id="id67" stroke="none" /><text fill="#e1ed5e" style="font-size:6.75px; font-family:Arial;" text-anchor="middle"><textPath startOffset="22.20632615414155" xlink:href="#id67">July</textPath></text><path d="M 100.54218724476979 120.99299961872073 l 0.48296065480852424 18.699799635746242 a39.706035320482755,39.706035320482755 0 0,0 -0.6833981771127603,0.011765319377913952 l -0.16100278780309596 -18.705342432403317" fill="#ffc612" stroke="none" /><path d="M 100.18074693466247 120.99922214144158 l 0.18449974743520484 21.435224827834126 a42.43601883691559,42.43601883691559 0 0,0 -0.7304933641953059,0.0 l 0.18449974743519007 -21.435224827834126" fill="#ffeb16" stroke="none" /><path d="M 99.45781275523022 120.99299961872073 l -0.4799542116247832 18.583392875501435 a39.589589742931224,39.589589742931224 0 0,0 -0.6810910980795882,-0.02345815454283539 l 0.7997656613790144 -18.572377922532503" fill="#ffc412" stroke="none" /><path d="M 98.01472825383883 120.90594882070398 l -1.7505918822403999 18.43464722994472 a39.51758057713465,39.51758057713465 0 0,0 -0.6766301826928355,-0.07013548501000817 l 2.0676546615388287 -18.401782376478952" fill="#ffc312" stroke="none" /><path d="M 97.65516085044442 120.86867818915974 l -2.0504148461549443 18.248350888713574 a39.36318358016785,39.36318358016785 0 0,0 -0.6726841489674321,-0.08145268238872541 l 2.3642264181737658 -18.210352677599502" fill="#ffc112" stroke="none" /><path d="M 97.2962882734958 120.8252237178851 l -2.380611727081932 18.336559817345282 a39.490449916922024,39.490449916922024 0 0,0 -0.6733524303056266,-0.09332051123903715 l 2.6958927485743898 -18.29286474061364" fill="#ffc312" stroke="none" /><path d="M 96.93821686468263 120.77559828337769 l -2.336897868447165 15.85692036255452 a37.02819437840548,37.02819437840548 0 0,0 -0.629768717490436,-0.09835692182418287 l 2.6095024495461177 -15.814345133383231" fill="#ffa10e" stroke="none" /><path d="M 96.22490169976321 120.6578951692458 l -3.3362223830325037 18.25630136456417 a39.55863462927256,39.55863462927256 0 0,0 -0.6687903055579708,-0.1281752537945244 l 3.64998030316217 -18.19616891242118" fill="#ffc412" stroke="none" /><path d="M 95.51606077576429 120.51570834832081 l -4.528367899403145 20.718986246716653 a42.20807645506727,42.20807645506727 0 0,0 -0.7084522134903211,-0.1612414172680109 l 4.884340262286329 -20.637968095870956" fill="#ffe815" stroke="none" /><path d="M 95.16358092515715 120.4354850818985 l -4.873031652878643 20.59018544608987 a42.158973845494685,42.158973845494685 0 0,0 -0.7047509184313241,-0.17321062924576205 l 5.226735856053177 -20.503253558530076" fill="#ffe715" stroke="none" /><path d="M 94.81253420990036 120.34920634021253 l -4.706229839046615 18.461431063699653 a40.05185125434448,40.05185125434448 0 0,0 -0.6665954664993351,-0.17605392129439 l 5.023315748357438 -18.377685793101683" fill="#ffcb12" stroke="none" /><path d="M 94.46302465271185 120.25689768951611 l -5.0618257227725785 18.518573653860432 a40.19790743339429,40.19790743339429 0 0,0 -0.6658856715949395,-0.18818594214492448 l 5.379842562472132 -18.428698918376984" fill="#ffcd13" stroke="none" /><path d="M 94.11515582081647 120.15858648285463 l -5.2280541490272 17.90874634761079 a39.65625219405611,39.65625219405611 0 0,0 -0.6536200621081775,-0.19693036298606673 l 5.535549185575623 -17.816100615518998" fill="#ffc512" stroke="none" /><path d="M 93.76903079525671 120.05430185196036 l -5.46440513968133 17.587124331982277 a39.41647810519641,39.41647810519641 0 0,0 -0.6462024792052105,-0.20689362743980017 l 5.766328963977481 -17.49045785788277" fill="#ffc212" stroke="none" /><path d="M 93.08242187328487 119.8279376855182 l -8.838462414341748 25.33379150581147 a47.831313980304,47.831313980304 0 0,0 -0.7750505017559688,-0.27790553495365405 l 9.273232476727443 -25.177898429817855" fill="#ceff1d" stroke="none" /><path d="M 92.7421414339146 119.70592522655815 l -7.178725964976174 19.491071064515346 a41.7710365105406,41.7710365105406 0 0,0 -0.672572921615393,-0.2543095291777299 l 7.51316910735185 -19.364613285230984" fill="#ffe215" stroke="none" /><path d="M 92.40401165467489 119.57807347666478 l -6.628530851170918 17.084526482512544 a39.32535037527515,39.32535037527515 0 0,0 -0.6289788746821109,-0.2502836748805999 l 6.921630801894887 -16.967895963225878" fill="#ffc111" stroke="none" /><path d="M 92.06813273071674 119.44442032107085 l -7.01265598529078 17.191037862310157 a39.566343925270154,39.566343925270154 0 0,0 -0.6284049972579431,-0.2626733398189754 l 7.307532442046185 -17.067779479471206" fill="#ffc412" stroke="none" /><path d="M 91.7346041902142 119.30500536409082 l -7.169903034443906 16.746326458567722 a39.21666707661567,39.21666707661567 0 0,0 -0.6182775084713241,-0.27103469021273163 l 7.457101217572974 -16.62042721506054" fill="#ffbf11" stroke="none" /><path d="M 91.40352486487194 119.15986991738527 l -6.400722962554496 14.265965690824771 a36.63608107983461,36.63608107983461 0 0,0 -0.5731488163993043,-0.26310451043467836 l 6.6453397747212195 -14.153674110056018" fill="#ff9b0e" stroke="none" /><path d="M 90.7491055286396 118.85261126421891 l -11.015420981802746 22.448580548028772 a46.00556474122662,46.00556474122662 0 0,0 -0.707929450998817,-0.35497052310513494 l 11.400204340484324 -22.255642184014334" fill="#e5ff1a" stroke="none" /><path d="M 90.42595943632237 118.69057910512821 l -8.988434470841296 17.54735050380733 a40.71551328117215,40.71551328117215 0 0,0 -0.6210261577267968,-0.32489153421381517 l 9.28915153109459 -17.390029550648798" fill="#ffd413" stroke="none" /><path d="M 90.10565033884886 118.52300852407294 l -7.423663904940637 13.897688529340881 a36.75615854934481,36.75615854934481 0 0,0 -0.5555031546143564,-0.3029046115411583 l 7.661789871423634 -13.767843266039955" fill="#ff9d0e" stroke="none" /><line stroke="#e1ed5e" stroke-width="0.3" x1="58.666819895761336" x2="56.23545636021788" y1="174.27360380694188" y2="178.64263932499728" /><path d="M 58.180547188652646 175.14741091055294 a86.0,86.0 0 0,1 -31.652253787137756,-30.449443065178592" fill="none" id="id68" stroke="none" /><text fill="#e1ed5e" style="font-size:6.75px; font-family:Arial;" text-anchor="middle"><textPath startOffset="22.20632615414155" xlink:href="#id68">August</textPath></text><path d="M 89.4739219176387 118.17145234162733 l -2.621895851883237 4.5262494866957 a26.230800347359438,26.230800347359438 0 0,0 -0.3887556112732444,-0.22968366751190783 l 2.6994193341848636 -4.4804472468900425" fill="#ff0000" stroke="none" /><path d="M 88.8546689885994 117.79835938074946 l -10.307596053165582 16.46055184167932 a40.421542248952505,40.421542248952505 0 0,0 -0.5865323577421407,-0.3743527015290599 l 10.589410212954647 -16.280684711326455" fill="#ffd013" stroke="none" /><path d="M 88.54995079064634 117.60387380957326 l -14.215576677490125 21.855732965445906 a47.07212464933535,47.07212464933535 0 0,0 -0.6754296257576687,-0.4476379259003999 l 14.589681001987756 -21.607797018454185" fill="#d8ff1c" stroke="none" /><path d="M 88.24862548938628 117.40417183066458 l -11.914042089813522 17.64508786113529 a42.29069103023742,42.29069103023742 0 0,0 -0.5998091032331764,-0.4125541705551827 l 12.216008077669589 -17.437392901215006" fill="#ffe915" stroke="none" /><path d="M 87.95078237400918 117.19931262002967 l -16.529237430189937 23.594189328882265 a49.80801034626886,49.80801034626886 0 0,0 -0.6979588713869916,-0.49797512277722106 l 16.932923629425815 -23.306169944260823" fill="#b6ff1f" stroke="none" /><path d="M 87.65650970185807 116.9893568818739 l -9.790369882166807 13.47528810053989 a37.65637210866132,37.65637210866132 0 0,0 -0.521119414013722,-0.3855116842816913 l 10.020874266599092 -13.304766467518434" fill="#ffa90f" stroke="none" /><path d="M 87.36589467227662 116.77436683061367 l -14.639603425964738 19.437077003227117 a45.333473876512144,45.333473876512144 0 0,0 -0.6192795853696353,-0.4748371786252136 l 14.972011739827861 -19.182200482774537" fill="#eeff19" stroke="none" /><path d="M 87.07902340077011 116.55440617244103 l -12.964787660711952 16.610537077179547 a42.07120454743168,42.07120454743168 0 0,0 -0.5670447247383784,-0.4504946237938338 l 13.248789878167688 -16.384908539380582" fill="#ffe615" stroke="none" /><path d="M 86.79598089348748 116.32954008644616 l -13.179321733809628 16.2989966031076 a41.9607206849235,41.9607206849235 0 0,0 -0.5577376462359483,-0.45898011226654245 l 13.457929508590265 -16.069721371983878" fill="#ffe415" stroke="none" /><path d="M 86.51685102203217 116.09983520530335 l -12.161409023328083 14.521584049824945 a39.941390465032285,39.941390465032285 0 0,0 -0.5232978776403026,-0.4459658040300779 l 12.409572377545443 -14.310093855571916" fill="#ffc912" stroke="none" /><path d="M 86.24171649860922 115.8653595955263 l -15.373110619584558 17.727496897186196 a44.46479653356768,44.46479653356768 0 0,0 -0.573929672708389,-0.50642620650634 l 15.675982645199536 -17.460247548907567" fill="#f9ff18" stroke="none" /><path d="M 85.97065885151581 115.62618273729859 l -12.440030953066351 13.855974765519797 a39.621020563222906,39.621020563222906 0 0,0 -0.5035651542336768,-0.45999482897789334 l 12.676695656766883 -13.639787169955328" fill="#ffc512" stroke="none" /><path d="M 85.70375840098266 115.38237550388516 l -16.112275625184903 17.33637978709915 a44.66760422908216,44.66760422908216 0 0,0 -0.5586942378377657,-0.5282802738116661 l 16.40830569741349 -17.056464876541558" fill="#f6ff19" stroke="none" /><path d="M 85.44109423537348 115.13401014063109 l -22.11022515890474 22.983620965492587 a52.8921446325407,52.8921446325407 0 0,0 -0.6506994326077747,-0.636846348882975 l 22.502574543888308 -22.599624513687044" fill="#91ff24" stroke="none" /><path d="M 85.18274418774928 114.88116024355367 l -12.819061525877865 12.874348067935893 a39.16802621581681,39.16802621581681 0 0,0 -0.4736708312179678,-0.47982605123968614 l 13.038772982151366 -12.651781522715542" fill="#ffbe11" stroke="none" /><path d="M 84.9287848128048 114.62390073753433 l -13.10641322615494 12.717414200763379 a39.26227509398835,39.26227509398835 0 0,0 -0.46646097209081994,-0.48908246435083347 l 13.323380749624716 -12.489924619830045" fill="#ffc011" stroke="none" /><path d="M 84.67929136418377 114.36230785411682 l -13.42091453008304 12.581357086461747 a39.3959640399968,39.3959640399968 0 0,0 -0.45953251914610993,-0.49873179075831037 l 13.63549345722488 -12.348474040902094" fill="#ffc212" stroke="none" /><path d="M 84.43433777217949 114.09645910891817 l -27.204647068374282 24.636869884435654 a57.70242743766981,57.70242743766981 0 0,0 -0.6603937042120405,-0.7419593274678253 l 27.62469962223466 -24.164936387226966" fill="#5bff2a" stroke="none" /><path d="M 84.19399662182784 113.82643327865904 l -13.655866491881287 11.945583105025678 a39.14330855613609,39.14330855613609 0 0,0 -0.43925780292550926,-0.5109560614201579 l 13.859466804377575 -11.708749944443989" fill="#ffbe11" stroke="none" /><path d="M 83.72743513129214 113.27417163493432 l -20.446496359102447 16.679011833328605 a47.38652400561895,47.38652400561895 0 0,0 -0.510154489888228,-0.6364961659743211 l 20.730568761045536 -16.324587833776025" fill="#d4ff1c" stroke="none" /><path d="M 83.50135304334701 112.99209946851258 l -18.3692218231103 14.465110848910243 a44.38092689047833,44.38092689047833 0 0,0 -0.4674646892246245,-0.6042611256970785 l 18.615493329552997 -14.14677172909991" fill="#faff18" stroke="none" /><path d="M 82.85270091963577 112.12312394758628 l -19.285928162568958 13.635132650529481 a44.619141971911375,44.619141971911375 0 0,0 -0.43798806901398896,-0.6309544801084426 l 19.517777138745082 -13.301136908234026" fill="#f7ff19" stroke="none" /><path d="M 82.6465618267979 111.8261652097733 l -19.172458064424546 13.065805996731601 a44.20125933169028,44.20125933169028 0 0,0 -0.4230626601240344,-0.6324212749899246 l 19.39452382995931 -12.733847807535856" fill="#fcff18" stroke="none" /><path d="M 82.44556493220864 111.52570212397912 l -25.902692071887394 17.006910896124417 a51.986843575939346,51.986843575939346 0 0,0 -0.4847033876451048,-0.7522704214757325 l 26.191600322909544 -16.558518874727238" fill="#9cff22" stroke="none" /><path d="M 82.24976979558568 111.22182372390057 l -37.49510097186755 23.70467361665599 a65.35982583557706,65.35982583557706 0 0,0 -0.5930170460391104,-0.9561322989531742 l 37.89758265757462 -23.05574498633755" fill="#34ff5d" stroke="none" /><path d="M 82.05923443525364 110.91462005526583 l -22.393803775743464 13.623714045107569 a47.21236410416587,47.21236410416587 0 0,0 -0.41641108264713494,-0.697928926437323 l 22.62499573408883 -13.236223024784135" fill="#d6ff1c" stroke="none" /><line stroke="#e1ed5e" stroke-width="0.3" x1="26.63291911575756" x2="22.317208475507996" y1="142.92168965132927" y2="145.44649492493687" /><path d="M 25.769776987707644 143.4266507060508 a86.0,86.0 0 0,1 -11.730757126820373,-40.83630448921669" fill="none" id="id69" stroke="none" /><text fill="#e1ed5e" style="font-size:6.75px; font-family:Arial;" text-anchor="middle"><textPath startOffset="21.46611528233685" xlink:href="#id69">September</textPath></text><path d="M 81.87401531095188 110.60418214915194 l -17.851090866059096 10.443361966377884 a41.68151963152337,41.68151963152337 0 0,0 -0.3569684810983324,-0.6224046357577668 l 18.028211343309806 -10.13453748476181" fill="#ffe115" stroke="none" /><path d="M 81.51974371655577 109.97397251340807 l -34.16286079731972 18.43802539021651 a59.820894350173255,59.820894350173255 0 0,0 -0.4812661931526598,-0.9103742675445028 l 34.47517949869727 -17.84723610758588" fill="#44ff2d" stroke="none" /><path d="M 81.35079622478065 109.6543875284942 l -20.676339106819043 10.703802307798135 a44.282662706498996,44.282662706498996 0 0,0 -0.344606268804864,-0.6799408611571992 l 20.857524045410173 -10.346307234938251" fill="#fbff18" stroke="none" /><path d="M 81.18737489456691 109.33194174019688 l -18.468936962957844 9.161456350497112 a41.616350671342744,41.616350671342744 0 0,0 -0.3128097821453003,-0.644480802416295 l 18.623900001717864 -8.842186592115532" fill="#ffe015" stroke="none" /><path d="M 81.02952815118164 109.00673069616217 l -21.431781450923104 10.175302196265166 a44.72462920564725,44.72462920564725 0 0,0 -0.32420113416792046,-0.6983004007108107 l 21.60375720193085 -9.804881728275529" fill="#f5ff19" stroke="none" /><path d="M 79.97269907076064 106.31721596034903 l -19.832126817127698 6.255652147010675 a41.79534654375913,41.79534654375913 0 0,0 -0.21051565229324537,-0.6879773320484536 l 19.936869241927074 -5.913347842410174" fill="#ffe215" stroke="none" /><path d="M 79.86692584326677 105.97154293290107 l -23.00482050679812 6.823313332608232 a44.99540313028619,44.99540313028619 0 0,0 -0.21385107327050493,-0.7444436406797638 l 23.118864216954726 -6.426312216423872" fill="#f2ff19" stroke="none" /><path d="M 79.76711848015287 105.62410040840567 l -41.389894024330594 11.505079968849838 a63.95916889832655,63.95916889832655 0 0,0 -0.28572060333015886,-1.0632726556648988 l 41.58180270400253 -10.790916380009401" fill="#32ff4c" stroke="none" /><path d="M 79.67330655649465 105.27499134158121 l -29.269483019216025 7.595739559316004 a51.23901280903749,51.23901280903749 0 0,0 -0.21420026625352678,-0.8556235870899948 l 29.39589459976461 -7.090788132828618" fill="#a5ff21" stroke="none" /><path d="M 79.58551787078972 104.9243191809786 l -23.39420869430022 5.643079744468413 a45.06518957820407,45.06518957820407 0 0,0 -0.17540967106450686,-0.7556602720482876 l 23.48787893129528 -5.239550815071551" fill="#f1ff19" stroke="none" /><path d="M 79.50377843672027 104.57218783832718 l -23.568632845354887 5.257564967710403 a45.14792834983649,45.14792834983649 0 0,0 -0.1626743522947834,-0.759960416840781 l 23.655641236374112 -4.851090731453458" fill="#f0ff19" stroke="none" /><path d="M 79.4281124754447 104.21870165774334 l -23.941812454224564 4.909776206459244 a45.440054950649674,45.440054950649674 0 0,0 -0.1505365556431475,-0.7675826540486091 l 24.022778942843377 -4.49692982534268" fill="#ecff1a" stroke="none" /><path d="M 79.23777060512086 103.15116336523772 l -15.686299850888075 2.3807700264810694 a36.86594053092857,36.86594053092857 0 0,0 -0.08982289678240886,-0.6282211308901935 l 15.724956798687082 -2.1104034236104754" fill="#ff9e0e" stroke="none" /><path d="M 79.18660465613746 102.79330883721812 l -30.00343301940882 4.026678646870092 a51.27243191214262,51.27243191214262 0 0,0 -0.10986581206143614,-0.8757386200663453 l 30.068300340717105 -3.5096222725163377" fill="#a4ff21" stroke="none" /><path d="M 79.10278846688536 102.07522291339032 l -24.06209154639913 2.389515158137482 a45.18044731344442,45.18044731344442 0 0,0 -0.07019192066587862,-0.7745619955495677 l 24.099658063342087 -1.9749717740393482" fill="#f0ff19" stroke="none" /><path d="M 79.07016306316243 101.71520430193888 l -23.96333657823181 1.963800201207058 a45.0436688380098,45.0436688380098 0 0,0 -0.056676606718298,-0.7733072688974417 l 23.993589743614443 -1.5510197958128555" fill="#f1ff19" stroke="none" /><path d="M 79.04373962182676 101.35467743843564 l -24.249211416969683 1.5675439708049823 a45.299824041447295,45.299824041447295 0 0,0 -0.04360355943001783,-0.7785708448374405 l 24.272601327287234 -1.1499014096321043" fill="#eeff19" stroke="none" /><path d="M 79.0235259727143 100.99374915477108 l -24.191363695620854 1.146052820603316 a45.218495298457654,45.218495298457654 0 0,0 -0.030141070945543268,-0.777807112266358 l 24.2075068994176 -0.7294684613229614" fill="#efff19" stroke="none" /><path d="M 79.0095281055655 100.63252640178507 l -31.440573230310918 0.9474295173278906 a52.454844900918644,52.454844900918644 0 0,0 -0.01942811883366674,-0.9027483408733918 l 31.45222341182959 -0.40609136066436985" fill="#96ff23" stroke="none" /><line stroke="#e1ed5e" stroke-width="0.3" x1="15.007084014347285" x2="10.007500721073583" y1="101.09737516637583" y2="101.16192664675087" /><path d="M 14.007167355692545 101.11028546245083 a86.0,86.0 0 0,1 10.666146001902534,-42.60595125391555" fill="none" id="id70" stroke="none" /><text fill="#e1ed5e" style="font-size:6.75px; font-family:Arial;" text-anchor="middle"><textPath startOffset="22.20632615414155" xlink:href="#id70">October</textPath></text><path d="M 79.00486145842228 99.54816195383935 l -20.790586571989106 -0.44743586695643894 a41.79540066607068,41.79540066607068 0 0,0 0.021670528228614924,-0.7191393314754575 l 20.779804349304847 0.8052453458568909" fill="#ffe215" stroke="none" /><path d="M 79.12142395522702 97.74499172005258 l -31.406272864199508 -3.39206108688568 a52.58892295786164,52.58892295786164 0 0,0 0.10495158081359239,-0.8991610515605549 l 31.343230930382326 3.9321658767710965" fill="#95ff23" stroke="none" /><path d="M 79.16333360222342 97.38593545837743 l -29.91611730071621 -3.7531272980964125 a51.15062252866312,51.15062252866312 0 0,0 0.11712031342193438,-0.8726823735235336 l 29.847080988236442 4.267528013684606" fill="#a6ff21" stroke="none" /><path d="M 79.21141760316559 97.0276538004421 l -18.38357969978413 -2.628479528418631 a39.570538689268844,39.570538689268844 0 0,0 0.10221278653928159,-0.6734545547937022 l 18.335611019805544 2.9445331956044254" fill="#ffc412" stroke="none" /><path d="M 79.26566170972629 96.67025291283419 l -19.805205020779855 -3.180536692583926 a41.058962076039634,41.058962076039634 0 0,0 0.11807020417541869,-0.69685702861438 l 19.74752295508421 3.520979509514134" fill="#ffd814" stroke="none" /><path d="M 79.32604984820605 96.31383870115002 l -15.476711647393294 -2.7594946824001876 a36.72079560069255,36.72079560069255 0 0,0 0.1163074827063811,-0.6213192233305704 l 15.426918440777051 3.025491983193331" fill="#ff9c0e" stroke="none" /><path d="M 79.46518482838121 95.60439243477599 l -30.954316288851036 -6.625967933895178 a52.65553897774031,52.65553897774031 0 0,0 0.1973469749038645,-0.8846677926409431 l 30.835674926945135 7.157813896086081" fill="#94ff23" stroke="none" /><path d="M 79.54389044137918 95.25157060432595 l -29.332236931002587 -6.8088243116272755 a51.112127322444,51.112127322444 0 0,0 0.20631580503982275,-0.8553122086862893 l 29.21068832570195 7.312721751972962" fill="#a6ff21" stroke="none" /><path d="M 79.62865764111835 94.90015583598534 l -30.506541057254047 -7.637130761158708 a52.447969943081596,52.447969943081596 0 0,0 0.22678419318036555,-0.8738920074185716 l 30.370560532203374 8.161119194126144" fill="#96ff23" stroke="none" /><path d="M 79.71946130924805 94.55025226153421 l -17.6380262510875 -4.739656827591904 a39.263743232902456,39.263743232902456 0 0,0 0.18101189438240406,-0.6511960930229005 l 17.553827586138734 5.042564224033748" fill="#ffc011" stroke="none" /><path d="M 79.81627453868168 94.20196356495316 l -24.69076547704218 -7.092742027206354 a46.689314691264094,46.689314691264094 0 0,0 0.22854220086465207,-0.7705306869016768 l 24.56501737906582 7.51670210085457" fill="#dcff1b" stroke="none" /><path d="M 79.91906864156998 93.8553929516997 l -15.50090407827846 -4.743154724964083 a37.21035298779576,37.21035298779576 0 0,0 0.19268675402248667,-0.6108696666550932 l 15.416961840487769 5.009274558045591" fill="#ffa30f" stroke="none" /><path d="M 80.02781315780177 93.51064311812611 l -22.93091267772908 -7.450705181591028 a45.110988447938496,45.110988447938496 0 0,0 0.24631181028909244,-0.7364409616054154 l 22.799263573668213 7.844319246118766" fill="#f1ff19" stroke="none" /><path d="M 80.14247586403 93.16781622104843 l -32.523989381203315 -11.19021037847002 a55.39521323648167,55.39521323648167 0 0,0 0.31798677588292973,-0.898991435980808 l 32.326549524510575 11.748399440877439" fill="#74ff27" stroke="none" /><path d="M 80.2630227832202 92.82701384747504 l -22.070159384642803 -8.020931772443447 a44.48248883235611,44.48248883235611 0 0,0 0.2677324990684479,-0.7173899892795105 l 21.928822297072728 8.399644898752298" fill="#f9ff18" stroke="none" /><path d="M 80.52162464483688 92.15188598940014 l -16.798492981964817 -6.768351349886864 a39.11076879816637,39.11076879816637 0 0,0 0.25697323349308804,-0.6222810678375509 l 16.679498061585527 7.056506988177727" fill="#ffbe11" stroke="none" /><path d="M 80.803312248108 91.48605970444005 l -14.693749604409627 -6.516838137220896 a37.07406161316501,37.07406161316501 0 0,0 0.26375137646499036,-0.5811411964708071 l 14.579395910981285 6.7688013425337745" fill="#ffa10e" stroke="none" /><path d="M 81.10775173730289 90.83032412892265 l -27.85739362606426 -13.521062533801222 a51.965359866800334,51.965359866800334 0 0,0 0.39751022551781184,-0.8013563582411509 l 27.620523387593035 13.998578480541335" fill="#9cff22" stroke="none" /><path d="M 81.26839172434947 90.50648371742162 l -30.582533522156044 -15.499778539171086 a55.28606847390273,55.28606847390273 0 0,0 0.43752490752507833,-0.8451588599574134 l 30.31119918147085 16.023910121388834" fill="#75ff27" stroke="none" /><path d="M 81.43458229118936 90.18545643968196 l -21.129029419605928 -11.16978798314626 a44.89979179413518,44.89979179413518 0 0,0 0.3670919332299967,-0.680165600672714 l 20.93362938715746 11.531834567151448" fill="#f3ff19" stroke="none" /><path d="M 81.6062741919709 89.86733742301443 l -20.71854412977576 -11.413349255307693 a44.654230321046136,44.654230321046136 0 0,0 0.3766740802543416,-0.6700611583491322 l 20.51901240822899 11.76829392359161" fill="#f6ff19" stroke="none" /><line stroke="#e1ed5e" stroke-width="0.3" x1="26.266209847984243" x2="21.928928074336255" y1="57.711370442889674" y2="55.22380399835377" /><path d="M 25.398753493254645 57.213857153982495 a86.0,86.0 0 0,1 29.58750427330803,-30.492523968695096" fill="none" id="id71" stroke="none" /><text fill="#e1ed5e" style="font-size:6.75px; font-family:Arial;" text-anchor="middle"><textPath startOffset="21.46611528233685" xlink:href="#id71">November</textPath></text><path d="M 81.78341655067845 89.55222093294921 l -20.97245078184327 -12.028354980662183 a45.17695215153596,45.17695215153596 0 0,0 0.3926959786752346,-0.6712447218277314 l 20.762295128697712 12.387579114843806" fill="#f0ff19" stroke="none" /><path d="M 81.96595687620814 89.24020034530311 l -22.814064585018162 -13.611743221366831 a47.56616450325123,47.56616450325123 0 0,0 0.4255681355371353,-0.6995221192160804 l 22.576380651194807 14.002433113789987" fill="#d1ff1c" stroke="none" /><path d="M 82.15384107792192 88.93136811851018 l -16.688376781017556 -10.350546585134639 a40.63761019564876,40.63761019564876 0 0,0 0.3738126116339546,-0.5912817803120599 l 16.507736573137638 10.636276013160915" fill="#ffd213" stroke="none" /><path d="M 82.34701348167596 88.62581576622439 l -26.55867910309949 -17.112306113801942 a52.5942155502218,52.5942155502218 0 0,0 0.49689853932737127,-0.756810565644853 l 26.260183928414197 17.56693474342446" fill="#94ff23" stroke="none" /><path d="M 82.54541684631803 88.32363383020206 l -52.36374946104589 -35.02909850939381 a84.0,84.0 0 0,0 0.8143021373250385,-1.194887906918337 l 51.75302285805211 35.92526443958256" fill="#4dd2ff" stroke="none" /><path d="M 82.7489923806493 88.02491185347247 l -15.059094309124267 -10.453533250796946 a39.331739656579686,39.331739656579686 0 0,0 0.3908589384517869,-0.5528422496415093 l 14.876922750868603 10.711202000770243" fill="#ffc111" stroke="none" /><line stroke="#e1ed5e" stroke-width="0.3" x1="56.762969772571076" x2="54.21961505331055" y1="26.818313649435495" y2="22.513508569990535" /><path d="M 56.25429882871897 25.957352633546506 a86.0,86.0 0 0,1 42.265352541879196,-11.944610805530505" fill="none" id="id72" stroke="none" /><text fill="#e1ed5e" style="font-size:6.75px; font-family:Arial;" text-anchor="middle"><textPath startOffset="22.20632615414155" xlink:href="#id72">December</textPath></text></svg>