<?xml version="1.0" encoding="utf-8" ?>
<svg baseProfile="full" height="200mm" version="1.1" viewBox="0,0,200,200" width="200mm" xmlns="http://www.w3.org/2000/svg" xmlns:ev="http://www.w3.org/2001/xml-events" xmlns:xlink="http://www.w3.org/1999/xlink"><defs /><rect fill="#1a1a1a" height="200" width="200" x="0" y="0" /><rect fill="#1a1a1a" height="200" width="180" x="10" y="0" /><text alignment-baseline="middle" fill="#e1ed5e" style="dominant-baseline: central; font-size:9.0px; font-family:Arial;" text-anchor="middle" x="100.0" y="100.0">2021</text><line stroke="#e1ed5e" stroke-width="0.3" x1="100.0" x2="100.0" y1="15.0" y2="10.0" /><path d="M 100.0 14.0 a86.0,86.0 0 0,1 42.46469731375804,11.215312516191453" fill="none" id="id37" stroke="none" /><text fill="#e1ed5e" style="font-size:6.75px; font-family:Arial;" text-anchor="middle"><textPath startOffset="22.20632615414155" xlink:href="#id37">January</textPath></text><path d="M 100.0 79.0 l 0.0 -35.67179103637463 a56.67179103637463,56.67179103637463 0 0,0 0.9755117230981561,0.0083965373807482 l -0.6140312438256277 35.66650587560244" fill="red" stroke="none" /><path d="M 100.36148047927253 79.00311137660856 l 0.7255144275222474 -42.14209757607219 a63.14834230780295,63.14834230780295 0 0,0 1.086672806744621,0.028065552601149978 l -1.450813869461736 42.12336523132868" fill="red" stroke="none" /><path d="M 100.72285384407766 79.0124445844662 l 0.7891422109154017 -22.912191749435426 a43.92577754825221,43.92577754825221 0 0,0 0.7554379645703885,0.03253074786037162 l -1.1834210078751217 22.89521327505086" fill="red" stroke="none" /><path d="M 101.08401301168833 79.027996857942 l 0.4149768352241046 -8.028405008392488 a29.039122635745407,29.039122635745407 0 0,0 0.4989722626370296,0.03009936951640878 l -0.5531111467007461 8.020072369495775" fill="red" stroke="none" /><path d="M 101.44485096284872 79.0497635885617 l 0.35983130841451083 -5.217528432592042 a26.229921750410963,26.229921750410963 0 0,0 0.4501676729098202,0.034941675418325636 l -0.4495891706866722 5.210561494985252" fill="red" stroke="none" /><path d="M 102.16513564639614 79.11191278185805 l 0.4561268493409736 -4.400471364198019 a25.42404791224242,25.42404791224242 0 0,0 0.43491259722102527,0.048867497756925095 l -0.5318061500717242 4.391967912970493" fill="red" stroke="none" /><path d="M 102.88285421437855 79.19881850522331 l 2.463560023229629 -17.77577198003484 a38.94567350294346,38.94567350294346 0 0,0 0.6632467106071597,0.09774532436529133 l -2.7691757142654443 17.730732171508578" fill="red" stroke="none" /><path d="M 103.2404852339499 79.25152402106235 l 0.6051174588293001 -3.8745015491558386 a24.921470310150394,24.921470310150394 0 0,0 0.4232743142717997,0.06984388860912104 l -0.671720979239975 3.863511397607093" fill="red" stroke="none" /><path d="M 103.59715602781102 79.31037775812273 l 4.274944471811121 -24.58803164026114 a45.95689183731723,45.95689183731723 0 0,0 0.778214045537918,0.14221364260305874 l -4.69755363845194 24.510802516307344" fill="red" stroke="none" /><path d="M 103.95276090670814 79.375362276772 l 3.672448182849293 -19.162027533730246 a40.51077073975165,40.51077073975165 0 0,0 0.6837322823116331,0.13715026361235844 l -4.001746874628052 19.09597331404068" fill="red" stroke="none" /><path d="M 104.307194497241 79.44645832069477 l 0.8855330200557969 -4.2256832951882 a25.31747241344305,25.31747241344305 0 0,0 0.42576426613570256,0.09305557774514128 l -0.9581400103450274 4.209814219347189" fill="red" stroke="none" /><path d="M 105.01212808612495 79.60689891045804 l 5.25057767577237 -21.36329309239621 a42.99906492742232,42.99906492742232 0 0,0 0.7172471542348345,0.18284226978853002 l -5.617533718692229 21.26974782643881" fill="red" stroke="none" /><path d="M 105.71112130821622 79.79150937346287 l 9.981056052187713 -35.31742135881467 a57.700704780058,57.700704780058 0 0,0 0.9534623334729873,0.278341800799449 l -10.587508603384126 35.14038122909652" fill="red" stroke="none" /><path d="M 106.0581310904928 79.89281104454417 l 2.4204716332948357 -8.033645981738099 a29.390360581493603,29.390360581493603 0 0,0 0.48314201781132915,0.1501145767488137 l -2.5583990238168832 7.990791270106765" fill="red" stroke="none" /><path d="M 106.40334571778207 80.00007090966166 l 1.371522463663373 -4.283753092215466 a25.497956694255606,25.497956694255606 0 0,0 0.41685173956461397,0.13742946462962233 l -1.4450570254704045 4.259509903326608" fill="red" stroke="none" /><path d="M 106.74666289553966 80.11325718540242 l 1.400434994108699 -4.127980156651135 a25.359063930069134,25.359063930069134 0 0,0 0.4121668990210724,0.1437969379592419 l -1.471283897193045 4.103262365519686" fill="red" stroke="none" /><path d="M 107.08798089147638 80.2323363322302 l 4.428443306939148 -12.350481639789704 a34.12042327280476,34.12042327280476 0 0,0 0.5511547917264802,0.2029949611794883 l -4.640380424438204 12.27242341080389" fill="red" stroke="none" /><path d="M 107.4271985657038 80.35727306442388 l 3.3187304290131037 -8.777053018470692 a30.38352979158179,30.38352979158179 0 0,0 0.4876076688808201,0.18918420008610728 l -3.4693212628935903 8.718626114494038" fill="red" stroke="none" /><path d="M 110.05341064243156 81.56283822128135 l 6.322742701121401 -11.59541117059085 a34.20721906684549,34.20721906684549 0 0,0 0.5145350706215366,0.28633820972558416 l -6.521401860814972 11.484857563305086" fill="red" stroke="none" /><path d="M 110.36928655335952 81.73862282372117 l 12.561240114014122 -22.121632220636965 a46.43916990208291,46.43916990208291 0 0,0 0.6917297184271102,0.400694500976884 l -12.94016656490656 21.90213356227003" fill="red" stroke="none" /><line stroke="#e1ed5e" stroke-width="0.3" x1="143.23703022742887" x2="145.7803849466894" y1="26.81831364943548" y2="22.513508569990506" /><path d="M 143.74570117128098 25.957352633546492 a86.0,86.0 0 0,1 28.547481713284135,27.462654790039103" fill="none" id="id38" stroke="none" /><text fill="#e1ed5e" style="font-size:6.75px; font-family:Arial;" text-anchor="middle"><textPath startOffset="19.985693538727396" xlink:href="#id38">February</textPath></text><path d="M 110.68208982089419 81.91981866633111 l 2.2750369507775465 -3.8506585603126795 a25.472512098978886,25.472512098978886 0 0,0 0.3755836197416215,0.22628492846052253 l -2.3409826367368054 3.8109270223935425" fill="red" stroke="none" /><path d="M 110.99172775467656 82.1063720568725 l 8.102152258519231 -13.189636905884173 a36.479386064353136,36.479386064353136 0 0,0 0.5322183439683792,0.3332750781671943 l -8.327989754859873 13.048217486394034" fill="red" stroke="none" /><path d="M 111.60114157652 82.49532879139004 l 7.699202342060916 -11.617133079308875 a34.936839587451985,34.936839587451985 0 0,0 0.49842443488915733,0.33653840335589436 l -7.898031471356615 11.482882763654311" fill="red" stroke="none" /><path d="M 112.19680574252982 82.90503203632743 l 22.84003009119748 -32.01244579446362 a60.32510216528723,60.32510216528723 0 0,0 0.8401123176035453,0.6103773270401188 l -23.387687725154812 31.61454923260683" fill="red" stroke="none" /><path d="M 112.48926042617603 83.11751280151076 l 10.348104179100346 -13.988157054211174 a38.39976430515057,38.39976430515057 0 0,0 0.5280037922801801,0.39768150967884625 l -10.58735412513891 13.80795895502648" fill="red" stroke="none" /><path d="M 112.77801427241765 83.33499621200491 l 7.934746628151995 -10.348445368414461 a34.04034223462054,34.04034223462054 0 0,0 0.4619233022903973,0.36053846434366743 l -8.111702485601823 10.210328514847571" fill="red" stroke="none" /><path d="M 113.06298171725822 83.55741782278167 l 27.219157885298642 -34.261185540236646 a64.7574152642422,64.7574152642422 0 0,0 0.8668137785012584,0.7009031260236682 l -27.804875062364392 33.78757631694885" fill="red" stroke="none" /><path d="M 113.34407831869373 83.78471172551755 l 21.521063132873238 -26.15169323339502 a54.868380790092615,54.868380790092615 0 0,0 0.7241122950110152,0.6064232227169377 l -21.96803296484337 25.777368853284262" fill="red" stroke="none" /><path d="M 113.6212207817346 84.01681056812373 l 3.446913631527808 -4.044620846459085 a26.314148226651533,26.314148226651533 0 0,0 0.34221700304889463,0.2967672127816553 l -3.516024433223467 3.9846886402577586" fill="red" stroke="none" /><path d="M 114.16331599549186 84.49514656593476 l 19.686735759838466 -21.55144689623697 a50.18959451926362,50.18959451926362 0 0,0 0.6328480449635415,0.5881632875221017 l -20.054791688596858 21.209379022640228" fill="red" stroke="none" /><path d="M 114.42810811169701 84.74124197986012 l 12.253449690460123 -12.95890093775417 a38.83480145196921,38.83480145196921 0 0,0 0.4817674528201319,0.4634599079091143 l -12.474700386892673 12.746057943082754" fill="red" stroke="none" /><path d="M 114.68862486808459 84.99185889309783 l 3.1505860582119034 -3.2191195946342464 a25.504322754283642,25.504322754283642 0 0,0 0.31110925860121036,0.30977325657457994 l -3.2055311169804366 3.1644104874095476" fill="red" stroke="none" /><path d="M 114.94478906791727 85.2469230424477 l 23.448876426771367 -23.148073681076262 a53.94970592922689,53.94970592922689 0 0,0 0.6467175688140321,0.666499302742083 l -23.84385825928851 22.741010182784066" fill="red" stroke="none" /><path d="M 115.19652480421416 85.50635884689758 l 17.253564734953812 -16.45553697980323 a44.84261297251024,44.84261297251024 0 0,0 0.5279313950017032,0.5631604032358014 l -17.53426345192598 16.156107159689373" fill="red" stroke="none" /><path d="M 115.4437574822437 85.77008943001954 l 15.08526293603533 -13.899592942405961 a41.51252889855132,41.51252889855132 0 0,0 0.4796799586354321,0.5296745910361487 l -15.322286535286796 13.637865564100263" fill="red" stroke="none" /><path d="M 115.68641384162765 86.03803664274999 l 9.023080458701122 -8.03114848338285 a33.07954166871975,33.07954166871975 0 0,0 0.3749142888700431,0.42859184266642975 l -9.159986611149012 7.874641084513472" fill="red" stroke="none" /><path d="M 115.9244219780498 86.31012108654704 l 3.6287510099269356 -3.1195582484215 a25.785339858081176,25.785339858081176 0 0,0 0.28644981507228295,0.33906623012290477 l -3.6819114384863356 3.0566330686694885" fill="red" stroke="none" /><path d="M 116.15771136456269 86.58626213691792 l 3.486716843635286 -2.8945872771247183 a25.53164758698007,25.53164758698007 0 0,0 0.2778104749237459,0.3405627935762024 l -3.5360258106354405 2.834140313940415" fill="red" stroke="none" /><path d="M 116.60985879189232 87.15038557335679 l 9.734795215613273 -7.530971010061826 a33.307792744611795,33.307792744611795 0 0,0 0.34691503101310994,0.4564995158904061 l -9.862986186850497 7.362286718290386" fill="red" stroke="none" /><path d="M 116.82858285166822 87.43820079747576 l 23.725173616561168 -17.70980180822081 a50.60609638608966,50.60609638608966 0 0,0 0.5150673729736389,0.7025513178916873 l -24.026503602048436 17.298788046657627" fill="red" stroke="none" /><path d="M 117.04232023915458 87.72973835380427 l 16.963570474360846 -12.213562780956986 a41.90296244657644,41.90296244657644 0 0,0 0.4164104502586816,0.588983051039115 l -17.171293544423413 11.919753229586076" fill="red" stroke="none" /><path d="M 117.45458315368197 88.32363383020206 l 13.265565453296965 -8.87409331510978 a36.96009896463622,36.96009896463622 0 0,0 0.3491908567660905,0.5318416314624066 l -13.41635294542098 8.6444336196697" fill="red" stroke="none" /><path d="M 117.65298651832404 88.62581576622439 l 11.194555384175057 -7.212883509690706 a34.31704767483134,34.31704767483134 0 0,0 0.3156717423375861,0.4993168876451642 l -11.317054722758598 7.019118974331335" fill="red" stroke="none" /><line stroke="#e1ed5e" stroke-width="0.3" x1="172.23445277983987" x2="176.4835382374775" y1="55.19839476539836" y2="52.563006222186495" /><path d="M 173.08426987136738 54.67131705675599 a86.0,86.0 0 0,1 12.851231095245387,41.99856678651699" fill="none" id="id39" stroke="none" /><text fill="#e1ed5e" style="font-size:6.75px; font-family:Arial;" text-anchor="middle"><textPath startOffset="22.20632615414155" xlink:href="#id39">March</textPath></text><path d="M 117.84615892207809 88.93136811851018 l 16.75300324032515 -10.390629523485863 a40.71365768863508,40.71365768863508 0 0,0 0.3642596701751021,0.5987471221364667 l -16.929378708786476 10.100714628142315" fill="red" stroke="none" /><path d="M 118.03404312379186 89.2402003453031 l 13.983903679278722 -8.343331606050919 a37.28375707261298,37.28375707261298 0 0,0 0.3240851977620957,0.5539666567357768 l -14.125448551511145 8.101385536961248" fill="red" stroke="none" /><path d="M 118.21658344932153 89.55222093294921 l 17.668809464002162 -10.133613592870844 a41.368528477158804,41.368528477158804 0 0,0 0.34895803384309837,0.620757404423086 l -17.840625139137693 9.827972678512964" fill="red" stroke="none" /><path d="M 118.3937258080291 89.86733742301442 l 18.12236578996333 -9.983176848610485 a41.6901899898446,41.6901899898446 0 0,0 0.3408508553952262,0.6315448687739208 l -18.29152474457702 9.669750996504105" fill="red" stroke="none" /><path d="M 118.56541770881063 90.18545643968196 l 24.44734333614564 -12.924003104588582 a48.65325392142487,48.65325392142487 0 0,0 0.38503389751459005,0.7437629361700585 l -24.666186666820344 12.50126744615818" fill="red" stroke="none" /><path d="M 118.73160827565052 90.50648371742162 l 8.328913948554334 -4.22124352715511 a30.337542743033193,30.337542743033193 0 0,0 0.2320677368222038,0.4678343964683127 l -8.400341698329946 4.077249542187848" fill="red" stroke="none" /><path d="M 118.89224826269711 90.83032412892265 l 20.172183131816634 -9.790914154775413 a43.42273338131926,43.42273338131926 0 0,0 0.3205875719889335,0.6752391866327851 l -20.337728897647324 9.442232552502087" fill="red" stroke="none" /><path d="M 119.04729006885535 91.15688171328212 l 33.01021036244273 -15.32570742868221 a57.394385506040436,57.394385506040436 0 0,0 0.40831372447213815,0.8996651678391723 l -33.26912640387821 14.755220252000974" fill="red" stroke="none" /><path d="M 119.196687751892 91.48605970444005 l 38.65933985490756 -17.1458386803215 a63.290948701452095,63.290948701452095 0 0,0 0.4331189195842375,0.9996981821046239 l -38.94874948433447 16.47784135363027" fill="red" stroke="none" /><path d="M 119.34039704204932 91.81776055985345 l 5.118001969183958 -2.1652460120626036 a26.55717864112032,26.55717864112032 0 0,0 0.17449117666493763,0.42254422481012816 l -5.154514832735094 2.076827216799172" fill="red" stroke="none" /><path d="M 119.47837535516314 92.15188598940014 l 34.92707291346263 -14.072613618092634 a58.65552916035653,58.65552916035653 0 0,0 0.36926853762386386,0.9397481502079186 l -35.164135000968194 13.46931646298893" fill="red" stroke="none" /><path d="M 119.61058180528143 92.48833698450437 l 37.18585545283753 -14.243718920640037 a60.82048937983467,60.82048937983467 0 0,0 0.36606813250936826,0.9808805975001503 l -37.42552817384853 13.601515186110554" fill="red" stroke="none" /><path d="M 119.7369772167798 92.82701384747503 l 27.35631898165312 -9.94207446683516 a50.106924140658535,50.106924140658535 0 0,0 0.28763025405966514,0.8131694609332378 l -27.523402316522596 9.469707379475308" fill="red" stroke="none" /><path d="M 119.85752413597 93.16781622104841 l 34.48394046174193 -11.86455154448371 a57.467927458530916,57.467927458530916 0 0,0 0.3137822897010838,0.9381691072425573 l -34.68306004521479 11.26920933431884" fill="red" stroke="none" /><path d="M 119.97218684219823 93.5106431181261 l 41.31800510072018 -13.425033666275677 a64.44432154429131,64.44432154429131 0 0,0 0.333712693820006,1.0579604346265123 l -41.542973278308395 12.711823065222745" fill="red" stroke="none" /><path d="M 120.08093135843002 93.85539295169968 l 40.076539457663024 -12.2631058503999 a62.91077164643636,62.91077164643636 0 0,0 0.30794553968599914,1.03823927189307 l -40.28169089446073 11.5714371917603" fill="red" stroke="none" /><path d="M 120.18372546131832 94.20196356495316 l 39.543546748955656 -11.35939573003129 a62.14277531764592,62.14277531764592 0 0,0 0.2864877506890573,1.0306488674910392 l -39.733221270211075 10.677035559121299" fill="red" stroke="none" /><path d="M 120.28053869075195 94.5502522615342 l 40.13707511650953 -10.785558395673927 a62.56095606232875,62.56095606232875 0 0,0 0.27051258534096545,1.0423953403471498 l -40.3167840337208 10.093066629777928" fill="red" stroke="none" /><path d="M 120.37134235888165 94.90015583598534 l 26.123151707479533 -6.539775358641243 a47.92930962489536,47.92930962489536 0 0,0 0.19346825534926354,0.8020508208836762 l -26.231852763089616 6.08913930609816" fill="red" stroke="none" /><path d="M 120.45610955862082 95.25157060432595 l 11.355865264212637 -2.6360107370062744 a32.65779689755159,32.65779689755159 0 0,0 0.12239771066594063,0.5486849371361744 l -11.399557361880616 2.440147630320136" fill="red" stroke="none" /><path d="M 120.53481517161879 95.60439243477599 l 15.152910199732114 -3.2435766357010745 a36.496176202947986,36.496176202947986 0 0,0 0.12620847677468655,0.6154373547815933 l -15.206497972421797 2.982263624756069" fill="red" stroke="none" /><path d="M 120.6074358757038 95.95851677861258 l 36.973985324662905 -7.251253490184488 a58.678326236276746,58.678326236276746 0 0,0 0.18585459008509803,0.9928426518834664 l -37.09332563865786 6.613732760838459" fill="red" stroke="none" /><path d="M 120.67395015179393 96.31383870115 l 38.32909329222226 -6.8340698935825115 a59.93358324010581,59.93358324010581 0 0,0 0.17234654877584524,1.0171990868537821 l -38.44105170251832 6.173285018412892" fill="red" stroke="none" /><path d="M 120.73433829027371 96.67025291283417 l 40.00457354568163 -6.424372476816872 a61.517137933135565,61.517137933135565 0 0,0 0.15890200882639488,1.0469657000191126 l -40.10923144794733 5.734807664405677" fill="red" stroke="none" /><path d="M 120.78858239683441 97.02765380044208 l 41.015902794160915 -5.8644433018302085 a62.43303002750871,62.43303002750871 0 0,0 0.14295380355547,1.0651718813420197 l -41.11077259677422 5.157553078423525" fill="red" stroke="none" /><path d="M 120.83666639777658 97.38593545837742 l 13.679806700942528 -1.7162005164607628 a34.787039406190594,34.787039406190594 0 0,0 0.06942440674112808,0.5947859201872776 l -13.707321460687245 1.4804708579486325" fill="red" stroke="none" /><path d="M 120.87857604477298 97.74499172005257 l 48.303650530125026 -5.217076665742667 a69.58457104341547,69.58457104341547 0 0,0 0.11836956599237908,1.1919653757024844 l -48.38629722179963 4.384835759335747" fill="red" stroke="none" /><path d="M 120.91429891909075 98.10471618934814 l 49.54969270448202 -4.490264329150284 a70.7527338028197,70.7527338028197 0 0,0 0.09947671365286352,1.2138678718409237 l -49.61964390195438 3.6366825401015914" fill="red" stroke="none" /><path d="M 120.94382443527127 98.46500227214037 l 36.91740907596109 -2.7057206875087574 a58.01642901902704,58.01642901902704 0 0,0 0.06442423032180897,0.9966143282391037 l -36.95851389728732 2.0698472950166185" fill="red" stroke="none" /><path d="M 120.96714384426684 98.82574320788733 l 32.76524385176233 -1.8350048258327816 a53.816587991079736,53.816587991079736 0 0,0 0.043838458938662804,0.9253605810964258 l -32.79197591893449 1.270733138113356" fill="red" stroke="none" /><path d="M 120.98425023603335 99.18683210126433 l 10.09928279797619 -0.3913607815000957 a31.10686283150188,31.10686283150188 0 0,0 0.01612862033503478,0.535230388617969 l -10.104523112766872 0.21746024545712755" fill="red" stroke="none" /><line stroke="#e1ed5e" stroke-width="0.3" x1="184.98032266829074" x2="189.97916517819016" y1="98.17113171792111" y2="98.06355123074" /><path d="M 185.9800911702706 98.14961562048488 a86.0,86.0 0 0,1 -9.607161424134198,41.387399972396054" fill="none" id="id40" stroke="none" /><text fill="#e1ed5e" style="font-size:6.75px; font-family:Arial;" text-anchor="middle"><textPath startOffset="21.466115282336823" xlink:href="#id40">April</textPath></text><path d="M 120.99513854157772 99.54816195383933 l 5.8791773434375125 -0.12652624314101082 a26.880538676498297,26.880538676498297 0 0,0 0.005973870603580447,0.462682861683692 l -5.880484221158809 0.025307123396856125" fill="red" stroke="none" /><path d="M 120.99980553446 99.90962569577887 l 21.779544520880513 -0.09372997188463329 a42.7797462070761,42.7797462070761 0 0,0 -0.0031691698632724512,0.7364034656528514 l -21.777931053727738 -0.28118297197190284" fill="red" stroke="none" /><path d="M 120.99824983174949 100.27111621757518 l 45.18655746569195 0.5834204585383513 a66.19032368806094,66.19032368806094 0 0,0 -0.024515437547847817,1.1391360512863824 l -45.16981996545909 -1.3611463256148486" fill="red" stroke="none" /><path d="M 120.9904718944345 100.63252640178507 l 4.127434588493051 0.12437601984331599 a25.12930813534191,25.12930813534191 0 0,0 -0.016750319848556895,0.43225132691816837 l -4.124682135793291 -0.1954045937754905" fill="red" stroke="none" /><path d="M 120.9764740272857 100.99374915477107 l 39.002622074795674 1.847728205906621 a60.04636510908847,60.04636510908847 0 0,0 -0.05779791213306751,1.0320205475771345 l -38.965037811775076 -2.5188204698191785" fill="red" stroke="none" /><path d="M 120.95626037817324 101.35467743843564 l 8.345664769456103 0.5394895638777556 a29.363083727529805,29.363083727529805 0 0,0 -0.03694636763373928,0.5041038323366211 l -8.335141843158027 -0.683066532711147" fill="red" stroke="none" /><path d="M 120.92983693683757 101.71520430193887 l 14.147033478331153 1.1593522087598827 a35.194458558922875,35.194458558922875 0 0,0 -0.054677781871171435,0.6033647667222996 l -14.124981100182907 -1.4026983640307529" fill="red" stroke="none" /><path d="M 120.89721153311464 102.0752229133903 l 39.777831231774535 3.950185731064731 a60.973489024770466,60.973489024770466 0 0,0 -0.11270716730440294,1.0435283915723719 l -39.70394176296908 -4.634310444521894" fill="red" stroke="none" /><path d="M 120.8583938346157 102.4346265915055 l 45.13466999016453 5.268194120225979 a66.4410860830751,66.4410860830751 0 0,0 -0.14236898084469632,1.1348208554219947 l -45.03729950007298 -6.044332729935368" fill="red" stroke="none" /><path d="M 120.81339534386255 102.79330883721812 l 19.480153446503447 2.614378090335395 a40.65480478403553,40.65480478403553 0 0,0 -0.0990543651195235,0.69278599893903 l -19.432265030367322 -2.9493095612548346" fill="red" stroke="none" /><path d="M 120.76222939487914 103.15116336523771 l 30.280784284458885 4.595831030139134 a51.627562092656376,51.627562092656376 0 0,0 -0.1409143469407006,0.8774737729129908 l -30.197188183156896 -5.11638403274533" fill="red" stroke="none" /><path d="M 120.70491114924044 103.5080841355445 l 40.751868256613506 6.904689495857598 a62.33266871904825,62.33266871904825 0 0,0 -0.18834426612935126,1.056334667327016 l -40.626977548144964 -7.605142913917832" fill="red" stroke="none" /><path d="M 120.64145759157962 103.86396538481128 l 42.07276594553475 7.875786413607254 a63.80357048121697,63.80357048121697 0 0,0 -0.21137231784620014,1.0777828948697425 l -41.93096369471289 -8.598833035544942" fill="red" stroke="none" /><path d="M 120.5718875245553 104.21870165774334 l 42.83428532946418 8.784078287029617 a64.725690743985,64.725690743985 0 0,0 -0.2332157909222877,1.0895065336543561 l -42.67673549981745 -9.520098640100143" fill="red" stroke="none" /><path d="M 120.49622156327973 104.57218783832717 l 39.79756525942719 8.877828692102987 a61.77575312443282,61.77575312443282 0 0,0 -0.2404530999811915,1.0358656614766721 l -39.63885159351544 -9.561563010928223" fill="red" stroke="none" /><path d="M 120.41448212921028 104.9243191809786 l 39.36278425469262 9.49497088857104 a61.491767761562215,61.491767761562215 0 0,0 -0.25706102254575686,1.0268310028676464 l -39.19351191785181 -10.171129730836082" fill="red" stroke="none" /><path d="M 120.32669344350535 105.2749913415812 l 12.122702573469471 3.145969180346331 a33.524258052615025,33.524258052615025 0 0,0 -0.14976072081573719,0.5573153545109782 l -12.066753776311955 -3.354175468032858" fill="red" stroke="none" /><path d="M 120.23288151984713 105.62410040840565 l 28.284574561195203 7.862216125031714 a50.35696851693852,50.35696851693852 0 0,0 -0.23933315438501634,0.8331501079743527 l -28.145048769924088 -8.347923708510649" fill="red" stroke="none" /><path d="M 120.13307415673323 105.97154293290107 l 36.18597826006831 10.732892605809825 a58.74413870160483,58.74413870160483 0 0,0 -0.2958836736579116,0.9669649652288386 l -35.99586781390427 -11.354184543590721" fill="red" stroke="none" /><path d="M 120.02730092923936 106.31721596034902 l 38.52362639564377 12.151515991941832 a61.39466711799417,61.39466711799417 0 0,0 -0.3265838125408556,1.0051216233649276 l -38.30875033208667 -12.812836515284554" fill="red" stroke="none" /><path d="M 119.9155931802556 106.66101706037122 l 40.4737774068807 13.5369566632933 a63.677580218255194,63.677580218255194 0 0,0 -0.356622252238798,1.0365111961819244 l -40.23476432369867 -14.231640562564525" fill="red" stroke="none" /><path d="M 119.79798401119884 107.00284435728193 l 41.9730864689421 14.846511219045022 a65.52144295849496,65.52144295849496 0 0,0 -0.3852527899668594,1.0600502184993228 l -41.711309417970014 -15.566809234550474" fill="red" stroke="none" /><path d="M 119.67450827220406 107.3425965602758 l 41.03384773516788 15.313978121668773 a64.7983399898203,64.7983399898203 0 0,0 -0.3989902873108855,1.0416377375665142 l -40.764163168263494 -16.018039426068434" fill="red" stroke="none" /><path d="M 119.54520255179757 107.68017299344265 l 18.075608697813646 7.102704686384424 a40.4210206646938,40.4210206646938 0 0,0 -0.2600368676594309,0.6453901800624061 l -17.950669215896824 -7.412794234289644" fill="red" stroke="none" /><path d="M 119.41010516605496 108.01547362559984 l 12.933006478807444 5.340732131214014 a34.992357781241054,34.992357781241054 0 0,0 -0.2346971075835941,0.5547546339228092 l -12.83915839003154 -5.562561290802987" fill="red" stroke="none" /><path d="M 119.26925614724726 108.34839909993367 l 41.5312665693908 17.993408038043988 a66.26156024355926,66.26156024355926 0 0,0 -0.46243916158616466,1.0426782290035308 l -41.21538632307337 -18.705634603540208" fill="red" stroke="none" /><path d="M 119.12269723197855 108.67885076344098 l 34.29048191889994 15.56276144365919 a58.65682798620522,58.65682798620522 0 0,0 -0.42519324357905686,0.9158284197025797 l -34.01751405848105 -16.150709930640602" fill="red" stroke="none" /><path d="M 118.97047184881838 109.00673069616215 l 4.98009854300574 2.3644328288015717 a26.512887092981543,26.512887092981543 0 0,0 -0.19928442311280528,0.4105849377087286 l -4.93866086327822 -2.4498067224755755" fill="red" stroke="none" /><path d="M 118.81262510543309 109.33194174019688 l 39.677640676276525 19.68196512205755 a65.2910252839286,65.2910252839286 0 0,0 -0.5080926763294263,1.0025150531626512 l -39.33296933016083 -20.362034386922897" fill="red" stroke="none" /><path d="M 118.64920377521936 109.65438752849418 l 12.819961061428025 6.636683993538269 a35.43596120965341,35.43596120965341 0 0,0 -0.28508651261956797,0.5392762442188291 l -12.703822040583564 -6.8563752528432325" fill="red" stroke="none" /><line stroke="#e1ed5e" stroke-width="0.3" x1="174.80103733775053" x2="179.2010983576182" y1="140.37084112569926" y2="142.7455964860345" /><path d="M 175.68104954172406 140.8457921977663 a86.0,86.0 0 0,1 -30.038265399797805,32.042727171017184" fill="none" id="id41" stroke="none" /><text fill="#e1ed5e" style="font-size:6.75px; font-family:Arial;" text-anchor="middle"><textPath startOffset="22.206326154141568" xlink:href="#id41">May</textPath></text><path d="M 118.48025628344425 109.97397251340804 l 35.938415173182676 19.396309207783617 a61.83854179624927,61.83854179624927 0 0,0 -0.5136238330659378,0.9323764491420033 l -35.59921493066523 -20.012056175323426" fill="red" stroke="none" /><path d="M 118.30583269289576 110.29060199501025 l 10.499963760950846 5.9025420934776225 a33.045299587247975,33.045299587247975 0 0,0 -0.28300624606253066,0.49344524467749407 l -10.396805518735937 -6.082407184013432" fill="red" stroke="none" /><path d="M 118.12598468904814 110.60418214915192 l 6.466157997015067 3.7828740552215447 a28.491417446653884,28.491417446653884 0 0,0 -0.2512931137897849,0.42118171306457874 l -6.400084007527055 -3.8936178621722273" fill="red" stroke="none" /><path d="M 117.94076556474637 110.91462005526583 l 34.94463558702178 21.259261151682953 a61.90334633040682,61.90334633040682 0 0,0 -0.561656018991569,0.9055683377841433 l -34.57351492836224 -21.85762582083237" fill="red" stroke="none" /><path d="M 117.75023020441432 111.22182372390056 l 41.11266195226113 25.99172179377434 a69.63970162949053,69.63970162949053 0 0,0 -0.6492911854727405,1.0077143387198557 l -40.65916590341134 -26.695557732415647" fill="red" stroke="none" /><path d="M 117.55443506779139 111.5257021239791 l 18.70095394077451 12.278471151207405 a43.37155631837003,43.37155631837003 0 0,0 -0.41512133969030457,0.6205500784340044 l -18.486829495673486 -12.598558143847216" fill="red" stroke="none" /><path d="M 117.35343817320211 111.8261652097733 l 43.2344997222521 29.46380604085817 a73.31957408701572,73.31957408701572 0 0,0 -0.7197157375979032,1.036804198945976 l -42.72092307749206 -30.203651501991164" fill="red" stroke="none" /><path d="M 116.93607887273984 112.41649034213515 l 22.731786179686427 16.66554612082393 a49.18642457681166,49.18642457681166 0 0,0 -0.5064766736327213,0.6785082715661348 l -22.441548239358614 -17.05436727189938" fill="red" stroke="none" /><path d="M 116.71984013943494 112.70617746262583 l 36.71680435354498 27.90279261560105 a67.11604447137395,67.11604447137395 0 0,0 -0.7069338805884222,0.9138073363066371 l -36.23106365573849 -28.53067794602094" fill="red" stroke="none" /><path d="M 116.498646956653 112.99209946851258 l 37.00112308905532 29.13707244495191 a68.0962004891456,68.0962004891456 0 0,0 -0.7331110089389197,0.914668704622053 l -36.494094168061544 -29.769668983152215" fill="red" stroke="none" /><path d="M 116.27256486870786 113.27417163493432 l 13.507163538708093 11.018324926682277 a38.43120624200613,38.43120624200613 0 0,0 -0.42256758334263994,0.509009875797762 l -13.31549995547191 -11.24919605959381" fill="red" stroke="none" /><path d="M 116.0416608686014 113.55231037782055 l 34.82824506170582 29.423585927744718 a66.59335546903313,66.59335546903313 0 0,0 -0.7472963347187335,0.8692744656066136 l -34.31660621741631 -30.01873749251286" fill="red" stroke="none" /><path d="M 115.80600337817218 113.82643327865902 l 36.911801671748286 32.28890636037183 a70.04135577860119,70.04135577860119 0 0,0 -0.8016104771437628,0.9006178688853402 l -36.350532344956186 -32.91949839899804" fill="red" stroke="none" /><path d="M 115.56566222782051 114.09645910891815 l 18.354045874382923 16.621654341761566 a45.76187377837053,45.76187377837053 0 0,0 -0.5337873980408687,0.5793207962818812 l -18.065212068346334 -16.935126392844783" fill="red" stroke="none" /><path d="M 115.32070863581623 114.36230785411682 l 18.283007782421492 17.13929769909507 a46.06040500850476,46.06040500850476 0 0,0 -0.5472271090692128,0.5737654360739186 l -17.985274121973315 -17.451470251751495" fill="red" stroke="none" /><path d="M 115.07121518719521 114.62390073753431 l 15.590979081590996 15.128238012544251 a42.7242310355694,42.7242310355694 0 0,0 -0.5166770956560044,0.5233911700603114 l -15.328261360879457 -15.394369676585226" fill="red" stroke="none" /><path d="M 114.81725581225074 114.88116024355365 l 34.156746422828256 34.30405895376965 a69.40921179793257,69.40921179793257 0 0,0 -0.8538987225502126,0.8357196218729834 l -33.56119774790225 -34.8869286785652" fill="red" stroke="none" /><path d="M 114.55890576462653 115.13401014063108 l 26.83592553676688 27.895995466460715 a59.70857091755899,59.70857091755899 0 0,0 -0.7468239028465676,0.7061686145391165 l -26.351765799529502 -28.35379871774575" fill="red" stroke="none" /><path d="M 114.29624159901734 115.38237550388516 l 14.274283042609 15.358748681558684 a41.96774469140149,41.96774469140149 0 0,0 -0.5333909507616518,0.4872399869433913 l -14.007792542380484 -15.602181435088658" fill="red" stroke="none" /><path d="M 114.0293411484842 115.62618273729858 l 8.90857814518273 9.922566466435264 a34.33491994162893,34.33491994162893 0 0,0 -0.44317821964374376,0.39105325138756175 l -8.7364575726324 -10.074442859595115" fill="red" stroke="none" /><path d="M 113.75828350139079 115.86535959552629 l 6.727315000575511 7.7576008363048645 a31.268258754648045,31.268258754648045 0 0,0 -0.409665593844079,0.3491259065791801 l -6.592783930154385 -7.872251133106991" fill="red" stroke="none" /><path d="M 113.48314897796784 116.09983520530334 l 28.607427229518613 34.159295042690715 a65.55605829183948,65.55605829183948 0 0,0 -0.8713644821008518,0.7170736465770892 l -28.01519261887307 -34.64666380812498" fill="red" stroke="none" /><path d="M 113.20401910651253 116.32954008644616 l 30.225556962900985 37.38024309715014 a69.0714766542449,69.0714766542449 0 0,0 -0.9309601873301155,0.7396110766250651 l -29.577639282853518 -37.894988087780334" fill="red" stroke="none" /><path d="M 112.92097659922987 116.55440617244103 l 15.263037465925377 19.555063790702444 a45.806467554746355,45.806467554746355 0 0,0 -0.625740932888172,0.4797914643764364 l -14.924167804543712 -19.814894596906253" fill="red" stroke="none" /><path d="M 112.63410532772338 116.77436683061366 l 26.895527920551945 35.7093311904221 a65.70487396461868,65.70487396461868 0 0,0 -0.9092773281367696,0.6726616296047803 l -26.276865621996613 -36.16700276876664" fill="red" stroke="none" /><path d="M 112.34349029814194 116.9893568818739 l 27.244182921402704 37.49840081102819 a67.35057244996409,67.35057244996409 0 0,0 -0.9437825202742014,0.6733637692355524 l -26.594673073279615 -37.961808842107956" fill="red" stroke="none" /><path d="M 112.04921762599082 117.19931262002967 l 12.76714834754156 18.224102386697968 a43.251246812908796,43.251246812908796 0 0,0 -0.6134326711762546,0.4219245848127611 l -12.451558791742423 -18.441167760875825" fill="red" stroke="none" /><path d="M 111.7513745106137 117.40417183066458 l 24.97125624421715 36.98325111750815 a65.62425911581079,65.62425911581079 0 0,0 -0.9416309356208734,0.6240616385639762 l -24.330950609856316 -37.40761077716345" fill="red" stroke="none" /><path d="M 111.45004920935366 117.60387380957326 l 22.334858216512558 34.33871928489221 a61.963319368409906,61.963319368409906 0 0,0 -0.8991119531967808,0.5738557885399023 l -21.740464461268846 -34.718089502255914" fill="red" stroke="none" /><path d="M 111.1453310114006 117.79835938074945 l 16.694532268300847 26.660068211594258 a52.45578873123669,52.45578873123669 0 0,0 -0.7694035244370148,0.4726304861697133 l -16.233149543931525 -26.94348716459235" fill="red" stroke="none" /><line stroke="#e1ed5e" stroke-width="0.3" x1="143.8653032363475" x2="146.44561519142675" y1="172.8068346515853" y2="177.08958963109032" /><path d="M 144.38136562736335 173.6633856474863 a86.0,86.0 0 0,1 -40.68145358897372,12.25698825130547" fill="none" id="id42" stroke="none" /><text fill="#e1ed5e" style="font-size:6.75px; font-family:Arial;" text-anchor="middle"><textPath startOffset="21.466115282336833" xlink:href="#id42">June</textPath></text><path d="M 110.8373102113329 117.98757091392108 l 20.911644906508702 34.70876890551775 a61.521544043046376,61.521544043046376 0 0,0 -0.91178481572088,0.5386985406346827 l -20.311092219759438 -35.06358601844619" fill="red" stroke="none" /><path d="M 110.5260780823613 118.17145234162733 l 26.70591305019949 46.10313760113019 a74.27949970217026,74.27949970217026 0 0,0 -1.1118977297073165,0.631364549676011 l -25.908366553570975 -46.55600531660083" fill="red" stroke="none" /><path d="M 110.21172684928248 118.3499491758327 l 20.40943614415041 36.67470952563496 a62.97117347075076,62.97117347075076 0 0,0 -0.9516959033084963,0.5189404875605027 l -19.77511742897326 -37.02059066495523" fill="red" stroke="none" /><path d="M 109.89434966115114 118.52300852407294 l 4.7901143422783115 8.967474551832478 a31.16665113249508,31.16665113249508 0 0,0 -0.47537913788195585,0.24869589713426196 l -4.6350443018698595 -9.048599867911456" fill="red" stroke="none" /><path d="M 109.57404056367764 118.69057910512821 l 12.891827429455335 25.167610140909964 a49.27733747501152,49.27733747501152 0 0,0 -0.7582751926118019,0.380214923110337 l -12.456698329160771 -25.385792904929602" fill="red" stroke="none" /><path d="M 109.2508944713604 118.85261126421891 l 16.212500678436836 33.03982916005611 a57.80319944208667,57.80319944208667 0 0,0 -0.8970157355824792,0.4306220646360703 l -15.641372274854126 -33.31400550119174" fill="red" stroke="none" /><path d="M 108.92500713936063 119.00905698771935 l 18.59675387790595 39.60856823214033 a64.75703294552233,64.75703294552233 0 0,0 -1.0130837057975095,0.4650570407136708 l -17.912202176341022 -39.92281234318807" fill="red" stroke="none" /><path d="M 108.59647513512805 119.15986991738527 l 14.180965757498294 31.60661258779004 a55.64213834465169,55.64213834465169 0 0,0 -0.8772362677974862,0.3845546002048944 l -13.634808815043053 -31.846031741289387" fill="red" stroke="none" /><path d="M 106.91757812671514 119.82793768551818 l 12.85266320149733 36.83974367677365 a60.01740208601167,60.01740208601167 0 0,0 -0.9783701564056289,0.3319162767811312 l -12.216623312154475 -37.0555229404529" fill="red" stroke="none" /><path d="M 106.57524785965236 119.94407469862006 l 12.278509656418596 37.24323690944287 a60.215054441829515,60.215054441829515 0 0,0 -0.9871789499289934,0.31606352568350754 l -11.63560936139866 -37.449073281786085" fill="red" stroke="none" /><path d="M 106.2309692047433 120.05430185196036 l 2.3503714591525178 7.564643181063339 a28.921368092243082,28.921368092243082 0 0,0 -0.47668615572146167,0.14362162840271503 l -2.21981032899081 -7.6039801785717795" fill="red" stroke="none" /><path d="M 105.88484417918355 120.15858648285463 l 2.1371220393166883 7.320730701141031 a28.62629586428182,28.62629586428182 0 0,0 -0.47419981446665105,0.1340136042221956 l -2.0107910567454312 -7.3564330987017446" fill="red" stroke="none" /><path d="M 105.53697534728816 120.25689768951611 l 16.61092604186447 60.77069306854833 a84.0,84.0 0 0,0 -1.3980382287540103,0.3692346027856641 l -15.562397370298964 -61.04761902063758" fill="red" stroke="none" /><path d="M 105.18746579009965 120.34920634021253 l 12.508812476139559 49.06912478030986 a71.63841818490033,71.63841818490033 0 0,0 -1.197544351904832,0.29432726558888167 l -11.662314839491515 -49.27717330421278" fill="red" stroke="none" /><path d="M 104.83641907484287 120.43548508189849 l 8.87627480742845 37.5052241344344 a59.541277765937515,59.541277765937515 0 0,0 -0.9993857472331313,0.2274569423496143 l -8.229368910802455 -37.652457810361696" fill="red" stroke="none" /><path d="M 104.48393922423573 120.51570834832081 l 7.419588160657676 33.94740632209439 a55.74876522225136,55.74876522225136 0 0,0 -0.9392566262095937,0.19683035824333978 l -6.834140073018704 -34.070092661064265" fill="red" stroke="none" /><path d="M 104.13013068566511 120.58985236759428 l 8.28930774246658 41.32450898934639 a63.147688739240344,63.147688739240344 0 0,0 -1.0675940270179058,0.20460693617318113 l -7.57674610087697 -41.46107312386804" fill="red" stroke="none" /><path d="M 103.7750983002368 120.6578951692458 l 1.996538349179514 10.925352570591933 a32.106281743746834,32.106281743746834 0 0,0 -0.5445088221544562,0.09466983828466059 l -1.8081805555530077 -10.9581009873976" fill="red" stroke="none" /><path d="M 103.41894727170886 120.7198165907248 l 1.1931716949811746 7.230968107003726 a28.328748764844466,28.328748764844466 0 0,0 -0.48181014703080766,0.07524883604007672 l -1.0685256843418498 -7.250435250390908" fill="red" stroke="none" /><path d="M 103.06178313531738 120.77559828337769 l 7.786257720584598 52.833318162798484 a74.40398222401448,74.40398222401448 0 0,0 -1.268663749345852,0.1758252355689235 l -6.875665380051916 -52.95951796386001" fill="red" stroke="none" /><path d="M 102.34483914955558 120.86867818915974 l 5.130840072022292 45.66362273649852 a66.95097345286533,66.95097345286533 0 0,0 -1.1463517942463817,0.11882405062333543 l -4.344055681170308 -45.74517615557761" fill="red" stroke="none" /><path d="M 101.98527174616119 120.90594882070398 l 5.712207099679688 60.1525254716789 a81.4231382052489,81.4231382052489 0 0,0 -1.39642885199696,0.12048975721646846 l -4.675933929941186 -60.241939481174036" fill="red" stroke="none" /><path d="M 101.62511606390274 120.93702456842531 l 2.542979381474043 32.7622272461321 a53.86077111483847,53.86077111483847 0 0,0 -0.9249618951034896,0.06379078777407057 l -1.9786547255916231 -32.80114637842245" fill="red" stroke="none" /><path d="M 101.26447882468166 120.96189622390904 l 1.5765963191880197 26.13602362074849 a47.18353273830711,47.18353273830711 0 0,0 -0.8111342044253367,0.041926373263751614 l -1.1264740463492033 -26.15928980077444" fill="red" stroke="none" /><path d="M 100.90346689309514 120.98055641714683 l 1.5419413705641054 35.80738615249526 a56.84057039535178,56.84057039535178 0 0,0 -0.9778733944307078,0.033679936905008014 l -0.9253476244587455 -35.82862288782636" fill="red" stroke="none" /><line stroke="#e1ed5e" stroke-width="0.3" x1="102.19456741930631" x2="102.32365962044197" y1="184.97166512339345" y2="189.96999836594603" /><path d="M 102.22038585953345 185.97133177190398 a86.0,86.0 0 0,1 -42.740103519485714,-10.115201625700543" fill="none" id="id43" stroke="none" /><text fill="#e1ed5e" style="font-size:6.75px; font-family:Arial;" text-anchor="middle"><textPath startOffset="22.20632615414155" xlink:href="#id43">July</textPath></text><path d="M 100.54218724476979 120.99299961872073 l 0.34700493244209424 13.435717060337838 a34.4401973701502,34.4401973701502 0 0,0 -0.5927655056011815,0.010204995745046921 l -0.11567973694824481 -13.439699533362045" fill="red" stroke="none" /><path d="M 100.18074693466247 120.99922214144158 l 0.4180915741434021 48.573979178666704 a69.57577846842926,69.57577846842926 0 0,0 -1.1976770176116818,0.0 l 0.41809157414336867 -48.573979178666704" fill="red" stroke="none" /><path d="M 99.81925306533755 120.99922214144158 l -0.3315456476550065 38.519052719415555 a59.520479552020035,59.520479552020035 0 0,0 -1.0244333612866303,-0.017636549350845597 l 0.9945386988343048 -38.50763869278555" fill="red" stroke="none" /><path d="M 99.45781275523022 120.99299961872073 l -0.7639479751228524 29.57937447843554 a50.589238095027355,50.589238095027355 0 0,0 -0.8703267689532969,-0.029975813670798126 l 1.2729950957507923 -29.561841866338646" fill="red" stroke="none" /><path d="M 99.09653310690486 120.98055641714683 l -2.5020523224003837 58.10334646456903 a79.15719333157142,79.15719333157142 0 0,0 -1.360794822076071,-0.07033754874899363 l 3.5018352128899437 -58.05166910905783" fill="red" stroke="none" /><path d="M 98.73552117531835 120.96189622390904 l -2.7828126662238217 46.13207369024118 a67.21593090371694,67.21593090371694 0 0,0 -1.1543127501328891,-0.079608165545449 l 3.576488177135641 -46.07733718017945" fill="red" stroke="none" /><path d="M 98.37488393609728 120.93702456842531 l -4.551594114241775 58.64001957283262 a79.81639996194083,79.81639996194083 0 0,0 -1.3688728563669899,-0.11811210996393202 l 5.560311288350306 -58.55298321059003" fill="red" stroke="none" /><path d="M 98.01472825383883 120.90594882070398 l -3.549486321586022 37.377945625002496 a58.54610062699946,58.54610062699946 0 0,0 -1.0024413991103733,-0.10390714975337391 l 4.192360317301989 -37.31130910679336" fill="red" stroke="none" /><path d="M 97.65516085044442 120.86867818915974 l -2.2446369181317256 19.976895005730498 a41.102605029304534,41.102605029304534 0 0,0 -0.7024094183889259,-0.08505199855044078 l 2.5881737595720407 -19.935297478454707" fill="red" stroke="none" /><path d="M 97.2962882734958 120.8252237178851 l -1.0801546719983324 8.319845075853788 a29.389669612186665,29.389669612186665 0 0,0 -0.5011238286947267,-0.06945119640635948 l 1.22320709187989 -8.300019313954824" fill="red" stroke="none" /><path d="M 96.93821686468263 120.77559828337769 l -7.752549156677906 52.60459014664471 a74.17278366724068,74.17278366724068 0 0,0 -1.261517058202967,-0.1970230200826492 l 8.65690207848939 -52.46334881921496" fill="red" stroke="none" /><path d="M 96.58105272829116 120.7198165907248 l -6.7630263100261025 40.9859098739328 a62.540141225858235,62.540141225858235 0 0,0 -1.0606540772320314,-0.18440830686676976 l 7.467529358730184 -40.86342298854502" fill="red" stroke="none" /><path d="M 96.22490169976321 120.6578951692458 l -6.6256696542771145 36.25664241260269 a57.857070114198564,57.857070114198564 0 0,0 -0.9781492198350766,-0.18746462599615168 l 7.248786488683886 -36.13722058825807" fill="red" stroke="none" /><path d="M 95.86986931433489 120.58985236759428 l -5.280536550412672 26.3249461747174 a47.84933625552059,47.84933625552059 0 0,0 -0.8061668443875999,-0.1689401004548348 l 5.732894856229659 -26.230150093536025" fill="red" stroke="none" /><path d="M 95.51606077576429 120.51570834832081 l -6.031779320336754 27.597658926466405 a49.24912635800996,49.24912635800996 0 0,0 -0.8266345095811134,-0.18813932308975254 l 6.50593397931073 -27.489742869798967" fill="red" stroke="none" /><path d="M 95.16358092515715 120.4354850818985 l -3.3226948494668807 14.039494919117967 a35.42732541556518,35.42732541556518 0 0,0 -0.5922212484508348,-0.14555357419782616 l 3.563869382660926 -13.980220086606112" fill="red" stroke="none" /><path d="M 94.81253420990036 120.34920634021253 l -13.262922968954806 52.027322606096945 a74.69122296278336,74.69122296278336 0 0,0 -1.243109345885273,-0.3283164766933272 l 14.156522757651569 -51.79131478010003" fill="red" stroke="none" /><path d="M 94.46302465271185 120.25689768951611 l -9.266315171678107 33.900602155187066 a56.14420895887608,56.14420895887608 0 0,0 -0.9300390661054615,-0.2628383299905384 l 9.848485405888182 -33.73607503185801" fill="red" stroke="none" /><path d="M 94.11515582081647 120.15858648285463 l -13.00488026992927 44.548333930043185 a67.40776838825406,67.40776838825406 0 0,0 -1.1110245503004963,-0.3347425831321816 l 13.769779794670011 -44.31787597780528" fill="red" stroke="none" /><path d="M 93.76903079525671 120.05430185196036 l -7.041698727455896 22.663625383265497 a44.73237106741023,44.73237106741023 0 0,0 -0.7333524067609966,-0.23479628213915868 l 7.430772479307833 -22.53905625446663" fill="red" stroke="none" /><path d="M 93.42475214034765 119.94407469862007 l -7.63742347476588 23.165871087600145 a45.39237218025777,45.39237218025777 0 0,0 -0.7399610900514517,-0.25103497726780344 l 8.035054297754558 -23.03097312343422" fill="red" stroke="none" /><path d="M 92.7421414339146 119.70592522655815 l -13.158794636866235 35.7276489786408 a59.07385950801669,59.07385950801669 0 0,0 -0.9511729082992258,-0.3596522052883256 l 13.771837765925744 -35.49584852324585" fill="red" stroke="none" /><path d="M 92.40401165467489 119.57807347666478 l -16.771218453702076 43.22652066493158 a67.3659989347534,67.3659989347534 0 0,0 -1.077467582550967,-0.42874658749368333 l 17.5128071122949 -42.93142723303183" fill="red" stroke="none" /><path d="M 92.06813273071674 119.44442032107085 l -13.864874236459183 33.98877379057048 a57.707921234788,57.707921234788 0 0,0 -0.9165351783273451,-0.3831117788740355 l 14.44788087428399 -33.745076968676464" fill="red" stroke="none" /><path d="M 91.7346041902142 119.30500536409082 l -9.886017633079899 23.090197714445562 a46.11753521215316,46.11753521215316 0 0,0 -0.7270744021184493,-0.3187280511416513 l 10.282012709856092 -22.916605110009456" fill="red" stroke="none" /><path d="M 91.07499286063937 119.00905698771935 l -9.90416390492909 21.09452834544144 a44.30389642897369,44.30389642897369 0 0,0 -0.6875275525919923,-0.33005500622472583 l 10.265804125521326 -20.92091906271715" fill="red" stroke="none" /><path d="M 90.42595943632237 118.69057910512821 l -5.303154117562282 10.352893418587117 a32.632104097335194,32.632104097335194 0 0,0 -0.4977314196228038,-0.26038955450699747 l 5.480576439711581 -10.260074445135402" fill="red" stroke="none" /><path d="M 90.10565033884886 118.52300852407294 l -3.589327163172687 6.719505567928264 a28.618072233951857,28.618072233951857 0 0,0 -0.4325106331119892,-0.23583928231903098 l 3.7044606081533162 -6.656725633849467" fill="red" stroke="none" /><line stroke="#e1ed5e" stroke-width="0.3" x1="58.666819895761336" x2="56.23545636021788" y1="174.27360380694188" y2="178.64263932499728" /><path d="M 58.180547188652646 175.14741091055294 a86.0,86.0 0 0,1 -31.652253787137756,-30.449443065178592" fill="none" id="id44" stroke="none" /><text fill="#e1ed5e" style="font-size:6.75px; font-family:Arial;" text-anchor="middle"><textPath startOffset="22.20632615414155" xlink:href="#id44">August</textPath></text><path d="M 89.7882731507175 118.34994917583269 l -17.19314994840029 30.895208262232686 a56.35701201621692,56.35701201621692 0 0,0 -0.843614105711149,-0.47902610619850194 l 17.722412821032645 -30.59467899023955" fill="red" stroke="none" /><path d="M 89.4739219176387 118.17145234162733 l -11.698708712272461 20.195796208263673 a44.33945093656483,44.33945093656483 0 0,0 -0.6571362720199843,-0.38824769247270413 l 12.044612855320826 -19.99142994349722" fill="red" stroke="none" /><path d="M 89.1626897886671 117.98757091392108 l -13.954276148251106 23.16105443827032 a48.03990135917975,48.03990135917975 0 0,0 -0.704632802467977,-0.43284301855161345 l 14.350888150651391 -22.917422952890327" fill="red" stroke="none" /><path d="M 88.8546689885994 117.79835938074946 l -12.477313372860278 19.92544746219169 a44.509717258468235,44.509717258468235 0 0,0 -0.6458533730667328,-0.4122141801859131 l 12.818448547973933 -19.707718853181973" fill="red" stroke="none" /><path d="M 88.24862548938628 117.40417183066458 l -13.9478769234588 20.657264086817072 a45.92520471780436,45.92520471780436 0 0,0 -0.6513574308324946,-0.4480095803207398 l 14.301391238914185 -20.414113717131233" fill="red" stroke="none" /><path d="M 87.95078237400918 117.19931262002967 l -27.67961808399022 39.51048270575385 a69.24147075823075,69.24147075823075 0 0,0 -0.9702796487475105,-0.6922687668588687 l 28.35562506058662 -39.02816967705076" fill="red" stroke="none" /><path d="M 87.65650970185807 116.9893568818739 l -13.856720488436206 19.07213955730609 a44.57446096919307,44.57446096919307 0 0,0 -0.6168575377685045,-0.4563364594601946 l 14.182962996623274 -18.83079314910613" fill="red" stroke="none" /><path d="M 87.36589467227662 116.77436683061367 l -10.664577271007113 14.15941426772432 a38.72631435957054,38.72631435957054 0 0,0 -0.5290222400519496,-0.4056316950062587 l 10.90672823955255 -13.973743230890696" fill="red" stroke="none" /><path d="M 87.07902340077011 116.55440617244103 l -18.719090249330826 23.98297224564842 a51.423466230824765,51.423466230824765 0 0,0 -0.6930965150065195,-0.5506377895054715 l 19.129144257054705 -23.657200542137815" fill="red" stroke="none" /><path d="M 86.79598089348748 116.32954008644616 l -23.696704280301468 29.305946874235246 a58.687827158693516,58.687827158693516 0 0,0 -0.780072650037983,-0.6419466839056198 l 24.19764705888414 -28.893705071472446" fill="red" stroke="none" /><path d="M 86.51685102203217 116.09983520530335 l -19.757794201937035 23.592206182047793 a51.7727578267264,51.7727578267264 0 0,0 -0.6783082405213253,-0.578068998155292 l 20.160967919035418 -23.24861279366955" fill="red" stroke="none" /><path d="M 85.97065885151581 115.62618273729859 l -33.403799655067544 37.20587246440962 a71.00090776409769,71.00090776409769 0 0,0 -0.9023892509761892,-0.8243111853241122 l 34.03928845551059 -36.62536851249893" fill="red" stroke="none" /><path d="M 85.70375840098266 115.38237550388516 l -24.790336780732797 26.67374264682396 a57.414960448847786,57.414960448847786 0 0,0 -0.7181358418943261,-0.6790422622902903 l 25.24580845701794 -26.24306574778774" fill="red" stroke="none" /><path d="M 84.9287848128048 114.62390073753433 l -5.636023833540656 5.468746353386453 a28.85314913457754,28.85314913457754 0 0,0 -0.3427938895791904,-0.35941802275187046 l 5.729324274498804 -5.370921214052083" fill="red" stroke="none" /><path d="M 84.67929136418377 114.36230785411682 l -20.98765740008681 19.674755514382948 a49.767651410814906,49.767651410814906 0 0,0 -0.5805126180331208,-0.6300317942404409 l 21.32321642611566 -19.310572465341163" fill="red" stroke="none" /><path d="M 84.43433777217949 114.09645910891817 l -15.950555494961083 14.445023283197106 a42.519268534268065,42.519268534268065 0 0,0 -0.4866252338874857,-0.5467286089512802 l 16.196839578496906 -14.16832050450496" fill="red" stroke="none" /><path d="M 84.19399662182784 113.82643327865904 l -13.119033397648609 11.47598387860551 a38.43006721933777,38.43006721933777 0 0,0 -0.4312539618064486,-0.5016457859801072 l 13.314629869025836 -11.248460993463873" fill="red" stroke="none" /><path d="M 83.95833913139862 113.55231037782056 l -26.75256844690586 22.601095607625034 a56.02155680679245,56.02155680679245 0 0,0 -0.6159810266133267,-0.7419888278462509 l 27.13764547341272 -22.13724552266502" fill="red" stroke="none" /><path d="M 83.72743513129214 113.27417163493432 l -12.825720033239026 10.462444638350945 a37.55179271805889,37.55179271805889 0 0,0 -0.40427560494199155,-0.5043959773810955 l 13.003913550235879 -10.24012082739159" fill="red" stroke="none" /><path d="M 83.50135304334701 112.99209946851258 l -30.4183275242045 23.95335435072738 a59.717409960136635,59.717409960136635 0 0,0 -0.6290039988845735,-0.8130724591506424 l 30.826138340307143 -23.426203897463488" fill="red" stroke="none" /><path d="M 83.28015986056508 112.70617746262583 l -13.413658615927192 10.19365767708896 a37.84745958007653,37.84745958007653 0 0,0 -0.3897184151621294,-0.5220915039828679 l 13.587138297784406 -9.961253293596785" fill="red" stroke="none" /><path d="M 82.85270091963577 112.12312394758628 l -11.084196686127544 7.836516389874216 a34.57462357877846,34.57462357877846 0 0,0 -0.3393895971304804,-0.48891602753872404 l 11.21744719042016 -7.644559100148479" fill="red" stroke="none" /><path d="M 82.6465618267979 111.8261652097733 l -6.601595694665482 4.4989102766853115 a28.988820901327713,28.988820901327713 0 0,0 -0.2774601418557801,-0.4147652657879868 l 6.678058941931993 -4.384608096691505" fill="red" stroke="none" /><path d="M 82.44556493220864 111.52570212397912 l -6.498879189150218 4.266964182248475 a28.77447194655439,28.77447194655439 0 0,0 -0.26828103171566586,-0.4163781189630532 l 6.571365084242929 -4.154464463363974" fill="red" stroke="none" /><path d="M 82.24976979558568 111.22182372390057 l -13.96197960946692 8.826864339774435 a37.51818418252901,37.51818418252901 0 0,0 -0.34040670201057915,-0.5488439914946014 l 14.111850951145456 -8.58522401691457" fill="red" stroke="none" /><path d="M 82.05923443525364 110.91462005526583 l -26.632187631490556 16.202218806618628 a52.17347129044927,52.17347129044927 0 0,0 -0.46016784115240256,-0.7712677705761984 l 26.90713634834119 -15.741388942156318" fill="red" stroke="none" /><line stroke="#e1ed5e" stroke-width="0.3" x1="26.63291911575756" x2="22.317208475507996" y1="142.92168965132927" y2="145.44649492493687" /><path d="M 25.769776987707644 143.4266507060508 a86.0,86.0 0 0,1 -11.730757126820373,-40.83630448921669" fill="none" id="id45" stroke="none" /><text fill="#e1ed5e" style="font-size:6.75px; font-family:Arial;" text-anchor="middle"><textPath startOffset="21.46611528233685" xlink:href="#id45">September</textPath></text><path d="M 81.87401531095188 110.60418214915194 l -27.706760512133755 16.20919030187185 a53.09988206082743,53.09988206082743 0 0,0 -0.4547575139611432,-0.7929080572161898 l 27.981670022247275 -15.729862398797353" fill="red" stroke="none" /><path d="M 81.69416730710424 110.29060199501025 l -21.073494819877524 11.846439955688536 a45.17499376519338,45.17499376519338 0 0,0 -0.37521831502525627,-0.6811302312978466 l 21.274289544354296 -11.481939205992868" fill="red" stroke="none" /><path d="M 81.51974371655577 109.97397251340807 l -11.61531961865058 6.268899999761193 a34.199043793033454,34.199043793033454 0 0,0 -0.27513536523525145,-0.5204524235555004 l 11.721507492110717 -6.0680325611195665" fill="red" stroke="none" /><path d="M 81.35079622478065 109.6543875284942 l -15.283936645364722 7.912243820906451 a38.2105293835197,38.2105293835197 0 0,0 -0.2973531209536063,-0.586705917539368 l 15.417868436104595 -7.647983691664399" fill="red" stroke="none" /><path d="M 81.18737489456691 109.33194174019688 l -38.262193175919336 18.979836974836587 a63.711001372278105,63.711001372278105 0 0,0 -0.4788844802109176,-0.986643870132178 l 38.58323091274497 -18.318404148739123" fill="red" stroke="none" /><path d="M 81.02952815118164 109.00673069616217 l -3.808287363565223 1.8080846365118677 a25.215711410459782,25.215711410459782 0 0,0 -0.18278434910064736,-0.3937012267037174 l 3.8388463295056967 -1.7422633425293232" fill="red" stroke="none" /><path d="M 80.87730276802145 108.67885076344099 l -32.58923664029555 14.790649972881694 a56.78856900488601,56.78856900488601 0 0,0 -0.39632719395328353,-0.8936131950411387 l 32.839004918980116 -14.22748844134786" fill="red" stroke="none" /><path d="M 80.73074385275274 108.34839909993369 l -27.024457713228436 11.708337712950186 a50.4517654257697,50.4517654257697 0 0,0 -0.33838484082550346,-0.7998418064454317 l 27.221993535246245 -11.241421380838595" fill="red" stroke="none" /><path d="M 80.58989483394504 108.01547362559985 l -11.126053038506791 4.594544126589187 a33.037395563278686,33.037395563278686 0 0,0 -0.2125364653496917,-0.5274980770092687 l 11.20349211811387 -4.4023466817371135" fill="red" stroke="none" /><path d="M 80.45479744820244 107.68017299344265 l -21.200104973965612 8.330457218220305 a43.778080875520665,43.778080875520665 0 0,0 -0.2695598231248963,-0.7037356377546578 l 21.340359076684017 -7.964298013632489" fill="red" stroke="none" /><path d="M 80.32549172779594 107.34259656027581 l -39.0800902801279 14.584828880909532 a62.712955898477865,62.712955898477865 0 0,0 -0.36873945591006313,-1.0146126153698132 l 39.32535399704318 -13.909968468533602" fill="red" stroke="none" /><path d="M 80.20201598880116 107.00284435728193 l -49.29456854494313 17.43622941529485 a73.2874419364238,73.2874419364238 0 0,0 -0.4104416737351998,-1.1929356273632312 l 49.58740104962156 -16.585121084842324" fill="red" stroke="none" /><path d="M 80.0844068197444 106.66101706037122 l -7.765755604109914 2.597353244639118 a29.18860207729023,29.18860207729023 0 0,0 -0.15526633495412004,-0.4778606429658359 l 7.809314190080284 -2.463293701695479" fill="red" stroke="none" /><path d="M 79.97269907076064 106.31721596034903 l -23.866897819883956 7.528340856538812 a46.02608094762368,46.02608094762368 0 0,0 -0.23182510146305996,-0.7576178448918853 l 23.99294969385315 -7.116396039094879" fill="red" stroke="none" /><path d="M 79.86692584326677 105.97154293290107 l -28.424476154032174 8.43080288572123 a50.648427984111215,50.648427984111215 0 0,0 -0.24071838299800935,-0.837972270501108 l 28.56538717391629 -7.940273139715526" fill="red" stroke="none" /><path d="M 79.67330655649465 105.27499134158121 l -12.519107463180136 3.248840430252075 a33.9337935585772,33.9337935585772 0 0,0 -0.14185729226144292,-0.5666493668871015 l 12.573176069736636 -3.0328632239675812" fill="red" stroke="none" /><path d="M 79.58551787078972 104.9243191809786 l -7.9773347168042115 1.9242683752842822 a29.20613660403292,29.20613660403292 0 0,0 -0.11368062273183564,-0.48973314743043167 l 8.009275905466602 -1.7866665705052762" fill="red" stroke="none" /><path d="M 79.50377843672027 104.57218783832718 l -30.64371112653043 6.8358357125172455 a52.39690560381343,52.39690560381343 0 0,0 -0.18879343954177524,-0.8819800969668483 l 30.75683860479665 -6.307341796134233" fill="red" stroke="none" /><path d="M 79.4281124754447 104.21870165774334 l -35.08643129807298 7.195216564585904 a56.81659954051594,56.81659954051594 0 0,0 -0.18822545895849582,-0.9597575600797702 l 35.20508669000714 -6.590195277438178" fill="red" stroke="none" /><path d="M 79.35854240842038 103.8639653848113 l -34.71902673901717 6.4992075738210415 a56.32209672134713,56.32209672134713 0 0,0 -0.17018273389932337,-0.9544751496437042 l 34.82575591525568 -5.9006136734441235" fill="red" stroke="none" /><path d="M 79.29508885075956 103.50808413554451 l -4.420580087305409 0.7489897813325789 a25.4835827193018,25.4835827193018 0 0,0 -0.06955591685996698,-0.4331247606833289 l 4.432817758526667 -0.6727857909560363" fill="red" stroke="none" /><path d="M 79.23777060512086 103.15116336523772 l -31.737559421812445 4.816931392576634 a53.10102032792519,53.10102032792519 0 0,0 -0.12937924271738854,-0.9048781222289916 l 31.815772715546434 -4.2699077983672415" fill="red" stroke="none" /><path d="M 79.18660465613746 102.79330883721812 l -31.3988108357317 4.213948485413864 a52.68032013310131,52.68032013310131 0 0,0 -0.11288261420868761,-0.8997855014380486 l 31.466694959187237 -3.6728452296884067" fill="red" stroke="none" /><path d="M 79.1416061653843 102.43462659150553 l -30.611489288038904 3.573024194344415 a51.81930853093708,51.81930853093708 0 0,0 -0.09578601404656598,-0.8868595277812417 l 30.66845760358652 -3.045568344678391" fill="red" stroke="none" /><path d="M 79.10278846688536 102.07522291339032 l -19.545751507405942 1.9410145379122032 a40.64189246039312,40.64189246039312 0 0,0 -0.06314086426590541,-0.6967541757309157 l 19.57626696794892 -1.6042789736327212" fill="red" stroke="none" /><path d="M 79.07016306316243 101.71520430193888 l -6.590249556154333 0.5400722625636781 a27.61234204054683,27.61234204054683 0 0,0 -0.03474348095469981,-0.4740471938027136 l 6.598569595773368 -0.4265519322642039" fill="red" stroke="none" /><path d="M 79.04373962182676 101.35467743843564 l -30.48286556759023 1.9705066408838345 a51.54648899028406,51.54648899028406 0 0,0 -0.04961631625853885,-0.8859326571522613 l 30.5122682347363 -1.4455022673961357" fill="red" stroke="none" /><path d="M 79.0235259727143 100.99374915477108 l -25.836672572400694 1.2239984421367789 a46.86564945636965,46.86564945636965 0 0,0 -0.0312390064253549,-0.8061399484336587 l 25.85391371167725 -0.7790812466891235" fill="red" stroke="none" /><path d="M 79.0095281055655 100.63252640178507 l -6.647221852804 0.2003072318510403 a27.650239194760356,27.650239194760356 0 0,0 -0.010241039390542666,-0.47586085908692094 l 6.64968495487955 -0.0858565569739905" fill="red" stroke="none" /><line stroke="#e1ed5e" stroke-width="0.3" x1="15.007084014347285" x2="10.007500721073583" y1="101.09737516637583" y2="101.16192664675087" /><path d="M 14.007167355692545 101.11028546245083 a86.0,86.0 0 0,1 10.666146001902534,-42.60595125391555" fill="none" id="id46" stroke="none" /><text fill="#e1ed5e" style="font-size:6.75px; font-family:Arial;" text-anchor="middle"><textPath startOffset="22.20632615414155" xlink:href="#id46">October</textPath></text><path d="M 79.00175016825051 100.2711162175752 l -39.43138582948527 0.5091132958935686 a60.4346723681304,60.4346723681304 0 0,0 -0.0044770658862427525,-1.0403124404259705 l 39.43430719266102 0.1697086227360772" fill="red" stroke="none" /><path d="M 79.00019446554 99.90962569577889 l -39.698430314417735 -0.17084529723138642 a60.69879793575956,60.69879793575956 0 0,0 0.013489564663305326,-1.0447816491948072 l 39.68960774263672 0.8541632044866655" fill="red" stroke="none" /><path d="M 79.00486145842228 99.54816195383935 l -23.227539375258228 -0.4998817220306627 a44.232917749718645,44.232917749718645 0 0,0 0.022934358265583685,-0.7610796975937232 l 23.215493322536997 0.8996315670493803" fill="red" stroke="none" /><path d="M 79.01574976396665 99.18683210126434 l -28.12710075177185 -1.089962955958718 a49.14821159409043,49.14821159409043 0 0,0 0.04003564581673367,-0.8450892064746812 l 28.104171497721616 1.5739632690564085" fill="red" stroke="none" /><path d="M 79.03285615573316 98.82574320788736 l -38.237146483164814 -2.141456619096916 a59.29706526127658,59.29706526127658 0 0,0 0.06584631033646247,-1.0186132766382447 l 38.19461958182394 2.799328959988173" fill="red" stroke="none" /><path d="M 79.05617556472873 98.46500227214037 l -11.38652359634027 -0.8345318164130242 a32.41706455104023,32.41706455104023 0 0,0 0.04557764590124504,-0.5561627239388987 l 11.370471466619527 1.0304084575597012" fill="red" stroke="none" /><path d="M 79.08570108090925 98.10471618934814 l -19.391347413661943 -1.7572717575673327 a40.47080785553793,40.47080785553793 0 0,0 0.06884445631247875,-0.6932542798950645 l 19.358225831667234 2.0908015681668277" fill="red" stroke="none" /><path d="M 79.12142395522702 97.74499172005258 l -17.849681881856984 -1.9278700018477561 a38.9534906362946,38.9534906362946 0 0,0 0.0777393829450053,-0.6660235584316877 l 17.813852145908392 2.234837298604306" fill="red" stroke="none" /><path d="M 79.16333360222342 97.38593545837743 l -31.538411825570694 -3.956652301210301 a52.785633829011026,52.785633829011026 0 0,0 0.12086402222700014,-0.9005773525440891 l 31.46563180428586 4.49894799581905" fill="red" stroke="none" /><path d="M 79.21141760316559 97.0276538004421 l -3.894436633551975 -0.556825554825709 a24.934042627026123,24.934042627026123 0 0,0 0.06440594596425647,-0.42435471269297853 l 3.8842747941484164 0.6237793799107795" fill="red" stroke="none" /><path d="M 79.26566170972629 96.67025291283419 l -14.836004368052057 -2.3825280381806895 a36.02609282087585,36.02609282087585 0 0,0 0.10359755629296906,-0.611438641562537 l 14.792794950238864 2.637552468059054" fill="red" stroke="none" /><path d="M 79.32604984820605 96.31383870115002 l -40.35430260508787 -7.195164320934007 a61.99073222508038,61.99073222508038 0 0,0 0.1963461275356588,-1.0488888644627814 l 40.22447075364234 7.888731262859361" fill="red" stroke="none" /><path d="M 79.3925641242962 95.95851677861259 l -48.4898870896566 -9.50972582236043 a70.41360172244191,70.41360172244191 0 0,0 0.24349930163070868,-1.187389071768155 l 48.319008492110896 10.342990550291987" fill="red" stroke="none" /><path d="M 79.46518482838121 95.60439243477599 l -31.0068580124418 -6.637214823422807 a52.709270953713045,52.709270953713045 0 0,0 0.1975483562422705,-0.8855705456941049 l 30.888015269197492 7.169963538666871" fill="red" stroke="none" /><path d="M 79.71946130924805 94.55025226153421 l -15.947438920228143 -4.285365419285725 a37.51318154963535,37.51318154963535 0 0,0 0.1729415358166957,-0.6221627193586222 l 15.871310613845086 4.55923944206329" fill="red" stroke="none" /><path d="M 79.81627453868168 94.20196356495316 l -24.163595621826836 -6.941305661612957 a46.14082492009976,46.14082492009976 0 0,0 0.22585736686606908,-0.7614787613609304 l 24.04053235784906 7.356213809720427" fill="red" stroke="none" /><path d="M 79.91906864156998 93.8553929516997 l -22.869501440119347 -6.997887559686269 a44.916197992524495,44.916197992524495 0 0,0 0.23259001055564998,-0.7373738944133826 l 22.745655945795495 7.390511620526066" fill="red" stroke="none" /><path d="M 80.02781315780177 93.51064311812611 l -6.10939898341559 -1.9850640618570188 a27.423802243861164,27.423802243861164 0 0,0 0.14973749430232675,-0.447696049015942 l 6.074324195341491 2.089933213795283" fill="red" stroke="none" /><path d="M 80.14247586403 93.16781622104843 l -14.635976222333653 -5.035656945480746 a36.47803737084533,36.47803737084533 0 0,0 0.20939595348381138,-0.5919905580610891 l 14.547127188040033 5.286845129968445" fill="red" stroke="none" /><path d="M 80.2630227832202 92.82701384747504 l -5.259778423763308 -1.9115550159792571 a26.596365932120726,26.596365932120726 0 0,0 0.16007898173103297,-0.428932084776683 l 5.226094853530647 2.0018102377852816" fill="red" stroke="none" /><path d="M 80.38941819471856 92.48833698450439 l -53.794122608595835 -20.605371388889644 a78.6054594400801,78.6054594400801 0 0,0 0.4948642263091287,-1.2593754785352693 l 53.43146483240501 21.528295872320676" fill="red" stroke="none" /><path d="M 80.52162464483688 92.15188598940014 l -42.62407732264428 -17.17384598690698 a66.95381326493765,66.95381326493765 0 0,0 0.43991305765868954,-1.0652843627112418 l 42.322142578099395 17.905004920071534" fill="red" stroke="none" /><path d="M 80.65960295795068 91.81776055985345 l -35.23369214465188 -14.90613170252706 a59.25710162149227,59.25710162149227 0 0,0 0.4055140957526088,-0.9359824427222762 l 34.97188733905659 15.510413289835936" fill="red" stroke="none" /><path d="M 80.803312248108 91.48605970444005 l -7.348317333795615 -3.259058847097095 a29.038608847742434,29.038608847742434 0 0,0 0.20658575621239222,-0.45518432983432 l 7.291129260619871 3.385065185773486" fill="red" stroke="none" /><path d="M 81.10775173730289 90.83032412892265 l -10.98583335368632 -5.332162145353508 a33.211489983589544,33.211489983589544 0 0,0 0.2540520628934136,-0.5121534563261074 l 10.892421277839494 5.520475190178577" fill="red" stroke="none" /><path d="M 81.26839172434947 90.50648371742162 l -14.671369829796502 -7.4357143453591235 a37.44806798710543,37.44806798710543 0 0,0 0.29635788789693523,-0.5724691105957302 l 14.541202508739454 7.687156178215189" fill="red" stroke="none" /><path d="M 81.43458229118936 90.18545643968196 l -39.80991546497001 -21.04537347835185 a66.03040210981214,66.03040210981214 0 0,0 0.5398516784572512,-1.0002631709207075 l 39.44175568729429 21.72751763260503" fill="red" stroke="none" /><path d="M 81.6062741919709 89.86733742301443 l -30.873289686745157 -17.00735513306191 a56.247838865720155,56.247838865720155 0 0,0 0.47447023089890283,-0.8440295979580734 l 30.575961814553825 17.53626824095477" fill="red" stroke="none" /><line stroke="#e1ed5e" stroke-width="0.3" x1="26.266209847984243" x2="21.928928074336255" y1="57.711370442889674" y2="55.22380399835377" /><path d="M 25.398753493254645 57.213857153982495 a86.0,86.0 0 0,1 29.58750427330803,-30.492523968695096" fill="none" id="id47" stroke="none" /><text fill="#e1ed5e" style="font-size:6.75px; font-family:Arial;" text-anchor="middle"><textPath startOffset="21.46611528233685" xlink:href="#id47">November</textPath></text><path d="M 81.96595687620814 89.24020034530311 l -41.08719468601012 -24.514191308090943 a68.84457276071947,68.84457276071947 0 0,0 0.6159432188321063,-1.0124487003952658 l 40.6591356688918 25.21780778169328" fill="red" stroke="none" /><path d="M 82.15384107792192 88.93136811851018 l -26.628685479655378 -16.515773413719966 a52.334608052882174,52.334608052882174 0 0,0 0.4814096208143166,-0.761474409357748 l 26.3404482625951 16.97169547079193" fill="red" stroke="none" /><path d="M 82.34701348167596 88.62581576622439 l -26.036286108481054 -16.775717505576576 a51.97277662964029,51.97277662964029 0 0,0 0.4910273215767564,-0.7478682982095699 l 25.743662151546378 17.221403867763815" fill="red" stroke="none" /><path d="M 82.54541684631803 88.32363383020206 l -32.72754535700279 -21.893321660129388 a60.37524296316869,60.37524296316869 0 0,0 0.5852820165050804,-0.858829139213651 l 32.345838874828964 22.453428822613454" fill="red" stroke="none" /><path d="M 82.7489923806493 88.02491185347247 l -31.48130710135785 -21.853298997085037 a59.322830974055165,59.322830974055165 0 0,0 0.5895202943710913,-0.8338346489922751 l 31.100474187182883 22.391960146409097" fill="red" stroke="none" /><path d="M 82.95767976084542 87.72973835380427 l -25.14160872107989 -18.101650062012343 a51.98015855433009,51.98015855433009 0 0,0 0.5290525376442679,-0.7216270667855873 l 24.826293570921987 18.53173957246943" fill="red" stroke="none" /><path d="M 83.17141714833178 87.43820079747576 l -7.408440126362258 -5.530075710567666 a30.24482138661991,30.24482138661991 0 0,0 0.31501286289896213,-0.41452000218230145 l 7.3121513232391875 5.656780488630994" fill="red" stroke="none" /><path d="M 83.39014120810768 87.1503855733568 l -31.230112296050567 -24.160042931906233 a60.484523404689604,60.484523404689604 0 0,0 0.6441484212703469,-0.8180030807169881 l 30.80960979418625 24.69403840657627" fill="red" stroke="none" /><path d="M 83.6137871275137 86.86637796730984 l -6.328538407610484 -5.072351501333058 a29.110434521631795,29.110434521631795 0 0,0 0.31675134211925254,-0.3882996923379257 l 6.240288573414839 5.180535363279066" fill="red" stroke="none" /><path d="M 83.84228863543731 86.58626213691792 l -25.142427076038214 -20.87262969552134 a53.67733633086177,53.67733633086177 0 0,0 0.5963025172510495,-0.7058340969293041 l 24.77941394530004 21.30232274207976" fill="red" stroke="none" /><path d="M 84.07557802195018 86.31012108654704 l -29.98896734344676 -25.78086239093488 a60.54732643234732,60.54732643234732 0 0,0 0.6862264918812838,-0.7844755064640029 l 29.540748987987634 26.293253453601828" fill="red" stroke="none" /><path d="M 84.31358615837235 86.03803664274999 l -22.76325584645367 -20.260828716406973 a51.47403808172932,51.47403808172932 0 0,0 0.5947858420811188,-0.6567773824752429 l 22.41112636375651 20.64965888615177" fill="red" stroke="none" /><path d="M 84.5562425177563 85.77008943001954 l -11.4526724521944 -10.552516443577852 a36.57303148360118,36.57303148360118 0 0,0 0.43057373892140705,-0.45930604379559853 l 11.269331391302538 10.748091904251503" fill="red" stroke="none" /><path d="M 84.80347519578584 85.50635884689758 l -9.153799724804943 -8.73040975538691 a33.64958908023474,33.64958908023474 0 0,0 0.4033716230095429,-0.4157099148780226 l 9.002163838092281 8.886683865815057" fill="red" stroke="none" /><path d="M 85.05521093208273 85.24692304244772 l -9.051247598215289 -8.93513797829332 a33.71856020842523,33.71856020842523 0 0,0 0.41130895215721536,-0.40954266080309776 l 8.896102845890761 9.089616489746527" fill="red" stroke="none" /><path d="M 85.31137513191541 84.99185889309783 l -28.372870603207524 -28.99005519203127 a61.5640615114337,61.5640615114337 0 0,0 0.7637366483335094,-0.7347140505890747 l 27.86965071126159 29.474152329382658" fill="red" stroke="none" /><path d="M 85.57189188830299 84.74124197986013 l -27.10312793737806 -28.66349957899656 a60.44839353009219,60.44839353009219 0 0,0 0.7622027640016399,-0.708384401281459 l 26.605717289581563 29.125788566352668" fill="red" stroke="none" /><path d="M 85.83668400450813 84.49514656593479 l -5.519058440344894 -6.041819037210315 a29.183127968346774,29.183127968346774 0 0,0 0.3738067033840945,-0.33560734912232043 l 5.414240749364828 6.135925395101914" fill="red" stroke="none" /><path d="M 86.10567301691215 84.25364557470407 l -9.386786260735732 -10.637986536228384 a35.18726590466653,35.18726590466653 0 0,0 0.45761240605854187,-0.39683696914643557 l 9.202280056030418 10.7979884987945" fill="red" stroke="none" /><path d="M 86.65592168130627 83.78471172551755 l -5.084006662970052 -6.177918898599432 a29.00086280764743,29.00086280764743 0 0,0 0.3881925701869939,-0.31389139477417144 l 4.9769106942185575 6.264516390637738" fill="red" stroke="none" /><path d="M 86.93701828274178 83.55741782278169 l -28.986577771523447 -36.485864970240485 a67.5987127883507,67.5987127883507 0 0,0 0.917306307514674,-0.7159721230867505 l 28.354238908849347 36.97941548255046" fill="red" stroke="none" /><path d="M 87.22198572758235 83.33499621200491 l -19.31668165988936 -25.19269161628853 a52.7459588171931,52.7459588171931 0 0,0 0.7252665943888605,-0.5462557625403289 l 18.880168911742107 25.521463968334714" fill="red" stroke="none" /><path d="M 87.51073957382395 83.11751280151077 l -4.764947920480614 -6.4410677273075505 a29.011996140329536,29.011996140329536 0 0,0 0.4040330549126372,-0.2935471971139571 l 4.653369549214195 6.522134159238176" fill="red" stroke="none" /><path d="M 87.80319425747018 82.90503203632743 l -11.386012417150253 -15.95856502218828 a40.60400663973849,40.60400663973849 0 0,0 0.5724562844840413,-0.4010422105521561 l 11.109624993082551 16.152192075504377" fill="red" stroke="none" /><path d="M 88.09926311788651 82.69761687909137 l -14.364062952165948 -20.883792561178566 a46.346776841092115,46.346776841092115 0 0,0 0.6612036557609005,-0.4464476599192868 l 14.002454601998508 21.12795213339652" fill="red" stroke="none" /><path d="M 88.39885842347998 82.49532879139004 l -3.4581262142160014 -5.217879807642541 a27.25978486854394,27.25978486854394 0 0,0 0.39336255643787404,-0.2558539487985542 l 3.3677966319938406 5.276632680600631" fill="red" stroke="none" /><path d="M 88.70189139769569 82.29822771554957 l -5.486114416772383 -8.595593435200149 a31.19714067261866,31.19714067261866 0 0,0 0.45515268584949053,-0.28501657012316456 l 5.3373425785506505 8.688754346646244" fill="red" stroke="none" /><path d="M 89.00827224532344 82.1063720568725 l -30.930557579596808 -50.35240152916921 a80.09368605815206,80.09368605815206 0 0,0 1.1809544504789753,-0.7115118426240564 l 30.059241062900185 50.877359981251885" fill="red" stroke="none" /><line stroke="#e1ed5e" stroke-width="0.3" x1="56.762969772571076" x2="54.21961505331055" y1="26.818313649435495" y2="22.513508569990535" /><path d="M 56.25429882871897 25.957352633546506 a86.0,86.0 0 0,1 42.265352541879196,-11.944610805530505" fill="none" id="id48" stroke="none" /><text fill="#e1ed5e" style="font-size:6.75px; font-family:Arial;" text-anchor="middle"><textPath startOffset="22.20632615414155" xlink:href="#id48">December</textPath></text><path d="M 89.3179101791058 81.91981866633112 l -15.56999827354295 -26.353306971818984 a51.60917566007052,51.60917566007052 0 0,0 0.7687389895829203,-0.44530324143483546 l 15.11406255149471 26.617414370643868" fill="red" stroke="none" /><path d="M 89.63071344664047 81.73862282372117 l -4.131007698153418 -7.27512826517944 a29.366164944406464,29.366164944406464 0 0,0 0.44171733820356923,-0.24581522047307308 l 4.005166270877803 7.345158883212697" fill="red" stroke="none" /><path d="M 89.94658935756843 81.56283822128135 l -3.8519084970451223 -7.0640962199535755 a29.046033462170712,29.046033462170712 0 0,0 0.44102245943417756,-0.23557892425474833 l 3.7297409910826396 7.129353870710074" fill="red" stroke="none" /><path d="M 90.26544431104013 81.39251694778311 l -4.645260458363551 -8.879358032761811 a31.021050034802123,31.021050034802123 0 0,0 0.47527131012770474,-0.24345242468524572 l 4.491728660647082 8.958002982759561" fill="red" stroke="none" /><path d="M 90.58718382345135 81.22770947309562 l -9.459528779217194 -18.865451014915056 a42.10421585183865,42.10421585183865 0 0,0 0.6506679916150827,-0.3192799576654578 l 9.133389520591686 19.025486132715344" fill="red" stroke="none" /><path d="M 90.91171255644093 81.06846463323043 l -3.7167508927067723 -7.74225082687255 a29.588171229350593,29.588171229350593 0 0,0 0.4610425863829316,-0.21646567621293838 l 3.582930095024232 7.805081485725497" fill="red" stroke="none" /><path d="M 91.23893434514133 80.91482961587045 l -5.040200043299777 -10.97960914642011 a33.08120165731171,33.08120165731171 0 0,0 0.5195605642470467,-0.2331116803507163 l 4.850457360585955 11.064741157287354" fill="red" stroke="none" /><path d="M 91.56875222667455 80.76684994638697 l -15.449670326866638 -35.24339880220108 a59.481027433526926,59.481027433526926 0 0,0 0.9412624533086311,-0.40299946002384174 l 14.840724115767697 35.504117790187706" fill="red" stroke="none" /><path d="M 91.90106846888425 80.62456947434976 l -3.078033841063953 -7.363715894375373 a28.98114052625384,28.98114052625384 0 0,0 0.4619264386601453,-0.18843139261161537 l 2.9508235328154275 7.415608173170565" fill="red" stroke="none" /><path d="M 92.23578459929587 80.48803036053334 l -3.1306573007518392 -7.867541928100644 a29.467539850816905,29.467539850816905 0 0,0 0.47290747694134394,-0.18348075399477337 l 2.994766658810819 7.920265385985968" fill="red" stroke="none" /><path d="M 92.57280143429618 80.3572730644239 l -16.008406370102257 -42.337464418100964 a66.26289835907878,66.26289835907878 0 0,0 1.0703593461397773,-0.394222380317386 l 15.277264698189908 42.60675006622468" fill="red" stroke="none" /><path d="M 92.91201910852362 80.23233633223022 l -15.63529953941637 -43.605273119696655 a67.32367035901423,67.32367035901423 0 0,0 1.0942276307639398,-0.3817545346508001 l 14.882389904589145 43.867948507519664" fill="red" stroke="none" /><path d="M 93.25333710446033 80.11325718540243 l -2.670442818752451 -7.871507789833185 a29.312153736164355,29.312153736164355 0 0,0 0.4792078997474554,-0.15798731025415363 l 2.5345520967625865 7.916308824346572" fill="red" stroke="none" /><path d="M 93.59665428221793 80.00007090966166 l -14.336361092418244 -44.777561277944486 a68.01660603842303,68.01660603842303 0 0,0 1.118110823954067,-0.34740247568712734 l 13.563464895753448 45.01770388851414" fill="red" stroke="none" /><path d="M 93.94186890950719 79.89281104454417 l -9.122012199580396 -30.27633773702573 a52.62068521293841,52.62068521293841 0 0,0 0.8695186913802925,-0.25383634978637026 l 8.599503290476683 30.428872415730797" fill="red" stroke="none" /><path d="M 94.28887869178378 79.79150937346287 l -2.1459100921462797 -7.593185583388355 a28.890589168582533,28.890589168582533 0 0,0 0.47972425831690424,-0.13112676148685465 l 2.0148879446056527 7.628998885701505" fill="red" stroke="none" /><path d="M 94.63758080256005 79.69619591428918 l -9.967906999998196 -37.74162806390991 a60.03574847335612,60.03574847335612 0 0,0 1.0014280500647508,-0.25528630768716415 l 9.316770061248445 37.90761736776594" fill="red" stroke="none" /><path d="M 95.33964822691252 79.52364482259891 l -9.456366333874435 -41.54877682371818 a63.61130976381241,63.61130976381241 0 0,0 1.0697522318673582,-0.23380640391470586 l 8.739771377853556 41.705396725728754" fill="red" stroke="none" /><path d="M 95.692805502759 79.44645832069477 l -1.6350709918534674 -7.802410548492756 a28.971892342200295,28.971892342200295 0 0,0 0.4889815155894107,-0.09808509192797125 l 1.50052306679692 7.829399596497939" fill="red" stroke="none" /><path d="M 96.04723909329186 79.375362276772 l -1.5382432705873874 -8.026215330205599 a29.172290063766383,29.172290063766383 0 0,0 0.49399088929890067,-0.09027367750907427 l 1.3998572601855934 8.05150448906541" fill="red" stroke="none" /><path d="M 96.40284397218896 79.31037775812273 l -8.07684082444445 -46.45525083525977 a68.15215464716661,68.15215464716661 0 0,0 1.1575182429214452,-0.1910004280810582 l 7.275993375384119 46.587397526280455" fill="red" stroke="none" /><path d="M 96.75951476605007 79.25152402106235 l -6.211301360157976 -39.77028986862287 a61.252406397891136,61.252406397891136 0 0,0 1.0431314548226935,-0.15373046074203894 l 5.525800924906634 39.87131481352588" fill="red" stroke="none" /><path d="M 97.11714578562143 79.19881850522333 l -1.092910434940743 -7.885875116872063 a28.961248619262204,28.961248619262204 0 0,0 0.4943895749536972,-0.0641859559047997 l 0.9570061314791881 7.903519395940999" fill="red" stroke="none" /><path d="M 97.47563105711357 79.15227682838746 l -2.103376460350845 -17.37091968852255 a38.497801100682864,38.497801100682864 0 0,0 0.6585567617631196,-0.07399652547179085 l 1.8040529950780075 17.40455216746494" fill="red" stroke="none" /><path d="M 97.83486435360386 79.11191278185805 l -0.6762705863314182 -6.524302074961121 a27.559257539636558,27.559257539636558 0 0,0 0.47228020497924533,-0.04484869618966593 l 0.5638652542619366 6.534976315665968" fill="red" stroke="none" /><path d="M 98.19473922651362 79.07773832637324 l -0.7733162953091266 -8.962431425178938 a29.99573205156899,29.99573205156899 0 0,0 0.5147979099354354,-0.039958225695608744 l 0.6189281960113571 8.97441491306301" fill="red" stroke="none" /><path d="M 98.55514903715128 79.0497635885617 l -3.271050304898462 -47.42999725467572 a68.54265884104214,68.54265884104214 0 0,0 1.1777520277755404,-0.07104521861669158 l 2.4541362282832986 47.47927574267271" fill="red" stroke="none" /><path d="M 98.91598698831166 79.02799685794201 l -1.6731956788916105 -32.37070464711491 a53.4139183550926,53.4139183550926 0 0,0 0.9186155377118974,-0.03955751741299321 l 1.1157393087903889 32.3947098910521" fill="red" stroke="none" /><path d="M 99.27714615592234 79.0124445844662 l -0.2899534202377171 -8.418594609436488 a29.42358642051832,29.42358642051832 0 0,0 0.5063285918769986,-0.013076973713330556 l 0.14499819316583948 8.422338375292178" fill="red" stroke="none" /><path d="M 99.63851952072746 79.00311137660856 l -0.13818457474332965 -8.026563788991869 a29.02775318725311,29.02775318725311 0 0,0 0.4996650540158634,-0.00430077486980188 l 1.966232449022897e-15 8.027753187253111" fill="red" stroke="none" /></svg>