<?xml version="1.0" encoding="utf-8" ?>
<svg baseProfile="full" height="200mm" version="1.1" viewBox="0,0,200,200" width="200mm" xmlns="http://www.w3.org/2000/svg" xmlns:ev="http://www.w3.org/2001/xml-events" xmlns:xlink="http://www.w3.org/1999/xlink"><defs /><rect fill="#1a1a1a" height="200" width="200" x="0" y="0" /><text alignment-baseline="middle" fill="#e1ed5e" style="dominant-baseline: central; font-size:9.0px; font-family:Arial;" text-anchor="middle" x="100.0" y="100.0">2024</text><line stroke="#e1ed5e" stroke-width="0.3" x1="100.0" x2="100.0" y1="15.0" y2="10.0" /><path d="M 100.0 14.0 a86.0,86.0 0 0,1 42.35913384403234,11.155469271406648" fill="none" id="id73" stroke="none" /><text fill="#e1ed5e" style="font-size:6.75px; font-family:Arial;" text-anchor="middle"><textPath startOffset="22.145653131862478" xlink:href="#id73">January</textPath></text><path d="M 100.72087961077811 79.0123766808444 l 0.6008750433323174 -17.493821274439718 a38.5041376137112,38.5041376137112 0 0,0 0.660390403749484,0.028360005422022275 l -0.9010912076826376 17.480928700591864" fill="#ff7e0b" stroke="none" /><path d="M 101.08105385017728 79.02784411241856 l 0.9027603819044033 -17.51331023457064 a38.53656213969696,38.53656213969696 0 0,0 0.6603618826365844,0.03972573103620497 l -1.20326661667345 17.495232525709742" fill="#ff7e0b" stroke="none" /><path d="M 101.44090949804482 79.04949213459386 l 1.198575040767235 -17.427018041692754 a38.46818651016284,38.46818651016284 0 0,0 0.6584123307867443,0.05096527849349926 l -1.497556366329213 17.403874996204202" fill="#ff7d0b" stroke="none" /><path d="M 101.80034050326958 79.07731436759882 l 5.188515502554019 -60.298414972960515 a81.52123215344837,81.52123215344837 0 0,0 1.3932383720602066,0.1319411223785754 l -6.222853437999238 60.20046209507676" fill="#49edff" stroke="none" /><path d="M 102.51750503828377 79.15144685158666 l 2.281848987070094 -18.89698298916436 a40.0342533578956,40.0342533578956 0 0,0 0.6815777837852725,0.08824388977361347 l -2.605904592746158 18.85502750319035" fill="#ff960d" stroke="none" /><path d="M 102.87502721639298 79.19773525538626 l 2.4030210040321363 -17.387062921602354 a38.552335086408846,38.552335086408846 0 0,0 0.6547928593105776,0.09623200128816138 l -2.7011389689503957 17.34324984701531" fill="#ff7f0b" stroke="none" /><path d="M 103.23170211078529 79.25015418208739 l 2.706172913969731 -17.375571385147943 a38.58504628372287,38.58504628372287 0 0,0 0.6535985242313685,0.10754938843886382 l -3.00404894125417 17.32655599821341" fill="#ff7f0b" stroke="none" /><path d="M 103.58742460773223 79.30868818359171 l 2.9902343499756996 -17.246877106803968 a38.50417868410207,38.50417868410207 0 0,0 0.6502902282092811,0.11850454188697579 l -3.2858593117360346 17.193004390985624" fill="#ff7e0b" stroke="none" /><path d="M 104.29559338865022 79.4440306129975 l 5.722413124376481 -27.38381833701131 a48.975337686620925,48.975337686620925 0 0,0 0.821474028190343,0.17903644102907712 l -6.191649569185958 27.281550437848512" fill="#e6ff1a" stroke="none" /><path d="M 104.64783097203109 79.52079915486377 l 2.1725620832936468 -9.572709403598475 a30.816149516562383,30.816149516562383 0 0,0 0.5148760005193299,0.12150933418789563 l -2.336570237552862 9.534003925764353" fill="#ff0000" stroke="none" /><path d="M 104.9986988182912 79.60360301121754 l 3.534872443150317 -14.423485846232301 a35.85032885648688,35.85032885648688 0 0,0 0.5964721494564483,0.15162088790563313 l -3.7819498858321596 14.3606797264914" fill="#ff5407" stroke="none" /><path d="M 106.04205211174951 79.88797359093562 l 4.36364964002845 -14.525170451524726 a36.166476678080755,36.166476678080755 0 0,0 0.5930602390536589,0.18373157804899945 l -4.61235051195374 14.448122285669081" fill="#ff5908" stroke="none" /><path d="M 106.38641147887787 79.99465700312896 l 5.930745436905853 -18.577975610377695 a40.50166452426993,40.50166452426993 0 0,0 0.6605190089038817,0.2171257178012733 l -6.248787183457477 18.473428971174403" fill="#ff9d0e" stroke="none" /><path d="M 106.72888874123014 80.10723608172694 l 5.553648324653694 -16.418374453201587 a38.33222517161231,38.33222517161231 0 0,0 0.6215191150287928,0.2161966110694997 l -5.834673211727505 16.320619409563495" fill="#ff7b0b" stroke="none" /><path d="M 107.06938296918511 80.22567764915836 l 5.794163544931496 -16.207306661754924 a38.21188892636653,38.21188892636653 0 0,0 0.6157770356414312,0.22612185688821856 l -6.071529732227051 16.105453955857982" fill="#ff790b" stroke="none" /><path d="M 107.74402155503746 80.48000691201159 l 8.460515490238084 -21.32602585317407 a43.94296626530247,43.94296626530247 0 0,0 0.6987884545884174,0.28419118107306096 l -8.82535840601694 21.17764741552171" fill="#ffd013" stroke="none" /><path d="M 108.73861861582097 80.90454125486305 l 7.248110940500119 -15.83843048075317 a38.41812252510151,38.41812252510151 0 0,0 0.5973309807768094,0.2795810600129039 l -7.5189306351484335 15.711673189169732" fill="#ff7c0b" stroke="none" /><path d="M 109.06512990194946 81.05736502329252 l 7.39700648006658 -15.456898598012206 a38.13567679245202,38.13567679245202 0 0,0 0.588088003175716,0.28766331181889326 l -7.6612547325043625 15.327641536096092" fill="#ff780b" stroke="none" /><path d="M 109.3889696526874 81.21577127319529 l 7.817932180205008 -15.641101385558757 a38.48611209296146,38.48611209296146 0 0,0 0.5884210921490366,0.30045200231757235 l -8.085280494067623 15.50459143156835" fill="#ff7e0b" stroke="none" /><path d="M 110.02825361518725 81.54914285379988 l 14.513638846243895 -26.703460771877022 a51.392771011449,51.392771011449 0 0,0 0.7715176070534281,0.42794781117066727 l -14.969900641453423 26.450380045273207" fill="#c5ff1e" stroke="none" /><line stroke="#e1ed5e" stroke-width="0.3" x1="143.13028292997686" x2="145.6673583964461" y1="26.7553504044142" y2="22.446841604673864" /><path d="M 143.63769802327073 25.89364864446614 a86.0,86.0 0 0,1 29.32050498858742,28.57503671076993" fill="none" id="id74" stroke="none" /><text fill="#e1ed5e" style="font-size:6.75px; font-family:Arial;" text-anchor="middle"><textPath startOffset="20.669276256404974" xlink:href="#id74">February</textPath></text><path d="M 110.65571695917076 81.90426304109057 l 8.817661394549887 -14.974316772854921 a38.37760959633803,38.37760959633803 0 0,0 0.5648220003740549,0.3391593825704105 l -9.073416151481377 14.820743389748591" fill="#ff7c0b" stroke="none" /><path d="M 110.96478420261332 82.08984904055464 l 15.632279244534917 -25.53415333455407 a50.93929092165738,50.93929092165738 0 0,0 0.7418601151361606,0.4629755795818495 l -16.068303488460792 25.262041958130677" fill="#cbff1d" stroke="none" /><path d="M 111.5731344415666 82.4767994020092 l 8.192491505461573 -12.404476312996662 a35.8656634452269,35.8656634452269 0 0,0 0.5108358603014795,0.34371316469093294 l -8.404223653860054 12.26201347424861" fill="#ff5407" stroke="none" /><path d="M 111.8722381534696 82.67804972795209 l 9.548100364469686 -13.93096378019772 a37.888989680119025,37.888989680119025 0 0,0 0.5333414923766621,0.37231378306660073 l -9.78583694802011 13.765005181325993" fill="#ff740a" stroke="none" /><path d="M 112.16784306229584 82.88440491214696 l 9.901678453843168 -13.927950766495346 a38.088915962026974,38.088915962026974 0 0,0 0.5296517502467601,0.3834270216003945 l -10.139311214463897 13.755922973521876" fill="#ff770b" stroke="none" /><path d="M 112.7482090630111 83.31218511350987 l 10.376433126178203 -13.583084050145457 a38.092996716063695,38.092996716063695 0 0,0 0.516232764020701,0.4014257197084554 l -10.60807583483413 13.402957278816212" fill="#ff770b" stroke="none" /><path d="M 113.03279911837588 83.53348406188908 l 18.062567518659495 -22.821464002299145 a50.10456260750827,50.10456260750827 0 0,0 0.6698484454164103,0.5395824915439521 l -18.451666734431164 22.508033216961785" fill="#d6ff1c" stroke="none" /><path d="M 113.59037401385872 83.9905735841838 l 11.21523711667429 -13.21152112312971 a38.32991153959336,38.32991153959336 0 0,0 0.4979612574702575,0.43012707411492446 l -11.440377853907409 13.017049916550066" fill="#ff7b0b" stroke="none" /><path d="M 113.86319453409587 84.22622945171908 l 11.304300991869777 -12.862219426836269 a38.12378198584858,38.12378198584858 0 0,0 0.48786635854088073,0.4362531061405058 l -11.523432377234032 12.666270790812376" fill="#ff780b" stroke="none" /><path d="M 114.13192950727249 84.46653392183569 l 11.834610475852916 -13.008310031573988 a38.5861916000229,38.5861916000229 0 0,0 0.4861313112257726,0.44995588415150617 l -12.056171558392654 12.803236401290107" fill="#ff7f0b" stroke="none" /><path d="M 114.39649973595853 84.71141617570332 l 15.887757433263873 -16.872247820895396 a44.175279562239176,44.175279562239176 0 0,0 0.5476209864115528,0.5246085172943938 l -16.175050905540736 16.59702717329542" fill="#ffd413" stroke="none" /><path d="M 114.65682725009322 84.96080404539774 l 12.133920662441973 -12.450471539732552 a38.385231439475476,38.385231439475476 0 0,0 0.46794901886605295,0.4639494786351527 l -12.345861601437988 12.24034205086874" fill="#ff7c0b" stroke="none" /><path d="M 115.16444852881244 85.47280134310134 l 12.371462796336573 -11.851581505080086 a38.13222332018516,38.13222332018516 0 0,0 0.44876935905951937,0.4765775076993469 l -12.573087989132352 11.637462537436244" fill="#ff780b" stroke="none" /><path d="M 115.41159269507618 85.73525988315684 l 12.60296511412484 -11.665116358289714 a38.17293420823262,38.17293420823262 0 0,0 0.4409924573585227,0.48472796114499034 l -12.80135527232524 11.447050821587052" fill="#ff790b" stroke="none" /><path d="M 115.6541949942343 86.00192230759917 l 12.630056463429474 -11.293874370391583 a37.94313797865096,37.94313797865096 0 0,0 0.4300022398862643,0.4892636145681205 l -12.822069767274328 11.075398478012165" fill="#ff750a" stroke="none" /><path d="M 115.8921839302757 86.27271002978787 l 12.899019156031324 -11.141865527294518 a38.04481923095628,38.04481923095628 0 0,0 0.4226696741414889,0.4979038133508988 l -13.088383393679925 10.918794931494068" fill="#ff770a" stroke="none" /><path d="M 116.1254893667686 86.54754324733833 l 12.877647111039796 -10.742991229420056 a37.770380307907985,37.770380307907985 0 0,0 0.4110733599018607,0.5014426594868968 l -13.060167290180285 10.520346288234665" fill="#ff720a" stroke="none" /><path d="M 116.57777611688842 87.10902102172516 l 13.382186378886477 -10.406069069652812 a37.951967017477344,37.951967017477344 0 0,0 0.39551013987092787,0.517735469137099 l -13.558848496111711 10.174812687274832" fill="#ff750a" stroke="none" /><path d="M 117.21940702142032 87.97951657250589 l 13.857621888045275 -9.673696315007492 a37.90012085125491,37.90012085125491 0 0,0 0.36783017168691673,0.5366752132290756 l -14.021641796547517 9.434386366708368" fill="#ff740a" stroke="none" /><path d="M 117.42321728460499 88.27688183743584 l 16.19496363100982 -10.896694289206387 a40.51960023776496,40.51960023776496 0 0,0 0.38334544342599547,0.5804338606274839 l -16.37963351335654 10.617080550239844" fill="#ff9d0e" stroke="none" /><path d="M 117.62189284568427 88.57770195909679 l 14.227655010501598 -9.222194084155936 a37.955088640985984,37.955088640985984 0 0,0 0.34969705546675867,0.5497818543308003 l -14.383869757594246 8.976598555146463" fill="#ff750a" stroke="none" /><path d="M 117.81537515405839 88.88188828441811 l 14.342453864274209 -8.950751974608533 a37.90626936257058,37.90626936257058 0 0,0 0.33977020200088,0.554989090246447 l -14.49399203073049 8.703225768237532" fill="#ff740a" stroke="none" /><line stroke="#e1ed5e" stroke-width="0.3" x1="172.87174338648825" x2="177.1583165268699" y1="56.24261187166439" y2="53.66864786411523" /><path d="M 173.72905801456457 55.72781907015455 a86.0,86.0 0 0,1 12.242430191666344,42.057860355516425" fill="none" id="id75" stroke="none" /><text fill="#e1ed5e" style="font-size:6.75px; font-family:Arial;" text-anchor="middle"><textPath startOffset="22.145653131862474" xlink:href="#id75">March</textPath></text><path d="M 118.00360718960297 89.18935116829356 l 16.85436703150136 -10.120563137118184 a40.65948845328778,40.65948845328778 0 0,0 0.3541756843229278,0.6014677421807371 l -17.025616425954055 9.829744226643891" fill="#ff9f0e" stroke="none" /><path d="M 118.18653347947321 89.5 l 14.732641010005244 -8.50589425300065 a38.011788506001295,38.011788506001295 0 0,0 0.3214107321204661,0.5679019666753364 l -14.876485107147085 8.251735516226194" fill="#ff760a" stroke="none" /><path d="M 118.36410011445183 89.81374322990088 l 15.023285201141848 -8.33316305375789 a38.1796596216387,38.1796596216387 0 0,0 0.31299075971278484,0.5758677449875673 l -15.164121310469973 8.07404047529572" fill="#ff790b" stroke="none" /><path d="M 118.53625476483649 90.13048839642627 l 14.942343883239829 -7.955956486958934 a37.928404660433266,37.928404660433266 0 0,0 0.3010647149308254,0.577331287750493 l -15.0767166671456 7.698278956103943" fill="#ff750a" stroke="none" /><path d="M 118.70294669586156 90.45014215332178 l 15.224872069349736 -7.773928160118411 a38.09475617160852,38.09475617160852 0 0,0 0.29238648123417044,0.584968824407291 l -15.356078463795644 7.511427479547368" fill="#ff770b" stroke="none" /><path d="M 118.8641267826498 90.77261029715802 l 15.432172888672923 -7.548649075895104 a38.17946631699901,38.17946631699901 0 0,0 0.28292937518790157,0.5912135773387889 l -15.559481521820736 7.282622996491211" fill="#ff790b" stroke="none" /><path d="M 119.0197475246899 91.09779779509293 l 15.341802226839889 -7.180738095168227 a37.93912321104223,37.93912321104223 0 0,0 0.27102180340164955,0.5922315520806787 l -15.46280849509659 6.916317560872864" fill="#ff750a" stroke="none" /><path d="M 119.16976305983485 91.42560881287824 l 15.455194335879137 -6.912911844303093 a37.93078208845937,37.93078208845937 0 0,0 0.26075808391291017,0.5966655260421406 l -15.571586301809017 6.6465842484851025" fill="#ff750a" stroke="none" /><path d="M 119.31412917781788 91.75594674310238 l 15.465864185395786 -6.601457763613933 a37.81583181427213,37.81583181427213 0 0,0 0.24971802571402751,0.5992323550583822 l -15.576908055646296 6.3349928991142725" fill="#ff730a" stroke="none" /><path d="M 119.71291397450082 92.76114493625339 l 15.856096101788223 -5.822578118392516 a37.89136464392167,37.89136464392167 0 0,0 0.2189756938090131,0.612513988173117 l -15.95371196564118 5.549529173838482" fill="#ff740a" stroke="none" /><path d="M 119.83427380445688 93.10060997987247 l 21.096106854807037 -7.338321056397514 a43.33599517272968,43.33599517272968 0 0,0 0.23837805776761406,0.7047223707849049 l -21.218970334147016 6.975097011138447" fill="#ffc812" stroke="none" /><path d="M 119.94978838288452 93.4421083053983 l 16.19061253195739 -5.3221759256819485 a38.042930814384135,38.042930814384135 0 0,0 0.19861178726195933,0.622148594799793 l -16.27958903499661 5.043458297190768" fill="#ff770a" stroke="none" /><path d="M 120.05942366710727 93.78553927170692 l 16.406619915265885 -5.0828127886165815 a38.17591810903055,38.17591810903055 0 0,0 0.18855936730994347,0.6276528081641992 l -16.491455602579457 4.8004223768616585" fill="#ff790b" stroke="none" /><path d="M 120.96210409425399 98.7389718711861 l 16.87029032464591 -1.0148747733042287 a37.90078892961304,37.90078892961304 0 0,0 0.033494209565502114,0.649778717520745 l -16.885226123667987 0.725124262406753" fill="#ff740a" stroke="none" /><path d="M 120.98066250479742 99.09900007780936 l 62.94198751439227 -2.7029997665719256 a84.0,84.0 0 0,0 0.049501252012607466,1.4411749417435202 l -62.97911345340172 1.6221185602642854" fill="#4dd2ff" stroke="none" /><path d="M 120.99303781780057 99.45929381324524 l 16.72104920710715 -0.43067491393014967 a37.72659461659747,37.72659461659747 0 0,0 0.011117791015914829,0.6475555895017797 l -16.725978429721728 0.14357240845930352" fill="#ff720a" stroke="none" /><line stroke="#e1ed5e" stroke-width="0.3" x1="184.99686870605535" x2="189.99668451229388" y1="99.2704041080226" y2="99.22748670261217" /><path d="M 185.99683186730306 99.26182062694052 a86.0,86.0 0 0,1 -10.086455211305974,41.156179273409016" fill="none" id="id76" stroke="none" /><text fill="#e1ed5e" style="font-size:6.75px; font-family:Arial;" text-anchor="middle"><textPath startOffset="21.40746469413373" xlink:href="#id76">April</textPath></text><path d="M 120.99922638620191 99.81974689727618 l 16.783933187440624 -0.14406988035204443 a37.78455150937598,37.78455150937598 0 0,0 0.0,0.6486459661517406 l -16.783933187440624 -0.1440698803520424" fill="#ff720a" stroke="none" /><line stroke="#e1ed5e" stroke-width="0.3" x1="174.33088141563837" x2="178.70328620479359" y1="141.23008692659167" y2="143.65538615756765" /><path d="M 175.20536237346943 141.71514677278685 a86.0,86.0 0 0,1 -30.301960400862466,31.631185727798858" fill="none" id="id77" stroke="none" /><text fill="#e1ed5e" style="font-size:6.75px; font-family:Arial;" text-anchor="middle"><textPath startOffset="22.145653131862474" xlink:href="#id77">May</textPath></text><line stroke="#e1ed5e" stroke-width="0.3" x1="143.1302829299769" x2="145.66735839644613" y1="173.24464959558577" y2="177.55315839532614" /><path d="M 143.63769802327073 174.10635135553383 a86.0,86.0 0 0,1 -40.68552437913181,11.842963189579606" fill="none" id="id78" stroke="none" /><text fill="#e1ed5e" style="font-size:6.75px; font-family:Arial;" text-anchor="middle"><textPath startOffset="21.407464694133747" xlink:href="#id78">June</textPath></text><line stroke="#e1ed5e" stroke-width="0.3" x1="101.45913802915013" x2="101.54496967792366" y1="184.9874750549273" y2="189.98673829345242" /><path d="M 101.47630435890484 185.9873277026323 a86.0,86.0 0 0,1 -42.54439059252881,-10.42667462771756" fill="none" id="id79" stroke="none" /><text fill="#e1ed5e" style="font-size:6.75px; font-family:Arial;" text-anchor="middle"><textPath startOffset="22.145653131862474" xlink:href="#id79">July</textPath></text><line stroke="#e1ed5e" stroke-width="0.3" x1="58.13341422392154" x2="55.67067388415222" y1="173.97424548756322" y2="178.32567169271397" /><path d="M 57.64086615596768 174.84453072859336 a86.0,86.0 0 0,1 -31.369924170532247,-30.572349798747897" fill="none" id="id80" stroke="none" /><text fill="#e1ed5e" style="font-size:6.75px; font-family:Arial;" text-anchor="middle"><textPath startOffset="22.145653131862474" xlink:href="#id80">August</textPath></text><line stroke="#e1ed5e" stroke-width="0.3" x1="26.387840678322732" x2="22.057713659400548" y1="142.50000000000003" y2="145.00000000000006" /><path d="M 25.521815274538298 143.00000000000003 a86.0,86.0 0 0,1 -11.493303480769221,-40.785679425670985" fill="none" id="id81" stroke="none" /><text fill="#e1ed5e" style="font-size:6.75px; font-family:Arial;" text-anchor="middle"><textPath startOffset="21.40746469413373" xlink:href="#id81">September</textPath></text><line stroke="#e1ed5e" stroke-width="0.3" x1="15.003131293944662" x2="10.003315487706104" y1="100.72959589197737" y2="100.7725132973878" /><path d="M 14.003168132696942 100.73817937305945 a86.0,86.0 0 0,1 10.791469493833604,-42.45332614584628" fill="none" id="id82" stroke="none" /><text fill="#e1ed5e" style="font-size:6.75px; font-family:Arial;" text-anchor="middle"><textPath startOffset="22.145653131862435" xlink:href="#id82">October</textPath></text><line stroke="#e1ed5e" stroke-width="0.3" x1="26.387840678322718" x2="22.05771365940052" y1="57.49999999999999" y2="54.99999999999999" /><path d="M 25.521815274538284 56.99999999999999 a86.0,86.0 0 0,1 29.574782752854787,-30.34633250058573" fill="none" id="id83" stroke="none" /><text fill="#e1ed5e" style="font-size:6.75px; font-family:Arial;" text-anchor="middle"><textPath startOffset="21.40746469413373" xlink:href="#id83">November</textPath></text><line stroke="#e1ed5e" stroke-width="0.3" x1="56.869717070023135" x2="54.33264160355391" y1="26.7553504044142" y2="22.446841604673864" /><path d="M 56.362301976729285 25.89364864446614 a86.0,86.0 0 0,1 42.16139366436587,-11.88097634709845" fill="none" id="id84" stroke="none" /><text fill="#e1ed5e" style="font-size:6.75px; font-family:Arial;" text-anchor="middle"><textPath startOffset="22.145653131862474" xlink:href="#id84">December</textPath></text></svg>