<?xml version="1.0" encoding="utf-8" ?>
<svg baseProfile="full" height="200mm" version="1.1" viewBox="0,0,200,200" width="200mm" xmlns="http://www.w3.org/2000/svg" xmlns:ev="http://www.w3.org/2001/xml-events" xmlns:xlink="http://www.w3.org/1999/xlink"><defs /><rect fill="#1a1a1a" height="200" width="200" x="0" y="0" /><text alignment-baseline="middle" fill="#e1ed5e" style="dominant-baseline: central; font-size:9.0px; font-family:Arial;" text-anchor="middle" x="100.0" y="100.0">2023</text><line stroke="#e1ed5e" stroke-width="0.3" x1="100.0" x2="100.0" y1="15.0" y2="10.0" /><path d="M 100.0 14.0 a86.0,86.0 0 0,1 42.46469731375804,11.215312516191453" fill="none" id="id61" stroke="none" /><text fill="#e1ed5e" style="font-size:6.75px; font-family:Arial;" text-anchor="middle"><textPath startOffset="22.20632615414155" xlink:href="#id61">January</textPath></text><path d="M 109.41281617654863 81.2277094730956 l 18.814509702341205 -37.52239878364592 a62.9751853577616,62.9751853577616 0 0,0 0.9648383538578075,0.49422767937094675 l -19.457608543787767 37.19297857896247" fill="#3aff2e" stroke="none" /><path d="M 109.73455568895987 81.39251694778311 l 13.796083564087086 -26.371043456750506 a50.76178513975762,50.76178513975762 0 0,0 0.7707450780417754,0.41170532809751675 l -14.247973688657172 26.129659402151233" fill="#d5ff1c" stroke="none" /><path d="M 110.36928655335952 81.73862282372117 l 16.529665297248677 -29.110436001299252 a54.47607084209267,54.47607084209267 0 0,0 0.8114425219931829,0.47003988372915884 l -17.02830455170719 28.821591960180044" fill="#a3ff21" stroke="none" /><line stroke="#e1ed5e" stroke-width="0.3" x1="143.23703022742887" x2="145.7803849466894" y1="26.81831364943548" y2="22.513508569990506" /><path d="M 143.74570117128098 25.957352633546492 a86.0,86.0 0 0,1 28.547481713284135,27.462654790039103" fill="none" id="id62" stroke="none" /><text fill="#e1ed5e" style="font-size:6.75px; font-family:Arial;" text-anchor="middle"><textPath startOffset="19.985693538727396" xlink:href="#id62">February</textPath></text><path d="M 110.68208982089419 81.91981866633111 l 18.61762096735971 -31.511620734827513 a57.60051982991339,57.60051982991339 0 0,0 0.8493002830916371,0.5116939176769832 l -19.157283316668984 31.186480207691915" fill="#7bff26" stroke="none" /><path d="M 111.2981086023043 82.29822771554956 l 19.796623613011896 -31.017167167877858 a57.79634445967888,57.79634445967888 0 0,0 0.8340094362101301,0.5424629367928195 l -20.327600075006306 30.67180530692551" fill="#78ff26" stroke="none" /><path d="M 111.60114157652 82.49532879139004 l 17.959518874005905 -27.09866704760977 a53.50972276016801,53.50972276016801 0 0,0 0.7633934163120837,0.5154466424087006 l -18.423316984724533 26.785508492902398" fill="#b0ff20" stroke="none" /><path d="M 111.90073688211348 82.69761687909136 l 22.438618406927738 -32.623322087227585 a60.59511005185751,60.59511005185751 0 0,0 0.8543011990407957,0.5984925847210787 l -22.996850745552184 32.23224465974257" fill="#56ff2b" stroke="none" /><path d="M 112.19680574252982 82.90503203632743 l 22.876733309362585 -32.063888799455356 a60.388296381686,60.388296381686 0 0,0 0.8409923863923631,0.611016734442765 l -23.425271012108738 31.665352830195914" fill="#58ff2a" stroke="none" /><path d="M 113.6212207817346 84.01681056812373 l 21.56890515139924 -25.30903084217424 a54.25304063691294,54.25304063691294 0 0,0 0.7055638971528586,0.6118580588688628 l -22.001362847198862 24.934007789885705" fill="#a6ff21" stroke="none" /><path d="M 114.42810811169701 84.74124197986012 l 24.305029133768798 -25.704309626288737 a56.37578231725017,56.37578231725017 0 0,0 0.6993731403858287,0.6727964069385542 l -24.743885517767044 25.28213013258788" fill="#8aff24" stroke="none" /><path d="M 114.94478906791727 85.2469230424477 l 23.662931705287566 -23.35938305337775 a54.25049042530854,54.25049042530854 0 0,0 0.6503231976991656,0.6702152202519401 l -24.061519166689838 22.948603637575697" fill="#a6ff21" stroke="none" /><path d="M 115.19652480421416 85.50635884689758 l 27.785126732060057 -26.49998347887252 a59.39612469894787,59.39612469894787 0 0,0 0.6992696654236769,0.7459321239065378 l -28.2371637194542 26.017781938087925" fill="#65ff29" stroke="none" /><path d="M 115.4437574822437 85.77008943001954 l 28.416077435476005 -26.182633411679138 a59.6394066878536,59.6394066878536 0 0,0 0.6891372048902005,0.7609625138527709 l -28.862558280982242 25.689618110556818" fill="#62ff29" stroke="none" /><path d="M 115.68641384162765 86.03803664274999 l 23.891934071819783 -21.265428249722124 a52.98504263458567,52.98504263458567 0 0,0 0.6005176788431426,0.6864955168949686 l -24.254443614240774 20.851017176624207" fill="#b7ff1f" stroke="none" /><path d="M 116.38621287248628 86.86637796730983 l 25.340165385352822 -20.310254541846778 a53.475073846130684,53.475073846130684 0 0,0 0.569499145505884,0.723206081248765 l -25.68601861145267 19.87105606664497" fill="#b0ff20" stroke="none" /><path d="M 116.60985879189232 87.15038557335679 l 25.762539772323702 -19.930253885542257 a53.57182026633963,53.57182026633963 0 0,0 0.5579736199160913,0.7342278788770251 l -26.10178933246391 19.483841230784197" fill="#afff20" stroke="none" /><path d="M 116.82858285166822 87.43820079747576 l 29.846792411721946 -22.27932181932413 a58.24512314380817,58.24512314380817 0 0,0 0.5928171645037941,0.8086019461618458 l -30.225872188739366 21.76225742949079" fill="#73ff27" stroke="none" /><path d="M 117.04232023915458 87.72973835380427 l 29.827312132150514 -21.47529907479258 a57.75400684796857,57.75400684796857 0 0,0 0.5739301135681508,0.811783443865546 l -30.19255486552255 20.958689130595243" fill="#79ff26" stroke="none" /><path d="M 117.2510076193507 88.02491185347247 l 49.75719295574516 -34.53982426513205 a81.57043594940902,81.57043594940902 0 0,0 0.7907497659064429,1.1603277080715315 l -50.34436718732034 33.67821853379011" fill="#49edff" stroke="none" /><path d="M 117.65298651832404 88.62581576622439 l 27.133462825817862 -17.482651151452554 a53.277978502431424,53.277978502431424 0 0,0 0.4900873892605227,0.7752005550690417 l -27.43037781132434 17.013002948669303" fill="#b3ff20" stroke="none" /><line stroke="#e1ed5e" stroke-width="0.3" x1="172.23445277983987" x2="176.4835382374775" y1="55.19839476539836" y2="52.563006222186495" /><path d="M 173.08426987136738 54.67131705675599 a86.0,86.0 0 0,1 12.851231095245387,41.99856678651699" fill="none" id="id63" stroke="none" /><text fill="#e1ed5e" style="font-size:6.75px; font-family:Arial;" text-anchor="middle"><textPath startOffset="22.20632615414155" xlink:href="#id63">March</textPath></text><path d="M 117.84615892207809 88.93136811851018 l 26.761378191202954 -16.59807273560148 a52.490750725076566,52.490750725076566 0 0,0 0.469627752254182,0.7719445444027333 l -27.043121741743363 16.134960417991664" fill="#beff1f" stroke="none" /><path d="M 118.03404312379186 89.2402003453031 l 31.927036570891165 -19.04889074030002 a58.17789534972239,58.17789534972239 0 0,0 0.5057053312271218,0.8644143378587601 l -32.250201576588616 18.496496990087365" fill="#74ff27" stroke="none" /><path d="M 118.3937258080291 89.86733742301442 l 53.352300455492994 -29.390503254402418 a81.91198277383718,81.91198277383718 0 0,0 0.669696381867832,1.2408456863476982 l -53.85030493657929 28.467776584722262" fill="#4ae9ff" stroke="none" /><path d="M 118.56541770881063 90.18545643968196 l 32.79167605163592 -17.33520559959632 a58.09182351213955,58.09182351213955 0 0,0 0.4597291942021406,0.8880504743349835 l -33.08521467899818 16.768182403000992" fill="#75ff27" stroke="none" /><path d="M 119.04729006885535 91.15688171328212 l 33.8760904139779 -15.727711057028015 a58.3490347509727,58.3490347509727 0 0,0 0.4151052666295463,0.9146294307299935 l -34.14179799757079 15.14225961745596" fill="#71ff27" stroke="none" /><path d="M 119.196687751892 91.48605970444005 l 33.48289518053765 -14.85002903490437 a57.62823544764851,57.62823544764851 0 0,0 0.39436727662859195,0.9102540473309366 l -33.73355316700893 14.27147584298683" fill="#7bff26" stroke="none" /><path d="M 119.34039704204932 91.81776055985345 l 27.08522410219298 -11.458802444041678 a50.40941206684675,50.40941206684675 0 0,0 0.33120979247819426,0.8020507838110292 l -27.278455581557374 10.990877089777346" fill="#daff1b" stroke="none" /><path d="M 119.47837535516314 92.15188598940014 l 58.435126065489385 -23.54434203179955 a84.0,84.0 0 0,0 0.5288258004731983,1.3458039804168624 l -58.83174541584429 22.534989046486903" fill="#4dd2ff" stroke="none" /><path d="M 119.7369772167798 92.82701384747503 l 35.89467053098535 -13.04515741393818 a59.191667998169635,59.191667998169635 0 0,0 0.33977967709085416,0.9606029023592386 l -36.113903288886014 12.425356885152326" fill="#67ff28" stroke="none" /><path d="M 119.85752413597 93.16781622104841 l 35.95032970292375 -12.369077724013 a59.01868342659431,59.01868342659431 0 0,0 0.322249617129547,0.9634853385118847 l -36.15791661382507 11.748419282578801" fill="#69ff28" stroke="none" /><path d="M 119.97218684219823 93.5106431181261 l 35.16149959521724 -11.424663767571447 a57.970988571940055,57.970988571940055 0 0,0 0.30019176703497474,0.9516899362986806 l -35.35294684602042 10.817723664846346" fill="#76ff27" stroke="none" /><path d="M 120.08093135843002 93.85539295169968 l 31.584771630988868 -9.664691687781529 a54.03035065514129,54.03035065514129 0 0,0 0.2644762583016856,0.8916824648024927 l -31.746453786402256 9.119579836232507" fill="#a9ff21" stroke="none" /><path d="M 120.18372546131832 94.20196356495316 l 35.8152892288701 -10.28840549177616 a58.263738810146634,58.263738810146634 0 0,0 0.26860479586134384,0.9663143641964095 l -35.98708079529781 9.670379824160799" fill="#73ff27" stroke="none" /><path d="M 120.37134235888165 94.90015583598534 l 36.09558707748959 -9.036315126458048 a58.20949337915376,58.20949337915376 0 0,0 0.2349645596184398,0.9740797919551739 l -36.24578443736885 8.413650102843468" fill="#73ff27" stroke="none" /><path d="M 120.53481517161879 95.60439243477599 l 30.9210538210297 -6.618847891471069 a52.62152299958758,52.62152299958758 0 0,0 0.1819720023931064,0.8873601097100422 l -31.030405119337804 6.085612125597615" fill="#bcff1f" stroke="none" /><path d="M 120.6074358757038 95.95851677861258 l 35.54568335019142 -6.971138171630626 a57.222815631036205,57.222815631036205 0 0,0 0.18124448369228388,0.9682152791916714 l -35.66041355779356 6.358244814976392" fill="#80ff26" stroke="none" /><path d="M 120.83666639777658 97.38593545837742 l 36.944419181285134 -4.634863098971711 a58.234017572493016,58.234017572493016 0 0,0 0.11621748188790393,0.995680411995437 l -37.018727016176626 3.998238948651421" fill="#73ff27" stroke="none" /><path d="M 120.98425023603335 99.18683210126433 l 41.049404222924736 -1.5907195825842666 a62.08021392163736,62.08021392163736 0 0,0 0.032188016068462125,1.0681635497204642 l -41.07070393344884 0.8838858854388033" fill="#44ff2d" stroke="none" /><line stroke="#e1ed5e" stroke-width="0.3" x1="184.98032266829074" x2="189.97916517819016" y1="98.17113171792111" y2="98.06355123074" /><path d="M 185.9800911702706 98.14961562048488 a86.0,86.0 0 0,1 -9.607161424134198,41.387399972396054" fill="none" id="id64" stroke="none" /><text fill="#e1ed5e" style="font-size:6.75px; font-family:Arial;" text-anchor="middle"><textPath startOffset="21.466115282336823" xlink:href="#id64">April</textPath></text><path d="M 120.99513854157772 99.54816195383933 l 59.89646314454802 -1.2890365465115563 a80.91033226785211,80.91033226785211 0 0,0 0.017981330704635028,1.392673879195672 l -59.90977748237037 0.2578264092554215" fill="#48f4ff" stroke="none" /><path d="M 120.99980553446 99.90962569577887 l 37.61900881586766 -0.16189634430869612 a58.61935718103951,58.61935718103951 0 0,0 -0.004342585374006389,1.0090639054637407 l -37.616221933204145 -0.4856770393587293" fill="#6eff28" stroke="none" /><path d="M 120.99824983174949 100.27111621757518 l 36.80813279165132 0.47524349974105495 a57.81120068663726,57.81120068663726 0 0,0 -0.021411995002148503,0.9949312709310576 l -36.79449873396416 -1.1087645864622275" fill="#78ff26" stroke="none" /><path d="M 120.9904718944345 100.63252640178507 l 36.57656774177681 1.102197458909356 a57.593170770066024,57.593170770066024 0 0,0 -0.038389597767492935,0.9906649380359867 l -36.55217601115812 -1.7316396439593487" fill="#7bff26" stroke="none" /><path d="M 120.9764740272857 100.99374915477107 l 60.479522033779595 2.86518476955888 a81.54735228891634,81.54735228891634 0 0,0 -0.0784937888199614,1.4015593285251984 l -60.421241894072104 -3.905815814419501" fill="#49edff" stroke="none" /><path d="M 120.95626037817324 101.35467743843564 l 30.89272074399131 1.997000946188176 a51.95719961083863,51.95719961083863 0 0,0 -0.06537561980391866,0.8919983910527085 l -30.85376856552305 -2.5284724737376547" fill="#c5ff1e" stroke="none" /><path d="M 120.89721153311464 102.0752229133903 l 38.45568816747749 3.8188887119642914 a59.64484264981081,59.64484264981081 0 0,0 -0.1102512151903599,1.020789325187851 l -38.38425465078608 -4.480274359036934" fill="#61ff29" stroke="none" /><path d="M 120.8583938346157 102.4346265915055 l 61.593697753337544 7.189319350685832 a83.01185302549541,83.01185302549541 0 0,0 -0.17787657622713132,1.4178513268547335 l -61.46081966786357 -8.24848843182796" fill="#4cddff" stroke="none" /><path d="M 120.76222939487914 103.15116336523771 l 34.3201622129766 5.208902945712624 a55.71319927956627,55.71319927956627 0 0,0 -0.15206584960117467,0.9469141906247034 l -34.22541460901413 -5.798896366030532" fill="#93ff23" stroke="none" /><path d="M 120.70491114924044 103.5080841355445 l 30.892348575130704 5.234166771592372 a52.332629993031574,52.332629993031574 0 0,0 -0.15812816927641576,0.8868667494922059 l -30.797673963515102 -5.765152271817797" fill="#c0ff1e" stroke="none" /><path d="M 120.5718875245553 104.21870165774334 l 35.632477160617675 7.307194844788503 a57.374008922603565,57.374008922603565 0 0,0 -0.20672664463624657,0.9657580608968463 l -35.50141647725698 -7.919466725101518" fill="#7eff26" stroke="none" /><path d="M 120.49622156327973 104.57218783832717 l 37.18013550242798 8.293946415768323 a59.09398933068761,59.09398933068761 0 0,0 -0.23001472594268355,0.99089741931641 l -37.03186021055475 -8.932712492433296" fill="#68ff28" stroke="none" /><path d="M 120.41448212921028 104.9243191809786 l 41.10564513505651 9.915378480036361 a63.28461649786555,63.28461649786555 0 0,0 -0.2645558717947012,1.056769200010177 l -40.92887794896675 -10.621475519443933" fill="#36ff2e" stroke="none" /><path d="M 120.32669344350535 105.2749913415812 l 31.116960308727293 8.075179401955708 a53.14768640553593,53.14768640553593 0 0,0 -0.23742317617558575,0.8835399621388214 l -30.97334905620993 -8.609610297270079" fill="#b5ff20" stroke="none" /><path d="M 120.13307415673323 105.97154293290107 l 35.673901110042706 10.581008662874419 a58.21001161962906,58.21001161962906 0 0,0 -0.2931933714982706,0.9581729021112909 l -35.4864809660383 -11.193508537537769" fill="#73ff27" stroke="none" /><path d="M 120.02730092923936 106.31721596034902 l 30.562293963079206 9.64027114240677 a53.04666347663651,53.04666347663651 0 0,0 -0.2821773032416062,0.8684524407512069 l -30.391824408821353 -10.16492248313577" fill="#b6ff1f" stroke="none" /><path d="M 119.9155931802556 106.66101706037122 l 31.949987234558446 10.68606935890951 a54.689668485039626,54.689668485039626 0 0,0 -0.3062860222150328,0.8902105498658749 l -31.76131038140018 -11.234452611864684" fill="#a0ff22" stroke="none" /><path d="M 119.41010516605496 108.01547362559984 l 28.760786703813125 11.876871624532843 a52.116602182884094,52.116602182884094 0 0,0 -0.34955106100238076,0.8262354524954546 l -28.552084661618437 -12.370181602694462" fill="#c3ff1e" stroke="none" /><path d="M 119.26925614724726 108.34839909993367 l 34.83740312093456 15.093293827036717 a58.966461182993676,58.966461182993676 0 0,0 -0.41152669467690745,0.9278840566218867 l -34.57243534152638 -15.690726220151292" fill="#6aff28" stroke="none" /><path d="M 119.12269723197855 108.67885076344098 l 29.62308442454917 13.444459521303358 a53.5312253480242,53.5312253480242 0 0,0 -0.3880386328398246,0.8358006935996158 l -29.387271174869515 -13.952380282181805" fill="#b0ff20" stroke="none" /><line stroke="#e1ed5e" stroke-width="0.3" x1="174.80103733775053" x2="179.2010983576182" y1="140.37084112569926" y2="142.7455964860345" /><path d="M 175.68104954172406 140.8457921977663 a86.0,86.0 0 0,1 -30.038265399797805,32.042727171017184" fill="none" id="id65" stroke="none" /><text fill="#e1ed5e" style="font-size:6.75px; font-family:Arial;" text-anchor="middle"><textPath startOffset="22.206326154141568" xlink:href="#id65">May</textPath></text><path d="M 118.30583269289576 110.29060199501025 l 32.52217323559409 18.28230085977761 a58.30863541719822,58.30863541719822 0 0,0 -0.4993662708029411,0.8706871848531583 l -32.20265496863876 -18.839407890489085" fill="#72ff27" stroke="none" /><path d="M 118.12598468904814 110.60418214915192 l 35.395641315287286 20.707389652609514 a62.00789448807963,62.00789448807963 0 0,0 -0.5469070436608968,0.9166476632100393 l -35.03395339592816 -21.313599409705656" fill="#45ff2d" stroke="none" /><path d="M 117.94076556474637 110.91462005526583 l 26.964830471460036 16.40458866643696 a52.5628359256511,52.5628359256511 0 0,0 -0.4769085182460799,0.7689283823907246 l -26.678457313545994 -16.86631338019296" fill="#bdff1f" stroke="none" /><path d="M 117.75023020441432 111.22182372390056 l 30.55063073282263 19.31432937993415 a57.14393943069673,57.14393943069673 0 0,0 -0.5327859727622299,0.8268956613516916 l -30.21363989668335 -19.837346641207297" fill="#81ff25" stroke="none" /><path d="M 117.55443506779139 111.5257021239791 l 32.000840419352635 21.010767533452366 a59.28192967823917,59.28192967823917 0 0,0 -0.5674039890755279,0.8481919772837191 l -31.634433324866386 -21.558496424941893" fill="#66ff29" stroke="none" /><path d="M 117.14729908036423 112.12312394758627 l 30.033086431577296 21.233363203859685 a57.78100044253303,57.78100044253303 0 0,0 -0.5811673766770101,0.807190655869167 l -29.663139262524684 -21.747187465179984" fill="#79ff26" stroke="none" /><line stroke="#e1ed5e" stroke-width="0.3" x1="143.8653032363475" x2="146.44561519142675" y1="172.8068346515853" y2="177.08958963109032" /><path d="M 144.38136562736335 173.6633856474863 a86.0,86.0 0 0,1 -40.68145358897372,12.25698825130547" fill="none" id="id66" stroke="none" /><text fill="#e1ed5e" style="font-size:6.75px; font-family:Arial;" text-anchor="middle"><textPath startOffset="21.466115282336833" xlink:href="#id66">June</textPath></text><path d="M 109.2508944713604 118.85261126421891 l 15.164551745775091 30.904189853674556 a55.42430217393305,55.42430217393305 0 0,0 -0.8600989506386639,0.4128997644337125 l -14.630340127136193 -31.160643894607826" fill="#97ff23" stroke="none" /><path d="M 108.92500713936063 119.00905698771935 l 14.309025505184442 30.476287247683523 a54.66826837411357,54.66826837411357 0 0,0 -0.8552512274701014,0.39260389110776844 l -13.782306281946921 -30.718078209125363" fill="#a1ff22" stroke="none" /><path d="M 108.59647513512805 119.15986991738527 l 15.893143471830165 35.422723466537555 a59.82475173395148,59.82475173395148 0 0,0 -0.943178021087811,0.41346152699787636 l -15.281044776084599 -35.69104954682989" fill="#5fff29" stroke="none" /><path d="M 108.2653958097858 119.30500536409082 l 15.854694576214387 37.03089009693443 a61.28223133685966,61.28223133685966 0 0,0 -0.973303484596274,0.40684093549849243 l -15.214919632120653 -37.298316075452895" fill="#4eff2c" stroke="none" /><path d="M 107.93186726928326 119.44442032107085 l 14.595100871016022 35.778873540089734 a59.641231362792595,59.641231362792595 0 0,0 -0.9539158387463273,0.37958279881642676 l -13.977063956227829 -36.02480318331223" fill="#62ff29" stroke="none" /><path d="M 107.59598834532513 119.57807347666477 l 12.928563969082548 33.322375420735966 a56.742530268338975,56.742530268338975 0 0,0 -0.9136352015779468,0.3454586565802191 l -12.353058546744325 -33.53998232742281" fill="#86ff25" stroke="none" /><path d="M 107.2578585660854 119.70592522655815 l 11.449305671033649 31.086188769738882 a54.127597748351796,54.127597748351796 0 0,0 -0.8770744163745775,0.3144876808988724 l -10.912511694029336 -31.278663991677714" fill="#a8ff21" stroke="none" /><path d="M 106.91757812671514 119.82793768551818 l 12.736630905169 36.50715890520154 a59.66515767644227,59.66515767644227 0 0,0 -0.9726280648437593,0.32996824756164433 l -12.106333107388012 -36.72099013966131" fill="#61ff29" stroke="none" /><path d="M 106.57524785965236 119.94407469862006 l 10.524830344917318 31.923968049537837 a54.61416055499832,54.61416055499832 0 0,0 -0.8953566540410592,0.28666492619272405 l -9.973752345785318 -32.100405822390265" fill="#a1ff22" stroke="none" /><path d="M 105.18746579009965 120.34920634021253 l 8.010934038979519 31.425007187159636 a53.43001913181544,53.43001913181544 0 0,0 -0.8931634624919618,0.21951784852144487 l -7.4688172917443465 -31.55824629399511" fill="#b1ff20" stroke="none" /><path d="M 104.48393922423573 120.51570834832081 l 9.219139478786243 42.18103040892725 a64.17675137256346,64.17675137256346 0 0,0 -1.0812515530160398,0.22658677574644379 l -8.491696464340825 -42.333473165400235" fill="#30ff34" stroke="none" /><path d="M 104.13013068566511 120.58985236759428 l 6.451034686022281 32.16020555098699 a53.80083336749231,53.80083336749231 0 0,0 -0.9095732480233828,0.174321877786257 l -5.8964938234271935 -32.26648462712171" fill="#acff20" stroke="none" /><path d="M 103.7750983002368 120.6578951692458 l 7.937229725049113 43.43369272900807 a65.15297588822402,65.15297588822402 0 0,0 -1.1049666368689388,0.1921126133612115 l -7.188414116708124 -43.563883920890284" fill="#31ff42" stroke="none" /><path d="M 103.41894727170886 120.7198165907248 l 5.397135864677397 32.708215817392464 a54.150512175514116,54.150512175514116 0 0,0 -0.9209819483963799,0.1438384393891112 l -4.8333180526725 -32.796272564128685" fill="#a7ff21" stroke="none" /><path d="M 103.06178313531738 120.77559828337769 l 6.639363048431375 45.05111350331282 a66.53772029402933,66.53772029402933 0 0,0 -1.134535964042843,0.15723634670108957 l -5.862898493201702 -45.15872441550651" fill="#33ff55" stroke="none" /><path d="M 102.70371172650421 120.8252237178851 l 5.307265039246905 40.87898154561449 a62.22205956042835,62.22205956042835 0 0,0 -1.0633233741667343,0.12875365237229228 l -4.602814242028791 -40.96428072671213" fill="#43ff2d" stroke="none" /><path d="M 101.98527174616119 120.90594882070398 l 3.673031878469978 38.67894489335712 a59.85295279954425,59.85295279954425 0 0,0 -1.0264943357477696,0.08857025055122397 l -3.0066932249806664 -38.736439396187" fill="#5fff29" stroke="none" /><line stroke="#e1ed5e" stroke-width="0.3" x1="102.19456741930631" x2="102.32365962044197" y1="184.97166512339345" y2="189.96999836594603" /><path d="M 102.22038585953345 185.97133177190398 a86.0,86.0 0 0,1 -42.740103519485714,-10.115201625700543" fill="none" id="id67" stroke="none" /><text fill="#e1ed5e" style="font-size:6.75px; font-family:Arial;" text-anchor="middle"><textPath startOffset="22.20632615414155" xlink:href="#id67">July</textPath></text><path d="M 100.54218724476979 120.99299961872073 l 0.9928349892062164 38.44167259727437 a59.45449145927985,59.45449145927985 0 0,0 -1.0232976109674208,0.01761699637911318 l -0.3309776883461278 -38.45306707093264" fill="#64ff29" stroke="none" /><path d="M 100.18074693466247 120.99922214144158 l 0.37928100960109123 44.0649584985611 a65.06659076402616,65.06659076402616 0 0,0 -1.120055888527063,0.0 l 0.3792810096010609 -44.0649584985611" fill="#31ff40" stroke="none" /><path d="M 99.45781275523022 120.99299961872073 l -0.9866545644528542 38.2023721420499 a59.215111206291496,59.215111206291496 0 0,0 -1.018724502483614,-0.03508693166481704 l 1.6440994186111113 -38.17972841195899" fill="#67ff28" stroke="none" /><path d="M 98.01472825383883 120.90594882070398 l -3.5987380239032265 37.89659178514002 a59.0670800599971,59.0670800599971 0 0,0 -1.0113617430125093,-0.1048317798719159 l 4.250532363521329 -37.82903063681234" fill="#69ff28" stroke="none" /><path d="M 97.65516085044442 120.86867818915974 l -4.215092019157539 37.5136174701646 a58.749682070552645,58.749682070552645 0 0,0 -1.0039833237890865,-0.1215683986633206 l 4.8602027659980145 -37.435503542775926" fill="#6cff28" stroke="none" /><path d="M 97.2962882734958 120.8252237178851 l -4.893886478803625 37.69495089729578 a59.01130684437142,59.01130684437142 0 0,0 -1.0062029417938225,-0.13945055919053093 l 5.542018011784279 -37.60512577261265" fill="#69ff28" stroke="none" /><path d="M 96.93821686468263 120.77559828337769 l -4.804022743665577 32.59749050001242 a53.949583023462615,53.949583023462615 0 0,0 -0.9175645823455062,-0.14330471709364723 l 5.3644231896196 -32.50996747557166" fill="#aaff21" stroke="none" /><path d="M 96.22490169976321 120.6578951692458 l -6.85836057382526 37.529961473608196 a59.15147596058528,59.15147596058528 0 0,0 -1.000032838661506,-0.19165867362768857 l 7.503361027058461 -37.40634560163204" fill="#68ff28" stroke="none" /><path d="M 95.51606077576429 120.51570834832081 l -9.30908563619569 42.59256790758269 a64.59800358209155,64.59800358209155 0 0,0 -1.0842616501016644,-0.24677442151027032 l 10.040867435690215 -42.42601675249473" fill="#30ff3a" stroke="none" /><path d="M 95.16358092515715 120.4354850818985 l -10.017620028292878 42.32778869580456 a64.49706204915378,64.49706204915378 0 0,0 -1.0781657988604176,-0.2649869217163296 l 10.744739111896505 -42.149080515774195" fill="#30ff38" stroke="none" /><path d="M 94.81253420990036 120.34920634021253 l -9.674721128793179 37.95165202044538 a60.165394419064555,60.165394419064555 0 0,0 -1.0013514457847308,-0.2644660179734128 l 10.3265630173894 -37.779494653168385" fill="#5bff2a" stroke="none" /><path d="M 94.46302465271185 120.25689768951611 l -10.405728990128821 38.06912155408261 a60.46564596855757,60.46564596855757 0 0,0 -1.0016244587086705,-0.283069076987365 l 11.059484616942107 -37.88436368375672" fill="#57ff2a" stroke="none" /><path d="M 94.11515582081647 120.15858648285463 l -10.747449161623344 36.81548343472472 a59.35215096985003,59.35215096985003 0 0,0 -0.9782507034031299,-0.29473891222247917 l 11.37957483946672 -36.62502915339651" fill="#65ff29" stroke="none" /><path d="M 93.76903079525671 120.05430185196036 l -11.233322143032158 36.15431655242119 a58.859241034941704,58.859241034941704 0 0,0 -0.9649514444037074,-0.3089469803358005 l 11.853994932526804 -35.955596725425686" fill="#6bff28" stroke="none" /><path d="M 93.08242187328487 119.8279376855182 l -18.169460904059665 52.07934510979324 a76.15784166017646,76.15784166017646 0 0,0 -1.2340487534103122,-0.44248597762131775 l 19.063229218099703 -51.758871591131964" fill="#41ffd2" stroke="none" /><path d="M 92.7421414339146 119.70592522655815 l -14.757496796042751 40.068310197292995 a63.69956901131094,63.69956901131094 0 0,0 -1.0256533908314138,-0.38781435074044684 l 15.445020407634447 -39.80834759644591" fill="#31ff2f" stroke="none" /><path d="M 92.40401165467489 119.57807347666478 l -13.626446151570018 35.12111286287597 a58.67190735081659,58.67190735081659 0 0,0 -0.9384122432173367,-0.3734135981976922 l 14.228979470829213 -34.88135242027221" fill="#6dff28" stroke="none" /><path d="M 92.06813273071674 119.44442032107085 l -14.416102347350456 35.34007112284773 a59.16732416422744,59.16732416422744 0 0,0 -0.9397138701873957,-0.39280047395138423 l 15.022287677035315 -35.086685605876376" fill="#67ff28" stroke="none" /><path d="M 91.7346041902142 119.30500536409082 l -14.739359264439383 34.425866130497894 a58.448484219807575,58.448484219807575 0 0,0 -0.9214802248938776,-0.40394985078590157 l 15.329760163991002 -34.16705172641754" fill="#70ff27" stroke="none" /><path d="M 91.40352486487194 119.15986991738527 l -13.158135450928688 29.32692291110476 a53.143505346786114,53.143505346786114 0 0,0 -0.8313972535011668,-0.38165370162217127 l 13.661000700197274 -29.096082139148514" fill="#b5ff20" stroke="none" /><path d="M 90.7491055286396 118.85261126421891 l -22.644692197350874 46.14814064912446 a72.40460067040826,72.40460067040826 0 0,0 -1.114155417734886,-0.5586606559393353 l 23.43570152276852 -45.75151215227582" fill="#3cffa3" stroke="none" /><path d="M 90.42595943632237 118.69057910512821 l -18.477762426375172 36.07255244208715 a61.529701997087145,61.529701997087145 0 0,0 -0.9385011102143174,-0.49097942456239585 l 19.095954439115985 -35.74914359858004" fill="#4bff2c" stroke="none" /><path d="M 90.10565033884886 118.52300852407294 l -15.261022196216855 28.569845811746177 a53.39035177611343,53.39035177611343 0 0,0 -0.806899034287953,-0.43998568955671513 l 15.750544042373448 -28.302919470429696" fill="#b2ff20" stroke="none" /><line stroke="#e1ed5e" stroke-width="0.3" x1="58.666819895761336" x2="56.23545636021788" y1="174.27360380694188" y2="178.64263932499728" /><path d="M 58.180547188652646 175.14741091055294 a86.0,86.0 0 0,1 -31.652253787137756,-30.449443065178592" fill="none" id="id68" stroke="none" /><text fill="#e1ed5e" style="font-size:6.75px; font-family:Arial;" text-anchor="middle"><textPath startOffset="22.20632615414155" xlink:href="#id68">August</textPath></text><path d="M 89.4739219176387 118.17145234162733 l -5.389900634527573 9.304730759174982 a31.753094594153712,31.753094594153712 0 0,0 -0.4705992015226491,-0.27803830324117185 l 5.549267707078604 -9.21057388364006" fill="#ff0000" stroke="none" /><path d="M 88.8546689885994 117.79835938074946 l -21.189597774261717 33.83839169371112 a60.92537797256295,60.92537797256295 0 0,0 -0.8840510183528307,-0.5642431873390249 l 21.768930594661473 -33.46863407754829" fill="#52ff2b" stroke="none" /><path d="M 88.54995079064634 117.60387380957326 l -29.223336883936447 44.929408196709765 a74.5971560769656,74.5971560769656 0 0,0 -1.0703814537158929,-0.7093904614061816 l 29.9923930363923 -44.41971971421226" fill="#3fffbf" stroke="none" /><path d="M 88.24862548938628 117.40417183066458 l -24.492011371675897 36.273473712053175 a64.76783654887815,64.76783654887815 0 0,0 -0.9186025816168237,-0.6318232319015872 l 25.112770837915612 -35.84650969078649" fill="#31ff3c" stroke="none" /><path d="M 87.95078237400918 117.19931262002967 l -33.97959047429211 48.503198913703294 a80.22138865024081,80.22138865024081 0 0,0 -1.1241410667513971,-0.8020448033306228 l 34.80945886889239 -47.911109848528454" fill="#47fcff" stroke="none" /><path d="M 87.65650970185807 116.9893568818739 l -20.12632225732684 27.701506080561252 a55.24094459469747,55.24094459469747 0 0,0 -0.7644689879759264,-0.5655358814322722 l 20.600176215721334 -27.350960250389214" fill="#99ff23" stroke="none" /><path d="M 87.36589467227662 116.77436683061367 l -30.095019883479857 39.95731317771682 a71.02296570745472,71.02296570745472 0 0,0 -0.9702118323171915,-0.7439170610659094 l 30.778360444290538 -39.433356774823544" fill="#3aff92" stroke="none" /><path d="M 87.07902340077011 116.55440617244103 l -26.652056827045378 34.14672030844682 a64.316632382208,64.316632382208 0 0,0 -0.8668733756874338,-0.6886966375313325 l 27.23588769545017 -33.682889756910356" fill="#30ff36" stroke="none" /><line stroke="#e1ed5e" stroke-width="0.3" x1="26.63291911575756" x2="22.317208475507996" y1="142.92168965132927" y2="145.44649492493687" /><path d="M 25.769776987707644 143.4266507060508 a86.0,86.0 0 0,1 -11.730757126820373,-40.83630448921669" fill="none" id="id69" stroke="none" /><text fill="#e1ed5e" style="font-size:6.75px; font-family:Arial;" text-anchor="middle"><textPath startOffset="21.46611528233685" xlink:href="#id69">September</textPath></text><line stroke="#e1ed5e" stroke-width="0.3" x1="15.007084014347285" x2="10.007500721073583" y1="101.09737516637583" y2="101.16192664675087" /><path d="M 14.007167355692545 101.11028546245083 a86.0,86.0 0 0,1 10.666146001902534,-42.60595125391555" fill="none" id="id70" stroke="none" /><text fill="#e1ed5e" style="font-size:6.75px; font-family:Arial;" text-anchor="middle"><textPath startOffset="22.20632615414155" xlink:href="#id70">October</textPath></text><line stroke="#e1ed5e" stroke-width="0.3" x1="26.266209847984243" x2="21.928928074336255" y1="57.711370442889674" y2="55.22380399835377" /><path d="M 25.398753493254645 57.213857153982495 a86.0,86.0 0 0,1 29.58750427330803,-30.492523968695096" fill="none" id="id71" stroke="none" /><text fill="#e1ed5e" style="font-size:6.75px; font-family:Arial;" text-anchor="middle"><textPath startOffset="21.46611528233685" xlink:href="#id71">November</textPath></text><line stroke="#e1ed5e" stroke-width="0.3" x1="56.762969772571076" x2="54.21961505331055" y1="26.818313649435495" y2="22.513508569990535" /><path d="M 56.25429882871897 25.957352633546506 a86.0,86.0 0 0,1 42.265352541879196,-11.944610805530505" fill="none" id="id72" stroke="none" /><text fill="#e1ed5e" style="font-size:6.75px; font-family:Arial;" text-anchor="middle"><textPath startOffset="22.20632615414155" xlink:href="#id72">December</textPath></text></svg>