<?xml version="1.0" encoding="utf-8" ?>
<svg baseProfile="full" height="200mm" version="1.1" viewBox="0,0,200,200" width="200mm" xmlns="http://www.w3.org/2000/svg" xmlns:ev="http://www.w3.org/2001/xml-events" xmlns:xlink="http://www.w3.org/1999/xlink"><defs /><rect fill="#1a1a1a" height="200" width="200" x="0" y="0" /><rect fill="#1a1a1a" height="200" width="180" x="10" y="0" /><text alignment-baseline="middle" fill="#e1ed5e" style="dominant-baseline: central; font-size:9.0px; font-family:Arial;" text-anchor="middle" x="100.0" y="100.0">2024</text><line stroke="#e1ed5e" stroke-width="0.3" x1="100.0" x2="100.0" y1="15.0" y2="10.0" /><path d="M 100.0 14.0 a86.0,86.0 0 0,1 42.35913384403234,11.155469271406648" fill="none" id="id73" stroke="none" /><text fill="#e1ed5e" style="font-size:6.75px; font-family:Arial;" text-anchor="middle"><textPath startOffset="22.145653131862478" xlink:href="#id73">January</textPath></text><path d="M 100.0 79.0 l 0.0 -5.141416459606763 a26.141416459606763,26.141416459606763 0 0,0 0.44875217520074456,0.003851997709170392 l -0.08825925035188979 5.140658860092027" fill="#ff2703" stroke="none" /><path d="M 100.36049292484886 79.00309439819443 l 0.04636738176623292 -2.7006675328140384 a23.70106554102038,23.70106554102038 0 0,0 0.40674040301526126,0.010476189974136066 l -0.09272109885223553 2.699473625489857" fill="#ff0300" stroke="none" /><path d="M 100.72087961077811 79.0123766808444 l 0.688775268398129 -20.052940419672534 a41.06476590556923,41.06476590556923 0 0,0 0.7043081345782433,0.030246021750174445 l -1.0329091635772085 20.03816182949653" fill="#fff216" stroke="none" /><path d="M 101.08105385017728 79.02784411241856 l 1.1578000947462659 -22.461012529295765 a43.49083335273675,43.49083335273675 0 0,0 0.7452581910689617,0.044832882135365765 l -1.54320263794769 22.437827669335707" fill="#eeff19" stroke="none" /><path d="M 101.44090949804482 79.04949213459386 l 1.8609823067994622 -27.05827431138994 a48.12219504126916,48.12219504126916 0 0,0 0.8236480446336023,0.0637555677689364 l -2.325199346208298 27.022340976625948" fill="#b7ff1f" stroke="none" /><path d="M 101.80034050326958 79.07731436759882 l 4.98427241354069 -57.92480068374373 a79.13884678718543,79.13884678718543 0 0,0 1.3525222221489246,0.1280852606495555 l -5.977894199074628 57.830703667589" fill="#47fffd" stroke="none" /><path d="M 102.15924093988457 79.11130261209362 l 0.268208895471843 -2.594677764194045 a23.60850315537728,23.60850315537728 0 0,0 0.4027656713102852,0.045130733559114275 l -0.3127104683829249 2.5896912701279597" fill="#ff0100" stroke="none" /><path d="M 102.51750503828377 79.15144685158666 l 2.429312546788449 -20.118192804235164 a41.26433421453474,41.26433421453474 0 0,0 0.7025197450765137,0.09095524593543604 l -2.7743101137557544 20.073525962099332" fill="#fff417" stroke="none" /><path d="M 102.87502721639298 79.19773525538626 l 3.0003100958585027 -21.708749250829662 a42.915101065400265,42.915101065400265 0 0,0 0.7288923400160616,0.10712207319610807 l -3.372527541482246 21.65404610433467" fill="#f5ff19" stroke="none" /><path d="M 103.23170211078529 79.25015418208739 l 3.418101177375579 -21.946661539090368 a43.211244187801924,43.211244187801924 0 0,0 0.7319624608889711,0.12044414439489712 l -3.794341141317621 21.884751396199803" fill="#f1ff19" stroke="none" /><path d="M 103.58742460773223 79.30868818359171 l 3.209916415335333 -18.51394488156124 a39.79014950634845,39.79014950634845 0 0,0 0.6720087607958325,0.12246238200663133 l -3.5272599096822193 18.456114325623243" fill="#ffe215" stroke="none" /><path d="M 103.94208987418118 79.37332000966035 l 1.6397409852405098 -8.579817723365741 a29.73510289950029,29.73510289950029 0 0,0 0.500545875146285,0.1001231936340777 l -1.7867833459177518 8.550405133068804" fill="#ff5a08" stroke="none" /><path d="M 104.29559338865022 79.4440306129975 l 5.954966892636044 -28.496672303545083 a50.11223047222636,50.11223047222636 0 0,0 0.8405433790172381,0.18319251728665922 l -6.443272688272416 28.390248328124706" fill="#a0ff22" stroke="none" /><path d="M 104.64783097203109 79.52079915486377 l 2.6676972282921305 -11.754366211027182 a33.05328724974125,33.05328724974125 0 0,0 0.5522540813873159,0.13033045949750263 l -2.8690834634193316 11.706839607883452" fill="#ff890c" stroke="none" /><path d="M 104.9986988182912 79.60360301121754 l 3.900556825416289 -15.915602915978901 a37.38660305638169,37.38660305638169 0 0,0 0.6220324386753835,0.15811821347235297 l -4.173194557317067 15.84629947067128" fill="#ffc312" stroke="none" /><path d="M 105.3480935250658 79.69241777938227 l 0.6432620310997967 -2.442570707624256 a23.525853856104643,23.525853856104643 0 0,0 0.38965378714502247,0.1062018723998024 l -0.685097219179512 2.4311683410803115" fill="#ff0000" stroke="none" /><path d="M 105.69591212413111 79.78721728523813 l 2.074956115027004 -7.363287245606016 a28.650061564496863,28.650061564496863 0 0,0 0.4722348550095816,0.1374606838687707 l -2.2010509824181903 7.3265828674347295" fill="#ff4b07" stroke="none" /><path d="M 106.04205211174951 79.88797359093562 l 6.189728820826722 -20.60359414433582 a42.51327112597901,42.51327112597901 0 0,0 0.6971353875951872,0.21597432510574308 l -6.542504841293539 20.494303231423427" fill="#faff18" stroke="none" /><path d="M 106.38641147887787 79.99465700312896 l 6.551795887955809 -20.523407302761985 a42.54382223915939,42.54382223915939 0 0,0 0.6938234176413525,0.22807353846289277 l -6.9031420432449035 20.407912842897073" fill="#faff18" stroke="none" /><path d="M 106.72888874123014 80.10723608172694 l 6.642651459968166 -19.637818719582725 a41.73086448949515,41.73086448949515 0 0,0 0.676624689821172,0.2353651904954073 l -6.978781921834356 19.520895096518725" fill="#fffa17" stroke="none" /><path d="M 107.06938296918511 80.22567764915836 l 5.300930533343577 -14.827646144319386 a36.746712504535154,36.746712504535154 0 0,0 0.5921660072657965,0.21745156022186507 l -5.554685692263497 14.734463735088799" fill="#ffba11" stroke="none" /><path d="M 107.74402155503746 80.48000691201159 l 8.838681731561966 -22.27925181778297 a44.96846587314326,44.96846587314326 0 0,0 0.7150961221641023,0.2908233675072379 l -9.219832314916507 22.124241193696438" fill="#dcff1b" stroke="none" /><path d="M 108.07796709384702 80.6158196554323 l 3.765777735002047 -9.036495680755952 a30.789756694512796,30.789756694512796 0 0,0 0.48613349352080404,0.20750148109965283 l -3.920346303693281 8.970519549996897" fill="#ff6909" stroke="none" /><path d="M 108.4095320186766 80.7573450057729 l 4.584087479309492 -10.489289253171819 a32.44722879367176,32.44722879367176 0 0,0 0.5084737195463909,0.227433827228491 l -4.763474601711515 10.409051675033474" fill="#ff800b" stroke="none" /><path d="M 108.73861861582097 80.90454125486305 l 8.026376335806118 -17.539080824038262 a40.28839218898597,40.28839218898597 0 0,0 0.626410226175001,0.2931916151564341 l -8.326275275852625 17.398712977311295" fill="#ffe815" stroke="none" /><path d="M 109.06512990194946 81.05736502329252 l 7.853878100509023 -16.411584568413684 a39.19405148019125,39.19405148019125 0 0,0 0.6044091362740402,0.29564679587969306 l -8.134447486045131 16.274344022436768" fill="#ffda14" stroke="none" /><path d="M 109.3889696526874 81.21577127319529 l 8.646247268037621 -17.298286427503974 a40.338777240250124,40.338777240250124 0 0,0 0.6167468229144838,0.31491532227523206 l -8.941921312665684 17.147313153555906" fill="#ffe915" stroke="none" /><path d="M 110.02825361518725 81.54914285379988 l 13.278153216313001 -24.430306368450786 a48.805560992223306,48.805560992223306 0 0,0 0.7326779406238249,0.40640410292189816 l -13.695575345092927 24.19876935009574" fill="#afff20" stroke="none" /><path d="M 110.34350942703115 81.72400993836675 l 2.812773402998486 -4.969901088356389 a26.71065767181519,26.71065767181519 0 0,0 0.3971080244544364,0.2292704248161294 l -2.8976738953133196 4.920883766264088" fill="#ff2f04" stroke="none" /><line stroke="#e1ed5e" stroke-width="0.3" x1="143.13028292997686" x2="145.6673583964461" y1="26.7553504044142" y2="22.446841604673864" /><path d="M 143.63769802327073 25.89364864446614 a86.0,86.0 0 0,1 29.32050498858742,28.57503671076993" fill="none" id="id74" stroke="none" /><text fill="#e1ed5e" style="font-size:6.75px; font-family:Arial;" text-anchor="middle"><textPath startOffset="20.669276256404974" xlink:href="#id74">February</textPath></text><path d="M 110.65571695917076 81.90426304109057 l 13.146109994613415 -22.324968785012427 a46.907999522198814,46.907999522198814 0 0,0 0.690367909891961,0.41454609400894304 l -13.527410661062811 22.096008690467563" fill="#c5ff1e" stroke="none" /><path d="M 110.96478420261332 82.08984904055464 l 14.301568416306743 -23.36053720344455 a48.390683773864055,48.390683773864055 0 0,0 0.7047431871638682,0.4398118713710154 l -14.700475732260324 23.11158953523199" fill="#b4ff20" stroke="none" /><path d="M 111.27062007382361 82.28071324371311 l 2.812161678867554 -4.4211852468193875 a26.239764526654284,26.239764526654284 0 0,0 0.37799551311932517,0.2450121247917172 l -2.887642824243886 4.372259280323775" fill="#ff2803" stroke="none" /><path d="M 111.5731344415666 82.4767994020092 l 7.495098822926406 -11.348534905477644 a34.600211427263815,34.600211427263815 0 0,0 0.49281198431062717,0.33158589654425924 l -7.688807095334034 11.218199334876266" fill="#ff9e0e" stroke="none" /><path d="M 111.8722381534696 82.67804972795209 l 11.719442872126782 -17.099017390226436 a41.72973074944075,41.72973074944075 0 0,0 0.5874053930253307,0.41005458453349114 l -12.011243356325872 16.89531798988782" fill="#fffa17" stroke="none" /><path d="M 112.16784306229584 82.88440491214696 l 10.542200748990933 -14.828925589425294 a39.1943681057831,39.1943681057831 0 0,0 0.5450237987276932,0.39455519924201476 l -10.795205558092594 14.645769618810206" fill="#ffda14" stroke="none" /><path d="M 112.7482090630111 83.31218511350987 l 9.493130588947865 -12.426812674518576 a36.63794109294421,36.63794109294421 0 0,0 0.4965139849567772,0.38609227784037936 l -9.705054518539868 12.262019345057405" fill="#ffb911" stroke="none" /><path d="M 113.03279911837588 83.53348406188908 l 16.5249763710931 -20.878767816488875 a47.6270124046998,47.6270124046998 0 0,0 0.6367260496619032,0.5129014341354938 l -16.880953191110265 20.59201808855997" fill="#bcff1f" stroke="none" /><path d="M 113.59037401385872 83.9905735841838 l 10.260530689105671 -12.086879352029042 a36.85468834422756,36.85468834422756 0 0,0 0.47879596415475306,0.41357255021434847 l -10.466506133023284 11.908962669349973" fill="#ffbc11" stroke="none" /><path d="M 113.86319453409587 84.22622945171908 l 12.02266814243266 -13.679589375337848 a39.211966251366746,39.211966251366746 0 0,0 0.5017917475601783,0.4487052748697714 l -12.255724916816215 13.47118857058469" fill="#ffda14" stroke="none" /><path d="M 114.13192950727249 84.46653392183569 l 13.98255783057967 -15.369280439412538 a41.778034187834365,41.778034187834365 0 0,0 0.5263440028156348,0.48717615114645596 l -14.24433160470927 15.126986542133707" fill="#fffb17" stroke="none" /><path d="M 114.39649973595853 84.71141617570332 l 14.535298810820942 -15.435983631867169 a42.20246453134927,42.20246453134927 0 0,0 0.5231648896096901,0.5011801297775004 l -14.798136186295945 15.184191371784088" fill="#feff18" stroke="none" /><path d="M 114.65682725009322 84.96080404539774 l 11.101010530669726 -11.390614750118136 a36.90529909142387,36.90529909142387 0 0,0 0.44990736940118403,0.4460620303758796 l -11.294909820200871 11.198372709513597" fill="#ffbc11" stroke="none" /><path d="M 114.91283532996326 85.21462403516908 l 7.0388356658194935 -6.978675038723077 a30.911968161092382,30.911968161092382 0 0,0 0.37037424722555773,0.3800366058437383 l -7.157596714195862 6.856815740811597" fill="#ff6b09" stroke="none" /><path d="M 115.16444852881244 85.47280134310134 l 20.034594403937184 -19.192688238111494 a48.74426525852891,48.74426525852891 0 0,0 0.573660037974177,0.6092070807538943 l -20.36111027564762 18.845939697413105" fill="#b0ff20" stroke="none" /><path d="M 115.41159269507618 85.73525988315684 l 17.672050249225 -16.356985882291504 a45.08012348732076,45.08012348732076 0 0,0 0.5207876954455284,0.5724369058708809 l -17.950235645512407 16.05121140086295" fill="#dbff1b" stroke="none" /><path d="M 115.6541949942343 86.00192230759917 l 15.773045494661233 -14.104354542751143 a42.159437167473946,42.159437167473946 0 0,0 0.4777847426472282,0.5436313313970467 l -16.012841301267052 13.831510933542798" fill="#feff18" stroke="none" /><path d="M 115.8921839302757 86.27271002978787 l 18.31747047625304 -15.822194724873329 a45.20478404283358,45.20478404283358 0 0,0 0.502215327270477,0.5916083927221477 l -18.58638036703063 15.50541954970163" fill="#d9ff1c" stroke="none" /><path d="M 116.1254893667686 86.54754324733833 l 13.760429908515375 -11.479440036332369 a38.920016038355406,38.920016038355406 0 0,0 0.4235854028976075,0.5167053175119742 l -13.95546213065161 11.241532437121899" fill="#ffd714" stroke="none" /><path d="M 116.35404254752997 86.82634096563983 l 2.207298236629889 -1.7780432129851853 a23.834361157769436,23.834361157769436 0 0,0 0.2539307950098063,0.32083326423028946 l -2.2374954622812546 1.7398900048402175" fill="#ff0500" stroke="none" /><path d="M 116.57777611688842 87.10902102172516 l 12.243016585333978 -9.520243747979492 a36.50891666525117,36.50891666525117 0 0,0 0.3804716295774579,0.49804957642028097 l -12.404640192265743 9.30867325831833" fill="#ffb711" stroke="none" /><path d="M 116.7966241395341 87.39550010848427 l 5.9858934908252035 -4.491926069724138 a28.483870703009966,28.483870703009966 0 0,0 0.29012582941948883,0.39361140788641075 l -6.0621213398285185 4.388508352568852" fill="#ff4906" stroke="none" /><path d="M 117.01052211995028 87.68569379921539 l 3.62962328657802 -2.6275673509162436 a25.480878863132816,25.480878863132816 0 0,0 0.2534557557474051,0.3565172615926126 l -3.674194140855386 2.564872862614127" fill="#ff1d02" stroke="none" /><path d="M 117.21940702142032 87.97951657250589 l 19.756754506658016 -13.791749032526416 a45.09443275971744,45.09443275971744 0 0,0 0.4376527718534115,0.6385484735456787 l -19.99059701532675 13.450565823910688" fill="#dbff1b" stroke="none" /><path d="M 117.42321728460499 88.27688183743584 l 22.884540676698634 -15.39774027188379 a48.58246920534611,48.58246920534611 0 0,0 0.45962615847565563,0.6959325855686262 l -23.145491274095015 15.002627807976106" fill="#b1ff20" stroke="none" /><path d="M 117.62189284568427 88.57770195909679 l 19.55071647125383 -12.672538211611482 a44.298578052407166,44.298578052407166 0 0,0 0.4081424352033537,0.6416676987962747 l -19.765376598083073 12.335056838136534" fill="#e4ff1a" stroke="none" /><path d="M 117.81537515405839 88.88188828441811 l 15.409819308919399 -9.6168669540741 a39.16443396161597,39.16443396161597 0 0,0 0.3510476726450926,0.5734099910089465 l -15.572634946019894 9.350919846940599" fill="#ffda14" stroke="none" /><line stroke="#e1ed5e" stroke-width="0.3" x1="172.87174338648825" x2="177.1583165268699" y1="56.24261187166439" y2="53.66864786411523" /><path d="M 173.72905801456457 55.72781907015455 a86.0,86.0 0 0,1 12.242430191666344,42.057860355516425" fill="none" id="id75" stroke="none" /><text fill="#e1ed5e" style="font-size:6.75px; font-family:Arial;" text-anchor="middle"><textPath startOffset="22.145653131862474" xlink:href="#id75">March</textPath></text><path d="M 118.00360718960297 89.18935116829356 l 24.680703527874257 -14.820053334278 a49.78838494013982,49.78838494013982 0 0,0 0.4336954540824155,0.7365096959145296 l -24.93147269208644 14.394192470069914" fill="#a4ff21" stroke="none" /><path d="M 118.18653347947321 89.5 l 21.07436489988821 -12.167290247950863 a45.33458049590172,45.33458049590172 0 0,0 0.3833289955630871,0.6773056052850348 l -21.28012726047267 11.803727872566709" fill="#d8ff1c" stroke="none" /><path d="M 118.36410011445183 89.81374322990088 l 24.621725846170342 -13.657256278771031 a49.15581703144136,49.15581703144136 0 0,0 0.40297154740095426,0.7414222595864678 l -24.852542743186635 13.23257918570996" fill="#abff21" stroke="none" /><path d="M 118.53625476483649 90.13048839642627 l 16.251772237630295 -8.653153331826486 a39.411875609179816,39.411875609179816 0 0,0 0.3128400786006412,0.5999121002272629 l -16.39792038520588 8.372894988494725" fill="#ffdd14" stroke="none" /><path d="M 118.70294669586156 90.45014215332178 l 19.234368612431147 -9.821205663809728 a42.59668994567743,42.59668994567743 0 0,0 0.32693991344462,0.6540988352548017 l -19.400128439087503 9.489574972391177" fill="#f9ff18" stroke="none" /><path d="M 118.8641267826498 90.77261029715802 l 23.311101642826696 -11.402627947706511 a46.950479454453536,46.950479454453536 0 0,0 0.34792706913523647,0.7270337590779766 l -23.503407969921845 11.00078168656343" fill="#c4ff1e" stroke="none" /><path d="M 119.0197475246899 91.09779779509293 l 16.319664277746067 -7.638426910141803 a39.01879595866271,39.01879595866271 0 0,0 0.2787345503071592,0.6090852959984185 l -16.44838329290828 7.357152631928701" fill="#ffd814" stroke="none" /><path d="M 119.16976305983485 91.42560881287824 l 21.57666247388483 -9.650966680501723 a44.636698614233424,44.636698614233424 0 0,0 0.30685842373882666,0.7021521253459563 l -21.73915477964063 9.279152485379917" fill="#e0ff1b" stroke="none" /><path d="M 119.31412917781788 91.75594674310238 l 18.438378643258407 -7.870247429039906 a41.04780789977989,41.04780789977989 0 0,0 0.27106048067288807,0.650446477511726 l -18.570764968467778 7.552568442086902" fill="#fff216" stroke="none" /><path d="M 119.4528033332814 92.08871423366111 l 2.713660156340001 -1.1036219614066385 a23.929493621397096,23.929493621397096 0 0,0 0.15148659949610493,0.38184518910117354 l -2.7322054308022303 1.0568757550918997" fill="#ff0601" stroke="none" /><path d="M 119.58574465831526 92.42381321644754 l 4.00268277139327 -1.548323683394293 a25.291710101692352,25.291710101692352 0 0,0 0.15315854660931527,0.40627124121117497 l -4.028672001817026 1.4793841619889603" fill="#ff1a02" stroke="none" /><path d="M 119.71291397450082 92.76114493625339 l 14.506332676633654 -5.326926292504226 a36.45347311936518,36.45347311936518 0 0,0 0.21066606186065925,0.5892704686920179 l -14.595638908538257 5.077120867431291" fill="#ffb610" stroke="none" /><path d="M 119.83427380445688 93.10060997987247 l 22.145796960508665 -7.70345776424497 a44.44737905484494,44.44737905484494 0 0,0 0.24449144065398606,0.7227955010115127 l -22.274773822735018 7.322160588759296" fill="#e2ff1b" stroke="none" /><path d="M 119.94978838288452 93.4421083053983 l 17.592694918606085 -5.783068255068217 a39.51882266619361,39.51882266619361 0 0,0 0.2063170169122051,0.6462851169347422 l -17.689376651295547 5.480214104442088" fill="#ffde14" stroke="none" /><path d="M 120.05942366710727 93.78553927170692 l 15.009992690640209 -4.650134104346444 a36.713803733071074,36.713803733071074 0 0,0 0.18133765856469983,0.6036140884847601 l -15.087606669208537 4.391782412270961" fill="#ffba11" stroke="none" /><path d="M 120.26092885502905 94.47779374421319 l 6.400742645156274 -1.7445508707755994 a27.634226718333196,27.634226718333196 0 0,0 0.12081489059856977,0.4587538181234787 l -6.429747016559574 1.6344165482793223" fill="#ff3c05" stroke="none" /><path d="M 120.35273937422433 94.82641323984039 l 2.7334053088956063 -0.6948209406229502 a23.82033344167438,23.82033344167438 0 0,0 0.09733722532556116,0.3971690957378712 l -2.7449300607374583 0.647796020276984" fill="#ff0400" stroke="none" /><path d="M 120.43855184770803 95.1765574152323 l 6.675741338516001 -1.5754567787885199 a27.859124323162696,27.859124323162696 0 0,0 0.10585026321442913,0.4663957904070556 l -6.7018024632880975 1.460626654442438" fill="#ff4006" stroke="none" /><path d="M 120.51834098615036 95.52812308129327 l 12.278122441692265 -2.675959639676514 a33.56634595601939,33.56634595601939 0 0,0 0.11786948524086321,0.5640481561115208 l -12.322249637757496 2.464795032279589" fill="#ff900d" stroke="none" /><path d="M 120.592083275326 95.88100663000786 l 6.555579098297216 -1.3112994193598793 a27.685441158311463,27.685441158311463 0 0,0 0.08921792633271967,0.4668258904799614 l -6.577123316912093 1.1985709638466033" fill="#ff3d05" stroke="none" /><path d="M 120.65975698304385 96.23510406497455 l 10.86544122108864 -1.9800453373729687 a32.044382846813335,32.044382846813335 0 0,0 0.09397424599855786,0.5420184782356167 l -10.897830284579431 1.7932338262167595" fill="#ff7b0b" stroke="none" /><path d="M 120.7213421655516 96.59031103205396 l 18.95979221113053 -3.11982659329443 a40.21476095769794,40.21476095769794 0 0,0 0.106240711045211,0.6821415768540038 l -19.010554414314008 2.7938968345089847" fill="#ffe715" stroke="none" /><path d="M 120.77682067341334 96.94652285012252 l 9.161749235556174 -1.3464616354645735 a30.26016241709572,30.26016241709572 0 0,0 0.07111928310540704,0.5145837045194875 l -9.183513035216793 1.1889896227450003" fill="#ff6209" stroke="none" /><path d="M 120.82617615685814 97.30363454192243 l 14.428008079517623 -1.8679945046784057 a35.5484301769,35.5484301769 0 0,0 0.07315852328522064,0.6058575207504318 l -14.457948689062507 1.6200433070045608" fill="#ffaa0f" stroke="none" /><path d="M 120.86939407059847 97.66154086499901 l 22.838629034747925 -2.559116020164999 a43.98155893301183,43.98155893301183 0 0,0 0.07763291259873126,0.7510280064916564 l -22.87919433982832 2.1666834913904114" fill="#e8ff1a" stroke="none" /><path d="M 120.9064616781168 98.02013634271609 l 6.939533136637305 -0.6571810030449521 a27.97058154139598,27.97058154139598 0 0,0 0.0411652069753329,0.4784021039205833 l -6.949791966310379 0.5379578517487068" fill="#ff4106" stroke="none" /><path d="M 120.93736805541906 98.37931529534042 l 11.409765840593469 -0.8831880364643591 a32.443896960604256,32.443896960604256 0 0,0 0.03821588072257625,0.5556505184733587 l -11.423245682481111 0.6871940938366662" fill="#ff800b" stroke="none" /><path d="M 120.96210409425399 98.7389718711861 l 22.011189067048033 -1.3241384756694012 a43.05098153933477,43.05098153933477 0 0,0 0.03804560903354694,0.738074651284675 l -22.03067626553815 0.9460920310079957" fill="#f3ff19" stroke="none" /><path d="M 120.98066250479742 99.09900007780936 l 62.94198751439227 -2.7029997665719256 a84.0,84.0 0 0,0 0.049501252012607466,1.4411749417435202 l -62.97911345340172 1.6221185602642854" fill="#4dd2ff" stroke="none" /><path d="M 120.99303781780057 99.45929381324524 l 15.297655926372832 -0.39401335214200267 a36.30272927824824,36.30272927824824 0 0,0 0.010698186823502319,0.6231157489087928 l -15.302165544794999 0.13135068726414348" fill="#ffb410" stroke="none" /><line stroke="#e1ed5e" stroke-width="0.3" x1="184.99686870605535" x2="189.99668451229388" y1="99.2704041080226" y2="99.22748670261217" /><path d="M 185.99683186730306 99.26182062694052 a86.0,86.0 0 0,1 -10.086455211305974,41.156179273409016" fill="none" id="id76" stroke="none" /><text fill="#e1ed5e" style="font-size:6.75px; font-family:Arial;" text-anchor="middle"><textPath startOffset="21.40746469413373" xlink:href="#id76">April</textPath></text><path d="M 120.99922638620191 99.81974689727618 l 15.355186855353857 -0.1318058114464799 a36.35575254211798,36.35575254211798 0 0,0 0.0,0.6241178283406117 l -15.355186855353857 -0.13180581144647804" fill="#ffb510" stroke="none" /><path d="M 120.99922638620191 100.18025310272382 l 20.884736635743913 0.17927034591314184 a41.88550603172707,41.88550603172707 0 0,0 -0.01234339614770152,0.7189409440634333 l -20.87858180799754 -0.5377582059456462" fill="#fffc17" stroke="none" /><path d="M 120.99303781780057 100.54070618675476 l 12.129004808193772 0.31240013931702804 a33.133027300893744,33.133027300893744 0 0,0 -0.019525313504314922,0.5684581986923004 l -12.121854807692612 -0.5205646025734391" fill="#ff8a0c" stroke="none" /><path d="M 120.98066250479742 100.90099992219065 l 5.115216156216168 0.21966939116842688 a26.119930757952808,26.119930757952808 0 0,0 -0.023083066589142054,0.4478053251385582 l -5.110691500170454 -0.30744650968371573" fill="#ff2603" stroke="none" /><path d="M 120.96210409425399 101.26102812881392 l 11.638714146561723 0.7001561415803603 a32.659754954885145,32.659754954885145 0 0,0 -0.03847014128111735,0.5593474111920098 l -11.62498004411554 -0.8998469769267137" fill="#ff830c" stroke="none" /><path d="M 120.93736805541906 101.62068470465957 l 11.742991141218864 0.9089817821968512 a32.77811906983074,32.77811906983074 0 0,0 -0.04824061501097934,0.5606290703094189 l -11.725656903510144 -1.1104318998819274" fill="#ff850c" stroke="none" /><path d="M 120.9064616781168 101.97986365728391 l 6.66068831662249 0.6307741086756821 a27.69048913214624,27.69048913214624 0 0,0 -0.04887715157814705,0.4728421037410132 l -6.648878772562678 -0.7450207346996267" fill="#ff3d05" stroke="none" /><path d="M 120.86939407059847 102.33845913500097 l 22.992265993034025 2.5763313617969823 a44.13615739011575,44.13615739011575 0 0,0 -0.09083203061504433,0.752219514582193 l -22.944651876159316 -2.970644553302584" fill="#e6ff1a" stroke="none" /><path d="M 120.82617615685814 102.69636545807757 l 45.859166249369416 5.937387203474563 a67.241925737271,67.241925737271 0 0,0 -0.15803608345341255,1.1434703742819567 l -45.75048564936079 -6.723745885956604" fill="#38ff7e" stroke="none" /><path d="M 120.77682067341334 103.0534771498775 l 6.697661375835806 0.9843255756113628 a27.769605951912226,27.769605951912226 0 0,0 -0.07336268105335121,0.47104103919894597 l -6.679777202644188 -1.0991547967417592" fill="#ff3e05" stroke="none" /><path d="M 120.7213421655516 103.40968896794604 l 23.865723690406647 3.9270957512834306 a45.18666674650696,45.18666674650696 0 0,0 -0.13251567230958178,0.7643151832121361 l -23.79479320060483 -4.3362039674161545" fill="#d9ff1c" stroke="none" /><path d="M 120.65975698304385 103.76489593502545 l 23.85456881361372 4.34709707533681 a45.24742679679298,45.24742679679298 0 0,0 -0.14581243504907446,0.7629522746470125 l -23.776430086282488 -4.755951915017138" fill="#d9ff1c" stroke="none" /><path d="M 120.592083275326 104.11899336999214 l 24.67294681725474 4.935280369626996 a46.161702982387865,46.161702982387865 0 0,0 -0.16209855476985918,0.7757002649111402 l -24.58459055166052 -5.3580970858235455" fill="#ceff1d" stroke="none" /><path d="M 120.51834098615036 104.47187691870673 l 28.399766980640518 6.189597031412012 a50.06643899699349,50.06643899699349 0 0,0 -0.19022657297361334,0.8381733796799806 l -28.28932954610924 -6.67620474503101" fill="#a0ff22" stroke="none" /><path d="M 120.43855184770803 104.8234425847677 l 12.328868940142426 2.9095795001039453 a33.66754365339365,33.66754365339365 0 0,0 -0.1375759617627759,0.5613568719042061 l -12.277105451863354 -3.120792196616251" fill="#ff910d" stroke="none" /><path d="M 120.35273937422433 105.17358676015961 l 13.095811888179563 3.3289041712012164 a34.51228670475971,34.51228670475971 0 0,0 -0.15088528385619016,0.5729359992359304 l -13.036737123518643 -3.5532206748099497" fill="#ff9c0e" stroke="none" /><path d="M 120.26092885502905 105.52220625578681 l 47.230270831121 12.872820338707388 a69.95312029129173,69.95312029129173 0 0,0 -0.3257200755319438,1.1558656399684715 l -47.002332263514475 -13.68169390257887" fill="#3bff9d" stroke="none" /><path d="M 120.16314734710363 105.8691983318838 l 15.743450101889119 4.582688877159673 a37.396867336644384,37.396867336644384 0 0,0 -0.18471146192822935,0.6148443826118876 l -15.662462319957259 -4.852270863362284" fill="#ffc312" stroke="none" /><path d="M 120.05942366710727 106.21446072829308 l 4.549150327976441 1.4093384002187528 a25.762457709298772,25.762457709298772 0 0,0 -0.1344987796778773,0.42131551169473064 l -4.524286832521308 -1.487222945604867" fill="#ff2103" stroke="none" /><path d="M 119.94978838288452 106.5578916946017 l 14.901661675695577 4.898472177411567 a36.6861260472358,36.6861260472358 0 0,0 -0.2017991611661678,0.5965833626267101 l -14.815377092957045 -5.153557214512437" fill="#ffb911" stroke="none" /><path d="M 119.83427380445688 106.89939002012753 l 2.4437013617158896 0.8500461853766537 a23.58732581298249,23.58732581298249 0 0,0 -0.1363120880848411,0.38128917076007224 l -2.4287491035871054 -0.8918703125176474" fill="#ff0100" stroke="none" /><path d="M 119.71291397450082 107.23885506374661 l 4.979775648875336 1.8286425953469967 a26.304912747128757,26.304912747128757 0 0,0 -0.15929417935110324,0.4225467360157874 l -4.947650785709793 -1.913857611556943" fill="#ff2904" stroke="none" /><path d="M 119.58574465831526 107.57618678355244 l 19.00511775355953 7.351587823506383 a41.37744695376217,41.37744695376217 0 0,0 -0.2619415535500972,0.6602638278335909 l -18.87611752504331 -7.676752668553538" fill="#fff617" stroke="none" /><path d="M 119.4528033332814 107.91128576633889 l 4.807767999080657 1.9552773904783187 a26.190158264128343,26.190158264128343 0 0,0 -0.17294752755875153,0.41501110680427467 l -4.77349462698542 -2.037521006723871" fill="#ff2803" stroke="none" /><path d="M 119.31412917781788 108.2440532568976 l 8.58385518526092 3.663937351007344 a30.3331134544501,30.3331134544501 0 0,0 -0.2085273255122814,0.4771513293236916 l -8.519693977731672 -3.8107507501068802" fill="#ff6309" stroke="none" /><path d="M 119.16976305983485 108.57439118712176 l 12.218877403354544 5.465348444674364 a34.3854771532401,34.3854771532401 0 0,0 -0.2456359883979789,0.5367589648874858 l -12.123256950101508 -5.674296391776538" fill="#ff9b0e" stroke="none" /><path d="M 119.0197475246899 108.90220220490707 l 3.9289593875048596 1.8389513781417222 a25.33802536182442,25.33802536182442 0 0,0 -0.18776772898274696,0.39236233666774445 l -3.8968124005622005 -1.9061262168745703" fill="#ff1b02" stroke="none" /><path d="M 118.8641267826498 109.22738970284198 l 20.382043958803006 9.969879057498197 a43.689781937244774,43.689781937244774 0 0,0 -0.3353296592574096,0.6708839469482871 l -20.207894386333866 -10.31829486061023" fill="#ecff1a" stroke="none" /><path d="M 118.70294669586154 109.54985784667822 l 4.18325329861259 2.135998941131439 a25.697030938461843,25.697030938461843 0 0,0 -0.20397560517822272,0.39115011812091194 l -4.1459696244594175 -2.2074953023568535" fill="#ff2003" stroke="none" /><path d="M 118.5362547648365 109.86951160357373 l 16.1692534990794 8.609216751434566 a39.31838889724402,39.31838889724402 0 0,0 -0.32232588068062773,0.5930433161318032 l -16.019082268783436 -8.885514901040972" fill="#ffdc14" stroke="none" /><line stroke="#e1ed5e" stroke-width="0.3" x1="174.33088141563837" x2="178.70328620479359" y1="141.23008692659167" y2="143.65538615756765" /><path d="M 175.20536237346943 141.71514677278685 a86.0,86.0 0 0,1 -30.301960400862466,31.631185727798858" fill="none" id="id77" stroke="none" /><text fill="#e1ed5e" style="font-size:6.75px; font-family:Arial;" text-anchor="middle"><textPath startOffset="22.145653131862474" xlink:href="#id77">May</textPath></text><path d="M 118.18653347947321 110.5 l 13.405677805398915 7.73977168961645 a36.47954337923291,36.47954337923291 0 0,0 -0.3177651203106361,0.5396346443782611 l -13.270838974958512 -7.968757502288261" fill="#ffb710" stroke="none" /><path d="M 118.00360718960297 110.81064883170644 l 15.652952985549783 9.399148521953581 a39.258119566526396,39.258119566526396 0 0,0 -0.3518874170314462,0.5747816503548172 l -15.489297604062932 -9.666467288432955" fill="#ffdb14" stroke="none" /><path d="M 117.81537515405839 111.11811171558189 l 18.944370837181978 11.82268852201071 a43.330811680392515,43.330811680392515 0 0,0 -0.3992259746498188,0.6276495418213847 l -18.73862717090627 -12.146151738510767" fill="#f0ff19" stroke="none" /><path d="M 117.62189284568427 111.42229804090321 l 23.937334764802664 15.515891191871155 a49.52610865716204,49.52610865716204 0 0,0 -0.4685536869302249,0.7094500015066841 l -23.667456638951712 -15.924521071716901" fill="#a7ff21" stroke="none" /><path d="M 117.423217284605 111.72311816256416 l 12.958908305431153 8.719331845596482 a36.6192206048255,36.6192206048255 0 0,0 -0.3553987137660633,0.5185373446039255 l -12.80731985484977 -8.940503925270452" fill="#ffb911" stroke="none" /><path d="M 117.21940702142032 112.02048342749411 l 15.541432172384624 10.84912666477315 a39.95361874041798,39.95361874041798 0 0,0 -0.3974146530458918,0.5590134791095592 l -15.352902420808773 -11.114317370592213" fill="#ffe415" stroke="none" /><path d="M 117.01052211995028 112.31430620078461 l 14.867223528883862 10.762723307326706 a39.3540335743365,39.3540335743365 0 0,0 -0.4008451572752762,0.5438234403853915 l -14.680276352024759 -11.016353056980975" fill="#ffdc14" stroke="none" /><path d="M 116.79662413953412 112.60449989151573 l 4.435189646984319 3.3282489957423156 a26.545101313986663,26.545101313986663 0 0,0 -0.2766353777855065,0.3621245896361565 l -4.377402291844508 -3.4038944986193496" fill="#ff2d04" stroke="none" /><path d="M 116.57777611688842 112.89097897827486 l 15.563564795519707 12.102322120376213 a40.71524156204249,40.71524156204249 0 0,0 -0.433779348665086,0.5480660365850193 l -15.35351901621306 -12.367708100875914" fill="#ffed16" stroke="none" /><path d="M 116.35404254752997 113.17365903436017 l 14.39275108320702 11.593781463239756 a39.481532738399125,39.481532738399125 0 0,0 -0.4296966613664466,0.5241600591672347 l -14.191607602601946 -11.839143804105484" fill="#ffde14" stroke="none" /><path d="M 116.1254893667686 113.45245675266167 l 3.923699339208241 3.2732895399703064 a26.109778949913803,26.109778949913803 0 0,0 -0.29007397022106635,0.34170640753979264 l -3.8669308054800604 -3.3401627299596557" fill="#ff2603" stroke="none" /><path d="M 115.89218393027572 113.72728997021213 l 3.458682454014068 2.9875275273328814 a25.570317827490392,25.570317827490392 0 0,0 -0.2897834635240596,0.329720386673686 l -3.406887926531423 -3.0464601918178604" fill="#ff1e03" stroke="none" /><path d="M 115.6541949942343 113.99807769240083 l 8.581559795480352 7.673683685642185 a32.512106229126616,32.512106229126616 0 0,0 -0.37559579626948364,0.41284557479930595 l -8.44856629836899 -7.8198668359991625" fill="#ff810b" stroke="none" /><path d="M 115.41159269507618 114.26474011684316 l 16.863144527264755 15.608274822306324 a43.9778999535654,43.9778999535654 0 0,0 -0.5175657818120996,0.5496369245961781 l -16.592722911716393 -15.895453206847" fill="#e8ff1a" stroke="none" /><path d="M 115.16444852881244 114.52719865689866 l 14.343865393106553 13.741098575233913 a40.86364177259183,40.86364177259183 0 0,0 -0.48961102966806347,0.5023840488169579 l -14.105867562287681 -13.985305316118609" fill="#ffef16" stroke="none" /><path d="M 114.91283532996324 114.78537596483092 l 12.675923514168534 12.56758293856145 a38.85001898751572,38.85001898751572 0 0,0 -0.47361517923372887,0.4695672105727398 l -12.458316414804841 -12.783330159362853" fill="#ffd614" stroke="none" /><path d="M 114.39649973595853 115.28858382429668 l 3.186452794130168 3.3839024442547863 a25.64804014197957,25.64804014197957 0 0,0 -0.3231289450339087,0.299083327488341 l -3.127894077782292 -3.438103517875507" fill="#ff2003" stroke="none" /><path d="M 114.13192950727249 115.5334660781643 l 10.371055062086405 11.399606254672426 a36.411353148325254,36.411353148325254 0 0,0 -0.46595257198284296,0.41665766307319857 l -10.173837463280185 -11.57595944762901" fill="#ffb610" stroke="none" /><path d="M 113.86319453409587 115.77377054828091 l 10.414672549178572 11.849985565894434 a36.776170708334774,36.776170708334774 0 0,0 -0.4777759059513298,0.41269144823325093 l -10.209717163464388 -12.027021146592402" fill="#ffbb11" stroke="none" /><path d="M 113.59037401385872 116.0094264158162 l 11.869525375404473 13.982271046729437 a39.34092517463552,39.34092517463552 0 0,0 -0.518598943150264,0.43263368298651683 l -11.627752098092314 -14.183966913627826" fill="#ffdc14" stroke="none" /><path d="M 113.31354834802062 116.24036423190432 l 9.776389517244576 11.925605592338462 a36.420695857739496,36.420695857739496 0 0,0 -0.4869086811993337,0.3922191671171098 l -9.57023006568999 -12.091673053248975" fill="#ffb610" stroke="none" /><path d="M 113.03279911837588 116.46651593811092 l 11.073741353247533 13.991310449239252 a38.843332526342046,38.843332526342046 0 0,0 -0.52640124543923,0.4093327923630159 l -10.831930163173071 -14.179344293223062" fill="#ffd614" stroke="none" /><path d="M 112.7482090630111 116.68781488649013 l 26.81301623291015 35.09909895826358 a65.16881917357858,65.16881917357858 0 0,0 -0.8948206773769585,0.67149011832545 l -26.206542566622428 -35.55420810385305" fill="#35ff65" stroke="none" /><path d="M 112.45986205192187 116.90419585922612 l 9.271720849607224 12.578870018039717 a36.62666882108211,36.62666882108211 0 0,0 -0.5093182296428425,0.368707120759549 l -9.054421609590413 -12.736177910172344" fill="#ffb911" stroke="none" /><path d="M 112.16784306229584 117.11559508785304 l 11.810640500361584 16.613144950790133 a41.3835181993871,41.3835181993871 0 0,0 -0.582531958297092,0.40665254860317185 l -11.523713450890734 -16.813442315198426" fill="#fff617" stroke="none" /><path d="M 111.8722381534696 117.32195027204791 l 9.06387314349973 13.224461793496737 a37.03247286257209,37.03247286257209 0 0,0 -0.5274547663877288,0.35489510638397376 l -8.835522089014997 -13.378106573937831" fill="#ffbe11" stroke="none" /><path d="M 111.5731344415666 117.5232005979908 l 3.7112178948980494 5.619256906026964 a27.73418045788374,27.73418045788374 0 0,0 -0.3995232412422237,0.25896613807034957 l -3.614209021398816 -5.682136885801208" fill="#ff3e05" stroke="none" /><path d="M 111.27062007382361 117.71928675628689 l 3.568637466771642 5.610490832693258 a27.649269189390772,27.649269189390772 0 0,0 -0.40267325385071523,0.2512978919879341 l -3.4718000841312118 -5.67092452152274" fill="#ff3d05" stroke="none" /><path d="M 110.96478420261333 117.91015095944535 l 7.897432181263865 12.899861953024672 a36.125338788429026,36.125338788429026 0 0,0 -0.5316742322746892,0.319255100239475 l -7.674825192431739 -13.03353105380007" fill="#ffb210" stroke="none" /><line stroke="#e1ed5e" stroke-width="0.3" x1="143.1302829299769" x2="145.66735839644613" y1="173.24464959558577" y2="177.55315839532614" /><path d="M 143.63769802327073 174.10635135553383 a86.0,86.0 0 0,1 -40.68552437913181,11.842963189579606" fill="none" id="id78" stroke="none" /><text fill="#e1ed5e" style="font-size:6.75px; font-family:Arial;" text-anchor="middle"><textPath startOffset="21.407464694133747" xlink:href="#id78">June</textPath></text><path d="M 110.65571695917076 118.09573695890943 l 7.752863030420019 13.166056363405122 a36.279133657796635,36.279133657796635 0 0,0 -0.5393627994030209,0.31140125742620545 l -7.5257077631566 -13.297204518107499" fill="#ffb410" stroke="none" /><path d="M 110.34350942703117 118.27599006163325 l 2.3090710649924424 4.0799073209255425 a25.68801161800258,25.68801161800258 0 0,0 -0.38563309320424194,0.21390417618855448 l -2.238693783632106 -4.118944412547241" fill="#ff2003" stroke="none" /><path d="M 110.02825361518725 118.45085714620011 l 3.196989739915665 5.882101036985983 a27.694763327141416,27.694763327141416 0 0,0 -0.4196563540400378,0.22344337128817776 l -3.0955445700890736 -5.936114875996729" fill="#ff3d05" stroke="none" /><path d="M 109.71004243097381 118.62028667847754 l 1.1828055833803461 2.26818566489386 a23.55806474869299,23.55806474869299 0 0,0 -0.36018349047210363,0.18391225664403232 l -1.1436948711946602 -2.2881558732107283" fill="#ff0100" stroke="none" /><path d="M 109.3889696526874 118.78422872680471 l 8.826465489309689 17.65884359344853 a40.741865415706116,40.741865415706116 0 0,0 -0.6282778828962182,0.30732219593074434 l -8.522027357151401 -17.8077595394765" fill="#ffee16" stroke="none" /><path d="M 109.06512990194946 118.94263497670748 l 6.715341839820505 14.032481673337667 a36.556553536635334,36.556553536635334 0 0,0 -0.568387014841521,0.26603382248867385 l -6.473466111107478 -14.145691727396875" fill="#ffb811" stroke="none" /><path d="M 108.4095320186766 119.2426549942271 l 5.902110138826774 13.505183033626913 a35.73855056858055,35.73855056858055 0 0,0 -0.5642690396566264,0.24085289951826058 l -5.669406023999716 -13.604510582804577" fill="#ffad10" stroke="none" /><path d="M 108.07796709384702 119.3841803445677 l 9.958326599093192 23.896358636316013 a46.888302855336846,46.888302855336846 0 0,0 -0.7456256933757739,0.3032394783392546 l -9.546646444526976 -24.06378537123456" fill="#c5ff1e" stroke="none" /><path d="M 107.74402155503746 119.51999308798841 l 8.243222642528679 20.77830593075239 a43.35371818929096,43.35371818929096 0 0,0 -0.6941296466323058,0.26850425892052604 l -7.8853207334028435 -20.916750077810956" fill="#f0ff19" stroke="none" /><path d="M 107.407793817531 119.65005319985036 l 5.441711180278804 14.434785419869929 a36.42644646985367,36.42644646985367 0 0,0 -0.5870049834327958,0.21555636078275978 l -5.193117045191881 -14.52607262966141" fill="#ffb610" stroke="none" /><path d="M 107.06938296918513 119.77432235084164 l 5.170006932959824 14.461429532684942 a36.357796580748975,36.357796580748975 0 0,0 -0.589505708424108,0.20506068644648814 l -4.920995452490694 -14.548048651700022" fill="#ffb510" stroke="none" /><path d="M 106.72888874123015 119.89276391827305 l 8.045647937095941 23.785528508074353 a46.10943681439538,46.10943681439538 0 0,0 -0.751973032799948,0.24718847196364027 l -7.636152166648259 -23.920137901440015" fill="#ceff1d" stroke="none" /><path d="M 106.38641147887787 120.00534299687104 l 5.247051241039397 16.436313279581306 a38.25351966848022,38.25351966848022 0 0,0 -0.6272837058795582,0.19433409555424347 l -4.964126902288215 -16.523963962942194" fill="#ffce13" stroke="none" /><path d="M 106.0420521117495 120.11202640906438 l 2.11259795054639 7.032151492123019 a28.342630639547437,28.342630639547437 0 0,0 -0.467167515173602,0.13598565509471683 l -1.9915704229911813 -7.0673808415202535" fill="#ff4706" stroke="none" /><path d="M 105.69591212413111 120.21278271476187 l 8.911215514733769 31.622760147691928 a53.854356199878346,53.854356199878346 0 0,0 -0.8919784155716953,0.24311268361589652 l -8.367055698227379 -31.77107332545197" fill="#76ff27" stroke="none" /><path d="M 105.3480935250658 120.30758222061773 l 5.627781026013248 21.36960121765825 a43.09823014357701,43.09823014357701 0 0,0 -0.7170615944533063,0.1822742532624748 l -5.260114138334544 -21.463060702755996" fill="#f3ff19" stroke="none" /><path d="M 104.9986988182912 120.39639698878246 l 4.711695183432293 19.225324218327568 a40.79427095907782,40.79427095907782 0 0,0 -0.6815903805315919,0.160853473931069 l -4.380972649160822 -19.30337383590486" fill="#ffee16" stroke="none" /><path d="M 104.64783097203109 120.47920084513623 l 0.9897267144626499 4.360918520756797 a25.47181946348471,25.47181946348471 0 0,0 -0.4272443872443578,0.09311592566156587 l -0.9147199105991562 -4.377265904552082" fill="#ff1d02" stroke="none" /><path d="M 104.29559338865022 120.5559693870025 l 3.81355978471611 18.249264094048904 a39.643467440525825,39.643467440525825 0 0,0 -0.6673383364745186,0.1334863571950375 l -3.499724962710633 -18.312039847906803" fill="#ffe015" stroke="none" /><path d="M 103.94208987418118 120.62667999033965 l 1.271699256339458 6.654067878124018 a27.774499119880097,27.774499119880097 0 0,0 -0.46907857765896205,0.08548174267902783 l -1.1572859451294388 -6.6749177947344105" fill="#ff3f05" stroke="none" /><path d="M 103.58742460773223 120.69131181640829 l 7.501613987830669 43.267316005465716 a64.91280959741982,64.91280959741982 0 0,0 -1.0995688911349846,0.1809336426012197 l -6.757767593642612 -43.38971564656261" fill="#35ff62" stroke="none" /><path d="M 103.2317021107853 120.74984581791261 l 2.7416634023041873 17.603445779413605 a38.81566786624315,38.81566786624315 0 0,0 -0.659265439855211,0.09688931660645357 l -2.4390728568412907 -17.64791616931894" fill="#ffd513" stroke="none" /><path d="M 102.875027216393 120.80226474461374 l 2.416019560354206 17.4811139999252 a38.6472801642178,38.6472801642178 0 0,0 -0.6579647515385038,0.08518670999989475 l -2.115576986924927 -17.520012306125487" fill="#ffd313" stroke="none" /><path d="M 102.51750503828377 120.84855314841334 l 1.8451725628580455 15.280675772138768 a36.39167677155263,36.39167677155263 0 0,0 -0.620849107990259,0.0695674375176245 l -1.5825875532669873 -15.310098970163363" fill="#ffb610" stroke="none" /><path d="M 102.15924093988457 120.88869738790638 l 1.5435106747522978 14.932065618220262 a36.01162911978277,36.01162911978277 0 0,0 -0.6154566387765207,0.05828438357999157 l -1.2869544725907618 -14.956361757305437" fill="#ffb110" stroke="none" /><path d="M 101.44090949804482 120.95050786540614 l 0.456119732658421 6.631880808332332 a27.647547537735033,27.647547537735033 0 0,0 -0.4737679110066718,0.028500701056656058 l -0.342207469519284 -6.63873348721368" fill="#ff3d05" stroke="none" /><path d="M 101.08105385017728 120.97215588758144 l 0.6063852513846242 11.763711879739489 a32.779330212818586,32.779330212818586 0 0,0 -0.5622033489245801,0.02414343081494593 l -0.40435614185921454 -11.772387878980265" fill="#ff850c" stroke="none" /><path d="M 100.72087961077811 120.9876233191556 l 0.15445514348434525 4.496792977202624 a25.499444795879555,25.499444795879555 0 0,0 -0.43760287633443096,0.011271097810108358 l -0.07723895307917043 -4.498781792362777" fill="#ff1d03" stroke="none" /><line stroke="#e1ed5e" stroke-width="0.3" x1="101.45913802915013" x2="101.54496967792366" y1="184.9874750549273" y2="189.98673829345242" /><path d="M 101.47630435890484 185.9873277026323 a86.0,86.0 0 0,1 -42.54439059252881,-10.42667462771756" fill="none" id="id79" stroke="none" /><text fill="#e1ed5e" style="font-size:6.75px; font-family:Arial;" text-anchor="middle"><textPath startOffset="22.145653131862474" xlink:href="#id79">July</textPath></text><path d="M 100.36049292484886 120.99690560180557 l 0.05894011060636912 3.4329659564907904 a24.433471886452985,24.433471886452985 0 0,0 -0.4194330354552209,0.003600328156629346 l -4.2047903557070725e-16 -3.4334718864529847" fill="#ff0e01" stroke="none" /><path d="M 100.0 121.0 l 3.752073366595664e-15 30.63800411031167 a51.63800411031167,51.63800411031167 0 0,0 -0.8864350064325383,-0.00760897841348433 l 0.5259420815836824 -30.63348953009262" fill="#8fff24" stroke="none" /><path d="M 99.63950707515114 120.99690560180557 l -0.34615889242460074 20.16202007435349 a41.16499143211912,41.16499143211912 0 0,0 -0.7064435637394111,-0.018195480274085973 l 0.6922157702347557 -20.153106876729353" fill="#fff316" stroke="none" /><path d="M 99.27912038922189 120.98762331915562 l -0.6376459767091166 18.564366879097847 a39.57531453336278,39.57531453336278 0 0,0 -0.678762324335072,-0.029148974741480954 l 0.9562340616450273 -18.550685335930538" fill="#ffdf14" stroke="none" /><path d="M 98.55909050195518 120.95050786540614 l -0.36580945721967506 5.318789223833932 a26.33135398998822,26.33135398998822 0 0,0 -0.45068119207383633,-0.03488557457357981 l 0.45705964406874755 -5.311725882265298" fill="#ff2a04" stroke="none" /><path d="M 98.19965949673042 120.92268563240118 l -2.3807490766929607 27.66791304801154 a48.77015265709754,48.77015265709754 0 0,0 -0.8335061467815126,-0.07893389869328314 l 2.8553547868594884 -27.622967393813074" fill="#afff20" stroke="none" /><path d="M 97.84075906011543 120.88869738790638 l -1.9997801275444 19.346058679702928 a40.449141549102634,40.449141549102634 0 0,0 -0.6900702489576621,-0.07732381074450534 l 2.3315862781028613 -19.30887910845145" fill="#ffea16" stroke="none" /><path d="M 97.48249496171623 120.84855314841334 l -1.8495284809394217 15.316749022538914 a36.428012063167856,36.428012063167856 0 0,0 -0.6201820103339144,-0.08029497771412962 l 2.1121883131641304 -15.282742448624388" fill="#ffb610" stroke="none" /><path d="M 97.12497278360702 120.80226474461374 l -3.07529003216978 22.2512667187646 a43.462775415597335,43.462775415597335 0 0,0 -0.7381943253026232,-0.10848914470177771 l 3.4568094630800883 -22.19519650076394" fill="#eeff19" stroke="none" /><path d="M 96.76829788921471 120.74984581791261 l -2.4880567611130506 15.975109217837451 a37.16770054671831,37.16770054671831 0 0,0 -0.6295898687740311,-0.10359877331972177 l 2.761924132940145 -15.93004444602206" fill="#ffc011" stroke="none" /><path d="M 96.41257539226777 120.69131181640829 l -3.6584656610855033 21.10105773372471 a42.415858807793,42.415858807793 0 0,0 -0.7163538983679354,-0.1305435432865246 l 4.020154293004496 -21.035146016506815" fill="#fbff18" stroke="none" /><path d="M 96.05791012581884 120.62667999033965 l -2.822641026245686 14.769250583884057 a36.036557623758334,36.036557623758334 0 0,0 -0.6066214175887961,-0.12134127294140527 l 3.07575892936544 -14.718619914279792" fill="#ffb110" stroke="none" /><path d="M 95.70440661134978 120.55596938700252 l -0.6246351677842521 2.9891053983237748 a24.053673226643806,24.053673226643806 0 0,0 -0.4034575108945711,-0.08793168667321205 l 0.6758550952979596 -2.977942253516844" fill="#ff0801" stroke="none" /><path d="M 95.35216902796893 120.47920084513623 l -3.9964269045181555 17.60899433155767 a39.05680230195775,39.05680230195775 0 0,0 -0.6525607669283289,-0.15400256416423816 l 4.298119825186372 -17.537795623747208" fill="#ffd814" stroke="none" /><path d="M 95.00130118170881 120.39639698878247 l -3.739715878698472 15.259316966262588 a36.710895236435725,36.710895236435725 0 0,0 -0.6107901179318239,-0.1552604595020946 l 4.001111289855674 -15.192871274925231" fill="#ffba11" stroke="none" /><path d="M 94.6519064749342 120.30758222061772 l -5.985519569512119 22.72799273634394 a44.502938078893784,44.502938078893784 0 0,0 -0.7370928369948022,-0.20089793042918433 l 6.374793807441616 -22.62189431177061" fill="#e2ff1b" stroke="none" /><path d="M 94.30408787586889 120.21278271476187 l -5.0693469463513265 17.98932393957388 a39.689945271867636,39.689945271867636 0 0,0 -0.6542036745228079,-0.1904291551870813 l 5.377410633255741 -17.899651090084284" fill="#ffe015" stroke="none" /><path d="M 93.95794788825049 120.11202640906438 l -5.186133277943589 17.26295098383841 a39.025133981388365,39.025133981388365 0 0,0 -0.6399366876157428,-0.19825402163986683 l 5.481710598430966 -17.171380374391898" fill="#ffd814" stroke="none" /><path d="M 93.61358852112213 120.00534299687104 l -4.595953967338158 14.396760343194336 a36.112561042036006,36.112561042036006 0 0,0 -0.5889395734383448,-0.1935961356155079 l 4.8424162784242455 -14.315743286176806" fill="#ffb210" stroke="none" /><path d="M 93.27111125876986 119.89276391827306 l -4.906856877457485 14.506250466874516 a36.31367189878211,36.31367189878211 0 0,0 -0.5887902703517239,-0.20481181994674683 l 5.15515291985423 -14.419880214359178" fill="#ffb510" stroke="none" /><path d="M 92.93061703081489 119.77432235084164 l -4.155629708853829 11.624035901266524 a33.34453194378149,33.34453194378149 0 0,0 -0.5373405401329251,-0.19731888927882646 l 4.3545594006408725 -11.550986162978978" fill="#ff8d0d" stroke="none" /><path d="M 92.59220618246901 119.65005319985036 l -7.293807288581726 19.34769038939814 a41.676865046882156,41.676865046882156 0 0,0 -0.6672818114797973,-0.2581189395263467 l 7.624861362555052 -19.219631561733753" fill="#fffa17" stroke="none" /><path d="M 92.25597844496254 119.51999308798841 l -5.839404225345988 14.719113229040152 a36.83511717532565,36.83511717532565 0 0,0 -0.5857582405822557,-0.23822277703829728 l 6.091216927118684 -14.616703195422563" fill="#ffbb11" stroke="none" /><path d="M 91.92203290615298 119.3841803445677 l -8.956971931865713 21.493471965337026 a44.28511720633931,44.28511720633931 0 0,0 -0.6992091217899304,-0.29845079654769197 l 9.324616128826076 -21.33654651912993" fill="#e4ff1a" stroke="none" /><path d="M 91.59046798132341 119.24265499422711 l -7.154101937296859 16.36998528184442 a38.86498230217533,38.86498230217533 0 0,0 -0.6090449892332782,-0.2724180769445276 l 7.434060329385772 -16.24476345399004" fill="#ffd614" stroke="none" /><path d="M 91.26138138417905 119.09545874513695 l -1.964372627305191 4.292508703477571 a25.720634574751216,25.720634574751216 0 0,0 -0.399908451192545,-0.18717734771956607 l 2.0377697923692257 -4.258155124187478" fill="#ff2103" stroke="none" /><path d="M 90.93487009805054 118.94263497670748 l -6.641517298701359 13.878216775882393 a36.38553388437765,36.38553388437765 0 0,0 -0.5610991535039708,-0.27446171301594063 l 6.878776701467399 -13.76216131276923" fill="#ffb510" stroke="none" /><path d="M 90.6110303473126 118.78422872680471 l -1.1541569707519805 2.309087080608022 a23.58146498309899,23.58146498309899 0 0,0 -0.3605412608660697,-0.1840949367564064 l 1.1936254533316324 -2.288934192178779" fill="#ff0100" stroke="none" /><path d="M 90.28995756902619 118.62028667847754 l -7.128710859919218 13.67024302965479 a36.417329957361474,36.417329957361474 0 0,0 -0.551828651982072,-0.29381767530802283 l 7.362328327687853 -13.545854886624193" fill="#ffb610" stroke="none" /><path d="M 89.97174638481275 118.45085714620012 l -9.126060425657153 16.790923293601427 a40.11073216662179,40.11073216662179 0 0,0 -0.6021495920400706,-0.33400222827709464 l 9.412954205853326 -16.631788149891186" fill="#ffe615" stroke="none" /><line stroke="#e1ed5e" stroke-width="0.3" x1="58.13341422392154" x2="55.67067388415222" y1="173.97424548756322" y2="178.32567169271397" /><path d="M 57.64086615596768 174.84453072859336 a86.0,86.0 0 0,1 -31.369924170532247,-30.572349798747897" fill="none" id="id80" stroke="none" /><text fill="#e1ed5e" style="font-size:6.75px; font-family:Arial;" text-anchor="middle"><textPath startOffset="22.145653131862474" xlink:href="#id80">August</textPath></text><path d="M 89.65649057296885 118.27599006163327 l -7.5380030294147105 13.318929075475944 a36.30409622908272,36.30409622908272 0 0,0 -0.5397339185828802,-0.3116155231845998 l 7.765529415857991 -13.187566655015173" fill="#ffb410" stroke="none" /><path d="M 89.34428304082925 118.09573695890944 l -8.946692666925768 15.193440082279722 a38.63190095282546,38.63190095282546 0 0,0 -0.5685645303064888,-0.3414066642632146 l 9.206189953789684 -15.037619417480588" fill="#ffd313" stroke="none" /><path d="M 89.03521579738668 117.91015095944536 l -8.06664886869117 13.176264694809415 a36.449426373766684,36.449426373766684 0 0,0 -0.5308353366731505,-0.33128051049579305 l 8.291648334154031 -13.035848387472074" fill="#ffb610" stroke="none" /><path d="M 88.72937992617639 117.7192867562869 l -8.891180051296244 13.978411826391008 a37.56650475787685,37.56650475787685 0 0,0 -0.5411622588163406,-0.35077483802783016 l 9.129827942369594 -13.823723146659285" fill="#ffc512" stroke="none" /><path d="M 88.4268655584334 117.5232005979908 l -5.42119223843344 8.208376006861688 a30.83700980766379,30.83700980766379 0 0,0 -0.4392125760695848,-0.2955218226140995 l 5.56130110260003 -8.114104510190467" fill="#ff6a09" stroke="none" /><path d="M 87.83215693770417 117.11559508785305 l -8.817038597630152 12.402268975561215 a36.21697885173887,36.21697885173887 0 0,0 -0.5036212176948888,-0.3645829234502667 l 9.028640825698993 -12.249085280737884" fill="#ffb310" stroke="none" /><path d="M 87.54013794807813 116.9041958592261 l -4.53466856040927 6.152148810508665 a28.642784436277623,28.642784436277623 0 0,0 -0.3932886324511368,-0.2951311218185184 l 4.639610181771173 -6.073398661426132" fill="#ff4b07" stroke="none" /><path d="M 87.2517909369889 116.68781488649013 l -6.772078606973076 8.864868283171498 a32.15557879883435,32.15557879883435 0 0,0 -0.4357694262212641,-0.33885694155746476 l 6.923257977829569 -8.74731028999324" fill="#ff7c0b" stroke="none" /><path d="M 86.96720088162412 116.46651593811092 l -3.3959007001066146 4.290609599261288 a26.471880142899487,26.471880142899487 0 0,0 -0.3539028551127082,-0.28507908861014536 l 3.4690543255745845 -4.231682216857732" fill="#ff2c04" stroke="none" /><path d="M 86.68645165197938 116.24036423190432 l -5.896926806657069 7.193291877234934 a30.301461917041042,30.301461917041042 0 0,0 -0.3994391605263304,-0.3332263542570997 l 6.019540301345292 -7.091003339065964" fill="#ff6209" stroke="none" /><path d="M 86.40962598614128 116.0094264158162 l -14.435242212745969 17.004679029714506 a43.30549991917364,43.30549991917364 0 0,0 -0.5626013817656317,-0.4859616739286553 l 14.725023074274462 -16.754373223321128" fill="#f0ff19" stroke="none" /><path d="M 86.13680546590413 115.77377054828092 l -14.90335176938948 16.95727854301497 a43.57563264999589,43.57563264999589 0 0,0 -0.5576331653024423,-0.4986390149501737 l 15.192249961515293 -16.698943998181413" fill="#edff1a" stroke="none" /><path d="M 85.86807049272751 115.53346607816431 l -15.30994575815761 16.82831229596022 a43.750528210309625,43.750528210309625 0 0,0 -0.5511946311303021,-0.5101775217161729 l 15.59657016060188 -16.56301702811167" fill="#ebff1a" stroke="none" /><path d="M 85.60350026404147 115.28858382429668 l -8.61374188060939 9.147495377200695 a33.56476107459558,33.56476107459558 0 0,0 -0.41608718157495833,-0.39860210767597615 l 8.769501548049664 -8.998281139219136" fill="#ff900d" stroke="none" /><path d="M 85.34317274990678 115.03919595460226 l -12.387311234769877 12.71047258943204 a38.74828422901096,38.74828422901096 0 0,0 -0.47237494493940724,-0.4683375765078362 l 12.603678099839247 -12.495955002695544" fill="#ffd413" stroke="none" /><path d="M 85.08716467003676 114.78537596483092 l -13.056780219979064 12.945184478412264 a39.38633489559467,39.38633489559467 0 0,0 -0.47191055781076546,-0.48422180536491277 l 13.277077578940638 -12.719139980979614" fill="#ffdd14" stroke="none" /><path d="M 84.83555147118756 114.52719865689866 l -13.247294247284035 12.690608222978806 a39.345090404336034,39.345090404336034 0 0,0 -0.4630433125976849,-0.49173595170828976 l 13.463193393617972 -12.461330811326027" fill="#ffdc14" stroke="none" /><path d="M 84.58840730492382 114.26474011684316 l -13.335083130542957 12.342753864398967 a39.17052599832011,39.17052599832011 0 0,0 -0.452517126972637,-0.4973955918758666 l 13.544997958357474 -12.112020696965427" fill="#ffda14" stroke="none" /><path d="M 84.3458050057657 113.99807769240083 l -13.388796474048675 11.972344366510349 a38.960982730736376,38.960982730736376 0 0,0 -0.44153727748645716,-0.502388369899494 l 13.592344815493725 -11.740743718799555" fill="#ffd714" stroke="none" /><path d="M 84.1078160697243 113.72728997021213 l -14.135122384269442 12.209582055217032 a39.67821133784905,39.67821133784905 0 0,0 -0.44081630549685347,-0.5192804994584584 l 14.342633253273407 -11.96513477330902" fill="#ffe015" stroke="none" /><path d="M 83.8745106332314 113.45245675266167 l -11.782084866344348 9.829034239873648 a36.343644869663436,36.343644869663436 0 0,0 -0.39554550644872516,-0.48250120306773125 l 11.949077192031703 -9.625330755107422" fill="#ffb510" stroke="none" /><path d="M 83.64595745247003 113.17365903436017 l -11.829628195725986 9.52911109903433 a36.190262064456114,36.190262064456114 0 0,0 -0.38557030989038343,-0.4871554909582315 l 11.991464936257932 -9.324635664161418" fill="#ffb310" stroke="none" /><path d="M 83.4222238831116 112.89097897827486 l -15.999086897196214 12.440986740871752 a41.26694186675884,41.26694186675884 0 0,0 -0.430056601341687,-0.562957896158627 l 16.210295475892195 -12.164507931472254" fill="#fff417" stroke="none" /><path d="M 83.20337586046588 112.60449989151573 l -2.5694948241745847 1.9281968188077283 a24.21251406588675,24.21251406588675 0 0,0 -0.2466194218805369,-0.33458661041232574 l 2.602216265638952 -1.883803899126523" fill="#ff0a01" stroke="none" /><path d="M 82.98947788004972 112.3143062007846 l -16.641855503966138 12.047420001570805 a41.544869999811056,41.544869999811056 0 0,0 -0.41324267030933937,-0.5812775675875054 l 16.84621327280544 -11.759965207273796" fill="#fff817" stroke="none" /><path d="M 82.78059297857968 112.02048342749411 l -17.66242538339685 12.329744650693607 a42.54028490005109,42.54028490005109 0 0,0 -0.4128641267347842,-0.6023810994999619 l 17.87147924694696 -12.024728816123595" fill="#faff18" stroke="none" /><path d="M 82.576782715395 111.72311816256416 l -16.06587801525976 10.809839726021751 a40.36401485496964,40.36401485496964 0 0,0 -0.3818734904153912,-0.5782051361617102 l 16.249075944595877 -10.53245471152098" fill="#ffe915" stroke="none" /><path d="M 82.37810715431573 111.42229804090323 l -13.018633437581292 8.438520907573237 a36.51429829833307,36.51429829833307 0 0,0 -0.3364224154010629,-0.5289119152884171 l 13.161573544608244 -8.213795317606149" fill="#ffb711" stroke="none" /><path d="M 82.18462484594161 111.11811171558189 l -15.144863678263873 9.451515044511337 a38.85211563008207,38.85211563008207 0 0,0 -0.34824822906020647,-0.5688373102993908 l 15.304879871779484 -9.190140618087389" fill="#ffd614" stroke="none" /><path d="M 81.99639281039703 110.81064883170644 l -13.21283162127191 7.933925753086107 a36.41188169262812,36.41188169262812 0 0,0 -0.3171757345345815,-0.5386337384784801 l 13.347081065936262 -7.705940846314068" fill="#ffb610" stroke="none" /><line stroke="#e1ed5e" stroke-width="0.3" x1="26.387840678322732" x2="22.057713659400548" y1="142.50000000000003" y2="145.00000000000006" /><path d="M 25.521815274538298 143.00000000000003 a86.0,86.0 0 0,1 -11.493303480769221,-40.785679425670985" fill="none" id="id81" stroke="none" /><text fill="#e1ed5e" style="font-size:6.75px; font-family:Arial;" text-anchor="middle"><textPath startOffset="21.40746469413373" xlink:href="#id81">September</textPath></text><path d="M 81.81346652052679 110.50000000000001 l -13.34694005820373 7.705859435461733 a36.41171887092345,36.41171887092345 0 0,0 -0.307881256842736,-0.5439966802288709 l 13.477254680067844 -7.47560598513374" fill="#ffb610" stroke="none" /><path d="M 81.63589988554817 110.18625677009913 l -13.182548159038529 7.312137245782618 a36.074711508567304,36.074711508567304 0 0,0 -0.2957347308326309,-0.5441185954351135 l 13.30612823948649 -7.084763816872918" fill="#ffb110" stroke="none" /><path d="M 81.4637452351635 109.86951160357371 l -15.897290656462138 8.464411856108898 a39.010278129053845,39.010278129053845 0 0,0 -0.3096523138645852,-0.593799141023348 l 16.040251039301673 -8.190266471981047" fill="#ffd814" stroke="none" /><path d="M 81.29705330413844 109.54985784667822 l -16.35475107191861 8.35085242953671 a39.36340433918292,39.36340433918292 0 0,0 -0.3021236632224282,-0.6044497110634284 l 16.495694648352778 -8.068870862309529" fill="#ffdc14" stroke="none" /><path d="M 81.1358732173502 109.22738970284198 l -16.171417160981786 7.91025049348426 a39.002410834778885,39.002410834778885 0 0,0 -0.28902781502193614,-0.6039569710852666 l 16.304824233963636 -7.631481020333889" fill="#ffd814" stroke="none" /><path d="M 80.9802524753101 108.90220220490708 l -14.017112296738237 6.560716320364916 a36.47651239057666,36.47651239057666 0 0,0 -0.2605735012615969,-0.5694001262863546 l 14.12767026285489 -6.319127211863873" fill="#ffb710" stroke="none" /><path d="M 80.83023694016515 108.57439118712176 l -4.406796289617438 1.9711039281599867 a25.8275360416877,25.8275360416877 0 0,0 -0.17755338644787133,-0.4062768951809889 l 4.439983558082278 -1.8951649632031484" fill="#ff2203" stroke="none" /><path d="M 80.68587082218212 108.24405325689762 l -14.288492116491321 6.098907638269445 a36.53569056537803,36.53569056537803 0 0,0 -0.24126457302048057,-0.5789471459652715 l 14.391082534048287 -5.852727982862892" fill="#ffb711" stroke="none" /><path d="M 80.5471966667186 107.91128576633889 l -14.145905002112194 5.753016415054381 a36.27101261215732,36.27101261215732 0 0,0 -0.22961507033240983,-0.5787799729032315 l 14.242578747410729 -5.509335424937585" fill="#ffb410" stroke="none" /><path d="M 80.41425534168474 107.57618678355246 l -16.771194745915775 6.487458414017802 a38.98221593350061,38.98221593350061 0 0,0 -0.23606389255529867,-0.6261875210805222 l 16.88008932228551 -6.1986026127431355" fill="#ffd714" stroke="none" /><path d="M 80.28708602549918 107.23885506374661 l -4.253778513680647 1.5620463911953635 a25.531514158832298,25.531514158832298 0 0,0 -0.14754762937316873,-0.41271697940900604 l 4.279966313097758 -1.488794455405436" fill="#ff1e03" stroke="none" /><path d="M 80.16572619554312 106.89939002012753 l -14.549676615182353 5.061132795913865 a36.404809469261835,36.404809469261835 0 0,0 -0.20025172469428912,-0.5920086416590524 l 14.634413761449009 -4.810622479780651" fill="#ffb610" stroke="none" /><path d="M 79.94057633289273 106.21446072829308 l -4.246029280133032 1.3154307247539416 a25.445123467281164,25.445123467281164 0 0,0 -0.12567913542801926,-0.41834496691635303 l 4.267984735564681 -1.242348154246865" fill="#ff1d02" stroke="none" /><path d="M 79.73907114497094 105.5222062557868 l -14.679839001776308 4.001055398278577 a36.21532508420924,36.21532508420924 0 0,0 -0.15833084756222102,-0.601208017372953 l 14.74635933014326 -3.748466876532821" fill="#ffb310" stroke="none" /><path d="M 79.64726062577567 105.17358676015961 l -19.675240847219246 5.001369283932294 a41.30095557136033,41.30095557136033 0 0,0 -0.16876843594376653,-0.6886328110205466 l 19.758196809679305 -4.6628806483036485" fill="#fff517" stroke="none" /><path d="M 79.56144815229197 104.8234425847677 l -17.27041344463671 4.0757705480365 a38.744832659366786,38.744832659366786 0 0,0 -0.1472103246182507,-0.6486358523957739 l 17.337834630812626 -3.7787003617017" fill="#ffd413" stroke="none" /><path d="M 79.48165901384964 104.47187691870673 l -14.914823214824997 3.2506163010931077 a36.26494211801718,36.26494211801718 0 0,0 -0.12734570707640108,-0.6093953080254827 l 14.968426632725764 -2.994104541782216" fill="#ffb410" stroke="none" /><path d="M 79.34024301695615 103.76489593502545 l -28.248228667462087 5.147768261218362 a49.71344529868253,49.71344529868253 0 0,0 -0.14579102865758045,-0.8408839108387163 l 28.3324345136119 -4.662091317459052" fill="#a4ff21" stroke="none" /><path d="M 79.2786578344484 103.40968896794605 l -19.325587258982196 3.1800180292170834 a40.58547516836599,40.58547516836599 0 0,0 -0.10722007634287337,-0.6884298046142685 l 19.377328827463337 -2.847800042671365" fill="#ffec16" stroke="none" /><path d="M 79.22317932658666 103.0534771498775 l -15.028706529882644 2.2087023179601966 a36.190141075404796,36.190141075404796 0 0,0 -0.0850562813672221,-0.6154248812340657 l 15.064407327805078 -1.9503891285260453" fill="#ffb310" stroke="none" /><path d="M 79.17382384314188 102.69636545807758 l -18.248258035755576 2.3626023455820513 a39.40056551258324,39.40056551258324 0 0,0 -0.08108620198301836,-0.6715100728451139 l 18.286126323998257 -2.048998595813538" fill="#ffdd14" stroke="none" /><path d="M 79.13060592940153 102.33845913500099 l -18.86174986687749 2.11349841442897 a39.97979145271219,39.97979145271219 0 0,0 -0.07056929610637987,-0.6826939245244812 l 18.895251555465535 -1.7893999676215577" fill="#ffe415" stroke="none" /><path d="M 79.06263194458094 101.62068470465958 l -17.85656416718696 1.3822109993448706 a38.90998020946911,38.90998020946911 0 0,0 -0.04583232292990181,-0.666391916588568 l 17.877660451281926 -1.0754756586019592" fill="#ffd614" stroke="none" /><path d="M 79.01933749520258 100.90099992219065 l -8.940689159734683 0.3839516619367836 a29.948929630391632,29.948929630391632 0 0,0 -0.01764892277549837,-0.5138291299447673 l 8.94596276950703 -0.23041626742789637" fill="#ff5e08" stroke="none" /><line stroke="#e1ed5e" stroke-width="0.3" x1="15.003131293944662" x2="10.003315487706104" y1="100.72959589197737" y2="100.7725132973878" /><path d="M 14.003168132696942 100.73817937305945 a86.0,86.0 0 0,1 10.791469493833604,-42.45332614584628" fill="none" id="id82" stroke="none" /><text fill="#e1ed5e" style="font-size:6.75px; font-family:Arial;" text-anchor="middle"><textPath startOffset="22.145653131862435" xlink:href="#id82">October</textPath></text><path d="M 79.00077361379809 100.18025310272382 l -3.2987053288492683 0.02831541789022204 a24.298826853514573,24.298826853514573 0 0,0 0.0,-0.417137041228078 l 3.2987053288492683 0.028315417890220827" fill="#ff0c01" stroke="none" /><path d="M 79.00077361379809 99.81974689727619 l -2.8506227277751695 -0.024469167669630126 a23.850727745028415,23.850727745028415 0 0,0 0.0070286600034143954,-0.4093842081941896 l 2.849782636173089 0.07340029183287208" fill="#ff0500" stroke="none" /><path d="M 79.00696218219943 99.45929381324524 l -10.097711441464437 -0.2600812276837116 a31.101060271084183,31.101060271084183 0 0,0 0.01832787407545169,-0.5335960562421327 l 10.091758880392135 0.43338354848998284" fill="#ff6e0a" stroke="none" /><path d="M 79.01933749520258 99.09900007780938 l -24.15415004506698 -1.0372831318462745 a45.17641248604147,45.17641248604147 0 0,0 0.03992392427596569,-0.7745134651915918 l 24.132784531334444 1.4517683904145784" fill="#daff1c" stroke="none" /><path d="M 79.03789590574601 98.7389718711861 l -22.291298620447193 -1.3409891708285127 a43.33159748298877,43.33159748298877 0 0,0 0.05104057514852552,-0.7421187607930863 l 22.264994084133605 1.723451355775924" fill="#f0ff19" stroke="none" /><path d="M 79.06263194458094 98.37931529534042 l -8.790817128571113 -0.6804648427645721 a29.817113937690603,29.817113937690603 0 0,0 0.04388280825822133,-0.5099847502104622 l 8.777840697615149 0.8312706403507149" fill="#ff5c08" stroke="none" /><path d="M 79.0935383218832 98.0201363427161 l -26.232556694685496 -2.4842503928730686 a47.349924682138635,47.349924682138635 0 0,0 0.08357849638763323,-0.8085461362504573 l 26.1860458058162 2.9342010514064385" fill="#c0ff1e" stroke="none" /><path d="M 79.13060592940154 97.66154086499901 l -20.38979026599828 -2.2847185283377356 a41.51739471387944,41.51739471387944 0 0,0 0.0854426277841783,-0.707587527893474 l 20.347565551954435 2.634399733154646" fill="#fff817" stroke="none" /><path d="M 79.17382384314186 97.30363454192245 l -14.96905123106554 -1.938043372707528 a36.09398909741094,36.09398909741094 0 0,0 0.08483029911208444,-0.613789786208798 l 14.933576415398248 2.194721467116393" fill="#ffb210" stroke="none" /><path d="M 79.407916724674 95.88100663000787 l -23.609034547250268 -4.722468119025199 a45.076715253299525,45.076715253299525 0 0,0 0.1582885795855471,-0.7574681544276889 l 23.524488256840353 5.127052724738297" fill="#dbff1b" stroke="none" /><path d="M 79.48165901384962 95.52812308129327 l -2.4627399938905894 -0.5367427192524459 a23.520551730113613,23.520551730113613 0 0,0 0.08936593134448637,-0.3937627826247336 l 2.4531632009884414 0.5789398358161877" fill="#ff0000" stroke="none" /><path d="M 79.56144815229197 95.17655741523228 l -14.987147414661058 -3.536925981973328 a36.39884518497214,36.39884518497214 0 0,0 0.1487369017748947,-0.6068973158337551 l 14.924222986369866 3.7936791224152007" fill="#ffb610" stroke="none" /><path d="M 79.64726062577567 94.8264132398404 l -14.679102139110418 -3.731370361579466 a36.14592897070727,36.14592897070727 0 0,0 0.15802745264743542,-0.6000559774640534 l 14.612885205658257 3.982806843416304" fill="#ffb210" stroke="none" /><path d="M 79.83685265289637 94.1308016681162 l -14.496976083917206 -4.219858456835036 a36.09865957538581,36.09865957538581 0 0,0 0.1782993244807251,-0.5935004624838277 l 14.42240043943285 4.468096522909587" fill="#ffb210" stroke="none" /><path d="M 79.94057633289273 93.78553927170692 l -14.604174390953471 -4.52441055774419 a36.28895681648713,36.28895681648713 0 0,0 0.18945476641535272,-0.5934643574198826 l 14.524354908760861 4.774443948855464" fill="#ffb410" stroke="none" /><path d="M 80.05021161711548 93.44210830539832 l -22.382909896734276 -7.357707064138195 a44.56120770858307,44.56120770858307 0 0,0 0.2451175772706311,-0.724646562661438 l 22.25330689789128 7.740855301273794" fill="#e1ff1b" stroke="none" /><path d="M 80.16572619554312 93.10060997987247 l -12.03491575458784 -4.186368428150904 a33.74224775446802,33.74224775446802 0 0,0 0.194997783324637,-0.5454435050369638 l 11.961277801219259 4.392346889568789" fill="#ff920d" stroke="none" /><path d="M 80.28708602549916 92.7611449362534 l -17.583479421529255 -6.456897200153499 a39.73153143821116,39.73153143821116 0 0,0 0.24060150876202632,-0.6382240871701033 l 17.470047228952794 6.757789567517747" fill="#ffe115" stroke="none" /><path d="M 80.41425534168474 92.42381321644754 l -14.08554428111532 -5.448591119889959 a36.102638937848056,36.102638937848056 0 0,0 0.22854917417223133,-0.5760932182846753 l 13.989936431976957 5.689585355388218" fill="#ffb210" stroke="none" /><path d="M 80.5471966667186 92.08871423366112 l -14.289630242294304 -5.811468219014718 a36.42616917196587,36.42616917196587 0 0,0 0.2405413450806537,-0.5772116621915752 l 14.187763052677171 6.055912390647557" fill="#ffb610" stroke="none" /><path d="M 80.68587082218212 91.75594674310238 l -13.931895518311308 -5.946697755050843 a36.14796774894472,36.14796774894472 0 0,0 0.24850198937574536,-0.5686211832378627 l 13.827759646918585 6.184981008064572" fill="#ffb210" stroke="none" /><path d="M 80.83023694016515 91.42560881287825 l -17.46561810149326 -7.812148823104334 a40.133151462880846,40.133151462880846 0 0,0 0.2866950568455968,-0.6264804394276058 l 17.328938579792617 8.11081824474661" fill="#ffe615" stroke="none" /><path d="M 80.9802524753101 91.09779779509293 l -26.278165375198732 -12.29950825794786 a50.01413239911925,50.01413239911925 0 0,0 0.37063030459249974,-0.7744747893454784 l 26.06315581264633 12.748795549358425" fill="#a1ff22" stroke="none" /><path d="M 81.1358732173502 90.77261029715801 l -14.80077845834613 -7.239802420443892 a37.47658283929371,37.47658283929371 0 0,0 0.2876418511697441,-0.5754763859767497 l 14.674316693964641 7.492810662584413" fill="#ffc412" stroke="none" /><path d="M 81.29705330413844 90.45014215332179 l -19.357894931287174 -9.884279082377475 a42.735387485597734,42.735387485597734 0 0,0 0.3392211553846892,-0.6505012934360394 l 19.185365706927545 10.215126618918001" fill="#f7ff18" stroke="none" /><path d="M 81.46374523516351 90.13048839642627 l -22.806820812515742 -12.143347483373697 a46.838188088102456,46.838188088102456 0 0,0 0.38397199499798707,-0.7064652231291952 l 22.595003467902405 12.533067539977512" fill="#c6ff1e" stroke="none" /><path d="M 81.63589988554816 89.8137432299009 l -21.559014646692088 -11.958422004501701 a45.653498116373555,45.653498116373555 0 0,0 0.3860256207394153,-0.682070283585974 l 21.350555660931306 12.326749058186781" fill="#d4ff1c" stroke="none" /><line stroke="#e1ed5e" stroke-width="0.3" x1="26.387840678322718" x2="22.05771365940052" y1="57.49999999999999" y2="54.99999999999999" /><path d="M 25.521815274538284 56.99999999999999 a86.0,86.0 0 0,1 29.574782752854787,-30.34633250058573" fill="none" id="id83" stroke="none" /><text fill="#e1ed5e" style="font-size:6.75px; font-family:Arial;" text-anchor="middle"><textPath startOffset="21.40746469413373" xlink:href="#id83">November</textPath></text><path d="M 81.81346652052679 89.5 l -24.627865103414493 -14.218904547022152 a49.4378090940443,49.4378090940443 0 0,0 0.4306416665183703,-0.7313236970090592 l 24.380149726766344 14.639579412324784" fill="#a8ff21" stroke="none" /><path d="M 81.99639281039701 89.18935116829357 l -26.185920330693573 -15.723892775979449 a51.54411936193168,51.54411936193168 0 0,0 0.4620121194214566,-0.7546620755162043 l 25.912140246816723 16.171091967620196" fill="#90ff24" stroke="none" /><path d="M 82.18462484594161 88.88188828441811 l -19.953449289819343 -12.4524281075761 a44.52027007361402,44.52027007361402 0 0,0 0.41018498206103104,-0.6448789217145591 l 19.73674661613242 12.79312070396933" fill="#e1ff1b" stroke="none" /><path d="M 82.37810715431573 88.57770195909679 l -2.523268107540907 -1.635551902047609 a24.00697721421773,24.00697721421773 0 0,0 0.2271237937072372,-0.34389437172820797 l 2.494819874912941 1.678626152114878" fill="#ff0701" stroke="none" /><path d="M 82.576782715395 88.27688183743585 l -19.377764043576935 -13.038224450650846 a44.35579234695523,44.35579234695523 0 0,0 0.43048408152372647,-0.6280891401157557 l 19.151090225237894 13.368948325836636" fill="#e3ff1b" stroke="none" /><path d="M 82.78059297857968 87.97951657250589 l -17.12464712067137 -11.95433365734659 a41.88443516590017,41.88443516590017 0 0,0 0.4166202910836581,-0.5860286141976229 l 16.916911731057738 12.246539498253734" fill="#fffc17" stroke="none" /><path d="M 82.98947788004972 87.6856937992154 l -16.547792023471203 -11.979325295661228 a41.428745810531936,41.428745810531936 0 0,0 0.4219773838118148,-0.5724933642438276 l 16.33971262007557 12.26162496917392" fill="#fff617" stroke="none" /><path d="M 83.2033758604659 87.39550010848427 l -12.294306525494523 -9.225876817837468 a36.37097186259633,36.37097186259633 0 0,0 0.3790340606586359,-0.4961677525589566 l 12.134120487481582 9.435565483637308" fill="#ffb510" stroke="none" /><path d="M 83.64595745247003 86.82634096563983 l -20.88290308101998 -16.82178849892358 a47.81544721599458,47.81544721599458 0 0,0 0.5203986928925219,-0.634801789685021 l 20.59105756888883 17.177792570307098" fill="#baff1f" stroke="none" /><path d="M 83.8745106332314 86.54754324733833 l -13.937692505545396 -11.627318799337539 a39.15086264728386,39.15086264728386 0 0,0 0.4349575761427413,-0.5123789310108805 l 13.73604036589554 11.864864512797975" fill="#ffda14" stroke="none" /><path d="M 84.34580500576568 86.00192230759919 l -17.17290042476097 -15.356113453180166 a44.03733338270071,44.03733338270071 0 0,0 0.5087408727350687,-0.5591953374193649 l 16.90676185118404 15.648646366157188" fill="#e7ff1a" stroke="none" /><path d="M 84.58840730492382 85.73525988315684 l -13.885980351386719 -12.852656107594006 a39.92118440635183,39.92118440635183 0 0,0 0.469823230303256,-0.4989359893608118 l 13.663301287347192 13.08913355689933" fill="#ffe315" stroke="none" /><path d="M 84.83555147118756 85.47280134310135 l -18.394193734833514 -17.621221504474526 a46.472609023504916,46.472609023504916 0 0,0 0.5568153245367692,-0.5713415757274953 l 18.088991609145943 17.93438577226975" fill="#caff1d" stroke="none" /><path d="M 85.08716467003674 85.21462403516908 l -3.40016126808096 -3.371100235286855 a25.788049022859834,25.788049022859834 0 0,0 0.3143785197112563,-0.311691539962131 l 3.341790828239727 3.4289717854776596" fill="#ff2203" stroke="none" /><path d="M 85.34317274990677 84.96080404539775 l -38.123820799722836 -39.11839866581805 a75.62302469240655,75.62302469240655 0 0,0 0.9374644775962476,-0.8980697632327933 l 37.446683836261286 39.767080559356415" fill="#42ffda" stroke="none" /><path d="M 86.13680546590413 84.22622945171909 l -14.075346771740847 -16.015160850471776 a42.32136871336452,42.32136871336452 0 0,0 0.5498160871204005,-0.4749180409251794 l 13.798351204857598 16.25442302386167" fill="#fcff18" stroke="none" /><path d="M 86.40962598614128 83.9905735841838 l -5.964736588688106 -7.026444703357775 a30.216778598934617,30.216778598934617 0 0,0 0.398322850244393,-0.3322950885169594 l 5.843239404281804 7.127801975786617" fill="#ff6109" stroke="none" /><path d="M 86.68645165197937 83.75963576809568 l -13.93002889284112 -16.99237025825086 a42.972399776739834,42.972399776739834 0 0,0 0.574498482538387,-0.462775310919137 l 13.636279639947487 17.228993862963396" fill="#f4ff19" stroke="none" /><path d="M 86.96720088162412 83.53348406188908 l -25.590137859910712 -32.33230322214826 a62.23388154586195,62.23388154586195 0 0,0 0.8433877997476418,-0.655823454269269 l 25.031340115527826 32.766827728038336" fill="#31ff42" stroke="none" /><path d="M 87.25179093698888 83.31218511350988 l -9.434714270567868 -12.350343838570122 a36.541712463501696,36.541712463501696 0 0,0 0.5017473128063534,-0.376520537537699 l 9.221313968850762 12.510483403371822" fill="#ffb811" stroke="none" /><path d="M 87.54013794807813 83.09580414077388 l -9.303854541265975 -12.622465542228984 a36.68082732797583,36.68082732797583 0 0,0 0.5100713397601166,-0.3692523144062552 l 9.08580219113189 12.780318628008319" fill="#ffb911" stroke="none" /><path d="M 87.83215693770416 82.88440491214696 l -2.089664922862721 -2.939375409914239 a24.60647019816487,24.60647019816487 0 0,0 0.3463711133078088,-0.24179393762514156 l 2.0388987183811467 2.9748141633445075" fill="#ff1001" stroke="none" /><path d="M 88.12776184653039 82.6780497279521 l -13.05937272242932 -19.054015086106542 a44.09984213809494,44.09984213809494 0 0,0 0.6281155465638572,-0.42262417163436306 l 12.730360887768473 19.275388931798016" fill="#e7ff1a" stroke="none" /><path d="M 88.4268655584334 82.4767994020092 l -14.424196572304075 -21.84007204595482 a47.173387127556985,47.173387127556985 0 0,0 0.67955368481845,-0.4404784883646212 l 14.047157255228598 22.084464376023348" fill="#c2ff1e" stroke="none" /><path d="M 88.72937992617638 82.28071324371311 l -12.427565977628692 -19.53819788067534 a44.15568121547584,44.15568121547584 0 0,0 0.6430662492104473,-0.4013209004814739 l 12.090335599628547 19.74865457799835" fill="#e6ff1a" stroke="none" /><line stroke="#e1ed5e" stroke-width="0.3" x1="56.869717070023135" x2="54.33264160355391" y1="26.7553504044142" y2="22.446841604673864" /><path d="M 56.362301976729285 25.89364864446614 a86.0,86.0 0 0,1 42.16139366436587,-11.88097634709845" fill="none" id="id84" stroke="none" /><text fill="#e1ed5e" style="font-size:6.75px; font-family:Arial;" text-anchor="middle"><textPath startOffset="22.145653131862474" xlink:href="#id84">December</textPath></text><path d="M 89.34428304082924 81.90426304109057 l -23.02471491583774 -39.10099961056985 a66.37648804724077,66.37648804724077 0 0,0 0.9868209297772722,-0.5697413294488618 l 22.350101518200066 39.490487837294886" fill="#37ff74" stroke="none" /><path d="M 89.65649057296885 81.72400993836675 l -7.592546223751672 -13.415301673641403 a36.41483302389655,36.41483302389655 0 0,0 0.5466660832432605,-0.30322646123226593 l 7.361135952352309 13.543661050306815" fill="#ffb610" stroke="none" /><path d="M 90.93487009805054 81.0573650232925 l -10.741879957864768 -22.44639770266106 a45.8843074015574,45.8843074015574 0 0,0 0.7134163915617583,-0.33391489375626826 l 10.354974852431488 22.62748882798787" fill="#d1ff1c" stroke="none" /><path d="M 91.26138138417902 80.90454125486306 l -2.9294880267172285 -6.401460026791205 a28.039928307396693,28.039928307396693 0 0,0 0.4394078376596946,-0.19654153674312547 l 2.819166786201915 6.450805314444176" fill="#ff4206" stroke="none" /><path d="M 91.5904679813234 80.7573450057729 l -19.966520635721828 -45.68730663906478 a70.85972256469783,70.85972256469783 0 0,0 1.1187904088384828,-0.4775450981431573 l 19.179295151712914 46.02332638686734" fill="#3cffa7" stroke="none" /><path d="M 91.92203290615298 80.6158196554323 l -1.7657356491786018 -4.237122764535799 a25.590319346682502,25.590319346682502 0 0,0 0.40694157059697966,-0.16549959407071374 l 1.6927396173911813 4.266809615185805" fill="#ff1f03" stroke="none" /><path d="M 92.25597844496254 80.48000691201159 l -10.25042434017438 -25.837765410014267 a48.796786154815976,48.796786154815976 0 0,0 0.7812777622105165,-0.30221502218092755 l 9.805374315470335 26.009920320333237" fill="#afff20" stroke="none" /><path d="M 92.592206182469 80.34994680014964 l -7.392758035928713 -19.610169002791988 a41.95737578266545,41.95737578266545 0 0,0 0.6761348158561143,-0.24828606982542137 l 7.055034068418472 19.734185921626132" fill="#fffd17" stroke="none" /><path d="M 92.93061703081487 80.22567764915836 l -1.5267245594388381 -4.2705203142743615 a25.53522123330535,25.53522123330535 0 0,0 0.4140283542616342,-0.14402055369431502 l 1.4531904331321994 4.296099300537262" fill="#ff1e03" stroke="none" /><path d="M 93.27111125876988 80.10723608172694 l -2.8406640631833153 -8.397918549875959 a29.86534874047332,29.86534874047332 0 0,0 0.4870572798015329,-0.16010540205759874 l 2.6960840457340214 8.445444873335585" fill="#ff5c08" stroke="none" /><path d="M 93.61358852112211 79.99465700312896 l -1.4160557479527842 -4.435774461789553 a25.65631924991989,25.65631924991989 0 0,0 0.42071399332124687,-0.13033827056683756 l 1.339701121759921 4.459429320163032" fill="#ff2003" stroke="none" /><path d="M 93.95794788825049 79.88797359093562 l -16.176469875086173 -53.84620710246792 a77.22359110677152,77.22359110677152 0 0,0 1.2728653747402097,-0.37051255964814395 l 15.249744487964339 54.11596335641859" fill="#44ffea" stroke="none" /><path d="M 94.30408787586887 79.78721728523814 l -1.231573693331906 -4.370420560926737 a25.540633176273808,25.540633176273808 0 0,0 0.4230241547910881,-0.11529711449316896 l 1.1563681376061403 4.3909181695640465" fill="#ff1e03" stroke="none" /><path d="M 94.6519064749342 79.69241777938228 l -1.8920012024257675 -7.184236737762752 a28.429194172600454,28.429194172600454 0 0,0 0.4730004743702155,-0.12023487093094291 l 1.768395434830174 7.215656840528958" fill="#ff4806" stroke="none" /><path d="M 95.00130118170881 79.60360301121753 l -5.813315883933421 -23.720312605358068 a45.42228227791787,45.42228227791787 0 0,0 0.7589151597652897,-0.17910191128576225 l 5.405268570428226 23.81661066029006" fill="#d7ff1c" stroke="none" /><path d="M 95.35216902796891 79.52079915486377 l -6.3319325244309725 -27.899663022600322 a49.60916926911018,49.60916926911018 0 0,0 0.8321054236611651,-0.18135350418987375 l 5.852064684150689 28.004247984923907" fill="#a6ff21" stroke="none" /><path d="M 95.70440661134978 79.44403061299748 l -5.316098894361749 -25.439457658983862 a46.988976767811906,46.988976767811906 0 0,0 0.7909889727964188,-0.15821994749745458 l 4.878613436034354 25.526967003144183" fill="#c4ff1e" stroke="none" /><path d="M 96.05791012581881 79.37332000966035 l -7.010532764030617 -36.68206979057945 a58.34597453215658,58.34597453215658 0 0,0 0.9853947906510302,-0.1795717560841699 l 6.379803239828549 36.79700972059498" fill="#47ff2c" stroke="none" /><path d="M 96.41257539226777 79.30868818359171 l -7.605961172519799 -43.86916283756746 a65.52363522250725,65.52363522250725 0 0,0 1.109915768113805,-0.18263621727064366 l 6.851767901352922 43.99326505333377" fill="#35ff6a" stroke="none" /><path d="M 96.76829788921471 79.25015418208739 l -1.0418775573412542 -6.689601310660748 a27.770249222893156,27.770249222893156 0 0,0 0.4716643194677946,-0.06931841230888282 l 0.9268881322657748 6.706500796268516" fill="#ff3e05" stroke="none" /><path d="M 97.12497278360702 79.19773525538626 l -4.936324062376496 -35.71678188827515 a57.056286604466315,57.056286604466315 0 0,0 0.9713756124596147,-0.12576402065016895 l 4.322470628026087 35.796257505125716" fill="#54ff2b" stroke="none" /><path d="M 97.48249496171623 79.15144685158666 l -1.8415480464670166 -15.25065957695079 a36.36144253445904,36.36144253445904 0 0,0 0.6203333060048721,-0.06950964082930192 l 1.5794788388613452 15.280024978287061" fill="#ffb510" stroke="none" /><path d="M 98.1996594967304 79.07731436759882 l -1.6848880270432582 -19.58095285397458 a40.653309195482805,40.653309195482805 0 0,0 0.6958123709450615,-0.053860278136135746 l 1.3485066613229795 19.60699089910577" fill="#ffed16" stroke="none" /><path d="M 98.5590905019552 79.04949213459386 l -0.6247376189058831 -9.083547867831303 a30.105006258079058,30.105006258079058 0 0,0 0.51587888243127,-0.031033992526791385 l 0.46871438434212936 9.09293383818279" fill="#ff6008" stroke="none" /><path d="M 98.9189461498227 79.02784411241856 l -1.4629838373980955 -28.381495606248574 a49.41917688033901,49.41917688033901 0 0,0 0.8475959259337923,-0.036399416040405586 l 0.9755621508634831 28.402427590714808" fill="#a8ff21" stroke="none" /><path d="M 99.27912038922189 79.0123766808444 l -0.6743838309100326 -19.633949419642285 a40.64552782096894,40.64552782096894 0 0,0 0.6975289080592558,-0.017965870366230433 l 0.3372416087800329 19.642633007358558" fill="#ffed16" stroke="none" /><path d="M 99.63950707515114 79.00309439819443 l -0.1553472659440608 -9.048199433854624 a30.04953290329636,30.04953290329636 0 0,0 0.5158401907929107,-0.004427867636170128 l 2.2164963007601084e-15 9.04953290329636" fill="#ff5f08" stroke="none" /></svg>