<?xml version="1.0" encoding="utf-8" ?>
<svg baseProfile="full" height="200mm" version="1.1" viewBox="0,0,200,200" width="200mm" xmlns="http://www.w3.org/2000/svg" xmlns:ev="http://www.w3.org/2001/xml-events" xmlns:xlink="http://www.w3.org/1999/xlink"><defs /><rect fill="#1a1a1a" height="200" width="200" x="0" y="0" /><text alignment-baseline="middle" fill="#e1ed5e" style="dominant-baseline: central; font-size:9.0px; font-family:Arial;" text-anchor="middle" x="100.0" y="100.0">2019</text><line stroke="#e1ed5e" stroke-width="0.3" x1="100.0" x2="100.0" y1="15.0" y2="10.0" /><path d="M 100.0 14.0 a86.0,86.0 0 0,1 42.46469731375804,11.215312516191453" fill="none" id="id85" stroke="none" /><text fill="#e1ed5e" style="font-size:6.75px; font-family:Arial;" text-anchor="middle"><textPath startOffset="22.20632615414155" xlink:href="#id85">January</textPath></text><path d="M 100.0 79.0 l 0.0 -7.6375278294376585 a28.63752782943766,28.63752782943766 0 0,0 0.4929479659507378,0.004242958772165046 l -0.13146748667820943 7.636396247274052" fill="#ff5608" stroke="none" /><path d="M 100.72285384407766 79.0124445844662 l 0.09936024250067567 -2.8848550957692187 a23.886565672451507,23.886565672451507 0 0,0 0.4108024845400073,0.017690019130273685 l -0.1490035594300145 2.88271735011475" fill="#ff1202" stroke="none" /><path d="M 101.80526077348638 79.07773832637324 l 1.7097755460272115 -19.815625477788828 a40.88925200940916,40.88925200940916 0 0,0 0.7007149700124333,0.06654132964777205 l -2.050615643129889 19.783258603625878" fill="#fff717" stroke="none" /><path d="M 102.16513564639614 79.11191278185805 l 0.2558651591256469 -2.4684521585500914 a23.481677464680896,23.481677464680896 0 0,0 0.4016857334647007,0.0451340724653678 l -0.29831759610007286 2.463682132614123" fill="#ff0c01" stroke="none" /><path d="M 102.88285421437855 79.19881850522331 l 0.3946848830979431 -2.8478415056915365 a23.875061286039912,23.875061286039912 0 0,0 0.40659345285975157,0.05992130575091493 l -0.4436473163863504 2.8406257157796526" fill="#ff1202" stroke="none" /><path d="M 103.59715602781102 79.31037775812273 l 2.606599037366998 -14.992274174990897 a36.21718250793167,36.21718250793167 0 0,0 0.6132860380822466,0.11207410343382818 l -2.864280196552145 14.94518459020633" fill="#ffbc11" stroke="none" /><path d="M 103.95276090670814 79.375362276772 l 2.6384193984024744 -13.766692582301015 a35.01724229573878,35.01724229573878 0 0,0 0.591013662735159,0.11855178077680395 l -2.8749994706047586 13.719236845447002" fill="#ffac10" stroke="none" /><path d="M 104.307194497241 79.44645832069477 l 2.1981567781819162 -10.489404875249893 a31.717252813029248,31.717252813029248 0 0,0 0.5333894571801553,0.11657827593555416 l -2.378388959515599 10.450013101218468" fill="#ff800b" stroke="none" /><path d="M 105.36241919743992 79.69619591428918 l 3.113973632382771 -11.790482659422374 a33.194765808547324,33.194765808547324 0 0,0 0.5511945192459545,0.15066228360351044 l -3.3164660408524367 11.73513383499257" fill="#ff940d" stroke="none" /><path d="M 105.71112130821622 79.79150937346287 l 4.465527409634491 -15.801024690251031 a37.41990609924794,37.41990609924794 0 0,0 0.6183368318242776,0.1805094771218579 l -4.7368544591821955 15.72181688421047" fill="#ffcc13" stroke="none" /><path d="M 106.0581310904928 79.89281104454417 l 0.6979951843940693 -2.3166750360742276 a23.4195413822059,23.4195413822059 0 0,0 0.38498896426400575,0.11961794522707773 l -0.7377695213687933 2.3043169559646293" fill="#ff0b01" stroke="none" /><path d="M 107.08798089147638 80.2323363322302 l 5.3421383306264 -14.898684886906874 a36.82748411159825,36.82748411159825 0 0,0 0.5948825479992264,0.21910026284845632 l -5.597803204398203 14.804521356252094" fill="#ffc412" stroke="none" /><path d="M 107.4271985657038 80.35727306442388 l 4.213649527566185 -11.14384735240464 a32.91386487059739,32.91386487059739 0 0,0 0.528215550777018,0.2049394273805349 l -4.40484824334287 11.069665221133558" fill="#ff910d" stroke="none" /><path d="M 109.41281617654863 81.2277094730956 l 1.2082159642270078 -2.409585045995205 a23.69553072883555,23.69553072883555 0 0,0 0.36303754776291475,0.1859619324190205 l -1.2495139995786781 2.3884305882636836" fill="#ff0f01" stroke="none" /><line stroke="#e1ed5e" stroke-width="0.3" x1="143.23703022742887" x2="145.7803849466894" y1="26.81831364943548" y2="22.513508569990506" /><path d="M 143.74570117128098 25.957352633546492 a86.0,86.0 0 0,1 28.547481713284135,27.462654790039103" fill="none" id="id86" stroke="none" /><text fill="#e1ed5e" style="font-size:6.75px; font-family:Arial;" text-anchor="middle"><textPath startOffset="19.985693538727396" xlink:href="#id86">February</textPath></text><path d="M 110.68208982089419 81.91981866633111 l 7.751854523509578 -13.120553918497404 a36.23942858777367,36.23942858777367 0 0,0 0.5343381804462723,0.32193277496817096 l -7.976554770173487 12.985174534070618" fill="#ffbc11" stroke="none" /><path d="M 111.2981086023043 82.29822771554956 l 8.84306087925759 -13.855226170354166 a37.43675813370517,37.43675813370517 0 0,0 0.5402177220119628,0.3513726335301347 l -9.080245627053834 13.700954612664503" fill="#ffcc13" stroke="none" /><path d="M 112.19680574252982 82.90503203632743 l 9.081693713660052 -12.728846090378372 a36.63651762705729,36.63651762705729 0 0,0 0.5102152939295183,0.3706931094785482 l -9.299454323943358 12.57063374608315" fill="#ffc212" stroke="none" /><path d="M 112.48926042617603 83.11751280151076 l 9.134503258586987 -12.34765943421601 a36.35916154236682,36.35916154236682 0 0,0 0.49994513054660494,0.3765483073781796 l -9.345694542891975 12.188594537331984" fill="#ffbe11" stroke="none" /><path d="M 113.89432698308785 84.25364557470407 l 8.491524715331572 -9.623392190317922 a33.834160246769514,33.834160246769514 0 0,0 0.4333817785855974,0.3890944398596795 l -8.655917481513159 9.475798741688946" fill="#ff9d0e" stroke="none" /><path d="M 114.42810811169701 84.74124197986012 l 10.586917405827007 -11.196423649179387 a36.409176574032315,36.409176574032315 0 0,0 0.45167621827664883,0.4345121641195374 l -10.778076867716075 11.012528398297547" fill="#ffbf11" stroke="none" /><path d="M 114.68862486808459 84.99185889309783 l 10.851224040320815 -11.087266714367432 a36.5137534584238,36.5137534584238 0 0,0 0.44540554464594245,0.44349283168781684 l -11.04046538513408 10.898838032029497" fill="#ffc011" stroke="none" /><path d="M 115.19652480421416 85.50635884689758 l 8.92543275421 -8.512605424089644 a33.33400993011458,33.33400993011458 0 0,0 0.3924407878326386,0.41862847031723005 l -9.0706408640131 8.35770753689436" fill="#ff960d" stroke="none" /><path d="M 116.82858285166822 87.43820079747576 l 10.128119865829968 -7.5601973841214365 a33.63864694116804,33.63864694116804 0 0,0 0.3423731674181786,0.46699661559169114 l -10.256755645761773 7.384738324858252" fill="#ff9a0e" stroke="none" /><path d="M 117.04232023915458 87.72973835380427 l 7.977613277180821 -5.743783760046843 a30.830227132799607,30.830227132799607 0 0,0 0.30637520624739034,0.4333460018263888 l -8.075301103232094 5.605611257888661" fill="#ff740a" stroke="none" /><path d="M 117.65298651832404 88.62581576622439 l 10.723654919296893 -6.90947260311492 a33.75686428874103,33.75686428874103 0 0,0 0.3105187913264363,0.4911661566293872 l -10.841001306869286 6.723858798771326" fill="#ff9c0e" stroke="none" /><line stroke="#e1ed5e" stroke-width="0.3" x1="172.23445277983987" x2="176.4835382374775" y1="55.19839476539836" y2="52.563006222186495" /><path d="M 173.08426987136738 54.67131705675599 a86.0,86.0 0 0,1 12.851231095245387,41.99856678651699" fill="none" id="id87" stroke="none" /><text fill="#e1ed5e" style="font-size:6.75px; font-family:Arial;" text-anchor="middle"><textPath startOffset="22.20632615414155" xlink:href="#id87">March</textPath></text><path d="M 118.03404312379186 89.2402003453031 l 11.102210273059127 -6.6240031390873515 a33.92812788201984,33.92812788201984 0 0,0 0.29491673848553646,0.5041083047371437 l -11.214586686014991 6.431915421996313" fill="#ff9e0e" stroke="none" /><path d="M 118.21658344932153 89.55222093294921 l 13.329975897949117 -7.645157146966072 a36.366739577467655,36.366739577467655 0 0,0 0.3067661917741166,0.5457028252746201 l -13.459599731015667 7.414570811756659" fill="#ffbe11" stroke="none" /><path d="M 118.56541770881063 90.18545643968196 l 8.662446546060043 -4.57937226615083 a30.79839938537611,30.79839938537611 0 0,0 0.24373349769603714,0.4708155387345696 l -8.739989476916197 4.429584005155915" fill="#ff740a" stroke="none" /><path d="M 119.34039704204932 91.81776055985345 l 11.218290122594842 -4.74606264248522 a33.18093362107777,33.18093362107777 0 0,0 0.21801186897987468,0.5279330332810974 l -11.298323678460916 4.55225503875082" fill="#ff940d" stroke="none" /><path d="M 119.47837535516314 92.15188598940014 l 11.398134675247126 -4.5924703066059065 a33.288541719509595,33.288541719509595 0 0,0 0.20956952049291808,0.5333315708141524 l -11.475497745621745 4.39558973089597" fill="#ff960d" stroke="none" /><path d="M 120.08093135843002 93.85539295169968 l 12.076818708847481 -3.695411534200428 a33.629553299047046,33.629553299047046 0 0,0 0.16461522675760637,0.5550007100138569 l -12.138639832716791 3.486981437440041" fill="#ff9a0e" stroke="none" /><path d="M 120.18372546131832 94.20196356495316 l 12.252262046439565 -3.5196208892725522 a33.747770646620026,33.747770646620026 0 0,0 0.15558241249928484,0.5597127167155925 l -12.311031229505213 3.308196869138008" fill="#ff9c0e" stroke="none" /><path d="M 120.37134235888165 94.90015583598534 l 11.951545923752674 -2.9919983011639504 a33.32036946693309,33.32036946693309 0 0,0 0.13449878161841955,0.5575842817735852 l -12.001277505631911 2.785828787730959" fill="#ff960d" stroke="none" /><path d="M 120.45610955862082 95.25157060432595 l 7.427534399167691 -1.7241363797606666 a28.62501891845742,28.62501891845742 0 0,0 0.10728331719311726,0.480930074832241 l -7.456112103362846 1.5960281353784618" fill="#ff5607" stroke="none" /><path d="M 120.53481517161879 95.60439243477599 l 7.4813066781505935 -1.6014211940748306 a28.65078423780025,28.65078423780025 0 0,0 0.09907810113983632,0.4831400080292703 l -7.507764075205427 1.4724055298821486" fill="#ff5608" stroke="none" /><path d="M 120.83666639777658 97.38593545837742 l 9.078554977961193 -1.1389503581816647 a30.149719580744872,30.149719580744872 0 0,0 0.06016971926999052,0.5154974096769639 l -9.096815050234774 0.982509210179848" fill="#ff6b09" stroke="none" /><path d="M 120.87857604477298 97.74499172005257 l 12.113516016040634 -1.3083305517037924 a33.183964835118104,33.183964835118104 0 0,0 0.056448885960488915,0.5684325780683597 l -12.134242027683353 1.099622442930998" fill="#ff940d" stroke="none" /><path d="M 120.94382443527127 98.46500227214037 l 15.83502640608028 -1.1605678623334823 a36.87749914326375,36.87749914326375 0 0,0 0.040950546916956376,0.6334868356642313 l -15.852657544001652 0.8878219624162158" fill="#ffc512" stroke="none" /><line stroke="#e1ed5e" stroke-width="0.3" x1="184.98032266829074" x2="189.97916517819016" y1="98.17113171792111" y2="98.06355123074" /><path d="M 185.9800911702706 98.14961562048488 a86.0,86.0 0 0,1 -9.607161424134198,41.387399972396054" fill="none" id="id88" stroke="none" /><text fill="#e1ed5e" style="font-size:6.75px; font-family:Arial;" text-anchor="middle"><textPath startOffset="21.466115282336823" xlink:href="#id88">April</textPath></text><path d="M 120.9764740272857 100.99374915477107 l 10.065981667353686 0.4768704578692304 a31.07727107708674,31.07727107708674 0 0,0 -0.02991357394882694,0.5341269576586527 l -10.056281742517331 -0.6500691318633064" fill="#ff780b" stroke="none" /><path d="M 120.95626037817324 101.35467743843564 l 15.147189299339912 0.9791611303370453 a36.17880430696702,36.17880430696702 0 0,0 -0.04552231015235954,0.6211157543851409 l -15.128090430523216 -1.2397500212189565" fill="#ffbc11" stroke="none" /><path d="M 120.8583938346157 102.4346265915055 l 12.065677234428506 1.4083260136124238 a33.14759026663411,33.14759026663411 0 0,0 -0.07102816829059058,0.566164386514172 l -12.039647556891069 -1.6158081544139908" fill="#ff940d" stroke="none" /><path d="M 120.76222939487914 103.15116336523771 l 15.050398619017106 2.28425685211667 a36.222756910551844,36.222756910551844 0 0,0 -0.0988678513481118,0.6156502047214261 l -15.008849013307705 -2.542986286531301" fill="#ffbc11" stroke="none" /><path d="M 119.9155931802556 106.66101706037122 l 1.940413682235503 0.6489954140237436 a23.04606947722471,23.04606947722471 0 0,0 -0.12906805148766523,0.3751321730388525 l -1.9289547998046068 -0.6823002901518965" fill="#ff0600" stroke="none" /><path d="M 119.79798401119884 107.00284435728193 l 15.53544669728775 5.495120875964778 a37.47866673993175,37.47866673993175 0 0,0 -0.22036695582151916,0.6063552185792787 l -15.438555480461003 -5.761723891550188" fill="#ffcc13" stroke="none" /><path d="M 119.67450827220406 107.3425965602758 l 18.888756495216537 7.049351198556119 a41.16131132283239,41.16131132283239 0 0,0 -0.2534472863559424,0.6616708886110613 l -18.764614929267086 -7.3734456540003235" fill="#fffb17" stroke="none" /><path d="M 119.54520255179757 107.68017299344265 l 7.61208583551553 2.991124594527005 a29.1786720870347,29.1786720870347 0 0,0 -0.187712491352342,0.46588700934714217 l -7.5594707299057955 -3.121710971716961" fill="#ff5e08" stroke="none" /><path d="M 119.12269723197855 108.67885076344098 l 10.200457828825131 4.629485586745699 a32.201851486050245,32.201851486050245 0 0,0 -0.23342567528242117,0.5027781380353925 l -10.119257536702879 -4.804383792059922" fill="#ff870c" stroke="none" /><path d="M 118.81262510543309 109.33194174019688 l 11.953545759485028 5.929517650573716 a34.34340420554544,34.34340420554544 0 0,0 -0.26725927615895606,0.5273279067557192 l -11.849707813539803 -6.13439976903213" fill="#ffa40f" stroke="none" /><line stroke="#e1ed5e" stroke-width="0.3" x1="174.80103733775053" x2="179.2010983576182" y1="140.37084112569926" y2="142.7455964860345" /><path d="M 175.68104954172406 140.8457921977663 a86.0,86.0 0 0,1 -30.038265399797805,32.042727171017184" fill="none" id="id89" stroke="none" /><text fill="#e1ed5e" style="font-size:6.75px; font-family:Arial;" text-anchor="middle"><textPath startOffset="22.206326154141568" xlink:href="#id89">May</textPath></text><path d="M 118.48025628344425 109.97397251340804 l 2.6648378430005364 1.438238679762686 a24.02818282629257,24.02818282629257 0 0,0 -0.1995753296627393,0.36228719391103714 l -2.6396861038862873 -1.4838963920715282" fill="#ff1402" stroke="none" /><path d="M 117.94076556474637 110.91462005526583 l 10.789707377412958 6.564132177467979 a33.629553299047046,33.629553299047046 0 0,0 -0.3051247169352084,0.4919581975244915 l -10.675118020809787 -6.748886706357744" fill="#ff9a0e" stroke="none" /><path d="M 117.75023020441432 111.22182372390056 l 7.960540427374534 5.032711147642746 a30.41798202331433,30.41798202331433 0 0,0 -0.28360442600234553,0.44016036718394114 l -7.872731137995138 -5.16899311474814" fill="#ff6f0a" stroke="none" /><path d="M 117.55443506779139 111.5257021239791 l 8.537871763590157 5.605703991034393 a31.213675708901718,31.213675708901718 0 0,0 -0.2987548517240979,0.44659796773694566 l -8.440113806455338 -5.751838872977146" fill="#ff7a0b" stroke="none" /><path d="M 117.35343817320211 111.8261652097733 l 1.8081391964121627 1.2322257206677358 a23.188092223896685,23.188092223896685 0 0,0 -0.22761772836546604,0.327900314242826 l -1.7866605608845605 -1.2631672970975814" fill="#ff0801" stroke="none" /><path d="M 117.14729908036423 112.12312394758627 l 2.29236624292666 1.6207007276199115 a23.80742120819399,23.80742120819399 0 0,0 -0.23945754526648627,0.33258558682638784 l -2.264128905284571 -1.6599199198974306" fill="#ff1101" stroke="none" /><path d="M 116.93607887273984 112.41649034213515 l 12.642907427149225 9.269001351805315 a36.67665443489885,36.67665443489885 0 0,0 -0.37766253794592197,0.5059406863084648 l -12.481483622508211 -9.485254917623093" fill="#ffc212" stroke="none" /><path d="M 116.71984013943494 112.70617746262583 l 9.103226796739136 6.917961786553746 a32.43358794924355,32.43358794924355 0 0,0 -0.34162326416813726,0.44159412021675964 l -8.982796715352931 -7.073633900883758" fill="#ff8a0c" stroke="none" /><path d="M 116.498646956653 112.99209946851258 l 13.447097627482092 10.589112573779717 a38.115891437585546,38.115891437585546 0 0,0 -0.41034858667142166,0.5119729558521893 l -13.262831128755815 -10.819013363210157" fill="#ffd513" stroke="none" /><path d="M 116.27256486870786 113.27417163493432 l 11.676788567487167 9.525216020968395 a36.06907865451342,36.06907865451342 0 0,0 -0.3965949781657885,0.477724199715757 l -11.511097589427834 -9.724801477797921" fill="#ffba11" stroke="none" /><path d="M 116.0416608686014 113.55231037782055 l 11.419572023535455 9.647478880927233 a35.94926332494851,35.94926332494851 0 0,0 -0.40341491323507656,0.4692626831257609 l -11.251814600729599 -9.842618663214521" fill="#ffb911" stroke="none" /><path d="M 115.80600337817218 113.82643327865902 l 3.709996484406827 3.245350366465787 a25.929135108254858,25.929135108254858 0 0,0 -0.29675419807341097,0.3334064874051317 l -3.6535834366850777 -3.308731023611785" fill="#ff3004" stroke="none" /><path d="M 115.56566222782051 114.09645910891815 l 11.129520029479192 10.07903304730814 a36.0150965116881,36.0150965116881 0 0,0 -0.4200965360437497,0.4559318198019574 l -10.95437708543972 -10.269116121911434" fill="#ffba11" stroke="none" /><path d="M 115.32070863581623 114.36230785411682 l 8.708162349247461 8.16341537956922 a32.93622394898145,32.93622394898145 0 0,0 -0.3913034332183868,0.41028008531896865 l -8.56635236465011 -8.312102581470695" fill="#ff910d" stroke="none" /><path d="M 115.07121518719521 114.62390073753431 l 3.8033901391136657 3.6905053222099338 a26.299585463370406,26.299585463370406 0 0,0 -0.31804887074171767,0.32218182689618874 l -3.739300643316412 -3.7554276430867874" fill="#ff3505" stroke="none" /><path d="M 114.81725581225074 114.88116024355365 l 5.081282158967481 5.103196908282262 a28.20153088334299,28.20153088334299 0 0,0 -0.34694604032319865,0.3395597229180563 l -4.992686166268488 -5.18990673412289" fill="#ff5007" stroke="none" /><path d="M 114.55890576462653 115.13401014063108 l 3.2258166339385825 3.353242505934666 a25.652969832204143,25.652969832204143 0 0,0 -0.3208626626844612,0.30339567480577617 l -3.167618136863314 -3.4082728174863637" fill="#ff2c04" stroke="none" /><path d="M 114.29624159901734 115.38237550388516 l 3.98589157972555 4.28871326582273 a26.854946042601153,26.854946042601153 0 0,0 -0.3413141522768241,0.3117823856244371 l -3.9114778779818615 -4.356688418033749" fill="#ff3d05" stroke="none" /><path d="M 114.0293411484842 115.62618273729858 l 9.030374802810346 10.058226210448755 a34.51723283737431,34.51723283737431 0 0,0 -0.44553142462257844,0.393129681178932 l -8.85590102528118 -10.212179033399975" fill="#ffa60f" stroke="none" /><path d="M 113.75828350139079 115.86535959552629 l 10.074309787345296 11.617186652448758 a36.3769549459324,36.3769549459324 0 0,0 -0.47659791250606354,0.40616708060856616 l -9.872846398262185 -11.788878123280272" fill="#ffbe11" stroke="none" /><path d="M 113.48314897796784 116.09983520530334 l 11.616782794901486 13.871261744517616 a39.09313529736726,39.09313529736726 0 0,0 -0.5196219919209105,0.4276135236658091 l -11.376290674435884 -14.069170387040604" fill="#ffe115" stroke="none" /><path d="M 113.20401910651253 116.32954008644616 l 7.330317554945546 9.065475700563333 a32.658319138445606,32.658319138445606 0 0,0 -0.44017583488488393,0.34970230475398806 l -7.173184227343311 -9.190311919322447" fill="#ff8d0d" stroke="none" /><path d="M 112.92097659922987 116.55440617244103 l 12.087085823213938 15.486022021784594 a40.64470721993425,40.64470721993425 0 0,0 -0.5552285161996292,0.4257255500633583 l -11.818728578520814 -15.691786913675323" fill="#fff417" stroke="none" /><path d="M 112.63410532772338 116.77436683061366 l 2.2819942787194556 3.029815578045331 a24.793056857611614,24.793056857611614 0 0,0 -0.34310642628995314,0.25382193165313055 l -2.229502882010938 -3.0686474584382304" fill="#ff1f03" stroke="none" /><path d="M 112.34349029814194 116.9893568818739 l 3.434720704329861 4.7274874793076345 a26.843495887203368,26.843495887203368 0 0,0 -0.3761574887907053,0.26837838065140224 l -3.3528358876902713 -4.785910121803256" fill="#ff3d05" stroke="none" /><path d="M 112.04921762599082 117.19931262002967 l 3.3079524897016954 4.721842593319949 a26.76527077856835,26.76527077856835 0 0,0 -0.37961198250480493,0.26110058305366785 l -3.2261836225740073 -4.778083965738712" fill="#ff3c05" stroke="none" /><path d="M 111.7513745106137 117.40417183066458 l 3.186605889756136 4.719468042809166 a26.694544380696797,26.694544380696797 0 0,0 -0.38303531559585047,0.25385492089956074 l -3.1048958754203215 -4.773620984800045" fill="#ff3b05" stroke="none" /><path d="M 111.45004920935366 117.60387380957326 l 11.403894517755699 17.532913296499945 a41.91534983773121,41.91534983773121 0 0,0 -0.6082080890059972,0.38818717877338216 l -11.100404626702773 -17.726614904097136" fill="#faff18" stroke="none" /><path d="M 111.1453310114006 117.79835938074945 l 5.938568082557298 9.48350200028024 a32.18943256204208,32.18943256204208 0 0,0 -0.47214356054691403,0.29002913747564335 l -5.774445322078075 -9.58431960458426" fill="#ff870c" stroke="none" /><line stroke="#e1ed5e" stroke-width="0.3" x1="143.8653032363475" x2="146.44561519142675" y1="172.8068346515853" y2="177.08958963109032" /><path d="M 144.38136562736335 173.6633856474863 a86.0,86.0 0 0,1 -40.68145358897372,12.25698825130547" fill="none" id="id90" stroke="none" /><text fill="#e1ed5e" style="font-size:6.75px; font-family:Arial;" text-anchor="middle"><textPath startOffset="21.466115282336833" xlink:href="#id90">June</textPath></text><path d="M 110.8373102113329 117.98757091392108 l 8.538299824597292 14.171715175104696 a37.54509216955321,37.54509216955321 0 0,0 -0.5564399508745554,0.3287545310238195 l -8.293092002694355 -14.316588278422264" fill="#ffcd13" stroke="none" /><path d="M 110.5260780823613 118.17145234162733 l 9.868325611874305 17.03595652100724 a40.687754188013,40.687754188013 0 0,0 -0.609059319057573,0.3458397768326985 l -9.573617525895532 -17.20329946363457" fill="#fff517" stroke="none" /><path d="M 110.21172684928248 118.3499491758327 l 2.8413164754054763 5.1056999159559355 a26.843051509716737,26.843051509716737 0 0,0 -0.405684390905663,0.2212114761452613 l -2.7530092726311644 -5.153852043860967" fill="#ff3d05" stroke="none" /><path d="M 109.89434966115114 118.52300852407294 l 2.7132452755482817 5.079410682665758 a26.758655468810762,26.758655468810762 0 0,0 -0.40814479918186797,0.21352206881746436 l -2.625409573839918 -5.125362170427939" fill="#ff3c05" stroke="none" /><path d="M 109.57404056367764 118.69057910512821 l 5.573997427505986 10.881637607200934 a33.22618028397639,33.22618028397639 0 0,0 -0.5112814438759561,0.2563671299880701 l -5.385862075947269 -10.975972578098306" fill="#ff950d" stroke="none" /><path d="M 109.2508944713604 118.85261126421891 l 8.097037021743931 16.501138547792674 a39.380685022733545,39.380685022733545 0 0,0 -0.6111269702086586,0.29337808382497566 l -7.8117973835350405 -16.63807090811721" fill="#ffe515" stroke="none" /><path d="M 108.92500713936063 119.00905698771935 l 9.072245202643224 19.322654130219874 a42.34644222471244,42.34644222471244 0 0,0 -0.6624838826763788,0.30411385775417815 l -8.738293324199425 -19.475955058308127" fill="#f5ff19" stroke="none" /><path d="M 108.59647513512805 119.15986991738527 l 2.3814124906250815 5.307704939849558 a26.817461403310602,26.817461403310602 0 0,0 -0.4227955727999905,0.1853411542989623 l -2.289696243167337 -5.347910647442975" fill="#ff3c05" stroke="none" /><path d="M 108.2653958097858 119.30500536409082 l 4.738996898561408 11.068600058913406 a33.0404318389646,33.0404318389646 0 0,0 -0.5247584289915943,0.21934906587765515 l -4.547767010072352 -11.148534167811032" fill="#ff920d" stroke="none" /><path d="M 107.93186726928326 119.44442032107085 l 7.469139055000497 18.310074323152293 a40.77490480235732,40.77490480235732 0 0,0 -0.652163388071958,0.2595092712322472 l -7.1528545908866725 -18.435930438790606" fill="#fff617" stroke="none" /><path d="M 107.59598834532513 119.57807347666477 l 5.50746771373746 14.195072802642084 a36.22603994773984,36.22603994773984 0 0,0 -0.5832906138218448,0.22055059995360154 l -5.262306879155341 -14.287771652702316" fill="#ffbc11" stroke="none" /><path d="M 107.2578585660854 119.70592522655815 l 2.48744171344158 6.753691872634469 a28.1972022472804,28.1972022472804 0 0,0 -0.4569026842722288,0.16382904676115448 l -2.3708194685396164 -6.795508460435583" fill="#ff5007" stroke="none" /><path d="M 106.91757812671514 119.82793768551818 l 4.8046013615549565 13.771486878154702 a35.58554233063148,35.58554233063148 0 0,0 -0.5800956290294614,0.19679993313761646 l -4.566835999588268 -13.85214979819044" fill="#ffb410" stroke="none" /><path d="M 106.57524785965236 119.94407469862006 l 6.041654491255611 18.325576624456847 a40.295811659801934,40.295811659801934 0 0,0 -0.6606184684145434,0.2115091719426939 l -5.725314677750127 -18.426858643059248" fill="#fff016" stroke="none" /><path d="M 106.2309692047433 120.05430185196036 l 4.3439524346572265 13.980960343835138 a35.64025870298934,35.64025870298934 0 0,0 -0.5874278787870684,0.17698720113417596 l -4.102649581429913 -14.053662914075039" fill="#ffb510" stroke="none" /><path d="M 105.88484417918355 120.15858648285463 l 4.620475713225043 15.827480969920735 a37.48811540685307,37.48811540685307 0 0,0 -0.6209974722162719,0.1755000886244086 l -4.347347072904166 -15.904669851883664" fill="#ffcd13" stroke="none" /><path d="M 105.53697534728816 120.25689768951611 l 1.896729996524005 6.939143318209081 a28.193698261003146,28.193698261003146 0 0,0 -0.46923652355759354,0.12392963069595674 l -1.777003030154914 -6.970764298208621" fill="#ff5007" stroke="none" /><path d="M 105.18746579009965 120.34920634021253 l 4.162291165202703 16.3276877758699 a37.849868125603116,37.849868125603116 0 0,0 -0.6327177084950288,0.15550661880271155 l -3.8806201719644626 -16.396915652986642" fill="#ffd113" stroke="none" /><path d="M 104.83641907484287 120.43548508189849 l 4.052507137452945 17.12319546138534 a38.59621086790888,38.59621086790888 0 0,0 -0.6478279352724817,0.14744352892133936 l -3.757159052787601 -17.190415723884364" fill="#ffdb14" stroke="none" /><path d="M 104.48393922423573 120.51570834832081 l 3.757587916746503 17.19237793779092 a38.59821940163036,38.59821940163036 0 0,0 -0.6503037903770983,0.1362774820588416 l -3.461092664940027 -17.254511400576302" fill="#ffdb14" stroke="none" /><path d="M 104.13013068566511 120.58985236759428 l 3.171881474999012 15.812713027316638 a37.12770056070335,37.12770056070335 0 0,0 -0.6276921950254276,0.12029870309663843 l -2.89922166540188 -15.864968928761744" fill="#ffc812" stroke="none" /><path d="M 103.7750983002368 120.6578951692458 l 1.3001844750552694 7.114801377407254 a28.232625962202864,28.232625962202864 0 0,0 -0.47881327497540266,0.08324782531734985 l -1.1775222286078166 -7.13612778124561" fill="#ff5007" stroke="none" /><path d="M 103.41894727170886 120.7198165907248 l 2.698430471929286 16.353274858565545 a37.57441177271846,37.57441177271846 0 0,0 -0.6390586824390931,0.09980782329138438 l -2.4165359258816754 -16.397300989204034" fill="#ffce13" stroke="none" /><path d="M 103.06178313531738 120.77559828337769 l 2.5120703577561807 17.045545783540092 a38.229658398850475,38.229658398850475 0 0,0 -0.6518546495867908,0.09034111471963477 l -2.2182871169825593 -17.08626146375233" fill="#ffd614" stroke="none" /><path d="M 102.70371172650421 120.8252237178851 l 0.9472020176112077 7.295782952530251 a28.35701301837898,28.35701301837898 0 0,0 -0.4845978255462486,0.05867804798295234 l -0.8214767690135788 -7.311006529238554" fill="#ff5207" stroke="none" /><path d="M 102.34483914955558 120.86867818915974 l 0.6847751397143312 6.094384779162227 a27.132735346356878,27.132735346356878 0 0,0 -0.46457367597509175,0.0481549610419756 l -0.5797688671336368 -6.105269108659961" fill="#ff4106" stroke="none" /><path d="M 101.98527174616119 120.90594882070398 l 1.778678351979313 18.730412431888023 a39.81467636044865,39.81467636044865 0 0,0 -0.682832472785576,0.058917658961141234 l -1.4560015614521953 -18.75825434312783" fill="#ffea16" stroke="none" /><path d="M 101.62511606390274 120.93702456842531 l 0.5572525889291399 7.1793094686474825 a28.200903755396237,28.200903755396237 0 0,0 -0.4842998130421521,0.03340015059683882 l -0.4335900151080574 -7.1878379637606065" fill="#ff5007" stroke="none" /><path d="M 101.26447882468166 120.96189622390904 l 1.4187046409686581 23.518574511399958 a44.56132572472478,44.56132572472478 0 0,0 -0.7660557273304283,0.03959633090265848 l -1.0136608452247502 -23.53951064906482" fill="#daff1b" stroke="none" /><path d="M 100.90346689309514 120.98055641714683 l 0.6385286019949721 14.828086629962018 a35.841828454783595,35.841828454783595 0 0,0 -0.6166153894991265,0.021237480773344752 l -0.3831928608211932 -14.836880909161456" fill="#ffb711" stroke="none" /><line stroke="#e1ed5e" stroke-width="0.3" x1="102.19456741930631" x2="102.32365962044197" y1="184.97166512339345" y2="189.96999836594603" /><path d="M 102.22038585953345 185.97133177190398 a86.0,86.0 0 0,1 -42.740103519485714,-10.115201625700543" fill="none" id="id91" stroke="none" /><text fill="#e1ed5e" style="font-size:6.75px; font-family:Arial;" text-anchor="middle"><textPath startOffset="22.20632615414155" xlink:href="#id91">July</textPath></text><path d="M 100.54218724476979 120.99299961872073 l 0.4216830515019872 16.32718627152658 a37.332630778323804,37.332630778323804 0 0,0 -0.642548459316185,0.011062054440326822 l -0.14057490229313424 -16.332025803246065" fill="#ffcb12" stroke="none" /><path d="M 100.18074693466247 120.99922214144158 l 0.1412293719552505 16.40806224527635 a37.408670036915424,37.408670036915424 0 0,0 -0.6439526132354007,0.0 l 0.1412293719552392 -16.40806224527635" fill="#ffcc13" stroke="none" /><path d="M 99.81925306533755 120.99922214144158 l -0.14267695845379574 16.576243191243208 a37.576857212683905,37.576857212683905 0 0,0 -0.6467519487529242,-0.011134421323033276 l 0.42798859709938786 -16.571331292641013" fill="#ffce13" stroke="none" /><path d="M 99.45781275523022 120.99299961872073 l -0.5403802200778315 20.92303325740361 a41.930010307514635,41.930010307514635 0 0,0 -0.7213552084846419,-0.02484493191677952 l 0.9004557802371164 -20.910631527060737" fill="#faff18" stroke="none" /><path d="M 99.09653310690486 120.98055641714683 l -0.7052372388064686 16.37721292206098 a37.39239038876028,37.39239038876028 0 0,0 -0.642814241946821,-0.03322615382273579 l 0.9870395491667786 -16.36264696147604" fill="#ffcb12" stroke="none" /><path d="M 98.73552117531835 120.96189622390904 l -1.4683679003150036 24.341867134605106 a45.386114899455464,45.386114899455464 0 0,0 -0.7794249131576136,-0.053753705405883485 l 1.8871555742515473 -24.31298508468294" fill="#d1ff1d" stroke="none" /><path d="M 98.37488393609728 120.93702456842531 l -0.5539135434967912 7.136291201949546 a28.157756096200238,28.157756096200238 0 0,0 -0.4829131360806791,-0.041667777373545045 l 0.676670997319012 -7.125699172297337" fill="#ff4f07" stroke="none" /><path d="M 98.01472825383883 120.90594882070398 l -0.6669411953521853 7.0232392736223135 a28.05483525339952,28.05483525339952 0 0,0 -0.48036210784393935,-0.04979149656018038 l 0.7877358998017181 -7.010718408606372" fill="#ff4e07" stroke="none" /><path d="M 97.65516085044442 120.86867818915974 l -1.800118107292293 16.02075156868738 a37.12156648796266,37.12156648796266 0 0,0 -0.6343767726621118,-0.07681419260101123 l 2.0756223030057943 -15.98739184736102" fill="#ffc812" stroke="none" /><path d="M 97.2962882734958 120.8252237178851 l -2.114104217077207 16.283797141525195 a37.42045937198493,37.42045937198493 0 0,0 -0.6380569812267903,-0.08842888360957511 l 2.394089789490829 -16.244993692423016" fill="#ffcc13" stroke="none" /><path d="M 96.93821686468263 120.77559828337769 l -3.1689678753691237 21.502895744696044 a42.73515315801544,42.73515315801544 0 0,0 -0.7268316224400161,-0.11351615137784665 l 3.538635361417657 -21.44516128597109" fill="#f0ff19" stroke="none" /><path d="M 96.58105272829116 120.7198165907248 l -1.1874564118914752 7.196331826309246 a28.293644115563463,28.293644115563463 0 0,0 -0.4798481167886528,-0.08342774583125993 l 1.311153500152178 -7.174825501956979" fill="#ff5107" stroke="none" /><path d="M 96.22490169976321 120.6578951692458 l -3.4983744157378305 19.143621223995815 a40.46064893883326,40.46064893883326 0 0,0 -0.6840400337491042,-0.13109790049701403 l 3.8273820640586296 -19.080566125150334" fill="#fff216" stroke="none" /><path d="M 95.86986931433489 120.58985236759428 l -3.711356261050115 18.502145165477437 a39.8707058961989,39.8707058961989 0 0,0 -0.6717426754720411,-0.14077020887686567 l 4.029290397951543 -18.43551897587403" fill="#ffeb16" stroke="none" /><path d="M 95.51606077576429 120.51570834832081 l -1.4709248884070603 6.730034575343573 a27.888903063090325,27.888903063090325 0 0,0 -0.46810839929881015,-0.10653994765030302 l 1.586553437098733 -6.703717894115583" fill="#ff4c07" stroke="none" /><path d="M 95.16358092515715 120.4354850818985 l -3.77414612060857 15.947027242900283 a37.387551886279674,37.387551886279674 0 0,0 -0.6249893943414887,-0.1536071872127203 l 4.048088799693269 -15.879698797373532" fill="#ffcb12" stroke="none" /><path d="M 94.81253420990036 120.34920634021253 l -4.062701513424727 15.937021031185544 a37.44670735848467,37.44670735848467 0 0,0 -0.6232372431919869,-0.16460262044216004 l 4.336429199428204 -15.864727061439803" fill="#ffcc13" stroke="none" /><path d="M 94.46302465271185 120.25689768951611 l -3.8046606408994763 13.919263950448403 a35.429877044336244,35.429877044336244 0 0,0 -0.5869023781719239,-0.1658644744807866 l 4.043694187176014 -13.851710682629095" fill="#ffb210" stroke="none" /><path d="M 94.11515582081647 120.15858648285463 l -4.614956496081915 15.808574842127118 a37.4684201428025,37.4684201428025 0 0,0 -0.6175598990291011,-0.18606573165636933 l 4.886391369551262 -15.726793741365023" fill="#ffcc13" stroke="none" /><path d="M 93.76903079525671 120.05430185196036 l -7.075523855068778 22.772491162735797 a44.84637061652207,44.84637061652207 0 0,0 -0.7352213406385426,-0.23539465574776228 l 7.466466540798261 -22.64732366032833" fill="#d7ff1c" stroke="none" /><path d="M 93.42475214034765 119.94407469862007 l -5.162931095726007 15.660228425583961 a37.48934843590499,37.48934843590499 0 0,0 -0.6111304124796548,-0.20732861668959662 l 5.431731241142888 -15.56903682199624" fill="#ffcd13" stroke="none" /><path d="M 93.08242187328487 119.8279376855182 l -5.455965951011296 15.638501063425139 a37.562918823967706,37.562918823967706 0 0,0 -0.6086631676880783,-0.21824495673470268 l 5.7243486793291005 -15.542268565650478" fill="#ffcd13" stroke="none" /><path d="M 92.7421414339146 119.70592522655815 l -5.7889761527898775 15.717739628912922 a37.74991295320276,37.74991295320276 0 0,0 -0.6078271301516659,-0.22982821092329744 l 6.058673503701827 -15.61576316788299" fill="#ffd013" stroke="none" /><path d="M 92.40401165467489 119.57807347666478 l -2.603179013664425 6.709492917244925 a28.196793465408238,28.196793465408238 0 0,0 -0.4509861261062517,-0.17945668687058156 l 2.718286215812535 -6.6636893859682775" fill="#ff5007" stroke="none" /><path d="M 92.06813273071674 119.44442032107085 l -5.5330958870371765 13.563999302028297 a35.649137420359324,35.649137420359324 0 0,0 -0.5661907035231832,-0.23666775999211712 l 5.765758050057822 -13.466746499016207" fill="#ffb510" stroke="none" /><path d="M 91.7346041902142 119.30500536409082 l -5.8374092561205355 13.63409806320223 a35.831182583342994,35.831182583342994 0 0,0 -0.564903035995639,-0.247636890010549 l 6.071232966773918 -13.53159661989723" fill="#ffb711" stroke="none" /><path d="M 91.40352486487194 119.15986991738527 l -6.815437058767084 15.190282694182313 a37.649170268550634,37.649170268550634 0 0,0 -0.5889979698105059,-0.2703800794138755 l 7.075903024345009 -15.070715544434364" fill="#ffcf13" stroke="none" /><path d="M 91.07499286063937 119.00905698771935 l -9.389350609719095 19.998045719279254 a43.092571997452346,43.092571997452346 0 0,0 -0.6687296817741536,-0.3210308858874348 l 9.73219295949349 -19.833460556892256" fill="#ecff1a" stroke="none" /><path d="M 90.7491055286396 118.85261126421891 l -6.5877549547431435 13.425337803841666 a35.954538123626655,35.954538123626655 0 0,0 -0.5532651664629127,-0.2774186400609541 l 6.817874028888816 -13.309951322871411" fill="#ffb911" stroke="none" /><path d="M 90.42595943632237 118.69057910512821 l -6.999465738750472 13.664457259568739 a36.35284705930866,36.35284705930866 0 0,0 -0.5544832205790236,-0.29007941451153313 l 7.233639861855991 -13.541948426112489" fill="#ffbe11" stroke="none" /><path d="M 90.10565033884886 118.52300852407294 l -3.45594882987298 6.46981073307343 a28.334986928174622,28.334986928174622 0 0,0 -0.42823230842870896,-0.23350639858025976 l 3.5668039501703293 -6.409363682733405" fill="#ff5207" stroke="none" /><line stroke="#e1ed5e" stroke-width="0.3" x1="58.666819895761336" x2="56.23545636021788" y1="174.27360380694188" y2="178.64263932499728" /><path d="M 58.180547188652646 175.14741091055294 a86.0,86.0 0 0,1 -31.652253787137756,-30.449443065178592" fill="none" id="id92" stroke="none" /><text fill="#e1ed5e" style="font-size:6.75px; font-family:Arial;" text-anchor="middle"><textPath startOffset="22.20632615414155" xlink:href="#id92">August</textPath></text><path d="M 89.7882731507175 118.34994917583269 l -7.020042438317556 12.61465605735105 a35.436431113022465,35.436431113022465 0 0,0 -0.5304517055376338,-0.30120432234338457 l 7.236142910776397 -12.491948569213033" fill="#ffb210" stroke="none" /><path d="M 89.4739219176387 118.17145234162733 l -3.699173849441045 6.385983533710679 a28.380018486508853,28.380018486508853 0 0,0 -0.4206082654195249,-0.2485027770299538 l 3.808549985888952 -6.321362184386976" fill="#ff5207" stroke="none" /><path d="M 89.1626897886671 117.98757091392108 l -11.509746776499592 19.10366892765152 a43.30301408681035,43.30301408681035 0 0,0 -0.63515376401723,-0.3901633183960822 l 11.836879740449131 -18.90271714242706" fill="#e9ff1a" stroke="none" /><path d="M 88.8546689885994 117.79835938074946 l -9.099890457656636 14.531925568218012 a38.14598690835785,38.14598690835785 0 0,0 -0.5535131614217358,-0.35327828818817447 l 9.348685421125296 -14.373132851206034" fill="#ffd513" stroke="none" /><path d="M 88.54995079064634 117.60387380957326 l -8.93454747257713 13.736416619450296 a37.38643585661155,37.38643585661155 0 0,0 -0.5364513832158366,-0.3555307249956103 l 9.16967355453293 -13.580587873363367" fill="#ffcb12" stroke="none" /><path d="M 88.24862548938628 117.40417183066458 l -10.941968179961341 16.20541445579083 a40.55357065436492,40.55357065436492 0 0,0 -0.5751715153981801,-0.3956082129847522 l 11.21929657998241 -16.01466545344098" fill="#fff316" stroke="none" /><path d="M 87.95078237400918 117.19931262002967 l -9.493811481277385 13.551670879435171 a37.54630593415236,37.54630593415236 0 0,0 -0.5261357988879147,-0.3753839227346537 l 9.725674608014186 -13.3862426948563" fill="#ffcd13" stroke="none" /><path d="M 87.65650970185807 116.9893568818739 l -13.87653900120314 19.099417399969127 a44.608178237004125,44.608178237004125 0 0,0 -0.6173241446629005,-0.45668164408567335 l 14.203248116284605 -18.857725807143687" fill="#daff1c" stroke="none" /><path d="M 87.36589467227662 116.77436683061367 l -5.496868007427403 7.298220015130031 a30.13671567251184,30.13671567251184 0 0,0 -0.4116837116192256,-0.31566151497558165 l 5.621680447540115 -7.202519158327083" fill="#ff6b09" stroke="none" /><path d="M 87.07902340077011 116.55440617244103 l -10.11845542708945 12.96380499503131 a37.445162820087695,37.445162820087695 0 0,0 -0.5046939414383039,-0.400959390609225 l 10.340106861245111 -12.787711690416955" fill="#ffcc13" stroke="none" /><path d="M 86.79598089348748 116.32954008644616 l -6.024816791388275 7.45095008685229 a30.582018292956775,30.582018292956775 0 0,0 -0.40649308737890477,-0.334516137004341 l 6.152180007311869 -7.3461388309907685" fill="#ff710a" stroke="none" /><path d="M 86.51685102203217 116.09983520530335 l -4.852392784308995 5.794100792510299 a28.557600130132744,28.557600130132744 0 0,0 -0.3741515096146219,-0.31886003353723785 l 4.951409770500674 -5.70971636875011" fill="#ff5507" stroke="none" /><path d="M 86.24171649860922 115.8653595955263 l -4.812650961908361 5.549706699292339 a28.345805179102406,28.345805179102406 0 0,0 -0.3658736788959885,-0.32284098222249985 l 4.907466993710937 -5.46604257529755" fill="#ff5207" stroke="none" /><path d="M 85.97065885151581 115.62618273729859 l -8.432785185632778 9.392618006820623 a33.622723121778385,33.622723121778385 0 0,0 -0.4273295213978026,-0.390355385911731 l 8.593214256497435 -9.246069854322316" fill="#ff9a0e" stroke="none" /><path d="M 85.70375840098266 115.38237550388516 l -13.657257059800095 14.694845144570847 a41.06138440438189,41.06138440438189 0 0,0 -0.5135882987302329,-0.48562979301472764 l 13.908181192921147 -14.457580714810188" fill="#fff917" stroke="none" /><path d="M 85.18274418774928 114.88116024355367 l -1.168252130775028 1.1732906135400956 a22.655724586059435,22.655724586059435 0 0,0 -0.2739825549899829,-0.27754288169141716 l 1.1882753108205442 -1.1530072378680136" fill="#ff0000" stroke="none" /><path d="M 84.9287848128048 114.62390073753433 l -17.096715379988012 16.589283979386327 a44.82230089082586,44.82230089082586 0 0,0 -0.5325176392562937,-0.5583426157827576 l 17.37973957062326 -16.29253424702107" fill="#d7ff1c" stroke="none" /><path d="M 84.67929136418377 114.36230785411682 l -16.21366998962996 15.19940920302701 a43.223976571569935,43.223976571569935 0 0,0 -0.5041842058054529,-0.547192377811808 l 16.472900603431142 -14.918065570413857" fill="#eaff1a" stroke="none" /><path d="M 84.43433777217949 114.09645910891817 l -11.224798880089866 10.165318770454427 a36.143639443786945,36.143639443786945 0 0,0 -0.41365732770549757,-0.4647483928283534 l 11.398115057443702 -9.97059620788521" fill="#ffbb11" stroke="none" /><path d="M 84.19399662182784 113.82643327865904 l -10.779591939994186 9.429537952353387 a35.3218639983649,35.3218639983649 0 0,0 -0.39637437272080617,-0.4610729439168425 l 10.940308822285772 -9.242587909275015" fill="#ffb010" stroke="none" /><path d="M 83.95833913139862 113.55231037782056 l -5.7085770165003105 4.822718057500627 a28.47304897718851,28.47304897718851 0 0,0 -0.3130733763838133,-0.37711704993588196 l 5.790746392777661 -4.723739750450984" fill="#ff5407" stroke="none" /><path d="M 83.72743513129214 113.27417163493432 l -5.70993871516116 4.657821747311566 a28.368765402740465,28.368765402740465 0 0,0 -0.3054128435560661,-0.38104948170767233 l 5.789269470772087 -4.558844432025634" fill="#ff5207" stroke="none" /><path d="M 83.50135304334701 112.99209946851258 l -18.971295549406832 14.939222560008362 a45.14726538389816,45.14726538389816 0 0,0 -0.47553653924595035,-0.6146950799459749 l 19.225638905870852 -14.610449485949134" fill="#d3ff1c" stroke="none" /><path d="M 83.28015986056508 112.70617746262583 l -11.824683139241559 8.986121945756874 a35.85171771100828,35.85171771100828 0 0,0 -0.369168096411134,-0.4945609937308158 l 11.977612502347778 -8.78124807251675" fill="#ffb711" stroke="none" /><path d="M 82.85270091963577 112.12312394758628 l -14.09973502867609 9.968499095959867 a38.267701123920006,38.267701123920006 0 0,0 -0.375641390222641,-0.5411394392744726 l 14.269237326060866 -9.72431839449838" fill="#ffd614" stroke="none" /><path d="M 82.6465618267979 111.8261652097733 l -9.503195835428135 6.4763168456239635 a32.5001483021486,32.5001483021486 0 0,0 -0.31106804202012345,-0.46500451655390573 l 9.613266982858988 -6.311775414864237" fill="#ff8b0c" stroke="none" /><path d="M 82.44556493220864 111.52570212397912 l -15.181349664413055 9.967607239781714 a39.16112804094843,39.16112804094843 0 0,0 -0.3651218292898336,-0.5666771873502245 l 15.350676357079935 -9.70480845251004" fill="#ffe215" stroke="none" /><path d="M 82.24976979558568 111.22182372390057 l -5.805023794568219 3.66997796566562 a27.867826404618448,27.867826404618448 0 0,0 -0.2528479212226109,-0.4076713575416546 l 5.867336355458785 -3.5695102767587015" fill="#ff4b07" stroke="none" /><path d="M 82.05923443525364 110.91462005526583 l -19.940466356338924 12.131177636695641 a44.34068699420283,44.34068699420283 0 0,0 -0.3910830102859546,-0.6554776202919843 l 20.14633024232311 -11.786137922517547" fill="#ddff1b" stroke="none" /><line stroke="#e1ed5e" stroke-width="0.3" x1="26.63291911575756" x2="22.317208475507996" y1="142.92168965132927" y2="145.44649492493687" /><path d="M 25.769776987707644 143.4266507060508 a86.0,86.0 0 0,1 -11.730757126820373,-40.83630448921669" fill="none" id="id93" stroke="none" /><text fill="#e1ed5e" style="font-size:6.75px; font-family:Arial;" text-anchor="middle"><textPath startOffset="21.46611528233685" xlink:href="#id93">September</textPath></text><path d="M 81.87401531095188 110.60418214915194 l -17.3407761592738 10.14481431796174 a41.0902905741047,41.0902905741047 0 0,0 -0.35190508272721527,-0.6135761739026052 l 17.51283323815339 -9.844818298200828" fill="#fffa17" stroke="none" /><path d="M 81.69416730710424 110.29060199501025 l -6.125174631302208 3.4432596068206403 a28.02664934260354,28.02664934260354 0 0,0 -0.23278613378000965,-0.422574450114027 l 6.183537174533734 -3.3373146383087904" fill="#ff4d07" stroke="none" /><path d="M 81.51974371655577 109.97397251340807 l -13.387313231981798 7.225262039455065 a36.212644974164924,36.212644974164924 0 0,0 -0.2913350256632309,-0.551096076083808 l 13.509700765869916 -6.993750948285131" fill="#ffbc11" stroke="none" /><path d="M 81.18737489456691 109.33194174019688 l -10.094988051829006 5.007586120474237 a32.268748933246165,32.268748933246165 0 0,0 -0.24254842534429374,-0.4997215966797661 l 10.179689733788019 -4.8330755678291855" fill="#ff880c" stroke="none" /><path d="M 81.02952815118164 109.00673069616217 l -6.155910405402104 2.9226804505978987 a27.814491465666755,27.814491465666755 0 0,0 -0.20162245813173774,-0.4342768376398311 l 6.205307480373669 -2.8162835456792403" fill="#ff4a06" stroke="none" /><path d="M 80.87730276802145 108.67885076344099 l -15.907232702179297 7.219509727460043 a38.46886867963042,38.46886867963042 0 0,0 -0.2684740793000703,-0.605338173734662 l 16.029147866210646 -6.944623217232685" fill="#ffd914" stroke="none" /><path d="M 80.73074385275274 108.34839909993369 l -8.749251724817485 3.7906105283152893 a30.53510010023998,30.53510010023998 0 0,0 -0.20480185182445246,-0.4840910802239865 l 8.813204557834245 -3.639444922425144" fill="#ff700a" stroke="none" /><path d="M 80.58989483394504 108.01547362559985 l -7.093185149012876 2.929156642738834 a28.674192739036325,28.674192739036325 0 0,0 -0.18446707034874288,-0.45783214057124383 l 7.142554833619006 -2.806625134324785" fill="#ff5708" stroke="none" /><path d="M 80.45479744820244 107.68017299344265 l -15.281606425443588 6.0048178397781555 a37.41905393836919,37.41905393836919 0 0,0 -0.23040465363953186,-0.6015138457615404 l 15.38270535867663 -5.740880427183457" fill="#ffcc13" stroke="none" /><path d="M 80.32549172779594 107.34259656027581 l -16.789464270747654 6.265887863506689 a38.92058763592178,38.92058763592178 0 0,0 -0.22884515811696987,-0.6296835900533764 l 16.89483368986985 -5.9759564764471955" fill="#ffdf14" stroke="none" /><path d="M 80.20201598880116 107.00284435728193 l -14.001213727546572 4.9524396267613024 a35.851284257637595,35.851284257637595 0 0,0 -0.20078284529327964,-0.5835689327888335 l 14.084387403783081 -4.7106979908831725" fill="#ffb711" stroke="none" /><path d="M 80.0844068197444 106.66101706037122 l -24.114659141686566 8.065446732817303 a46.427705687293944,46.427705687293944 0 0,0 -0.24696830918131837,-0.7600902993713549 l 24.249919701884135 -7.649157533468146" fill="#c4ff1e" stroke="none" /><path d="M 79.97269907076064 106.31721596034903 l -6.459288812477273 2.037454898333878 a27.77300778279036,27.77300778279036 0 0,0 -0.13988765097133793,-0.4571609372196515 l 6.493403235954741 -1.9259669885621786" fill="#ff4a06" stroke="none" /><path d="M 79.86692584326677 105.97154293290107 l -25.290589502839023 7.501280720414607 a47.37959684770742,47.37959684770742 0 0,0 -0.2251825060366254,-0.7838898446829501 l 25.41596464576175 -7.0648334002270605" fill="#b9ff1f" stroke="none" /><path d="M 79.76711848015287 105.62410040840567 l -16.15782259453684 4.491363059865714 a37.7704374758696,37.7704374758696 0 0,0 -0.16872939985828778,-0.6279048657501185 l 16.232740070736902 -4.212567260940057" fill="#ffd013" stroke="none" /><path d="M 79.67330655649465 105.27499134158121 l -4.377640719234295 1.1360439392021462 a25.522646802315663,25.522646802315663 0 0,0 -0.10669521992793901,-0.42619436659358484 l 4.3965472534572925 -1.0605217332111696" fill="#ff2a04" stroke="none" /><path d="M 79.58551787078972 104.9243191809786 l -15.966113165442513 3.8512971726951655 a37.42404516323937,37.42404516323937 0 0,0 -0.14566763201107288,-0.627532346227575 l 16.03004136338414 -3.5758961691190163" fill="#ffcc13" stroke="none" /><path d="M 79.50377843672027 104.57218783832718 l -8.160454199601757 1.8203906184098988 a29.361030722787277,29.361030722787277 0 0,0 -0.10579193398480606,-0.4942246956287022 l 8.190580172311003 -1.6796521033650327" fill="#ff6008" stroke="none" /><path d="M 79.4281124754447 104.21870165774334 l -17.621385140531093 3.6136385937050477 a38.98809601255354,38.98809601255354 0 0,0 -0.1291621167973572,-0.6585948508671416 l 17.680977190304116 -3.309780015769951" fill="#ffe015" stroke="none" /><path d="M 79.35854240842038 103.8639653848113 l -17.91320893876887 3.3532524998879367 a39.22436162975246,39.22436162975246 0 0,0 -0.11852025201819102,-0.6647245151661192 l 17.96827563312625 -3.0444092339886035" fill="#ffe315" stroke="none" /><path d="M 79.29508885075956 103.50808413554451 l -28.88638715732241 4.894291783691955 a50.29807937504839,50.29807937504839 0 0,0 -0.13728560327496755,-0.8548775826425786 l 28.96635451495867 -4.396334971356162" fill="#98ff23" stroke="none" /><path d="M 79.23777060512086 103.15116336523772 l -14.111239205849483 2.1417170178529368 a35.272842173486836,35.272842173486836 0 0,0 -0.08594135443562773,-0.6010736327572834 l 14.146014611301709 -1.8984979131152528" fill="#ffb010" stroke="none" /><path d="M 79.18660465613746 102.79330883721812 l -11.417041119473742 1.5322498480918354 a32.519401786583,32.519401786583 0 0,0 -0.069682095266266,-0.5554348600972213 l 11.441724723986857 -1.3354972337072055" fill="#ff8b0c" stroke="none" /><path d="M 79.1416061653843 102.43462659150553 l -15.884509542643437 1.8540665034986197 a36.99234835819074,36.99234835819074 0 0,0 -0.06837894406363364,-0.6331040981930093 l 15.914070788208123 -1.5803660834208284" fill="#ffc612" stroke="none" /><path d="M 79.10278846688536 102.07522291339032 l -19.12952620052138 1.899680779453042 a40.22361983915249,40.22361983915249 0 0,0 -0.06249103983094247,-0.6895834172400964 l 19.159391836629396 -1.5701159736643793" fill="#ffef16" stroke="none" /><path d="M 79.07016306316243 101.71520430193888 l -11.681115550167055 0.9572697438377169 a32.7202741375286,32.7202741375286 0 0,0 -0.04117058305523106,-0.561739895608064 l 11.69586269188662 -0.7560567117328921" fill="#ff8e0d" stroke="none" /><path d="M 79.04373962182676 101.35467743843564 l -28.928034163977568 1.8699975335796 a49.98841236369883,49.98841236369883 0 0,0 -0.048116582248056365,-0.8591538989307719 l 28.955937097113154 -1.3717719183133905" fill="#9cff22" stroke="none" /><path d="M 79.0235259727143 100.99374915477108 l -4.3445474876192405 0.20582059635325148 a25.349420075143566,25.349420075143566 0 0,0 -0.01689703878623626,-0.43603749076866744 l 4.347446659256677 -0.13100585857058727" fill="#ff2703" stroke="none" /><path d="M 79.0095281055655 100.63252640178507 l -12.63482680567651 0.38073758306935335 a33.640562072811605,33.640562072811605 0 0,0 -0.012459723002068778,-0.5789543683646879 l 12.639508591363587 -0.16319339891453652" fill="#ff9a0e" stroke="none" /><line stroke="#e1ed5e" stroke-width="0.3" x1="15.007084014347285" x2="10.007500721073583" y1="101.09737516637583" y2="101.16192664675087" /><path d="M 14.007167355692545 101.11028546245083 a86.0,86.0 0 0,1 10.666146001902534,-42.60595125391555" fill="none" id="id94" stroke="none" /><text fill="#e1ed5e" style="font-size:6.75px; font-family:Arial;" text-anchor="middle"><textPath startOffset="22.20632615414155" xlink:href="#id94">October</textPath></text><path d="M 79.00175016825051 100.2711162175752 l -7.213562870259595 0.09313699457316978 a28.21416410840133,28.21416410840133 0 0,0 -0.002090135789421274,-0.4856739478853872 l 7.214097303338519 0.03104643151589279" fill="#ff5007" stroke="none" /><path d="M 79.00019446554 99.90962569577889 l -2.6430692260211526 -0.01137465496611128 a23.643093701766105,23.643093701766105 0 0,0 0.005254388096253652,-0.40695814859367924 l 2.6424818308071836 0.05686906162026248" fill="#ff0f01" stroke="none" /><path d="M 79.00486145842228 99.54816195383935 l -23.693979916216467 -0.5099200260056195 a44.69946629574157,44.69946629574157 0 0,0 0.023176259366553792,-0.7691072174677016 l 23.681691962394268 0.9176973908983155" fill="#d9ff1c" stroke="none" /><path d="M 79.01574976396665 99.18683210126434 l -8.757382803856386 -0.33936035326186464 a29.763955672106377,29.763955672106377 0 0,0 0.02424542315465843,-0.5117825626744145 l 8.750243772468227 0.49005402255928815" fill="#ff6609" stroke="none" /><path d="M 79.03285615573316 98.82574320788736 l -13.732760824870892 -0.769097965504369 a34.754280481132106,34.754280481132106 0 0,0 0.03859282289937426,-0.5970138886655659 l 13.717487410967106 1.0053709184229467" fill="#ffa90f" stroke="none" /><path d="M 79.05617556472873 98.46500227214037 l -31.66393703491784 -2.3206874921008116 a52.74886610553572,52.74886610553572 0 0,0 0.07416369046200842,-0.9049848733759455 l 31.619298860636334 2.8653862826845353" fill="#7eff26" stroke="none" /><path d="M 79.08570108090925 98.10471618934814 l -12.132673738410219 -1.0994803223042722 a33.182390119424156,33.182390119424156 0 0,0 0.056446207228545056,-0.5684056036032576 l 12.111950405499446 1.3081614566119601" fill="#ff940d" stroke="none" /><path d="M 79.12142395522702 97.74499172005258 l -13.589384042180823 -1.467732927225897 a34.66841609666394,34.66841609666394 0 0,0 0.06918767050170865,-0.592757708660302 l 13.562106018675525 1.7014343742110607" fill="#ffa80f" stroke="none" /><path d="M 79.16333360222342 97.38593545837743 l -7.3195887880165635 -0.918279207659335 a28.3769652790885,28.3769652790885 0 0,0 0.0649751440578813,-0.48414029368406775 l 7.3026976449008485 1.0441378434080621" fill="#ff5207" stroke="none" /><path d="M 79.21141760316559 97.0276538004421 l -14.889997010792092 -2.128967968166788 a36.0414266474586,36.0414266474586 0 0,0 0.09309690417449128,-0.613392279736048 l 14.851144213178298 2.384959360294928" fill="#ffba11" stroke="none" /><path d="M 79.26566170972629 96.67025291283419 l -16.36856415064213 -2.6286432698580153 a37.578288747450884,37.578288747450884 0 0,0 0.10806109070067185,-0.6377826743029952 l 16.320891198421236 2.9100117324768386" fill="#ffce13" stroke="none" /><path d="M 79.32604984820605 96.31383870115002 l -2.752811557573276 -0.49082576634117697 a23.79622627918654,23.79622627918654 0 0,0 0.07537089355415333,-0.40263432717410536 l 2.743954940109261 0.538138170977855" fill="#ff1101" stroke="none" /><path d="M 79.3925641242962 95.95851677861259 l -31.448471088212795 -6.167602267837134 a53.04755297242499,53.04755297242499 0 0,0 0.18344526889733928,-0.8945442804046261 l 31.33764652340046 6.708022204405163" fill="#7aff26" stroke="none" /><path d="M 79.54389044137918 95.25157060432595 l -6.257132280332605 -1.4524536431235027 a27.423497953529917,27.423497953529917 0 0,0 0.11069586326542895,-0.4589058181156534 l 6.231203616806361 1.5599446928985528" fill="#ff4506" stroke="none" /><path d="M 79.62865764111835 94.90015583598534 l -26.158615772437294 -6.548653575968356 a47.96586810744368,47.96586810744368 0 0,0 0.20740365567528216,-0.7992108905926809 l 26.042015784891706 6.9979608921099015" fill="#b3ff20" stroke="none" /><path d="M 79.71946130924805 94.55025226153421 l -13.496670181093904 -3.626799510497024 a34.97547067781872,34.97547067781872 0 0,0 0.1612422984419612,-0.5800743378422131 l 13.432241112085583 3.8585851517581795" fill="#ffac0f" stroke="none" /><path d="M 79.81627453868168 94.20196356495316 l -15.029267735792626 -4.317351724348515 a36.63708459355107,36.63708459355107 0 0,0 0.1793369639636469,-0.6046350893050436 l 14.952724874717273 4.575416200400098" fill="#ffc212" stroke="none" /><path d="M 79.91906864156998 93.8553929516997 l -42.005234476085356 -12.85327135580829 a64.92773961788782,64.92773961788782 0 0,0 0.3362159826081541,-1.065896544170282 l 41.777763009709 13.574418066404988" fill="#35ff66" stroke="none" /><path d="M 80.02781315780177 93.51064311812611 l -2.849543174306423 -0.9258727025981939 a23.996187004119204,23.996187004119204 0 0,0 0.13102227338337777,-0.3917399205865659 l 2.833183607151273 0.974785726107082" fill="#ff1402" stroke="none" /><path d="M 80.14247586403 93.16781622104843 l -6.4687528966859835 -2.225640432722812 a27.840923868466444,27.840923868466444 0 0,0 0.15981607617867946,-0.45182156842139914 l 6.429483739697495 2.3366596275708225" fill="#ff4b07" stroke="none" /><path d="M 80.2630227832202 92.82701384747504 l -4.458056468461261 -1.620186159421643 a25.743339611199133,25.743339611199133 0 0,0 0.15494476207142213,-0.4151749286623436 l 4.429507117888211 1.6966842251133278" fill="#ff2d04" stroke="none" /><path d="M 80.38941819471856 92.48833698450439 l -16.788417907780175 -6.430657648953258 a38.97788457089196,38.97788457089196 0 0,0 0.24538703582089666,-0.6244832405206986 l 16.67523732207759 6.71868989436972" fill="#ffdf14" stroke="none" /><path d="M 80.52162464483688 92.15188598940014 l -4.138358836837335 -1.6674035373111231 a25.46164189717948,25.46164189717948 0 0,0 0.16729306657526122,-0.4051134302790029 l 4.109044083375874 1.7383915380434372" fill="#ff2904" stroke="none" /><path d="M 80.65960295795068 91.81776055985345 l -5.732872290233181 -2.425375945306797 a27.224811095302112,27.224811095302112 0 0,0 0.18630753700823696,-0.4300234823228549 l 5.690274043382263 2.5236985722162513" fill="#ff4206" stroke="none" /><path d="M 80.803312248108 91.48605970444005 l -26.529125020813936 -11.765956160764974 a50.02123702992378,50.02123702992378 0 0,0 0.3558598530903624,-0.7840900152735678 l 26.32266285076022 12.220868184880613" fill="#9bff22" stroke="none" /><path d="M 80.95270993114464 91.15688171328213 l -13.759973126974607 -6.388366510092637 a36.17063239032363,36.17063239032363 0 0,0 0.26704572265151527,-0.5624663970542099 l 13.64796921048134 6.624275322787379" fill="#ffbc11" stroke="none" /><path d="M 81.10775173730289 90.83032412892265 l -10.775504464370687 -5.230075420971626 a32.97769532801382,32.97769532801382 0 0,0 0.25226364525325906,-0.5085481154942796 l 10.683880806164016 5.414783124964867" fill="#ff910d" stroke="none" /><path d="M 81.26839172434947 90.50648371742162 l -14.769451261852232 -7.485423780797728 a37.55802704896814,37.55802704896814 0 0,0 0.2972280859359898,-0.5741500562287108 l 14.638413742756128 7.738546559286774" fill="#ffcd13" stroke="none" /><path d="M 81.43458229118936 90.18545643968196 l -2.4797754738369884 -1.3109246874758629 a23.80496166406551,23.80496166406551 0 0,0 0.19462471981594368,-0.36061004744670017 l 2.4568426548025726 1.353415718255036" fill="#ff1101" stroke="none" /><path d="M 81.6062741919709 89.86733742301443 l -3.834880706781955 -2.1125438440455406 a25.378258960849983,25.378258960849983 0 0,0 0.21407450724840352,-0.3808146613194832 l 3.7979485582411203 2.1782420152998085" fill="#ff2803" stroke="none" /><line stroke="#e1ed5e" stroke-width="0.3" x1="26.266209847984243" x2="21.928928074336255" y1="57.711370442889674" y2="55.22380399835377" /><path d="M 25.398753493254645 57.213857153982495 a86.0,86.0 0 0,1 29.58750427330803,-30.492523968695096" fill="none" id="id95" stroke="none" /><text fill="#e1ed5e" style="font-size:6.75px; font-family:Arial;" text-anchor="middle"><textPath startOffset="21.46611528233685" xlink:href="#id95">November</textPath></text><path d="M 81.78341655067845 89.55222093294921 l -13.573996381741415 -7.785110509219167 a36.64804535436563,36.64804535436563 0 0,0 0.3185593394767713,-0.5445211736928757 l 13.43797736779432 8.017611095265934" fill="#ffc212" stroke="none" /><path d="M 81.96595687620814 89.24020034530311 l -8.294724207836607 -4.948949609061406 a30.65891049327509,30.65891049327509 0 0,0 0.27430118683063415,-0.45087902850872086 l 8.208307222719755 5.090996410777201" fill="#ff720a" stroke="none" /><path d="M 82.15384107792192 88.93136811851018 l -53.53847676623425 -33.20589564446946 a84.0,84.0 0 0,0 0.7726896150161493,-1.222209409143138 l 52.95895955497213 34.12255270132681" fill="#4dd2ff" stroke="none" /><path d="M 82.34701348167596 88.62581576622439 l -6.016323179055603 -3.876441426921211 a28.157020520523375,28.157020520523375 0 0,0 0.26602131474132956,-0.40516871302439583 l 5.948705228956354 3.9794282039232742" fill="#ff4f07" stroke="none" /><path d="M 82.54541684631803 88.32363383020206 l -8.958688723154673 -5.992977833488253 a31.778399090359397,31.778399090359397 0 0,0 0.3080621226196157,-0.4520431520749419 l 8.854202134866318 6.146299008833611" fill="#ff810b" stroke="none" /><path d="M 82.7489923806493 88.02491185347247 l -13.565827726549367 -9.416956179638513 a37.51395608555526,37.51395608555526 0 0,0 0.3727947245850898,-0.5272917001987159 l 13.401720382160399 9.649074380169015" fill="#ffcd13" stroke="none" /><path d="M 82.95767976084542 87.72973835380427 l -10.453118304857842 -7.526117032149283 a33.88061022921514,33.88061022921514 0 0,0 0.344835862706491,-0.4703557291973208 l 10.322019829637718 7.704935205018105" fill="#ff9d0e" stroke="none" /><path d="M 83.17141714833178 87.43820079747576 l -3.4441468253958156 -2.5709045869150358 a25.29787130448375,25.29787130448375 0 0,0 0.2634882435907002,-0.346719642820616 l 3.3993826415810067 2.6298090056166785" fill="#ff2703" stroke="none" /><path d="M 83.39014120810768 87.1503855733568 l -1.4639494636323998 -1.1325313708837588 a22.850885014825458,22.850885014825458 0 0,0 0.24335748516105188,-0.3090392928149883 l 1.4442378978773767 1.1575630576517948" fill="#ff0300" stroke="none" /><path d="M 83.6137871275137 86.86637796730984 l -12.440933471278777 -9.971463157296784 a36.943867257792625,36.943867257792625 0 0,0 0.40198711318739067,-0.4927886692764459 l 12.267447866014994 10.184135996181313" fill="#ffc612" stroke="none" /><path d="M 83.84228863543731 86.58626213691792 l -13.188821181167953 -10.949037648689275 a38.14136603603224,38.14136603603224 0 0,0 0.4237131373004285,-0.5015427085604908 l 12.998397430380399 11.174439306878883" fill="#ffd513" stroke="none" /><path d="M 84.07557802195018 86.31012108654704 l -16.713837477805335 -14.368522233691046 a43.04102525779062,43.04102525779062 0 0,0 0.48781496244312916,-0.5576568294152875 l 16.464030651784363 14.654094619309276" fill="#ecff1a" stroke="none" /><path d="M 84.31358615837235 86.03803664274999 l -9.273056687080544 -8.253644139563686 a33.41419437194227,33.41419437194227 0 0,0 0.3861031789544453,-0.42634477369501045 l 9.129609867510053 8.412041700528253" fill="#ff970e" stroke="none" /><path d="M 84.5562425177563 85.77008943001954 l -8.725215461550368 -8.039431845807156 a32.86430989370456,32.86430989370456 0 0,0 0.3869110165054009,-0.41272969581748425 l 8.585537123074513 8.18843095850269" fill="#ff900d" stroke="none" /><path d="M 84.80347519578584 85.50635884689758 l -12.535769860475023 -11.955953895802375 a38.32311633492502,38.32311633492502 0 0,0 0.45939513846492386,-0.47344707216083187 l 12.32811045830698 12.16996516351333" fill="#ffd714" stroke="none" /><path d="M 85.05521093208273 85.24692304244772 l -5.286626647017084 -5.218809674384986 a28.428620041596247,28.428620041596247 0 0,0 0.3467807002525231,-0.3452915137190952 l 5.196010146597248 5.309037038754191" fill="#ff5307" stroke="none" /><path d="M 85.57189188830299 84.74124197986013 l -6.284853490409895 -6.646682840174288 a30.14755574860218,30.14755574860218 0 0,0 0.38013500405166295,-0.3532940576566616 l 6.169510602563376 6.753881483905597" fill="#ff6b09" stroke="none" /><path d="M 85.83668400450813 84.49514656593479 l -11.120391922935328 -12.173706139816098 a37.48824544026081,37.48824544026081 0 0,0 0.4801869579874088,-0.4311165920630262 l 10.909193977351949 12.363321740648402" fill="#ffcd13" stroke="none" /><path d="M 86.10567301691215 84.25364557470407 l -4.242474739072635 -4.807970257437857 a27.412111189622063,27.412111189622063 0 0,0 0.35649607419380747,-0.3091498825702185 l 4.159084866232054 4.880285133427756" fill="#ff4506" stroke="none" /><path d="M 86.37877921826538 84.01681056812374 l -1.8729649399700912 -2.197743793636129 a23.887572587628455,23.887572587628455 0 0,0 0.315250509666828,-0.26401323572665997 l 1.834856893344153 2.229658186756601" fill="#ff1202" stroke="none" /><path d="M 86.65592168130627 83.78471172551755 l -4.582327770879054 -5.56829508928153 a28.21135479650573,28.21135479650573 0 0,0 0.3776245692947066,-0.3053461396744748 l 4.485799803019847 5.646347326220139" fill="#ff5007" stroke="none" /><path d="M 86.93701828274178 83.55741782278169 l -13.176090069388513 -16.584953453170943 a42.18183255907017,42.18183255907017 0 0,0 0.5724023353833891,-0.4467691020621304 l 12.888655178845697 16.809300944456293" fill="#f7ff19" stroke="none" /><path d="M 87.22198572758235 83.33499621200491 l -5.435647241166042 -7.089136068643479 a29.93320273642874,29.93320273642874 0 0,0 0.4115870200225564,-0.30999881038720073 l 5.312814067385096 7.1816514685365345" fill="#ff6809" stroke="none" /><path d="M 87.51073957382395 83.11751280151077 l -8.82320950930931 -11.926864882912104 a35.83573833620721,35.83573833620721 0 0,0 0.4990633103973398,-0.36259071917080843 l 8.616600882558188 12.07697483689958" fill="#ffb711" stroke="none" /><path d="M 88.09926311788651 82.69761687909137 l -8.202875484199003 -11.926092957658465 a35.47476630015089,35.47476630015089 0 0,0 0.5060987357404905,-0.3417201255480605 l 7.996372054051974 12.065524995505191" fill="#ffb210" stroke="none" /><path d="M 88.39885842347998 82.49532879139004 l -6.634925362159721 -10.01127226938922 a33.01032085388529,33.01032085388529 0 0,0 0.476343605150849,-0.3098271311495108 l 6.461614731224585 10.123998324698267" fill="#ff920d" stroke="none" /><path d="M 88.70189139769569 82.29822771554957 l -1.638111606721624 -2.5665781467870823 a24.04478784476704,24.04478784476704 0 0,0 0.35080297528139676,-0.21967279093848482 l 1.593689479067985 2.594395279048497" fill="#ff1402" stroke="none" /><path d="M 89.00827224532344 82.1063720568725 l -3.7006772847940885 -6.024397979063416 a28.070246344812485,28.070246344812485 0 0,0 0.4138863370937773,-0.24936188709316998 l 3.5964288814826624 6.087206475615204" fill="#ff4e07" stroke="none" /><line stroke="#e1ed5e" stroke-width="0.3" x1="56.762969772571076" x2="54.21961505331055" y1="26.818313649435495" y2="22.513508569990535" /><path d="M 56.25429882871897 25.957352633546506 a86.0,86.0 0 0,1 42.265352541879196,-11.944610805530505" fill="none" id="id96" stroke="none" /><text fill="#e1ed5e" style="font-size:6.75px; font-family:Arial;" text-anchor="middle"><textPath startOffset="22.20632615414155" xlink:href="#id96">December</textPath></text><path d="M 89.3179101791058 81.91981866633112 l -8.573646936986309 -14.511494839554809 a37.85499641882254,37.85499641882254 0 0,0 0.5638650748724425,-0.32662704633834744 l 8.322585129648546 14.656926043283203" fill="#ffd113" stroke="none" /><path d="M 89.63071344664047 81.73862282372117 l -2.840927117222287 -5.0031640413203196 a26.753478713763492,26.753478713763492 0 0,0 0.40241806948579434,-0.22394521998004666 l 2.7543849586644473 5.051324658860551" fill="#ff3b05" stroke="none" /><path d="M 89.94658935756843 81.56283822128135 l -3.3863839484012006 -6.21036093343423 a28.073625602865576,28.073625602865576 0 0,0 0.4262578373992133,-0.22769217449491222 l 3.278981064473682 6.267731834430891" fill="#ff4e07" stroke="none" /><path d="M 90.26544431104013 81.39251694778311 l -1.2015374203345233 -2.2967239491818994 a23.592032613839926,23.592032613839926 0 0,0 0.36145186047461153,-0.18514968180152264 l 1.161825072271148 2.317066156295927" fill="#ff0e01" stroke="none" /><path d="M 90.58718382345135 81.22770947309562 l -1.8836974466833307 -3.7567201006248983 a25.202530426431252,25.202530426431252 0 0,0 0.3894735841629011,-0.19111299628352993 l 1.8187525955100037 3.788588257043258" fill="#ff2503" stroke="none" /><path d="M 90.91171255644093 81.06846463323043 l -7.5308632548795105 -15.687312371826193 a38.401312330251,38.401312330251 0 0,0 0.5983688623403397,-0.28094220411926685 l 7.259716181239563 15.814619558585468" fill="#ffd814" stroke="none" /><path d="M 91.23893434514133 80.91482961587045 l -7.033976832794105 -15.322867288118841 a37.86022218161987,37.86022218161987 0 0,0 0.5946180130628144,-0.2667877697622328 l 6.7691767012645165 15.441675388397602" fill="#ffd113" stroke="none" /><path d="M 91.56875222667455 80.76684994638697 l -2.866028188062182 -6.537911312875948 a28.1385153855545,28.1385153855545 0 0,0 0.44528027115652696,-0.19064577388014753 l 2.753064159115347 6.586276614718881" fill="#ff4f07" stroke="none" /><path d="M 91.90106846888425 80.62456947434976 l -1.1078680763948798 -2.650401582394605 a23.872629496237675,23.872629496237675 0 0,0 0.3805025794157602,-0.15521655599448064 l 1.0620816273907392 2.6690790245726626" fill="#ff1202" stroke="none" /><path d="M 92.23578459929587 80.48803036053334 l -1.567707783618352 -3.9397498779777194 a25.240204805884147,25.240204805884147 0 0,0 0.40506542563995396,-0.157159092079339 l 1.4996591929787217 3.9661516739476097" fill="#ff2603" stroke="none" /><path d="M 92.57280143429618 80.3572730644239 l -2.046368759763699 -5.412035561179697 a26.785996371966583,26.785996371966583 0 0,0 0.43268016148394745,-0.15935975501262903 l 1.9529062725071817 5.446458583998648" fill="#ff3c05" stroke="none" /><path d="M 92.91201910852362 80.23233633223022 l -1.1661535513514778 -3.252284612647947 a24.455035355390198,24.455035355390198 0 0,0 0.39747350752682314,-0.1386707021792052 l 1.1099980397613693 3.2718761679993618" fill="#ff1a02" stroke="none" /><path d="M 93.59665428221793 80.00007090966166 l -2.2515440898385664 -7.032374031514727 a28.384018913004603,28.384018913004603 0 0,0 0.46659897666783384,-0.14497457333812983 l 2.130159740460004 7.0700887397353815" fill="#ff5207" stroke="none" /><path d="M 94.28887869178378 79.79150937346287 l -0.6390473955112517 -2.2612342839790975 a23.349800429983826,23.349800429983826 0 0,0 0.38772022362572345,-0.10597858333320954 l 0.6000292826618057 2.271899408138603" fill="#ff0a01" stroke="none" /><path d="M 94.98787191387505 79.60689891045804 l -1.0200491056107408 -4.150325803644699 a25.273839544748526,25.273839544748526 0 0,0 0.4233684805405783,-0.10019764085695348 l 0.9484569381076284 4.167269356642524" fill="#ff2603" stroke="none" /><path d="M 95.33964822691252 79.52364482259891 l -3.2123059653821153 -14.114024238576237 a35.47496424252395,35.47496424252395 0 0,0 0.596582939649572,-0.13038992357402773 l 2.9688803015790226 14.167227660246132" fill="#ffb210" stroke="none" /><path d="M 96.40284397218896 79.31037775812273 l -3.4349234590255797 -19.756515493782455 a41.052895143231325,41.052895143231325 0 0,0 0.697255652430162,-0.11505315696794287 l 3.094338600456532 19.812714913690026" fill="#fff917" stroke="none" /><path d="M 96.75951476605007 79.25152402106235 l -3.0094945090282947 -19.26946738566232 a40.503062080785554,40.503062080785554 0 0,0 0.6897691137006224,-0.10165403714419528 l 2.677356414899023 19.318415906967484" fill="#fff316" stroke="none" /><path d="M 97.11714578562143 79.19881850522333 l -1.4877101540192303 -10.734545219466451 a31.83714642196653,31.83714642196653 0 0,0 0.5434832418387503,-0.0705597228641537 l 1.302712183672622 10.758563265494741" fill="#ff820c" stroke="none" /><path d="M 97.47563105711357 79.15227682838746 l -0.8379637485653979 -6.920397395621155 a27.970945657314353,27.970945657314353 0 0,0 0.4784807149727416,-0.053762883427771316 l 0.7187163300829383 6.933796232519525" fill="#ff4d07" stroke="none" /><path d="M 97.83486435360386 79.11191278185805 l -0.4075543684001108 -3.931869676362383 a24.952935581956787,24.952935581956787 0 0,0 0.42761592958486755,-0.040607285060054746 l 0.3398133117250069 3.938302505937618" fill="#ff2203" stroke="none" /><path d="M 98.19473922651362 79.07773832637324 l -0.4893032124620513 -5.670831604625492 a26.691902030230757,26.691902030230757 0 0,0 0.45809635029879026,-0.03555709338033139 l 0.3916166728009269 5.678413960194285" fill="#ff3b05" stroke="none" /><path d="M 98.55514903715128 79.0497635885617 l -0.19692805008212466 -2.8554427490083345 a23.86222534922976,23.86222534922976 0 0,0 0.41001888119729896,-0.024733458626814663 l 0.1477471200452027 2.8584094770154556" fill="#ff1202" stroke="none" /><path d="M 98.91598698831166 79.02799685794201 l -1.2515620039147013 -24.21351219548456 a45.2458363495781,45.2458363495781 0 0,0 0.778140409231547,-0.03350836288334635 l 0.8345807622938302 24.2314682848921" fill="#d2ff1c" stroke="none" /><path d="M 99.63851952072746 79.00311137660856 l -0.09485476524602393 -5.509716445205559 a26.51053289011675,26.51053289011675 0 0,0 0.45633524451855834,-0.003927821519749515 l 1.3496912930955381e-15 5.51053289011675" fill="#ff3805" stroke="none" /></svg>