<?xml version="1.0" encoding="utf-8" ?>
<svg baseProfile="full" height="200mm" version="1.1" viewBox="0,0,200,200" width="200mm" xmlns="http://www.w3.org/2000/svg" xmlns:ev="http://www.w3.org/2001/xml-events" xmlns:xlink="http://www.w3.org/1999/xlink"><defs /><rect fill="#1a1a1a" height="200" width="200" x="0" y="0" /><text alignment-baseline="middle" fill="#e1ed5e" style="dominant-baseline: central; font-size:9.0px; font-family:Arial;" text-anchor="middle" x="100.0" y="100.0">2023</text><line stroke="#e1ed5e" stroke-width="0.3" x1="100.0" x2="100.0" y1="15.0" y2="10.0" /><path d="M 100.0 14.0 a86.0,86.0 0 0,1 42.46469731375804,11.215312516191453" fill="none" id="id61" stroke="none" /><text fill="#e1ed5e" style="font-size:6.75px; font-family:Arial;" text-anchor="middle"><textPath startOffset="22.20632615414155" xlink:href="#id61">January</textPath></text><path d="M 109.41281617654863 81.2277094730956 l 9.007055469140553 -17.963068532020028 a41.09474755527481,41.09474755527481 0 0,0 0.6296097162427283,0.32251055083357777 l -9.314925672972036 17.805365455873947" fill="#ffd914" stroke="none" /><path d="M 109.73455568895987 81.39251694778311 l 6.604588261110408 -12.624588945015715 a35.2478360507626,35.2478360507626 0 0,0 0.5351879582830298,0.2858788725820604 l -6.820921265921749 12.5090313459319" fill="#ff880c" stroke="none" /><path d="M 110.36928655335952 81.73862282372117 l 7.913233699633427 -13.93601618871532 a37.02597313105041,37.02597313105041 0 0,0 0.5515164466211203,0.319473923806384 l -8.151946878719876 13.797738107518885" fill="#ffa20e" stroke="none" /><line stroke="#e1ed5e" stroke-width="0.3" x1="143.23703022742887" x2="145.7803849466894" y1="26.81831364943548" y2="22.513508569990506" /><path d="M 143.74570117128098 25.957352633546492 a86.0,86.0 0 0,1 28.547481713284135,27.462654790039103" fill="none" id="id62" stroke="none" /><text fill="#e1ed5e" style="font-size:6.75px; font-family:Arial;" text-anchor="middle"><textPath startOffset="19.985693538727396" xlink:href="#id62">February</textPath></text><path d="M 110.68208982089419 81.91981866633111 l 8.91279907950917 -15.085533472381298 a38.52173814374693,38.52173814374693 0 0,0 0.56799006688262,0.34220766001254305 l -9.171151212609429 14.92987920291014" fill="#ffb610" stroke="none" /><path d="M 111.2981086023043 82.29822771554956 l 9.477222091092155 -14.848824104192142 a38.61548511512308,38.61548511512308 0 0,0 0.5572269192961241,0.3624358885853567 l -9.73141603617256 14.683489291447257" fill="#ffb811" stroke="none" /><path d="M 111.60114157652 82.49532879139004 l 8.597746380662725 -12.972923615820829 a36.563354071925524,36.563354071925524 0 0,0 0.5216290112714448,0.3522062369122118 l -8.819780086340712 12.823005466609947" fill="#ff9b0e" stroke="none" /><path d="M 111.90073688211348 82.69761687909136 l 10.74202218604331 -15.617737388645992 a39.955335971334236,39.955335971334236 0 0,0 0.5633109899326327,0.3946353472816224 l -11.009264315559593 15.430517198600434" fill="#ffca12" stroke="none" /><path d="M 112.19680574252982 82.90503203632743 l 10.951760589569004 -15.349920329686373 a39.856328225265806,39.856328225265806 0 0,0 0.5550557077342702,0.40327157708105893 l -11.214361613657063 15.15912951778864" fill="#ffc912" stroke="none" /><path d="M 113.6212207817346 84.01681056812373 l 10.325665041545559 -12.116172479226814 a36.91920205589995,36.91920205589995 0 0,0 0.48013633478473383,0.416369498183312 l -10.532695174977057 11.936637987623829" fill="#ffa00e" stroke="none" /><path d="M 114.42810811169701 84.74124197986012 l 11.635527529037414 -12.305403981435486 a37.9354205151604,37.9354205151604 0 0,0 0.4706101288004054,0.45272657104207364 l -11.84562090145024 12.10329432363111" fill="#ffae10" stroke="none" /><path d="M 114.94478906791727 85.2469230424477 l 11.32813673084918 -11.182819122865258 a36.91798119509931,36.91798119509931 0 0,0 0.44255119898776657,0.45608791190554004 l -11.518952193540056 10.986167015409602" fill="#ffa00e" stroke="none" /><path d="M 115.19652480421416 85.50635884689758 l 13.301551922005345 -12.686316300648095 a39.381346653983044,39.381346653983044 0 0,0 0.46363599036541797,0.4945745484372578 l -13.517955234341226 12.455472335332782" fill="#ffc212" stroke="none" /><path d="M 115.4437574822437 85.77008943001954 l 13.603606457248086 -12.53439155195318 a39.49781284966839,39.49781284966839 0 0,0 0.4563997842728428,0.5039680410484588 l -13.817349882136964 12.298370723635172" fill="#ffc412" stroke="none" /><path d="M 115.68641384162765 86.03803664274999 l 11.43776685411854 -10.180381782494248 a36.31217436703597,36.31217436703597 0 0,0 0.4115520452635458,0.47047513170078853 l -11.611310762959933 9.981991094590512" fill="#ff980e" stroke="none" /><path d="M 116.38621287248628 86.86637796730983 l 12.131077494656525 -9.723112222691295 a36.54676662449176,36.54676662449176 0 0,0 0.38921596300248995,0.49426474751328103 l -12.296647538252978 9.512855081224975" fill="#ff9b0e" stroke="none" /><path d="M 116.60985879189232 87.15038557335679 l 12.33328045356316 -9.541194806622851 a36.59308196233734,36.59308196233734 0 0,0 0.3811327355482945,0.501526004104468 l -12.495689129335569 9.327484026637348" fill="#ff9b0e" stroke="none" /><path d="M 116.82858285166822 87.43820079747576 l 14.28853151537882 -10.665762255633751 a38.83032858249324,38.83032858249324 0 0,0 0.3952139517361698,0.5390713860177634 l -14.470008079628615 10.418228425944495" fill="#ffbb11" stroke="none" /><path d="M 117.04232023915458 87.72973835380427 l 14.279205736422565 -10.280853077928993 a38.59521686348438,38.59521686348438 0 0,0 0.3835397473972169,0.5424897729546704 l -14.454058103623664 10.03353680464253" fill="#ffb711" stroke="none" /><path d="M 117.2510076193507 88.02491185347247 l 23.82022194739192 -16.535222972709132 a49.9968372823696,49.9968372823696 0 0,0 0.4846729935538944,0.7111978125341565 l -24.101319406614547 16.122747136904568" fill="#b3ff20" stroke="none" /><path d="M 117.65298651832404 88.62581576622439 l 12.989581371423846 -8.36945586996468 a36.45241132523101,36.45241132523101 0 0,0 0.3353142818250487,0.5303866679482688 l -13.13172324949485 8.144621554302205" fill="#ff9a0e" stroke="none" /><line stroke="#e1ed5e" stroke-width="0.3" x1="172.23445277983987" x2="176.4835382374775" y1="55.19839476539836" y2="52.563006222186495" /><path d="M 173.08426987136738 54.67131705675599 a86.0,86.0 0 0,1 12.851231095245387,41.99856678651699" fill="none" id="id63" stroke="none" /><text fill="#e1ed5e" style="font-size:6.75px; font-family:Arial;" text-anchor="middle"><textPath startOffset="22.20632615414155" xlink:href="#id63">March</textPath></text><path d="M 117.84615892207809 88.93136811851018 l 12.81145358620847 -7.945982338927962 a36.075542388986506,36.075542388986506 0 0,0 0.32276307062601045,0.5305376232739537 l -12.946332455120706 7.724276942446926" fill="#ff940d" stroke="none" /><path d="M 118.03404312379186 89.2402003453031 l 15.284405169671349 -9.1192605195622 a38.79814467337318,38.79814467337318 0 0,0 0.3372488551726132,0.5764676143125945 l -15.439113699314289 8.85481349289571" fill="#ffba11" stroke="none" /><path d="M 118.3937258080291 89.86733742301442 l 25.541304940254733 -14.070092565070535 a50.160345725672286,50.160345725672286 0 0,0 0.4101011953095061,0.7598552313311797 l -25.779714234782702 13.628356350406897" fill="#b1ff20" stroke="none" /><path d="M 118.56541770881063 90.18545643968196 l 15.698333349947436 -8.298869376600901 a38.75693957009361,38.75693957009361 0 0,0 0.30671608362537967,0.5924778477955939 l -15.838858866732933 8.027418806544961" fill="#ffba11" stroke="none" /><path d="M 119.04729006885535 91.15688171328212 l 16.217474186869243 -7.529314775374605 a38.88007410466871,38.88007410466871 0 0,0 0.2765996660728989,0.6094506995165038 l -16.344676169905487 7.249042067016038" fill="#ffbb11" stroke="none" /><path d="M 119.196687751892 91.48605970444005 l 16.029240141240233 -7.109142749496544 a38.53500641968136,38.53500641968136 0 0,0 0.2637065913704833,0.608671171084241 l -16.149237442453394 6.832172433825701" fill="#ffb710" stroke="none" /><path d="M 119.34039704204932 91.81776055985345 l 12.966488085107928 -5.485663504192386 a35.079144766017365,35.079144766017365 0 0,0 0.23048386763285492,0.5581349672893484 l -13.058993639626982 5.261653966449734" fill="#ff860c" stroke="none" /><path d="M 119.47837535516314 92.15188598940014 l 27.974602056868346 -11.271364389498139 a51.159940574228415,51.159940574228415 0 0,0 0.322079720551519,0.8196577578891279 l -28.164475327301567 10.788157626713227" fill="#a5ff21" stroke="none" /><path d="M 119.7369772167798 92.82701384747503 l 17.183827462635342 -6.245097974378267 a39.28346725802314,39.28346725802314 0 0,0 0.22550004538397178,0.6375189944631742 l -17.288780588829123 5.948381353488478" fill="#ffc111" stroke="none" /><path d="M 119.85752413597 93.16781622104841 l 17.210473134350778 -5.921438874829278 a39.20065448978551,39.20065448978551 0 0,0 0.21404062522460088,0.6399542258165536 l -17.30985105334715 5.62431154609041" fill="#ffc011" stroke="none" /><path d="M 119.97218684219823 93.5106431181261 l 16.832837115754103 -5.469320322388814 a38.69909235397127,38.69909235397127 0 0,0 0.20039590841152935,0.6353097927847728 l -16.924488507933837 5.178760363177623" fill="#ffb911" stroke="none" /><path d="M 120.08093135843002 93.85539295169968 l 15.12055294351111 -4.626770269392544 a36.81259385563473,36.81259385563473 0 0,0 0.18019607430386822,0.6075315822856312 l -15.19795491492668 4.365809300360383" fill="#ff9f0e" stroke="none" /><path d="M 120.18372546131832 94.20196356495316 l 17.145825314151196 -4.925360289452926 a38.83924044583479,38.83924044583479 0 0,0 0.17905487125289493,0.6441556395751298 l -17.228066955970455 4.629493346458844" fill="#ffbb11" stroke="none" /><path d="M 120.37134235888165 94.90015583598534 l 17.28001208331704 -4.325948051174224 a38.81327157321307,38.81327157321307 0 0,0 0.15667106399893388,0.6495027065924395 l -17.351915947576792 4.0278601129223786" fill="#ffba11" stroke="none" /><path d="M 120.53481517161879 95.60439243477599 l 14.80281183705991 -3.1686358583591194 a36.1381468973676,36.1381468973676 0 0,0 0.124970365334005,0.6093998836905017 l -14.855161498308911 2.9133603185052057" fill="#ff950d" stroke="none" /><path d="M 120.6074358757038 95.95851677861258 l 17.016757103366885 -3.3372875077954767 a38.34092010894102,38.34092010894102 0 0,0 0.12143897836553004,0.6487318783315814 l -17.071681805642275 3.0438775520013324" fill="#ffb410" stroke="none" /><path d="M 120.83666639777658 97.38593545837742 l 17.686372810427688 -2.2188443751535076 a38.825012021050256,38.825012021050256 0 0,0 0.07748297849683967,0.663826841703379 l -17.721946141928115 1.9140737951252758" fill="#ffbb11" stroke="none" /><path d="M 120.98425023603335 99.18683210126433 l 19.651549078903034 -0.7615239377936972 a40.66629858179641,40.66629858179641 0 0,0 0.021085099253169867,0.6997117938729269 l -19.66174587261185 0.4231419964957711" fill="#ffd413" stroke="none" /><line stroke="#e1ed5e" stroke-width="0.3" x1="184.98032266829074" x2="189.97916517819016" y1="98.17113171792111" y2="98.06355123074" /><path d="M 185.9800911702706 98.14961562048488 a86.0,86.0 0 0,1 -9.607161424134198,41.387399972396054" fill="none" id="id64" stroke="none" /><text fill="#e1ed5e" style="font-size:6.75px; font-family:Arial;" text-anchor="middle"><textPath startOffset="21.466115282336823" xlink:href="#id64">April</textPath></text><path d="M 120.99513854157772 99.54816195383933 l 28.674186810254458 -0.6170994546158279 a49.680826364773,49.680826364773 0 0,0 0.011040955382400245,0.8551341619266317 l -28.680560772754575 0.12342903462873346" fill="#b7ff1f" stroke="none" /><path d="M 120.99980553446 99.90962569577887 l 18.009318576951486 -0.07750450989738251 a39.0094853495369,39.0094853495369 0 0,0 -0.0028898648615889072,0.6715028197147529 l -18.007984414800394 -0.23250778802105512" fill="#ffbd11" stroke="none" /><path d="M 120.99824983174949 100.27111621757518 l 17.621128534039872 0.22751294778537387 a38.622597224999616,38.622597224999616 0 0,0 -0.014304959055154857,0.6646952370357767 l -17.61460151229971 -0.5307980006112654" fill="#ffb811" stroke="none" /><path d="M 120.9904718944345 100.63252640178507 l 17.510271579384582 0.5276541247900277 a38.5182199340918,38.5182199340918 0 0,0 -0.02567490121169304,0.662555116414887 l -17.498594545321687 -0.8289864882189208" fill="#ffb610" stroke="none" /><path d="M 120.9764740272857 100.99374915477107 l 28.953314134865565 1.3716476568901612 a49.9857864596919,49.9857864596919 0 0,0 -0.04811405467176672,0.8591087673581255 l -28.92541372930627 -1.86982814058371" fill="#b3ff20" stroke="none" /><path d="M 120.95626037817324 101.35467743843564 l 14.789247965317639 0.9560226962494175 a35.82011588265746,35.82011588265746 0 0,0 -0.045070987174382175,0.6149578109284152 l -14.770600419478919 -1.210453643674603" fill="#ff910d" stroke="none" /><path d="M 120.89721153311464 102.0752229133903 l 18.409861426542545 1.8282135970227738 a39.50041520347146,39.50041520347146 0 0,0 -0.07301500990245817,0.676028310057407 l -18.375664115139035 -2.1448382289649723" fill="#ffc412" stroke="none" /><path d="M 120.8583938346157 102.4346265915055 l 29.486702602978518 3.441737212473573 a50.686885748360766,50.686885748360766 0 0,0 -0.10861111236446083,0.8657374289714418 l -29.42308998136721 -3.9487923957324096" fill="#abff21" stroke="none" /><path d="M 120.76222939487914 103.15116336523771 l 16.43006433081355 2.4936540206288265 a37.61822265735027,37.61822265735027 0 0,0 -0.10267669175074991,0.6393678575444758 l -16.38470588470151 -2.776101107866507" fill="#ffaa0f" stroke="none" /><path d="M 120.70491114924044 103.5080841355445 l 14.789069797210981 2.505748552171856 a35.999845374986016,35.999845374986016 0 0,0 -0.10877706020390313,0.6100795212124284 l -14.743746294667888 -2.759946824117503" fill="#ff930d" stroke="none" /><path d="M 120.5718875245553 104.21870165774334 l 17.058307836139367 3.4981676552877685 a38.41330075479647,38.41330075479647 0 0,0 -0.13840853939898812,0.646598617496714 l -16.995565258015933 -3.7912800922006515" fill="#ffb510" stroke="none" /><path d="M 120.49622156327973 104.57218783832717 l 17.799217099920444 3.9705544607207512 a39.2367056261719,39.2367056261719 0 0,0 -0.15272314822060878,0.6579273253982394 l -17.72823338576928 -4.276350443467556" fill="#ffc011" stroke="none" /><path d="M 120.41448212921028 104.9243191809786 l 19.678473246644852 4.746781360775871 a41.24288128221688,41.24288128221688 0 0,0 -0.17241230202145977,0.6887014423196043 l -19.593849630328332 -5.084810642492871" fill="#ffdb14" stroke="none" /><path d="M 120.32669344350535 105.2749913415812 l 14.896597996219674 3.8658242998288497 a36.390036691903084,36.390036691903084 0 0,0 -0.16256282590765417,0.6049567500579927 l -14.827847093970243 -4.121671983062391" fill="#ff990e" stroke="none" /><path d="M 120.13307415673323 105.97154293290107 l 17.078138690949032 5.0654379759950565 a38.813519670069226,38.813519670069226 0 0,0 -0.19549672599523457,0.6388946119172909 l -16.988415192447665 -5.358659560464405" fill="#ffba11" stroke="none" /><path d="M 120.02730092923936 106.31721596034902 l 14.631063011723318 4.6150794408640845 a36.3416740644072,36.3416740644072 0 0,0 -0.19331650495410319,0.594967024761506 l -14.549454255752968 -4.866245365603386" fill="#ff980e" stroke="none" /><path d="M 119.9155931802556 106.66101706037122 l 15.295392322883167 5.115733600584033 a37.128228563083354,37.128228563083354 0 0,0 -0.20793429094543037,0.6043543813714958 l -15.205067200994506 -5.378260685044829" fill="#ffa30f" stroke="none" /><path d="M 119.41010516605496 108.01547362559984 l 13.768628854842262 5.685805434978575 a35.89642655091572,35.89642655091572 0 0,0 -0.24076078373327758,0.5690873731596828 l -13.668717089916676 -5.921967333804421" fill="#ff920d" stroke="none" /><path d="M 119.26925614724726 108.34839909993367 l 16.677682664886124 7.225600712584063 a39.17565417607681,39.17565417607681 0 0,0 -0.27340673242802843,0.6164600043557985 l -16.550834847726822 -7.511609053432549" fill="#ffbf11" stroke="none" /><path d="M 119.12269723197855 108.67885076344098 l 14.181435966186578 6.436255558970297 a36.573647988940365,36.573647988940365 0 0,0 -0.26511607517531327,0.5710364400943571 l -14.068545274171433 -6.679412066343485" fill="#ff9b0e" stroke="none" /><line stroke="#e1ed5e" stroke-width="0.3" x1="174.80103733775053" x2="179.2010983576182" y1="140.37084112569926" y2="142.7455964860345" /><path d="M 175.68104954172406 140.8457921977663 a86.0,86.0 0 0,1 -30.038265399797805,32.042727171017184" fill="none" id="id65" stroke="none" /><text fill="#e1ed5e" style="font-size:6.75px; font-family:Arial;" text-anchor="middle"><textPath startOffset="22.206326154141568" xlink:href="#id65">May</textPath></text><path d="M 118.30583269289576 110.29060199501025 l 15.56931447825841 8.752271547477111 a38.86073376330559,38.86073376330559 0 0,0 -0.33281073311353987,0.5802835658836355 l -15.41635174899249 -9.018974959219062" fill="#ffbb11" stroke="none" /><path d="M 118.12598468904814 110.60418214915192 l 16.944927597710613 9.913232402699927 a40.63167715610652,40.63167715610652 0 0,0 -0.35836969817935216,0.6006482275351201 l -16.771777023833035 -10.203442724121151" fill="#ffd313" stroke="none" /><path d="M 117.94076556474637 110.91462005526583 l 12.908852136720295 7.8533558622920605 a36.110051680504114,36.110051680504114 0 0,0 -0.32763055755015874,0.5282447786114493 l -12.771756939502172 -8.074396972268783" fill="#ff950d" stroke="none" /><path d="M 117.75023020441432 111.22182372390056 l 14.625479482652807 9.246333751268063 a38.303159767433726,38.303159767433726 0 0,0 -0.3571224952264455,0.5542620432419396 l -14.464152124049312 -9.496717394431457" fill="#ffb310" stroke="none" /><path d="M 117.55443506779139 111.5257021239791 l 15.319737228143524 10.058468257584936 a39.326678161309275,39.326678161309275 0 0,0 -0.37640667547310375,0.562676908303909 l -15.144327447259698 -10.320682080094652" fill="#ffc112" stroke="none" /><path d="M 117.14729908036423 112.12312394758627 l 14.377715905349792 10.165031308244705 a38.60813948583278,38.60813948583278 0 0,0 -0.3883247256280613,0.5393490800570753 l -14.200611387346129 -10.411013993752912" fill="#ffb811" stroke="none" /><line stroke="#e1ed5e" stroke-width="0.3" x1="143.8653032363475" x2="146.44561519142675" y1="172.8068346515853" y2="177.08958963109032" /><path d="M 144.38136562736335 173.6633856474863 a86.0,86.0 0 0,1 -40.68145358897372,12.25698825130547" fill="none" id="id66" stroke="none" /><text fill="#e1ed5e" style="font-size:6.75px; font-family:Arial;" text-anchor="middle"><textPath startOffset="21.466115282336833" xlink:href="#id66">June</textPath></text><path d="M 109.2508944713604 118.85261126421891 l 7.259713960117279 14.794738563198372 a37.47991917262068,37.47991917262068 0 0,0 -0.5816300410824895,0.2792177653189835 l -7.003971251034557 -14.917510605016917" fill="#ffa80f" stroke="none" /><path d="M 108.92500713936063 119.00905698771935 l 6.850148554150499 14.589889084337303 a37.117983704768875,37.117983704768875 0 0,0 -0.5806878847428564,0.2665653269432515 l -6.597992673640223 -14.705641481614629" fill="#ffa30f" stroke="none" /><path d="M 108.59647513512805 119.15986991738527 l 7.608512105525145 16.957892614731737 a39.58654293817696,39.58654293817696 0 0,0 -0.6241088537430233,0.27359098061240805 l -7.315482577124368 -17.0863481486386" fill="#ffc512" stroke="none" /><path d="M 108.2653958097858 119.30500536409082 l 7.590105495891546 17.727768964036915 a40.284281005031886,40.284281005031886 0 0,0 -0.6398074975620207,0.26743958587084915 l -7.283826538832065 -17.85579359292774" fill="#ffcf13" stroke="none" /><path d="M 107.93186726928326 119.44442032107085 l 6.9871011895986115 17.128392060030787 a39.49868637487041,39.49868637487041 0 0,0 -0.6317512513024415,0.25138686075316385 l -6.691228862254304 -17.246125765190023" fill="#ffc412" stroke="none" /><path d="M 107.59598834532513 119.57807347666477 l 6.1892812859942925 15.952394642563913 a38.11099347405816,38.11099347405816 0 0,0 -0.6136410385709473,0.23202653361110032 l -5.91377002666307 -16.056569426281644" fill="#ffb110" stroke="none" /><path d="M 107.2578585660854 119.70592522655815 l 5.481117121500813 14.881866761501133 a36.859148880273544,36.859148880273544 0 0,0 -0.5972593988473095,0.2141559709550655 l -5.224138162023769 -14.974010273496159" fill="#ff9f0e" stroke="none" /><path d="M 106.91757812671514 119.82793768551818 l 6.097397320885366 17.477043541504642 a39.510140600232866,39.510140600232866 0 0,0 -0.6440722373031157,0.21850427221648788 l -5.795655350645024 -17.57941080061925" fill="#ffc412" stroke="none" /><path d="M 106.57524785965236 119.94407469862006 l 5.03854377391337 15.282936178851235 a37.09208071097337,37.09208071097337 0 0,0 -0.6080957930929614,0.19469306991614294 l -4.774726635729468 -15.367402095427085" fill="#ffa30f" stroke="none" /><path d="M 105.18746579009965 120.34920634021253 l 3.8350681676140637 15.04406903665771 a36.525197616454676,36.525197616454676 0 0,0 -0.6105738403505481,0.15006419477043342 l -3.5755410425203045 -15.107854489742174" fill="#ff9b0e" stroke="none" /><path d="M 104.48393922423573 120.51570834832081 l 4.4134714099320025 20.193291595126464 a41.66997231086903,41.66997231086903 0 0,0 -0.7020567621708026,0.14712282048293182 l -4.065223186331822 -20.266270396335937" fill="#ffe115" stroke="none" /><path d="M 104.13013068566511 120.58985236759428 l 3.088298774170132 15.396029972583154 a36.702717224583125,36.702717224583125 0 0,0 -0.6205072975211401,0.11892170038974152 l -2.8228238620772874 -15.446908871321362" fill="#ff9d0e" stroke="none" /><path d="M 103.7750983002368 120.6578951692458 l 3.79978375922985 20.79297764486 a42.13731950736788,42.13731950736788 0 0,0 -0.7146309372361869,0.12424774862908355 l -3.441303850521613 -20.855303972010088" fill="#ffe715" stroke="none" /><path d="M 103.41894727170886 120.7198165907248 l 2.58376661824932 15.658378497485629 a36.870118686011764,36.870118686011764 0 0,0 -0.6270801951971842,0.09793702993423051 l -2.313850559443619 -15.700533834766965" fill="#ff9f0e" stroke="none" /><path d="M 103.06178313531738 120.77559828337769 l 3.1784570633558458 21.567284223218 a42.80023711037714,42.80023711037714 0 0,0 -0.7297876761738306,0.10114192207724293 l -2.806740795995185 -21.618800710787845" fill="#fff016" stroke="none" /><path d="M 102.70371172650421 120.8252237178851 l 2.540742828497884 19.569962764297028 a40.734204233171795,40.734204233171795 0 0,0 -0.6961137544337969,0.0842896813212406 l -2.2035016510127066 -19.61079797434362" fill="#ffd513" stroke="none" /><path d="M 101.98527174616119 120.90594882070398 l 1.7583876695539855 18.51674094376994 a39.60004361218343,39.60004361218343 0 0,0 -0.6791514630766965,0.05860004595457803 l -1.4393918887357473 -18.54426524200318" fill="#ffc512" stroke="none" /><line stroke="#e1ed5e" stroke-width="0.3" x1="102.19456741930631" x2="102.32365962044197" y1="184.97166512339345" y2="189.96999836594603" /><path d="M 102.22038585953345 185.97133177190398 a86.0,86.0 0 0,1 -42.740103519485714,-10.115201625700543" fill="none" id="id67" stroke="none" /><text fill="#e1ed5e" style="font-size:6.75px; font-family:Arial;" text-anchor="middle"><textPath startOffset="22.20632615414155" xlink:href="#id67">July</textPath></text><path d="M 100.54218724476979 120.99299961872073 l 0.4752991154678444 18.40315176361492 a39.409288527365945,39.409288527365945 0 0,0 -0.6782907364971653,0.011677390155889863 l -0.1584486890780112 -18.408606631049967" fill="#ffc312" stroke="none" /><path d="M 100.18074693466247 120.99922214144158 l 0.18157290016670266 21.095183011467363 a42.09596442463288,42.09596442463288 0 0,0 -0.7246396696583017,0.0 l 0.18157290016668814 -21.095183011467363" fill="#ffe715" stroke="none" /><path d="M 99.45781275523022 120.99299961872073 l -0.4723403655744334 18.288591644425143 a39.29469020665527,39.29469020665527 0 0,0 -0.6760177075673459,-0.023283416715505236 l 0.7870784248164223 -18.277751429283544" fill="#ffc111" stroke="none" /><path d="M 98.01472825383883 120.90594882070398 l -1.7228210308434522 18.142205654057392 a39.22382337212552,39.22382337212552 0 0,0 -0.6716003962436198,-0.06961412707899099 l 2.0348540236926653 -18.10986215852264" fill="#ffc011" stroke="none" /><path d="M 97.65516085044442 120.86867818915974 l -2.0178876954396165 17.958864660706368 a39.07187568164895,39.07187568164895 0 0,0 -0.6677059386709101,-0.08084989045023643 l 2.3267210571619157 -17.921469241530783" fill="#ffbe11" stroke="none" /><path d="M 97.2962882734958 120.8252237178851 l -2.3428464345672584 18.04567427001427 a39.19712310436514,39.19712310436514 0 0,0 -0.6683509091144401,-0.0926273459759036 l 2.6531259348685294 -18.002672358545762" fill="#ffc011" stroke="none" /><path d="M 96.93821686468263 120.77559828337769 l -2.299826039145962 15.605371053164287 a36.77392803068632,36.77392803068632 0 0,0 -0.6254442022286963,-0.09768152147844744 l 2.5681061049831753 -15.563471224338734" fill="#ff9e0e" stroke="none" /><path d="M 96.22490169976321 120.6578951692458 l -3.283297576876205 17.966689012652463 a39.264226155402476,39.264226155402476 0 0,0 -0.6638129463785231,-0.1272213310615686 l 3.5920781378264235 -17.907510483242426" fill="#ffc111" stroke="none" /><path d="M 95.51606077576429 120.51570834832081 l -4.456531263302623 20.39030661899178 a41.87163805064887,41.87163805064887 0 0,0 -0.7028051773699449,-0.15995617023218445 l 4.806856590065431 -20.31057371518191" fill="#ffe415" stroke="none" /><path d="M 95.16358092515715 120.4354850818985 l -4.795727376960534 20.263549074666077 a41.82331438977785,41.82331438977785 0 0,0 -0.6991398636992157,-0.1718315685088932 l 5.14382052540296 -20.177996247843154" fill="#ffe315" stroke="none" /><path d="M 94.81253420990036 120.34920634021253 l -4.6315716558195925 18.168564597308386 a39.74961854357467,39.74961854357467 0 0,0 -0.6615653131227142,-0.1747254120692718 l 4.943627411753797 -18.086147835935535" fill="#ffc712" stroke="none" /><path d="M 94.46302465271185 120.25689768951611 l -4.981526475774779 18.22480069498745 a39.89335773230529,39.89335773230529 0 0,0 -0.6608407502248481,-0.18676019697337914 l 5.294498394104242 -18.136351704675548" fill="#ffc912" stroke="none" /><path d="M 94.11515582081647 120.15858648285463 l -5.145117905382557 17.62464750163156 a39.360295145151014,39.360295145151014 0 0,0 -0.6487420553883267,-0.195460659576275 l 5.44773493521113 -17.53347147294956" fill="#ffc212" stroke="none" /><path d="M 93.76903079525671 120.05430185196036 l -5.377719496587524 17.30812759877565 a39.12432475871796,39.12432475871796 0 0,0 -0.6414128524836494,-0.20536014021498303 l 5.674853694162114 -17.21299461190096" fill="#ffbf11" stroke="none" /><path d="M 93.08242187328487 119.8279376855182 l -8.698251764003269 24.931904026287256 a47.40567026466067,47.40567026466067 0 0,0 -0.7681534431571921,-0.27543249512572393 l 9.126124767790188 -24.778483990121575" fill="#d3ff1c" stroke="none" /><path d="M 92.7421414339146 119.70592522655815 l -7.064844863381199 19.181870705715983 a41.44153117343338,41.44153117343338 0 0,0 -0.6672674184299467,-0.2523034418468556 l 7.393982502571429 -19.057419013762495" fill="#ffde14" stroke="none" /><path d="M 92.40401165467489 119.57807347666478 l -6.523377875702781 16.813502807065213 a39.03464265108678,39.03464265108678 0 0,0 -0.6243292271779818,-0.24843348418091862 l 6.811828178922621 -16.698722478478228" fill="#ffbd11" stroke="none" /><path d="M 92.06813273071674 119.44442032107085 l -6.901409366794993 16.918324523080845 a39.2718131534986,39.2718131534986 0 0,0 -0.6237271678083215,-0.2607180067296504 l 7.191607994100776 -16.797021473331224" fill="#ffc111" stroke="none" /><path d="M 91.7346041902142 119.30500536409082 l -7.056161897106267 16.480667884319985 a38.927683470862334,38.927683470862334 0 0,0 -0.6137214847938104,-0.26903746332170353 l 7.33880405655782 -16.35676586770383" fill="#ffbc11" stroke="none" /><path d="M 91.40352486487194 119.15986991738527 l -6.299183861391389 14.039654797204722 a36.38803509692798,36.38803509692798 0 0,0 -0.5692682904990111,-0.26132315132163014 l 6.539920147657819 -13.929144575549017" fill="#ff990e" stroke="none" /><path d="M 90.7491055286396 118.85261126421891 l -10.840675730060255 22.09246316807505 a45.60888415018182,45.60888415018182 0 0,0 -0.7018253660990922,-0.3519098082176891 l 11.219355003842109 -21.902585518948058" fill="#e9ff1a" stroke="none" /><path d="M 90.42595943632237 118.69057910512821 l -8.84584470990771 17.268984730382325 a40.402752440052936,40.402752440052936 0 0,0 -0.6162556747389897,-0.3223958429815444 l 9.141791287173197 -17.114159468456066" fill="#ffd013" stroke="none" /><path d="M 90.10565033884886 118.52300852407294 l -7.305897183172717 13.677219871383068 a36.50620769437992,36.50620769437992 0 0,0 -0.5517255974943666,-0.30084478620533384 l 7.540245592535723 -13.54943443341797" fill="#ff9a0e" stroke="none" /><line stroke="#e1ed5e" stroke-width="0.3" x1="58.666819895761336" x2="56.23545636021788" y1="174.27360380694188" y2="178.64263932499728" /><path d="M 58.180547188652646 175.14741091055294 a86.0,86.0 0 0,1 -31.652253787137756,-30.449443065178592" fill="none" id="id68" stroke="none" /><text fill="#e1ed5e" style="font-size:6.75px; font-family:Arial;" text-anchor="middle"><textPath startOffset="22.20632615414155" xlink:href="#id68">August</textPath></text><path d="M 89.4739219176387 118.17145234162733 l -2.5803029021959945 4.454446456443059 a26.147820538868775,26.147820538868775 0 0,0 -0.3875258025847584,-0.22895707486161954 l 2.6565965758091346 -4.40937080928769" fill="#ff0000" stroke="none" /><path d="M 88.8546689885994 117.79835938074946 l -10.14407951846883 16.199426708091934 a40.11344487390646,40.11344487390646 0 0,0 -0.5820617445555644,-0.3714993446736448 l 10.421423065071318 -16.022412934594485" fill="#ffcc13" stroke="none" /><path d="M 88.54995079064634 117.60387380957326 l -13.99006513968541 21.509020337270126 a46.65852447982426,46.65852447982426 0 0,0 -0.6694949497729482,-0.4437047462657175 l 14.35823478819832 -21.265017569913088" fill="#dcff1b" stroke="none" /><path d="M 88.24862548938628 117.40417183066458 l -11.725041389096377 17.36517161232318 a41.952942053598534,41.952942053598534 0 0,0 -0.5950188076418641,-0.4092593615672309 l 12.02221708136113 -17.16077146139085" fill="#ffe515" stroke="none" /><path d="M 87.95078237400918 117.19931262002967 l -16.267022689543936 23.219898363448756 a49.35100892721505,49.35100892721505 0 0,0 -0.691554917636429,-0.49340607181171237 l 16.664304935029254 -22.936448029792825" fill="#bbff1f" stroke="none" /><path d="M 87.65650970185807 116.9893568818739 l -9.635058464424578 13.26152027311674 a37.392140542563865,37.392140542563865 0 0,0 -0.5174627633281143,-0.3828065815226501 l 9.861906198171257 -13.093703742854323" fill="#ffa70f" stroke="none" /><path d="M 87.36589467227662 116.77436683061367 l -14.407365258190083 19.128733189615453 a44.94745512830953,44.94745512830953 0 0,0 -0.6140063620781002,-0.47079389586704107 l 14.734500348761669 -18.877899951921044" fill="#f2ff19" stroke="none" /><path d="M 87.07902340077011 116.55440617244103 l -12.759118255311863 16.34703262392944 a41.73693743687447,41.73693743687447 0 0,0 -0.5625394008777006,-0.4469153220401284 l 13.038615148906922 -16.124983387884182" fill="#ffe215" stroke="none" /><path d="M 86.79598089348748 116.32954008644616 l -12.97024902583284 16.04043433215444 a41.628206256392644,41.628206256392644 0 0,0 -0.5533178981553363,-0.4553429604911161 l 13.244437052532867 -15.814796252806142" fill="#ffe115" stroke="none" /><path d="M 86.51685102203217 116.09983520530335 l -11.968484169631111 14.291218105148076 a39.640910070262734,39.640910070262734 0 0,0 -0.5193610904873094,-0.4426107886115237 l 12.212710736695476 -14.083082926313601" fill="#ffc612" stroke="none" /><path d="M 86.24171649860922 115.8653595955263 l -15.129236319208548 17.446273336763003 a44.09255821565698,44.09255821565698 0 0,0 -0.5691250040126327,-0.5021866450115853 l 15.427303676127767 -17.183263549979127" fill="#fdff18" stroke="none" /><path d="M 85.97065885151581 115.62618273729859 l -12.242686126738874 13.636167841886266 a39.32562241807731,39.32562241807731 0 0,0 -0.49981077813719976,-0.45656529542915975 l 12.475596454342929 -13.42340977987053" fill="#ffc112" stroke="none" /><path d="M 85.70375840098266 115.38237550388516 l -15.856675438417781 17.061360788260654 a44.29214863224344,44.29214863224344 0 0,0 -0.5539981077869591,-0.5238397897309699 l 16.148009380595557 -16.785886361783753" fill="#faff18" stroke="none" /><path d="M 85.44109423537348 115.13401014063109 l -21.759475344816057 22.619015868855453 a52.386217455392625,52.386217455392625 0 0,0 -0.644475322592985,-0.6307547472319956 l 22.145600619784837 -22.241111018700888" fill="#96ff23" stroke="none" /><path d="M 85.18274418774928 114.88116024355367 l -12.615703875077001 12.670113368429776 a38.87981423372446,38.87981423372446 0 0,0 -0.47018539622636407,-0.47629532399483226 l 12.831929896358897 -12.45107755045428" fill="#ffbb11" stroke="none" /><path d="M 84.9287848128048 114.62390073753433 l -12.898497116327716 12.515669051876454 a38.97256797666968,38.97256797666968 0 0,0 -0.46301906600558684,-0.48547363958102574 l 13.11202273371226 -12.291788295712928" fill="#ffbd11" stroke="none" /><path d="M 84.67929136418377 114.36230785411682 l -13.208009268264352 12.38177030580508 a39.104136122341586,39.104136122341586 0 0,0 -0.45612850501864466,-0.49503740572390204 l 13.419184181278725 -12.152581645279835" fill="#ffbe11" stroke="none" /><path d="M 84.43433777217949 114.09645910891817 l -26.773080911403802 24.246038155243035 a57.12019141303207,57.12019141303207 0 0,0 -0.6537301196435826,-0.7344727195649879 l 27.18646988069572 -23.781591265937184" fill="#60ff29" stroke="none" /><path d="M 84.19399662182784 113.82643327865904 l -13.439234024377077 11.756082047340556 a38.855488687397425,38.855488687397425 0 0,0 -0.4360279501653844,-0.5071990129755107 l 13.63960448411324 -11.523005935203514" fill="#ffbb11" stroke="none" /><path d="M 83.72743513129214 113.27417163493432 l -20.122139427177135 16.41442111759965 a46.96793630138248,46.96793630138248 0 0,0 -0.5056480526424211,-0.6308736926137742 l 20.40170539187442 -16.065619591407618" fill="#d8ff1c" stroke="none" /><path d="M 83.50135304334701 112.99209946851258 l -18.077818135761827 14.235640777729886 a44.0100190547997,44.0100190547997 0 0,0 -0.4635579137630762,-0.5992110917743952 l 18.32018286674297 -13.922351691842238" fill="#feff18" stroke="none" /><path d="M 82.85270091963577 112.12312394758628 l -18.979982127694484 13.418829098309816 a44.2444551654206,44.2444551654206 0 0,0 -0.43431008813835437,-0.6256560743403149 l 19.208153122994972 -13.090131761782487" fill="#fbff18" stroke="none" /><path d="M 82.6465618267979 111.8261652097733 l -18.86831208430043 12.858534067507186 a43.83320168692513,43.83320168692513 0 0,0 -0.4195398770941469,-0.6271551923377211 l 19.08685506680531 -12.531841960963643" fill="#fffe18" stroke="none" /><path d="M 82.44556493220864 111.52570212397912 l -25.49177972869256 16.73711849047648 a51.4952778164166,51.4952778164166 0 0,0 -0.480120235976299,-0.7451572683072959 l 25.776104828045902 -16.295839622247737" fill="#a1ff22" stroke="none" /><path d="M 82.24976979558568 111.22182372390057 l -36.90029021799233 23.328629962449853 a64.6561151970371,64.6561151970371 0 0,0 -0.5866322003208388,-0.9458378946761853 l 37.29638705798112 -22.689995736408402" fill="#33ff55" stroke="none" /><path d="M 82.05923443525364 110.91462005526583 l -22.03855535766406 13.407591634133643 a46.79653921906025,46.79653921906025 0 0,0 -0.41274352450036605,-0.6917818880257879 l 22.266079757862656 -13.026247652221745" fill="#daff1b" stroke="none" /><line stroke="#e1ed5e" stroke-width="0.3" x1="26.63291911575756" x2="22.317208475507996" y1="142.92168965132927" y2="145.44649492493687" /><path d="M 25.769776987707644 143.4266507060508 a86.0,86.0 0 0,1 -11.730757126820373,-40.83630448921669" fill="none" id="id69" stroke="none" /><text fill="#e1ed5e" style="font-size:6.75px; font-family:Arial;" text-anchor="middle"><textPath startOffset="21.46611528233685" xlink:href="#id69">September</textPath></text><path d="M 81.87401531095188 110.60418214915194 l -17.567906648912903 10.277691682975425 a41.35343436266274,41.35343436266274 0 0,0 -0.3541586963032659,-0.6175055391301032 l 17.742217341368544 -9.973766297987014" fill="#ffdd14" stroke="none" /><path d="M 81.51974371655577 109.97397251340807 l -33.62091167706974 18.14553022423326 a59.20505161776237,59.20505161776237 0 0,0 -0.4763116652970049,-0.9010021680041767 l 33.92827585059163 -17.564113041142956" fill="#4aff2c" stroke="none" /><path d="M 81.35079622478065 109.6543875284942 l -20.348336020209565 10.534000478892283 a43.91331370362351,43.91331370362351 0 0,0 -0.3417320066447198,-0.6742696692339127 l 20.52664669664055 -10.182176597955687" fill="#ffff18" stroke="none" /><path d="M 81.18737489456691 109.33194174019688 l -18.175951425288446 9.016121823660583 a41.28929922283009,41.28929922283009 0 0,0 -0.3103514961421021,-0.6394160051294443 l 18.328456178045265 -8.701916862565854" fill="#ffdc14" stroke="none" /><path d="M 81.02952815118164 109.00673069616217 l -21.09179425922898 10.01388433064027 a44.34826898211273,44.34826898211273 0 0,0 -0.32147296372821615,-0.6924241642931238 l 21.261041839797024 -9.649340099068318" fill="#faff18" stroke="none" /><path d="M 79.97269907076064 106.31721596034903 l -19.517516054727157 6.156414404663047 a41.46545555975911,41.46545555975911 0 0,0 -0.20885405066949245,-0.6825471218024025 l 19.62059687790278 -5.8195403103085965" fill="#ffde14" stroke="none" /><path d="M 79.86692584326677 105.97154293290107 l -22.63987910715555 6.7150703877408295 a44.614747432461186,44.614747432461186 0 0,0 -0.21204191891554333,-0.7381457370313885 l 22.7521136629572 -6.324367175204846" fill="#f6ff19" stroke="none" /><path d="M 79.76711848015287 105.62410040840567 l -40.73329747093288 11.322566917483453 a63.27767785080441,63.27767785080441 0 0,0 -0.28267622303854406,-1.0519433840625332 l 40.922161770313195 -10.619732600245381" fill="#31ff43" stroke="none" /><path d="M 79.67330655649465 105.27499134158121 l -28.80516093955926 7.475243082272072 a50.75931040687884,50.75931040687884 0 0,0 -0.21219491180519293,-0.8476131929085073 l 28.929567165659513 -6.978302049966172" fill="#aaff21" stroke="none" /><path d="M 79.58551787078972 104.9243191809786 l -23.023090160169286 5.553559662378125 a44.683426809625274,44.683426809625274 0 0,0 -0.17392371522391567,-0.7492588131780982 l 23.115274441323756 -5.156432191851452" fill="#f5ff19" stroke="none" /><path d="M 79.50377843672027 104.57218783832718 l -23.194747300118667 5.174160573511327 a44.764853038822714,44.764853038822714 0 0,0 -0.16129407793055525,-0.7535122345281036 l 23.280375416773662 -4.77413451956706" fill="#f4ff19" stroke="none" /><path d="M 79.4281124754447 104.21870165774334 l -23.562006902408033 4.831889026240318 a45.05234543305549,45.05234543305549 0 0,0 -0.14925212816100467,-0.7610333859890072 l 23.641688963544706 -4.425591913183356" fill="#f1ff19" stroke="none" /><path d="M 79.23777060512086 103.15116336523772 l -15.437457212837304 2.3430022227533973 a36.614248128360515,36.614248128360515 0 0,0 -0.08920965484767997,-0.6239321182269978 l 15.475500918701583 -2.0769246325459987" fill="#ff9c0e" stroke="none" /><path d="M 79.18660465613746 102.79330883721812 l -29.52746778260337 3.9628006548264088 a50.79219935960708,50.79219935960708 0 0,0 -0.10883677681978694,-0.8675361967135959 l 29.591306068670004 -3.4539467038254044" fill="#a9ff21" stroke="none" /><path d="M 79.10278846688536 102.07522291339032 l -23.680377924044397 2.3516086243299212 a44.79685613158999,44.79685613158999 0 0,0 -0.06959597699099507,-0.7679858067564133 l 23.717348497312468 -1.9436414290249417" fill="#f4ff19" stroke="none" /><path d="M 79.07016306316243 101.71520430193888 l -23.583189574329666 1.9326470785893404 a44.66224746783685,44.66224746783685 0 0,0 -0.05619667980406306,-0.7667590474564149 l 23.612962812798063 -1.5264148946361646" fill="#f6ff19" stroke="none" /><path d="M 79.04373962182676 101.35467743843564 l -23.864529382518576 1.5426769351966063 a44.914339103882426,44.914339103882426 0 0,0 -0.04323250908401411,-0.7719454916520202 l 23.887548242490123 -1.1316597272091484" fill="#f2ff19" stroke="none" /><path d="M 79.0235259727143 100.99374915477108 l -23.807599339635832 1.127872191013457 a44.834300535066895,44.834300535066895 0 0,0 -0.02988498012377145,-0.7711985460704144 l 23.823486452610805 -0.7178963979290459" fill="#f3ff19" stroke="none" /><path d="M 79.0095281055655 100.63252640178507 l -30.94180964305129 0.9323997867540679 a51.95585491226435,51.95585491226435 0 0,0 -0.019243303935925694,-0.8941607187915619 l 30.953275009672222 -0.3996492521723771" fill="#9bff22" stroke="none" /><line stroke="#e1ed5e" stroke-width="0.3" x1="15.007084014347285" x2="10.007500721073583" y1="101.09737516637583" y2="101.16192664675087" /><path d="M 14.007167355692545 101.11028546245083 a86.0,86.0 0 0,1 10.666146001902534,-42.60595125391555" fill="none" id="id70" stroke="none" /><text fill="#e1ed5e" style="font-size:6.75px; font-family:Arial;" text-anchor="middle"><textPath startOffset="22.20632615414155" xlink:href="#id70">October</textPath></text><path d="M 79.00486145842228 99.54816195383935 l -20.46077109871777 -0.44033788192807866 a41.465508823490936,41.465508823490936 0 0,0 0.02149948236296738,-0.7134631519114083 l 20.45015992189916 0.7924711812644814" fill="#ffde14" stroke="none" /><path d="M 79.12142395522702 97.74499172005258 l -30.908053407402168 -3.338250472699174 a52.08780599613458,52.08780599613458 0 0,0 0.1039515029578831,-0.8905929952300919 l 30.846011551440697 3.8697872062541276" fill="#9aff23" stroke="none" /><path d="M 79.16333360222342 97.38593545837743 l -29.441537213626706 -3.6935888405457753 a50.67232232273656,50.67232232273656 0 0,0 0.11602514258610529,-0.8645220787249536 l 29.373596071982767 4.199829261335388" fill="#abff21" stroke="none" /><path d="M 79.21141760316559 97.0276538004421 l -18.09194824349446 -2.5867821373109945 a39.2759413730509,39.2759413730509 0 0,0 0.10145182614816627,-0.6684407765887879 l 18.04474052390699 2.8978220262918746" fill="#ffc111" stroke="none" /><path d="M 79.26566170972629 96.67025291283419 l -19.491021337479406 -3.130081636355031 a40.74075286883265,40.74075286883265 0 0,0 0.1171551536196875,-0.6914563484364123 l 19.434254322339495 3.4651237731072713" fill="#ffd513" stroke="none" /><path d="M 79.32604984820605 96.31383870115002 l -15.23119385216446 -2.7157189071706545 a36.471405732672665,36.471405732672665 0 0,0 0.11551757858564025,-0.6170995239321809 l 15.182190549668958 2.977496508565408" fill="#ff9a0e" stroke="none" /><path d="M 79.46518482838121 95.60439243477599 l -30.463266532210085 -6.520855615758729 a52.15336523995511,52.15336523995511 0 0,0 0.19546488481510915,-0.8762307518138329 l 30.346507260392936 7.044264537122522" fill="#99ff23" stroke="none" /><path d="M 79.54389044137918 95.25157060432595 l -28.866919342583053 -6.700811216134037 a50.63443779263348,50.63443779263348 0 0,0 0.204387595335691,-0.8473185346169037 l 28.747298946986547 7.196714982410337" fill="#abff21" stroke="none" /><path d="M 79.62865764111835 94.90015583598534 l -30.022594669217778 -7.51597766681455 a51.94908901664472,51.94908901664472 0 0,0 0.22462703993844135,-0.8655796160192498 l 29.88877129740903 8.031653708382663" fill="#9cff22" stroke="none" /><path d="M 79.71946130924805 94.55025226153421 l -17.358222025486086 -4.664468368895795 a38.97401282547945,38.97401282547945 0 0,0 0.1796761926487019,-0.6463908632152215 l 17.275359062271026 4.962570535529959" fill="#ffbd11" stroke="none" /><path d="M 79.81627453868168 94.20196356495316 l -24.299078764738756 -6.980224948364228 a46.28178730123217,46.28178730123217 0 0,0 0.22654737169985498,-0.7638051146406794 l 24.175325495927193 7.397459449751446" fill="#e1ff1b" stroke="none" /><path d="M 79.91906864156998 93.8553929516997 l -15.25500250176407 -4.667910776699494 a36.95319693190225,36.95319693190225 0 0,0 0.19135512017038114,-0.6066480234421538 l 15.172391897825486 4.9298089665680624" fill="#ffa10e" stroke="none" /><path d="M 80.02781315780177 93.51064311812611 l -22.567143729163753 -7.332509485324218 a44.72849914017118,44.72849914017118 0 0,0 0.24422336937804662,-0.7301967891031651 l 22.437583066013932 7.719879377349705" fill="#f5ff19" stroke="none" /><path d="M 80.14247586403 93.16781622104843 l -32.00803881322437 -11.012692321478145 a54.84957814857404,54.84957814857404 0 0,0 0.31485465069962815,-0.890136496311101 l 31.813731081714927 11.562026444215858" fill="#7aff26" stroke="none" /><path d="M 80.2630227832202 92.82701384747504 l -21.720045161678712 -7.8936901768566425 a44.10996984925696,44.10996984925696 0 0,0 0.26549037096560163,-0.711382200679842 l 21.580950202211483 8.266395514565826" fill="#fdff18" stroke="none" /><path d="M 80.52162464483688 92.15188598940014 l -16.532006854028605 -6.660980305015183 a38.82346513014372,38.82346513014372 0 0,0 0.25508553466141315,-0.617709855385722 l 16.414899632480992 6.944564730854217" fill="#ffbb11" stroke="none" /><path d="M 80.803312248108 91.48605970444005 l -14.46065247830747 -6.413457020626717 a36.81906764173559,36.81906764173559 0 0,0 0.26193730463071097,-0.5771441296483062 l 14.348112856713406 6.661423159117095" fill="#ff9f0e" stroke="none" /><path d="M 81.10775173730289 90.83032412892265 l -27.4154724983908 -13.306568554842249 a51.474134918234164,51.474134918234164 0 0,0 0.3937525888809247,-0.7937811920752822 l 27.18235989655646 13.776509335416494" fill="#a1ff22" stroke="none" /><path d="M 81.26839172434947 90.50648371742162 l -30.0973816130206 -15.253894817863051 a54.74216482495188,54.74216482495188 0 0,0 0.4332205429667248,-0.8368441976823962 l 29.830351636893763 15.769711737805784" fill="#7bff26" stroke="none" /><path d="M 81.43458229118936 90.18545643968196 l -20.793844993054922 -10.992593900754898 a44.520652845150984,44.520652845150984 0 0,0 0.36399216719135824,-0.6744222049759896 l 20.60154472664509 11.34889708906336" fill="#f7ff18" stroke="none" /><path d="M 81.6062741919709 89.86733742301443 l -20.38987151565811 -11.232291391778151 a44.27898688377266,44.27898688377266 0 0,0 0.3735087703701435,-0.6644304252599119 l 20.193505103995538 11.581605326972849" fill="#fbff18" stroke="none" /><line stroke="#e1ed5e" stroke-width="0.3" x1="26.266209847984243" x2="21.928928074336255" y1="57.711370442889674" y2="55.22380399835377" /><path d="M 25.398753493254645 57.213857153982495 a86.0,86.0 0 0,1 29.58750427330803,-30.492523968695096" fill="none" id="id71" stroke="none" /><text fill="#e1ed5e" style="font-size:6.75px; font-family:Arial;" text-anchor="middle"><textPath startOffset="21.46611528233685" xlink:href="#id71">November</textPath></text><path d="M 81.78341655067845 89.55222093294921 l -20.639750270661324 -11.837540855390337 a44.79341641585545,44.79341641585545 0 0,0 0.38936213400650205,-0.6655461006072403 l 20.432928462184496 12.19106636835147" fill="#f4ff19" stroke="none" /><path d="M 81.96595687620814 89.24020034530311 l -22.452149278670422 -13.395810711860271 a47.144727037391135,47.144727037391135 0 0,0 0.4217975906873542,-0.6933243348810547 l 22.21823588969685 13.7803028199484" fill="#d6ff1c" stroke="none" /><path d="M 82.15384107792192 88.93136811851018 l -16.423637502637735 -10.186348696403956 a40.32608518512684,40.32608518512684 0 0,0 0.37094699091433453,-0.5867490565139253 l 16.24586291547744 10.467545400632096" fill="#ffcf13" stroke="none" /><path d="M 82.34701348167596 88.62581576622439 l -26.137360383326012 -16.840841750824737 a52.09301462843675,52.09301462843675 0 0,0 0.49216330364909194,-0.7495984768409872 l 25.843600444318998 17.28825829164339" fill="#9aff23" stroke="none" /><path d="M 82.54541684631803 88.32363383020206 l -51.53306703893355 -34.47340766040597 a83.00058736947382,83.00058736947382 0 0,0 0.8046137582642396,-1.1806714061297992 l 50.93202881500057 35.35535708980618" fill="#4cdcff" stroke="none" /><path d="M 82.7489923806493 88.02491185347247 l -14.820201466952465 -10.287701613265648 a39.040930574797095,39.040930574797095 0 0,0 0.3879690248606227,-0.5487546718126967 l 14.640919822287964 10.541282785410132" fill="#ffbe11" stroke="none" /><path d="M 82.95767976084542 87.72973835380427 l -18.92952485780971 -13.629025835921826 a44.32546369482631,44.32546369482631 0 0,0 0.4511432766311413,-0.6153589223198703 l 18.692118968664936 13.952847201913197" fill="#faff18" stroke="none" /><path d="M 83.17141714833178 87.43820079747576 l -12.229734193267975 -9.128960328400316 a36.26120293802211,36.26120293802211 0 0,0 0.37767607233150796,-0.49697744049668624 l 12.070782180712358 9.33812254477803" fill="#ff970d" stroke="none" /><path d="M 83.39014120810768 87.1503855733568 l -12.052385900224385 -9.32389093004147 a36.23794434834427,36.23794434834427 0 0,0 0.38592706576999836,-0.4900881820207591 l 11.890104753860415 9.529971506015277" fill="#ff960d" stroke="none" /><path d="M 83.84228863543731 86.58626213691792 l -48.47313409368807 -40.241213589246236 a84.0,84.0 0 0,0 0.9331575460515031,-1.1045642014835364 l 47.77326593414944 41.06963674035889" fill="#4dd2ff" stroke="none" /><path d="M 84.07557802195018 86.31012108654704 l -17.808429105167306 -15.309518827408537 a44.48449518130093,44.48449518130093 0 0,0 0.5041748475134206,-0.57635900614272 l 17.542262394076044 15.6137933897542" fill="#f8ff18" stroke="none" /><path d="M 84.5562425177563 85.77008943001954 l -21.070036316655354 -19.413975700989 a49.650460430920944,49.650460430920944 0 0,0 0.5845341094160236,-0.6235402324628608 l 20.732734885268876 19.77378535032991" fill="#b7ff1f" stroke="none" /><path d="M 84.80347519578584 85.50635884689758 l -20.291028966110353 -19.352509619860957 a49.040069277559574,49.040069277559574 0 0,0 0.5878637117922163,-0.605845229681016 l 19.95490099061502 19.698919045092097" fill="#bfff1e" stroke="none" /><line stroke="#e1ed5e" stroke-width="0.3" x1="56.762969772571076" x2="54.21961505331055" y1="26.818313649435495" y2="22.513508569990535" /><path d="M 56.25429882871897 25.957352633546506 a86.0,86.0 0 0,1 42.265352541879196,-11.944610805530505" fill="none" id="id72" stroke="none" /><text fill="#e1ed5e" style="font-size:6.75px; font-family:Arial;" text-anchor="middle"><textPath startOffset="22.20632615414155" xlink:href="#id72">December</textPath></text></svg>