<?xml version="1.0" encoding="utf-8" ?>
<svg baseProfile="full" height="200mm" version="1.1" viewBox="0,0,200,200" width="200mm" xmlns="http://www.w3.org/2000/svg" xmlns:ev="http://www.w3.org/2001/xml-events" xmlns:xlink="http://www.w3.org/1999/xlink"><defs /><rect fill="#1a1a1a" height="200" width="200" x="0" y="0" /><text alignment-baseline="middle" fill="#e1ed5e" style="dominant-baseline: central; font-size:9.0px; font-family:Arial;" text-anchor="middle" x="100.0" y="100.0">2023</text><line stroke="#e1ed5e" stroke-width="0.3" x1="100.0" x2="100.0" y1="15.0" y2="10.0" /><path d="M 100.0 14.0 a86.0,86.0 0 0,1 42.46469731375804,11.215312516191453" fill="none" id="id61" stroke="none" /><text fill="#e1ed5e" style="font-size:6.75px; font-family:Arial;" text-anchor="middle"><textPath startOffset="22.20632615414155" xlink:href="#id61">January</textPath></text><path d="M 109.41281617654863 81.2277094730956 l 19.459457027503138 -38.8086385587999 a64.41406332736906,64.41406332736906 0 0,0 0.9868833013035593,0.5055199576830649 l -20.12460081639545 38.46792607580433" fill="#c1ff1e" stroke="none" /><path d="M 109.73455568895987 81.39251694778311 l 14.26900299346032 -27.27502310906341 a51.78199688173792,51.78199688173792 0 0,0 0.7862355336379848,0.41997979300856186 l -14.736383573626618 27.025364589553096" fill="#ff0000" stroke="none" /><path d="M 110.36928655335952 81.73862282372117 l 17.096289864560998 -30.108319981820905 a55.623605520812056,55.623605520812056 0 0,0 0.8285355028080769,0.4799412414927159 l -17.6120220998344 29.80957458293814" fill="#ff6909" stroke="none" /><line stroke="#e1ed5e" stroke-width="0.3" x1="143.23703022742887" x2="145.7803849466894" y1="26.81831364943548" y2="22.513508569990506" /><path d="M 143.74570117128098 25.957352633546492 a86.0,86.0 0 0,1 28.547481713284135,27.462654790039103" fill="none" id="id62" stroke="none" /><text fill="#e1ed5e" style="font-size:6.75px; font-family:Arial;" text-anchor="middle"><textPath startOffset="19.985693538727396" xlink:href="#id62">February</textPath></text><path d="M 110.68208982089419 81.91981866633111 l 19.255819093898353 -32.59181553267097 a58.85515828381376,58.85515828381376 0 0,0 0.867799504925428,0.5228394918426363 l -19.81398066504142 32.25552943136972" fill="#ffbb11" stroke="none" /><path d="M 111.2981086023043 82.29822771554956 l 20.475237068714165 -32.08041246714463 a59.057695635471354,59.057695635471354 0 0,0 0.8522109123211248,0.5543016831624071 l -21.024415006819567 31.723211859822698" fill="#ffc011" stroke="none" /><path d="M 111.60114157652 82.49532879139004 l 18.575157752841214 -28.027589092579927 a54.62413174916852,54.62413174916852 0 0,0 0.7792920687699744,0.5261814835183238 l -19.05485451601773 27.703695696762935" fill="#ff4e07" stroke="none" /><path d="M 111.90073688211348 82.69761687909136 l 23.207797468770444 -33.741625176222534 a61.9524008195388,61.9524008195388 0 0,0 0.873436986223702,0.6118984265303012 l -23.785165594577798 33.337141906928295" fill="#f9ff18" stroke="none" /><path d="M 112.19680574252982 82.90503203632743 l 23.66093062248631 -33.163014933628546 a61.73849773138647,61.73849773138647 0 0,0 0.8597958487059506,0.6246782494873324 l -24.22827178754605 32.750817449324536" fill="#feff18" stroke="none" /><path d="M 113.6212207817346 84.01681056812373 l 22.30827109311896 -26.176605496116455 a55.39293000695639,55.39293000695639 0 0,0 0.7203882236202633,0.6247135687000575 l -22.75555311538599 25.788726933996728" fill="#ff6209" stroke="none" /><path d="M 114.42810811169701 84.74124197986012 l 25.138187359829633 -26.585434141404118 a57.58843768494132,57.58843768494132 0 0,0 0.7144168091004424,0.6872684043229296 l -25.592087412542494 26.148782650318886" fill="#ff9b0e" stroke="none" /><path d="M 114.94478906791727 85.2469230424477 l 24.474079311590355 -24.16012523885358 a55.39029237600496,55.39029237600496 0 0,0 0.6639864778558892,0.6842964314896769 l -24.88633005314935 23.73526461181379" fill="#ff6209" stroke="none" /><path d="M 115.19652480421416 85.50635884689758 l 28.737580101753636 -27.40838309873651 a60.71231514520164,60.71231514520164 0 0,0 0.7147651553676869,0.7624616321870159 l -29.205112579091786 26.90965204967144" fill="#ffe815" stroke="none" /><path d="M 115.4437574822437 85.77008943001954 l 29.390159323526696 -27.080154508519445 a60.963936658787375,60.963936658787375 0 0,0 0.704442234444569,0.777862709752278 l -29.851945198587302 26.57023901149762" fill="#ffee16" stroke="none" /><path d="M 115.68641384162765 86.03803664274999 l 24.710931708024354 -21.99439123015922 a54.081465981179676,54.081465981179676 0 0,0 0.612944234912313,0.7007012186294511 l -25.085867806514514 21.56577445532682" fill="#ff3f05" stroke="none" /><path d="M 116.38621287248628 86.86637796730983 l 26.208807308156185 -21.006474881752418 a54.58829509626466,54.58829509626466 0 0,0 0.5813547355053388,0.7382614765940582 l -26.56651612425549 20.552221011205322" fill="#ff4d07" stroke="none" /><path d="M 116.60985879189232 87.15038557335679 l 26.645660373307024 -20.613448087072747 a54.688357911421974,54.688357911421974 0 0,0 0.5696028411839493,0.7495305709035317 l -26.996539154715087 20.151732740288182" fill="#ff5007" stroke="none" /><path d="M 116.82858285166822 87.43820079747576 l 30.869918139426037 -23.04304031324837 a59.52185811734494,59.52185811734494 0 0,0 0.6058117358255194,0.8263265268410862 l -31.261992487765184 22.50825134273579" fill="#ffcb12" stroke="none" /><path d="M 117.04232023915458 87.72973835380427 l 30.84977009043612 -22.21145627019462 a59.01390672208705,59.01390672208705 0 0,0 0.5864503613795414,0.8294924464881691 l -31.227533071619543 21.67713732337466" fill="#ffbf11" stroke="none" /><path d="M 117.2510076193507 88.02491185347247 l 51.46283232727663 -35.72382361583467 a83.64674520580184,83.64674520580184 0 0,0 0.8108776595401154,1.1898629083273227 l -52.07013445248548 34.832682684236936" fill="#4cd8ff" stroke="none" /><path d="M 117.65298651832404 88.62581576622439 l 28.063577644048515 -18.0819433613083 a54.38444347154975,54.38444347154975 0 0,0 0.5002654129631051,0.791299744308848 l -28.370670653257573 17.596195969285247" fill="#ff4806" stroke="none" /><line stroke="#e1ed5e" stroke-width="0.3" x1="172.23445277983987" x2="176.4835382374775" y1="55.19839476539836" y2="52.563006222186495" /><path d="M 173.08426987136738 54.67131705675599 a86.0,86.0 0 0,1 12.851231095245387,41.99856678651699" fill="none" id="id63" stroke="none" /><text fill="#e1ed5e" style="font-size:6.75px; font-family:Arial;" text-anchor="middle"><textPath startOffset="22.20632615414155" xlink:href="#id63">March</textPath></text><path d="M 117.84615892207809 88.93136811851018 l 27.678738226363237 -17.167042258752925 a53.570230114590075,53.570230114590075 0 0,0 0.4792857105096687,0.7878196883856151 l -27.97013973515913 16.68805479716023" fill="#ff3204" stroke="none" /><path d="M 118.03404312379186 89.2402003453031 l 33.02147151299232 -19.70187247219865 a59.452325804743495,59.452325804743495 0 0,0 0.5167831859949542,0.8833499825963685 l -33.3557143734576 19.13054307724839" fill="#ffca12" stroke="none" /><path d="M 118.3937258080291 89.86733742301442 l 55.1811774240873 -30.397987730956764 a84.0,84.0 0 0,0 0.6867676031261407,1.272476066670165 l -55.696253126431905 29.44363068095414" fill="#4dd2ff" stroke="none" /><path d="M 118.56541770881063 90.18545643968196 l 33.91575018865408 -17.929443486178105 a59.36330348892342,59.36330348892342 0 0,0 0.4697914788720108,0.9074876055562886 l -34.21935110068621 17.342983158361474" fill="#ffc712" stroke="none" /><line stroke="#e1ed5e" stroke-width="0.3" x1="184.98032266829074" x2="189.97916517819016" y1="98.17113171792111" y2="98.06355123074" /><path d="M 185.9800911702706 98.14961562048488 a86.0,86.0 0 0,1 -9.607161424134198,41.387399972396054" fill="none" id="id64" stroke="none" /><text fill="#e1ed5e" style="font-size:6.75px; font-family:Arial;" text-anchor="middle"><textPath startOffset="21.466115282336823" xlink:href="#id64">April</textPath></text><line stroke="#e1ed5e" stroke-width="0.3" x1="174.80103733775053" x2="179.2010983576182" y1="140.37084112569926" y2="142.7455964860345" /><path d="M 175.68104954172406 140.8457921977663 a86.0,86.0 0 0,1 -30.038265399797805,32.042727171017184" fill="none" id="id65" stroke="none" /><text fill="#e1ed5e" style="font-size:6.75px; font-family:Arial;" text-anchor="middle"><textPath startOffset="22.206326154141568" xlink:href="#id65">May</textPath></text><line stroke="#e1ed5e" stroke-width="0.3" x1="143.8653032363475" x2="146.44561519142675" y1="172.8068346515853" y2="177.08958963109032" /><path d="M 144.38136562736335 173.6633856474863 a86.0,86.0 0 0,1 -40.68145358897372,12.25698825130547" fill="none" id="id66" stroke="none" /><text fill="#e1ed5e" style="font-size:6.75px; font-family:Arial;" text-anchor="middle"><textPath startOffset="21.466115282336833" xlink:href="#id66">June</textPath></text><line stroke="#e1ed5e" stroke-width="0.3" x1="102.19456741930631" x2="102.32365962044197" y1="184.97166512339345" y2="189.96999836594603" /><path d="M 102.22038585953345 185.97133177190398 a86.0,86.0 0 0,1 -42.740103519485714,-10.115201625700543" fill="none" id="id67" stroke="none" /><text fill="#e1ed5e" style="font-size:6.75px; font-family:Arial;" text-anchor="middle"><textPath startOffset="22.20632615414155" xlink:href="#id67">July</textPath></text><line stroke="#e1ed5e" stroke-width="0.3" x1="58.666819895761336" x2="56.23545636021788" y1="174.27360380694188" y2="178.64263932499728" /><path d="M 58.180547188652646 175.14741091055294 a86.0,86.0 0 0,1 -31.652253787137756,-30.449443065178592" fill="none" id="id68" stroke="none" /><text fill="#e1ed5e" style="font-size:6.75px; font-family:Arial;" text-anchor="middle"><textPath startOffset="22.20632615414155" xlink:href="#id68">August</textPath></text><line stroke="#e1ed5e" stroke-width="0.3" x1="26.63291911575756" x2="22.317208475507996" y1="142.92168965132927" y2="145.44649492493687" /><path d="M 25.769776987707644 143.4266507060508 a86.0,86.0 0 0,1 -11.730757126820373,-40.83630448921669" fill="none" id="id69" stroke="none" /><text fill="#e1ed5e" style="font-size:6.75px; font-family:Arial;" text-anchor="middle"><textPath startOffset="21.46611528233685" xlink:href="#id69">September</textPath></text><line stroke="#e1ed5e" stroke-width="0.3" x1="15.007084014347285" x2="10.007500721073583" y1="101.09737516637583" y2="101.16192664675087" /><path d="M 14.007167355692545 101.11028546245083 a86.0,86.0 0 0,1 10.666146001902534,-42.60595125391555" fill="none" id="id70" stroke="none" /><text fill="#e1ed5e" style="font-size:6.75px; font-family:Arial;" text-anchor="middle"><textPath startOffset="22.20632615414155" xlink:href="#id70">October</textPath></text><line stroke="#e1ed5e" stroke-width="0.3" x1="26.266209847984243" x2="21.928928074336255" y1="57.711370442889674" y2="55.22380399835377" /><path d="M 25.398753493254645 57.213857153982495 a86.0,86.0 0 0,1 29.58750427330803,-30.492523968695096" fill="none" id="id71" stroke="none" /><text fill="#e1ed5e" style="font-size:6.75px; font-family:Arial;" text-anchor="middle"><textPath startOffset="21.46611528233685" xlink:href="#id71">November</textPath></text><line stroke="#e1ed5e" stroke-width="0.3" x1="56.762969772571076" x2="54.21961505331055" y1="26.818313649435495" y2="22.513508569990535" /><path d="M 56.25429882871897 25.957352633546506 a86.0,86.0 0 0,1 42.265352541879196,-11.944610805530505" fill="none" id="id72" stroke="none" /><text fill="#e1ed5e" style="font-size:6.75px; font-family:Arial;" text-anchor="middle"><textPath startOffset="22.20632615414155" xlink:href="#id72">December</textPath></text></svg>