<?xml version="1.0" encoding="utf-8" ?>
<svg baseProfile="full" height="200mm" version="1.1" viewBox="0,0,200,200" width="200mm" xmlns="http://www.w3.org/2000/svg" xmlns:ev="http://www.w3.org/2001/xml-events" xmlns:xlink="http://www.w3.org/1999/xlink"><defs /><rect fill="#1a1a1a" height="200" width="200" x="0" y="0" /><text alignment-baseline="middle" fill="#e1ed5e" style="dominant-baseline: central; font-size:9.0px; font-family:Arial;" text-anchor="middle" x="100.0" y="100.0">2023</text><line stroke="#e1ed5e" stroke-width="0.3" x1="100.0" x2="100.0" y1="15.0" y2="10.0" /><path d="M 100.0 14.0 a86.0,86.0 0 0,1 42.46469731375804,11.215312516191453" fill="none" id="id61" stroke="none" /><text fill="#e1ed5e" style="font-size:6.75px; font-family:Arial;" text-anchor="middle"><textPath startOffset="22.20632615414155" xlink:href="#id61">January</textPath></text><path d="M 109.41281617654863 81.2277094730956 l 18.814509702341205 -37.52239878364592 a62.9751853577616,62.9751853577616 0 0,0 0.9648383538578075,0.49422767937094675 l -19.457608543787767 37.19297857896247" fill="#ceff1d" stroke="none" /><path d="M 109.73455568895987 81.39251694778311 l 13.796083564087086 -26.371043456750506 a50.76178513975762,50.76178513975762 0 0,0 0.7707450780417754,0.41170532809751675 l -14.247973688657172 26.129659402151233" fill="#ff0901" stroke="none" /><path d="M 110.36928655335952 81.73862282372117 l 16.529665297248677 -29.110436001299252 a54.47607084209267,54.47607084209267 0 0,0 0.8114425219931829,0.47003988372915884 l -17.02830455170719 28.821591960180044" fill="#ff6a09" stroke="none" /><line stroke="#e1ed5e" stroke-width="0.3" x1="143.23703022742887" x2="145.7803849466894" y1="26.81831364943548" y2="22.513508569990506" /><path d="M 143.74570117128098 25.957352633546492 a86.0,86.0 0 0,1 28.547481713284135,27.462654790039103" fill="none" id="id62" stroke="none" /><text fill="#e1ed5e" style="font-size:6.75px; font-family:Arial;" text-anchor="middle"><textPath startOffset="19.985693538727396" xlink:href="#id62">February</textPath></text><path d="M 110.68208982089419 81.91981866633111 l 18.61762096735971 -31.511620734827513 a57.60051982991339,57.60051982991339 0 0,0 0.8493002830916371,0.5116939176769832 l -19.157283316668984 31.186480207691915" fill="#ffb710" stroke="none" /><path d="M 111.2981086023043 82.29822771554956 l 19.796623613011896 -31.017167167877858 a57.79634445967888,57.79634445967888 0 0,0 0.8340094362101301,0.5424629367928195 l -20.327600075006306 30.67180530692551" fill="#ffbb11" stroke="none" /><path d="M 111.60114157652 82.49532879139004 l 17.959518874005905 -27.09866704760977 a53.50972276016801,53.50972276016801 0 0,0 0.7633934163120837,0.5154466424087006 l -18.423316984724533 26.785508492902398" fill="#ff5207" stroke="none" /><path d="M 111.90073688211348 82.69761687909136 l 22.438618406927738 -32.623322087227585 a60.59511005185751,60.59511005185751 0 0,0 0.8543011990407957,0.5984925847210787 l -22.996850745552184 32.23224465974257" fill="#fffc17" stroke="none" /><path d="M 112.19680574252982 82.90503203632743 l 22.876733309362585 -32.063888799455356 a60.388296381686,60.388296381686 0 0,0 0.8409923863923631,0.611016734442765 l -23.425271012108738 31.665352830195914" fill="#fff717" stroke="none" /><path d="M 113.6212207817346 84.01681056812373 l 21.56890515139924 -25.30903084217424 a54.25304063691294,54.25304063691294 0 0,0 0.7055638971528586,0.6118580588688628 l -22.001362847198862 24.934007789885705" fill="#ff6409" stroke="none" /><path d="M 114.42810811169701 84.74124197986012 l 24.305029133768798 -25.704309626288737 a56.37578231725017,56.37578231725017 0 0,0 0.6993731403858287,0.6727964069385542 l -24.743885517767044 25.28213013258788" fill="#ff990e" stroke="none" /><path d="M 114.94478906791727 85.2469230424477 l 23.662931705287566 -23.35938305337775 a54.25049042530854,54.25049042530854 0 0,0 0.6503231976991656,0.6702152202519401 l -24.061519166689838 22.948603637575697" fill="#ff6409" stroke="none" /><path d="M 115.19652480421416 85.50635884689758 l 27.785126732060057 -26.49998347887252 a59.39612469894787,59.39612469894787 0 0,0 0.6992696654236769,0.7459321239065378 l -28.2371637194542 26.017781938087925" fill="#ffe115" stroke="none" /><path d="M 115.4437574822437 85.77008943001954 l 28.416077435476005 -26.182633411679138 a59.6394066878536,59.6394066878536 0 0,0 0.6891372048902005,0.7609625138527709 l -28.862558280982242 25.689618110556818" fill="#ffe615" stroke="none" /><path d="M 115.68641384162765 86.03803664274999 l 23.891934071819783 -21.265428249722124 a52.98504263458567,52.98504263458567 0 0,0 0.6005176788431426,0.6864955168949686 l -24.254443614240774 20.851017176624207" fill="#ff4406" stroke="none" /><path d="M 116.38621287248628 86.86637796730983 l 25.340165385352822 -20.310254541846778 a53.475073846130684,53.475073846130684 0 0,0 0.569499145505884,0.723206081248765 l -25.68601861145267 19.87105606664497" fill="#ff5107" stroke="none" /><path d="M 116.60985879189232 87.15038557335679 l 25.762539772323702 -19.930253885542257 a53.57182026633963,53.57182026633963 0 0,0 0.5579736199160913,0.7342278788770251 l -26.10178933246391 19.483841230784197" fill="#ff5307" stroke="none" /><path d="M 116.82858285166822 87.43820079747576 l 29.846792411721946 -22.27932181932413 a58.24512314380817,58.24512314380817 0 0,0 0.5928171645037941,0.8086019461618458 l -30.225872188739366 21.76225742949079" fill="#ffc612" stroke="none" /><path d="M 117.04232023915458 87.72973835380427 l 29.827312132150514 -21.47529907479258 a57.75400684796857,57.75400684796857 0 0,0 0.5739301135681508,0.811783443865546 l -30.19255486552255 20.958689130595243" fill="#ffba11" stroke="none" /><path d="M 117.2510076193507 88.02491185347247 l 49.75719295574516 -34.53982426513205 a81.57043594940902,81.57043594940902 0 0,0 0.7907497659064429,1.1603277080715315 l -50.34436718732034 33.67821853379011" fill="#47fcff" stroke="none" /><path d="M 117.65298651832404 88.62581576622439 l 27.133462825817862 -17.482651151452554 a53.277978502431424,53.277978502431424 0 0,0 0.4900873892605227,0.7752005550690417 l -27.43037781132434 17.013002948669303" fill="#ff4c07" stroke="none" /><line stroke="#e1ed5e" stroke-width="0.3" x1="172.23445277983987" x2="176.4835382374775" y1="55.19839476539836" y2="52.563006222186495" /><path d="M 173.08426987136738 54.67131705675599 a86.0,86.0 0 0,1 12.851231095245387,41.99856678651699" fill="none" id="id63" stroke="none" /><text fill="#e1ed5e" style="font-size:6.75px; font-family:Arial;" text-anchor="middle"><textPath startOffset="22.20632615414155" xlink:href="#id63">March</textPath></text><path d="M 117.84615892207809 88.93136811851018 l 26.761378191202954 -16.59807273560148 a52.490750725076566,52.490750725076566 0 0,0 0.469627752254182,0.7719445444027333 l -27.043121741743363 16.134960417991664" fill="#ff3705" stroke="none" /><path d="M 118.03404312379186 89.2402003453031 l 31.927036570891165 -19.04889074030002 a58.17789534972239,58.17789534972239 0 0,0 0.5057053312271218,0.8644143378587601 l -32.250201576588616 18.496496990087365" fill="#ffc412" stroke="none" /><path d="M 118.3937258080291 89.86733742301442 l 53.352300455492994 -29.390503254402418 a81.91198277383718,81.91198277383718 0 0,0 0.669696381867832,1.2408456863476982 l -53.85030493657929 28.467776584722262" fill="#48f6ff" stroke="none" /><path d="M 118.56541770881063 90.18545643968196 l 32.79167605163592 -17.33520559959632 a58.09182351213955,58.09182351213955 0 0,0 0.4597291942021406,0.8880504743349835 l -33.08521467899818 16.768182403000992" fill="#ffc212" stroke="none" /><path d="M 119.04729006885535 91.15688171328212 l 33.8760904139779 -15.727711057028015 a58.3490347509727,58.3490347509727 0 0,0 0.4151052666295463,0.9146294307299935 l -34.14179799757079 15.14225961745596" fill="#ffc812" stroke="none" /><path d="M 119.196687751892 91.48605970444005 l 33.48289518053765 -14.85002903490437 a57.62823544764851,57.62823544764851 0 0,0 0.39436727662859195,0.9102540473309366 l -33.73355316700893 14.27147584298683" fill="#ffb711" stroke="none" /><path d="M 119.34039704204932 91.81776055985345 l 27.08522410219298 -11.458802444041678 a50.40941206684675,50.40941206684675 0 0,0 0.33120979247819426,0.8020507838110292 l -27.278455581557374 10.990877089777346" fill="#ff0000" stroke="none" /><path d="M 119.47837535516314 92.15188598940014 l 58.435126065489385 -23.54434203179955 a84.0,84.0 0 0,0 0.5288258004731983,1.3458039804168624 l -58.83174541584429 22.534989046486903" fill="#4dd2ff" stroke="none" /><path d="M 119.7369772167798 92.82701384747503 l 35.89467053098535 -13.04515741393818 a59.191667998169635,59.191667998169635 0 0,0 0.33977967709085416,0.9606029023592386 l -36.113903288886014 12.425356885152326" fill="#ffdc14" stroke="none" /><path d="M 119.85752413597 93.16781622104841 l 35.95032970292375 -12.369077724013 a59.01868342659431,59.01868342659431 0 0,0 0.322249617129547,0.9634853385118847 l -36.15791661382507 11.748419282578801" fill="#ffd814" stroke="none" /><path d="M 119.97218684219823 93.5106431181261 l 35.16149959521724 -11.424663767571447 a57.970988571940055,57.970988571940055 0 0,0 0.30019176703497474,0.9516899362986806 l -35.35294684602042 10.817723664846346" fill="#ffbf11" stroke="none" /><line stroke="#e1ed5e" stroke-width="0.3" x1="184.98032266829074" x2="189.97916517819016" y1="98.17113171792111" y2="98.06355123074" /><path d="M 185.9800911702706 98.14961562048488 a86.0,86.0 0 0,1 -9.607161424134198,41.387399972396054" fill="none" id="id64" stroke="none" /><text fill="#e1ed5e" style="font-size:6.75px; font-family:Arial;" text-anchor="middle"><textPath startOffset="21.466115282336823" xlink:href="#id64">April</textPath></text><line stroke="#e1ed5e" stroke-width="0.3" x1="174.80103733775053" x2="179.2010983576182" y1="140.37084112569926" y2="142.7455964860345" /><path d="M 175.68104954172406 140.8457921977663 a86.0,86.0 0 0,1 -30.038265399797805,32.042727171017184" fill="none" id="id65" stroke="none" /><text fill="#e1ed5e" style="font-size:6.75px; font-family:Arial;" text-anchor="middle"><textPath startOffset="22.206326154141568" xlink:href="#id65">May</textPath></text><line stroke="#e1ed5e" stroke-width="0.3" x1="143.8653032363475" x2="146.44561519142675" y1="172.8068346515853" y2="177.08958963109032" /><path d="M 144.38136562736335 173.6633856474863 a86.0,86.0 0 0,1 -40.68145358897372,12.25698825130547" fill="none" id="id66" stroke="none" /><text fill="#e1ed5e" style="font-size:6.75px; font-family:Arial;" text-anchor="middle"><textPath startOffset="21.466115282336833" xlink:href="#id66">June</textPath></text><line stroke="#e1ed5e" stroke-width="0.3" x1="102.19456741930631" x2="102.32365962044197" y1="184.97166512339345" y2="189.96999836594603" /><path d="M 102.22038585953345 185.97133177190398 a86.0,86.0 0 0,1 -42.740103519485714,-10.115201625700543" fill="none" id="id67" stroke="none" /><text fill="#e1ed5e" style="font-size:6.75px; font-family:Arial;" text-anchor="middle"><textPath startOffset="22.20632615414155" xlink:href="#id67">July</textPath></text><line stroke="#e1ed5e" stroke-width="0.3" x1="58.666819895761336" x2="56.23545636021788" y1="174.27360380694188" y2="178.64263932499728" /><path d="M 58.180547188652646 175.14741091055294 a86.0,86.0 0 0,1 -31.652253787137756,-30.449443065178592" fill="none" id="id68" stroke="none" /><text fill="#e1ed5e" style="font-size:6.75px; font-family:Arial;" text-anchor="middle"><textPath startOffset="22.20632615414155" xlink:href="#id68">August</textPath></text><line stroke="#e1ed5e" stroke-width="0.3" x1="26.63291911575756" x2="22.317208475507996" y1="142.92168965132927" y2="145.44649492493687" /><path d="M 25.769776987707644 143.4266507060508 a86.0,86.0 0 0,1 -11.730757126820373,-40.83630448921669" fill="none" id="id69" stroke="none" /><text fill="#e1ed5e" style="font-size:6.75px; font-family:Arial;" text-anchor="middle"><textPath startOffset="21.46611528233685" xlink:href="#id69">September</textPath></text><line stroke="#e1ed5e" stroke-width="0.3" x1="15.007084014347285" x2="10.007500721073583" y1="101.09737516637583" y2="101.16192664675087" /><path d="M 14.007167355692545 101.11028546245083 a86.0,86.0 0 0,1 10.666146001902534,-42.60595125391555" fill="none" id="id70" stroke="none" /><text fill="#e1ed5e" style="font-size:6.75px; font-family:Arial;" text-anchor="middle"><textPath startOffset="22.20632615414155" xlink:href="#id70">October</textPath></text><line stroke="#e1ed5e" stroke-width="0.3" x1="26.266209847984243" x2="21.928928074336255" y1="57.711370442889674" y2="55.22380399835377" /><path d="M 25.398753493254645 57.213857153982495 a86.0,86.0 0 0,1 29.58750427330803,-30.492523968695096" fill="none" id="id71" stroke="none" /><text fill="#e1ed5e" style="font-size:6.75px; font-family:Arial;" text-anchor="middle"><textPath startOffset="21.46611528233685" xlink:href="#id71">November</textPath></text><line stroke="#e1ed5e" stroke-width="0.3" x1="56.762969772571076" x2="54.21961505331055" y1="26.818313649435495" y2="22.513508569990535" /><path d="M 56.25429882871897 25.957352633546506 a86.0,86.0 0 0,1 42.265352541879196,-11.944610805530505" fill="none" id="id72" stroke="none" /><text fill="#e1ed5e" style="font-size:6.75px; font-family:Arial;" text-anchor="middle"><textPath startOffset="22.20632615414155" xlink:href="#id72">December</textPath></text></svg>