<?xml version="1.0" encoding="utf-8" ?>
<svg baseProfile="full" height="200mm" version="1.1" viewBox="0,0,200,200" width="200mm" xmlns="http://www.w3.org/2000/svg" xmlns:ev="http://www.w3.org/2001/xml-events" xmlns:xlink="http://www.w3.org/1999/xlink"><defs /><rect fill="#1a1a1a" height="200" width="200" x="0" y="0" /><rect fill="#1a1a1a" height="200" width="180" x="10" y="0" /><text alignment-baseline="middle" fill="#e1ed5e" style="dominant-baseline: central; font-size:9.0px; font-family:Arial;" text-anchor="middle" x="100.0" y="100.0">2025</text><line stroke="#e1ed5e" stroke-width="0.3" x1="100.0" x2="100.0" y1="15.0" y2="10.0" /><path d="M 100.0 14.0 a86.0,86.0 0 0,1 42.46469731375804,11.215312516191453" fill="none" id="id85" stroke="none" /><text fill="#e1ed5e" style="font-size:6.75px; font-family:Arial;" text-anchor="middle"><textPath startOffset="22.20632615414155" xlink:href="#id85">January</textPath></text><path d="M 100.36148047927253 79.00311137660856 l 0.0702549598158914 -4.080816672213645 a25.081421378833063,25.081421378833063 0 0,0 0.4316075065602039,0.011147148528272076 l -0.14048910157096312 4.079002731543014" fill="#ff2603" stroke="none" /><path d="M 100.72285384407766 79.0124445844662 l 0.4120770620987446 -11.96436907284207 a32.97146335316981,32.97146335316981 0 0,0 0.5670450599779271,0.024418153093618434 l -0.6179629544660032 11.955503193224256" fill="#ff930d" stroke="none" /><path d="M 101.08401301168833 79.027996857942 l 0.6237897289099852 -12.068231666618622 a33.084342314957404,33.084342314957404 0 0,0 0.5684802998294363,0.0342922841380707 l -0.8314320775790334 12.055706113100246" fill="#ff950d" stroke="none" /><path d="M 101.44485096284872 79.0497635885617 l 1.5228865615284768 -22.081747053633347 a43.134198345996836,43.134198345996836 0 0,0 0.7402851551375208,0.05746037568762041 l -1.9027619060283387 22.05226141575726" fill="#eaff1a" stroke="none" /><path d="M 101.80526077348638 79.07773832637324 l 1.0076738975064872 -11.678543773262346 a32.721936330987326,32.721936330987326 0 0,0 0.5607525084988183,0.0532502074533571 l -1.2085515330955499 11.65946802129381" fill="#ff900d" stroke="none" /><path d="M 102.52436894288641 79.15227682838746 l 1.3040638600193954 -10.769726203612313 a31.848390896892607,31.848390896892607 0 0,0 0.5436751932028947,0.07058464366025839 l -1.4892537817301363 10.745683236787919" fill="#ff840c" stroke="none" /><path d="M 103.2404852339499 79.25152402106235 l 2.258286418955808 -14.459563347601435 a35.6348498370615,35.6348498370615 0 0,0 0.6052338181193667,0.09986876583316077 l -2.50684944321405 14.41854831882865" fill="#ffb610" stroke="none" /><path d="M 103.59715602781102 79.31037775812273 l 3.5850476980223682 -20.619979232963946 a41.92931223344331,41.92931223344331 0 0,0 0.710012761857727,0.12975029394213827 l -3.939455580982996 20.55521345767107" fill="#f9ff18" stroke="none" /><path d="M 103.95276090670814 79.375362276772 l 3.1837192973674724 -16.611947615961054 a37.91428012538116,37.91428012538116 0 0,0 0.6399092589194312,0.1283597773854822 l -3.4691949657540286 16.554683882498363" fill="#ffd413" stroke="none" /><path d="M 106.40334571778207 80.00007090966166 l 4.068098645510619 -12.70612083567075 a34.34147417942529,34.34147417942529 0 0,0 0.5614294283483421,0.18509445551508336 l -4.2862108961013785 12.634212655896432" fill="#ffa50f" stroke="none" /><path d="M 107.76421540070413 80.48803036053334 l 2.0044476677096017 -5.037305125860181 a26.42146229200238,26.42146229200238 0 0,0 0.42112807705692246,0.1717887165278086 l -2.0908596143549114 5.002055523148793" fill="#ff3905" stroke="none" /><path d="M 108.09893153111575 80.62456947434976 l 1.0739440859677112 -2.56924372630592 a23.784666806809632,23.784666806809632 0 0,0 0.3763824331165904,0.16114731526288642 l -1.118010276874617 2.550376883080243" fill="#ff1302" stroke="none" /><path d="M 108.76106565485865 80.91482961587045 l 5.529282606365162 -12.045030228253166 a34.25351724413504,34.25351724413504 0 0,0 0.5337379610431396,0.2505971293544593 l -5.7357987787079 11.948068116258705" fill="#ffa40f" stroke="none" /><path d="M 109.08828744355905 81.06846463323043 l 3.8989063492439056 -8.121693322403088 a30.00907171374173,30.00907171374173 0 0,0 0.4637526676882711,0.22756141997891166 l -4.038130283942609 8.053376742289345" fill="#ff6b09" stroke="none" /><path d="M 109.41281617654863 81.2277094730956 l 5.208413240230921 -10.387310736332775 a32.61997387321275,32.61997387321275 0 0,0 0.499768308992143,0.2560007389722097 l -5.386442036811819 10.296117472048065" fill="#ff8f0d" stroke="none" /><path d="M 109.73455568895987 81.39251694778311 l 1.3132925609346433 -2.5103425211187003 a23.833117880347174,23.833117880347174 0 0,0 0.36187179489635113,0.19329938041974026 l -1.3563094023593054 2.4873644141972058" fill="#ff1402" stroke="none" /><path d="M 110.05341064243156 81.56283822128135 l 8.98047284704872 -16.469478530161865 a39.758801017443574,39.758801017443574 0 0,0 0.5980403566089851,0.3328088109683444 l -9.26263729272974 16.312454321633343" fill="#ffeb16" stroke="none" /><path d="M 110.36928655335952 81.73862282372117 l 5.213447354903673 -9.18141552426517 a31.558334354980882,31.558334354980882 0 0,0 0.47007381448522406,0.27229709451510997 l -5.370717901854226 9.09031427236001" fill="#ff800b" stroke="none" /><line stroke="#e1ed5e" stroke-width="0.3" x1="143.23703022742887" x2="145.7803849466894" y1="26.81831364943548" y2="22.513508569990506" /><path d="M 143.74570117128098 25.957352633546492 a86.0,86.0 0 0,1 28.547481713284135,27.462654790039103" fill="none" id="id86" stroke="none" /><text fill="#e1ed5e" style="font-size:6.75px; font-family:Arial;" text-anchor="middle"><textPath startOffset="19.985693538727396" xlink:href="#id86">February</textPath></text><path d="M 110.68208982089419 81.91981866633111 l 0.760895009584846 -1.2878678217317343 a22.49584917082678,22.49584917082678 0 0,0 0.3316937264730703,0.19984175885358807 l -0.7829508022755538 1.2745794534195316" fill="#ff0000" stroke="none" /><path d="M 111.2981086023043 82.29822771554956 l 5.892229451979303 -9.231890724204657 a31.95199407680758,31.95199407680758 0 0,0 0.4610717998675269,0.29989392418034105 l -6.050268277631111 9.129097875864788" fill="#ff860c" stroke="none" /><path d="M 111.60114157652 82.49532879139004 l 15.146948088502597 -22.85484961581305 a48.4185008225691,48.4185008225691 0 0,0 0.6907597881102235,0.4664040924172748 l -15.538112571019363 22.590733611097104" fill="#acff20" stroke="none" /><path d="M 111.90073688211348 82.69761687909136 l 1.5358966918519874 -2.23302752256462 a23.710238101085025,23.710238101085025 0 0,0 0.33427919879945445,0.23418394113528931 l -1.5741070302350928 2.206258738665395" fill="#ff1202" stroke="none" /><path d="M 112.48926042617603 83.11751280151076 l 5.222885507223299 -7.060089605471533 a29.781992840970116,29.781992840970116 0 0,0 0.4095078562652583,0.3084328273507914 l -5.34363951724694 6.969140188614895" fill="#ff6809" stroke="none" /><path d="M 112.77801427241765 83.33499621200491 l 8.55346340757815 -11.155371801036308 a35.05717099149521,35.05717099149521 0 0,0 0.4757215447993015,0.3713082114859632 l -8.744217507536883 11.006485200327122" fill="#ffaf10" stroke="none" /><path d="M 113.06298171725822 83.55741782278167 l 7.412486379680771 -9.330214117531048 a32.9162850674163,32.9162850674163 0 0,0 0.4406026602063386,0.35627004269235724 l -7.5719924384516 9.20123797757456" fill="#ff920d" stroke="none" /><path d="M 113.34407831869373 83.78471172551755 l 7.550080562709516 -9.1746113816189 a32.88180165240672,32.88180165240672 0 0,0 0.4339496904366554,0.36342038601569515 l -7.706887790105288 9.043289838209386" fill="#ff920d" stroke="none" /><path d="M 113.6212207817346 84.01681056812373 l 10.716438919111502 -12.574707951946015 a37.5216628456031,37.5216628456031 0 0,0 0.4879713718199766,0.4231639650925375 l -10.931304089578243 12.388378993433806" fill="#ffcf13" stroke="none" /><path d="M 113.89432698308785 84.25364557470407 l 11.856336796642077 -13.436712811843844 a38.91976488192235,38.91976488192235 0 0,0 0.49852329136116963,0.4475791332119112 l -12.085871075599238 13.230634669862635" fill="#ffe015" stroke="none" /><path d="M 114.16331599549186 84.49514656593476 l 3.639094344303653 -3.9837863152331963 a26.395698384100257,26.395698384100257 0 0,0 0.33282727780185,0.30932668188971885 l -3.70712950590035 3.9205550472688366" fill="#ff3905" stroke="none" /><path d="M 114.42810811169701 84.74124197986012 l 10.617655033716877 -11.228930892849428 a36.45391495419208,36.45391495419208 0 0,0 0.4522312229283277,0.4350460781547229 l -10.809369500257624 11.044501727932403" fill="#ffc111" stroke="none" /><path d="M 114.68862486808459 84.99185889309783 l 13.543003390097827 -13.837599347470261 a40.36213047485505,40.36213047485505 0 0,0 0.4923491836492081,0.49023487978656305 l -13.779188373914359 13.60242861703358" fill="#fff216" stroke="none" /><path d="M 114.94478906791727 85.2469230424477 l 6.410276648158233 -6.328045466529856 a30.00754162534883,30.00754162534883 0 0,0 0.3597128850246091,0.3707157476731335 l -6.5182537968859515 6.216765523306608" fill="#ff6b09" stroke="none" /><path d="M 115.19652480421416 85.50635884689758 l 8.506023703264011 -8.11259526656411 a32.75443070503917,32.75443070503917 0 0,0 0.385617410501892,0.41134976712701554 l -8.644408435736366 7.96497608255904" fill="#ff900d" stroke="none" /><path d="M 115.4437574822437 85.77008943001954 l 10.57427169537156 -9.743156141943793 a35.378606103994684,35.378606103994684 0 0,0 0.4088020836797452,0.45140947123113784 l -10.740417419667342 9.559693883443105" fill="#ffb310" stroke="none" /><path d="M 115.68641384162765 86.03803664274999 l 6.7204435094113 -5.981646727556513 a29.99691383400308,29.99691383400308 0 0,0 0.33997664571652086,0.38865207695965853 l -6.822412018705669 5.865079094393907" fill="#ff6b09" stroke="none" /><path d="M 115.9244219780498 86.31012108654704 l 6.77143843303701 -5.821258212446019 a29.92969347897121,29.92969347897121 0 0,0 0.33248951572513435,0.3935627140267614 l -6.870638562249262 5.703836548790151" fill="#ff6a09" stroke="none" /><path d="M 116.15771136456269 86.58626213691792 l 6.935712666145849 -5.757859482586222 a30.0142695770952,30.0142695770952 0 0,0 0.326585993218639,0.40035581172353985 l -7.033797151440898 5.637619501254582" fill="#ff6b09" stroke="none" /><path d="M 116.38621287248628 86.86637796730983 l 3.101404213530451 -2.485789183142797 a24.974651677661097,24.974651677661097 0 0,0 0.26597518744266735,0.33776147784901245 l -3.1437334815670823 2.432035311340746" fill="#ff2403" stroke="none" /><path d="M 116.60985879189232 87.15038557335679 l 2.076529473093838 -1.6064316626123782 a23.625375656791032,23.625375656791032 0 0,0 0.24606847987541597,0.32379727569305167 l -2.103873893193368 1.5704496110382928" fill="#ff1101" stroke="none" /><path d="M 116.82858285166822 87.43820079747576 l 11.565678967475845 -8.633272219703716 a35.43254375355298,35.43254375355298 0 0,0 0.36063139685147805,0.49190082001970076 l -11.71257297684095 8.432908956012522" fill="#ffb410" stroke="none" /><path d="M 117.04232023915458 87.72973835380427 l 13.024149797576195 -9.377228187999057 a37.0487035750402,37.0487035750402 0 0,0 0.3681712804160789,0.5207521663054582 l -13.183633697796155 9.151649521361804" fill="#ffc912" stroke="none" /><path d="M 117.2510076193507 88.02491185347247 l 14.777721550541525 -10.258213437577448 a38.98921891456752,38.98921891456752 0 0,0 0.37796433684246716,0.5546160259667842 l -14.952110353052726 10.002319388340256" fill="#ffe115" stroke="none" /><path d="M 117.45458315368197 88.32363383020206 l 11.963919310248144 -8.003347972415236 a35.39405933118561,35.39405933118561 0 0,0 0.3343952599832599,0.5093069224946067 l -12.09991120558933 7.796222985942956" fill="#ffb310" stroke="none" /><path d="M 117.65298651832404 88.62581576622439 l 10.843887019221963 -6.98694063119855 a33.89989244410758,33.89989244410758 0 0,0 0.3118344624015155,0.4932472323110704 l -10.962549077869435 6.799245751173274" fill="#ffa00e" stroke="none" /><line stroke="#e1ed5e" stroke-width="0.3" x1="172.23445277983987" x2="176.4835382374775" y1="55.19839476539836" y2="52.563006222186495" /><path d="M 173.08426987136738 54.67131705675599 a86.0,86.0 0 0,1 12.851231095245387,41.99856678651699" fill="none" id="id87" stroke="none" /><text fill="#e1ed5e" style="font-size:6.75px; font-family:Arial;" text-anchor="middle"><textPath startOffset="22.20632615414155" xlink:href="#id87">March</textPath></text><path d="M 117.84615892207809 88.93136811851018 l 7.740670927189703 -4.800956742731757 a30.108631733066247,30.108631733066247 0 0,0 0.26937791608862943,0.4427864658957514 l -7.822164641564556 4.667002503628924" fill="#ff6c0a" stroke="none" /><path d="M 118.03404312379186 89.2402003453031 l 9.076797432179186 -5.415564397074606 a31.569606868927373,31.569606868927373 0 0,0 0.27441553879513303,0.46906510890472486 l -9.168672645444646 5.258519875815986" fill="#ff800b" stroke="none" /><path d="M 118.21658344932153 89.55222093294921 l 7.840884031805048 -4.496991671493519 a30.038937796760052,30.038937796760052 0 0,0 0.25338896639942676,0.4507506973239087 l -7.917130639496908 4.361357464234817" fill="#ff6c09" stroke="none" /><path d="M 118.3937258080291 89.86733742301442 l 10.455057227258902 -5.759440377253306 a32.93647247240131,32.93647247240131 0 0,0 0.26928216970596625,0.49893896359132606 l -10.552647496183333 5.578620430329521" fill="#ff930d" stroke="none" /><path d="M 118.56541770881063 90.18545643968196 l 2.625181334072076 -1.3877929902302655 a23.969435370654278,23.969435370654278 0 0,0 0.18969019290861863,0.3664210755237022 l -2.648680960140811 1.3423991924462184" fill="#ff1602" stroke="none" /><path d="M 118.73160827565052 90.50648371742162 l 8.109399393949822 -4.109989599156314 a30.09144504662305,30.09144504662305 0 0,0 0.23018520678584564,0.4640393307885545 l -8.178944613689076 3.9697906798688094" fill="#ff6c0a" stroke="none" /><path d="M 118.89224826269711 90.83032412892265 l 10.46183491745167 -5.07783054064395 a32.62903060618156,32.62903060618156 0 0,0 0.2408982780178574,0.5073932102259774 l -10.547691389311284 4.896994914777432" fill="#ff8f0d" stroke="none" /><path d="M 119.04729006885535 91.15688171328212 l 4.893000221728636 -2.2716816713173213 a26.394625917117473,26.394625917117473 0 0,0 0.1877759979350735,0.4137395207981884 l -4.931378536627056 2.1871201416770703" fill="#ff3905" stroke="none" /><path d="M 119.196687751892 91.48605970444005 l 17.733308563271983 -7.864915672004879 a40.399152845626105,40.399152845626105 0 0,0 0.2764635037334272,0.6381158836605124 l -17.86606277684809 7.558500643757764" fill="#fff316" stroke="none" /><path d="M 119.34039704204932 91.81776055985345 l 8.354307623403114 -3.534412720830201 a30.07119226715087,30.07119226715087 0 0,0 0.19757963725439534,0.4784547634877664 l -8.413908947543709 3.3900833868891316" fill="#ff6c09" stroke="none" /><path d="M 119.47837535516314 92.15188598940014 l 10.699339066470632 -4.3109156333959175 a32.535157131897336,32.535157131897336 0 0,0 0.20482655373567732,0.5212612377570893 l -10.77195917008801 4.126105390743044" fill="#ff8d0d" stroke="none" /><path d="M 119.61058180528143 92.48833698450437 l 10.581074562757959 -4.0529887000020075 a32.33074826765591,32.33074826765591 0 0,0 0.19459324911146358,0.5214131619420963 l -10.649272400371046 3.870252401030578" fill="#ff8b0c" stroke="none" /><path d="M 119.7369772167798 92.82701384747503 l 10.83973683895092 -3.9394726653839442 a32.53340104301489,32.53340104301489 0 0,0 0.18675244126258922,0.5279742998035395 l -10.90594236102332 3.7523007391537906" fill="#ff8d0d" stroke="none" /><path d="M 119.85752413597 93.16781622104841 l 1.6051357706015585 -0.5522633385626362 a22.697485091888883,22.697485091888883 0 0,0 0.12393119358147064,0.3705384945485382 l -1.6144042579547992 0.524551741091784" fill="#ff0300" stroke="none" /><path d="M 119.97218684219823 93.5106431181261 l 9.344426132227952 -3.0361881003543383 a30.82531108522259,30.82531108522259 0 0,0 0.15962302579319437,0.5060486126897308 l -9.395304641789352 2.8748893212381885" fill="#ff760a" stroke="none" /><path d="M 120.08093135843002 93.85539295169968 l 3.464333780651253 -1.0600588880215585 a24.622890198423754,24.622890198423754 0 0,0 0.12052799564114422,0.40636048362574184 l -3.4820676734040994 1.0002690176492868" fill="#ff1f03" stroke="none" /><path d="M 120.18372546131832 94.20196356495316 l 8.693906089291351 -2.497437074498063 a30.04550689737699,30.04550689737699 0 0,0 0.13851440727169897,0.49831002073353914 l -8.735607267129412 2.347415750345572" fill="#ff6c09" stroke="none" /><path d="M 120.28053869075195 94.5502522615342 l 11.289302617139745 -3.0336399020144658 a32.68979574827775,32.68979574827775 0 0,0 0.141350160207343,0.5446798276381132 l -11.33984910921739 2.838863648827502" fill="#ff8f0d" stroke="none" /><path d="M 120.45610955862082 95.25157060432595 l 11.238898206765594 -2.6088594445126847 a32.537719900537624,32.537719900537624 0 0,0 0.12194767572989593,0.5466675187608692 l -11.282140269497527 2.4150137562018514" fill="#ff8d0d" stroke="none" /><path d="M 120.53481517161879 95.60439243477599 l 10.410373094475855 -2.2284064574453777 a31.646204173590277,31.646204173590277 0 0,0 0.1094366489858995,0.5336519660900646 l -10.44718903937675 2.0488788351919016" fill="#ff810b" stroke="none" /><path d="M 120.6074358757038 95.95851677861258 l 5.213792554370402 -1.0225170785622082 a26.313113397619105,26.313113397619105 0 0,0 0.08334274711049608,0.4452202876375056 l -5.230621025390757 0.9326187134621399" fill="#ff3705" stroke="none" /><path d="M 120.67395015179393 96.31383870115 l 31.36405341326241 -5.592204635213355 a52.85869738693155,52.85869738693155 0 0,0 0.15200182560298323,0.8971233790388042 l -31.455667100385618 5.051495467858714" fill="#7bff26" stroke="none" /><path d="M 120.73433829027371 96.67025291283417 l 2.636204713703709 -0.4233506198143485 a23.66998146807255,23.66998146807255 0 0,0 0.06114080938304401,0.40284154220724266 l -2.643101416526053 0.37790996521502374" fill="#ff1101" stroke="none" /><path d="M 120.78858239683441 97.02765380044208 l 9.01246335462769 -1.2885997077348448 a30.10411911857931,30.10411911857931 0 0,0 0.06892983295527519,0.5136073194517824 l -9.0333091866408 1.1332740462183981" fill="#ff6c0a" stroke="none" /><path d="M 120.83666639777658 97.38593545837742 l 11.849259262379512 -1.4865491384737244 a32.94214274777285,32.94214274777285 0 0,0 0.06574255113640684,0.5632420298373516 l -11.873092166519509 1.28236337031152" fill="#ff930d" stroke="none" /><path d="M 120.87857604477298 97.74499172005257 l 9.147454682606684 -0.9879785865418792 a30.20065371904672,30.20065371904672 0 0,0 0.051374007481906625,0.5173292443553912 l -9.16310581577082 0.8303738114820531" fill="#ff6e0a" stroke="none" /><path d="M 120.91429891909075 98.10471618934814 l 13.585824012332154 -1.2311668875228028 a34.64149500600992,34.64149500600992 0 0,0 0.04870514387223037,0.5943261208467597 l -13.60500364002388 0.9971268494682742" fill="#ffa90f" stroke="none" /><path d="M 120.96714384426684 98.82574320788733 l 31.090691126146968 -1.7412221472567344 a52.13941119012322,52.13941119012322 0 0,0 0.04247224734728884,0.896522013712856 l -31.116056981727752 1.2057890269208786" fill="#83ff25" stroke="none" /><path d="M 120.98425023603335 99.18683210126433 l 9.035693068263798 -0.3501452500467998 a30.042474822746303,30.042474822746303 0 0,0 0.015576745008507246,0.5169163332710047 l -9.04038150772795 0.19455876935079602" fill="#ff6c09" stroke="none" /><line stroke="#e1ed5e" stroke-width="0.3" x1="184.98032266829074" x2="189.97916517819016" y1="98.17113171792111" y2="98.06355123074" /><path d="M 185.9800911702706 98.14961562048488 a86.0,86.0 0 0,1 -9.607161424134198,41.387399972396054" fill="none" id="id88" stroke="none" /><text fill="#e1ed5e" style="font-size:6.75px; font-family:Arial;" text-anchor="middle"><textPath startOffset="21.466115282336823" xlink:href="#id88">April</textPath></text><path d="M 120.99513854157772 99.54816195383933 l 8.98587786999231 -0.193385792228766 a29.98795856460484,29.98795856460484 0 0,0 0.006664456627392941,0.5161695102804695 l -8.987875333737417 0.038680023887833766" fill="#ff6b09" stroke="none" /><path d="M 120.99980553446 99.90962569577887 l 10.48025086563236 -0.04510257861627271 a31.480347916418886,31.480347916418886 0 0,0 -0.0023320982181410013,0.5418974949826576 l -10.479474470124716 -0.1353043945700696" fill="#ff7f0b" stroke="none" /><path d="M 120.99824983174949 100.27111621757518 l 11.590834203233367 0.14965357365023302 a32.59180027946267,32.59180027946267 0 0,0 -0.012071284740781767,0.5609051687015424 l -11.586540855807577 -0.3491485581418902" fill="#ff8e0d" stroke="none" /><path d="M 120.9904718944345 100.63252640178507 l 13.536706463842101 0.40791480413858616 a34.5428511169421,34.5428511169421 0 0,0 -0.023025059089315375,0.5941744655451018 l -13.527679271901583 -0.6408665166976941" fill="#ffa80f" stroke="none" /><path d="M 120.9764740272857 100.99374915477107 l 33.890734737874396 1.6055552976407912 a54.928744581648594,54.928744581648594 0 0,0 -0.052871922341046235,0.9440636907478258 l -33.858076464645826 -2.1886907047240403" fill="#66ff29" stroke="none" /><path d="M 120.95626037817324 101.35467743843564 l 9.432659845871639 0.6097562850931707 a30.45234756529455,30.45234756529455 0 0,0 -0.03831694378213142,0.5228042549536123 l -9.42076634342517 -0.7720336765435533" fill="#ff710a" stroke="none" /><path d="M 120.92983693683757 101.71520430193887 l 9.184034165393223 0.7526334274449521 a30.21482179031247,30.21482179031247 0 0,0 -0.046941464729769795,0.5179951517238424 l -9.169718104386378 -0.910609967717365" fill="#ff6e0a" stroke="none" /><path d="M 120.89721153311464 102.0752229133903 l 4.088981425013946 0.406061255214347 a25.109094162597803,25.109094162597803 0 0,0 -0.04641320222787713,0.42972860934184587 l -4.081385921285017 -0.4763861864409843" fill="#ff2603" stroke="none" /><path d="M 120.8583938346157 102.4346265915055 l 11.404727029749044 1.3311788009970822 a32.48215291760707,32.48215291760707 0 0,0 -0.0696022789383527,0.5547986454317881 l -11.380123241563844 -1.5272952007162652" fill="#ff8d0d" stroke="none" /><path d="M 120.81339534386255 102.79330883721812 l 2.3168128186108534 0.31093310886992015 a23.33758444439363,23.33758444439363 0 0,0 -0.056861412146552506,0.3976885841174202 l -2.3111173554476996 -0.3507671649677497" fill="#ff0c01" stroke="none" /><path d="M 120.76222939487914 103.15116336523771 l 11.58296700326857 1.7579914269928778 a32.71561600839618,32.71561600839618 0 0,0 -0.08929531974242938,0.5560420412751467 l -11.550989929164851 -1.9571126979612294" fill="#ff900d" stroke="none" /><path d="M 120.70491114924044 103.5080841355445 l 8.968918431620361 1.5196259590862475 a30.096744521453168,30.096744521453168 0 0,0 -0.09094026256641595,0.5100412875789486 l -8.941431726714756 -1.6737859973984144" fill="#ff6c0a" stroke="none" /><path d="M 120.64145759157962 103.86396538481128 l 3.0992722173286715 0.5801664205511586 a24.153106619294775,24.153106619294775 0 0,0 -0.08001586887382228,0.4079991915171037 l -3.088826415479185 -0.6334293391362072" fill="#ff1802" stroke="none" /><path d="M 120.5718875245553 104.21870165774334 l 2.4748328722688915 0.5075169465327987 a23.52633552733612,23.52633552733612 0 0,0 -0.08476870442700828,0.39601116612817777 l -2.46573012911744 -0.5500419320771455" fill="#ff0f01" stroke="none" /><path d="M 120.49622156327973 104.57218783832717 l 3.7792685923105678 0.8430590898027549 a24.872159568215668,24.872159568215668 0 0,0 -0.09681124986623496,0.4170603306379296 l -3.76419677651378 -0.9079880777892494" fill="#ff2303" stroke="none" /><path d="M 120.41448212921028 104.9243191809786 l 11.244069735041254 2.712260243393524 a32.56656646694964,32.56656646694964 0 0,0 -0.13614171752647866,0.5438184869701688 l -11.195716703219716 -2.9054065697610887" fill="#ff8e0d" stroke="none" /><path d="M 120.32669344350535 105.2749913415812 l 8.720973943727142 2.263184721665322 a30.00984969972014,30.00984969972014 0 0,0 -0.13406103471547073,0.4988909821053024 l -8.680724832669894 -2.4129666369461726" fill="#ff6b09" stroke="none" /><path d="M 120.23288151984713 105.62410040840565 l 8.795433742068957 2.4448520816153465 a30.12890773379291,30.12890773379291 0 0,0 -0.14319461116247031,0.49847922682469203 l -8.752046494020387 -2.5958887839446207" fill="#ff6d0a" stroke="none" /><path d="M 120.13307415673323 105.97154293290107 l 1.8509967692879985 0.5490123659415345 a22.930700292088684,22.930700292088684 0 0,0 -0.11549781802803742,0.37745355197465347 l -1.8412721787538284 -0.580792890468245" fill="#ff0701" stroke="none" /><path d="M 120.02730092923936 106.31721596034902 l 8.68791864883344 2.7404321003883263 a30.109879172941135,30.109879172941135 0 0,0 -0.16016699164676387,0.49294331339013503 l -8.63945940617043 -2.8895743137562566" fill="#ff6c0a" stroke="none" /><path d="M 119.9155931802556 106.66101706037122 l 8.65856831646844 2.895965525725094 a30.130028566063707,30.130028566063707 0 0,0 -0.16874131539578438,0.4904412485990343 l -8.607436170129423 -3.0445794774134285" fill="#ff6d0a" stroke="none" /><path d="M 119.79798401119884 107.00284435728193 l 4.318946129735213 1.5276761268678998 a25.581166884119906,25.581166884119906 0 0,0 -0.15041207073168222,0.4138694192396925 l -4.292009797998304 -1.6017933431137232" fill="#ff2d04" stroke="none" /><path d="M 119.67450827220406 107.3425965602758 l 3.0956962098994874 1.1553248512228445 a24.304256427070868,24.304256427070868 0 0,0 -0.14965139934507343,0.3906925807344392 l -3.075350530960907 -1.2084409987904277" fill="#ff1b02" stroke="none" /><path d="M 119.54520255179757 107.68017299344265 l 5.340747015198946 2.0986152935605147 a26.73827193767623,26.73827193767623 0 0,0 -0.17201288752642782,0.4269218801663619 l -5.303831513415125 -2.19023654156969" fill="#ff3d05" stroke="none" /><path d="M 119.41010516605496 108.01547362559984 l 8.466329904060414 3.496201770730338 a30.159812709113957,30.159812709113957 0 0,0 -0.20228476321440153,0.4781414262857826 l -8.404894159653704 -3.641417722682284" fill="#ff6d0a" stroke="none" /><path d="M 119.26925614724726 108.34839909993367 l 9.480659722203395 4.1074928106618716 a31.33220237693052,31.33220237693052 0 0,0 -0.2186673139687224,0.49303706651449786 l -9.4085513235034 -4.270078213669057" fill="#ff7d0b" stroke="none" /><path d="M 119.12269723197855 108.67885076344098 l 8.207932838594456 3.725176596080918 a30.013717443700255,30.013717443700255 0 0,0 -0.2175642684727766,0.46861407886441087 l -8.142593953281848 -3.865910742224159" fill="#ff6b09" stroke="none" /><path d="M 118.97047184881838 109.00673069616215 l 1.3425144564646818 0.6373940649154207 a22.48614139966763,22.48614139966763 0 0,0 -0.16901734243993263,0.3482257867094454 l -1.331343857410035 -0.6604088075901414" fill="#ff0000" stroke="none" /><path d="M 118.81262510543309 109.33194174019688 l 1.6245284614140245 0.8058420806370684 a22.813415060285344,22.813415060285344 0 0,0 -0.17753326837475208,0.3502899810889206 l -1.6104165232530034 -0.8336862734286834" fill="#ff0500" stroke="none" /><path d="M 118.64920377521936 109.65438752849418 l 5.482874836397765 2.8383945544715643 a27.174010051697167,27.174010051697167 0 0,0 -0.21861813522408477,0.413543123448613 l -5.433204192948787 -2.9323526930063117" fill="#ff4406" stroke="none" /><line stroke="#e1ed5e" stroke-width="0.3" x1="174.80103733775053" x2="179.2010983576182" y1="140.37084112569926" y2="142.7455964860345" /><path d="M 175.68104954172406 140.8457921977663 a86.0,86.0 0 0,1 -30.038265399797805,32.042727171017184" fill="none" id="id89" stroke="none" /><text fill="#e1ed5e" style="font-size:6.75px; font-family:Arial;" text-anchor="middle"><textPath startOffset="22.206326154141568" xlink:href="#id89">May</textPath></text><path d="M 118.30583269289576 110.29060199501025 l 7.8993865893254345 4.440630740988733 a30.061981563953253,30.061981563953253 0 0,0 -0.25745654171337906,0.44889718155375957 l -7.821778051459676 -4.575947768400808" fill="#ff6c09" stroke="none" /><path d="M 118.12598468904814 110.60418214915192 l 7.6789098152464215 4.492366058158672 a29.89646046195811,29.89646046195811 0 0,0 -0.2636855345945931,0.4419521231441501 l -7.600443404953601 -4.6238802751889265" fill="#ff6a09" stroke="none" /><path d="M 117.75023020441432 111.22182372390056 l 7.559116325195128 4.778927931239048 a29.94306389274997,29.94306389274997 0 0,0 -0.2791764897995567,0.43328811186564625 l -7.475734972018521 -4.908337643026147" fill="#ff6a09" stroke="none" /><path d="M 117.55443506779139 111.5257021239791 l 9.700962426591493 6.369353545871442 a32.605056509748024,32.605056509748024 0 0,0 -0.3120721479222527,0.4665055186387112 l -9.58988717325852 -6.535395978715959" fill="#ff8e0d" stroke="none" /><path d="M 117.35343817320211 111.8261652097733 l 7.378867254151445 5.028611756218858 a29.929424289906432,29.929424289906432 0 0,0 -0.293791636775278,0.42322876479046534 l -7.291214710214031 -5.154881783196343" fill="#ff6a09" stroke="none" /><path d="M 117.14729908036423 112.12312394758627 l 5.329912969493377 3.768243340025961 a27.527452039810306,27.527452039810306 0 0,0 -0.27687400643901755,0.3845537788588597 l -5.264259170678757 -3.8594307243359522" fill="#ff4906" stroke="none" /><path d="M 116.93607887273984 112.41649034213515 l 9.677730892586975 7.095116470849878 a32.99996470679216,32.99996470679216 0 0,0 -0.3398033603477812,0.455222131057374 l -9.554166265544103 -7.260651481416567" fill="#ff940d" stroke="none" /><path d="M 116.71984013943494 112.70617746262583 l 2.098513261405871 1.594756988388158 a23.635717693591097,23.635717693591097 0 0,0 -0.2489552201895538,0.32180818159640245 l -2.0707512239982484 -1.6306431640978132" fill="#ff1101" stroke="none" /><path d="M 116.498646956653 112.99209946851258 l 7.0272283271586655 5.533693135822809 a29.944478614400822,29.944478614400822 0 0,0 -0.3223766784558339,0.4022144740539902 l -6.930933736647978 -5.6538354434550495" fill="#ff6a09" stroke="none" /><path d="M 116.27256486870786 113.27417163493432 l 6.955169982345786 5.673605902984623 a29.97575586932409,29.97575586932409 0 0,0 -0.32959628268769176,0.3970199549789676 l -6.856477699764551 -5.792487115077361" fill="#ff6b09" stroke="none" /><path d="M 116.0416608686014 113.55231037782055 l 8.12357440983703 6.8629553187300605 a31.63450125295231,31.63450125295231 0 0,0 -0.3549955798214665,0.41294005952559837 l -8.004236320444786 -7.0017724774171874" fill="#ff810b" stroke="none" /><path d="M 115.80600337817218 113.82643327865902 l 8.770813382132939 7.672342155456028 a32.652982516703176,32.652982516703176 0 0,0 -0.37370739907033995,0.4198642245004641 l -8.63744713341426 -7.822180549697358" fill="#ff8f0d" stroke="none" /><path d="M 115.56566222782051 114.09645910891815 l 6.602996062360448 5.979756121333004 a29.90825685923835,29.90825685923835 0 0,0 -0.34886356896462,0.37862250271942316 l -6.499086085400105 -6.092529878853762" fill="#ff6a09" stroke="none" /><path d="M 115.32070863581623 114.36230785411682 l 6.504382543387668 6.097495012122855 a29.915516681246764,29.915516681246764 0 0,0 -0.35541549638497,0.37265172702721183 l -6.398460495623733 -6.208553855732574" fill="#ff6a09" stroke="none" /><path d="M 115.07121518719521 114.62390073753431 l 2.2621491480518885 2.195008443825769 a24.15204391411324,24.15204391411324 0 0,0 -0.292077998859974,0.2958734707953365 l -2.224030524136379 -2.23362240860177" fill="#ff1802" stroke="none" /><path d="M 114.81725581225074 114.88116024355365 l 12.403013098203829 12.456505290585902 a38.578374724888825,38.578374724888825 0 0,0 -0.47460594987807064,0.46450181326678996 l -12.186757195949964 -12.668157206775263" fill="#ffdc14" stroke="none" /><path d="M 114.55890576462653 115.13401014063108 l 13.497671045665664 14.030854638562648 a40.46925796083344,40.46925796083344 0 0,0 -0.5061820892907372,0.4786267597174003 l -13.25415312198412 -14.261116035025971" fill="#fff417" stroke="none" /><path d="M 114.29624159901734 115.38237550388516 l 7.072905573976319 7.610258170924058 a31.389515036155522,31.389515036155522 0 0,0 -0.39894646215078844,0.36442813424542536 l -6.940859562358667 -7.730879071756067" fill="#ff7e0b" stroke="none" /><path d="M 114.0293411484842 115.62618273729858 l 6.400682908408343 7.129218664776637 a30.580944654061533,30.580944654061533 0 0,0 -0.3947237573249421,0.34829782209495036 l -6.277016798176813 -7.238339628643876" fill="#ff730a" stroke="none" /><path d="M 113.75828350139079 115.86535959552629 l 2.3049402214871115 2.657940974714497 a24.518152874690823,24.518152874690823 0 0,0 -0.32122810982805516,0.27375756409048285 l -2.258846635082009 -2.697222929027927" fill="#ff1e03" stroke="none" /><path d="M 113.48314897796784 116.09983520530334 l 9.727863581632523 11.615758367713344 a36.15114425777654,36.15114425777654 0 0,0 -0.48051734522073775,0.39543306166235986 l -9.526476107867094 -11.781486548232882" fill="#ffbd11" stroke="none" /><path d="M 113.20401910651253 116.32954008644616 l 1.747738685372025 2.161445594193265 a23.779647022375936,23.779647022375936 0 0,0 -0.320507186452841,0.2546302929648256 l -1.710274006201833 -2.1912098011632164" fill="#ff1302" stroke="none" /><path d="M 112.92097659922987 116.55440617244103 l 6.396118235099194 8.194731905721405 a31.395381642057053,31.395381642057053 0 0,0 -0.42887776433756813,0.32884518140798713 l -6.254111742268132 -8.303616428956763" fill="#ff7e0b" stroke="none" /><path d="M 112.63410532772338 116.77436683061366 l 8.47059149358976 11.246448030946903 a35.079542377650796,35.079542377650796 0 0,0 -0.485459154561153,0.35913107685507567 l -8.275747368610041 -11.390589056541748" fill="#ffaf10" stroke="none" /><path d="M 112.34349029814194 116.9893568818739 l 1.498165450193621 2.0620478395210555 a23.548831302504603,23.548831302504603 0 0,0 -0.32998940540113625,0.23543867899158616 l -1.4624487169436002 -2.087530780356861" fill="#ff1001" stroke="none" /><path d="M 112.04921762599082 117.19931262002967 l 11.646128384176707 16.623934359056353 a41.297475210354136,41.297475210354136 0 0,0 -0.5857223178029107,0.4028651510860829 l -11.358249181750914 -16.821940299507528" fill="#fffe18" stroke="none" /><path d="M 111.7513745106137 117.40417183066458 l 6.477147011849191 9.592867580288848 a32.57482361965243,32.57482361965243 0 0,0 -0.4674104066992524,0.30977413044980245 l -6.311061906409974 -9.70293973182997" fill="#ff8e0d" stroke="none" /><path d="M 111.45004920935366 117.60387380957326 l 2.4480789740462936 3.7637980891623775 a25.489907206073408,25.489907206073408 0 0,0 -0.3698685042774119,0.23606757915244272 l -2.382928667721951 -3.8053800971386287" fill="#ff2c04" stroke="none" /><path d="M 111.1453310114006 117.79835938074945 l 1.4350066893081652 2.2916111458655157 a23.703835394807577,23.703835394807577 0 0,0 -0.34767973061816615,0.21357328748091897 l -1.3953477587576903 -2.315972900174813" fill="#ff1202" stroke="none" /><line stroke="#e1ed5e" stroke-width="0.3" x1="143.8653032363475" x2="146.44561519142675" y1="172.8068346515853" y2="177.08958963109032" /><path d="M 144.38136562736335 173.6633856474863 a86.0,86.0 0 0,1 -40.68145358897372,12.25698825130547" fill="none" id="id90" stroke="none" /><text fill="#e1ed5e" style="font-size:6.75px; font-family:Arial;" text-anchor="middle"><textPath startOffset="21.466115282336833" xlink:href="#id90">June</textPath></text><path d="M 110.8373102113329 117.98757091392108 l 0.8535954183067022 1.416782192183967 a22.654054690221518,22.654054690221518 0 0,0 -0.33574617481319563,0.19836475808444823 l -0.8290813724651244 -1.4312655225621647" fill="#ff0200" stroke="none" /><path d="M 110.5260780823613 118.17145234162733 l 1.4261344099298057 2.4619742757010625 a23.845202398670367,23.845202398670367 0 0,0 -0.3569413703350291,0.20268062567376155 l -1.3835442726735774 -2.4861580671694528" fill="#ff1402" stroke="none" /><path d="M 110.21172684928248 118.3499491758327 l 5.789888216663327 10.404132041290326 a32.90666910156072,32.90666910156072 0 0,0 -0.497325052867722,0.27118127178442847 l -5.609940351926956 -10.502253964834525" fill="#ff920d" stroke="none" /><path d="M 109.89434966115114 118.52300852407294 l 5.647493961935308 10.57255730584395 a32.986373765048796,32.986373765048796 0 0,0 -0.5031350290288792,0.2632164675579037 l -5.464668030379933 -10.66820319234657" fill="#ff930d" stroke="none" /><path d="M 109.57404056367764 118.69057910512821 l 7.6255962217373545 14.886798155720433 a37.726221242890944,37.726221242890944 0 0,0 -0.5805276653588495,0.2910886229675701 l -7.368214648695744 -15.015854619597304" fill="#ffd113" stroke="none" /><path d="M 109.2508944713604 118.85261126421891 l 5.078924715714547 10.350457850538984 a32.529416896950174,32.529416896950174 0 0,0 -0.5048059468597733,0.2423375314995622 l -4.900006100854541 -10.436349658538106" fill="#ff8d0d" stroke="none" /><path d="M 108.92500713936063 119.00905698771935 l 11.376165569529169 24.229692619428256 a47.767426986868145,47.767426986868145 0 0,0 -0.7472918345252023,0.3430450288806087 l -10.957405739236547 -24.421924718642938" fill="#b4ff20" stroke="none" /><path d="M 108.2653958097858 119.30500536409082 l 5.0161282599451695 11.715879698170022 a33.74454313901495,33.74454313901495 0 0,0 -0.53594134395622,0.22402352523982993 l -4.813715456491488 -11.800488266429825" fill="#ff9e0e" stroke="none" /><path d="M 107.93186726928326 119.44442032107085 l 3.3707932477057265 8.263264941111428 a29.924337208206545,29.924337208206545 0 0,0 -0.47861686579298846,0.19045152842541385 l -3.228055305870872 -8.320063313942912" fill="#ff6a09" stroke="none" /><path d="M 107.59598834532513 119.57807347666477 l 5.0935803121962655 13.128309981260667 a35.08179972023682,35.08179972023682 0 0,0 -0.5648667235588538,0.21358426112576118 l -4.866843367877136 -13.21404249249306" fill="#ffaf10" stroke="none" /><path d="M 107.2578585660854 119.70592522655815 l 2.0886505360435867 5.670927714134956 a27.043333699263933,27.043333699263933 0 0,0 -0.4382055939629633,0.1571249353868621 l -1.9907253814508887 -5.706040190561779" fill="#ff4206" stroke="none" /><path d="M 106.91757812671514 119.82793768551818 l 4.227271621136931 12.116679674344947 a33.83291672573128,33.83291672573128 0 0,0 -0.5515253056301024,0.18710732824052217 l -4.018076582569602 -12.187649989483592" fill="#ff9f0e" stroke="none" /><path d="M 106.57524785965236 119.94407469862006 l 0.5654284590186989 1.7150604302832742 a22.805863123769825,22.805863123769825 0 0,0 -0.373884375251981,0.11970597007626285 l -0.5358227386757776 -1.7245392470192435" fill="#ff0500" stroke="none" /><path d="M 106.2309692047433 120.05430185196036 l 2.6391400285740296 8.494041460247475 a29.894593887234244,29.894593887234244 0 0,0 -0.4927270034913059,0.14845460425068835 l -2.492538050642478 -8.538211433603887" fill="#ff6a09" stroke="none" /><path d="M 105.88484417918355 120.15858648285463 l 4.092303890487303 14.018223657020586 a35.60334022168727,35.60334022168727 0 0,0 -0.5897758273567932,0.16667653992253878 l -3.850396895025904 -14.086588990281644" fill="#ffb610" stroke="none" /><path d="M 105.53697534728816 120.25689768951611 l 4.077402131550799 14.917082456993823 a36.464299440036974,36.464299440036974 0 0,0 -0.6068867214512517,0.160284299042852 l -3.82002496728805 -14.98505810534026" fill="#ffc111" stroke="none" /><path d="M 105.18746579009965 120.34920634021253 l 0.6129585451235668 2.4044919846066715 a23.481390715320288,23.481390715320288 0 0,0 -0.39252690858449746,0.09647356399783118 l -0.5714783517958583 -2.4146868069185325" fill="#ff0f01" stroke="none" /><path d="M 104.83641907484287 120.43548508189849 l 0.4110814361394934 1.7369562946624848 a22.784938406978274,22.784938406978274 0 0,0 -0.3824396040849782,0.08704200877328899 l -0.38112168266165314 -1.7437750370134582" fill="#ff0400" stroke="none" /><path d="M 103.7750983002368 120.6578951692458 l 0.7237580502873837 3.9605108904837305 a25.026098884651994,25.026098884651994 0 0,0 -0.4244319456100472,0.07379293414340539 l -0.6554771332052866 -3.972382403148142" fill="#ff2503" stroke="none" /><path d="M 103.41894727170886 120.7198165907248 l 0.6012502795971797 3.6437518710690457 a24.693024451128757,24.693024451128757 0 0,0 -0.4199744168086273,0.06559136669539364 l -0.5384399991800354 -3.653561545111545" fill="#ff2003" stroke="none" /><path d="M 103.06178313531738 120.77559828337769 l 2.2580956175201705 15.322211065151688 a36.48770957058921,36.48770957058921 0 0,0 -0.6221526462050785,0.08622468769620062 l -1.9940143801282617 -15.358810318340492" fill="#ffc112" stroke="none" /><path d="M 102.70371172650421 120.8252237178851 l 0.21856184157574582 1.6834632192437553 a22.697591732172235,22.697591732172235 0 0,0 -0.3878830112120159,0.04696723085378051 l -0.18955140731234957 -1.6869759788228866" fill="#ff0300" stroke="none" /><path d="M 102.34483914955558 120.86867818915974 l 1.4393928625912604 12.810356924859223 a33.89096956614076,33.89096956614076 0 0,0 -0.5802899012102751,0.0601494209227018 l -1.2186703647753827 -12.833235714237683" fill="#ff9f0e" stroke="none" /><path d="M 101.98527174616119 120.90594882070398 l 1.2137345490469322 12.781258995580934 a33.83875901587333,33.83875901587333 0 0,0 -0.5803438733400674,0.05007451135144683 l -0.993546357965323 -12.800257759211044" fill="#ff9f0e" stroke="none" /><path d="M 101.26447882468166 120.96189622390904 l 0.5368273667950493 8.899255039518069 a29.915431783157103,29.915431783157103 0 0,0 -0.5142775148705871,0.02658227323170851 l -0.3835617835109826 -8.90717711951198" fill="#ff6a09" stroke="none" /><line stroke="#e1ed5e" stroke-width="0.3" x1="102.19456741930631" x2="102.32365962044197" y1="184.97166512339345" y2="189.96999836594603" /><path d="M 102.22038585953345 185.97133177190398 a86.0,86.0 0 0,1 -42.740103519485714,-10.115201625700543" fill="none" id="id91" stroke="none" /><text fill="#e1ed5e" style="font-size:6.75px; font-family:Arial;" text-anchor="middle"><textPath startOffset="22.20632615414155" xlink:href="#id91">July</textPath></text><path d="M 100.54218724476979 120.99299961872073 l 0.4293813521474782 16.625257508123465 a37.63080141054506,37.63080141054506 0 0,0 -0.6476804062578493,0.011150405560978446 l -0.14314125599696095 -16.630185390963604" fill="#ffd013" stroke="none" /><path d="M 100.18074693466247 120.99922214144158 l 0.07795445887126838 9.05676769462582 a30.057103177731598,30.057103177731598 0 0,0 -0.5174027870674415,0.0 l 0.07795445887126215 -9.05676769462582" fill="#ff6c09" stroke="none" /><path d="M 99.81925306533755 120.99922214144158 l -0.07838156330469326 9.106388789954293 a30.106726111137377,30.106726111137377 0 0,0 -0.518180210567905,-0.008920942251269975 l 0.23512146376526616 -9.103690370423863" fill="#ff6c0a" stroke="none" /><path d="M 99.45781275523022 120.99299961872073 l -0.2315224839165095 8.96434112655736 a29.96733039950277,29.96733039950277 0 0,0 -0.5155517422848638,-0.01775664441870764 l 0.38579457787601634 -8.959027683712558" fill="#ff6b09" stroke="none" /><path d="M 99.09653310690486 120.98055641714683 l -0.44695298724788524 10.379265069294698 a31.388883980076535,31.388883980076535 0 0,0 -0.5396076969520154,-0.02789155431366921 l 0.6255487526133896 -10.370033708218827" fill="#ff7e0b" stroke="none" /><path d="M 98.73552117531835 120.96189622390904 l -0.8948510320662945 14.834391928037316 a35.86135734864783,35.86135734864783 0 0,0 -0.6158543289969801,-0.04247292024542639 l 1.1500681218422046 -14.816790663275606" fill="#ffb911" stroke="none" /><path d="M 98.01472825383883 120.90594882070398 l -1.139553334699452 12.000092047728746 a33.05407777296079,33.05407777296079 0 0,0 -0.565960424591442,-0.05866411208145954 l 1.3459463558964873 -11.978698567191525" fill="#ff940d" stroke="none" /><path d="M 97.65516085044442 120.86867818915974 l -0.3459165398561338 3.0785996352600504 a24.097972557459048,24.097972557459048 0 0,0 -0.41181435766343955,-0.04986498363216391 l 0.39885832057096265 -3.072189122902538" fill="#ff1802" stroke="none" /><path d="M 97.2962882734958 120.8252237178851 l -1.5306479040084322 11.789749891532328 a32.88869570268042,32.88869570268042 0 0,0 -0.5607857906803045,-0.07771980069652447 l 1.7333622858755677 -11.761655525343198" fill="#ff920d" stroke="none" /><path d="M 96.93821686468263 120.77559828337769 l -1.733579937258389 11.763132389476116 a32.890188518741276,32.890188518741276 0 0,0 -0.5593902751452045,-0.08736525653562745 l 1.9358060760121107 -11.731548825593382" fill="#ff920d" stroke="none" /><path d="M 96.22490169976321 120.6578951692458 l -0.2719002301435241 1.4878781965615058 a22.512518185991567,22.512518185991567 0 0,0 -0.3806034777890801,-0.07294356236218706 l 0.2974713225042993 -1.4829774358508507" fill="#ff0000" stroke="none" /><path d="M 95.86986931433489 120.58985236759428 l -2.334327271999514 11.637271933050013 a32.86908513140563,32.86908513140563 0 0,0 -0.5537791892617,-0.11604981340399513 l 2.534297922690601 -11.595366138919477" fill="#ff920d" stroke="none" /><path d="M 95.51606077576429 120.51570834832081 l -2.8514137084969495 13.046290125374833 a34.35425947675337,34.35425947675337 0 0,0 -0.5766278213373743,-0.13123861479737456 l 3.0755616792271865 -12.995274776999771" fill="#ffa60f" stroke="none" /><path d="M 95.16358092515715 120.4354850818985 l -2.7418643485265903 11.58529216013505 a32.905327149701,32.905327149701 0 0,0 -0.5500622385882186,-0.13519191529720903 l 2.9408798718580194 -11.536378986523811" fill="#ff920d" stroke="none" /><path d="M 94.46302465271185 120.25689768951611 l -2.7596597316547005 10.096152020865688 a31.466518402169214,31.466518402169214 0 0,0 -0.5212486190655845,-0.14731006635966087 l 2.933039518824899 -10.047153161167506" fill="#ff7f0b" stroke="none" /><path d="M 94.11515582081647 120.15858648285463 l -1.1691754574048727 4.005021008899033 a25.172189417071152,25.172189417071152 0 0,0 -0.41489165263708216,-0.1250034515314298 l 1.2379420844822007 -3.9843021882618777" fill="#ff2703" stroke="none" /><path d="M 93.76903079525671 120.05430185196036 l -1.2131837430887367 3.904617754694071 a25.088747314859035,25.088747314859035 0 0,0 -0.4113104847101405,-0.13168862844718293 l 1.2802155728898175 -3.8831562795871815" fill="#ff2603" stroke="none" /><path d="M 93.42475214034765 119.94407469862007 l -0.7731828124871944 2.3452219744533056 a23.46938813696516,23.46938813696516 0 0,0 -0.38258485279653276,-0.12979355416932184 l 0.8134373982209531 -2.331565433385861" fill="#ff0e01" stroke="none" /><path d="M 93.08242187328487 119.8279376855182 l -3.7445727878655832 10.733114181963398 a32.367566380131116,32.367566380131116 0 0,0 -0.5244785575798812,-0.18805935069486618 l 3.928770906075191 -10.667067290228575" fill="#ff8b0c" stroke="none" /><path d="M 92.7421414339146 119.70592522655815 l -0.7451444409524938 2.0231533175652876 a23.156012426740123,23.156012426740123 0 0,0 -0.3728446366631325,-0.14097793853863197 l 0.7798592983759092 -2.010027128920022" fill="#ff0a01" stroke="none" /><path d="M 92.40401165467489 119.57807347666478 l -0.5489546595501134 1.4148882504070794 a22.51764949160924,22.51764949160924 0 0,0 -0.36015256577658633,-0.14331213862436695 l 0.5732283013685578 -1.405229267376646" fill="#ff0000" stroke="none" /><path d="M 92.06813273071674 119.44442032107085 l -4.789907507334072 11.742124736798894 a33.681510448813256,33.681510448813256 0 0,0 -0.5349402391387457,-0.22360506334493446 l 4.99131920597028 -11.657934630433987" fill="#ff9d0e" stroke="none" /><path d="M 91.7346041902142 119.30500536409082 l -3.505521824049338 8.187643904129468 a29.906525470671188,29.906525470671188 0 0,0 -0.47149677505527776,-0.2066903301712717 l 3.645939273762359 -8.126089020663743" fill="#ff6a09" stroke="none" /><path d="M 91.40352486487194 119.15986991738527 l -1.0524279770640794 2.345657123530356 a23.57093601399877,23.57093601399877 0 0,0 -0.36875270715794906,-0.16927628167805858 l 1.092648679989448 -2.3271937715182225" fill="#ff1001" stroke="none" /><path d="M 91.07499286063937 119.00905698771935 l -4.4149314811749925 9.403206385394974 a31.38806576364449,31.38806576364449 0 0,0 -0.48709395277843087,-0.23383469798441325 l 4.576138101953665 -9.325817410910997" fill="#ff7e0b" stroke="none" /><path d="M 90.7491055286396 118.85261126421891 l -7.227647332529324 14.729389243049745 a37.40712630038203,37.40712630038203 0 0,0 -0.5756174613707566,-0.2886265447537777 l 7.480118701582841 -14.602794857386664" fill="#ffcd13" stroke="none" /><path d="M 90.42595943632237 118.69057910512821 l -5.232704179247842 10.215360040045462 a32.47757699931808,32.47757699931808 0 0,0 -0.4953744465132295,-0.2591564975734968 l 5.4077695282875675 -10.123774123527248" fill="#ff8d0d" stroke="none" /><path d="M 90.10565033884886 118.52300852407294 l -4.203236408857777 7.868792441777144 a29.92104762909137,29.92104762909137 0 0,0 -0.4522027601174047,-0.2465770000645503 l 4.338061980843822 -7.795274789952828" fill="#ff6a09" stroke="none" /><line stroke="#e1ed5e" stroke-width="0.3" x1="58.666819895761336" x2="56.23545636021788" y1="174.27360380694188" y2="178.64263932499728" /><path d="M 58.180547188652646 175.14741091055294 a86.0,86.0 0 0,1 -31.652253787137756,-30.449443065178592" fill="none" id="id92" stroke="none" /><text fill="#e1ed5e" style="font-size:6.75px; font-family:Arial;" text-anchor="middle"><textPath startOffset="22.20632615414155" xlink:href="#id92">August</textPath></text><path d="M 89.7882731507175 118.34994917583269 l -4.371142462357182 7.854718717844894 a29.98907629084796,29.98907629084796 0 0,0 -0.4489096719486688,-0.2549026275552185 l 4.505700901227058 -7.778312924495042" fill="#ff6b09" stroke="none" /><path d="M 89.4739219176387 118.17145234162733 l -4.552440094464983 7.859000053714831 a30.082323087073156,30.082323087073156 0 0,0 -0.4458374028000872,-0.26340859609389106 l 4.687045368293453 -7.77947288532719" fill="#ff6c0a" stroke="none" /><path d="M 89.1626897886671 117.98757091392108 l -6.0296866645333855 10.007964555042376 a32.68402652373899,32.68402652373899 0 0,0 -0.47939809520360605,-0.2944854651799338 l 6.2010639596693 -9.902690623034065" fill="#ff8f0d" stroke="none" /><path d="M 88.8546689885994 117.79835938074946 l -4.792311229086768 7.653005319666021 a30.02965876095368,30.02965876095368 0 0,0 -0.4357420715611249,-0.2781112064928728 l 4.923335102694817 -7.569379684349344" fill="#ff6b09" stroke="none" /><path d="M 88.54995079064634 117.60387380957326 l -4.9211588335728695 7.566033780214091 a30.02566736749106,30.02566736749106 0 0,0 -0.43083301262109247,-0.2855326281591328 l 5.050666544933923 -7.480203130963639" fill="#ff6b09" stroke="none" /><path d="M 88.24862548938628 117.40417183066458 l -4.995845720617638 7.399011688597678 a29.92770118407973,29.92770118407973 0 0,0 -0.4244647503210249,-0.2919507257470334 l 5.122467355561552 -7.311920173485544" fill="#ff6a09" stroke="none" /><path d="M 87.95078237400918 117.19931262002967 l -5.225762614105865 7.459366049144573 a30.10772950598102,30.10772950598102 0 0,0 -0.4218991435299022,-0.30101383679156307 l 5.353389085484654 -7.3683079505087905" fill="#ff6c0a" stroke="none" /><path d="M 87.65650970185807 116.9893568818739 l -5.292239677534289 7.28414301095839 a30.003695919374564,30.003695919374564 0 0,0 -0.4152154751029257,-0.30716648208108527 l 5.4168401230557786 -7.191966580137539" fill="#ff6b09" stroke="none" /><path d="M 87.36589467227662 116.77436683061367 l -2.400450137420668 3.1870900328283946 a24.989950342998895,24.989950342998895 0 0,0 -0.3413761347514629,-0.2617526631022599 l 2.454955000665618 -3.145298027898768" fill="#ff2403" stroke="none" /><path d="M 87.07902340077011 116.55440617244103 l -2.605695305857208 3.338427101350386 a25.23494315640683,25.23494315640683 0 0,0 -0.3401219801011588,-0.27021347132781987 l 2.6627747786757245 -3.2930797160174357" fill="#ff2803" stroke="none" /><path d="M 86.51685102203217 116.09983520530335 l -1.7451749300632668 2.0838625178997416 a23.718109366826283,23.718109366826283 0 0,0 -0.3107462246254762,-0.26482467412120564 l 1.7807866312657996 -2.0535134535555843" fill="#ff1202" stroke="none" /><path d="M 86.24171649860922 115.8653595955263 l -7.754891618289747 8.942550437782632 a32.83670360969248,32.83670360969248 0 0,0 -0.4238399818450953,-0.37398950494860905 l 7.907673953041431 -8.807737791061735" fill="#ff910d" stroke="none" /><path d="M 85.97065885151581 115.62618273729859 l -9.92965000019951 11.059858319668782 a35.86332449950579,35.86332449950579 0 0,0 -0.4558065460254517,-0.4163684727253512 l 10.118556095691817 -10.887297080356856" fill="#ffb911" stroke="none" /><path d="M 85.70375840098266 115.38237550388516 l -7.2013982042182 7.748512821572825 a31.578260114111185,31.578260114111185 0 0,0 -0.39497511163155996,-0.3734736211510814 l 7.333709150240577 -7.6234045636758125" fill="#ff810b" stroke="none" /><path d="M 85.18274418774928 114.88116024355367 l -1.8617660202177688 1.8697955163841762 a23.638618575529225,23.638618575529225 0 0,0 -0.2858689903805744,-0.289583777986673 l 1.8936756356538764 -1.8374712444168384" fill="#ff1101" stroke="none" /><path d="M 84.9287848128048 114.62390073753433 l -9.119201027752888 8.848542667533746 a33.70655479363838,33.70655479363838 0 0,0 -0.4004554569809034,-0.4198759456446579 l 9.27016303611275 -8.690259605306588" fill="#ff9d0e" stroke="none" /><path d="M 84.67929136418377 114.36230785411682 l -12.113654730679439 11.355874105834248 a37.60411116686675,37.60411116686675 0 0,0 -0.43863152878342526,-0.47604789371534706 l 12.307332667458592 -11.145674957317558" fill="#ffd013" stroke="none" /><path d="M 84.43433777217949 114.09645910891817 l -12.250049576252954 11.09379867084839 a37.52682920496163,37.52682920496163 0 0,0 -0.4294876809605149,-0.48253396252678815 l 12.439196106861807 -10.881290538580737" fill="#ffcf13" stroke="none" /><path d="M 84.19399662182784 113.82643327865904 l -6.704261892061248 5.864609004275738 a29.90734339129107,29.90734339129107 0 0,0 -0.3356137851903147,-0.39039465365680687 l 6.804218186822341 -5.7483372514574" fill="#ff6a09" stroke="none" /><path d="M 83.95833913139862 113.55231037782056 l -6.851986255958622 5.788692655077182 a29.96987615894391,29.96987615894391 0 0,0 -0.329531632752166,-0.39694207996690095 l 6.950613888604325 -5.66988931799652" fill="#ff6b09" stroke="none" /><path d="M 83.72743513129214 113.27417163493432 l -3.578596682746553 2.919202164025935 a25.618235105775618,25.618235105775618 0 0,0 -0.27580114677062917,-0.34410433696131487 l 3.628315741572043 -2.85716999348636" fill="#ff2e04" stroke="none" /><path d="M 83.50135304334701 112.99209946851258 l -10.121829280500657 7.970581658063754 a33.8833846465695,33.8833846465695 0 0,0 -0.35689398539995915,-0.4613335859228271 l 10.257530083118684 -7.795170078027675" fill="#ff9f0e" stroke="none" /><path d="M 83.28015986056508 112.70617746262583 l -7.161334132578338 5.442228011683328 a29.9945846090624,29.9945846090624 0 0,0 -0.3088567134224167,-0.4137640402720817 l 7.253952112695839 -5.318151091901939" fill="#ff6b09" stroke="none" /><path d="M 83.06392112726016 112.41649034213515 l -7.216153743965267 5.290439655044673 a29.947716278482076,29.947716278482076 0 0,0 -0.3012172785817802,-0.4183644547424069 l 7.306150814922655 -5.165441594851128" fill="#ff6a09" stroke="none" /><path d="M 82.85270091963577 112.12312394758628 l -11.744182334149395 8.303125607868155 a35.38289656355015,35.38289656355015 0 0,0 -0.3473237237898228,-0.5003457287466353 l 11.885366965101351 -8.099738616934507" fill="#ffb310" stroke="none" /><path d="M 82.6465618267979 111.8261652097733 l -7.36296973327435 5.017777781623057 a29.910186146139942,29.910186146139942 0 0,0 -0.28627878723624395,-0.42794794410226256 l 7.4482516259213245 -4.8902929233149735" fill="#ff6a09" stroke="none" /><path d="M 82.44556493220864 111.52570212397912 l -7.46725770097755 4.902771727605632 a29.932922712405926,29.932922712405926 0 0,0 -0.27908193771427864,-0.4331413649295645 l 7.550544502068875 -4.773508762754619" fill="#ff6a09" stroke="none" /><line stroke="#e1ed5e" stroke-width="0.3" x1="26.63291911575756" x2="22.317208475507996" y1="142.92168965132927" y2="145.44649492493687" /><path d="M 25.769776987707644 143.4266507060508 a86.0,86.0 0 0,1 -11.730757126820373,-40.83630448921669" fill="none" id="id93" stroke="none" /><text fill="#e1ed5e" style="font-size:6.75px; font-family:Arial;" text-anchor="middle"><textPath startOffset="21.46611528233685" xlink:href="#id93">September</textPath></text><path d="M 81.87401531095188 110.60418214915194 l -10.266250692969287 6.006029145709302 a32.89404428232895,32.89404428232895 0 0,0 -0.28171086679296053,-0.49118664173316134 l 10.368113555914624 -5.828422658117834" fill="#ff920d" stroke="none" /><path d="M 81.69416730710424 110.29060199501025 l -10.379467705919286 5.834805379988495 a32.907069483318054,32.907069483318054 0 0,0 -0.2733223435099411,-0.49615944531189665 l 10.478366458880744 -5.655275416278776" fill="#ff920d" stroke="none" /><path d="M 81.51974371655577 109.97397251340807 l -13.057428465108176 7.047220049835194 a35.83778111956826,35.83778111956826 0 0,0 -0.288319201473171,-0.545391273259235 l 13.176800174806232 -6.821413761489833" fill="#ffb911" stroke="none" /><path d="M 81.35079622478065 109.6543875284942 l -7.942306968415316 4.111602311152262 a29.943462055916104,29.943462055916104 0 0,0 -0.23301906668486946,-0.45976872509383854 l 8.011904704886453 -3.974279374355738" fill="#ff6a09" stroke="none" /><path d="M 81.18737489456691 109.33194174019688 l -3.513449829764332 1.7428354062611082 a24.92196442609929,24.92196442609929 0 0,0 -0.18732623444874275,-0.3859475271622754 l 3.5429293208277937 -1.682098923133548" fill="#ff2403" stroke="none" /><path d="M 81.02952815118164 109.00673069616217 l -3.548685184212925 1.6848316707344995 a24.928336072100034,24.928336072100034 0 0,0 -0.18070121476766654,-0.389214340674807 l 3.577161015820418 -1.6234972627808655" fill="#ff2403" stroke="none" /><path d="M 80.87730276802145 108.67885076344099 l -12.634643645440066 5.734242681239532 a34.87500483512017,34.87500483512017 0 0,0 -0.24339251802983722,-0.5487858744090827 l 12.731477248201184 -5.515908470337754" fill="#ffac10" stroke="none" /><path d="M 80.73074385275274 108.34839909993369 l -3.4321255433506472 1.48696730055463 a24.740395366567377,24.740395366567377 0 0,0 -0.16593621010930568,-0.39222418393434333 l 3.4572127346522596 -1.4276685909541278" fill="#ff2103" stroke="none" /><path d="M 80.58989483394504 108.01547362559985 l -11.945923551055479 4.933112640954259 a33.92442222368198,33.92442222368198 0 0,0 -0.2182428931070481,-0.5416609627222929 l 12.029069058419914 -4.726752310389161" fill="#ffa00e" stroke="none" /><path d="M 80.45479744820244 107.68017299344265 l -14.21936486518889 5.587416233324596 a36.27774712887301,36.27774712887301 0 0,0 -0.22337715367730626,-0.583167260909219 l 14.313436298459706 -5.341825405582219" fill="#ffbf11" stroke="none" /><path d="M 80.32549172779594 107.34259656027581 l -2.305959260158428 0.8605922088378898 a23.461314091988847,23.461314091988847 0 0,0 -0.13794776644270787,-0.37957300704212565 l 2.3204312876063597 -0.8207714047896469" fill="#ff0e01" stroke="none" /><path d="M 80.0844068197444 106.66101706037122 l -7.453085183952438 2.4927767460085284 a28.858906709249844,28.858906709249844 0 0,0 -0.1535125479343981,-0.472463041527526 l 7.494889982903086 -2.3641148045031986" fill="#ff5b08" stroke="none" /><path d="M 79.97269907076064 106.31721596034903 l -7.5389715720423895 2.378019469912295 a28.90512928188687,28.90512928188687 0 0,0 -0.14558994358441585,-0.47579635941163273 l 7.578788288132936 -2.2478961379486146" fill="#ff5c08" stroke="none" /><path d="M 79.86692584326677 105.97154293290107 l -12.202198350977051 3.6192163581866694 a33.72762238770278,33.72762238770278 0 0,0 -0.16029833593418177,-0.5580195365529124 l 12.262689323797337 -3.408639346129161" fill="#ff9d0e" stroke="none" /><path d="M 79.76711848015287 105.62410040840567 l -16.406053103315895 4.560363281333604 a38.02807950670177,38.02807950670177 0 0,0 -0.16988034721674386,-0.6321879690338603 l 16.482121526874412 -4.277284379124205" fill="#ffd513" stroke="none" /><path d="M 79.67330655649465 105.27499134158121 l -12.258644538242768 3.181247554034102 a33.66470299355801,33.66470299355801 0 0,0 -0.1407323824024603,-0.5621559111807656 l 12.311588234940286 -2.9697638034559444" fill="#ff9c0e" stroke="none" /><path d="M 79.58551787078972 104.9243191809786 l -8.84914254231615 2.1345632027564374 a30.102949181490104,30.102949181490104 0 0,0 -0.11717133475791708,-0.504771043478369 l 8.884574443004622 -1.9819235019294945" fill="#ff6c0a" stroke="none" /><path d="M 79.50377843672027 104.57218783832718 l -2.6172451432901216 0.5838410936926426 a23.68157464239949,23.68157464239949 0 0,0 -0.08532805284933645,-0.3986242557406106 l 2.6269072348638987 -0.5387030185358682" fill="#ff1201" stroke="none" /><path d="M 79.4281124754447 104.21870165774334 l -23.574126412892603 4.834374388796927 a45.064717157325916,45.064717157325916 0 0,0 -0.14929311395560943,-0.7612423716726945 l 23.65384945982388 -4.427868290056277" fill="#d3ff1c" stroke="none" /><path d="M 79.35854240842038 103.8639653848113 l -13.251188932436023 2.4805484358534104 a34.481362270398705,34.481362270398705 0 0,0 -0.10418881471657462,-0.5843462038671488 l 13.291924189491786 -2.252083481253048" fill="#ffa70f" stroke="none" /><path d="M 79.29508885075956 103.50808413554451 l -3.872735823099898 0.6561671771612534 a24.92793051362992,24.92793051362992 0 0,0 -0.06803929735451977,-0.42368076957518264 l 3.8834568748157086 -0.5894071778928571" fill="#ff2403" stroke="none" /><path d="M 79.23777060512086 103.15116336523772 l -2.03832058243419 0.309363750097128 a23.061663582316235,23.061663582316235 0 0,0 -0.05618913820595948,-0.39298670174269335 l 2.0433437716567484 -0.27423157637403406" fill="#ff0801" stroke="none" /><path d="M 79.18660465613746 102.79330883721812 l -7.179782052988585 0.9635789032291177 a28.24415313416035,28.24415313416035 0 0,0 -0.06052115541133905,-0.4824131559243314 l 7.195304717646772 -0.8398479930173777" fill="#ff5307" stroke="none" /><path d="M 79.1416061653843 102.43462659150553 l -16.66773039574664 1.9454853505635445 a37.780886442454516,37.780886442454516 0 0,0 -0.06983652661648553,-0.6465995023748344 l 16.698749223864176 -1.6582895263039281" fill="#ffd213" stroke="none" /><path d="M 79.10278846688536 102.07522291339032 l -2.4065042833583377 0.23898082392875214 a23.418341311731595,23.418341311731595 0 0,0 -0.036382516181737545,-0.4014780343593028 l 2.4102613958171504 -0.1975214010208832" fill="#ff0e01" stroke="none" /><path d="M 79.07016306316243 101.71520430193888 l -15.18955619992542 1.2447871532529495 a36.240476127982234,36.240476127982234 0 0,0 -0.04559990928306162,-0.622174532870736 l 15.208732667872816 -0.9831394838854529" fill="#ffbe11" stroke="none" /><path d="M 79.04373962182676 101.35467743843564 l -13.493162859532207 0.8722397493201695 a34.52132560565544,34.52132560565544 0 0,0 -0.03322866488999946,-0.5933201333654633 l 13.506177875309739 -0.6398478996192686" fill="#ffa80f" stroke="none" /><path d="M 79.0235259727143 100.99374915477108 l -19.300769168471717 0.9143635399663171 a40.322415769718035,40.322415769718035 0 0,0 -0.026877515193483636,-0.6935892395897038 l 19.3136488165164 -0.5819970533626166" fill="#fff216" stroke="none" /><path d="M 79.0095281055655 100.63252640178507 l -14.865972932002437 0.4479708896019156 a35.872720972739316,35.872720972739316 0 0,0 -0.013286465478294512,-0.6173698426127154 l 14.87148146016574 -0.1920112311990713" fill="#ffb911" stroke="none" /><line stroke="#e1ed5e" stroke-width="0.3" x1="15.007084014347285" x2="10.007500721073583" y1="101.09737516637583" y2="101.16192664675087" /><path d="M 14.007167355692545 101.11028546245083 a86.0,86.0 0 0,1 10.666146001902534,-42.60595125391555" fill="none" id="id94" stroke="none" /><text fill="#e1ed5e" style="font-size:6.75px; font-family:Arial;" text-anchor="middle"><textPath startOffset="22.20632615414155" xlink:href="#id94">October</textPath></text><path d="M 79.00175016825051 100.2711162175752 l -3.334388445163174 0.0430515300285761 a24.33466636074368,24.33466636074368 0 0,0 -0.0018027384007832754,-0.4188929162135572 l 3.3346354808534606 0.014350864388656435" fill="#ff1b02" stroke="none" /><path d="M 79.00019446554 99.90962569577889 l -7.5833281329589415 -0.03263544524600449 a28.583398357228305,28.583398357228305 0 0,0 0.006352310318318357,-0.49199343464532863 l 7.581642815522907 0.1631651379518051" fill="#ff5708" stroke="none" /><path d="M 79.00486145842228 99.54816195383935 l -15.192823474617638 -0.3269659621840727 a36.196341397564076,36.196341397564076 0 0,0 0.018767467844021956,-0.6228008905207809 l 15.18494431231797 0.588437000129848" fill="#ffbe11" stroke="none" /><path d="M 79.03285615573316 98.82574320788736 l -1.619304134424116 -0.09068850256700726 a22.621841633532966,22.621841633532966 0 0,0 0.02512037987074996,-0.38860115805718376 l 1.6175031635489527 0.1185487248772028" fill="#ff0200" stroke="none" /><path d="M 79.05617556472873 98.46500227214037 l -17.590482244411447 -1.2892273023285141 a38.637663468498985,38.637663468498985 0 0,0 0.05432366466266635,-0.6628863056814106 l 17.565684095929285 1.591827525217703" fill="#ffdd14" stroke="none" /><path d="M 79.08570108090925 98.10471618934814 l -17.8629471176076 -1.618765927249343 a38.93614459279555,38.93614459279555 0 0,0 0.06623385712890509,-0.6669659023837593 l 17.832436134796467 1.9260073603375327" fill="#ffe015" stroke="none" /><path d="M 79.12142395522702 97.74499172005258 l -12.857173812401125 -1.3886499415244467 a33.931947537103184,33.931947537103184 0 0,0 0.06771790205622548,-0.5801656301918658 l 12.83136555734131 1.6097593100411745" fill="#ffa00e" stroke="none" /><path d="M 79.16333360222342 97.38593545837743 l -8.8829545996494 -1.1144113074759572 a29.952585938245033,29.952585938245033 0 0,0 0.06858286526070888,-0.5110220071145333 l 8.862455735330856 1.26715165665515" fill="#ff6a09" stroke="none" /><path d="M 79.21141760316559 97.0276538004421 l -16.512816207398686 -2.360998242262713 a37.68074973732585,37.68074973732585 0 0,0 0.09733136209707087,-0.641292066754843 l 16.46972895186231 2.644889421409648" fill="#ffd113" stroke="none" /><path d="M 79.26566170972629 96.67025291283419 l -14.971454982834487 -2.4042801811096095 a36.163278916260694,36.163278916260694 0 0,0 0.10399205214656904,-0.613766978421614 l 14.927851069167696 2.6616329478470515" fill="#ffbd11" stroke="none" /><path d="M 79.32604984820605 96.31383870115002 l -13.813953894998175 -2.463025297921681 a35.03181441693616,35.03181441693616 0 0,0 0.11095789409840864,-0.5927415070761961 l 13.769510276989903 2.70044488246045" fill="#ffae10" stroke="none" /><path d="M 79.3925641242962 95.95851677861259 l -11.444724283213018 -2.2445131671400036 a32.66274209936199,32.66274209936199 0 0,0 0.112951968028696,-0.5507939101828845 l 11.404393019269328 2.4411827334862903" fill="#ff8f0d" stroke="none" /><path d="M 79.46518482838121 95.60439243477599 l -2.6528823993615003 -0.5678663210175741 a23.712979392363323,23.712979392363323 0 0,0 0.08887355138495265,-0.39840270450655824 l 2.64271446097451 0.6134471950740915" fill="#ff1202" stroke="none" /><path d="M 79.54389044137918 95.25157060432595 l -6.54972985290921 -1.5203736408505433 a27.723875159004905,27.723875159004905 0 0,0 0.11190834586417164,-0.46393234126216726 l 6.522588706784223 1.6328912137721072" fill="#ff4b07" stroke="none" /><path d="M 79.62865764111835 94.90015583598534 l -3.8330497018645158 -0.9595811512101553 a24.951337242342326,24.951337242342326 0 0,0 0.10788918792122348,-0.41574105183006355 l 3.815964182072985 1.0254186285890827" fill="#ff2403" stroke="none" /><path d="M 79.71946130924805 94.55025226153421 l -12.38494512310529 -3.3280588698782436 a33.82430666912269,33.82430666912269 0 0,0 0.1559352553329309,-0.5609820801212719 l 12.325823097205998 3.540752253418458" fill="#ff9f0e" stroke="none" /><path d="M 79.81627453868168 94.20196356495316 l -17.1374603053853 -4.922957332392441 a38.83053713759665,38.83053713759665 0 0,0 0.19007382046332355,-0.640834431844674 l 17.05018058781027 5.217221150983654" fill="#ffdf14" stroke="none" /><path d="M 79.91906864156998 93.8553929516997 l -3.8229241405922885 -1.1697847176565073 a24.997892603658332,24.997892603658332 0 0,0 0.12944684466662953,-0.4103818721334083 l 3.802221812157455 1.23541675621633" fill="#ff2503" stroke="none" /><path d="M 80.02781315780177 93.51064311812611 l -2.495915931548307 -0.8109722463015469 a23.62436131689751,23.62436131689751 0 0,0 0.12899205721471063,-0.38566983265304267 l 2.481586580561824 0.8538151818769116" fill="#ff1101" stroke="none" /><path d="M 80.14247586403 93.16781622104843 l -13.85839432647738 -4.7681219607918734 a35.65571834954282,35.65571834954282 0 0,0 0.20467557135954903,-0.5786454021423063 l 13.774265674308023 5.005964989360791" fill="#ffb710" stroke="none" /><path d="M 80.2630227832202 92.82701384747504 l -19.393995637084394 -7.048336764996925 a41.63507009738653,41.63507009738653 0 0,0 0.25059437227251197,-0.6714683300069687 l 19.269796676310254 7.381128232033236" fill="#fcff18" stroke="none" /><path d="M 80.38941819471856 92.48833698450439 l -18.22347108056895 -6.980342301369024 a40.51461188106529,40.51461188106529 0 0,0 0.2550615721293668,-0.6491038801736354 l 18.100615958557892 7.292995186438423" fill="#fff417" stroke="none" /><path d="M 80.52162464483688 92.15188598940014 l -20.514478765766338 -8.265574786712783 a43.11704242401818,43.11704242401818 0 0,0 0.28329603714867574,-0.6860238247956131 l 20.369161041731463 8.617473181961707" fill="#eaff1a" stroke="none" /><path d="M 80.65960295795068 91.81776055985345 l -10.580015663341397 -4.4760312443299926 a32.48788871537184,32.48788871537184 0 0,0 0.22232435361886047,-0.5131552608316289 l 10.501400599879856 4.657485649748221" fill="#ff8d0d" stroke="none" /><path d="M 80.803312248108 91.48605970444005 l -4.828769097665314 -2.141611736874524 a26.282377478946977,26.282377478946977 0 0,0 0.18697744285948883,-0.41198001054162675 l 4.791189337842474 2.224413756258222" fill="#ff3705" stroke="none" /><path d="M 80.95270993114464 91.15688171328213 l -3.5650310161584775 -1.6551431126287235 a24.930514580745662,24.930514580745662 0 0,0 0.18406057185968364,-0.3876785056346092 l 3.5360122504570426 1.7162640339038648" fill="#ff2403" stroke="none" /><path d="M 81.10775173730289 90.83032412892265 l -18.742092081341717 -9.096794999837345 a41.83309134177061,41.83309134177061 0 0,0 0.3200032024409872,-0.6451069292609297 l 18.582728865947317 9.418061517597236" fill="#faff18" stroke="none" /><path d="M 81.26839172434947 90.50648371742162 l -15.805316807819219 -8.010419087259635 a38.71933557865718,38.71933557865718 0 0,0 0.3064184917848001,-0.5919029950811834 l 15.665088882874304 8.281294804601153" fill="#ffde14" stroke="none" /><path d="M 81.43458229118936 90.18545643968196 l -12.545568072245599 -6.632170967828859 a35.19073535803766,35.19073535803766 0 0,0 0.28771258302481983,-0.533087720376482 l 12.429547390002307 6.847139671537814" fill="#ffb110" stroke="none" /><path d="M 81.6062741919709 89.86733742301443 l -10.001772514444916 -5.509736695998838 a32.418960193027296,32.418960193027296 0 0,0 0.2734652893066501,-0.48646423559955715 l 9.905449583845835 5.68108444153318" fill="#ff8c0c" stroke="none" /><line stroke="#e1ed5e" stroke-width="0.3" x1="26.266209847984243" x2="21.928928074336255" y1="57.711370442889674" y2="55.22380399835377" /><path d="M 25.398753493254645 57.213857153982495 a86.0,86.0 0 0,1 29.58750427330803,-30.492523968695096" fill="none" id="id95" stroke="none" /><text fill="#e1ed5e" style="font-size:6.75px; font-family:Arial;" text-anchor="middle"><textPath startOffset="21.46611528233685" xlink:href="#id95">November</textPath></text><path d="M 81.78341655067845 89.55222093294921 l -3.9637993905503346 -2.2733626430988534 a25.569451095653022,25.569451095653022 0 0,0 0.2222598060293147,-0.37991405507876574 l 3.9240799100506947 2.341256110531511" fill="#ff2d04" stroke="none" /><path d="M 81.96595687620814 89.24020034530311 l -4.510158649516703 -2.6909330950681665 a26.251918884174,26.251918884174 0 0,0 0.23487242014323897,-0.3860685031707957 l 4.463170431087247 2.768169371446037" fill="#ff3705" stroke="none" /><path d="M 82.34701348167596 88.62581576622439 l -16.437282224869048 -10.590880819750115 a40.553797674061855,40.553797674061855 0 0,0 0.38314332893085806,-0.5835535759145712 l 16.252542260580267 10.872252459642354" fill="#fff517" stroke="none" /><path d="M 82.54541684631803 88.32363383020206 l -15.714648439280802 -10.512424604536026 a39.90664556806006,39.90664556806006 0 0,0 0.38685793785171524,-0.5676662880351334 l 15.531366035760346 10.781368915841576" fill="#ffed16" stroke="none" /><path d="M 83.17141714833178 87.43820079747576 l -10.06246954428483 -7.511192297709803 a33.55672342065536,33.55672342065536 0 0,0 0.3495077513972605,-0.45991123200068224 l 9.931685852663461 7.683288305591512" fill="#ff9b0e" stroke="none" /><path d="M 83.39014120810768 87.1503855733568 l -7.634368737339272 -5.906052296694596 a30.65220388040756,30.65220388040756 0 0,0 0.3264400151740379,-0.41454566876845966 l 7.531574641571263 6.0365903594161034" fill="#ff740a" stroke="none" /><path d="M 83.6137871275137 86.86637796730984 l -10.503481580048598 -8.418586904318083 a34.4608963582659,34.4608963582659 0 0,0 0.3749698467744243,-0.45966869521168896 l 10.357013241197782 8.598139769137854" fill="#ffa70f" stroke="none" /><path d="M 83.84228863543731 86.58626213691792 l -12.939374043771718 -10.741952719627612 a37.8171623312421,37.8171623312421 0 0,0 0.42011155237682407,-0.497279568009306 l 12.75255187790777 10.963091237266033" fill="#ffd213" stroke="none" /><path d="M 84.07557802195018 86.31012108654704 l -15.566942753232892 -13.382561805895504 a41.52858171357786,41.52858171357786 0 0,0 0.47067334961447194,-0.5380610027247361 l 15.334277540040576 13.648538364823183" fill="#fdff18" stroke="none" /><path d="M 84.31358615837235 86.03803664274999 l -13.483463135606144 -12.00118906263859 a39.050825938068485,39.050825938068485 0 0,0 0.4512348215746771,-0.4982647602346274 l 13.274884673415421 12.231506610142773" fill="#ffe215" stroke="none" /><path d="M 84.5562425177563 85.77008943001954 l -1.9279111169090213 -1.7763813509781203 a23.621520928545916,23.621520928545916 0 0,0 0.278095803728349,-0.2966532137482265 l 1.8970479912102163 1.809303981604397" fill="#ff1101" stroke="none" /><path d="M 84.80347519578584 85.50635884689758 l -24.27900049987606 -23.15602582398408 a54.551026768699636,54.551026768699636 0 0,0 0.6539258518747382,-0.6739280720621109 l 23.8768103842982 23.570518091596316" fill="#6aff28" stroke="none" /><path d="M 85.05521093208273 85.24692304244772 l -3.6929218438726066 -3.645548954440421 a26.189190584684003,26.189190584684003 0 0,0 0.31946347859006247,-0.3180916008878376 l 3.629622565115231 3.708576405978368" fill="#ff3605" stroke="none" /><path d="M 85.57189188830299 84.74124197986013 l -2.7887050104494913 -2.949255343429463 a25.058938619399576,25.058938619399576 0 0,0 0.3159718755659819,-0.2936614224795781 l 2.7375252510886536 2.9968213519836886" fill="#ff2503" stroke="none" /><path d="M 85.83668400450813 84.49514656593479 l -8.76427385626394 -9.594418541578458 a33.99482063664505,33.99482063664505 0 0,0 0.4354396776144402,-0.3909420419266837 l 8.597823191053529 9.74385959227442" fill="#ffa10e" stroke="none" /><path d="M 86.10567301691215 84.25364557470407 l -6.100714571062897 -6.913901911222664 a30.220670144603783,30.220670144603783 0 0,0 0.3930215440734096,-0.3408244101218524 l 5.980799228342715 7.017891314764197" fill="#ff6e0a" stroke="none" /><path d="M 86.37877921826538 84.01681056812374 l -8.579056760114948 -10.066696042957316 a34.22643504934593,34.22643504934593 0 0,0 0.45169516717546493,-0.37828171245185926 l 8.404504055980373 10.212878912802987" fill="#ffa40f" stroke="none" /><path d="M 86.65592168130627 83.78471172551755 l -1.9173069844495145 -2.329848845384394 a24.017326915492898,24.017326915492898 0 0,0 0.321485189119543,-0.259951998471692 l 1.876918396765471 2.3625069411202206" fill="#ff1602" stroke="none" /><path d="M 86.93701828274178 83.55741782278169 l -39.18894515177469 -49.32774653165494 a84.0,84.0 0 0,0 1.1398697793622974,-0.889686443107113 l 38.334042817252964 49.99501136398527" fill="#4dd2ff" stroke="none" /><path d="M 87.22198572758235 83.33499621200491 l -2.400538125407494 -3.130766338201421 a24.945159205399708,24.945159205399708 0 0,0 0.3430005078889748,-0.2583408713957029 l 2.346291463760129 3.1716237991029783" fill="#ff2403" stroke="none" /><path d="M 87.51073957382395 83.11751280151077 l -2.6588136211157254 -3.594078863755317 a25.47064791173754,25.47064791173754 0 0,0 0.3547147751091149,-0.25771536942863016 l 2.596553529652829 3.639313468000615" fill="#ff2b04" stroke="none" /><path d="M 87.80319425747018 82.90503203632743 l -2.2869044484520806 -3.2053112189814805 a24.93750580531362,24.93750580531362 0 0,0 0.35158185359071714,-0.2463055565563914 l 2.231391455277703 3.2442016183018145" fill="#ff2403" stroke="none" /><path d="M 88.09926311788651 82.69761687909137 l -9.592286569130701 -13.946146265454662 a37.92651639534196,37.92651639534196 0 0,0 0.541076489026565,-0.36533726070414463 l 9.350805385697596 14.109195438457473" fill="#ffd413" stroke="none" /><path d="M 88.39885842347998 82.49532879139004 l -7.207202638450861 -10.874767081133443 a34.046238114513955,34.046238114513955 0 0,0 0.4912920379379775,-0.3195500076519688 l 7.0189435747285955 10.997216012944948" fill="#ffa20e" stroke="none" /><path d="M 88.70189139769569 82.29822771554957 l -11.452334027934628 -17.943411257935196 a42.28666160436589,42.28666160436589 0 0,0 0.6169439631282753,-0.38633025311237973 l 11.14177091243411 18.137885852370506" fill="#f4ff19" stroke="none" /><path d="M 89.00827224532344 82.1063720568725 l -2.0848646645886033 -3.3939880474249917 a24.983191626787978,24.983191626787978 0 0,0 0.3683687540289123,-0.22193805259630148 l 2.0261338443420422 3.4293727094799125" fill="#ff2403" stroke="none" /><line stroke="#e1ed5e" stroke-width="0.3" x1="56.762969772571076" x2="54.21961505331055" y1="26.818313649435495" y2="22.513508569990535" /><path d="M 56.25429882871897 25.957352633546506 a86.0,86.0 0 0,1 42.265352541879196,-11.944610805530505" fill="none" id="id96" stroke="none" /><text fill="#e1ed5e" style="font-size:6.75px; font-family:Arial;" text-anchor="middle"><textPath startOffset="22.20632615414155" xlink:href="#id96">December</textPath></text><path d="M 89.3179101791058 81.91981866633112 l -5.928478347951961 -10.03436269128173 a32.65483977334403,32.65483977334403 0 0,0 0.4864066943773065,-0.28175815276305105 l 5.754874921109335 10.134925001434828" fill="#ff8f0d" stroke="none" /><path d="M 89.63071344664047 81.73862282372117 l -8.850299104816488 -15.586284480061384 a38.923728912760254,38.923728912760254 0 0,0 0.5854794441443286,-0.32581867678117665 l 8.580695571600113 15.736318554402745" fill="#ffe015" stroke="none" /><path d="M 89.94658935756843 81.56283822128135 l -1.9286593544983623 -3.5370090608698037 a25.0286672737233,25.0286672737233 0 0,0 0.38002450185817,-0.20299592781069234 l 1.867489806111887 3.5696837151822454" fill="#ff2503" stroke="none" /><path d="M 90.26544431104013 81.39251694778311 l -5.542573396854343 -10.594560639742467 a32.956790330548486,32.956790330548486 0 0,0 0.5049286500757151,-0.25864406610394963 l 5.359384259189864 10.688397231158921" fill="#ff930d" stroke="none" /><path d="M 90.58718382345135 81.22770947309562 l -8.63545421705108 -17.221971868328126 a40.26570488116826,40.26570488116826 0 0,0 0.6222561041913163,-0.305338367898088 l 8.337726845849339 17.368065396361043" fill="#fff116" stroke="none" /><path d="M 90.91171255644093 81.06846463323043 l -11.407273254425574 -23.76214423187205 a47.3584024856861,47.3584024856861 0 0,0 0.7379381510171082,-0.34647185657285196 l 10.996556892108856 23.95498107108491" fill="#b8ff1f" stroke="none" /><path d="M 91.56875222667455 80.76684994638697 l -5.734124611520934 -13.080540632243682 a35.28218219643721,35.28218219643721 0 0,0 0.558325819260843,-0.23904597797200328 l 5.508115034469783 13.177306138178471" fill="#ffb210" stroke="none" /><path d="M 91.90106846888425 80.62456947434976 l -7.425482010619184 -17.764307583471695 a40.253789419494,40.253789419494 0 0,0 0.6415996489951059,-0.2617246064328865 l 7.118598492035698 17.889493076088158" fill="#fff116" stroke="none" /><path d="M 92.23578459929587 80.48803036053334 l -7.678801626649491 -19.297319365081513 a41.768979972530786,41.768979972530786 0 0,0 0.670326163406392,-0.2600761372598968 l 7.345492298243423 19.426638206231964" fill="#faff18" stroke="none" /><path d="M 92.57280143429618 80.3572730644239 l -7.276173204871821 -19.243309861032262 a41.57298400609392,41.57298400609392 0 0,0 0.6715376640591117,-0.24733298901244757 l 6.94385321504014 19.36570611785103" fill="#fdff18" stroke="none" /><path d="M 92.91201910852362 80.23233633223022 l -4.360264289798515 -12.160337238913018 a33.918425075874644,33.918425075874644 0 0,0 0.5512842320108163,-0.1923322437989275 l 4.150298053724414 12.233590335884154" fill="#ffa00e" stroke="none" /><path d="M 93.25333710446033 80.11325718540243 l -10.370392380129447 -30.56819783991891 a53.279401439591005,53.279401439591005 0 0,0 0.871034939754957,-0.28716652488783423 l 9.842674618132081 30.742178089065977" fill="#77ff27" stroke="none" /><path d="M 93.59665428221793 80.00007090966166 l -3.516637022121983 -10.983709794644552 a32.53293617420688,32.53293617420688 0 0,0 0.5348021636192609,-0.16616563552004027 l 3.3270494857919934 11.042615565047118" fill="#ff8d0d" stroke="none" /><path d="M 93.94186890950719 79.89281104454417 l -2.3448146783138446 -7.782537402726876 a29.12810213398422,29.12810213398422 0 0,0 0.4813207799830387,-0.14051073436187697 l 2.210503680607385 7.821746466007451" fill="#ff5f08" stroke="none" /><path d="M 94.28887869178378 79.79150937346287 l -1.0630182326066346 -3.7614319203068667 a24.90875656110195,24.90875656110195 0 0,0 0.41360647569850956,-0.11305427388353921 l 0.9981138676844026 3.779172735016702" fill="#ff2303" stroke="none" /><path d="M 94.63758080256005 79.69619591428918 l -2.958903753751653 -11.203339372149236 a32.58749000049255,32.58749000049255 0 0,0 0.5435765755828098,-0.13856977235338647 l 2.7656182894838435 11.252612140671486" fill="#ff8e0d" stroke="none" /><path d="M 94.98787191387505 79.60689891045804 l -4.420144116367145 -17.984465729228802 a39.51968362513951,39.51968362513951 0 0,0 0.6620042189551759,-0.156675010128207 l 4.109916210449435 18.05788665149788" fill="#ffe815" stroke="none" /><path d="M 95.33964822691252 79.52364482259891 l -3.459860292894177 -15.201712589724336 a36.59046820678998,36.59046820678998 0 0,0 0.615342384469388,-0.13449001161506993 l 3.197675184271268 15.259016099435273" fill="#ffc312" stroke="none" /><path d="M 96.04723909329186 79.375362276772 l -3.948927819957291 -20.604637518949573 a41.9796357979479,41.9796357979479 0 0,0 0.7108649192416147,-0.12990602025719275 l 3.5936677796127827 20.6695590205575" fill="#f8ff18" stroke="none" /><path d="M 96.40284397218896 79.31037775812273 l -2.5434492698863282 -14.629058116600296 a35.84851762188247,35.84851762188247 0 0,0 0.6088628209019509,-0.10046758238678186 l 2.2912572428454916 14.670671961926706" fill="#ffb911" stroke="none" /><path d="M 96.75951476605007 79.25152402106235 l -0.6870995512943189 -4.399424007802572 a25.452756157013148,25.452756157013148 0 0,0 0.43346167311112377,-0.06388098298954531 l 0.6112688977545464 4.410599474953086" fill="#ff2b04" stroke="none" /><path d="M 97.11714578562143 79.19881850522333 l -2.3180029765246504 -16.72550779003425 a37.88537084679142,37.88537084679142 0 0,0 0.646730831123453,-0.08396422317896204 l 2.0297574168933394 16.762930336377348" fill="#ffd313" stroke="none" /><path d="M 97.47563105711357 79.15227682838746 l -0.4758243128777923 -3.929636981611871 a24.958340003584492,24.958340003584492 0 0,0 0.4269460359244254,-0.047972361771490835 l 0.40811157344364885 3.9372452968539604" fill="#ff2403" stroke="none" /><path d="M 97.83486435360386 79.11191278185805 l -2.113962986836522 -20.394400377853273 a41.503668117727045,41.503668117727045 0 0,0 0.7112441566264777,-0.06754120278790397 l 1.762593703119808 20.427767125156358" fill="#feff18" stroke="none" /><path d="M 98.19473922651362 79.07773832637324 l -2.7807824676207047 -32.22817406741423 a53.34792041000129,53.34792041000129 0 0,0 0.9155768520419919,-0.07106638506002727 l 2.2256154262163785 32.27126571466272" fill="#76ff27" stroke="none" /><path d="M 98.55514903715128 79.0497635885617 l -0.6290962106016774 -9.121850402936763 a30.143517748424344,30.143517748424344 0 0,0 0.5179488183384715,-0.031244087179043107 l 0.47198534342358295 9.131327759496113" fill="#ff6d0a" stroke="none" /><path d="M 98.91598698831166 79.02799685794201 l -0.27307420685912687 -5.283066773658926 a26.290119474774713,26.290119474774713 0 0,0 0.4521389364711836,-0.01947005370396908 l 0.18209443799861919 5.286984553887088" fill="#ff3705" stroke="none" /><path d="M 99.27714615592234 79.0124445844662 l -0.6121172072624964 -17.772394673525724 a38.78293282636451,38.78293282636451 0 0,0 0.6673866158321107,-0.017236627304636352 l 0.3061039562355068 17.78029809297272" fill="#ffdf14" stroke="none" /><path d="M 99.63851952072746 79.00311137660856 l -0.056859841780167925 -3.302750310070577 a24.30323972068007,24.30323972068007 0 0,0 0.41834032105270286,-0.0036007872180534644 l 8.090603901494494e-16 3.3032397206800717" fill="#ff1b02" stroke="none" /></svg>