<?xml version="1.0" encoding="utf-8" ?>
<svg baseProfile="full" height="200mm" version="1.1" viewBox="0,0,200,200" width="200mm" xmlns="http://www.w3.org/2000/svg" xmlns:ev="http://www.w3.org/2001/xml-events" xmlns:xlink="http://www.w3.org/1999/xlink"><defs /><rect fill="#1a1a1a" height="200" width="200" x="0" y="0" /><text alignment-baseline="middle" fill="#e1ed5e" style="dominant-baseline: central; font-size:9.0px; font-family:Arial;" text-anchor="middle" x="100.0" y="100.0">2025</text><line stroke="#e1ed5e" stroke-width="0.3" x1="100.0" x2="100.0" y1="15.0" y2="10.0" /><path d="M 100.0 14.0 a86.0,86.0 0 0,1 42.46469731375804,11.215312516191453" fill="none" id="id85" stroke="none" /><text fill="#e1ed5e" style="font-size:6.75px; font-family:Arial;" text-anchor="middle"><textPath startOffset="22.20632615414155" xlink:href="#id85">January</textPath></text><path d="M 100.72285384407766 79.0124445844662 l 1.5586217556968125 -45.253491750164955 a66.28032483716939,66.28032483716939 0 0,0 1.139892711769372,0.049086177996803065 l -2.337355299855516 45.219957845643954" fill="#33ff55" stroke="none" /><path d="M 101.08401301168833 79.027996857942 l 2.3593942295830637 -45.646336955959114 a66.70727314801823,66.70727314801823 0 0,0 1.146215036677489,0.06914282118987561 l -3.1447713151001646 45.59896086538893" fill="#34ff5b" stroke="none" /><path d="M 101.44485096284872 79.0497635885617 l 4.334552888546152 -62.8507092343149 a84.0,84.0 0 0,0 1.4416392425506352,0.11189895124614191 l -5.415782320459128 62.76678502088029" fill="#4dd2ff" stroke="none" /><path d="M 101.80526077348638 79.07773832637324 l 2.961120889263772 -34.31822537902532 a55.44573747340027,55.44573747340027 0 0,0 0.950167986982267,0.09022989938608728 l -3.5514140033362835 34.26216993512406" fill="#91ff24" stroke="none" /><path d="M 102.52436894288641 79.15227682838746 l 4.932432522917622 -40.73492826403872 a62.03246606371004,62.03246606371004 0 0,0 1.0589393065798531,0.1374807137556595 l -5.632886558005321 40.64398922711892" fill="#41ff2d" stroke="none" /><path d="M 103.2404852339499 79.25152402106235 l 6.233619584725513 -39.91319104326215 a61.39703989629705,61.39703989629705 0 0,0 1.0427871885969249,0.1720688210639067 l -6.919735979461313 39.799975959258624" fill="#48ff2c" stroke="none" /><path d="M 103.59715602781102 79.31037775812273 l 9.641192275936552 -55.45287015860053 a77.28475279618974,77.28475279618974 0 0,0 1.3087064361276808,0.2391577361613121 l -10.594293833167134 55.278696941088484" fill="#43ffe1" stroke="none" /><path d="M 103.95276090670814 79.375362276772 l 6.477495782671337 -33.7981494515925 a55.41326572655823,55.41326572655823 0 0,0 0.935253463553158,0.1876030463809862 l -7.0583156556916204 33.68164244913431" fill="#91ff24" stroke="none" /><path d="M 108.76106565485865 80.91482961587045 l 15.813570417429592 -34.44839905185527 a58.90463304904649,58.90463304904649 0 0,0 0.9178513994785623,0.4309435390987864 l -16.40420002820775 34.17109053011648" fill="#66ff29" stroke="none" /><path d="M 109.08828744355905 81.06846463323043 l 14.747048108928213 -30.719127730438025 a55.07550786776346,55.07550786776346 0 0,0 0.8511230850991558,0.41764240147118065 l -15.2736424610378 30.460730168832015" fill="#95ff23" stroke="none" /><path d="M 109.41281617654863 81.2277094730956 l 16.72059076679401 -33.34642701700177 a58.303650630880924,58.303650630880924 0 0,0 0.8932661012273891,0.45756559169227234 l -17.292117355610156 33.053668899997" fill="#6dff28" stroke="none" /><path d="M 110.05341064243156 81.56283822128135 l 27.926985594836616 -51.215887793419896 a79.33509824181655,79.33509824181655 0 0,0 1.1933355440806377,0.6640899382838948 l -28.804445227989287 50.72758245757582" fill="#46fff9" stroke="none" /><line stroke="#e1ed5e" stroke-width="0.3" x1="143.23703022742887" x2="145.7803849466894" y1="26.81831364943548" y2="22.513508569990506" /><path d="M 143.74570117128098 25.957352633546492 a86.0,86.0 0 0,1 28.547481713284135,27.462654790039103" fill="none" id="id86" stroke="none" /><text fill="#e1ed5e" style="font-size:6.75px; font-family:Arial;" text-anchor="middle"><textPath startOffset="19.985693538727396" xlink:href="#id86">February</textPath></text><path d="M 111.60114157652 82.49532879139004 l 33.86753572427343 -51.10187420685651 a82.30588490094833,82.30588490094833 0 0,0 1.1742122256685528,0.7928333363418381 l -34.74215264434853 50.511328958216005" fill="#4be4ff" stroke="none" /><path d="M 112.77801427241765 83.33499621200491 l 27.68389432834996 -36.10515640480017 a66.49703643313848,66.49703643313848 0 0,0 0.902356693420083,0.7043037121590768 l -28.30128357692947 35.623274303417865" fill="#34ff58" stroke="none" /><path d="M 113.06298171725822 83.55741782278167 l 28.036655271067442 -35.29018245963109 a66.07162096954943,66.07162096954943 0 0,0 0.8844051478988307,0.7151274566787648 l -28.639963817530763 34.8023489056882" fill="#33ff52" stroke="none" /><path d="M 113.34407831869373 83.78471172551755 l 28.557085323722355 -34.701637666083464 a65.94119245074057,65.94119245074057 0 0,0 0.8702430710310047,0.7288035451375382 l -29.150185931712475 34.20493296355211" fill="#33ff51" stroke="none" /><path d="M 113.6212207817346 84.01681056812373 l 29.03448171558883 -34.069165220410405 a65.76280986833248,65.76280986833248 0 0,0 0.8552491044502559,0.7416635956146396 l -29.61662461868585 33.564336631376094" fill="#33ff4e" stroke="none" /><path d="M 113.89432698308785 84.25364557470407 l 38.55056751945431 -43.689118601894606 a79.26564459681553,79.26564459681553 0 0,0 1.0153136884602219,0.9115586543176921 l -39.29689219551052 43.01906093880762" fill="#46fff8" stroke="none" /><path d="M 114.42810811169701 84.74124197986012 l 40.1597411070392 -42.4718034381086 a79.45219322719848,79.45219322719848 0 0,0 0.9856489365442447,0.9481934960269345 l -40.884873287195866 41.77422685531936" fill="#46fffa" stroke="none" /><path d="M 114.68862486808459 84.99185889309783 l 40.69738175580287 -41.582656889800724 a79.18414075839264,79.18414075839264 0 0,0 0.9659115265148455,0.9617635954543183 l -41.40712908248504 40.87595744369629" fill="#46fff7" stroke="none" /><path d="M 114.94478906791727 85.2469230424477 l 24.245942234611718 -23.934914709735963 a55.0697205302078,55.0697205302078 0 0,0 0.6601436497778987,0.6803360593611831 l -24.654350148092725 23.514014454824665" fill="#96ff23" stroke="none" /><path d="M 115.19652480421416 85.50635884689758 l 25.065927226726927 -23.906554891629803 a55.63847679275287,55.63847679275287 0 0,0 0.6550309342360258,0.6987413299318823 l -25.473725482933414 23.471544144819866" fill="#8eff24" stroke="none" /><path d="M 115.4437574822437 85.77008943001954 l 25.133409753493765 -23.157976517184448 a55.1757247502885,55.1757247502885 0 0,0 0.6375590711560335,0.704008650343922 l -25.528312465265834 22.721915079570977" fill="#94ff23" stroke="none" /><path d="M 115.68641384162765 86.03803664274999 l 25.41910342777072 -22.62471169100928 a55.02952244996978,55.02952244996978 0 0,0 0.6236892422151559,0.7129846194389251 l -25.804784533563726 22.18381151536741" fill="#96ff23" stroke="none" /><path d="M 115.9244219780498 86.31012108654704 l 25.611984334531993 -22.018065381355623 a54.775271200835135,54.775271200835135 0 0,0 0.608499495929505,0.720271472559484 l -25.987194443948617 21.573934959167033" fill="#99ff23" stroke="none" /><path d="M 116.15771136456269 86.58626213691792 l 26.233327809268996 -21.77826887547939 a55.09516803245352,55.09516803245352 0 0,0 0.5994918559390126,0.7349061306662825 l -26.604318157284418 21.32347857520501" fill="#95ff23" stroke="none" /><path d="M 116.60985879189232 87.15038557335679 l 7.854171733378691 -6.076094907189649 a30.930102866465223,30.930102866465223 0 0,0 0.32215036515424084,0.42391211850163685 l -7.9575980387570455 5.939998012806978" fill="#ff0000" stroke="none" /><line stroke="#e1ed5e" stroke-width="0.3" x1="172.23445277983987" x2="176.4835382374775" y1="55.19839476539836" y2="52.563006222186495" /><path d="M 173.08426987136738 54.67131705675599 a86.0,86.0 0 0,1 12.851231095245387,41.99856678651699" fill="none" id="id87" stroke="none" /><text fill="#e1ed5e" style="font-size:6.75px; font-family:Arial;" text-anchor="middle"><textPath startOffset="22.20632615414155" xlink:href="#id87">March</textPath></text><line stroke="#e1ed5e" stroke-width="0.3" x1="184.98032266829074" x2="189.97916517819016" y1="98.17113171792111" y2="98.06355123074" /><path d="M 185.9800911702706 98.14961562048488 a86.0,86.0 0 0,1 -9.607161424134198,41.387399972396054" fill="none" id="id88" stroke="none" /><text fill="#e1ed5e" style="font-size:6.75px; font-family:Arial;" text-anchor="middle"><textPath startOffset="21.466115282336823" xlink:href="#id88">April</textPath></text><line stroke="#e1ed5e" stroke-width="0.3" x1="174.80103733775053" x2="179.2010983576182" y1="140.37084112569926" y2="142.7455964860345" /><path d="M 175.68104954172406 140.8457921977663 a86.0,86.0 0 0,1 -30.038265399797805,32.042727171017184" fill="none" id="id89" stroke="none" /><text fill="#e1ed5e" style="font-size:6.75px; font-family:Arial;" text-anchor="middle"><textPath startOffset="22.206326154141568" xlink:href="#id89">May</textPath></text><line stroke="#e1ed5e" stroke-width="0.3" x1="143.8653032363475" x2="146.44561519142675" y1="172.8068346515853" y2="177.08958963109032" /><path d="M 144.38136562736335 173.6633856474863 a86.0,86.0 0 0,1 -40.68145358897372,12.25698825130547" fill="none" id="id90" stroke="none" /><text fill="#e1ed5e" style="font-size:6.75px; font-family:Arial;" text-anchor="middle"><textPath startOffset="21.466115282336833" xlink:href="#id90">June</textPath></text><line stroke="#e1ed5e" stroke-width="0.3" x1="102.19456741930631" x2="102.32365962044197" y1="184.97166512339345" y2="189.96999836594603" /><path d="M 102.22038585953345 185.97133177190398 a86.0,86.0 0 0,1 -42.740103519485714,-10.115201625700543" fill="none" id="id91" stroke="none" /><text fill="#e1ed5e" style="font-size:6.75px; font-family:Arial;" text-anchor="middle"><textPath startOffset="22.20632615414155" xlink:href="#id91">July</textPath></text><line stroke="#e1ed5e" stroke-width="0.3" x1="58.666819895761336" x2="56.23545636021788" y1="174.27360380694188" y2="178.64263932499728" /><path d="M 58.180547188652646 175.14741091055294 a86.0,86.0 0 0,1 -31.652253787137756,-30.449443065178592" fill="none" id="id92" stroke="none" /><text fill="#e1ed5e" style="font-size:6.75px; font-family:Arial;" text-anchor="middle"><textPath startOffset="22.20632615414155" xlink:href="#id92">August</textPath></text><line stroke="#e1ed5e" stroke-width="0.3" x1="26.63291911575756" x2="22.317208475507996" y1="142.92168965132927" y2="145.44649492493687" /><path d="M 25.769776987707644 143.4266507060508 a86.0,86.0 0 0,1 -11.730757126820373,-40.83630448921669" fill="none" id="id93" stroke="none" /><text fill="#e1ed5e" style="font-size:6.75px; font-family:Arial;" text-anchor="middle"><textPath startOffset="21.46611528233685" xlink:href="#id93">September</textPath></text><line stroke="#e1ed5e" stroke-width="0.3" x1="15.007084014347285" x2="10.007500721073583" y1="101.09737516637583" y2="101.16192664675087" /><path d="M 14.007167355692545 101.11028546245083 a86.0,86.0 0 0,1 10.666146001902534,-42.60595125391555" fill="none" id="id94" stroke="none" /><text fill="#e1ed5e" style="font-size:6.75px; font-family:Arial;" text-anchor="middle"><textPath startOffset="22.20632615414155" xlink:href="#id94">October</textPath></text><line stroke="#e1ed5e" stroke-width="0.3" x1="26.266209847984243" x2="21.928928074336255" y1="57.711370442889674" y2="55.22380399835377" /><path d="M 25.398753493254645 57.213857153982495 a86.0,86.0 0 0,1 29.58750427330803,-30.492523968695096" fill="none" id="id95" stroke="none" /><text fill="#e1ed5e" style="font-size:6.75px; font-family:Arial;" text-anchor="middle"><textPath startOffset="21.46611528233685" xlink:href="#id95">November</textPath></text><line stroke="#e1ed5e" stroke-width="0.3" x1="56.762969772571076" x2="54.21961505331055" y1="26.818313649435495" y2="22.513508569990535" /><path d="M 56.25429882871897 25.957352633546506 a86.0,86.0 0 0,1 42.265352541879196,-11.944610805530505" fill="none" id="id96" stroke="none" /><text fill="#e1ed5e" style="font-size:6.75px; font-family:Arial;" text-anchor="middle"><textPath startOffset="22.20632615414155" xlink:href="#id96">December</textPath></text></svg>