<?xml version="1.0" encoding="utf-8" ?>
<svg baseProfile="full" height="200mm" version="1.1" viewBox="0,0,200,200" width="200mm" xmlns="http://www.w3.org/2000/svg" xmlns:ev="http://www.w3.org/2001/xml-events" xmlns:xlink="http://www.w3.org/1999/xlink"><defs /><rect fill="#1a1a1a" height="200" width="200" x="0" y="0" /><text alignment-baseline="middle" fill="#e1ed5e" style="dominant-baseline: central; font-size:9.0px; font-family:Arial;" text-anchor="middle" x="100.0" y="100.0">2023</text><line stroke="#e1ed5e" stroke-width="0.3" x1="100.0" x2="100.0" y1="15.0" y2="10.0" /><path d="M 100.0 14.0 a86.0,86.0 0 0,1 42.46469731375804,11.215312516191453" fill="none" id="id61" stroke="none" /><text fill="#e1ed5e" style="font-size:6.75px; font-family:Arial;" text-anchor="middle"><textPath startOffset="22.20632615414155" xlink:href="#id61">January</textPath></text><path d="M 109.41281617654863 81.2277094730956 l 15.709897216965526 -31.330767452936488 a56.04879255777017,56.04879255777017 0 0,0 0.8587195804179029,0.43986952193950546 l -16.246877284972186 31.055705405684485" fill="#83ff25" stroke="none" /><path d="M 109.73455568895987 81.39251694778311 l 11.519569641589214 -22.019515191412584 a45.85074513957828,45.85074513957828 0 0,0 0.6961779622915474,0.3718741572864991 l -11.896892650409074 21.81796230762433" fill="#fff517" stroke="none" /><path d="M 110.36928655335952 81.73862282372117 l 13.802078659445758 -24.306876169329936 a48.95213058843042,48.95213058843042 0 0,0 0.7291612571830945,0.4223772642629991 l -14.218436649094182 24.065694747676886" fill="#dfff1b" stroke="none" /><line stroke="#e1ed5e" stroke-width="0.3" x1="143.23703022742887" x2="145.7803849466894" y1="26.81831364943548" y2="22.513508569990506" /><path d="M 143.74570117128098 25.957352633546492 a86.0,86.0 0 0,1 28.547481713284135,27.462654790039103" fill="none" id="id62" stroke="none" /><text fill="#e1ed5e" style="font-size:6.75px; font-family:Arial;" text-anchor="middle"><textPath startOffset="19.985693538727396" xlink:href="#id62">February</textPath></text><path d="M 110.68208982089419 81.91981866633111 l 15.545497408590357 -26.311837550703675 a51.56100922703813,51.56100922703813 0 0,0 0.760249731466353,0.4580419567161724 l -15.996109206274348 26.040348984528887" fill="#bcff1f" stroke="none" /><path d="M 111.2981086023043 82.29822771554956 l 16.52995093274579 -25.898974561540886 a51.72452051990926,51.72452051990926 0 0,0 0.7463921568109588,0.4854742210384136 l -16.97331011534103 25.610601416342945" fill="#baff1f" stroke="none" /><path d="M 111.60114157652 82.49532879139004 l 14.995989799387468 -22.62707244407998 a48.14524115665537,48.14524115665537 0 0,0 0.6868613446285193,0.4637718459761514 l -15.38325583842253 22.36558868580516" fill="#e9ff1a" stroke="none" /><path d="M 111.90073688211348 82.69761687909136 l 18.735985919403507 -27.24009527617571 a54.06145730344046,54.06145730344046 0 0,0 0.7621863836322251,0.5339602698573279 l -19.202103442619386 26.913550163554444" fill="#9cff22" stroke="none" /><path d="M 112.19680574252982 82.90503203632743 l 19.101806777632724 -26.772974974361134 a53.88877028938271,53.88877028938271 0 0,0 0.7504772984316558,0.5452536736131656 l -19.559829392418166 26.440202065931295" fill="#9eff22" stroke="none" /><path d="M 113.6212207817346 84.01681056812373 l 18.009785446005843 -21.13274698527444 a48.76590295586999,48.76590295586999 0 0,0 0.6342033577065803,0.549974902259483 l -18.37088260235919 20.819607089595287" fill="#e1ff1b" stroke="none" /><path d="M 114.42810811169701 84.74124197986012 l 20.29441721244254 -21.462800181915178 a50.53836761978397,50.53836761978397 0 0,0 0.6269567431156815,0.603131890140109 l -20.66085719917064 21.110285205012765" fill="#c9ff1d" stroke="none" /><path d="M 114.94478906791727 85.2469230424477 l 19.75827331263829 -19.504813711655004 a48.763773558781224,48.763773558781224 0 0,0 0.5845516400683168,0.6024318486302129 l -20.091089216409717 19.161817667474676" fill="#e1ff1b" stroke="none" /><path d="M 115.19652480421416 85.50635884689758 l 23.200258312695134 -22.127178613246965 a53.0603184506691,53.0603184506691 0 0,0 0.6246783156028085,0.6663632726490986 l -23.577703950268404 21.724545923719813" fill="#a8ff21" stroke="none" /><path d="M 115.4437574822437 85.77008943001954 l 23.727094826452557 -21.86219499069821 a53.26345608757347,53.26345608757347 0 0,0 0.6154626829722968,0.6796092666217183 l -24.09990115004089 21.450532936806944" fill="#a6ff21" stroke="none" /><path d="M 115.68641384162765 86.03803664274999 l 19.949487630607756 -17.756385755634035 a47.70713934188114,47.70713934188114 0 0,0 0.5406993966091929,0.6181128796659141 l -20.2521788907948 17.410357319765176" fill="#efff19" stroke="none" /><path d="M 116.38621287248628 86.86637796730983 l 21.158743967442508 -16.958826796486544 a48.11630971561239,48.11630971561239 0 0,0 0.5124293487987482,0.6507332349592969 l -21.44752739683522 16.59210116757421" fill="#eaff1a" stroke="none" /><path d="M 116.60985879189232 87.15038557335679 l 21.511421677963217 -16.641530659230277 a48.19709185352815,48.19709185352815 0 0,0 0.5019935047426183,0.6605646092240769 l -21.794691122929947 16.268781274125168" fill="#e9ff1a" stroke="none" /><path d="M 116.82858285166822 87.43820079747576 l 24.921725224968874 -18.60297511774788 a52.09924551207628,52.09924551207628 0 0,0 0.530264601226779,0.7232803201499818 l -25.238252438709278 18.171232353926403" fill="#b5ff20" stroke="none" /><path d="M 117.04232023915458 87.72973835380427 l 24.90545941763897 -17.93162545854728 a51.68916910555388,51.68916910555388 0 0,0 0.5136608231024815,0.7265368066584807 l -25.210432860545335 17.500262151557006" fill="#baff1f" stroke="none" /><path d="M 117.2510076193507 88.02491185347247 l 41.54667857447321 -28.84035234942929 a71.57561096229904,71.57561096229904 0 0,0 0.6938592022255663,1.0181527615374444 l -42.03696224236751 28.120921564621437" fill="#3bff9e" stroke="none" /><path d="M 117.65298651832404 88.62581576622439 l 22.656126515000867 -14.597810786172504 a47.95173739135605,47.95173739135605 0 0,0 0.4410929702890921,0.6977031502914045 l -22.904047081535918 14.205659988166893" fill="#ecff1a" stroke="none" /><line stroke="#e1ed5e" stroke-width="0.3" x1="172.23445277983987" x2="176.4835382374775" y1="55.19839476539836" y2="52.563006222186495" /><path d="M 173.08426987136738 54.67131705675599 a86.0,86.0 0 0,1 12.851231095245387,41.99856678651699" fill="none" id="id63" stroke="none" /><text fill="#e1ed5e" style="font-size:6.75px; font-family:Arial;" text-anchor="middle"><textPath startOffset="22.20632615414155" xlink:href="#id63">March</textPath></text><path d="M 117.84615892207809 88.93136811851018 l 22.34544016397228 -13.859198076448937 a47.294411334804806,47.294411334804806 0 0,0 0.4231367961506078,0.6955256365422865 l -22.580692758409114 13.472504666699571" fill="#f5ff19" stroke="none" /><path d="M 118.03404312379186 89.2402003453031 l 26.658704951986405 -15.905602663144679 a52.04311108434365,52.04311108434365 0 0,0 0.45237935423395276,0.7732629573080195 l -26.928543980690684 15.444360293482765" fill="#b6ff1f" stroke="none" /><path d="M 118.3937258080291 89.86733742301442 l 44.548551607494765 -24.540729074863854 a71.86079859628133,71.86079859628133 0 0,0 0.5875198620321246,1.0885850755425355 l -44.96437956874536 23.77026301598886" fill="#3cffa2" stroke="none" /><path d="M 118.56541770881063 90.18545643968196 l 27.380668882332156 -14.474695461808139 a51.97124209901827,51.97124209901827 0 0,0 0.41129191351469857,0.7944850653236379 l -27.62577022900697 14.001237674224157" fill="#b6ff1f" stroke="none" /><path d="M 119.04729006885535 91.15688171328212 l 28.28614228783226 -13.132456177335122 a52.18601049793192,52.18601049793192 0 0,0 0.37126043120559427,0.8180231477264882 l -28.5080050360012 12.64361102076657" fill="#b4ff20" stroke="none" /><path d="M 119.196687751892 91.48605970444005 l 27.95782883182026 -12.399601876325878 a51.584151446145185,51.584151446145185 0 0,0 0.3530057994139609,0.814786055260028 l -28.167125341076904 11.916516676479247" fill="#bcff1f" stroke="none" /><path d="M 119.34039704204932 91.81776055985345 l 22.61584774069243 -9.567967035729216 a45.55651771377578,45.55651771377578 0 0,0 0.2993243554993262,0.7248376690365257 l -22.777193783077955 9.177254796239387" fill="#fff116" stroke="none" /><path d="M 119.47837535516314 92.15188598940014 l 48.792651994275886 -19.65925231177435 a73.60426874401468,73.60426874401468 0 0,0 0.4633790040094996,1.1792490220400882 l -49.123824548167086 18.81645428483848" fill="#3effb7" stroke="none" /><path d="M 119.7369772167798 92.82701384747503 l 29.971633255393932 -10.892555022393326 a52.88959947869684,52.88959947869684 0 0,0 0.3036037273504765,0.8583286209374081 l -30.15469006355422 10.375028775029303" fill="#abff21" stroke="none" /><path d="M 119.85752413597 93.16781622104841 l 30.018108017913246 -10.328036328723575 a52.7451593693045,52.7451593693045 0 0,0 0.2879953673201777,0.861069491545081 l -30.191440679005193 9.80979373425618" fill="#acff20" stroke="none" /><path d="M 119.97218684219823 93.5106431181261 l 29.359444034117 -9.53946163713231 a51.87034632651159,51.87034632651159 0 0,0 0.2686007484786717,0.8515377744508986 l -29.519300266363878 9.032673696254992" fill="#b8ff1f" stroke="none" /><path d="M 120.08093135843002 93.85539295169968 l 26.37291769991856 -8.069905378922293 a48.57995940590625,48.57995940590625 0 0,0 0.23779682597524063,0.8017326820539815 l -26.507920423005505 7.6147433101217805" fill="#e4ff1b" stroke="none" /><path d="M 120.18372546131832 94.20196356495316 l 29.90535078952535 -8.590699165663327 a52.114789377392434,52.114789377392434 0 0,0 0.24025719337519796,0.8643329554689458 l -30.04879475346691 8.07465490677543" fill="#b5ff20" stroke="none" /><path d="M 120.37134235888165 94.90015583598534 l 30.139396239638817 -7.545218243933398 a52.069495072153,52.069495072153 0 0,0 0.2101802518618796,0.8713328356377306 l -30.264809291761516 7.025300176636261" fill="#b5ff1f" stroke="none" /><path d="M 120.53481517161879 95.60439243477599 l 25.818721032533144 -5.526661162836492 a47.40360466611661,47.40360466611661 0 0,0 0.16392776890573935,0.7993700189465511 l -25.91002809735388 5.081415487726529" fill="#f4ff19" stroke="none" /><path d="M 120.6074358757038 95.95851677861258 l 29.680233010208212 -5.820819457652644 a51.24563060507816,51.24563060507816 0 0,0 0.16231266773712064,0.8670807613447479 l -29.776031401855192 5.309060618845334" fill="#c0ff1e" stroke="none" /><path d="M 120.83666639777658 97.38593545837742 l 30.84816119371196 -3.8700568896829286 a52.08997248893313,52.08997248893313 0 0,0 0.10395582662209298,0.8906300377446474 l -30.91020737333764 3.3384831136134285" fill="#b5ff20" stroke="none" /><path d="M 120.98425023603335 99.18683210126433 l 34.27577605594323 -1.3282323875972954 a55.301501796752774,55.301501796752774 0 0,0 0.028673316601177987,0.9515277853046109 l -34.293561067000056 0.7380344548676854" fill="#8cff24" stroke="none" /><line stroke="#e1ed5e" stroke-width="0.3" x1="184.98032266829074" x2="189.97916517819016" y1="98.17113171792111" y2="98.06355123074" /><path d="M 185.9800911702706 98.14961562048488 a86.0,86.0 0 0,1 -9.607161424134198,41.387399972396054" fill="none" id="id64" stroke="none" /><text fill="#e1ed5e" style="font-size:6.75px; font-family:Arial;" text-anchor="middle"><textPath startOffset="21.466115282336823" xlink:href="#id64">April</textPath></text><path d="M 120.99513854157772 99.54816195383933 l 50.01285149320277 -1.0763305541833408 a71.02443205017947,71.02443205017947 0 0,0 0.015784310421261098,1.2225122370470607 l -50.02396881074175 0.21528205907581754" fill="#3bff97" stroke="none" /><path d="M 120.99980553446 99.90962569577887 l 31.411435708466016 -0.1351815683283838 a52.41172658934096,52.41172658934096 0 0,0 -0.0038827173865173675,0.9022067806203179 l -31.409108693789996 -0.40553469049561874" fill="#b1ff20" stroke="none" /><path d="M 120.99824983174949 100.27111621757518 l 30.73436364027627 0.39682280601943687 a51.73692529697974,51.73692529697974 0 0,0 -0.019162217230017164,0.8903929381921198 l -30.722979360361247 -0.9258055600016715" fill="#baff1f" stroke="none" /><path d="M 120.9904718944345 100.63252640178507 l 30.541009511461674 0.9203220847212356 a51.55487284736787,51.55487284736787 0 0,0 -0.03436467909478891,0.8867996714175754 l -30.520642699515683 -1.4458990031528172" fill="#bcff1f" stroke="none" /><path d="M 120.9764740272857 100.99374915477107 l 50.49969889800792 2.392396025700525 a71.5563363737252,71.5563363737252 0 0,0 -0.06887688929678121,1.2298431272711312 l -50.45103565782361 -3.2613108693070796" fill="#3bff9e" stroke="none" /><path d="M 120.95626037817324 101.35467743843564 l 25.795063242074857 1.6674726104021336 a46.848902347470826,46.848902347470826 0 0,0 -0.05894805822945563,0.8042994200906073 l -25.762538625181065 -2.111245166989511" fill="#fbff18" stroke="none" /><path d="M 120.89721153311464 102.0752229133903 l 32.110053255523994 3.188727747740534 a53.26799505271124,53.26799505271124 0 0,0 -0.09846385579045738,0.9116530165603407 l -32.05040709823248 -3.740977086185666" fill="#a6ff21" stroke="none" /><path d="M 120.8583938346157 102.4346265915055 l 51.430022691336205 6.0029982096828975 a72.77917748996032,72.77917748996032 0 0,0 -0.15595014977637994,1.243076134438821 l -51.319071032312976 -6.887392098409114" fill="#3dffad" stroke="none" /><path d="M 120.76222939487914 103.15116336523771 l 28.656937085549178 4.349373498694549 a49.985118474076835,49.985118474076835 0 0,0 -0.13643139518939218,0.8495584280782817 l -28.5778239359985 -4.842011156466035" fill="#d1ff1d" stroke="none" /><path d="M 120.70491114924044 103.5080841355445 l 25.7947524853961 4.370468500060902 a47.16238235889218,47.16238235889218 0 0,0 -0.14250575944910449,0.7992479786800083 l -25.715700283607806 -4.813835229474129" fill="#f7ff18" stroke="none" /><path d="M 120.5718875245553 104.21870165774334 l 29.75270483447773 6.101422879049729 a51.3718752486004,51.3718752486004 0 0,0 -0.18510011062920662,0.8647260938598476 l -29.64327068512408 -6.612662792325747" fill="#beff1e" stroke="none" /><path d="M 120.49622156327973 104.57218783832717 l 31.04498158585083 6.925348987357683 a52.80803892512887,52.80803892512887 0 0,0 -0.20554758171701767,0.8854936023568989 l -30.92117343820326 -7.458711247063147" fill="#acff21" stroke="none" /><path d="M 120.41448212921028 104.9243191809786 l 34.322736564771624 8.279225940673848 a56.30716396811613,56.30716396811613 0 0,0 -0.23538723431111527,0.9402549926716371 l -34.17513801616545 -8.868808772742883" fill="#80ff26" stroke="none" /><path d="M 120.32669344350535 105.2749913415812 l 25.98230067582744 6.7426810701049185 a47.84294500277967,47.84294500277967 0 0,0 -0.2137256525802532,0.7953526611454276 l -25.862386946905406 -7.188924664425894" fill="#eeff19" stroke="none" /><path d="M 120.13307415673323 105.97154293290107 l 29.787293351429998 8.835019417215769 a52.069927796934536,52.069927796934536 0 0,0 -0.26226687230735246,0.8571033133601026 l -29.630799706616514 -9.346449703127927" fill="#b5ff1f" stroke="none" /><path d="M 120.02730092923936 106.31721596034902 l 25.519160715355493 8.049514506989444 a47.75859202974582,47.75859202974582 0 0,0 -0.25404784810839587,0.781878879778015 l -25.376820616230848 -8.487592286745254" fill="#efff19" stroke="none" /><path d="M 119.9155931802556 106.66101706037122 l 26.677868489754772 8.922743878940578 a49.13048214101248,49.13048214101248 0 0,0 -0.2751521514268056,0.7997209479134142 l -26.520325507384733 -9.380637529943293" fill="#dcff1b" stroke="none" /><path d="M 119.41010516605496 108.01547362559984 l 24.014923064391585 9.917049948810918 a46.98200164490522,46.98200164490522 0 0,0 -0.31511280158601085,0.7448335801325313 l -23.840659281613263 -10.328958054609613" fill="#faff18" stroke="none" /><path d="M 119.26925614724726 108.34839909993367 l 29.08882723995583 12.602725154124084 a52.70155440205398,52.70155440205398 0 0,0 -0.36780393553051627,0.8293007772180884 l -28.86758221969404 -13.10157426783486" fill="#adff20" stroke="none" /><path d="M 119.12269723197855 108.67885076344098 l 24.734931652311428 11.22596764724871 a48.16319556792964,48.16319556792964 0 0,0 -0.34912670950220126,0.7519878724975855 l -24.538030325969395 -11.650075587025126" fill="#e9ff1a" stroke="none" /><line stroke="#e1ed5e" stroke-width="0.3" x1="174.80103733775053" x2="179.2010983576182" y1="140.37084112569926" y2="142.7455964860345" /><path d="M 175.68104954172406 140.8457921977663 a86.0,86.0 0 0,1 -30.038265399797805,32.042727171017184" fill="none" id="id65" stroke="none" /><text fill="#e1ed5e" style="font-size:6.75px; font-family:Arial;" text-anchor="middle"><textPath startOffset="22.206326154141568" xlink:href="#id65">May</textPath></text><path d="M 118.30583269289576 110.29060199501025 l 27.155637159120516 15.265509010899557 a52.15227752315491,52.15227752315491 0 0,0 -0.44664204803078733,0.778758058311945 l -26.88884311493735 -15.730686915069816" fill="#b4ff20" stroke="none" /><path d="M 118.12598468904814 110.60418214915192 l 29.55494965263685 17.29043000433174 a55.24111590916094,55.24111590916094 0 0,0 -0.48722433876892945,0.8166160168683306 l -29.252944438169692 -17.796608115086176" fill="#8dff24" stroke="none" /><path d="M 117.94076556474637 110.91462005526583 l 22.515320456467933 13.697641124512177 a47.35460164057447,47.35460164057447 0 0,0 -0.42965362318890155,0.6927384452724055 l -22.27620219361107 -14.083175901149858" fill="#f4ff19" stroke="none" /><path d="M 117.75023020441432 111.22182372390056 l 25.509422053469137 16.127240846229753 a51.17976989332952,51.17976989332952 0 0,0 -0.4771785732664562,0.740591742455865 l -25.228038616825632 -16.56395418860707" fill="#c1ff1e" stroke="none" /><path d="M 117.55443506779139 111.5257021239791 l 26.72033030879291 17.543747013456297 a52.96496693386611,52.96496693386611 0 0,0 -0.5069425655109967,0.7578103525684198 l -26.414384637871194 -18.001094280230525" fill="#aaff21" stroke="none" /><path d="M 117.14729908036423 112.12312394758627 l 25.07727856918909 17.729611814525516 a51.71170844369413,51.71170844369413 0 0,0 -0.5201217997185413,0.7224036886708972 l -24.768376977094945 -18.15864910864754" fill="#baff1f" stroke="none" /><line stroke="#e1ed5e" stroke-width="0.3" x1="143.8653032363475" x2="146.44561519142675" y1="172.8068346515853" y2="177.08958963109032" /><path d="M 144.38136562736335 173.6633856474863 a86.0,86.0 0 0,1 -40.68145358897372,12.25698825130547" fill="none" id="id66" stroke="none" /><text fill="#e1ed5e" style="font-size:6.75px; font-family:Arial;" text-anchor="middle"><textPath startOffset="21.466115282336833" xlink:href="#id66">June</textPath></text><path d="M 109.2508944713604 118.85261126421891 l 12.662224689163013 25.804639815535683 a49.74389274417052,49.74389274417052 0 0,0 -0.7719478328419197,0.3705818709566687 l -12.21616418832086 -26.018775962991914" fill="#d4ff1c" stroke="none" /><path d="M 108.92500713936063 119.00905698771935 l 11.947870208566393 25.447346106300497 a49.112613296785405,49.112613296785405 0 0,0 -0.7683364418805998,0.35270557594466195 l -11.508065770918375 -25.649238752579233" fill="#dcff1b" stroke="none" /><path d="M 108.59647513512805 119.15986991738527 l 13.27059032348153 29.577562934581852 a53.418217049721164,53.418217049721164 0 0,0 -0.842174631514636,0.3691846092250031 l -12.75949501730914 -29.801612097101312" fill="#a4ff21" stroke="none" /><path d="M 108.2653958097858 119.30500536409082 l 13.23848594192783 30.920363404590635 a54.63519560083706,54.63519560083706 0 0,0 -0.8677331928008531,0.3627125449660023 l -12.704281289629517 -31.14366099257661" fill="#94ff23" stroke="none" /><path d="M 107.93186726928326 119.44442032107085 l 12.186739818490942 29.874944112079298 a53.26497966996809,53.26497966996809 0 0,0 -0.8519325741047977,0.3390015531208487 l -11.670686168344279 -30.080292509606217" fill="#a6ff21" stroke="none" /><path d="M 107.59598834532513 119.57807347666477 l 10.795200849266722 27.82379669557689 a50.844597902012424,50.844597902012424 0 0,0 -0.8186701268638122,0.3095509911617625 l -10.314660501642635 -28.005495936845282" fill="#c5ff1e" stroke="none" /><path d="M 107.2578585660854 119.70592522655815 l 9.560037340498814 25.956606797944684 a48.66115959996688,48.66115959996688 0 0,0 -0.7884971794734918,0.2827270351732814 l -9.111820600395587 -26.117321374157925" fill="#e2ff1b" stroke="none" /><path d="M 106.91757812671514 119.82793768551818 l 10.634938968711632 30.4830539385662 a53.28495786414716,53.28495786414716 0 0,0 -0.8686216121934336,0.2946836118857819 l -10.108647623580971 -30.661600537350104" fill="#a6ff21" stroke="none" /><path d="M 106.57524785965236 119.94407469862006 l 8.788111173796688 26.656142772273437 a49.0674338958665,49.0674338958665 0 0,0 -0.8044223876908627,0.25755064571687564 l -8.327967441014886 -26.80346626465002" fill="#ddff1b" stroke="none" /><path d="M 105.18746579009965 120.34920634021253 l 6.68903693773101 26.23951624374505 a48.078689552119954,48.078689552119954 0 0,0 -0.803707906720124,0.19753184935558593 l -6.236375746267674 -26.35076935141467" fill="#eaff1a" stroke="none" /><path d="M 104.48393922423573 120.51570834832081 l 7.697874456041696 35.22067078620102 a57.05208623326718,57.05208623326718 0 0,0 -0.9612150120284458,0.2014319514890665 l -7.090467982583872 -35.34795871841663" fill="#77ff27" stroke="none" /><path d="M 104.13013068566511 120.58985236759428 l 5.386539084134546 26.853398343918606 a48.3883151347811,48.3883151347811 0 0,0 -0.8180675690074969,0.15678459661751087 l -4.923503900555345 -26.942140138884586" fill="#e6ff1a" stroke="none" /><path d="M 103.7750983002368 120.6578951692458 l 6.627494691102623 36.266629283518995 a57.86722237257359,57.86722237257359 0 0,0 -0.9814033698117947,0.17062955554051382 l -6.002242349818778 -36.37533741758051" fill="#6dff28" stroke="none" /><path d="M 103.41894727170886 120.7198165907248 l 4.506545801165871 27.310980555481667 a48.68029288067421,48.68029288067421 0 0,0 -0.827945465048117,0.12930805408203067 l -4.0357644725092365 -27.3845069169108" fill="#e2ff1b" stroke="none" /><path d="M 103.06178313531738 120.77559828337769 l 5.54379108077404 37.6171568562758 a59.02346787836332,59.02346787836332 0 0,0 -1.0064102998211626,0.13947929712367593 l -4.895452189766047 -37.70701071889208" fill="#5fff29" stroke="none" /><path d="M 102.70371172650421 120.8252237178851 l 4.431504705083457 34.13347509852573 a55.419941258707176,55.419941258707176 0 0,0 -0.9470808158977797,0.11467829740329667 l -3.843296466134297 -34.20469892465437" fill="#8bff24" stroke="none" /><path d="M 101.98527174616119 120.90594882070398 l 3.0669389847677424 32.296470030239554 a53.44176461215465,53.44176461215465 0 0,0 -0.9165407235707853,0.07908299023192243 l -2.5105539434554154 -32.34447727275014" fill="#a4ff21" stroke="none" /><line stroke="#e1ed5e" stroke-width="0.3" x1="102.19456741930631" x2="102.32365962044197" y1="184.97166512339345" y2="189.96999836594603" /><path d="M 102.22038585953345 185.97133177190398 a86.0,86.0 0 0,1 -42.740103519485714,-10.115201625700543" fill="none" id="id67" stroke="none" /><text fill="#e1ed5e" style="font-size:6.75px; font-family:Arial;" text-anchor="middle"><textPath startOffset="22.20632615414155" xlink:href="#id67">July</textPath></text><path d="M 100.54218724476979 120.99299961872073 l 0.8290056919153128 32.09835041708643 a53.10905401806943,53.10905401806943 0 0,0 -0.914083473990384,0.015736775967132095 l -0.2763625280322609 -32.107864670332724" fill="#a8ff21" stroke="none" /><path d="M 100.18074693466247 120.99922214144158 l 0.31669524061201615 36.79372887384383 a57.79509179656107,57.79509179656107 0 0,0 -0.9948843505489179,0.0 l 0.3166952406119908 -36.79372887384383" fill="#6eff28" stroke="none" /><path d="M 99.45781275523022 120.99299961872073 l -0.8238451089839158 31.898537314591312 a52.9091742853677,52.9091742853677 0 0,0 -0.9102384704286982,-0.0313504533686555 l 1.372803931087257 -31.879630062796565" fill="#aaff21" stroke="none" /><path d="M 98.01472825383883 120.90594882070398 l -3.0049044785509462 31.643214265836896 a52.7855699964446,52.7855699964446 0 0,0 -0.903808111443585,-0.09368340619953038 l 3.5491451866001245 -31.586801491181603" fill="#acff21" stroke="none" /><path d="M 97.65516085044442 120.86867818915974 l -3.5195529104208676 31.323435158106392 a52.520546359372446,52.520546359372446 0 0,0 -0.897532562606522,-0.10867869395725464 l 4.058212896078779 -31.25821093542379" fill="#afff20" stroke="none" /><path d="M 97.2962882734958 120.8252237178851 l -4.086338405296596 31.474846464980708 a52.739000008770134,52.739000008770134 0 0,0 -0.8992537158351454,-0.12462837099622531 l 4.627520712318573 -31.39984352849188" fill="#adff20" stroke="none" /><path d="M 96.93821686468263 120.77559828337769 l -4.011303229526074 27.218526200684416 a48.512519370943664,48.512519370943664 0 0,0 -0.8250920040618179,-0.12886240216035988 l 4.4792310971964096 -27.14544549117695" fill="#e4ff1a" stroke="none" /><path d="M 96.22490169976321 120.6578951692458 l -5.726651472521566 31.337082211273056 a52.856039593832435,52.856039593832435 0 0,0 -0.8936002772043459,-0.17126061991279312 l 6.265219364297607 -31.233864393011796" fill="#abff21" stroke="none" /><path d="M 95.51606077576429 120.51570834832081 l -7.772978453452139 35.564299820764674 a57.40382693864854,57.40382693864854 0 0,0 -0.9635091592196574,-0.21929154772188403 l 8.384007762064659 -35.4252315394651" fill="#72ff27" stroke="none" /><path d="M 95.16358092515715 120.4354850818985 l -8.364596446726072 35.343212252285234 a57.3195419302979,57.3195419302979 0 0,0 -0.9581827102216615,-0.23549799770296675 l 8.971732441690945 -35.193992996268236" fill="#73ff27" stroke="none" /><path d="M 94.81253420990036 120.34920634021253 l -8.07827984575291 31.689188923219618 a53.702649737869905,53.702649737869905 0 0,0 -0.8937899680825049,-0.23605805410119696 l 8.622560256646905 -31.54543951981484" fill="#a0ff22" stroke="none" /><path d="M 94.46302465271185 120.25689768951611 l -8.688662924986048 31.787274620309887 a53.95335629660542,53.95335629660542 0 0,0 -0.8937471919874144,-0.25258188385504593 l 9.234541285078075 -31.63300394311632" fill="#9dff22" stroke="none" /><path d="M 94.11515582081647 120.15858648285463 l -8.973995301756661 30.7405013419219 a53.02360089728594,53.02360089728594 0 0,0 -0.8739426293258714,-0.2633117451551801 l 9.501812905522778 -30.581474227660994" fill="#a9ff21" stroke="none" /><path d="M 93.76903079525671 120.05430185196036 l -9.379693601589754 30.188434669519726 a52.612026822960345,52.612026822960345 0 0,0 -0.8625332298403883,-0.27615590229324194 l 9.897948176521082 -30.02250592056678" fill="#aeff20" stroke="none" /><path d="M 93.08242187328487 119.8279376855182 l -15.171288957635277 43.48564866933095 a67.05615755605922,67.05615755605922 0 0,0 -1.0865666074122908,-0.3896041272298476 l 15.917575125677294 -43.21805700106115" fill="#35ff64" stroke="none" /><path d="M 92.7421414339146 119.70592522655815 l -12.322338530920133 33.456573932332454 a56.653644500390506,56.653644500390506 0 0,0 -0.9122040146686882,-0.3449175041529353 l 12.896412766349105 -33.23950817807288" fill="#7bff26" stroke="none" /><path d="M 92.40401165467489 119.57807347666478 l -11.377924371159269 29.32572158139045 a52.45560537114251,52.45560537114251 0 0,0 -0.8389872517920131,-0.33385034221158477 l 11.88103269899314 -29.125524394772796" fill="#b0ff20" stroke="none" /><path d="M 92.06813273071674 119.44442032107085 l -12.037278128908637 29.50854918696626 a52.869272659919766,52.869272659919766 0 0,0 -0.8396862546520838,-0.3509889225451439 l 12.543435843058184 -29.296975221401144" fill="#abff21" stroke="none" /><path d="M 91.7346041902142 119.30500536409082 l -12.307193902557962 28.745198629748945 a52.2690496500754,52.2690496500754 0 0,0 -0.8240572235441849,-0.36124246999229287 l 12.800171800759891 -28.529091606462202" fill="#b3ff20" stroke="none" /><path d="M 91.40352486487194 119.15986991738527 l -10.986890371917449 24.487640226202473 a47.839453867254115,47.839453867254115 0 0,0 -0.7484186504952891,-0.3435622948256423 l 11.406777018180158 -24.294890861042756" fill="#eeff19" stroke="none" /><path d="M 90.7491055286396 118.85261126421891 l -18.908055142459325 38.533161789573505 a63.92224489436369,63.92224489436369 0 0,0 -0.9836296976075829,-0.49321235019800425 l 19.56853874774967 -38.2019815984662" fill="#30ff39" stroke="none" /><path d="M 90.42595943632237 118.69057910512821 l -15.42871715023962 30.120162586446273 a54.8418307296762,54.8418307296762 0 0,0 -0.8364922526103468,-0.43761321150034893 l 15.944900305376464 -29.85011995600121" fill="#92ff23" stroke="none" /><path d="M 90.10565033884886 118.52300852407294 l -12.74277639552642 23.855489635812035 a48.045567770537204,48.045567770537204 0 0,0 -0.726122247675608,-0.39593974496196044 l 13.15152145507067 -23.632609239090307" fill="#ebff1a" stroke="none" /><line stroke="#e1ed5e" stroke-width="0.3" x1="58.666819895761336" x2="56.23545636021788" y1="174.27360380694188" y2="178.64263932499728" /><path d="M 58.180547188652646 175.14741091055294 a86.0,86.0 0 0,1 -31.652253787137756,-30.449443065178592" fill="none" id="id68" stroke="none" /><text fill="#e1ed5e" style="font-size:6.75px; font-family:Arial;" text-anchor="middle"><textPath startOffset="22.20632615414155" xlink:href="#id68">August</textPath></text><path d="M 89.4739219176387 118.17145234162733 l -4.500504467971804 7.769342181687944 a29.97870917239164,29.97870917239164 0 0,0 -0.4443017847402104,-0.26250132587665914 l 4.633574123740396 -7.690722283517535" fill="#ff0000" stroke="none" /><path d="M 88.8546689885994 117.79835938074946 l -17.693068188806965 28.254664293987517 a54.337227183731194,54.337227183731194 0 0,0 -0.7884543785330235,-0.5032288888075559 l 18.17680436938691 -27.945920976356156" fill="#98ff23" stroke="none" /><path d="M 88.54995079064634 117.60387380957326 l -24.40114709586459 37.5155343379247 a65.75300320932695,65.75300320932695 0 0,0 -0.9434782619429858,-0.625285945718642 l 25.043300056547537 -37.08995037111474" fill="#33ff52" stroke="none" /><path d="M 88.24862548938628 117.40417183066458 l -20.45054521074766 30.287929514726937 a57.54563549462372,57.54563549462372 0 0,0 -0.816170064384491,-0.5613692125196301 l 20.96887215975504 -29.931419512842204" fill="#71ff27" stroke="none" /><path d="M 87.95078237400918 117.19931262002967 l -28.372563636844806 40.49960810477537 a70.44917212620646,70.44917212620646 0 0,0 -0.9872031491624994,-0.7043432350581585 l 29.06549411385619 -40.005220607872985" fill="#3aff90" stroke="none" /><path d="M 87.65650970185807 116.9893568818739 l -16.80524547385818 23.130436039298424 a49.590791293783845,49.590791293783845 0 0,0 -0.6862775847052284,-0.5076917505850533 l 17.20090802898197 -22.837734339973604" fill="#d6ff1c" stroke="none" /><path d="M 87.36589467227662 116.77436683061367 l -25.12899228265142 33.36389270935515 a62.76859573726314,62.76859573726314 0 0,0 -0.8574527080869992,-0.657458172901921 l 25.699573719231907 -32.92639519462586" fill="#34ff2f" stroke="none" /><path d="M 87.07902340077011 116.55440617244103 l -22.254158093819775 28.512115108448253 a57.16888525268822,57.16888525268822 0 0,0 -0.7705345057368822,-0.6121592127362765 l 22.741650092274014 -28.124821981706845" fill="#75ff27" stroke="none" /><path d="M 86.79598089348748 116.32954008644616 l -22.622407486264105 27.977353479946593 a56.97923884987644,56.97923884987644 0 0,0 -0.7573622674184517,-0.6232575851247227 l 23.100639882227245 -27.58380077596469" fill="#78ff26" stroke="none" /><path d="M 86.51685102203217 116.09983520530335 l -20.87515246153191 24.9264111125249 a53.51304294037712,53.51304294037712 0 0,0 -0.7011088364910555,-0.5975001606890622 l 21.30112677460002 -24.563386561612884" fill="#a3ff22" stroke="none" /><path d="M 86.24171649860922 115.8653595955263 l -26.38806304238596 30.429385261217384 a61.27750437284477,61.27750437284477 0 0,0 -0.7909398169075993,-0.6979124274253259 l 26.907945212200143 -29.97064969201977" fill="#45ff2d" stroke="none" /><path d="M 85.97065885151581 115.62618273729859 l -21.353409154589084 23.78388763822778 a52.96312553101047,52.96312553101047 0 0,0 -0.6731372412319157,-0.614894909935407 l 21.759645945287854 -23.4127999617058" fill="#aaff21" stroke="none" /><path d="M 85.70375840098266 115.38237550388516 l -27.65684548005729 29.758029722749814 a61.625625347652516,61.625625347652516 0 0,0 -0.770802069623108,-0.7288414678680425 l 28.164983384071213 -29.27755361813584" fill="#41ff2d" stroke="none" /><path d="M 85.44109423537348 115.13401014063109 l -37.952372152402646 39.45156279608634 a75.74311243478957,75.74311243478957 0 0,0 -0.9318207954634979,-0.9119827706409893 l 38.625842900241935 -38.792429922522786" fill="#41ffd1" stroke="none" /><path d="M 85.18274418774928 114.88116024355367 l -22.004018058528143 22.098917834723352 a52.18555723705906,52.18555723705906 0 0,0 -0.6310957855739148,-0.6392966988642649 l 22.38115446915759 -21.716880641878422" fill="#b4ff20" stroke="none" /><path d="M 84.9287848128048 114.62390073753433 l -22.49725947009961 21.829539640361173 a52.34733616394041,52.34733616394041 0 0,0 -0.6219198774126908,-0.6520805050643018 l 22.86968589889126 -21.43905201871437" fill="#b2ff20" stroke="none" /><path d="M 84.67929136418377 114.36230785411682 l -23.037103385903787 21.595996553447925 a52.576814271698694,52.576814271698694 0 0,0 -0.6132799767616198,-0.66559429050828 l 23.405429770661137 -21.1962510081383" fill="#afff20" stroke="none" /><path d="M 84.43433777217949 114.09645910891817 l -46.69698668346152 42.28937732675451 a84.0,84.0 0 0,0 -0.9613646014066468,-1.0801033210365434 l 47.4180101345165 -41.4792998359771" fill="#4dd2ff" stroke="none" /><path d="M 84.19399662182784 113.82643327865904 l -23.440400241906772 20.50468560682202 a52.14312918342338,52.14312918342338 0 0,0 -0.5851389984043925,-0.6806488490740515 l 23.789881749881943 -20.098159658586436" fill="#b4ff20" stroke="none" /><line stroke="#e1ed5e" stroke-width="0.3" x1="26.63291911575756" x2="22.317208475507996" y1="142.92168965132927" y2="145.44649492493687" /><path d="M 25.769776987707644 143.4266507060508 a86.0,86.0 0 0,1 -11.730757126820373,-40.83630448921669" fill="none" id="id69" stroke="none" /><text fill="#e1ed5e" style="font-size:6.75px; font-family:Arial;" text-anchor="middle"><textPath startOffset="21.46611528233685" xlink:href="#id69">September</textPath></text><line stroke="#e1ed5e" stroke-width="0.3" x1="15.007084014347285" x2="10.007500721073583" y1="101.09737516637583" y2="101.16192664675087" /><path d="M 14.007167355692545 101.11028546245083 a86.0,86.0 0 0,1 10.666146001902534,-42.60595125391555" fill="none" id="id70" stroke="none" /><text fill="#e1ed5e" style="font-size:6.75px; font-family:Arial;" text-anchor="middle"><textPath startOffset="22.20632615414155" xlink:href="#id70">October</textPath></text><line stroke="#e1ed5e" stroke-width="0.3" x1="26.266209847984243" x2="21.928928074336255" y1="57.711370442889674" y2="55.22380399835377" /><path d="M 25.398753493254645 57.213857153982495 a86.0,86.0 0 0,1 29.58750427330803,-30.492523968695096" fill="none" id="id71" stroke="none" /><text fill="#e1ed5e" style="font-size:6.75px; font-family:Arial;" text-anchor="middle"><textPath startOffset="21.46611528233685" xlink:href="#id71">November</textPath></text><line stroke="#e1ed5e" stroke-width="0.3" x1="56.762969772571076" x2="54.21961505331055" y1="26.818313649435495" y2="22.513508569990535" /><path d="M 56.25429882871897 25.957352633546506 a86.0,86.0 0 0,1 42.265352541879196,-11.944610805530505" fill="none" id="id72" stroke="none" /><text fill="#e1ed5e" style="font-size:6.75px; font-family:Arial;" text-anchor="middle"><textPath startOffset="22.20632615414155" xlink:href="#id72">December</textPath></text></svg>