<?xml version="1.0" encoding="utf-8" ?>
<svg baseProfile="full" height="200mm" version="1.1" viewBox="0,0,200,200" width="200mm" xmlns="http://www.w3.org/2000/svg" xmlns:ev="http://www.w3.org/2001/xml-events" xmlns:xlink="http://www.w3.org/1999/xlink"><defs /><rect fill="#1a1a1a" height="200" width="200" x="0" y="0" /><text alignment-baseline="middle" fill="#e1ed5e" style="dominant-baseline: central; font-size:9.0px; font-family:Arial;" text-anchor="middle" x="100.0" y="100.0">2022</text><line stroke="#e1ed5e" stroke-width="0.3" x1="100.0" x2="100.0" y1="15.0" y2="10.0" /><path d="M 100.0 14.0 a86.0,86.0 0 0,1 42.46469731375804,11.215312516191453" fill="none" id="id49" stroke="none" /><text fill="#e1ed5e" style="font-size:6.75px; font-family:Arial;" text-anchor="middle"><textPath startOffset="22.20632615414155" xlink:href="#id49">January</textPath></text><path d="M 100.0 79.0 l 0.0 -63.0 a84.0,84.0 0 0,0 1.4459219170901134,0.012445506434235476 l -1.084441437817585 62.990665870174325" fill="#4dd2ff" stroke="none" /><path d="M 100.36148047927253 79.00311137660856 l 0.9957379416683998 -57.8382509101795 a78.84682154100912,78.84682154100912 0 0,0 1.3568162478316308,0.03504256068364349 l -1.9911808246948983 57.81254155735349" fill="#3fffbe" stroke="none" /><path d="M 100.72285384407766 79.0124445844662 l 1.1930694373107567 -34.63993604694599 a55.66047581927798,55.66047581927798 0 0,0 0.957251957890675,0.04122128293975502 l -1.789162227590763 34.614267037482044" fill="#ff0000" stroke="none" /><path d="M 102.52436894288641 79.15227682838746 l 6.8773143072355944 -56.79690571596045 a78.2117640961036,78.2117640961036 0 0,0 1.3351316898034282,0.17333841187255378 l -7.8539607255468695 56.67010898092376" fill="#3dffaf" stroke="none" /><path d="M 102.88285421437855 79.19881850522331 l 8.047881697532773 -58.06934218314513 a79.62437122392599,79.62437122392599 0 0,0 1.356006907787612,0.19984016946264377 l -9.046257585749041 57.92220752952152" fill="#41ffd0" stroke="none" /><path d="M 103.59715602781102 79.31037775812273 l 9.936518283707795 -57.151485256680374 a79.00884986488711,79.00884986488711 0 0,0 1.3379015470477271,0.2444929560714979 l -10.918814951858423 56.97197681925814" fill="#3fffc2" stroke="none" /><path d="M 105.01212808612495 79.60689891045804 l 13.839844560677092 -56.31088119450729 a78.98669363194989,78.98669363194989 0 0,0 1.3175398424491038,0.33587024208860433 l -14.80709329181122 56.06430795624982" fill="#3fffc1" stroke="none" /><path d="M 105.36241919743992 79.69619591428918 l 15.61257946691474 -59.114131718789345 a82.14109261762587,82.14109261762587 0 0,0 1.363941541773181,0.3728167465568437 l -16.627818897911634 58.83662843140621" fill="#48f8ff" stroke="none" /><path d="M 107.08798089147638 80.2323363322302 l 19.642307369014365 -54.78041372777394 a79.19548064038065,79.19548064038065 0 0,0 1.279262226292994,0.47116307408174446 l -20.582351921079933 54.43418738588587" fill="#40ffc6" stroke="none" /><path d="M 107.4271985657038 80.35727306442388 l 20.80366059863793 -55.019482889067724 a79.82121888981676,79.82121888981676 0 0,0 1.281004502672135,0.49700984543777377 l -21.74764826630973 54.6532303397394" fill="#42ffd4" stroke="none" /><path d="M 107.76421540070413 80.48803036053334 l 21.639982030367875 -54.382658206114336 a79.53001226582563,79.53001226582563 0 0,0 1.267617997962154,0.5170932093611857 l -22.572883897918416 54.00210411056957" fill="#41ffce" stroke="none" /><path d="M 109.73455568895987 81.39251694778311 l 18.299747593922593 -34.97974166401272 a60.47737439195195,60.47737439195195 0 0,0 0.9182623998969403,0.4905039725841647 l -18.899155040347843 34.6595589649268" fill="#ff930d" stroke="none" /><path d="M 110.05341064243156 81.56283822128135 l 23.461215663590718 -43.02601814446624 a70.006804402873,70.006804402873 0 0,0 1.053022052948256,0.5860056323829179 l -24.19836180561101 42.61579711452314" fill="#73ff27" stroke="none" /><path d="M 110.36928655335952 81.73862282372117 l 17.31752817766618 -30.497943343145458 a56.07165993143143,56.07165993143143 0 0,0 0.8352094496497464,0.4838072222768722 l -17.839934359781257 30.195331963478537" fill="#ff0d01" stroke="none" /><line stroke="#e1ed5e" stroke-width="0.3" x1="143.23703022742887" x2="145.7803849466894" y1="26.81831364943548" y2="22.513508569990506" /><path d="M 143.74570117128098 25.957352633546492 a86.0,86.0 0 0,1 28.547481713284135,27.462654790039103" fill="none" id="id50" stroke="none" /><text fill="#e1ed5e" style="font-size:6.75px; font-family:Arial;" text-anchor="middle"><textPath startOffset="19.985693538727396" xlink:href="#id50">February</textPath></text><path d="M 110.99172775467656 82.1063720568725 l 30.489152308461506 -49.63383008434153 a79.25036907462346,79.25036907462346 0 0,0 1.156228345328291,0.7240300837719836 l -31.33899980616206 49.1016556592466" fill="#40ffc7" stroke="none" /><path d="M 111.2981086023043 82.29822771554956 l 31.694030038659857 -49.657913750843434 a79.9102702266564,79.9102702266564 0 0,0 1.1531165170078843,0.7500190586846102 l -32.544113581452024 49.10499576799929" fill="#42ffd6" stroke="none" /><path d="M 111.60114157652 82.49532879139004 l 32.55751267614325 -49.12521332551429 a79.9345248214874,79.9345248214874 0 0,0 1.1403813519695898,0.7699905794025321 l -33.39829872251938 48.55751083381308" fill="#42ffd7" stroke="none" /><path d="M 111.90073688211348 82.69761687909136 l 19.725985361573695 -28.67944729341587 a55.808406966433246,55.808406966433246 0 0,0 0.7868157834382727,0.5512147383827154 l -20.21673228459562 28.335647712269218" fill="#ff0500" stroke="none" /><line stroke="#e1ed5e" stroke-width="0.3" x1="172.23445277983987" x2="176.4835382374775" y1="55.19839476539836" y2="52.563006222186495" /><path d="M 173.08426987136738 54.67131705675599 a86.0,86.0 0 0,1 12.851231095245387,41.99856678651699" fill="none" id="id51" stroke="none" /><text fill="#e1ed5e" style="font-size:6.75px; font-family:Arial;" text-anchor="middle"><textPath startOffset="22.20632615414155" xlink:href="#id51">March</textPath></text><line stroke="#e1ed5e" stroke-width="0.3" x1="184.98032266829074" x2="189.97916517819016" y1="98.17113171792111" y2="98.06355123074" /><path d="M 185.9800911702706 98.14961562048488 a86.0,86.0 0 0,1 -9.607161424134198,41.387399972396054" fill="none" id="id52" stroke="none" /><text fill="#e1ed5e" style="font-size:6.75px; font-family:Arial;" text-anchor="middle"><textPath startOffset="21.466115282336823" xlink:href="#id52">April</textPath></text><line stroke="#e1ed5e" stroke-width="0.3" x1="174.80103733775053" x2="179.2010983576182" y1="140.37084112569926" y2="142.7455964860345" /><path d="M 175.68104954172406 140.8457921977663 a86.0,86.0 0 0,1 -30.038265399797805,32.042727171017184" fill="none" id="id53" stroke="none" /><text fill="#e1ed5e" style="font-size:6.75px; font-family:Arial;" text-anchor="middle"><textPath startOffset="22.206326154141568" xlink:href="#id53">May</textPath></text><line stroke="#e1ed5e" stroke-width="0.3" x1="143.8653032363475" x2="146.44561519142675" y1="172.8068346515853" y2="177.08958963109032" /><path d="M 144.38136562736335 173.6633856474863 a86.0,86.0 0 0,1 -40.68145358897372,12.25698825130547" fill="none" id="id54" stroke="none" /><text fill="#e1ed5e" style="font-size:6.75px; font-family:Arial;" text-anchor="middle"><textPath startOffset="21.466115282336833" xlink:href="#id54">June</textPath></text><line stroke="#e1ed5e" stroke-width="0.3" x1="102.19456741930631" x2="102.32365962044197" y1="184.97166512339345" y2="189.96999836594603" /><path d="M 102.22038585953345 185.97133177190398 a86.0,86.0 0 0,1 -42.740103519485714,-10.115201625700543" fill="none" id="id55" stroke="none" /><text fill="#e1ed5e" style="font-size:6.75px; font-family:Arial;" text-anchor="middle"><textPath startOffset="22.20632615414155" xlink:href="#id55">July</textPath></text><line stroke="#e1ed5e" stroke-width="0.3" x1="58.666819895761336" x2="56.23545636021788" y1="174.27360380694188" y2="178.64263932499728" /><path d="M 58.180547188652646 175.14741091055294 a86.0,86.0 0 0,1 -31.652253787137756,-30.449443065178592" fill="none" id="id56" stroke="none" /><text fill="#e1ed5e" style="font-size:6.75px; font-family:Arial;" text-anchor="middle"><textPath startOffset="22.20632615414155" xlink:href="#id56">August</textPath></text><line stroke="#e1ed5e" stroke-width="0.3" x1="26.63291911575756" x2="22.317208475507996" y1="142.92168965132927" y2="145.44649492493687" /><path d="M 25.769776987707644 143.4266507060508 a86.0,86.0 0 0,1 -11.730757126820373,-40.83630448921669" fill="none" id="id57" stroke="none" /><text fill="#e1ed5e" style="font-size:6.75px; font-family:Arial;" text-anchor="middle"><textPath startOffset="21.46611528233685" xlink:href="#id57">September</textPath></text><line stroke="#e1ed5e" stroke-width="0.3" x1="15.007084014347285" x2="10.007500721073583" y1="101.09737516637583" y2="101.16192664675087" /><path d="M 14.007167355692545 101.11028546245083 a86.0,86.0 0 0,1 10.666146001902534,-42.60595125391555" fill="none" id="id58" stroke="none" /><text fill="#e1ed5e" style="font-size:6.75px; font-family:Arial;" text-anchor="middle"><textPath startOffset="22.20632615414155" xlink:href="#id58">October</textPath></text><line stroke="#e1ed5e" stroke-width="0.3" x1="26.266209847984243" x2="21.928928074336255" y1="57.711370442889674" y2="55.22380399835377" /><path d="M 25.398753493254645 57.213857153982495 a86.0,86.0 0 0,1 29.58750427330803,-30.492523968695096" fill="none" id="id59" stroke="none" /><text fill="#e1ed5e" style="font-size:6.75px; font-family:Arial;" text-anchor="middle"><textPath startOffset="21.46611528233685" xlink:href="#id59">November</textPath></text><line stroke="#e1ed5e" stroke-width="0.3" x1="56.762969772571076" x2="54.21961505331055" y1="26.818313649435495" y2="22.513508569990535" /><path d="M 56.25429882871897 25.957352633546506 a86.0,86.0 0 0,1 42.265352541879196,-11.944610805530505" fill="none" id="id60" stroke="none" /><text fill="#e1ed5e" style="font-size:6.75px; font-family:Arial;" text-anchor="middle"><textPath startOffset="22.20632615414155" xlink:href="#id60">December</textPath></text></svg>