<?xml version="1.0" encoding="utf-8" ?>
<svg baseProfile="full" height="200mm" version="1.1" viewBox="0,0,200,200" width="200mm" xmlns="http://www.w3.org/2000/svg" xmlns:ev="http://www.w3.org/2001/xml-events" xmlns:xlink="http://www.w3.org/1999/xlink"><defs /><rect fill="#1a1a1a" height="200" width="200" x="0" y="0" /><rect fill="#1a1a1a" height="200" width="180" x="10" y="0" /><text alignment-baseline="middle" fill="#e1ed5e" style="dominant-baseline: central; font-size:9.0px; font-family:Arial;" text-anchor="middle" x="100.0" y="100.0">2026</text><line stroke="#e1ed5e" stroke-width="0.3" x1="100.0" x2="100.0" y1="15.0" y2="10.0" /><path d="M 100.0 14.0 a86.0,86.0 0 0,1 42.46469731375804,11.215312516191453" fill="none" id="id97" stroke="none" /><text fill="#e1ed5e" style="font-size:6.75px; font-family:Arial;" text-anchor="middle"><textPath startOffset="22.20632615414155" xlink:href="#id97">January</textPath></text><path d="M 100.0 79.0 l 0.0 -56.656725301805324 a77.65672530180532,77.65672530180532 0 0,0 1.3367328705157937,0.011505681838158036 l -0.9752523912432653 56.64833099657572" fill="#45ffee" stroke="none" /><path d="M 100.36148047927253 79.00311137660856 l 0.1556976318493202 -9.043824002460951 a30.045164141133775,30.045164141133775 0 0,0 0.5170248600859053,0.013353226764101146 l -0.31134912713009333 9.03980398355449" fill="#ff5e08" stroke="none" /><path d="M 100.72285384407766 79.0124445844662 l 0.23258370262126926 -6.7529050132428825 a27.7569091526086,27.7569091526086 0 0,0 0.4773648669048127,0.02055633533259287 l -0.3487894019154135 6.747900951386095" fill="#ff3d05" stroke="none" /><path d="M 101.08401301168833 79.027996857942 l 1.0402492431944437 -20.125321524341448 a41.15218809325895,41.15218809325895 0 0,0 0.7071081541589751,0.0426546948874774 l -1.3865194461930308 20.104433560073666" fill="#fff216" stroke="none" /><path d="M 101.44485096284872 79.0497635885617 l 1.8446199319835406 -26.74685808985598 a47.81039053002334,47.81039053002334 0 0,0 0.8205397046399157,0.06368967332116769 l -2.3047498259857973 26.711143154346345" fill="#bbff1f" stroke="none" /><path d="M 101.80526077348638 79.07773832637324 l 2.1345222477453274 -24.738272537356917 a45.83018955543165,45.83018955543165 0 0,0 0.7853873162709992,0.07458198918204968 l -2.560034691106571 24.697865003659686" fill="#d2ff1c" stroke="none" /><path d="M 102.16513564639614 79.11191278185805 l 1.5715692196518953 -15.161671271763838 a36.24290344931654,36.24290344931654 0 0,0 0.6199836990703205,0.0696623924375588 l -1.8323196222319411 15.132372925855679" fill="#ffb310" stroke="none" /><path d="M 102.52436894288641 79.15227682838746 l 0.6375480198762842 -5.265246454740828 a26.303705092367885,26.303705092367885 0 0,0 0.44902337434700246,0.05829612104737323 l -0.7280861227311328 5.253492010529318" fill="#ff2803" stroke="none" /><path d="M 102.88285421437855 79.19881850522331 l 4.553406127815603 -32.85501806220821 a54.16904760816711,54.16904760816711 0 0,0 0.9225015107294042,0.13595274269987995 l -5.118276618973663 32.77177083534736" fill="#73ff27" stroke="none" /><path d="M 103.2404852339499 79.25152402106235 l 8.912353515302838 -57.06483426948402 a78.75660443088226,78.75660443088226 0 0,0 1.3376276487699694,0.22072002328300647 l -9.893310370211683 56.90296798326139" fill="#46fffa" stroke="none" /><path d="M 103.59715602781102 79.31037775812273 l 3.0080380657093517 -17.301215401152767 a38.560761582626256,38.560761582626256 0 0,0 0.6529711882271296,0.11932631096170958 l -3.3054043750393824 17.24687360884032" fill="#ffd113" stroke="none" /><path d="M 104.307194497241 79.44645832069477 l 0.8891151634900956 -4.242776958923439 a25.334937380991754,25.334937380991754 0 0,0 0.426057974724381,0.09311977106661526 l -0.9620158623680045 4.226843689760954" fill="#ff1a02" stroke="none" /><path d="M 104.66035177308747 79.52364482259891 l 1.4672021760421916 -6.446498963272952 a27.61135622311052,27.61135622311052 0 0,0 0.4625248138157238,0.10946467985279126 l -1.5779506768204388 6.420288371279293" fill="#ff3b05" stroke="none" /><path d="M 105.01212808612495 79.60689891045804 l 6.724780916304563 -27.361458980041455 a49.175736297189914,49.175736297189914 0 0,0 0.8202773008226099,0.20910694821566247 l -7.194767105812198 27.241649035656927" fill="#abff21" stroke="none" /><path d="M 105.36241919743992 79.69619591428918 l 1.1659105954226041 -4.4145038720987095 a25.565872529242707,25.565872529242707 0 0,0 0.424517795942118,0.11603674988362647 l -1.241726280588433 4.39378058138879" fill="#ff1d03" stroke="none" /><path d="M 105.71112130821622 79.79150937346287 l 1.3052699882857068 -4.618626518302858 a25.799525045032034,25.799525045032034 0 0,0 0.42631845565312165,0.12445404762692888 l -1.3845786616622555 4.595474141757226" fill="#ff2103" stroke="none" /><path d="M 106.0581310904928 79.89281104454417 l 3.3782241728567612 -11.212466478996905 a32.710328906768716,32.710328906768716 0 0,0 0.5377182858123801,0.16707168888040003 l -3.5707278313798594 11.152654655233984" fill="#ff830c" stroke="none" /><path d="M 107.08798089147638 80.2323363322302 l 2.297309544662793 -6.4069645664905766 a27.80638127790859,27.80638127790859 0 0,0 0.4491626659891964,0.1654304005234901 l -2.407254536424566 6.366470898160762" fill="#ff3e05" stroke="none" /><path d="M 107.4271985657038 80.35727306442388 l 9.505405037229004 -25.138963756874613 a47.876015770408266,47.876015770408266 0 0,0 0.7683344432080487,0.2981018271729583 l -9.936722645436719 24.971619225811107" fill="#baff1f" stroke="none" /><path d="M 107.76421540070413 80.48803036053334 l 11.172336141457373 -28.076794929499574 a51.217999741393996,51.217999741393996 0 0,0 0.8163566990886842,0.3330123950542667 l -11.653976710134446 27.880321648261727" fill="#94ff23" stroke="none" /><path d="M 108.09893153111575 80.62456947434976 l 13.003241524331639 -31.10822727602798 a54.71655519766386,54.71655519766386 0 0,0 0.865866667140307,0.3707189191320774 l -13.53679194926226 30.879788828933112" fill="#6dff28" stroke="none" /><path d="M 108.43124777332544 80.76684994638697 l 8.009031459381653 -18.270000833060447 a40.94837124572817,40.94837124572817 0 0,0 0.6431192884048512,0.28854887822996333 l -8.322332866253285 18.129431624313952" fill="#fff016" stroke="none" /><path d="M 108.76106565485865 80.91482961587045 l 8.6514699785767 -18.846426350286485 a41.73730259621503,41.73730259621503 0 0,0 0.6503502290982579,0.30534815280614036 l -8.974598418974555 18.69471321484034" fill="#fffa17" stroke="none" /><path d="M 109.08828744355905 81.06846463323043 l 9.746597323920978 -20.30284067151079 a43.52113449023864,43.52113449023864 0 0,0 0.6725646968755115,0.3300245758404044 l -10.094633287806923 20.132060935535556" fill="#eeff19" stroke="none" /><path d="M 109.41281617654863 81.2277094730956 l 2.97256734749834 -5.928289346290961 a27.6317999976447,27.6317999976447 0 0,0 0.42334485039463,0.21685367517532744 l -3.0741726854817255 5.876243145803133" fill="#ff3b05" stroke="none" /><path d="M 109.73455568895987 81.39251694778311 l 12.179373463729188 -23.280722053907745 a47.27411572860821,47.27411572860821 0 0,0 0.7177898081457431,0.38341845687619075 l -12.578308318403243 23.0676248705298" fill="#c1ff1e" stroke="none" /><path d="M 110.05341064243156 81.56283822128135 l 7.522365349163571 -13.795424441909777 a36.71304286186283,36.71304286186283 0 0,0 0.5522269455680163,0.30731369732517294 l -7.758716383803622 13.663895347024425" fill="#ffb911" stroke="none" /><path d="M 110.36928655335952 81.73862282372117 l 28.523357804539945 -50.23255867433841 a78.76583671528233,78.76583671528233 0 0,0 1.1732481473639393,0.6796210548811122 l -29.38380268436921 49.73413346206724" fill="#46fffa" stroke="none" /><line stroke="#e1ed5e" stroke-width="0.3" x1="143.23703022742887" x2="145.7803849466894" y1="26.81831364943548" y2="22.513508569990506" /><path d="M 143.74570117128098 25.957352633546492 a86.0,86.0 0 0,1 28.547481713284135,27.462654790039103" fill="none" id="id98" stroke="none" /><text fill="#e1ed5e" style="font-size:6.75px; font-family:Arial;" text-anchor="middle"><textPath startOffset="19.985693538727396" xlink:href="#id98">February</textPath></text><path d="M 110.68208982089419 81.91981866633111 l 7.816611457726606 -13.230159541824612 a36.36673472742976,36.36673472742976 0 0,0 0.536215266638697,0.32306369839624605 l -8.04318879058294 13.093649233969753" fill="#ffb410" stroke="none" /><path d="M 110.99172775467656 82.1063720568725 l 11.37121137424383 -18.511396036606623 a42.72501395492826,42.72501395492826 0 0,0 0.6233393328770381,0.390335033062341 l -11.688169859493131 18.312916662221337" fill="#f8ff18" stroke="none" /><path d="M 111.2981086023043 82.29822771554956 l 19.1646323704295 -30.026969121836885 a56.621650839587154,56.621650839587154 0 0,0 0.8170584409011479,0.5314375379212473 l -19.67865783711493 29.69263265975611" fill="#59ff2a" stroke="none" /><path d="M 111.60114157652 82.49532879139004 l 12.609220068074642 -19.0257355306634 a43.82479010216488,43.82479010216488 0 0,0 0.6252238753917737,0.42215395160376684 l -12.934848637872957 18.805869666760962" fill="#ebff1a" stroke="none" /><path d="M 111.90073688211348 82.69761687909136 l 3.382060094086177 -4.917149254326098 a26.967971788583615,26.967971788583615 0 0,0 0.3802084131041048,0.26636029089842 l -3.4661996467739327 4.858204120663743" fill="#ff3204" stroke="none" /><path d="M 112.19680574252982 82.90503203632743 l 11.884741982965158 -16.657581316299883 a41.46270039146343,41.46270039146343 0 0,0 0.5774267107668133,0.4195250621783383 l -12.16971401008576 16.45053701930487" fill="#fff617" stroke="none" /><path d="M 112.48926042617603 83.11751280151076 l 1.5478250447297386 -2.092288543233757 a23.60258212497509,23.60258212497509 0 0,0 0.324539827134295,0.2444366693813289 l -1.5836110256224165 2.0653352843465806" fill="#ff0000" stroke="none" /><path d="M 112.77801427241765 83.33499621200491 l 20.64520670675802 -26.92534541260676 a54.9293204404826,54.9293204404826 0 0,0 0.7453841948930096,0.581784187202182 l -21.105623456810463 26.56598283618135" fill="#6bff28" stroke="none" /><path d="M 113.06298171725822 83.55741782278167 l 15.763138289525829 -19.841312060780073 a46.34076149266182,46.34076149266182 0 0,0 0.6202966935009874,0.5015701207342497 l -16.102338381591306 19.567035842781692" fill="#ccff1d" stroke="none" /><path d="M 113.34407831869373 83.78471172551755 l 21.988208979331752 -26.719353613201115 a55.603543050185614,55.603543050185614 0 0,0 0.7338144226061044,0.6145484755595724 l -22.444880938896976 26.336903980247723" fill="#64ff29" stroke="none" /><path d="M 113.6212207817346 84.01681056812373 l 19.325407580024375 -22.67650272682918 a50.79421343237567,50.79421343237567 0 0,0 0.6605816514876964,0.5728498986904436 l -19.71288303015884 22.340487834719067" fill="#99ff23" stroke="none" /><path d="M 113.89432698308785 84.25364557470407 l 15.262199035696836 -17.296555322040017 a44.06741306288194,44.06741306288194 0 0,0 0.5644595199516277,0.5067773302694666 l -15.557669543244455 17.031278983001254" fill="#e8ff1a" stroke="none" /><path d="M 114.16331599549186 84.49514656593476 l 15.171679610380957 -16.608728406711204 a43.49510438935425,43.49510438935425 0 0,0 0.5484362255152934,0.509711700877374 l -15.455323719691098 16.34511211975919" fill="#efff19" stroke="none" /><path d="M 114.42810811169701 84.74124197986012 l 17.290601177445666 -18.28604951854339 a46.16633656438907,46.16633656438907 0 0,0 0.5727192502881931,0.5509554650123745 l -17.602803671346276 17.985710966768714" fill="#ceff1d" stroke="none" /><path d="M 115.4437574822437 85.77008943001954 l 27.941780167755603 -25.745614913363088 a58.99447020568078,58.99447020568078 0 0,0 0.6816849220902977,0.752733517053419 l -28.380808730461936 25.260828609040118" fill="#41ff2d" stroke="none" /><path d="M 115.68641384162765 86.03803664274999 l 20.96447949648864 -18.659796782680182 a49.065947632845294,49.065947632845294 0 0,0 0.556099750375257,0.6357181462408572 l -21.282571110441747 18.296163080236376" fill="#acff20" stroke="none" /><path d="M 115.9244219780498 86.31012108654704 l 22.332009737967425 -19.19834262293688 a50.44987297772856,50.44987297772856 0 0,0 0.5604485674584361,0.6633943292927675 l -22.65916891891298 18.811089344015006" fill="#9dff22" stroke="none" /><path d="M 116.15771136456269 86.58626213691792 l 11.841894606863056 -9.830852060341 a36.390780360734254,36.390780360734254 0 0,0 0.3959689612830468,0.4854111266360138 l -12.009362060222513 9.625556764096885" fill="#ffb510" stroke="none" /><path d="M 116.38621287248628 86.86637796730983 l 24.34639463888411 -19.513742896793058 a52.20149185142317,52.20149185142317 0 0,0 0.5559357447370585,0.70598193965727 l -24.67868446421513 19.09176856318275" fill="#89ff24" stroke="none" /><path d="M 116.60985879189232 87.15038557335679 l 30.4814086967385 -23.58083556527312 a59.537930433458094,59.537930433458094 0 0,0 0.6201132311933457,0.8159963233945321 l -30.88279786815596 23.052654465997556" fill="#3bff2e" stroke="none" /><path d="M 116.82858285166822 87.43820079747576 l 21.783636098326213 -16.260529182996926 a48.18329654356505,48.18329654356505 0 0,0 0.4904081868429909,0.6689162157220342 l -22.06030689768283 15.8831505236034" fill="#b7ff1f" stroke="none" /><path d="M 117.04232023915458 87.72973835380427 l 20.55150969105383 -14.796835031546582 a46.32411652027142,46.32411652027142 0 0,0 0.46034564364357666,0.6511262663012528 l -20.80316795450129 14.440882264913537" fill="#ccff1d" stroke="none" /><path d="M 117.45458315368197 88.32363383020206 l 31.304465917184146 -20.941342659443357 a58.66310421009354,58.66310421009354 0 0,0 0.5542360597919638,0.8441395430135967 l -31.660298612334035 20.399385052452086" fill="#44ff2d" stroke="none" /><path d="M 117.65298651832404 88.62581576622439 l 12.75256714749353 -8.216742704619515 a36.17045910726664,36.17045910726664 0 0,0 0.33272069193514575,0.5262842315944016 l -12.89211543567463 7.996010825310908" fill="#ffb210" stroke="none" /><line stroke="#e1ed5e" stroke-width="0.3" x1="172.23445277983987" x2="176.4835382374775" y1="55.19839476539836" y2="52.563006222186495" /><path d="M 173.08426987136738 54.67131705675599 a86.0,86.0 0 0,1 12.851231095245387,41.99856678651699" fill="none" id="id99" stroke="none" /><text fill="#e1ed5e" style="font-size:6.75px; font-family:Arial;" text-anchor="middle"><textPath startOffset="22.20632615414155" xlink:href="#id99">March</textPath></text><path d="M 117.84615892207809 88.93136811851018 l 41.08757027637449 -25.483533587241816 a69.34872196147582,69.34872196147582 0 0,0 0.6204537745524997,1.0198628680288357 l -41.520139849213216 24.772502946005897" fill="#3aff96" stroke="none" /><path d="M 118.03404312379186 89.2402003453031 l 28.68609428408369 -17.11522065538833 a54.40393365096348,54.40393365096348 0 0,0 0.4729005599400756,0.8083403499063483 l -28.976454518494094 16.61890089312809" fill="#71ff27" stroke="none" /><path d="M 118.21658344932153 89.55222093294921 l 4.110867002733178 -2.3577105080143426 a25.73899001410234,25.73899001410234 0 0,0 0.21711740008802868,0.3862276281460628 l -4.15084204411364 2.286599369933486" fill="#ff2003" stroke="none" /><path d="M 118.3937258080291 89.86733742301442 l 29.91236298528934 -16.47800365045926 a55.15075495019483,55.15075495019483 0 0,0 0.45090180699693383,0.8354525682489768 l -30.19157289150474 15.960670098877825" fill="#69ff28" stroke="none" /><path d="M 118.56541770881063 90.18545643968196 l 31.559000686534475 -16.683556051157794 a56.69750084872619,56.69750084872619 0 0,0 0.44869475259307573,0.8667354453384932 l -31.841504872287665 16.137847883558955" fill="#59ff2a" stroke="none" /><path d="M 118.73160827565052 90.50648371742162 l 26.759530878747732 -13.562211977376425 a51.00010144266092,51.00010144266092 0 0,0 0.39012645881542485,0.7864711351326958 l -26.989017350516566 13.09958125374478" fill="#96ff23" stroke="none" /><path d="M 119.04729006885535 91.15688171328212 l 55.80420175503688 -25.90831321577687 a82.52519506026502,82.52519506026502 0 0,0 0.5870987111500684,1.2935941871359506 l -56.241902783150294 24.943897019798857" fill="#4be0ff" stroke="none" /><path d="M 119.196687751892 91.48605970444005 l 6.202607963553831 -2.750924251151462 a27.785273007412055,27.785273007412055 0 0,0 0.19014294574869095,0.4388761344977788 l -6.249041619145203 2.6437489720670806" fill="#ff3e05" stroke="none" /><path d="M 119.34039704204932 91.81776055985345 l 28.973673705475726 -12.257738825291476 a52.459909871142884,52.459909871142884 0 0,0 0.3446823747677341,0.8346757104607915 l -29.18037776712966 11.757188544377382" fill="#86ff25" stroke="none" /><path d="M 119.47837535516314 92.15188598940014 l 34.88674582818832 -14.056365262817762 a58.61205177708821,58.61205177708821 0 0,0 0.36899482379041926,0.939051578357197 l -35.12353420186044 13.45376467956478" fill="#45ff2d" stroke="none" /><path d="M 119.61058180528143 92.48833698450437 l 20.662592319108494 -7.914626504651224 a43.126545913309855,43.126545913309855 0 0,0 0.25957131034363573,0.6955220609847719 l -20.795768217953757 7.55778130663712" fill="#f3ff19" stroke="none" /><path d="M 119.7369772167798 92.82701384747503 l 38.84727993887929 -14.118220738885038 a62.3332229021829,62.3332229021829 0 0,0 0.35781323733588427,1.0115862055972782 l -39.08454625702498 13.447436906861144" fill="#31ff43" stroke="none" /><path d="M 120.08093135843002 93.85539295169968 l 6.502657658734318 -1.9897620966554017 a27.800272775998224,27.800272775998224 0 0,0 0.136081147621843,0.45879798021864066 l -6.535944703467863 1.8775347296902312" fill="#ff3e05" stroke="none" /><path d="M 120.18372546131832 94.20196356495316 l 6.458074548087627 -1.8551655194588172 a27.71925337915204,27.71925337915204 0 0,0 0.12779002081547436,0.4597286966487942 l -6.489051339469464 1.7437255193910712" fill="#ff3d05" stroke="none" /><path d="M 120.28053869075195 94.5502522615342 l 32.247358642772 -8.66544880857039 a54.39134831793284,54.39134831793284 0 0,0 0.2351873305613497,0.906272723602963 l -32.39174230520366 8.109079659418576" fill="#71ff27" stroke="none" /><path d="M 120.37134235888165 94.90015583598534 l 32.63575926736987 -8.170167851767443 a54.64289561978536,54.64289561978536 0 0,0 0.2205678689204543,0.914396214556482 l -32.77155993655115 7.6071864055515555" fill="#6eff28" stroke="none" /><path d="M 120.45610955862082 95.25157060432595 l 27.388281477089606 -6.357578428592248 a49.116485657777204,49.116485657777204 0 0,0 0.1840830053333802,0.825208017859519 l -27.493658869425026 5.885192241182765" fill="#acff21" stroke="none" /><path d="M 120.53481517161879 95.60439243477599 l 52.179739811633766 -11.169404601432179 a74.3617920047696,74.3617920047696 0 0,0 0.25715265201947246,1.2539676571524707 l -52.36427175956824 10.269561288116297" fill="#41ffcc" stroke="none" /><path d="M 120.6074358757038 95.95851677861258 l 36.501705588684295 -7.1586310678573515 a58.197049743879944,58.197049743879944 0 0,0 0.18433022068076588,0.9846994095715376 l -36.61952153327492 6.5292535808232515" fill="#49ff2c" stroke="none" /><path d="M 120.67395015179393 96.31383870115 l 17.725585936987578 -3.1604685316847205 a39.005136993350014,39.005136993350014 0 0,0 0.11216417210367106,0.6619992930055998 l -17.777361970611473 2.854883450363283" fill="#ffd714" stroke="none" /><path d="M 120.73433829027371 96.67025291283417 l 35.37261327655619 -5.680521576051777 a56.82583000278973,56.82583000278973 0 0,0 0.14678411324150265,0.9671239086692237 l -35.46515328323699 5.07079855499047" fill="#57ff2a" stroke="none" /><path d="M 120.78858239683441 97.02765380044208 l 27.831932318718295 -3.979402571793087 a49.11498001817019,49.11498001817019 0 0,0 0.11245927359371677,0.8379522128748047 l -27.896307591369848 3.499732016853618" fill="#acff21" stroke="none" /><path d="M 120.83666639777658 97.38593545837742 l 8.14569604422837 -1.0219185156376465 a29.209548190830038,29.209548190830038 0 0,0 0.05829342160011167,0.4994224370771188 l -8.16207981883207 0.881552340235675" fill="#ff5207" stroke="none" /><path d="M 120.87857604477298 97.74499172005257 l 25.883214554019577 -2.7955384986890555 a47.03374408622516,47.03374408622516 0 0,0 0.08000859660411627,0.8056756490667032 l -25.927500276305924 2.3495873189179175" fill="#c4ff1e" stroke="none" /><path d="M 120.91429891909075 98.10471618934814 l 30.7141416258603 -2.783359633844819 a51.83999978379898,51.83999978379898 0 0,0 0.07288584535304503,0.8893919263835738 l -30.75750195503284 2.2542537902534767" fill="#8dff24" stroke="none" /><path d="M 120.94382443527127 98.46500227214037 l 25.11043083723702 -1.8403732517840914 a46.177782081381714,46.177782081381714 0 0,0 0.05127802794593871,0.7932483961312886 l -25.138389456187372 1.4078657913997674" fill="#ceff1d" stroke="none" /><path d="M 120.96714384426684 98.82574320788733 l 15.432026200664627 -0.8642646665080258 a36.45620865774572,36.45620865774572 0 0,0 0.029696866077180757,0.6268539067117341 l -15.444616674975304 0.5984996531732919" fill="#ffb610" stroke="none" /><path d="M 120.98425023603335 99.18683210126433 l 15.321600854550042 -0.5937326248029057 a36.33310050759154,36.33310050759154 0 0,0 0.018838376176210196,0.6251539928571782 l -15.329550925181897 0.32990848452072846" fill="#ffb410" stroke="none" /><line stroke="#e1ed5e" stroke-width="0.3" x1="184.98032266829074" x2="189.97916517819016" y1="98.17113171792111" y2="98.06355123074" /><path d="M 185.9800911702706 98.14961562048488 a86.0,86.0 0 0,1 -9.607161424134198,41.387399972396054" fill="none" id="id100" stroke="none" /><text fill="#e1ed5e" style="font-size:6.75px; font-family:Arial;" text-anchor="middle"><textPath startOffset="21.466115282336823" xlink:href="#id100">April</textPath></text><path d="M 120.99513854157772 99.54816195383933 l 39.78185528343158 -0.8561484711479973 a60.79106683662229,60.79106683662229 0 0,0 0.013510070296809258,1.0463698331077145 l -39.79069836084611 0.17124237997982011" fill="#2fff30" stroke="none" /><path d="M 120.99980553446 99.90962569577887 l 28.160622331388737 -0.1211914389138994 a49.16088310859544,49.16088310859544 0 0,0 -0.0036418913858317836,0.8462472993758966 l -28.1585361427134 -0.3635653386656819" fill="#abff21" stroke="none" /><path d="M 120.99824983174949 100.27111621757518 l 15.233080792899832 0.1966799747445483 a36.23435044416004,36.23435044416004 0 0,0 -0.013420405066864241,0.6235934889880674 l -15.227438325147961 -0.45886327952273054" fill="#ffb310" stroke="none" /><path d="M 120.9904718944345 100.63252640178507 l 38.6831007954734 1.1656756779506967 a59.70066003234209,59.70066003234209 0 0,0 -0.03979437656324799,1.0269160367601669 l -38.657304286058945 -1.8313689617248696" fill="#3aff2e" stroke="none" /><path d="M 120.9764740272857 100.99374915477107 l 27.74367937363037 1.3143418618363527 a48.774795043646655,48.774795043646655 0 0,0 -0.04694840916880707,0.8382953838664232 l -27.716944613574036 -1.7917089620381994" fill="#b0ff20" stroke="none" /><path d="M 120.95626037817324 101.35467743843564 l 4.621046469009758 0.2987187256009791 a25.630691454391258,25.630691454391258 0 0,0 -0.03225005104940805,0.4400263237843197 l -4.615219859296012 -0.37821818588206907" fill="#ff1e03" stroke="none" /><path d="M 120.92983693683757 101.71520430193887 l 34.9741902475292 2.866141850527697 a56.09143417670063,56.09143417670063 0 0,0 -0.08714312787679583,0.961617154600715 l -34.91967252337533 -3.467740393676982" fill="#5fff29" stroke="none" /><path d="M 120.89721153311464 102.0752229133903 l 32.85534698371321 3.2627400445244117 a54.0169547053985,54.0169547053985 0 0,0 -0.09984827912311885,0.924471057223945 l -32.79431640308904 -3.827807423633148" fill="#75ff27" stroke="none" /><path d="M 120.8583938346157 102.4346265915055 l 9.06876193532222 1.0585210507976406 a30.13032912082204,30.13032912082204 0 0,0 -0.06456282553965396,0.514629243481731 l -9.049197600535718 -1.2144680485667665" fill="#ff5f08" stroke="none" /><path d="M 120.81339534386255 102.79330883721812 l 13.299419246519577 1.7848786657543794 a34.41865657009525,34.41865657009525 0 0,0 -0.0838601536258387,0.5865177191409437 l -13.266725041877136 -2.0135418568757326" fill="#ff9a0e" stroke="none" /><path d="M 120.76222939487914 103.15116336523771 l 21.67488055290278 3.2896799397205565 a42.92310290739892,42.92310290739892 0 0,0 -0.11715604552485649,0.7295308073174599 l -21.61504275301664 -3.662289976731221" fill="#f6ff19" stroke="none" /><path d="M 120.70491114924044 103.5080841355445 l 62.114733447721314 10.524252406633499 a84.0,84.0 0 0,0 -0.25381423064324515,1.4235249970671267 l -61.924372774738885 -11.591896154433844" fill="#4dd2ff" stroke="none" /><path d="M 120.64145759157962 103.86396538481128 l 4.0857855921920665 0.764836205386533 a25.156755745342075,25.156755745342075 0 0,0 -0.08334081825325214,0.4249530367697481 l -4.07201484096315 -0.8350529692242261" fill="#ff1702" stroke="none" /><path d="M 120.5718875245553 104.21870165774334 l 8.837726416394455 1.8123631601146104 a30.021644441850775,30.021644441850775 0 0,0 -0.10817221836979139,0.505344591837887 l -8.80522015930022 -1.9642215713686666" fill="#ff5e08" stroke="none" /><path d="M 120.49622156327973 104.57218783832717 l 19.65244505868015 4.383962673962819 a41.13548423830778,41.13548423830778 0 0,0 -0.16011386675294964,0.6897663474024888 l -19.57407062599665 -4.721597678713873" fill="#fff216" stroke="none" /><path d="M 120.41448212921028 104.9243191809786 l 8.690249656360175 2.096235544916198 a29.939499009991458,29.939499009991458 0 0,0 -0.12515948898816556,0.4999499431044395 l -8.652878853076949 -2.2455133274180334" fill="#ff5c08" stroke="none" /><path d="M 120.32669344350535 105.2749913415812 l 32.03185921738148 8.312605318521344 a54.09289065801983,54.09289065801983 0 0,0 -0.2416456251839404,0.8992532656884956 l -31.884025515855765 -8.862749517385387" fill="#74ff27" stroke="none" /><path d="M 120.23288151984713 105.62410040840565 l 54.6958032900118 15.203701426298629 a77.76956433336177,77.76956433336177 0 0,0 -0.36961786412522335,1.2866882743281922 l -54.42599278900048 -16.142947176131404" fill="#45fff0" stroke="none" /><path d="M 120.13307415673323 105.97154293290107 l 26.850064665624096 7.963826718848211 a49.006222675613294,49.006222675613294 0 0,0 -0.2468355399848935,0.806672826479394 l -26.70900235313307 -8.424826517879662" fill="#adff20" stroke="none" /><path d="M 120.02730092923936 106.31721596034902 l 18.628704336427283 5.876056327834436 a40.53347545169338,40.53347545169338 0 0,0 -0.2156144429141371,0.663593021334058 l -18.5247976424969 -6.195848249146289" fill="#ffea16" stroke="none" /><path d="M 119.9155931802556 106.66101706037122 l 22.556898087970843 7.544434234677435 a44.78512432745466,44.78512432745466 0 0,0 -0.25081625039314487,0.7289894281268305 l -22.423691006634467 -7.931596365893565" fill="#dfff1b" stroke="none" /><path d="M 119.79798401119884 107.00284435728193 l 23.935822047031696 8.466459830664864 a46.389062982540935,46.389062982540935 0 0,0 -0.27275827776401534,0.7505136353876007 l -23.786539508262454 -8.877221263058596" fill="#ccff1d" stroke="none" /><path d="M 119.67450827220406 107.3425965602758 l 18.848185616521363 7.034210002129094 a41.1180071425799,41.1180071425799 0 0,0 -0.25318064453574424,0.6609747709581637 l -18.724310692392113 -7.357608339920402" fill="#fff216" stroke="none" /><path d="M 119.54520255179757 107.68017299344265 l 6.4525509760814295 2.535492155375738 a27.932830199053004,27.932830199053004 0 0,0 -0.1796977302992486,0.44599502969913435 l -6.4079506315247885 -2.646186552917686" fill="#ff4006" stroke="none" /><path d="M 119.41010516605496 108.01547362559984 l 6.752012004347388 2.7882679499968828 a28.305073871483508,28.305073871483508 0 0,0 -0.18984485152750788,0.4487371497484728 l -6.703016171627572 -2.904079625411519" fill="#ff4506" stroke="none" /><path d="M 119.26925614724726 108.34839909993367 l 4.1512157006423385 1.7985128825963448 a25.524073428020866,25.524073428020866 0 0,0 -0.1781324054690514,0.40164154875106106 l -4.119642210442014 -1.8697027678400935" fill="#ff1d02" stroke="none" /><path d="M 119.12269723197855 108.67885076344098 l 4.205456139693827 1.908649485260035 a25.618311834477172,25.618311834477172 0 0,0 -0.1857027302342843,0.39998716003420537 l -4.171978792619711 -1.980756712573071" fill="#ff1e03" stroke="none" /><path d="M 118.81262510543309 109.33194174019688 l 13.6219911736695 6.757144593363937 a36.20584251500578,36.20584251500578 0 0,0 -0.28175271168148086,0.5559248300342449 l -13.50365979220175 -6.990623635100876" fill="#ffb210" stroke="none" /><path d="M 118.64920377521936 109.65438752849418 l 24.69651560314819 12.784981874299424 a48.809596265726455,48.809596265726455 0 0,0 -0.3926789935071481,0.7428006707730507 l -24.472784101416146 -13.20819756015861" fill="#afff20" stroke="none" /><line stroke="#e1ed5e" stroke-width="0.3" x1="174.80103733775053" x2="179.2010983576182" y1="140.37084112569926" y2="142.7455964860345" /><path d="M 175.68104954172406 140.8457921977663 a86.0,86.0 0 0,1 -30.038265399797805,32.042727171017184" fill="none" id="id101" stroke="none" /><text fill="#e1ed5e" style="font-size:6.75px; font-family:Arial;" text-anchor="middle"><textPath startOffset="22.206326154141568" xlink:href="#id101">May</textPath></text><path d="M 118.48025628344425 109.97397251340804 l 28.70812375393902 15.494051210199942 a53.62241548959513,53.62241548959513 0 0,0 -0.4453816306465796,0.8084970294632388 l -28.43716571384093 -15.985918758060986" fill="#79ff26" stroke="none" /><path d="M 118.30583269289576 110.29060199501025 l 30.147148947985933 16.947183791776478 a55.584066102242815,55.584066102242815 0 0,0 -0.4760325397248836,0.8300028579125193 l -29.85096441210867 -17.463606495547314" fill="#64ff29" stroke="none" /><path d="M 118.12598468904814 110.60418214915192 l 24.775375848142666 14.494252467626948 a49.70370364625514,49.70370364625514 0 0,0 -0.4383845935197242,0.7347577945737647 l -24.522210378924715 -14.918572356086818" fill="#a5ff21" stroke="none" /><path d="M 117.94076556474637 110.91462005526583 l 12.888680546121622 7.841084075645035 a36.08644045828267,36.08644045828267 0 0,0 -0.3274163302771186,0.5278993760358598 l -12.751799576176541 -8.061779783046168" fill="#ffb110" stroke="none" /><path d="M 117.75023020441432 111.22182372390056 l 5.796608104763705 3.6646575057947444 a27.857869942991776,27.857869942991776 0 0,0 -0.2597350215005923,0.403114521327266 l -5.732668219886063 -3.7638936270434633" fill="#ff3f05" stroke="none" /><path d="M 117.55443506779139 111.5257021239791 l 23.640502283906496 15.521626662055562 a49.28063369996546,49.28063369996546 0 0,0 -0.47167877795642027,0.7050957748278537 l -23.369820400539353 -15.926259351089223" fill="#aaff21" stroke="none" /><path d="M 117.35343817320211 111.8261652097733 l 26.625814024637616 18.145180935171442 a53.22082499944249,53.22082499944249 0 0,0 -0.5224234564508466,0.752589953199998 l -26.309529661024634 -18.60081215055846" fill="#7eff26" stroke="none" /><path d="M 117.14729908036423 112.12312394758627 l 8.12484734860272 5.74425925626511 a30.950359734265092,30.950359734265092 0 0,0 -0.3113019718629169,0.4323712116777065 l -8.024765584364202 -5.883264073393947" fill="#ff6b09" stroke="none" /><path d="M 116.93607887273984 112.41649034213515 l 22.790553632119384 16.70863079886828 a49.259293657687195,49.259293657687195 0 0,0 -0.5072270125729889,0.6795134731952603 l -22.499565352851302 -17.098457151572855" fill="#aaff21" stroke="none" /><path d="M 116.71984013943494 112.70617746262583 l 30.466548129694438 23.152934715954252 a59.26576721954268,59.26576721954268 0 0,0 -0.6242468419668434,0.8069231925632704 l -30.063494470509525 -23.673935902630777" fill="#3eff2d" stroke="none" /><path d="M 116.498646956653 112.99209946851258 l 15.962042105464963 12.569542175163733 a41.31699236279465,41.31699236279465 0 0,0 -0.444811042904489,0.5549701688478273 l -15.74331315050562 -12.84244017758981" fill="#fff417" stroke="none" /><path d="M 116.27256486870786 113.27417163493432 l 11.866982723694376 9.680364880034304 a36.31452719397704,36.31452719397704 0 0,0 -0.3992937900506665,0.48097509248764625 l -11.698592933750167 -9.88320122963572" fill="#ffb410" stroke="none" /><path d="M 116.0416608686014 113.55231037782055 l 21.97971609944305 18.56889614086462 a49.773456929995966,49.773456929995966 0 0,0 -0.5585470452433229,0.6497163999242496 l -21.656826544628945 -18.944489639950397" fill="#a4ff21" stroke="none" /><path d="M 115.80600337817218 113.82643327865902 l 5.673061743079727 4.962558073644774 a28.53728148440084,28.53728148440084 0 0,0 -0.32660395523190827,0.36694300600780644 l -5.586798938199481 -5.059475249393447" fill="#ff4806" stroke="none" /><path d="M 115.32070863581623 114.36230785411682 l 21.35928889843033 20.023139268318353 a50.27704439326281,50.27704439326281 0 0,0 -0.5973234853403827,0.6262912863115673 l -21.01145886171098 -20.387837671212427" fill="#9fff22" stroke="none" /><path d="M 115.07121518719521 114.62390073753431 l 20.672099388224698 20.058550404527935 a49.80418610979362,49.80418610979362 0 0,0 -0.6022971416219507,0.6101238245857404 l -20.323761621547213 -20.41141472309434" fill="#a4ff21" stroke="none" /><path d="M 114.81725581225074 114.88116024355365 l 4.266262911496272 4.284662614423886 a27.046431422703012,27.046431422703012 0 0,0 -0.332735564100959,0.32565178102581765 l -4.191877395019518 -4.357464498372276" fill="#ff3304" stroke="none" /><path d="M 114.55890576462653 115.13401014063108 l 23.00359190524564 23.912277391806924 a54.180751206170775,54.180751206170775 0 0,0 -0.6776829432213376,0.6407915216523552 l -22.588573127633495 -24.3047035502052" fill="#73ff27" stroke="none" /><path d="M 114.29624159901734 115.38237550388516 l 22.664510419490856 24.386410055373553 a54.292296825903044,54.292296825903044 0 0,0 -0.6900304039672511,0.6303264135611173 l -22.241380466056743 -24.77292923552125" fill="#72ff27" stroke="none" /><path d="M 114.0293411484842 115.62618273729858 l 14.620987363777623 16.285171051728792 a42.885613257932945,42.885613257932945 0 0,0 -0.5535463535168262,0.4884402972476704 l -14.33849865735421 -16.53443449074875" fill="#f6ff19" stroke="none" /><path d="M 113.48314897796784 116.09983520530334 l 2.76263818805651 3.298785738573905 a25.302808049068275,25.302808049068275 0 0,0 -0.33632235991403725,0.27677040549956466 l -2.705445699597781 -3.3458512629306476" fill="#ff1902" stroke="none" /><path d="M 113.20401910651253 116.32954008644616 l 33.68147900540033 41.65421582268122 a74.56786092232664,74.56786092232664 0 0,0 -1.0050416341980566,0.7984658584101766 l -32.95947987848492 -42.22781559509653" fill="#41ffcf" stroke="none" /><path d="M 112.92097659922987 116.55440617244103 l 2.7444945683579642 3.516257263817343 a25.460528621261677,25.460528621261677 0 0,0 -0.34780448660995866,0.2666816491883698 l -2.683561353254512 -3.562978254833084" fill="#ff1c02" stroke="none" /><path d="M 112.63410532772338 116.77436683061366 l 10.659309279181212 14.152419927796307 a38.71755807446175,38.71755807446175 0 0,0 -0.5358049659586027,0.39637570452854765 l -10.414119342804046 -14.333805581064624" fill="#ffd313" stroke="none" /><path d="M 112.34349029814194 116.9893568818739 l 10.487404224739317 14.434673567604195 a38.84223776257819,38.84223776257819 0 0,0 -0.5442956713677546,0.3883405095744974 l -10.237381225522677 -14.613058339022912" fill="#ffd513" stroke="none" /><path d="M 112.04921762599082 117.19931262002967 l 2.6437162467546003 3.7736974812789823 a25.60760548154522,25.60760548154522 0 0,0 -0.36319280923674097,0.2498073259618782 l -2.5783665528949764 -3.8186455966059545" fill="#ff1e03" stroke="none" /><path d="M 111.45004920935366 117.60387380957326 l 27.60489195258828 42.4411306514987 a71.6288418857439,71.6288418857439 0 0,0 -1.0393624581375822,0.6633702965160946 l -26.870247692403765 -42.91001537683861" fill="#3dffaf" stroke="none" /><path d="M 111.1453310114006 117.79835938074945 l 4.07807505470714 6.512417202423301 a28.683897056197694,28.683897056197694 0 0,0 -0.4207255676337766,0.2584440066352446 l -3.9653702871410546 -6.581649675886924" fill="#ff4a06" stroke="none" /><line stroke="#e1ed5e" stroke-width="0.3" x1="143.8653032363475" x2="146.44561519142675" y1="172.8068346515853" y2="177.08958963109032" /><path d="M 144.38136562736335 173.6633856474863 a86.0,86.0 0 0,1 -40.68145358897372,12.25698825130547" fill="none" id="id102" stroke="none" /><text fill="#e1ed5e" style="font-size:6.75px; font-family:Arial;" text-anchor="middle"><textPath startOffset="21.466115282336833" xlink:href="#id102">June</textPath></text><path d="M 110.8373102113329 117.98757091392108 l 11.405624418709229 18.93084852683653 a43.10125096746076,43.10125096746076 0 0,0 -0.6387854333306103,0.3774056935153378 l -11.078071114350237 -19.12437279264562" fill="#f3ff19" stroke="none" /><path d="M 110.5260780823613 118.17145234162733 l 9.903043634681271 17.095891179661304 a40.75701820764516,40.75701820764516 0 0,0 -0.6100961395327807,0.3464285105578737 l -9.60729872822729 -17.263822856013803" fill="#ffed16" stroke="none" /><path d="M 110.21172684928248 118.3499491758327 l 2.3460232946464448 4.2156834840433115 a25.82450127336073,25.82450127336073 0 0,0 -0.3902908380492252,0.21281768376175167 l -2.273109644728571 -4.255441819564834" fill="#ff2103" stroke="none" /><path d="M 109.89434966115114 118.52300852407294 l 13.945641405225416 26.107348483639655 a50.598556705510816,50.598556705510816 0 0,0 -0.771770382466862,0.4037537879857688 l -13.494180120232057 -26.34353169057014" fill="#9bff22" stroke="none" /><path d="M 109.57404056367764 118.69057910512821 l 13.517934591372875 26.3899055093361 a50.650660505430956,50.650660505430956 0 0,0 -0.7794077626484357,0.39081123243166277 l -13.061672921041678 -26.618684582677062" fill="#9aff22" stroke="none" /><path d="M 109.2508944713604 118.85261126421891 l 12.408646644052604 25.28786726728024 a49.16825771084434,49.16825771084434 0 0,0 -0.763014872593526,0.3662935071823394 l -11.971519103458846 -25.49771505096214" fill="#abff21" stroke="none" /><path d="M 108.92500713936063 119.00905698771935 l 12.164960528714 25.90971909970336 a49.62341364147021,49.62341364147021 0 0,0 -0.7763275971664089,0.356373923394961 l -11.717164935780172 -26.115280093432396" fill="#a6ff21" stroke="none" /><path d="M 108.59647513512805 119.15986991738527 l 2.0016930882478303 4.461384297924379 a25.88985941242745,25.88985941242745 0 0,0 -0.4081712946415278,0.1789303005222109 l -1.9246011189485486 -4.495179151741045" fill="#ff2203" stroke="none" /><path d="M 108.2653958097858 119.30500536409082 l 10.924410300854841 25.51551121216022 a48.755793140159,48.755793140159 0 0,0 -0.7743546917657584,0.3236803239601121 l -10.483584149591623 -25.699776579140305" fill="#b0ff20" stroke="none" /><path d="M 107.93186726928326 119.44442032107085 l 10.586274757583888 25.951515454368405 a49.027671462705925,49.027671462705925 0 0,0 -0.784160073098408,0.3120334763053891 l -10.137993608443615 -26.129895775079863" fill="#adff20" stroke="none" /><path d="M 107.59598834532513 119.57807347666477 l 5.526402844376023 14.243876639888644 a36.278388335511465,36.278388335511465 0 0,0 -0.584133497098072,0.22086930628601578 l -5.280399126517676 -14.33689419628129" fill="#ffb310" stroke="none" /><path d="M 107.2578585660854 119.70592522655815 l 11.38570064292296 30.913493763826363 a53.94356197827411,53.94356197827411 0 0,0 -0.8740923319602022,0.31341841152535893 l -10.851888750333023 -31.10489971639168" fill="#76ff27" stroke="none" /><path d="M 106.91757812671514 119.82793768551818 l 1.4931649953382233 4.279876849879851 a25.53286747583038,25.53286747583038 0 0,0 -0.4162225400894955,0.14120528402709528 l -1.419272722311501 -4.304945120805069" fill="#ff1d02" stroke="none" /><path d="M 106.57524785965236 119.94407469862006 l 1.8024026292024258 5.467056670880072 a26.756506221691254,26.756506221691254 0 0,0 -0.43865209390808335,0.14044254829280367 l -1.708029190203402 -5.497272065832582" fill="#ff2f04" stroke="none" /><path d="M 106.2309692047433 120.05430185196036 l 8.40050949340162 27.036942015808744 a49.31191963316749,49.31191963316749 0 0,0 -0.8127661639728877,0.2448797779825236 l -7.933868354988487 -27.177537162896993" fill="#aaff21" stroke="none" /><path d="M 105.88484417918355 120.15858648285463 l 8.40362628497889 28.78669716261547 a50.98824550169152,50.98824550169152 0 0,0 -0.8446295906223343,0.23870075908681535 l -7.906865526251949 -28.927086715040808" fill="#96ff23" stroke="none" /><path d="M 105.53697534728816 120.25689768951611 l 7.450240110989478 27.256533075329376 a49.25640941446596,49.25640941446596 0 0,0 -0.8197898020545518,0.21651393767617128 l -6.979959866123429 -27.38073836230913" fill="#aaff21" stroke="none" /><path d="M 104.83641907484287 120.43548508189849 l 9.10592313956279 38.47556499877868 a60.53842356744725,60.53842356744725 0 0,0 -1.0161225950021642,0.23126619441134807 l -8.442280395167765 -38.62660792676772" fill="#31ff2f" stroke="none" /><path d="M 104.48393922423573 120.51570834832081 l 3.2583343994804683 14.908105328398195 a36.26002449347485,36.26002449347485 0 0,0 -0.610909822598633,0.12802209309048992 l -3.001233115452457 -14.961983402215226" fill="#ffb310" stroke="none" /><path d="M 104.13013068566511 120.58985236759428 l 2.0438813392946473 10.18931802303991 a31.39228813610183,31.39228813610183 0 0,0 -0.5307275686196484,0.10171520166821495 l -1.8681861561032944 -10.222990423056594" fill="#ff710a" stroke="none" /><path d="M 103.41894727170886 120.7198165907248 l 4.632000050369871 28.07126985726278 a49.45086318314255,49.45086318314255 0 0,0 -0.8410511829819278,0.13135489769058956 l -4.148113003779426 -28.146843062300476" fill="#a8ff21" stroke="none" /><path d="M 103.06178313531738 120.77559828337769 l 4.16379303149204 28.253239218537626 a49.558408547203996,49.558408547203996 0 0,0 -0.8450213889064742,0.11711226465000556 l -3.6768430513987354 -28.320726048680235" fill="#a7ff21" stroke="none" /><path d="M 102.70371172650421 120.8252237178851 l 1.9888039278745344 15.31867703312686 a36.44723946563843,36.44723946563843 0 0,0 -0.6228530833189094,0.07541883430475435 l -1.7248234215042448 -15.350641396156966" fill="#ffb510" stroke="none" /><path d="M 101.98527174616119 120.90594882070398 l 0.645160252140137 6.79387456073687 a27.824438680065132,27.824438680065132 0 0,0 -0.47719665220369023,0.04117453509092875 l -0.5281192821949051 -6.803973348106462" fill="#ff3e05" stroke="none" /><path d="M 101.62511606390274 120.93702456842531 l 0.5233274029025539 6.742237637838516 a27.76251727803449,27.76251727803449 0 0,0 -0.4767713135703621,0.03288094119523593 l -0.40719332855326146 -6.750246923550036" fill="#ff3d05" stroke="none" /><path d="M 101.26447882468166 120.96189622390904 l 0.415960972282217 6.895592527119826 a27.90812708558063,27.90812708558063 0 0,0 -0.4797698507679787,0.02479862115818866 l -0.29720305310075873 -6.9017309550402155" fill="#ff3f05" stroke="none" /><path d="M 100.90346689309514 120.98055641714683 l 1.2923558316886956 30.01144219561129 a51.03925508823775,51.03925508823775 0 0,0 -0.8780687680507737,0.030242463773569563 l -0.7755667119632697 -30.029241457810954" fill="#96ff23" stroke="none" /><line stroke="#e1ed5e" stroke-width="0.3" x1="102.19456741930631" x2="102.32365962044197" y1="184.97166512339345" y2="189.96999836594603" /><path d="M 102.22038585953345 185.97133177190398 a86.0,86.0 0 0,1 -42.740103519485714,-10.115201625700543" fill="none" id="id103" stroke="none" /><text fill="#e1ed5e" style="font-size:6.75px; font-family:Arial;" text-anchor="middle"><textPath startOffset="22.20632615414155" xlink:href="#id103">July</textPath></text><path d="M 100.54218724476979 120.99299961872073 l 0.6490333312759091 25.129983428137017 a46.13836333899938,46.13836333899938 0 0,0 -0.7941078263377475,0.013671286389490982 l -0.2163658150454937 -25.13743219180567" fill="#cfff1d" stroke="none" /><path d="M 100.18074693466247 120.99922214144158 l 0.2585535569391946 30.03881414512081 a51.03992685055867,51.03992685055867 0 0,0 -0.8786009832032794,0.0 l 0.25855355693917387 -30.03881414512081" fill="#96ff23" stroke="none" /><path d="M 99.81925306533755 120.99922214144158 l -0.062217029914477556 7.228389430751818 a28.228657186602224,28.228657186602224 0 0,0 -0.485855933687575,-0.008364450510592633 l 0.1866326534947205 -7.226247502962066" fill="#ff4406" stroke="none" /><path d="M 99.45781275523022 120.99299961872073 l -0.723415084575637 28.00997762520516 a49.01931790656377,49.01931790656377 0 0,0 -0.8433181873539158,-0.029045583510798258 l 1.205453623604196 -27.993375243268268" fill="#adff20" stroke="none" /><path d="M 99.09653310690486 120.98055641714683 l -1.4408347161519248 33.45945964488813 a54.490467963394686,54.490467963394686 0 0,0 -0.9367480520246674,-0.04841917437214247 l 2.0165708365900814 -33.429700663753785" fill="#70ff27" stroke="none" /><path d="M 98.73552117531835 120.96189622390904 l -1.807289494565937 29.96033946332799 a51.01480028377695,51.01480028377695 0 0,0 -0.8760874635121703,-0.06042012082041039 l 2.3227397188570373 -29.924790997991295" fill="#96ff23" stroke="none" /><path d="M 98.37488393609728 120.93702456842531 l -1.1812023950828783 15.217906040964147 a36.26367922126781,36.26367922126781 0 0,0 -0.6219319110065517,-0.053662902234647335 l 1.4429786238309719 -15.195318886450837" fill="#ffb310" stroke="none" /><path d="M 98.01472825383883 120.90594882070398 l -2.680847106675067 28.23072081525063 a49.357724502470106,49.357724502470106 0 0,0 -0.8451156588956981,-0.08759969351398254 l 3.1663953621763583 -28.18039175328089" fill="#a9ff21" stroke="none" /><path d="M 97.65516085044442 120.86867818915974 l -1.7019721009425544 15.14726844620876 a36.242586736308844,36.242586736308844 0 0,0 -0.6193557379686996,-0.07499535448819022 l 1.9624552619626434 -15.11572756299522" fill="#ffb310" stroke="none" /><path d="M 97.2962882734958 120.8252237178851 l -1.9475309064441306 15.000773354130601 a36.12666777097817,36.12666777097817 0 0,0 -0.6159965154514029,-0.0853715040685285 l 2.2054560130823644 -14.965027284569468" fill="#ffb110" stroke="none" /><path d="M 96.58105272829116 120.7198165907248 l -1.2352919349898446 7.4862290333592405 a28.587461453250473,28.587461453250473 0 0,0 -0.4848311333132515,-0.08429410712672437 l 1.363972039775146 -7.46385634771151" fill="#ff4906" stroke="none" /><path d="M 95.86986931433489 120.58985236759428 l -3.889658815757446 19.391033086368402 a40.77730036834233,40.77730036834233 0 0,0 -0.6870170023894347,-0.14397109259190444 l 4.222867279576267 -19.321206013049956" fill="#ffee16" stroke="none" /><line stroke="#e1ed5e" stroke-width="0.3" x1="58.666819895761336" x2="56.23545636021788" y1="174.27360380694188" y2="178.64263932499728" /><path d="M 58.180547188652646 175.14741091055294 a86.0,86.0 0 0,1 -31.652253787137756,-30.449443065178592" fill="none" id="id104" stroke="none" /><text fill="#e1ed5e" style="font-size:6.75px; font-family:Arial;" text-anchor="middle"><textPath startOffset="22.20632615414155" xlink:href="#id104">August</textPath></text><line stroke="#e1ed5e" stroke-width="0.3" x1="26.63291911575756" x2="22.317208475507996" y1="142.92168965132927" y2="145.44649492493687" /><path d="M 25.769776987707644 143.4266507060508 a86.0,86.0 0 0,1 -11.730757126820373,-40.83630448921669" fill="none" id="id105" stroke="none" /><text fill="#e1ed5e" style="font-size:6.75px; font-family:Arial;" text-anchor="middle"><textPath startOffset="21.46611528233685" xlink:href="#id105">September</textPath></text><line stroke="#e1ed5e" stroke-width="0.3" x1="15.007084014347285" x2="10.007500721073583" y1="101.09737516637583" y2="101.16192664675087" /><path d="M 14.007167355692545 101.11028546245083 a86.0,86.0 0 0,1 10.666146001902534,-42.60595125391555" fill="none" id="id106" stroke="none" /><text fill="#e1ed5e" style="font-size:6.75px; font-family:Arial;" text-anchor="middle"><textPath startOffset="22.20632615414155" xlink:href="#id106">October</textPath></text><line stroke="#e1ed5e" stroke-width="0.3" x1="26.266209847984243" x2="21.928928074336255" y1="57.711370442889674" y2="55.22380399835377" /><path d="M 25.398753493254645 57.213857153982495 a86.0,86.0 0 0,1 29.58750427330803,-30.492523968695096" fill="none" id="id107" stroke="none" /><text fill="#e1ed5e" style="font-size:6.75px; font-family:Arial;" text-anchor="middle"><textPath startOffset="21.46611528233685" xlink:href="#id107">November</textPath></text><line stroke="#e1ed5e" stroke-width="0.3" x1="56.762969772571076" x2="54.21961505331055" y1="26.818313649435495" y2="22.513508569990535" /><path d="M 56.25429882871897 25.957352633546506 a86.0,86.0 0 0,1 42.265352541879196,-11.944610805530505" fill="none" id="id108" stroke="none" /><text fill="#e1ed5e" style="font-size:6.75px; font-family:Arial;" text-anchor="middle"><textPath startOffset="22.20632615414155" xlink:href="#id108">December</textPath></text></svg>