<?xml version="1.0" encoding="utf-8" ?>
<svg baseProfile="full" height="200mm" version="1.1" viewBox="0,0,200,200" width="200mm" xmlns="http://www.w3.org/2000/svg" xmlns:ev="http://www.w3.org/2001/xml-events" xmlns:xlink="http://www.w3.org/1999/xlink"><defs /><rect fill="#1a1a1a" height="200" width="200" x="0" y="0" /><text alignment-baseline="middle" fill="#e1ed5e" style="dominant-baseline: central; font-size:9.0px; font-family:Arial;" text-anchor="middle" x="100.0" y="100.0">2021</text><line stroke="#e1ed5e" stroke-width="0.3" x1="100.0" x2="100.0" y1="15.0" y2="10.0" /><path d="M 100.0 14.0 a86.0,86.0 0 0,1 42.46469731375804,11.215312516191453" fill="none" id="id109" stroke="none" /><text fill="#e1ed5e" style="font-size:6.75px; font-family:Arial;" text-anchor="middle"><textPath startOffset="22.20632615414155" xlink:href="#id109">January</textPath></text><path d="M 100.0 79.0 l 0.0 -31.551107336296255 a52.551107336296255,52.551107336296255 0 0,0 0.9045809269631644,0.007786013624762788 l -0.543100447690636 31.54643269928005" fill="#85ff25" stroke="none" /><path d="M 100.36148047927253 79.00311137660856 l 0.48844590239725155 -28.371778835268454 a49.37598304335826,49.37598304335826 0 0,0 0.8496745301399774,0.021944586329475636 l -0.9767470677320967 28.359167456796616" fill="#a9ff21" stroke="none" /><path d="M 100.72285384407766 79.0124445844662 l 0.9138322973469003 -26.532481134612468 a47.548213586345895,47.548213586345895 0 0,0 0.8177368209628076,0.03521346766575473 l -1.3704099506990395 26.512819940422517" fill="#beff1e" stroke="none" /><path d="M 101.08401301168833 79.027996857942 l 0.33870726797696743 -6.552845594710603 a27.56159340415867,27.56159340415867 0 0,0 0.47358423307963243,0.028567894241805218 l -0.4514535498962118 6.546044431088494" fill="#ff3a05" stroke="none" /><path d="M 101.44485096284872 79.0497635885617 l 0.7331096390201842 -10.63003773253892 a31.65528751081009,31.65528751081009 0 0,0 0.543279817973891,0.04216896992684218 l -0.9159796463564165 10.615843500423614" fill="#ff740a" stroke="none" /><path d="M 101.80526077348638 79.07773832637324 l 0.690445770193527 -8.001994663374745 a29.031726710630537,29.031726710630537 0 0,0 0.4975137600161394,0.047244926291426424 l -0.8280846572999107 7.98892419256814" fill="#ff4f07" stroke="none" /><path d="M 102.16513564639614 79.11191278185805 l 0.7971930560623076 -7.690898310433152 a28.732104085568007,28.732104085568007 0 0,0 0.49150135551239454,0.05522590410463844 l -0.9294611150844274 7.676036452857913" fill="#ff4b06" stroke="none" /><path d="M 102.52436894288641 79.15227682838746 l 0.6577763801245394 -5.432304148846778 a26.471983016405265,26.471983016405265 0 0,0 0.451896000884368,0.058669070416856935 l -0.7511871095167535 5.420176755265784" fill="#ff2a04" stroke="none" /><path d="M 102.88285421437855 79.19881850522331 l 0.5755527295475872 -4.152890120985271 a25.192583606973955,25.192583606973955 0 0,0 0.4290309219523061,0.06322800544397522 l -0.646952631928549 4.142367631380327" fill="#ff1702" stroke="none" /><path d="M 103.2404852339499 79.25152402106235 l 4.53299496962973 -29.024275825927624 a50.37612347833211,50.37612347833211 0 0,0 0.8556043786982268,0.14118205358641708 l -5.031928554466831 28.941947509401583" fill="#9eff22" stroke="none" /><path d="M 103.59715602781102 79.31037775812273 l 3.0618278027908072 -17.610595737201866 a38.87478312352615,38.87478312352615 0 0,0 0.6582886926091671,0.1202980508988943 l -3.3645116165028752 17.55528220495223" fill="#ffd513" stroke="none" /><path d="M 103.95276090670814 79.375362276772 l 4.532917793412389 -23.65176885848207 a45.08222402223052,45.08222402223052 0 0,0 0.7608883109241228,0.15262703710579215 l -4.9393725138036375 23.570237865299067" fill="#dcff1b" stroke="none" /><path d="M 104.307194497241 79.44645832069477 l 2.9666367030987533 -14.156521411687969 a35.46402543580979,35.46402543580979 0 0,0 0.5963989815933609,0.13034971746805846 l -3.209878408845642 14.10335819612404" fill="#ffa80f" stroke="none" /><path d="M 104.66035177308747 79.52364482259891 l 1.1566762988442783 -5.08213024973568 a26.21209630912424,26.21209630912424 0 0,0 0.4390854569812843,0.10391734138532582 l -1.243985442788086 5.061466996209486" fill="#ff2603" stroke="none" /><path d="M 105.01212808612495 79.60689891045804 l 1.0066246270149128 -4.095704943128986 a25.21759316682917,25.21759316682917 0 0,0 0.4206427969094052,0.10723121493477507 l -1.0769763126093432 4.077770732025343" fill="#ff1802" stroke="none" /><path d="M 105.36241919743992 79.69619591428918 l 7.347989100120244 -27.821795652232087 a49.77577552612694,49.77577552612694 0 0,0 0.8265199043565342,0.22591911183090824 l -7.825806893700489 27.691189999574885" fill="#a4ff21" stroke="none" /><path d="M 105.71112130821622 79.79150937346287 l 6.119850058677342 -21.654754972315782 a43.502910426247716,43.502910426247716 0 0,0 0.7188540702575938,0.20985321538470716 l -6.491694346658363 21.546203428012372" fill="#efff19" stroke="none" /><path d="M 106.0581310904928 79.89281104454417 l 1.4817386777427881 -4.917952274545118 a26.13632203856246,26.13632203856246 0 0,0 0.42964955577404673,0.13349420840586737 l -1.5661736062275529 4.891717931256729" fill="#ff2503" stroke="none" /><path d="M 106.40334571778207 80.00007090966166 l 4.6179285777065715 -14.4234355240105 a36.14466099535038,36.14466099535038 0 0,0 0.5909087144727746,0.1948133126655313 l -4.865520114421763 14.341808487085732" fill="#ffb110" stroke="none" /><path d="M 106.74666289553966 80.11325718540242 l 2.6284674799178185 -7.747779543604717 a29.18149919936959,29.18149919936959 0 0,0 0.4742938488170482,0.16547181084842102 l -2.7614433327981405 7.7013868795840885" fill="#ff5107" stroke="none" /><path d="M 107.08798089147638 80.2323363322302 l 4.414190276915239 -12.310731376904817 a34.07819493795385,34.07819493795385 0 0,0 0.5504726680343555,0.20274372926700007 l -4.625445270722171 12.232924379831491" fill="#ff950d" stroke="none" /><path d="M 107.4271985657038 80.35727306442388 l 9.902796270578449 -26.18994514834025 a48.99961786970768,48.99961786970768 0 0,0 0.786366482413078,0.3050979782399724 l -10.352145917991194 26.01560446620973" fill="#adff20" stroke="none" /><path d="M 107.76421540070413 80.48803036053334 l 4.960457695342689 -12.465947292060907 a34.41663081536215,34.41663081536215 0 0,0 0.5485619756344323,0.22377220343221257 l -5.174303540565509 12.378714202445115" fill="#ff9a0e" stroke="none" /><path d="M 108.09893153111575 80.62456947434976 l 10.13543095441846 -24.247437770079006 a47.28050987035141,47.28050987035141 0 0,0 0.7481943509463376,0.320337774405406 l -10.551309063155113 24.069380467710808" fill="#c1ff1e" stroke="none" /><path d="M 108.43124777332544 80.76684994638697 l 1.0731078943637675 -2.4479466991010486 a23.6728268919976,23.6728268919976 0 0,0 0.37179626740101357,0.16681414758177027 l -1.1150862802315613 2.429112221002747" fill="#ff0100" stroke="none" /><path d="M 108.76106565485865 80.91482961587045 l 4.425259229299283 -9.640017517535801 a31.60720778456308,31.60720778456308 0 0,0 0.49250319367095247,0.2312368531753516 l -4.590540634269834 9.562415681720447" fill="#ff730a" stroke="none" /><path d="M 109.08828744355905 81.06846463323043 l 1.7228200515283807 -3.5887540902113817 a24.980862324918707,24.980862324918707 0 0,0 0.38604798091870035,0.18943206764883277 l -1.7843392994575127 3.558566862427717" fill="#ff1402" stroke="none" /><path d="M 109.41281617654863 81.2277094730956 l 5.329671058338256 -10.62913921226123 a32.89050015700423,32.89050015700423 0 0,0 0.5039130230226905,0.2581238224802225 l -5.511844568949702 10.535822864468505" fill="#ff850c" stroke="none" /><path d="M 109.73455568895987 81.39251694778311 l 12.160918096453923 -23.245444847143556 a47.23430264158461,47.23430264158461 0 0,0 0.7171853033833396,0.3830955513674405 l -12.559248446365574 23.03267056927436" fill="#c2ff1e" stroke="none" /><path d="M 110.05341064243156 81.56283822128135 l 3.352439121569517 -6.14810879969518 a28.002720176954032,28.002720176954032 0 0,0 0.421208797350298,0.23440223969235205 l -3.45777200799185 6.089491162442648" fill="#ff4006" stroke="none" /><path d="M 110.36928655335952 81.73862282372117 l 3.900717797228162 -6.869564129301504 a28.89977915262183,28.89977915262183 0 0,0 0.430473588093833,0.2493580873714663 l -4.018388117787323 6.801401884539988" fill="#ff4d07" stroke="none" /><line stroke="#e1ed5e" stroke-width="0.3" x1="143.23703022742887" x2="145.7803849466894" y1="26.81831364943548" y2="22.513508569990506" /><path d="M 143.74570117128098 25.957352633546492 a86.0,86.0 0 0,1 28.547481713284135,27.462654790039103" fill="none" id="id110" stroke="none" /><text fill="#e1ed5e" style="font-size:6.75px; font-family:Arial;" text-anchor="middle"><textPath startOffset="19.985693538727396" xlink:href="#id110">February</textPath></text><path d="M 110.68208982089419 81.91981866633111 l 5.326647188137556 -9.015721518614104 a31.471695410395355,31.471695410395355 0 0,0 0.46403955902393706,0.2795786421378577 l -5.48104881337913 8.922696267017633" fill="#ff710a" stroke="none" /><path d="M 110.99172775467656 82.1063720568725 l 2.153876383423972 -3.50633344462885 a25.115040425074138,25.115040425074138 0 0,0 0.36641749398281376,0.22945060111683246 l -2.2139130297790492 3.468738502189073" fill="#ff1602" stroke="none" /><path d="M 111.2981086023043 82.29822771554956 l 7.073333174449258 -11.082433135809348 a34.14733305299784,34.14733305299784 0 0,0 0.49275085221831866,0.32049886103946584 l -7.263051052451857 10.959035350610353" fill="#ff960d" stroke="none" /><path d="M 111.60114157652 82.49532879139004 l 4.351284515898868 -6.5655439409587215 a28.8765502714679,28.8765502714679 0 0,0 0.4119656620507277,0.27816105399174096 l -4.463654872356138 6.489670974668311" fill="#ff4d07" stroke="none" /><path d="M 112.19680574252982 82.90503203632743 l 10.959026916058901 -15.360104768233692 a39.86883911209216,39.86883911209216 0 0,0 0.5552299395175528,0.403398163881344 l -11.221802171930243 15.169187369535672" fill="#ffe215" stroke="none" /><path d="M 112.48926042617603 83.11751280151076 l 10.010313194400362 -13.531544590353006 a37.831787464517774,37.831787464517774 0 0,0 0.5201940066940429,0.3917993410892027 l -10.241753354852788 13.357228659757956" fill="#ffc712" stroke="none" /><path d="M 112.77801427241765 83.33499621200491 l 19.5653080503975 -25.51694855099534 a53.15456332250669,53.15456332250669 0 0,0 0.721300956744333,0.5629868378251462 l -20.001641562301263 25.17638332394697" fill="#7fff26" stroke="none" /><path d="M 113.06298171725822 83.55741782278167 l 13.757750456234328 -17.31709860325637 a43.11690759692502,43.11690759692502 0 0,0 0.5771436280906903,0.46667667626699927 l -14.05379748288951 17.07771582972524" fill="#f4ff19" stroke="none" /><path d="M 113.34407831869373 83.78471172551755 l 10.741525011573408 -13.052750471812033 a37.904279175807716,37.904279175807716 0 0,0 0.5002326328844089,0.4189304441203107 l -10.964615181416935 12.865918870297904" fill="#ffc812" stroke="none" /><path d="M 113.6212207817346 84.01681056812373 l 2.812282065156956 -3.2999418850582436 a25.3357291034802,25.3357291034802 0 0,0 0.32949260637933814,0.28573274137810284 l -2.8686684701830583 3.2510441502604697" fill="#ff1902" stroke="none" /><path d="M 113.89432698308785 84.25364557470407 l 8.729450573925014 -9.893032087300005 a34.1937633449652,34.1937633449652 0 0,0 0.43798793488279164,0.3932298924627219 l -8.898449496403796 9.741303186067986" fill="#ff970d" stroke="none" /><path d="M 114.16331599549186 84.49514656593476 l 33.43881761203611 -36.60611443309497 a70.57985616336397,70.57985616336397 0 0,0 0.8899518797596414,0.8271132817769234 l -34.063977375590596 36.02509656524341" fill="#3cffa3" stroke="none" /><path d="M 114.68862486808459 84.99185889309783 l 7.631360020211362 -7.797362179883837 a31.91038554416677,31.91038554416677 0 0,0 0.38925230377493897,0.3875807306785546 l -7.764448124153624 7.664845598555164" fill="#ff780b" stroke="none" /><path d="M 114.94478906791727 85.2469230424477 l 13.93761964272855 -13.75882752575529 a40.58475366679025,40.58475366679025 0 0,0 0.48650632603511373,0.5013875340925797 l -14.172390232466771 13.516875796112597" fill="#ffeb16" stroke="none" /><path d="M 115.19652480421416 85.50635884689758 l 21.627402989534833 -20.627072442044543 a50.88679771405919,50.88679771405919 0 0,0 0.599089489294961,0.6390668968732047 l -21.979259800800257 20.251736128293285" fill="#98ff23" stroke="none" /><path d="M 115.4437574822437 85.77008943001954 l 18.240830656536872 -16.807139665532205 a45.803383776758395,45.803383776758395 0 0,0 0.5292610645111775,0.5844232865050271 l -18.527435361664086 16.49066359175763" fill="#d3ff1c" stroke="none" /><path d="M 115.68641384162765 86.03803664274999 l 9.895110866860367 -8.807314197742445 a34.24696200814412,34.24696200814412 0 0,0 0.38814550503231504,0.44371740998688913 l -10.045248235470531 8.635681231552608" fill="#ff980e" stroke="none" /><path d="M 115.9244219780498 86.31012108654704 l 6.0933822099530355 -5.238348038166046 a29.035520949230996,29.035520949230996 0 0,0 0.32255613663466925,0.38180472633270135 l -6.182648960074823 5.1326843622042375" fill="#ff4f07" stroke="none" /><path d="M 116.15771136456269 86.58626213691792 l 10.056212209248033 -8.34842208941943 a34.06994856074558,34.06994856074558 0 0,0 0.370715934333788,0.45445390154773985 l -10.19842663565823 8.174084018263589" fill="#ff950d" stroke="none" /><path d="M 116.38621287248628 86.86637796730983 l 12.588825045307686 -10.089998907456415 a37.13339995084228,37.13339995084228 0 0,0 0.3954634939370558,0.50219847735348 l -12.760642619838706 9.871808036149897" fill="#ffbe11" stroke="none" /><path d="M 116.60985879189232 87.15038557335679 l 6.184223012496362 -4.784199687341168 a28.818771061787455,28.818771061787455 0 0,0 0.30015993354218984,0.39497528818959715 l -6.265658886262666 4.677039623270537" fill="#ff4c07" stroke="none" /><path d="M 116.82858285166822 87.43820079747576 l 15.375568421303637 -11.477187641735538 a40.186816839741724,40.186816839741724 0 0,0 0.40902024965332384,0.5579031608609318 l -15.570851283470587 11.210822037203114" fill="#ffe615" stroke="none" /><path d="M 117.04232023915458 87.72973835380427 l 26.53428930096764 -19.104363006317755 a53.696256583661196,53.696256583661196 0 0,0 0.5336062434658457,0.7547481892800603 l -26.85920816423737 18.644788316705903" fill="#79ff26" stroke="none" /><path d="M 117.2510076193507 88.02491185347247 l 4.353997842631646 -3.022403624517506 a26.30020951313602,26.30020951313602 0 0,0 0.2549561526029013,0.37411669400792635 l -4.405378460903281 2.947008907239173" fill="#ff2703" stroke="none" /><path d="M 117.45458315368197 88.32363383020206 l 16.282991408486602 -10.892621631302445 a40.59043172601274,40.59043172601274 0 0,0 0.38348943936739804,0.584080725854694 l -16.468077483211925 10.610722841470077" fill="#ffeb16" stroke="none" /><path d="M 117.65298651832404 88.62581576622439 l 3.5758762132964677 -2.3040109844864567 a25.253863809462374,25.253863809462374 0 0,0 0.23230236076910063,0.3674465472041098 l -3.615006170311524 2.2421167895681404" fill="#ff1802" stroke="none" /><line stroke="#e1ed5e" stroke-width="0.3" x1="172.23445277983987" x2="176.4835382374775" y1="55.19839476539836" y2="52.563006222186495" /><path d="M 173.08426987136738 54.67131705675599 a86.0,86.0 0 0,1 12.851231095245387,41.99856678651699" fill="none" id="id111" stroke="none" /><text fill="#e1ed5e" style="font-size:6.75px; font-family:Arial;" text-anchor="middle"><textPath startOffset="22.20632615414155" xlink:href="#id111">March</textPath></text><path d="M 117.84615892207809 88.93136811851018 l 16.677792307467236 -10.343981831234405 a40.625155193677344,40.625155193677344 0 0,0 0.36346785014582533,0.5974455782033941 l -16.853375955899285 10.05536847982393" fill="#ffeb16" stroke="none" /><path d="M 118.03404312379186 89.2402003453031 l 11.286697244263932 -6.734075119920464 a34.14295637991722,34.14295637991722 0 0,0 0.29678411295883356,0.5073002530303377 l -11.400941031693092 6.53879545453623" fill="#ff960d" stroke="none" /><path d="M 118.21658344932153 89.55222093294921 l 25.85406710977128 -14.828114278347577 a50.80445871288879,50.80445871288879 0 0,0 0.42855341186963447,0.7623487004413425 l -26.10547816293335 14.380882067971442" fill="#99ff23" stroke="none" /><path d="M 118.3937258080291 89.86733742301442 l 18.113938259690045 -9.978534324224302 a41.68056833202573,41.68056833202573 0 0,0 0.34077219059905517,0.6313991148537279 l -18.283018549507567 9.665254226038115" fill="#fff917" stroke="none" /><path d="M 118.56541770881063 90.18545643968196 l 26.89571089306508 -14.218324105922775 a51.42268898083147,51.42268898083147 0 0,0 0.40695075381692475,0.7860993265509185 l -27.13647108004212 13.753252057111512" fill="#92ff23" stroke="none" /><path d="M 118.73160827565052 90.50648371742162 l 7.408061025187667 -3.754538688296966 a29.30517482746891,29.30517482746891 0 0,0 0.22417061450870077,0.45191427977322607 l -7.471591652649776 3.6264648200247898" fill="#ff5307" stroke="none" /><path d="M 118.89224826269711 90.83032412892265 l 23.476055802397966 -11.394505272533486 a47.09520926229749,47.09520926229749 0 0,0 0.3477012526393836,0.7323475129332913 l -23.668715248879103 10.988715343959655" fill="#c4ff1e" stroke="none" /><path d="M 119.04729006885535 91.15688171328212 l 19.177356454975513 -8.903504432643553 a42.143400667425624,42.143400667425624 0 0,0 0.29981554357136786,0.6606038082032017 l -19.327774315510226 8.572078615598288" fill="#fffe18" stroke="none" /><path d="M 119.196687751892 91.48605970444005 l 25.36255579974059 -11.248569993566552 a48.745081791105264,48.745081791105264 0 0,0 0.33357719537429553,0.7699421584431252 l -25.552423704957565 10.810328690536824" fill="#b0ff20" stroke="none" /><path d="M 119.34039704204932 91.81776055985345 l 14.494357062022646 -6.132050947795937 a36.73812045537112,36.73812045537112 0 0,0 0.2413839946382758,0.5845304894232937 l -14.597762743547118 5.8816458879193405" fill="#ffb911" stroke="none" /><path d="M 119.47837535516314 92.15188598940014 l 21.70752256412074 -8.746269073500027 a44.40328520908708,44.40328520908708 0 0,0 0.2795428910039905,0.7114061664044594 l -21.854859005006432 8.371313902199782" fill="#e4ff1a" stroke="none" /><path d="M 119.61058180528143 92.48833698450437 l 29.29125392721801 -11.219760381781146 a52.36655192483468,52.36655192483468 0 0,0 0.3151853275852613,0.8445399776425495 l -29.480043843304895 10.713897267109264" fill="#87ff25" stroke="none" /><path d="M 119.7369772167798 92.82701384747503 l 11.885912826080286 -4.319683159947581 a33.64652467326556,33.64652467326556 0 0,0 0.1931421376580425,0.5460388319592562 l -11.958508044548138 4.11444670156171" fill="#ff8f0d" stroke="none" /><path d="M 119.85752413597 93.16781622104841 l 25.67298535932679 -8.833052546139381 a48.150045939980785,48.150045939980785 0 0,0 0.2629054558329425,0.7860538497024593 l -25.821228108931503 8.389825593514606" fill="#b7ff1f" stroke="none" /><path d="M 119.97218684219823 93.5106431181261 l 30.713264878018315 -9.979344694486503 a53.29383780226019,53.29383780226019 0 0,0 0.27597202904487955,0.8749067482298387 l -30.880492390831403 9.449187779830245" fill="#7dff26" stroke="none" /><path d="M 120.08093135843002 93.85539295169968 l 23.325715896109237 -7.137485594845899 a45.393292575678174,45.393292575678174 0 0,0 0.22219822797442204,0.7491419640736655 l -23.44512002119536 6.7349142440257035" fill="#d8ff1c" stroke="none" /><path d="M 120.18372546131832 94.20196356495316 l 28.095904673682234 -8.070912343997595 a50.232165255025706,50.232165255025706 0 0,0 0.23157800665634132,0.8331093030055579 l -28.23066945090494 7.586091737573086" fill="#9fff22" stroke="none" /><path d="M 120.28053869075195 94.5502522615342 l 23.027258643415905 -6.187841093799361 a44.844161088888924,44.844161088888924 0 0,0 0.19390544386048358,0.7471967742031138 l -23.130360419146694 5.790547894047397" fill="#deff1b" stroke="none" /><path d="M 120.37134235888165 94.90015583598534 l 12.971633767009687 -3.2473712138845716 a34.371937121681064,34.371937121681064 0 0,0 0.13874346949600447,0.5751812533825243 l -13.025610036766512 3.023604728842641" fill="#ff990e" stroke="none" /><path d="M 120.45610955862082 95.25157060432595 l 4.004496209391373 -0.9295544424538822 a25.110968420277104,25.110968420277104 0 0,0 0.09411305535668502,0.4218903734483438 l -4.019903651750096 0.8604858994555745" fill="#ff1602" stroke="none" /><path d="M 120.53481517161879 95.60439243477599 l 12.763312202436166 -2.732068012566474 a34.05244551806844,34.05244551806844 0 0,0 0.11775774139706371,0.5742285678627216 l -12.808449239748226 2.5119637885403403" fill="#ff950d" stroke="none" /><path d="M 120.6074358757038 95.95851677861258 l 23.278643105967824 -4.565354277790373 a44.72209275204787,44.72209275204787 0 0,0 0.14165036307802822,0.7567019036454874 l -23.35377919295571 4.163974296682323" fill="#e0ff1b" stroke="none" /><path d="M 120.67395015179393 96.31383870115 l 20.6700033764102 -3.685457589565218 a41.99599097983453,41.99599097983453 0 0,0 0.12076474851836726,0.7127603818558528 l -20.730379986448792 3.3291114193935276" fill="#fffd17" stroke="none" /><path d="M 120.73433829027371 96.67025291283417 l 29.47484738961964 -4.733393748392816 a50.852498136984984,50.852498136984984 0 0,0 0.13135468227716274,0.8654632367256392 l -29.551957965336104 4.2253313992750945" fill="#98ff23" stroke="none" /><path d="M 120.78858239683441 97.02765380044208 l 18.76078708412618 -2.6824125438543143 a39.951582231342655,39.951582231342655 0 0,0 0.09147771036441976,0.6816151961421592 l -18.804180793548436 2.359079005647491" fill="#ffe315" stroke="none" /><path d="M 120.83666639777658 97.38593545837742 l 10.36777918495858 -1.300690015638242 a31.449049705348397,31.449049705348397 0 0,0 0.06276278912017798,0.5377132485922994 l -10.388632327082348 1.1220330287210898" fill="#ff710a" stroke="none" /><path d="M 120.87857604477298 97.74499172005257 l 21.682881804203223 -2.3418780043594376 a42.80898337663518,42.80898337663518 0 0,0 0.07282190156357622,0.7333066107734646 l -21.71998083144903 1.968295862881538" fill="#f7ff18" stroke="none" /><path d="M 120.91429891909075 98.10471618934814 l 33.522045148798085 -3.0378158845412533 a54.65940932794912,54.65940932794912 0 0,0 0.07684987021567721,0.937763070214473 l -33.569369502833254 2.4603388971190117" fill="#6eff28" stroke="none" /><path d="M 120.94382443527127 98.46500227214037 l 18.68274723153778 -1.3692806984329988 a39.732858130798775,39.732858130798775 0 0,0 0.044121274729315776,0.6825365915240832 l -18.703549097271512 1.0474850426558804" fill="#ffe015" stroke="none" /><path d="M 120.96714384426684 98.82574320788733 l 26.0292877193212 -1.4577602045032636 a47.07007640934408,47.07007640934408 0 0,0 0.038342817501785496,0.8093562762771856 l -26.05052414505648 1.0094928216030783" fill="#c4ff1e" stroke="none" /><path d="M 120.98425023603335 99.18683210126433 l 26.0875160343518 -1.0109263070290615 a47.10709606296353,47.10709606296353 0 0,0 0.02442459310670602,0.8105333369365246 l -26.101052321914153 0.5617228226675377" fill="#c3ff1e" stroke="none" /><line stroke="#e1ed5e" stroke-width="0.3" x1="184.98032266829074" x2="189.97916517819016" y1="98.17113171792111" y2="98.06355123074" /><path d="M 185.9800911702706 98.14961562048488 a86.0,86.0 0 0,1 -9.607161424134198,41.387399972396054" fill="none" id="id112" stroke="none" /><text fill="#e1ed5e" style="font-size:6.75px; font-family:Arial;" text-anchor="middle"><textPath startOffset="21.466115282336823" xlink:href="#id112">April</textPath></text><path d="M 120.99513854157772 99.54816195383933 l 10.490864364983333 -0.22577472626929532 a31.493293541662652,31.493293541662652 0 0,0 0.006998998895173066,0.5420801775985545 l -10.493196370996221 0.04515829061027809" fill="#ff720a" stroke="none" /><path d="M 120.99980553446 99.90962569577887 l 7.7645490178536525 -0.03341534348629515 a28.764620920291758,28.764620920291758 0 0,0 -0.0021309142253388676,0.4951494202737845 l -7.763973806338811 -0.10024355499117406" fill="#ff4b07" stroke="none" /><path d="M 120.99824983174949 100.27111621757518 l 17.32509154378993 0.22369070404115707 a38.32653556057228,38.32653556057228 0 0,0 -0.014195304337664945,0.6596000131939592 l -17.31867417676726 -0.5218805330252311" fill="#ffce13" stroke="none" /><path d="M 120.9904718944345 100.63252640178507 l 16.379398114993865 0.49357640958177945 a37.386833137661476,37.386833137661476 0 0,0 -0.02492075825596283,0.6430940376863838 l -16.3684752238867 -0.7754476942821694" fill="#ffc112" stroke="none" /><path d="M 120.9764740272857 100.99374915477107 l 26.859003977346163 1.2724308416067078 a47.88912744775793,47.88912744775793 0 0,0 -0.04609590564435087,0.8230733607577828 l -26.83312172081428 -1.734575918699914" fill="#baff1f" stroke="none" /><path d="M 120.95626037817324 101.35467743843564 l 7.8704320105451435 0.5087690495834815 a28.886859069263743,28.886859069263743 0 0,0 -0.036347153618487414,0.4959280331762611 l -7.860508298262318 -0.6441702192565127" fill="#ff4d07" stroke="none" /><path d="M 120.92983693683757 101.71520430193887 l 13.025525308443992 1.06744439106139 a34.06919075876251,34.06919075876251 0 0,0 -0.05292957633418861,0.584073464297312 l -13.005221135832729 -1.2914992439072726" fill="#ff950d" stroke="none" /><path d="M 120.89721153311464 102.0752229133903 l 40.81998005790073 4.053677583061959 a62.020763935778085,62.020763935778085 0 0,0 -0.11464301500635564,1.061451937049225 l -40.74415474139332 -4.755725841995976" fill="#31ff3f" stroke="none" /><path d="M 120.8583938346157 102.4346265915055 l 23.583246042663784 2.752675895600384 a44.74335103760706,44.74335103760706 0 0,0 -0.09587539371098999,0.76422122051792 l -23.532369139705946 -3.158214870405699" fill="#e0ff1b" stroke="none" /><path d="M 120.81339534386255 102.79330883721812 l 10.38810846206217 1.3941596116183472 a31.481244126640476,31.481244126640476 0 0,0 -0.07670322528179073,0.5364621789718304 l -10.362571185763779 -1.572767262570587" fill="#ff720a" stroke="none" /><path d="M 120.76222939487914 103.15116336523771 l 18.37003118827652 2.7880902478155076 a39.580406160474965,39.580406160474965 0 0,0 -0.10803235441838462,0.6727175740882162 l -18.319317079496848 -3.1038870515969292" fill="#ffde14" stroke="none" /><path d="M 120.70491114924044 103.5080841355445 l 26.24839119010113 4.447329624060608 a47.622486376250166,47.622486376250166 0 0,0 -0.1438960088203138,0.8070452354652475 l -26.16794873894163 -4.898493610259075" fill="#bdff1f" stroke="none" /><path d="M 120.64145759157962 103.86396538481128 l 27.71817217328779 5.1886867646165635 a49.19963721343473,49.19963721343473 0 0,0 -0.16299152659579352,0.8310902826049082 l -27.624750713716335 -5.665040774289417" fill="#abff21" stroke="none" /><path d="M 120.5718875245553 104.21870165774334 l 31.197542202396626 6.397717411670199 a52.84678048955509,52.84678048955509 0 0,0 -0.19041440219335867,0.8895526948288068 l -31.082793761478825 -6.933783925915175" fill="#82ff25" stroke="none" /><path d="M 120.49622156327973 104.57218783832717 l 28.509724323463434 6.35979731304882 a50.21046735098474,50.21046735098474 0 0,0 -0.1954369136015213,0.8419371087361096 l -28.396026843931363 -6.8496030791334945" fill="#a0ff22" stroke="none" /><path d="M 120.41448212921028 104.9243191809786 l 27.937421349836566 6.738979659113359 a49.73870836562158,49.73870836562158 0 0,0 -0.2079283731466276,0.8305704918169208 l -27.817281662394876 -7.218877990327676" fill="#a5ff21" stroke="none" /><path d="M 120.32669344350535 105.2749913415812 l 14.680598197791484 3.809770073908694 a36.16688206128896,36.16688206128896 0 0,0 -0.16156594185188508,0.6012469736365044 l -14.612844179597822 -4.061907980720747" fill="#ffb110" stroke="none" /><path d="M 120.23288151984713 105.62410040840565 l 60.69864455954138 16.872301225216972 a84.0,84.0 0 0,0 -0.3992294524556024,1.389770097981672 l -60.399222470199675 -17.914628798703227" fill="#4dd2ff" stroke="none" /><path d="M 120.13307415673323 105.97154293290107 l 19.577701476958733 5.806817378561201 a41.420713092075715,41.420713092075715 0 0,0 -0.2086286908974444,0.681810633028117 l -19.474846013555155 -6.142954984141375" fill="#fff517" stroke="none" /><path d="M 120.02730092923936 106.31721596034902 l 30.053665270273694 9.479834281372172 a52.51333137229281,52.51333137229281 0 0,0 -0.2793402875827013,0.8597210043630868 l -29.886032731674746 -9.995754185713054" fill="#86ff25" stroke="none" /><path d="M 119.9155931802556 106.66101706037122 l 34.24380343683062 11.453264627380785 a57.10838329868985,57.10838329868985 0 0,0 -0.31983188123497097,0.9295811568538712 l -34.04158072465241 -12.041018487323955" fill="#54ff2b" stroke="none" /><path d="M 119.79798401119884 107.00284435728193 l 30.377128159471862 10.744846566279556 a53.22144694066156,53.22144694066156 0 0,0 -0.31293130911282385,0.8610525640290985 l -30.187672589353813 -11.266146927314786" fill="#7eff26" stroke="none" /><path d="M 119.67450827220406 107.3425965602758 l 23.147605391455805 8.638768775026895 a45.70708322135443,45.70708322135443 0 0,0 -0.2814374916007988,0.7347444821107374 l -22.9954736202615 -9.035936823970776" fill="#d4ff1c" stroke="none" /><path d="M 119.54520255179757 107.68017299344265 l 7.591185292043092 2.9829118482482246 a29.156215864759282,29.156215864759282 0 0,0 -0.18756802578457707,0.4655284576554846 l -7.538714652001123 -3.113139673746523" fill="#ff5107" stroke="none" /><path d="M 119.41010516605496 108.01547362559984 l 9.738057151999014 4.021366169769001 a31.535707995524636,31.535707995524636 0 0,0 -0.21151302517026205,0.4999543115649238 l -9.667393145636442 -4.188395007000088" fill="#ff720a" stroke="none" /><path d="M 119.26925614724726 108.34839909993367 l 25.58754474206649 11.085795625001158 a48.88579047770655,48.88579047770655 0 0,0 -0.34117373449842575,0.7692567040584789 l -25.392929922836792 -11.524600665552324" fill="#afff20" stroke="none" /><path d="M 119.12269723197855 108.67885076344098 l 26.781529064995542 12.154817448197637 a50.41071040043424,50.41071040043424 0 0,0 -0.3654185574324953,0.7870790635486064 l -26.568335890723215 -12.614016579025074" fill="#9dff22" stroke="none" /><path d="M 118.97047184881838 109.00673069616215 l 3.8903046255707023 1.847024489837966 a25.306503169138274,25.306503169138274 0 0,0 -0.19021662436751852,0.3919025865001678 l -3.8579347445884693 -1.9137160323034093" fill="#ff1902" stroke="none" /><path d="M 118.81262510543309 109.33194174019688 l 29.15398049238941 14.461737579155944 a53.54376180405384,53.54376180405384 0 0,0 -0.41667584660312557,0.8221409753957765 l -28.900725976000018 -14.961432766254415" fill="#7aff26" stroke="none" /><path d="M 118.64920377521936 109.65438752849418 l 24.128869637043174 12.491120849356024 a48.17039657485037,48.17039657485037 0 0,0 -0.3875365561491987,0.7330731172699277 l -23.910280572669084 -12.904608981712085" fill="#b7ff1f" stroke="none" /><line stroke="#e1ed5e" stroke-width="0.3" x1="174.80103733775053" x2="179.2010983576182" y1="140.37084112569926" y2="142.7455964860345" /><path d="M 175.68104954172406 140.8457921977663 a86.0,86.0 0 0,1 -30.038265399797805,32.042727171017184" fill="none" id="id113" stroke="none" /><text fill="#e1ed5e" style="font-size:6.75px; font-family:Arial;" text-anchor="middle"><textPath startOffset="22.206326154141568" xlink:href="#id113">May</textPath></text><path d="M 118.48025628344425 109.97397251340804 l 22.980483554389387 12.40278856531026 a47.11382370679085,47.11382370679085 0 0,0 -0.39132201406700234,0.7103631226942091 l -22.763585130870872 -12.796522206402274" fill="#c3ff1e" stroke="none" /><path d="M 118.30583269289576 110.29060199501025 l 12.743711471449064 7.163862190372933 a35.619271649100625,35.619271649100625 0 0,0 -0.3050502335522327,0.5318807949590247 l -12.618509241744452 -7.382162831190273" fill="#ffaa0f" stroke="none" /><path d="M 118.12598468904814 110.60418214915192 l 21.007019155133356 12.289663781209772 a45.33784480267961,45.33784480267961 0 0,0 -0.39987790057533323,0.6702183622981255 l -20.792360378859797 -12.649444237394" fill="#d9ff1c" stroke="none" /><path d="M 117.94076556474637 110.91462005526583 l 23.589378328326998 14.351065502998269 a48.6118063695277,48.6118063695277 0 0,0 -0.441060383000437,0.711129774079994 l -23.338853305658596 -14.754991608443538" fill="#b2ff20" stroke="none" /><path d="M 117.75023020441432 111.22182372390056 l 21.615547087162778 13.665504971732066 a46.57299165154099,46.57299165154099 0 0,0 -0.434226917302522,0.6739298185686573 l -21.377115306483205 -14.035556390222176" fill="#caff1d" stroke="none" /><path d="M 117.55443506779139 111.5257021239791 l 13.47630248408709 8.848125705236354 a37.121416102138056,37.121416102138056 0 0,0 -0.35529949329934307,0.5311245348142214 l -13.321999885377027 -9.078787154256382" fill="#ffbe11" stroke="none" /><path d="M 117.35343817320211 111.8261652097733 l 23.26658213242315 15.855903678482596 a49.15570147565338,49.15570147565338 0 0,0 -0.4825196052380967,0.6951054793581756 l -22.990201620022916 -16.25405042002779" fill="#acff21" stroke="none" /><path d="M 117.14729908036423 112.12312394758627 l 6.3270003733251015 4.473183174957225 a28.748567702535507,28.748567702535507 0 0,0 -0.28915611614445663,0.40161255501604276 l -6.249064464805042 -4.581429335424399" fill="#ff4b07" stroke="none" /><path d="M 116.93607887273984 112.41649034213515 l 15.766916558051664 11.559332513702943 a40.55028966309486,40.55028966309486 0 0,0 -0.417549679614035,0.5593760308364352 l -15.565605611742535 -11.829021424048692" fill="#ffea16" stroke="none" /><path d="M 116.71984013943494 112.70617746262583 l 14.720701207141584 11.186939609014262 a39.489095755219395,39.489095755219395 0 0,0 -0.4159389892989258,0.5376572128088651 l -14.52595540062459 -11.43867481593638" fill="#ffdd14" stroke="none" /><path d="M 116.498646956653 112.99209946851258 l 21.900882359985356 17.246168295902795 a48.876136192745946,48.876136192745946 0 0,0 -0.5261913771974916,0.656504648676778 l -21.60077307073301 -17.620600778157822" fill="#afff20" stroke="none" /><path d="M 116.27256486870786 113.27417163493432 l 4.4121763022468485 3.599185868494571 a26.69398266928164,26.69398266928164 0 0,0 -0.29351177986236,0.3535538467743235 l -4.349568522490945 -3.674600972382665" fill="#ff2d04" stroke="none" /><path d="M 116.0416608686014 113.55231037782055 l 22.50847718209327 19.015603895534475 a50.46565350656047,50.46565350656047 0 0,0 -0.5663147265822224,0.6587519681870269 l -22.177819945940268 -19.40023296288303" fill="#9dff22" stroke="none" /><path d="M 115.80600337817218 113.82643327865902 l 19.84763661665733 17.361885661637555 a47.369750719236094,47.369750719236094 0 0,0 -0.5421381133206027,0.6090979174823768 l -19.545839653688386 -17.700957748860798" fill="#c0ff1e" stroke="none" /><path d="M 115.56566222782051 114.09645910891815 l 15.49446752671609 14.031984293892526 a41.903949558887334,41.903949558887334 0 0,0 -0.4887868077912159,0.530481543290398 l -15.250634310929152 -14.29661709198426" fill="#fffb17" stroke="none" /><path d="M 115.32070863581623 114.36230785411682 l 14.733963495882204 13.812267086946363 a41.195752087484415,41.195752087484415 0 0,0 -0.48943191699255756,0.5131674082436786 l -14.494025027510682 -14.063841611772549" fill="#fff216" stroke="none" /><path d="M 115.07121518719521 114.62390073753431 l 7.793547536133023 7.562234640408914 a31.859409558284725,31.859409558284725 0 0,0 -0.3852855113105564,0.39029218881104855 l -7.66222139976693 -7.695267323200627" fill="#ff770a" stroke="none" /><path d="M 114.81725581225074 114.88116024355365 l 25.450729369446993 25.560494254875653 a57.070465646985525,57.070465646985525 0 0,0 -0.7021027389444909,0.6871553030952943 l -25.006976678126705 -25.99479966089352" fill="#55ff2b" stroke="none" /><path d="M 114.55890576462653 115.13401014063108 l 16.36079074920371 17.00707299780669 a44.59906790303285,44.59906790303285 0 0,0 -0.5578369979856113,0.5274697000252413 l -16.06561791682729 -17.286177334577854" fill="#e1ff1b" stroke="none" /><path d="M 114.29624159901734 115.38237550388516 l 1.7967156525846804 1.9332182273462224 a23.639227131337215,23.639227131337215 0 0,0 -0.3004438272194779,0.2744483127106054 l -1.7631722758983386 -1.9638593066434107" fill="#ff0000" stroke="none" /><path d="M 114.0293411484842 115.62618273729858 l 3.974665879617045 4.427068577009552 a26.949529816728152,26.949529816728152 0 0,0 -0.34785124487600433,0.3069382796323364 l -3.8978722818344527 -4.494829998414177" fill="#ff3104" stroke="none" /><path d="M 113.75828350139079 115.86535959552629 l 10.790820381317678 12.443430582240353 a37.47060318133175,37.47060318133175 0 0,0 -0.4909265023174422,0.4183782156979405 l -10.575028402423188 -12.62733318816124" fill="#ffc312" stroke="none" /><path d="M 113.48314897796784 116.09983520530334 l 18.51539517116848 22.108693711237933 a49.83772175401276,49.83772175401276 0 0,0 -0.662437946039192,0.5451413310445008 l -18.132087096584595 -22.42413016113961" fill="#a4ff21" stroke="none" /><path d="M 113.20401910651253 116.32954008644616 l 12.651463490018605 15.64618912968496 a41.121201820993335,41.121201820993335 0 0,0 -0.5542403840899895,0.44032208118533606 l -12.380265613211263 -15.861645124875421" fill="#fff216" stroke="none" /><path d="M 112.92097659922987 116.55440617244103 l 1.9353991661475263 2.4796410438603735 a24.145534873232453,24.145534873232453 0 0,0 -0.3298409662042325,0.252907987745065 l -1.8924294714498002 -2.51258837343281" fill="#ff0801" stroke="none" /><path d="M 112.63410532772338 116.77436683061366 l 16.25160324533052 21.57733748068168 a48.01288767975146,48.01288767975146 0 0,0 -0.6644412749210057,0.49153777063911797 l -15.877776999990953 -21.85388520006057" fill="#b9ff1f" stroke="none" /><path d="M 112.34349029814194 116.9893568818739 l 12.688804920336388 17.46464168473667 a42.587484325010976,42.587484325010976 0 0,0 -0.5967777529768915,0.4257850813169248 l -12.386299839510611 -17.680471027897813" fill="#faff18" stroke="none" /><path d="M 112.04921762599082 117.19931262002967 l 10.092587163477047 14.406376177911062 a38.58988317845986,38.58988317845986 0 0,0 -0.5473205251386417,0.376452047925358 l -9.843109753715522 -14.577969015201514" fill="#ffd113" stroke="none" /><path d="M 111.7513745106137 117.40417183066458 l 26.773026026552987 39.65173137594511 a68.84406675574928,68.84406675574928 0 0,0 -0.9878313883401034,0.6546807793925957 l -26.086519939472918 -40.106710176429026" fill="#3aff90" stroke="none" /><path d="M 111.45004920935366 117.60387380957326 l 16.18323329577338 24.880905886146863 a50.68091167098352,50.68091167098352 0 0,0 -0.7353998130952756,0.469366954955301 l -15.752551680631173 -25.155787269925973" fill="#9aff22" stroke="none" /><path d="M 111.1453310114006 117.79835938074945 l 2.974999130699171 4.750877621439704 a26.605484635743586,26.605484635743586 0 0,0 -0.39024012684240034,0.23971735898586063 l -2.892779803924462 -4.801383447253944" fill="#ff2c04" stroke="none" /><line stroke="#e1ed5e" stroke-width="0.3" x1="143.8653032363475" x2="146.44561519142675" y1="172.8068346515853" y2="177.08958963109032" /><path d="M 144.38136562736335 173.6633856474863 a86.0,86.0 0 0,1 -40.68145358897372,12.25698825130547" fill="none" id="id114" stroke="none" /><text fill="#e1ed5e" style="font-size:6.75px; font-family:Arial;" text-anchor="middle"><textPath startOffset="21.466115282336833" xlink:href="#id114">June</textPath></text><path d="M 110.8373102113329 117.98757091392108 l 14.934671705624794 24.78829720128645 a49.9396630438935,49.9396630438935 0 0,0 -0.7401346499655335,0.4372845971276292 l -14.505769184630878 -25.04170037070783" fill="#a3ff22" stroke="none" /><path d="M 110.5260780823613 118.17145234162733 l 12.573138824276477 21.705348482342966 a46.083978405238604,46.083978405238604 0 0,0 -0.6898359731839804,0.3917068691868475 l -12.197654084171297 -21.918558517324442" fill="#d0ff1d" stroke="none" /><path d="M 110.21172684928248 118.3499491758327 l 14.050665943307704 25.248325748589295 a49.894621758336,49.894621758336 0 0,0 -0.7540673693589532,0.4111776534376382 l -13.613975762080102 -25.486444053786705" fill="#a3ff21" stroke="none" /><path d="M 109.89434966115114 118.52300852407294 l 4.060483885178194 7.601548377891672 a29.61806632158394,29.61806632158394 0 0,0 -0.4517588615417594,0.2363388849162731 l -3.9290341211099395 -7.670316681752662" fill="#ff5708" stroke="none" /><path d="M 109.57404056367764 118.69057910512821 l 11.014550775727871 21.502763771674864 a45.15966015099427,45.15966015099427 0 0,0 -0.694912748008017,0.3484436780032264 l -10.642784120037092 -21.689175290587393" fill="#dbff1b" stroke="none" /><path d="M 109.2508944713604 118.85261126421891 l 11.184037698573889 22.79220844517715 a46.38833324681883,46.38833324681883 0 0,0 -0.7198747694153281,0.34558363603705167 l -10.790050261158328 -22.98134635771376" fill="#ccff1d" stroke="none" /><path d="M 108.92500713936063 119.00905698771935 l 12.594371532416986 26.824306406255207 a50.63379166548249,50.63379166548249 0 0,0 -0.792134336083614,0.36363002196026395 l -12.130769200565952 -27.037123498549544" fill="#9bff22" stroke="none" /><path d="M 108.59647513512805 119.15986991738527 l 9.091083265061139 20.26225517188041 a43.20825926502726,43.20825926502726 0 0,0 -0.681207682222766,0.2986214290380359 l -8.740954908180619 -20.4157411542129" fill="#f2ff19" stroke="none" /><path d="M 108.2653958097858 119.30500536409082 l 3.1858786937775174 7.441071993176754 a29.09440395947132,29.09440395947132 0 0,0 -0.46208638520922657,0.1931521464937722 l -3.0573208490708295 -7.494809182690499" fill="#ff5007" stroke="none" /><path d="M 107.93186726928326 119.44442032107085 l 2.158665508886704 5.29181818888205 a26.715170734408552,26.715170734408552 0 0,0 -0.4272887047443319,0.17002699385163528 l -2.0672557281005055 -5.328192027139754" fill="#ff2e04" stroke="none" /><path d="M 107.2578585660854 119.70592522655815 l 0.9791063587970836 2.658386977318773 a23.83296145102875,23.83296145102875 0 0,0 -0.3861852663833646,0.1384722967114218 l -0.9332015317839842 -2.6748468150701554" fill="#ff0300" stroke="none" /><path d="M 106.91757812671514 119.82793768551818 l 12.049016627900466 34.536241802191206 a57.577736391401274,57.577736391401274 0 0,0 -0.9386000893208735,0.31842411074593274 l -11.452746805642365 -34.73852889983526" fill="#50ff2b" stroke="none" /><path d="M 106.57524785965236 119.94407469862006 l 7.141297971121132 21.661020728224514 a43.80784855484863,43.80784855484863 0 0,0 -0.7181955797582419,0.22994354476969772 l -6.767381046271949 -21.780737119653917" fill="#ebff1a" stroke="none" /><path d="M 106.2309692047433 120.05430185196036 l 3.086557977087389 9.93405091923202 a31.402509688138547,31.402509688138547 0 0,0 -0.5175806889736849,0.15594281580863834 l -2.915102313673459 -9.985709104146384" fill="#ff700a" stroke="none" /><path d="M 105.88484417918355 120.15858648285463 l 3.1235139278417074 10.699624956515622 a32.14622417985181,32.14622417985181 0 0,0 -0.5325080692996441,0.15049209946341463 l -2.9388746904374576 -10.751805849317556" fill="#ff7b0b" stroke="none" /><path d="M 105.53697534728816 120.25689768951611 l 9.861199789466154 36.07697392565217 a58.40041856610637,58.40041856610637 0 0,0 -0.9719764015553829,0.2567078018068191 l -9.238732945099274 -36.24137307676257" fill="#47ff2c" stroke="none" /><path d="M 105.18746579009965 120.34920634021253 l 6.232410460971748 24.448278137903014 a46.23016535939264,46.23016535939264 0 0,0 -0.7728070331044273,0.18993716643536757 l -5.810650143124109 -24.55193656265241" fill="#ceff1d" stroke="none" /><path d="M 104.83641907484287 120.43548508189849 l 3.056012568962396 12.912673260258028 a34.269376155186755,34.269376155186755 0 0,0 -0.5752030755990496,0.13091434730590934 l -2.8332893439704843 -12.963364341141622" fill="#ff980e" stroke="none" /><path d="M 104.48393922423573 120.51570834832081 l 6.370356447439418 29.146776620904863 a50.83481236167506,50.83481236167506 0 0,0 -0.8564662223902877,0.17948082416698563 l -5.867698763619752 -29.252113425798388" fill="#98ff23" stroke="none" /><path d="M 104.13013068566511 120.58985236759428 l 2.739022969714813 13.654792758402936 a34.92679475340822,34.92679475340822 0 0,0 -0.5904830122222381,0.11316747465380568 l -2.503572342920871 -13.69991743140521" fill="#ffa10e" stroke="none" /><path d="M 103.7750983002368 120.6578951692458 l 0.7411269700446476 4.055556183350962 a25.12271817397743,25.12271817397743 0 0,0 -0.4260705674799945,0.0740778295594683 l -0.6712074310926031 -4.0677125914314365" fill="#ff1602" stroke="none" /><path d="M 103.41894727170886 120.7198165907248 l 1.7432512981139996 10.564610769914433 a31.707470560695842,31.707470560695842 0 0,0 -0.5392748257128237,0.0842236370294013 l -1.5611406087926587 -10.59305271429094" fill="#ff750a" stroke="none" /><path d="M 103.06178313531738 120.77559828337769 l 5.195125790017992 35.25130346432619 a56.632060393810036,56.632060393810036 0 0,0 -0.9656343642478125,0.13382812400438074 l -4.587562834583349 -35.335506153823175" fill="#59ff2a" stroke="none" /><path d="M 102.70371172650421 120.8252237178851 l 0.502747583514688 3.872391719015315 a24.904890876609517,24.904890876609517 0 0,0 -0.425603922262525,0.05153470786647134 l -0.43601623820078267 -3.8804719556071374" fill="#ff1302" stroke="none" /><path d="M 102.34483914955558 120.86867818915974 l 3.101630439265799 27.6039947179352 a48.77770033263327,48.77770033263327 0 0,0 -0.8351843358169037,0.08657027127014312 l -2.6260135068432926 -27.653294357661103" fill="#b0ff20" stroke="none" /><path d="M 101.98527174616119 120.90594882070398 l 4.9509707498465625 52.13630895077008 a73.37085852242623,73.37085852242623 0 0,0 -1.2583300766206305,0.10857401378765696 l -4.05279635548439 -52.2138072168364" fill="#3fffc2" stroke="none" /><path d="M 101.62511606390274 120.93702456842531 l 1.0449699301956574 13.46276834482245 a34.50326233402012,34.50326233402012 0 0,0 -0.5925314891553017,0.04086444065885634 l -0.8130756802614252 -13.478761129997592" fill="#ff9b0e" stroke="none" /><path d="M 101.26447882468166 120.96189622390904 l 0.46410025711410857 7.693621464609824 a28.707606651182868,28.707606651182868 0 0,0 -0.4935137394461699,0.0255090232145605 l -0.3315984492544591 -7.7004702945865855" fill="#ff4a06" stroke="none" /><path d="M 100.90346689309514 120.98055641714683 l 0.614638829425983 14.273311767698527 a35.28653945882485,35.28653945882485 0 0,0 -0.6070623126810831,0.020908453491988242 l -0.36885616507024754 -14.281777019616609" fill="#ffa60f" stroke="none" /><line stroke="#e1ed5e" stroke-width="0.3" x1="102.19456741930631" x2="102.32365962044197" y1="184.97166512339345" y2="189.96999836594603" /><path d="M 102.22038585953345 185.97133177190398 a86.0,86.0 0 0,1 -42.740103519485714,-10.115201625700543" fill="none" id="id115" stroke="none" /><text fill="#e1ed5e" style="font-size:6.75px; font-family:Arial;" text-anchor="middle"><textPath startOffset="22.20632615414155" xlink:href="#id115">July</textPath></text><path d="M 100.54218724476979 120.99299961872073 l 0.286267254641551 11.084009123257612 a32.087705226309815,32.087705226309815 0 0,0 -0.552275720363337,0.009507927372873341 l -0.09543184438554599 -11.087294527909645" fill="#ff7a0b" stroke="none" /><path d="M 100.18074693466247 120.99922214144158 l 0.18408516253825882 21.38705825525178 a42.387850480134745,42.387850480134745 0 0,0 -0.7296641944014138,0.0 l 0.18408516253824408 -21.38705825525178" fill="#fdff18" stroke="none" /><path d="M 99.81925306533755 120.99922214144158 l -0.25908016140488316 30.099995178020514 a51.10111014974185,51.10111014974185 0 0,0 -0.879523861873887,-0.015141800903187312 l 0.7771637131714381 -30.091075899838167" fill="#95ff23" stroke="none" /><path d="M 99.45781275523022 120.99299961872073 l -0.6644277262780544 25.726040475823666 a46.73461914944856,46.73461914944856 0 0,0 -0.8040127033777271,-0.027691823169348852 l 1.1071607813304245 -25.710791854228226" fill="#c8ff1d" stroke="none" /><path d="M 99.09653310690486 120.98055641714683 l -0.7132506080594386 16.563301584510356 a37.578651507566605,37.578651507566605 0 0,0 -0.6460162651029989,-0.033391661845098376 l 0.9982549415759264 -16.548570115903058" fill="#ffc412" stroke="none" /><path d="M 98.73552117531835 120.96189622390904 l -1.5211739071762542 25.217258651029468 a46.26309767088736,46.26309767088736 0 0,0 -0.7944855153258823,-0.054792372708560036 l 1.9550221832810666 -25.187337933804624" fill="#cdff1d" stroke="none" /><path d="M 98.37488393609728 120.93702456842531 l -1.421220076691043 18.310150470951793 a39.365224658993036,39.365224658993036 0 0,0 -0.6751242544912917,-0.05825256145221932 l 1.7361886489238763 -18.28297365722091" fill="#ffdb14" stroke="none" /><path d="M 98.01472825383883 120.90594882070398 l -2.1217152557998555 22.342770270935745 a43.443285387984176,43.443285387984176 0 0,0 -0.7438471105656971,-0.07710279441746627 l 2.5059949629711458 -22.30293810806252" fill="#f0ff19" stroke="none" /><path d="M 97.65516085044442 120.86867818915974 l -1.2745780372000197 11.343532408327174 a32.414914658974965,32.414914658974965 0 0,0 -0.5539439978683638,-0.0670749037104145 l 1.469649458119773 -11.319911975891412" fill="#ff7e0b" stroke="none" /><path d="M 96.93821686468263 120.77559828337769 l -4.7303255747373925 32.09742151778665 a53.44411268833666,53.44411268833666 0 0,0 -0.9089676358828026,-0.1419620508613067 l 5.282129074228712 -32.01124115957823" fill="#7bff26" stroke="none" /><path d="M 96.58105272829116 120.7198165907248 l -2.7265504649328483 16.523690209041337 a37.74713156221668,37.74713156221668 0 0,0 -0.6401752252315865,-0.11130266871843093 l 3.010574661636485 -16.474308961801903" fill="#ffc612" stroke="none" /><path d="M 96.22490169976321 120.6578951692458 l -4.11875141939693 22.538415766484054 a43.91166293654132,43.91166293654132 0 0,0 -0.742383925737331,-0.1422796462561907 l 4.506102959705956 -22.464178921879395" fill="#eaff1a" stroke="none" /><path d="M 95.86986931433489 120.58985236759428 l -4.668364812627536 23.27309947447678 a44.73669709906309,44.73669709906309 0 0,0 -0.7537250200521765,-0.1579504062830392 l 5.0682812941090996 -23.1892930874672" fill="#e0ff1b" stroke="none" /><path d="M 95.51606077576429 120.51570834832081 l -3.59693180849926 16.457315820231052 a37.84580548509987,37.84580548509987 0 0,0 -0.635232564928323,-0.14457686363801006 l 3.8796845228204457 -16.392962223015353" fill="#ffc712" stroke="none" /><path d="M 95.16358092515715 120.4354850818985 l -1.8000056722772038 7.605624842249365 a28.815724512882397,28.815724512882397 0 0,0 -0.4816983541900912,-0.11838973579719313 l 1.9306573112105054 -7.573513848138142" fill="#ff4c07" stroke="none" /><path d="M 94.81253420990036 120.34920634021253 l -6.614397866829015 25.946724750502863 a47.77653421223647,47.77653421223647 0 0,0 -0.7951597769771668,-0.21000892419441988 l 7.060048086617671 -25.829024477004864" fill="#bcff1f" stroke="none" /><path d="M 94.46302465271185 120.25689768951611 l -7.092832563023339 25.9489657342256 a47.90087538432715,47.90087538432715 0 0,0 -0.7934867412720161,-0.22424727900830102 l 7.538450472399969 -25.823029661878778" fill="#baff1f" stroke="none" /><path d="M 94.11515582081647 120.15858648285463 l -5.1406151084339555 17.609223130324636 a39.344226965086854,39.344226965086854 0 0,0 -0.6484772173294979,-0.1953808660416496 l 5.442967300203699 -17.51812689517726" fill="#ffdb14" stroke="none" /><path d="M 93.76903079525671 120.05430185196036 l -1.5467559096673007 4.978215889778183 a26.212972979915655,26.212972979915655 0 0,0 -0.429741289461566,-0.13758959010295863 l 1.6322185442198072 -4.950853453015518" fill="#ff2603" stroke="none" /><path d="M 93.42475214034765 119.94407469862007 l -1.0616728135237024 3.220271288682701 a24.39076633457534,24.39076633457534 0 0,0 -0.3976046453895666,-0.13488908330301885 l 1.1169471918504947 -3.2015192184815593" fill="#ff0b01" stroke="none" /><path d="M 92.7421414339146 119.70592522655815 l -9.092912082752918 24.688307709892587 a47.309572169136764,47.309572169136764 0 0,0 -0.7617511996893179,-0.2880291232633647 l 9.516533503202519 -24.52813033652259" fill="#c1ff1e" stroke="none" /><path d="M 92.40401165467489 119.57807347666478 l -10.181548941143038 26.242156282221778 a49.14808528446372,49.14808528446372 0 0,0 -0.7860859999975554,-0.312799842365159 l 10.631756017182452 -26.063009595450556" fill="#acff21" stroke="none" /><path d="M 92.06813273071674 119.44442032107085 l -9.312583244973299 22.82914939732537 a45.65551193749501,45.65551193749501 0 0,0 -0.7251150601147094,-0.30309815393652223 l 9.70416976458547 -22.665466200368876" fill="#d5ff1c" stroke="none" /><path d="M 91.7346041902142 119.30500536409082 l -8.585075618958292 20.051662943823416 a42.81221470176592,42.81221470176592 0 0,0 -0.6749637695175478,-0.29588428119974364 l 8.928960063133584 -19.900914109329218" fill="#f7ff18" stroke="none" /><path d="M 91.40352486487194 119.15986991738527 l -1.513649710644962 3.3736305986550534 a24.6976369295426,24.6976369295426 0 0,0 -0.3863792457272013,-0.1773677610080798 l 1.5714969521395827 -3.3470757673128992" fill="#ff1001" stroke="none" /><path d="M 91.07499286063937 119.00905698771935 l -8.813612182510806 18.771800809675035 a41.73789442884256,41.73789442884256 0 0,0 -0.6477071932715744,-0.3109388138716742 l 9.135432043782622 -18.6173077193038" fill="#fff917" stroke="none" /><path d="M 90.42595943632237 118.69057910512821 l -3.6590502406605343 7.143250283706121 a29.02587523447415,29.02587523447415 0 0,0 -0.44272628093966465,-0.23161346565138038 l 3.7814674241266943 -7.0792073991100235" fill="#ff4f07" stroke="none" /><path d="M 90.10565033884886 118.52300852407294 l -2.523705843355549 4.724577809522134 a26.356372528308306,26.356372528308306 0 0,0 -0.3983291143989095,-0.2172007929393261 l 2.604657769623099 -4.680436364823042" fill="#ff2803" stroke="none" /><line stroke="#e1ed5e" stroke-width="0.3" x1="58.666819895761336" x2="56.23545636021788" y1="174.27360380694188" y2="178.64263932499728" /><path d="M 58.180547188652646 175.14741091055294 a86.0,86.0 0 0,1 -31.652253787137756,-30.449443065178592" fill="none" id="id116" stroke="none" /><text fill="#e1ed5e" style="font-size:6.75px; font-family:Arial;" text-anchor="middle"><textPath startOffset="22.20632615414155" xlink:href="#id116">August</textPath></text><path d="M 89.7882731507175 118.34994917583269 l -18.652132068607227 33.51692427063992 a59.357349273230255,59.357349273230255 0 0,0 -0.8885264731585006,-0.5045285205758969 l 19.226307308686934 -33.19089258426939" fill="#3dff2e" stroke="none" /><path d="M 89.4739219176387 118.17145234162733 l -9.450412080518026 16.314501126268414 a39.853997864925475,39.853997864925475 0 0,0 -0.5906592668348128,-0.34897190605735023 l 9.72983921838122 -16.149410647917314" fill="#ffe115" stroke="none" /><path d="M 89.1626897886671 117.98757091392108 l -9.64260099014061 16.004614219072646 a39.68495197094183,39.68495197094183 0 0,0 -0.5820852693684478,-0.35756431458400384 l 9.916665459441367 -15.836261437660266" fill="#ffdf14" stroke="none" /><path d="M 88.8546689885994 117.79835938074946 l -11.766601301815154 18.790487105809397 a43.17059565887816,43.17059565887816 0 0,0 -0.6264221958921078,-0.399812283558739 l 12.088305299754184 -18.585160393426854" fill="#f3ff19" stroke="none" /><path d="M 88.24862548938628 117.40417183066458 l -9.638179035847685 14.274459887487815 a38.223666862969466,38.223666862969466 0 0,0 -0.5421264771239819,-0.37287953433901266 l 9.882462397594558 -14.106439563783702" fill="#ffcc13" stroke="none" /><path d="M 87.95078237400918 117.19931262002967 l -10.884398504010639 15.536624730526297 a39.969892957297105,39.969892957297105 0 0,0 -0.5600974860065607,-0.3996146847550883 l 11.150223317866086 -15.34696578392699" fill="#ffe315" stroke="none" /><path d="M 87.65650970185807 116.9893568818739 l -14.206839412132423 19.55403691389639 a45.17011886011613,45.17011886011613 0 0,0 -0.6251007347014104,-0.4624345794841523 l 14.541325117252397 -19.30659238567247" fill="#dbff1b" stroke="none" /><path d="M 87.07902340077011 116.55440617244103 l -13.173885283714245 16.87843377634068 a42.411043417142956,42.411043417142956 0 0,0 -0.5716251459648156,-0.4541335874367336 l 13.462467922396419 -16.649166274898818" fill="#fcff18" stroke="none" /><path d="M 86.79598089348748 116.32954008644616 l -13.564465337811217 16.775307480110218 a42.573262640428865,42.573262640428865 0 0,0 -0.5658794918217196,-0.4656802968896067 l 13.851214958177627 -16.53933206436343" fill="#faff18" stroke="none" /><path d="M 86.51685102203217 116.09983520530335 l -14.002762296522853 16.720290323976773 a42.80929756894965,42.80929756894965 0 0,0 -0.560872175462092,-0.47798743579079 l 14.288499948562002 -16.476778497963032" fill="#f7ff18" stroke="none" /><path d="M 85.97065885151581 115.62618273729859 l -23.420859869437088 26.086658832444844 a56.05781576288205,56.05781576288205 0 0,0 -0.7124693468103466,-0.6508238558260812 l 23.86642876571429 -25.679642210032185" fill="#5fff29" stroke="none" /><path d="M 85.70375840098266 115.38237550388516 l -16.023063384298364 17.240389790053065 a44.53655880391628,44.53655880391628 0 0,0 -0.5570551455873802,-0.5267304097819467 l 16.31745436427656 -16.962024743525188" fill="#e2ff1b" stroke="none" /><path d="M 84.67929136418377 114.36230785411682 l -14.50276631168524 13.595532651655358 a40.878851545639634,40.878851545639634 0 0,0 -0.47682959633875116,-0.5175043518366872 l 14.73464231601972 -13.343877045017326" fill="#ffee16" stroke="none" /><path d="M 84.43433777217949 114.09645910891817 l -11.022058082767765 9.981714159398914 a35.870117078888484,35.870117078888484 0 0,0 -0.4105269143804212,-0.46123134027234625 l 11.192243846796524 -9.790508649385703" fill="#ffad10" stroke="none" /><path d="M 83.95833913139862 113.55231037782056 l -12.326362865229143 10.413553605674213 a37.13633540130938,37.13633540130938 0 0,0 -0.4083299234979814,-0.4918596973296152 l 12.50378878862066 -10.199832651230837" fill="#ffbe11" stroke="none" /><path d="M 83.50135304334701 112.99209946851258 l -12.511471427754067 9.85234011697465 a36.92499679962462,36.92499679962462 0 0,0 -0.3889313126819813,-0.5027461501100189 l 12.679209557654117 -9.63551597275138" fill="#ffbb11" stroke="none" /><path d="M 82.05923443525364 110.91462005526583 l -18.40321605339641 11.195960969050775 a42.54130690391128,42.54130690391128 0 0,0 -0.3752125529235814,-0.6288778208856448 l 18.59320948201822 -10.87752105427902" fill="#fbff18" stroke="none" /><line stroke="#e1ed5e" stroke-width="0.3" x1="26.63291911575756" x2="22.317208475507996" y1="142.92168965132927" y2="145.44649492493687" /><path d="M 25.769776987707644 143.4266507060508 a86.0,86.0 0 0,1 -11.730757126820373,-40.83630448921669" fill="none" id="id117" stroke="none" /><text fill="#e1ed5e" style="font-size:6.75px; font-family:Arial;" text-anchor="middle"><textPath startOffset="21.46611528233685" xlink:href="#id117">September</textPath></text><line stroke="#e1ed5e" stroke-width="0.3" x1="15.007084014347285" x2="10.007500721073583" y1="101.09737516637583" y2="101.16192664675087" /><path d="M 14.007167355692545 101.11028546245083 a86.0,86.0 0 0,1 10.666146001902534,-42.60595125391555" fill="none" id="id118" stroke="none" /><text fill="#e1ed5e" style="font-size:6.75px; font-family:Arial;" text-anchor="middle"><textPath startOffset="22.20632615414155" xlink:href="#id118">October</textPath></text><line stroke="#e1ed5e" stroke-width="0.3" x1="26.266209847984243" x2="21.928928074336255" y1="57.711370442889674" y2="55.22380399835377" /><path d="M 25.398753493254645 57.213857153982495 a86.0,86.0 0 0,1 29.58750427330803,-30.492523968695096" fill="none" id="id119" stroke="none" /><text fill="#e1ed5e" style="font-size:6.75px; font-family:Arial;" text-anchor="middle"><textPath startOffset="21.46611528233685" xlink:href="#id119">November</textPath></text><line stroke="#e1ed5e" stroke-width="0.3" x1="56.762969772571076" x2="54.21961505331055" y1="26.818313649435495" y2="22.513508569990535" /><path d="M 56.25429882871897 25.957352633546506 a86.0,86.0 0 0,1 42.265352541879196,-11.944610805530505" fill="none" id="id120" stroke="none" /><text fill="#e1ed5e" style="font-size:6.75px; font-family:Arial;" text-anchor="middle"><textPath startOffset="22.20632615414155" xlink:href="#id120">December</textPath></text></svg>