<?xml version="1.0" encoding="utf-8" ?>
<svg baseProfile="full" height="200mm" version="1.1" viewBox="0,0,200,200" width="200mm" xmlns="http://www.w3.org/2000/svg" xmlns:ev="http://www.w3.org/2001/xml-events" xmlns:xlink="http://www.w3.org/1999/xlink"><defs /><rect fill="#1a1a1a" height="200" width="200" x="0" y="0" /><text alignment-baseline="middle" fill="#e1ed5e" style="dominant-baseline: central; font-size:9.0px; font-family:Arial;" text-anchor="middle" x="100.0" y="100.0">2021</text><line stroke="#e1ed5e" stroke-width="0.3" x1="100.0" x2="100.0" y1="15.0" y2="10.0" /><path d="M 100.0 14.0 a86.0,86.0 0 0,1 42.46469731375804,11.215312516191453" fill="none" id="id37" stroke="none" /><text fill="#e1ed5e" style="font-size:6.75px; font-family:Arial;" text-anchor="middle"><textPath startOffset="22.20632615414155" xlink:href="#id37">January</textPath></text><path d="M 100.0 79.0 l 0.0 -42.474110259616864 a63.474110259616864,63.474110259616864 0 0,0 1.0926024665735055,0.009404374376707544 l -0.7311219873009771 42.467817261848715" fill="#31ff3e" stroke="none" /><path d="M 100.36148047927253 79.00311137660856 l 0.559676906757708 -32.50928985135081 a53.514107167183575,53.514107167183575 0 0,0 0.920884427216551,0.02378372788130314 l -1.1191879691691267 32.49483933132714" fill="#94ff23" stroke="none" /><path d="M 103.59715602781102 79.31037775812273 l 5.4587943108928565 -31.397134657294636 a52.86814239984703,52.86814239984703 0 0,0 0.8952461607434379,0.16360051360641287 l -5.998435592739195 31.298518662337482" fill="#9cff22" stroke="none" /><path d="M 103.95276090670814 79.375362276772 l 5.86702568135155 -30.612850624330903 a52.169995407334206,52.169995407334206 0 0,0 0.880514228109764,0.17662287071103203 l -6.39310631892844 30.50732379754266" fill="#a5ff21" stroke="none" /><path d="M 105.71112130821622 79.79150937346287 l 8.617159358224832 -30.491347446523267 a52.68560721383832,52.68560721383832 0 0,0 0.8705914803991939,0.254149526318792 l -9.140741056347451 30.33849959128577" fill="#9eff22" stroke="none" /><line stroke="#e1ed5e" stroke-width="0.3" x1="143.23703022742887" x2="145.7803849466894" y1="26.81831364943548" y2="22.513508569990506" /><path d="M 143.74570117128098 25.957352633546492 a86.0,86.0 0 0,1 28.547481713284135,27.462654790039103" fill="none" id="id38" stroke="none" /><text fill="#e1ed5e" style="font-size:6.75px; font-family:Arial;" text-anchor="middle"><textPath startOffset="19.985693538727396" xlink:href="#id38">February</textPath></text><path d="M 112.19680574252982 82.90503203632743 l 19.618590842841975 -27.497296343855723 a54.77854959705441,54.77854959705441 0 0,0 0.7628687330002306,0.5542565778102309 l -20.089004892195995 27.155520531228817" fill="#85ff25" stroke="none" /><path d="M 113.06298171725822 83.55741782278167 l 19.269854467628186 -24.255271306734763 a51.97814515697931,51.97814515697931 0 0,0 0.6957561882165922,0.5625864509381622 l -19.68451405440927 23.91997875853247" fill="#a7ff21" stroke="none" /><path d="M 113.34407831869373 83.78471172551755 l 20.370038113444426 -24.753005211980067 a53.05697614821914,53.05697614821914 0 0,0 0.7002067167247055,0.5864029883897807 l -20.79310236712825 24.398701066196466" fill="#9aff23" stroke="none" /><path d="M 114.94478906791727 85.2469230424477 l 23.748897691846018 -23.444246266211678 a54.37128742749595,54.37128742749595 0 0,0 0.6517712416176468,0.6717075567965889 l -24.148933197166777 23.031974513864974" fill="#8aff24" stroke="none" /><path d="M 115.19652480421416 85.50635884689758 l 27.56393074994942 -26.289018456900482 a59.09045510118331,59.09045510118331 0 0,0 0.6956710219356985,0.7420933419417236 l -28.012369093855582 25.810655698080705" fill="#53ff2b" stroke="none" /><path d="M 115.4437574822437 85.77008943001954 l 24.099897574863075 -22.2056962258234 a53.77038309193896,53.77038309193896 0 0,0 0.6213202573224277,0.6860773465206482 l -24.478561472801537 21.787566092033202" fill="#91ff24" stroke="none" /><path d="M 116.82858285166822 87.43820079747576 l 30.610369255433394 -22.84929845199404 a59.197973057510254,59.197973057510254 0 0,0 0.6025152431333797,0.8218301145136807 l -30.9991471110804 22.319005893808868" fill="#52ff2b" stroke="none" /><path d="M 117.04232023915458 87.72973835380427 l 27.100642041809376 -19.512130036666257 a54.39413148512863,54.39413148512863 0 0,0 0.5405413713178392,0.764557435803715 l -27.4324960329311 19.042746100530746" fill="#8aff24" stroke="none" /><line stroke="#e1ed5e" stroke-width="0.3" x1="172.23445277983987" x2="176.4835382374775" y1="55.19839476539836" y2="52.563006222186495" /><path d="M 173.08426987136738 54.67131705675599 a86.0,86.0 0 0,1 12.851231095245387,41.99856678651699" fill="none" id="id39" stroke="none" /><text fill="#e1ed5e" style="font-size:6.75px; font-family:Arial;" text-anchor="middle"><textPath startOffset="22.20632615414155" xlink:href="#id39">March</textPath></text><path d="M 117.84615892207809 88.93136811851018 l 26.764244274372373 -16.59985035170826 a52.494123313364085,52.494123313364085 0 0,0 0.4696579263521873,0.7719941426861091 l -27.046017999010786 16.136688435815067" fill="#a1ff22" stroke="none" /><path d="M 118.21658344932153 89.55222093294921 l 28.22731696210895 -16.189247127276964 a53.54033105897064,53.54033105897064 0 0,0 0.4516314537985746,0.8034019619158079 l -28.501806057199957 15.70096165542636" fill="#94ff23" stroke="none" /><path d="M 118.3937258080291 89.86733742301442 l 28.951908972632296 -15.948912560783585 a54.05421070047063,54.05421070047063 0 0,0 0.44193667525759045,0.8188415407035144 l -29.22215374710835 15.448190036747611" fill="#8eff24" stroke="none" /><path d="M 118.56541770881063 90.18545643968196 l 29.894832935118753 -15.803799552051668 a54.81510189989215,54.81510189989215 0 0,0 0.4337977550537647,0.8379591877116275 l -30.162440123332637 15.286867642079695" fill="#85ff25" stroke="none" /><path d="M 119.04729006885535 91.15688171328212 l 27.55813005606425 -12.794460680000375 a51.38336314957624,51.38336314957624 0 0,0 0.3655502571989347,0.8054415362150612 l -27.774282630226534 12.31819713494325" fill="#aeff20" stroke="none" /><path d="M 119.196687751892 91.48605970444005 l 34.178977495647146 -15.15874913017462 a58.389706843455244,58.389706843455244 0 0,0 0.39957825347461523,0.9222817003481714 l -34.434846458964444 14.568168285239846" fill="#5bff2a" stroke="none" /><path d="M 119.47837535516314 92.15188598940014 l 35.70405962781474 -14.385672598000852 a59.49321303818925,59.49321303818925 0 0,0 0.37454221437670177,0.9531690823164699 l -35.94639539207314 13.768954510788598" fill="#4fff2b" stroke="none" /><path d="M 119.61058180528143 92.48833698450437 l 39.71917863605753 -15.214086360557928 a63.53329960524534,63.53329960524534 0 0,0 0.3823960736883102,1.024631362118095 l -39.97517929824746 14.5281318614105" fill="#31ff3f" stroke="none" /><path d="M 119.85752413597 93.16781622104841 l 36.13052956044381 -12.431077323514318 a59.209250839833224,59.209250839833224 0 0,0 0.32329013976387494,0.9665963687483047 l -36.33915699397946 11.8073078518437" fill="#52ff2b" stroke="none" /><path d="M 119.97218684219823 93.5106431181261 l 35.69915582659602 -11.59935886694877 a58.53631378886115,58.53631378886115 0 0,0 0.3031191964267708,0.9609706874628946 l -35.893530506790995 10.983138013059454" fill="#5aff2a" stroke="none" /><path d="M 120.08093135843002 93.85539295169968 l 35.463060188536176 -10.851417481555211 a58.086141607003846,58.086141607003846 0 0,0 0.2843291817492659,0.9586166532508203 l -35.64459526739714 10.23937144155786" fill="#5fff29" stroke="none" /><path d="M 120.18372546131832 94.20196356495316 l 41.18135916043814 -11.829878548168432 a63.84682448869949,63.84682448869949 0 0,0 0.29434367942064815,1.0589108229527662 l -41.378889610425155 11.119256421796713" fill="#31ff43" stroke="none" /><path d="M 120.28053869075195 94.5502522615342 l 35.193022239669396 -9.457001921150823 a57.441510667074645,57.441510667074645 0 0,0 0.24837618435626257,0.9570947573468217 l -35.35059475589596 8.849810738255151" fill="#66ff29" stroke="none" /><path d="M 120.6074358757038 95.95851677861258 l 36.00344233623514 -7.06091281767071 a57.68929475851717,57.68929475851717 0 0,0 0.18272198471492945,0.9761081487345343 l -36.11965004485993 6.440126591473613" fill="#63ff29" stroke="none" /><path d="M 120.67395015179393 96.31383870115 l 31.92538843756681 -5.69229056108081 a53.42888525252285,53.42888525252285 0 0,0 0.15364147244997448,0.9068006675448328 l -32.018641771537006 5.1419041052201395" fill="#95ff23" stroke="none" /><path d="M 120.73433829027371 96.67025291283417 l 30.324933777545237 -4.869909929155737 a51.71347637976844,51.71347637976844 0 0,0 0.13357863444611465,0.8801163028295397 l -30.40426830543065 4.347194513934116" fill="#aaff21" stroke="none" /><path d="M 120.78858239683441 97.02765380044208 l 31.32794423048346 -4.47926146169636 a52.646545987682764,52.646545987682764 0 0,0 0.12054555080349563,0.8982043705255178 l -31.40040578034479 3.939338749106178" fill="#9fff22" stroke="none" /><path d="M 120.87857604477298 97.74499172005257 l 32.06006848283751 -3.4626748361308692 a53.246520868847306,53.246520868847306 0 0,0 0.0905770844217343,0.9120988791133965 l -32.11492269294147 2.9103004263130376" fill="#97ff23" stroke="none" /><path d="M 120.91429891909075 98.10471618934814 l 35.00275629160436 -3.172000055288229 a56.14618802032729,56.14618802032729 0 0,0 0.0789402468032316,0.9632709593123723 l -35.052171022227085 2.569015178768088" fill="#75ff27" stroke="none" /><path d="M 120.94382443527127 98.46500227214037 l 37.12795892754381 -2.7211521357993744 a58.22754360781202,58.22754360781202 0 0,0 0.06465866210470475,1.0002408841585382 l -37.16929818065292 2.081652187387801" fill="#5dff2a" stroke="none" /><path d="M 120.96714384426684 98.82574320788733 l 32.9148686652574 -1.843384505717661 a53.96644727123418,53.96644727123418 0 0,0 0.04396053282228986,0.9279373678408659 l -32.94172280631319 1.2765360312537954" fill="#8fff24" stroke="none" /><line stroke="#e1ed5e" stroke-width="0.3" x1="184.98032266829074" x2="189.97916517819016" y1="98.17113171792111" y2="98.06355123074" /><path d="M 185.9800911702706 98.14961562048488 a86.0,86.0 0 0,1 -9.607161424134198,41.387399972396054" fill="none" id="id40" stroke="none" /><text fill="#e1ed5e" style="font-size:6.75px; font-family:Arial;" text-anchor="middle"><textPath startOffset="21.466115282336823" xlink:href="#id40">April</textPath></text><path d="M 120.99824983174949 100.27111621757518 l 31.767760671274605 0.41016537964069527 a52.770408459855176,52.770408459855176 0 0,0 -0.019544996623205038,0.9081791924908162 l -31.755993611966392 -0.9569343879216264" fill="#9dff22" stroke="none" /><path d="M 120.9764740272857 100.99374915477107 l 37.60680902289276 1.7816023146466005 a58.64898659581533,58.64898659581533 0 0,0 -0.056452858849990885,1.008003717652114 l -37.57056981315524 -2.4286777486341378" fill="#58ff2a" stroke="none" /><path d="M 120.89721153311464 102.0752229133903 l 32.50354010992576 3.2278034366226818 a53.663417376371164,53.663417376371164 0 0,0 -0.09919477886377091,0.9184204564428282 l -32.443163029560935 -3.7868202149503016" fill="#92ff23" stroke="none" /><path d="M 120.8583938346157 102.4346265915055 l 36.13887038856335 4.218189354970935 a57.38421463211444,57.38421463211444 0 0,0 -0.12296205007143259,0.9801285225095686 l -36.06090682924506 -4.839635631767899" fill="#67ff28" stroke="none" /><path d="M 120.76222939487914 103.15116336523771 l 36.3261772514436 5.513363559219391 a57.74218735240768,57.74218735240768 0 0,0 -0.15760385135151467,0.9813993328105062 l -36.225891645730805 -6.137842121723103" fill="#63ff29" stroke="none" /><path d="M 120.70491114924044 103.5080841355445 l 36.1229675263026 6.12040343445087 a57.637796346215346,57.637796346215346 0 0,0 -0.17415824923317494,0.9767719508893077 l -36.012262834730244 -6.741294136073397" fill="#64ff29" stroke="none" /><path d="M 120.64145759157962 103.86396538481128 l 37.51901610066956 7.023349918094134 a59.17072193755699,59.17072193755699 0 0,0 -0.1960243376701991,0.999523874610855 l -37.392561830023695 -7.668137519772934" fill="#52ff2b" stroke="none" /><path d="M 120.5718875245553 104.21870165774334 l 36.03145017764619 7.389012720096445 a57.78128479107203,57.78128479107203 0 0,0 -0.2081941170215801,0.972613603334412 l -35.89892202190017 -8.008140142847026" fill="#62ff29" stroke="none" /><path d="M 120.49622156327973 104.57218783832717 l 35.80303019442283 7.9867491051851225 a57.68303602991345,57.68303602991345 0 0,0 -0.224522796213936,0.9672383297821204 l -35.66024683227835 -8.601856092315808" fill="#63ff29" stroke="none" /><path d="M 120.41448212921028 104.9243191809786 l 35.429431206037805 8.546179450196165 a57.44560026640144,57.44560026640144 0 0,0 -0.24014636890088972,0.9592653696444058 l -35.27707352284185 -9.154772659237967" fill="#66ff29" stroke="none" /><path d="M 120.23288151984713 105.62410040840565 l 37.44384156318363 10.408202332485608 a59.86350404689156,59.86350404689156 0 0,0 -0.2845151659846935,0.9904346176758894 l -37.25913376031284 -11.05119442566608" fill="#4bff2c" stroke="none" /><path d="M 120.13307415673323 105.97154293290107 l 31.253220273469363 9.269818667608734 a53.59897721696716,53.59897721696716 0 0,0 -0.2699684195528037,0.8822724153667787 l -31.089025081410426 -9.806418055527569" fill="#93ff23" stroke="none" /><path d="M 120.02730092923936 106.31721596034902 l 34.83258925340258 10.987251330039003 a57.524361265950986,57.524361265950986 0 0,0 -0.3059960432736942,0.9417589848242217 l -34.63830095911264 -11.58520921484102" fill="#65ff29" stroke="none" /><path d="M 119.9155931802556 106.66101706037122 l 34.84875269050481 11.655597405667177 a57.74627212339997,57.74627212339997 0 0,0 -0.32340433716948314,0.9399643860291189 l -34.642957522392095 -12.253734494785595" fill="#63ff29" stroke="none" /><path d="M 119.79798401119884 107.00284435728193 l 35.934700254320774 12.710643304098191 a59.116441801037745,59.116441801037745 0 0,0 -0.34759268276784,0.9564257778600672 l -35.710583310547705 -13.327316878964389" fill="#53ff2b" stroke="none" /><path d="M 119.67450827220406 107.3425965602758 l 36.134781699890254 13.485629228699787 a59.56921886936117,59.56921886936117 0 0,0 -0.3667924171407056,0.9575792586883204 l -35.897295003156046 -14.105632054221251" fill="#4eff2b" stroke="none" /><path d="M 119.26925614724726 108.34839909993367 l 36.21064501706288 15.688250441968979 a60.46304618857597,60.46304618857597 0 0,0 -0.42197135539241143,0.9514340092254471 l -35.9352325769392 -16.30923278768711" fill="#44ff2d" stroke="none" /><path d="M 119.12269723197855 108.67885076344098 l 34.566354035816936 15.687966214904186 a58.95978286673164,58.95978286673164 0 0,0 -0.42738931132993196,0.920558554266606 l -34.291190107647175 -16.28064483644962" fill="#55ff2b" stroke="none" /><path d="M 118.81262510543309 109.33194174019688 l 38.00198636609976 18.850762229763518 a63.42053988827005,63.42053988827005 0 0,0 -0.49353661863876547,0.9737945704054265 l -37.67187107767472 -19.502111011871637" fill="#31ff3d" stroke="none" /><line stroke="#e1ed5e" stroke-width="0.3" x1="174.80103733775053" x2="179.2010983576182" y1="140.37084112569926" y2="142.7455964860345" /><path d="M 175.68104954172406 140.8457921977663 a86.0,86.0 0 0,1 -30.038265399797805,32.042727171017184" fill="none" id="id41" stroke="none" /><text fill="#e1ed5e" style="font-size:6.75px; font-family:Arial;" text-anchor="middle"><textPath startOffset="22.206326154141568" xlink:href="#id41">May</textPath></text><path d="M 118.48025628344425 109.97397251340804 l 31.998952302204742 17.27014310975576 a57.36194152503712,57.36194152503712 0 0,0 -0.4764417048395012,0.8648800861318059 l -31.696934187913733 -17.81839371428537" fill="#67ff28" stroke="none" /><path d="M 117.94076556474637 110.91462005526583 l 43.69662451603342 26.583706953246793 a72.14771226038673,72.14771226038673 0 0,0 -0.6546043025078532,1.0554305661901637 l -43.2325555738576 -27.33193385080223" fill="#3dffab" stroke="none" /><path d="M 117.75023020441432 111.22182372390056 l 37.82805824455939 23.915171609003632 a65.75374200714249,65.75374200714249 0 0,0 -0.6130601380837452,0.9514829485860958 l -37.41079324309859 -24.56277615751118" fill="#34ff5c" stroke="none" /><path d="M 117.35343817320211 111.8261652097733 l 37.396722919011324 25.485429407718126 a66.25507703205344,66.25507703205344 0 0,0 -0.6503695940614419,0.9369059071019228 l -36.952492417787745 -26.12537657700707" fill="#35ff62" stroke="none" /><path d="M 116.93607887273984 112.41649034213515 l 29.33571953227365 21.507143476897074 a57.37501424071279,57.37501424071279 0 0,0 -0.5907952572744185,0.7914667935001969 l -28.96116300830414 -22.008923149906582" fill="#67ff28" stroke="none" /><path d="M 116.71984013943494 112.70617746262583 l 34.033289446668675 25.863465902784494 a63.74556888222715,63.74556888222715 0 0,0 -0.6714326318716514,0.8679171867237242 l -33.58304999757896 -26.44546108362147" fill="#31ff41" stroke="none" /><path d="M 116.498646956653 112.99209946851258 l 26.695939502496643 21.022105772253667 a54.97943667897956,54.97943667897956 0 0,0 -0.5918983732586498,0.7384842291755797 l -26.33012321718314 -21.478517835007494" fill="#83ff25" stroke="none" /><path d="M 116.0416608686014 113.55231037782055 l 27.848393726902582 23.526870341053367 a57.45609223728352,57.45609223728352 0 0,0 -0.6447599288813378,0.7500014607108082 l -27.439291288450466 -24.002748900925706" fill="#66ff29" stroke="none" /><path d="M 115.80600337817218 113.82643327865902 l 32.037763687337026 28.025300983558033 a63.56566453498253,63.56566453498253 0 0,0 -0.727497377962168,0.8173510162872484 l -31.550607459726518 -28.572626169586147" fill="#31ff3f" stroke="none" /><path d="M 115.56566222782051 114.09645910891815 l 24.313863408296537 22.01893991392768 a53.80240339930077,53.80240339930077 0 0,0 -0.627575808148662,0.681109592017929 l -23.931241192152154 -22.434200760746943" fill="#91ff24" stroke="none" /><path d="M 115.32070863581623 114.36230785411682 l 24.68076937733278 23.136841532580156 a54.82977701908207,54.82977701908207 0 0,0 -0.6514128645530088,0.6830037841695175 l -24.27884996140081 -23.55825243333218" fill="#84ff25" stroke="none" /><path d="M 114.81725581225074 114.88116024355365 l 34.671166378301365 34.8206975194309 a70.13828195787431,70.13828195787431 0 0,0 -0.8628680230522286,0.8444979702017212 l -34.06664840287334 -35.41234559255519" fill="#3aff93" stroke="none" /><path d="M 114.55890576462653 115.13401014063108 l 22.638036768354347 23.532282134051062 a53.65346859312104,53.65346859312104 0 0,0 -0.6710877885738641,0.6345553912843716 l -22.229613145389678 -23.918472162081354" fill="#93ff23" stroke="none" /><path d="M 113.48314897796784 116.09983520530334 l 33.341513120426285 39.81212902204593 a72.92939547527575,72.92939547527575 0 0,0 -0.969370132587005,0.7977256247364786 l -32.651272859294586 -40.38014976563959" fill="#3effb4" stroke="none" /><path d="M 113.20401910651253 116.32954008644616 l 23.700990033411774 29.31124710719088 a58.69464332690641,58.69464332690641 0 0,0 -0.7910990005384946,0.628496891132695 l -23.192933540155927 -29.7148779123287" fill="#58ff2a" stroke="none" /><path d="M 112.63410532772338 116.77436683061366 l 22.13745764105713 29.392016730572745 a57.79616390739484,57.79616390739484 0 0,0 -0.7998301849352885,0.5916952495759775 l -21.628242485703275 -29.768721928888493" fill="#62ff29" stroke="none" /><path d="M 112.34349029814194 116.9893568818739 l 21.97651767333191 30.24808160048925 a58.38868504716535,58.38868504716535 0 0,0 -0.8181997320104393,0.5837637842391904 l -21.452590613472584 -30.62188964657266" fill="#5bff2a" stroke="none" /><path d="M 111.7513745106137 117.40417183066458 l 27.614794685135504 40.89841842199289 a70.34832839035782,70.34832839035782 0 0,0 -1.0094157735887859,0.6689857329748687 l -26.906704212806755 -41.36770217605908" fill="#3aff95" stroke="none" /><path d="M 111.45004920935366 117.60387380957326 l 20.52384383708041 31.55437591483906 a58.64182255449168,58.64182255449168 0 0,0 -0.8509157377851607,0.5430946835391982 l -19.97764629724832 -31.902985027202067" fill="#58ff2a" stroke="none" /><path d="M 111.1453310114006 117.79835938074945 l 3.651033898114704 5.830460608435346 a27.87926736155086,27.87926736155086 0 0,0 -0.40892353514314134,0.2511942343419331 l -3.5501311630392536 -5.892443309605658" fill="#ff0000" stroke="none" /><line stroke="#e1ed5e" stroke-width="0.3" x1="143.8653032363475" x2="146.44561519142675" y1="172.8068346515853" y2="177.08958963109032" /><path d="M 144.38136562736335 173.6633856474863 a86.0,86.0 0 0,1 -40.68145358897372,12.25698825130547" fill="none" id="id42" stroke="none" /><text fill="#e1ed5e" style="font-size:6.75px; font-family:Arial;" text-anchor="middle"><textPath startOffset="21.466115282336833" xlink:href="#id42">June</textPath></text><path d="M 110.8373102113329 117.98757091392108 l 25.07835192191751 41.62459363099456 a69.59558138416472,69.59558138416472 0 0,0 -1.031446712438623,0.6093968984269884 l -24.358137338450504 -42.0501091017153" fill="#39ff8c" stroke="none" /><path d="M 110.5260780823613 118.17145234162733 l 16.39330691963515 28.30020764438359 a53.705385863441286,53.705385863441286 0 0,0 -0.8039216318640748,0.45648768363819925 l -15.903736520849876 -28.57819849381642" fill="#92ff23" stroke="none" /><path d="M 110.21172684928248 118.3499491758327 l 20.71802599697779 37.22922965715983 a63.60577592389319,63.60577592389319 0 0,0 -0.9612867767446678,0.5241701964620494 l -20.074116408364475 -37.58034050538165" fill="#31ff40" stroke="none" /><path d="M 109.57404056367764 118.69057910512821 l 13.833164376330007 27.00530161016175 a51.34209537455135,51.34209537455135 0 0,0 -0.7900474996031088,0.39614621741805184 l -13.366262969044138 -27.239415668489105" fill="#afff20" stroke="none" /><path d="M 109.2508944713604 118.85261126421891 l 21.872536254037353 44.574546238366295 a70.65176748657024,70.65176748657024 0 0,0 -1.096405524155537,0.5263412800486352 l -21.102018061881584 -44.94444179491449" fill="#3bff99" stroke="none" /><path d="M 108.92500713936063 119.00905698771935 l 15.467967627240872 32.94467707635735 a57.39518883290533,57.39518883290533 0 0,0 -0.8979122105038959,0.4121874560294987 l -14.898587420969557 -33.20605160272092" fill="#67ff28" stroke="none" /><path d="M 108.59647513512805 119.15986991738527 l 13.019131379263762 29.01710989016044 a52.803937621750194,52.803937621750194 0 0,0 -0.8324900972963384,0.3649391940259272 l -12.51772060730967 -29.236913637480825" fill="#9dff22" stroke="none" /><path d="M 106.91757812671514 119.82793768551818 l 16.53513504604903 47.39485717530648 a71.19644586680195,71.19644586680195 0 0,0 -1.1606046822620273,0.3937401222114215 l -15.716860630849778 -47.67246028441602" fill="#3bff9f" stroke="none" /><path d="M 106.57524785965236 119.94407469862006 l 12.514831793039288 37.96005039637199 a60.969819125224575,60.969819125224575 0 0,0 -0.999552729451475,0.32002521913552784 l -11.859557718496873 -38.169848462167224" fill="#3fff2d" stroke="none" /><path d="M 105.53697534728816 120.25689768951611 l 16.21157026367124 59.30965908642315 a82.48536957164433,82.48536957164433 0 0,0 -1.372829761595971,0.36257681749303333 l -15.188250059263773 -59.57992725321977" fill="#4be1ff" stroke="none" /><path d="M 105.18746579009965 120.34920634021253 l 12.109380137802997 47.502245806904995 a70.02142841677954,70.02142841677954 0 0,0 -1.170513925871373,0.28768384451685547 l -11.289912927188414 -47.70365090973588" fill="#3aff91" stroke="none" /><path d="M 104.83641907484287 120.43548508189849 l 7.065299325666452 29.853248185176188 a51.677921731548054,51.677921731548054 0 0,0 -0.8674012443630202,0.19741769920102628 l -6.550377931910569 -29.9704426179549" fill="#abff21" stroke="none" /><path d="M 104.48393922423573 120.51570834832081 l 6.857671385746283 31.376425741492046 a53.117094344698245,53.117094344698245 0 0,0 -0.8949181677721684,0.1875388031830208 l -6.316561756544736 -31.48982052540161" fill="#99ff23" stroke="none" /><path d="M 104.13013068566511 120.58985236759428 l 6.3324402973517735 31.56897947602863 a53.197830133060855,53.197830133060855 0 0,0 -0.8993786919880886,0.172368066858845 l -5.78809399079198 -31.673304741235942" fill="#98ff23" stroke="none" /><path d="M 103.06178313531738 120.77559828337769 l 7.085212578929751 48.0764063902 a69.5956900216911,69.5956900216911 0 0,0 -1.1866774653995988,0.16446268367469352 l -6.256606522343321 -48.1912436393673" fill="#39ff8c" stroke="none" /><path d="M 102.34483914955558 120.86867818915974 l 5.480554053146686 48.776018967053616 a70.08295527985084,70.08295527985084 0 0,0 -1.1999783929610301,0.12438266684604198 l -4.6401430635800525 -48.863131002355416" fill="#3aff92" stroke="none" /><path d="M 101.98527174616119 120.90594882070398 l 5.266970362108571 55.4639499823246 a76.71346986534886,76.71346986534886 0 0,0 -1.315656765608019,0.11352040173161608 l -4.311469278759011 -55.54639463633488" fill="#43ffdf" stroke="none" /><path d="M 101.62511606390274 120.93702456842531 l 2.4159014979640117 31.1250317077633 a52.21865113769548,52.21865113769548 0 0,0 -0.8967614372450794,0.06184591909147885 l -1.8797772999400018 -31.162005971371062" fill="#a4ff21" stroke="none" /><path d="M 100.90346689309514 120.98055641714683 l 1.1196891096956214 26.00172813765742 a47.0258250560288,47.0258250560288 0 0,0 -0.8090225494500671,0.027864372397686472 l -0.671946208570902 -26.017149308481198" fill="#e6ff1a" stroke="none" /><line stroke="#e1ed5e" stroke-width="0.3" x1="102.19456741930631" x2="102.32365962044197" y1="184.97166512339345" y2="189.96999836594603" /><path d="M 102.22038585953345 185.97133177190398 a86.0,86.0 0 0,1 -42.740103519485714,-10.115201625700543" fill="none" id="id43" stroke="none" /><text fill="#e1ed5e" style="font-size:6.75px; font-family:Arial;" text-anchor="middle"><textPath startOffset="22.20632615414155" xlink:href="#id43">July</textPath></text><path d="M 100.18074693466247 120.99922214144158 l 0.3352660766400597 38.951293049598355 a59.95273589335972,59.95273589335972 0 0,0 -1.0320260226050035,0.0 l 0.3352660766400329 -38.951293049598355" fill="#4aff2c" stroke="none" /><path d="M 99.81925306533755 120.99922214144158 l -0.3384268435488866 39.31851170578355 a60.31996815215231,60.31996815215231 0 0,0 -1.0381937140275392,-0.01787344630224445 l 1.0151802474690936 -39.30686078220214" fill="#46ff2d" stroke="none" /><path d="M 99.45781275523022 120.99299961872073 l -1.0518008091397868 40.724775800687375 a61.73835599233674,61.73835599233674 0 0,0 -1.0621338829093863,-0.036582038497820324 l 1.7526550437238162 -40.70063696376346" fill="#36ff2e" stroke="none" /><path d="M 99.09653310690486 120.98055641714683 l -1.6489883226705888 38.29325988524462 a59.328747894070176,59.328747894070176 0 0,0 -1.0199231369451156,-0.05271837620285509 l 2.307899528029193 -38.25920170227957" fill="#51ff2b" stroke="none" /><path d="M 98.73552117531835 120.96189622390904 l -2.6101244311801626 43.26933467759971 a64.34798810773547,64.34798810773547 0 0,0 -1.1050609895525696,-0.07621147577551315 l 3.3545481815116625 -43.21799485730791" fill="#32ff49" stroke="none" /><path d="M 98.37488393609728 120.93702456842531 l -3.2857669996030725 42.33185919755255 a63.45918708474168,63.45918708474168 0 0,0 -1.0883422295272518,-0.09390674706888255 l 4.013953546871866 -42.269028198205" fill="#31ff3e" stroke="none" /><path d="M 98.01472825383883 120.90594882070398 l -3.5416792470234917 37.295733050548 a58.46351819659407,58.46351819659407 0 0,0 -1.0010274014881417,-0.10376058311834216 l 4.183139245117227 -37.229243098973896" fill="#5aff2a" stroke="none" /><path d="M 96.93821686468263 120.77559828337769 l -6.381252325131147 43.29971424904751 a64.76740379878797,64.76740379878797 0 0,0 -1.1015520878148835,-0.17203978155380403 l 7.125640276554547 -43.1834561601466" fill="#33ff4f" stroke="none" /><path d="M 96.58105272829116 120.7198165907248 l -5.283951702194923 32.02228681608352 a53.455307709566476,53.455307709566476 0 0,0 -0.9065791819542932,-0.15762041137968447 l 5.834379855621266 -31.926587826182832" fill="#95ff23" stroke="none" /><path d="M 96.22490169976321 120.6578951692458 l -6.688946567358603 36.60290302176057 a58.209064968114795,58.209064968114795 0 0,0 -0.9841001518657607,-0.18860513628316988 l 7.318014333796059 -36.48234068712893" fill="#5dff2a" stroke="none" /><path d="M 95.86986931433489 120.58985236759428 l -7.173675940763636 35.76277357661877 a57.475164158583205,57.475164158583205 0 0,0 -0.9683430397644959,-0.2029256990056763 l 7.788210441957519 -35.633991896886556" fill="#66ff29" stroke="none" /><path d="M 95.51606077576429 120.51570834832081 l -8.315868900266537 38.04822779457261 a59.94639025473488,59.94639025473488 0 0,0 -1.0061854610202907,-0.22900453506959806 l 8.96957451067969 -37.89944652592533" fill="#4aff2c" stroke="none" /><path d="M 94.81253420990036 120.34920634021253 l -15.292051237886026 59.98711482565133 a82.90557952372313,82.90557952372313 0 0,0 -1.379823447037778,-0.36442391338283303 l 16.322365127735296 -59.71499956296491" fill="#4bddff" stroke="none" /><path d="M 94.46302465271185 120.25689768951611 l -8.26512642757596 30.237776029890096 a52.347016031794965,52.347016031794965 0 0,0 -0.8671378723899792,-0.24506182434350143 l 8.784395468070555 -30.091025412208072" fill="#a2ff22" stroke="none" /><path d="M 94.11515582081647 120.15858648285463 l -11.884762787955706 40.71136145570076 a63.41064180253223,63.41064180253223 0 0,0 -1.0451433340315184,-0.3148931131021963 l 12.58378109642747 -40.500752973492844" fill="#31ff3d" stroke="none" /><path d="M 92.7421414339146 119.70592522655815 l -21.022212493200332 57.077737698498424 a81.8259941052167,81.8259941052167 0 0,0 -1.3175145391841576,-0.49817126348172713 l 22.001597253144773 -56.70741818491006" fill="#4ae8ff" stroke="none" /><path d="M 92.40401165467489 119.57807347666478 l -17.912259050546567 46.1674647039818 a70.52053939010855,70.52053939010855 0 0,0 -1.1279220422522582,-0.44882345827020426 l 18.704302168840684 -45.85229440130553" fill="#3bff97" stroke="none" /><path d="M 92.06813273071674 119.44442032107085 l -19.18778110270432 47.03750934342058 a71.80057311564187,71.80057311564187 0 0,0 -1.1403590646907513,-0.47667018152659435 l 19.994611626892535 -46.700254118874014" fill="#3cffa7" stroke="none" /><path d="M 91.7346041902142 119.30500536409082 l -15.793693049352488 36.88841237047247 a61.12724395409174,61.12724395409174 0 0,0 -0.9637126994453444,-0.42246332653124286 l 16.426326423455578 -36.61108449064678" fill="#3dff2e" stroke="none" /><path d="M 91.07499286063937 119.00905698771935 l -15.822683150140621 33.70017312066784 a58.22981292502995,58.22981292502995 0 0,0 -0.9036361131896681,-0.4338002482072116 l 16.40043193133053 -33.42281859596106" fill="#5dff2a" stroke="none" /><line stroke="#e1ed5e" stroke-width="0.3" x1="58.666819895761336" x2="56.23545636021788" y1="174.27360380694188" y2="178.64263932499728" /><path d="M 58.180547188652646 175.14741091055294 a86.0,86.0 0 0,1 -31.652253787137756,-30.449443065178592" fill="none" id="id44" stroke="none" /><text fill="#e1ed5e" style="font-size:6.75px; font-family:Arial;" text-anchor="middle"><textPath startOffset="22.20632615414155" xlink:href="#id44">August</textPath></text><path d="M 89.7882731507175 118.34994917583269 l -24.28879717690229 43.64572224819955 a70.94892129833914,70.94892129833914 0 0,0 -1.0620419474163396,-0.6030551353352032 l 25.036487891239833 -43.22116394706971" fill="#3bff9c" stroke="none" /><path d="M 89.4739219176387 118.17145234162733 l -18.68961004653345 32.26437763304112 a58.28661405570327,58.28661405570327 0 0,0 -0.8638412849096931,-0.5103726575583774 l 19.242219202471524 -31.937886403188998" fill="#5cff2a" stroke="none" /><path d="M 89.1626897886671 117.98757091392108 l -22.29305696096743 37.0016115764729 a64.19837552409942,64.19837552409942 0 0,0 -0.9416397615228187,-0.5784320504782083 l 22.926675922422557 -36.61239105916631" fill="#32ff47" stroke="none" /><path d="M 88.8546689885994 117.79835938074946 l -19.933492413784318 31.8324741841285 a58.558627936781775,58.558627936781775 0 0,0 -0.8497085514048013,-0.5423242000752067 l 20.478482767236045 -31.484635555229488" fill="#59ff2a" stroke="none" /><path d="M 88.24862548938628 117.40417183066458 l -22.28283369454464 33.00160897295102 a60.81998081695036,60.81998081695036 0 0,0 -0.8626101220807879,-0.5933111076661973 l 22.847600701248318 -32.61315707591972" fill="#40ff2d" stroke="none" /><path d="M 87.95078237400918 117.19931262002967 l -17.923703311859466 25.584679946718317 a52.23835764549046,52.23835764549046 0 0,0 -0.7320152901487622,-0.5222734733097438 l 18.361445929857112 -25.272362211564356" fill="#a4ff21" stroke="none" /><path d="M 87.65650970185807 116.9893568818739 l -22.13720409851775 30.4692474909802 a58.662061122116434,58.662061122116434 0 0,0 -0.8118131727767551,-0.6005599775083215 l 22.658402241713066 -30.083677564732113" fill="#58ff2a" stroke="none" /><path d="M 87.07902340077011 116.55440617244103 l -26.092494367255266 33.42980667834491 a63.4071955787784,63.4071955787784 0 0,0 -0.8546157912561088,-0.6789584711290992 l 26.664067651228734 -32.975714293210686" fill="#31ff3d" stroke="none" /><path d="M 86.79598089348748 116.32954008644616 l -31.360148442322338 38.78340352091939 a70.8759591285316,70.8759591285316 0 0,0 -0.9420760648009009,-0.7752644651191748 l 32.023094635667924 -38.23784393694304" fill="#3bff9b" stroke="none" /><path d="M 86.51685102203217 116.09983520530335 l -24.621240739510306 29.39950593915054 a59.347574173851854,59.347574173851854 0 0,0 -0.777550787458596,-0.6626456496763109 l 25.123657003545958 -28.97133589925128" fill="#50ff2b" stroke="none" /><path d="M 85.97065885151581 115.62618273729859 l -41.907444288833474 46.67741525276301 a83.72969776350396,83.72969776350396 0 0,0 -1.0641663836230144,-0.9720907602981933 l 42.70471022192334 -45.94913172587824" fill="#4dd5ff" stroke="none" /><path d="M 85.70375840098266 115.38237550388516 l -21.26493729958227 22.880506624288724 a52.23643932555831,52.23643932555831 0 0,0 -0.6533638452305948,-0.6177962965805446 l 21.655636979203685 -22.511075690962247" fill="#a4ff21" stroke="none" /><path d="M 84.67929136418377 114.36230785411682 l -33.529438354711395 31.431974021111685 a66.9585925289954,66.9585925289954 0 0,0 -0.7810356074060842,-0.8476598954334057 l 34.065520370113205 -30.850162870876936" fill="#36ff6b" stroke="none" /><path d="M 84.43433777217949 114.09645910891817 l -25.482270698276633 23.077064222723823 a55.37872907889365,55.37872907889365 0 0,0 -0.6337994024683009,-0.7120803475344765 l 25.875728950393274 -22.635009705448486" fill="#7eff26" stroke="none" /><path d="M 83.95833913139862 113.55231037782056 l -28.497737255443564 24.075448515888223 a58.30614225461379,58.30614225461379 0 0,0 -0.6411010227317536,-0.7722474813925948 l 28.90793427806885 -23.581339777381867" fill="#5cff2a" stroke="none" /><path d="M 83.50135304334701 112.99209946851258 l -28.92569603259822 22.777959976889765 a57.817541358421266,57.817541358421266 0 0,0 -0.6089926663664363,-0.7872051143161801 l 29.313495516182726 -22.27667686846033" fill="#62ff29" stroke="none" /><path d="M 82.05923443525364 110.91462005526583 l -42.54702068071096 25.8843226916701 a70.80207957516788,70.80207957516788 0 0,0 -0.6244713894122237,-1.046649968182098 l 42.98627294582142 -25.14811062960189" fill="#3bff9b" stroke="none" /><line stroke="#e1ed5e" stroke-width="0.3" x1="26.63291911575756" x2="22.317208475507996" y1="142.92168965132927" y2="145.44649492493687" /><path d="M 25.769776987707644 143.4266507060508 a86.0,86.0 0 0,1 -11.730757126820373,-40.83630448921669" fill="none" id="id45" stroke="none" /><text fill="#e1ed5e" style="font-size:6.75px; font-family:Arial;" text-anchor="middle"><textPath startOffset="21.46611528233685" xlink:href="#id45">September</textPath></text><path d="M 81.87401531095188 110.60418214915194 l -33.84024568760484 19.797441926574844 a60.20587883256236,60.20587883256236 0 0,0 -0.5156146251394375,-0.8990175602167143 l 34.17601230889665 -19.21200452049982" fill="#47ff2c" stroke="none" /><path d="M 81.69416730710424 110.29060199501025 l -33.666570404303 18.925622361998624 a59.62145963809334,59.62145963809334 0 0,0 -0.4952090030389393,-0.8989481836940306 l 33.98735581679345 -18.34330365990677" fill="#4dff2c" stroke="none" /><path d="M 81.18737489456691 109.33194174019688 l -55.64563830519243 27.602838617676756 a83.11564828725372,83.11564828725372 0 0,0 -0.6247397336428291,-1.2871488931009512 l 56.112531295449976 -26.64090076861052" fill="#4cdbff" stroke="none" /><path d="M 80.87730276802145 108.67885076344099 l -45.150943486868776 20.491790232174708 a70.58347673039748,70.58347673039748 0 0,0 -0.4926017993096191,-1.11068701436614 l 45.496986370909674 -19.711554881315873" fill="#3bff98" stroke="none" /><path d="M 80.73074385275274 108.34839909993369 l -34.45088100454853 14.925833242991192 a58.545222066025175,58.545222066025175 0 0,0 -0.392668432565627,-0.9281521822053094 l 34.70270041830646 -14.330606535119724" fill="#59ff2a" stroke="none" /><path d="M 80.45479744820244 107.68017299344265 l -33.86884011338256 13.308562572768269 a57.38978109825834,57.38978109825834 0 0,0 -0.3533727137562433,-0.9225446477798052 l 34.09290710673231 -12.723594358155305" fill="#67ff28" stroke="none" /><path d="M 80.32549172779594 107.34259656027581 l -45.66199932456713 17.04122077854214 a69.73829488133315,69.73829488133315 0 0,0 -0.4100470236527708,-1.1282733009033314 l 45.94857060922512 -16.25269968063269" fill="#39ff8e" stroke="none" /><path d="M 80.20201598880116 107.00284435728193 l -36.12299802447785 12.77724705408039 a59.31617189330684,59.31617189330684 0 0,0 -0.3321964613333545,-0.9655184143514143 l 36.337585316754435 -12.153555936639679" fill="#51ff2b" stroke="none" /><path d="M 79.97269907076064 106.31721596034903 l -38.129252060627074 12.027118408247375 a60.981138551932666,60.981138551932666 0 0,0 -0.3071510400423218,-1.0037873704985523 l 38.330629873175525 -11.369004065196775" fill="#3eff2d" stroke="none" /><path d="M 79.86692584326677 105.97154293290107 l -38.4946733194339 11.41765994728249 a61.15224567370691,61.15224567370691 0 0,0 -0.29064020900884935,-1.011756695973137 l 38.68550616532886 -10.753345775804757" fill="#3dff2e" stroke="none" /><path d="M 79.50377843672027 104.57218783832718 l -36.88010629572018 8.227017499830488 a58.78658567965802,58.78658567965802 0 0,0 -0.21181635788377853,-0.9895355067365121 l 37.0162566923284 -7.590968173677813" fill="#57ff2a" stroke="none" /><path d="M 79.4281124754447 104.21870165774334 l -47.776964821252406 9.797679500861452 a69.77123015808388,69.77123015808388 0 0,0 -0.23114234087943322,-1.1785898163886945 l 47.938537095107506 -8.973825957404802" fill="#39ff8e" stroke="none" /><path d="M 79.35854240842038 103.8639653848113 l -35.847157189429495 6.710387282938242 a57.46982281353566,57.46982281353566 0 0,0 -0.17365070074549013,-0.9739253494296155 l 35.95735433251417 -6.092343182775412" fill="#66ff29" stroke="none" /><path d="M 79.23777060512086 103.15116336523772 l -39.350905173852986 5.97243814305284 a60.8015546853909,60.8015546853909 0 0,0 -0.14814139262591314,-1.036100554990401 l 39.44788061749549 -5.294192116082039" fill="#40ff2d" stroke="none" /><path d="M 79.18660465613746 102.79330883721812 l -40.580051200457895 5.44613763205283 a61.94387586122064,61.94387586122064 0 0,0 -0.13273242500740592,-1.0580080239068856 l 40.66778513471215 -4.746811853858535" fill="#34ff2f" stroke="none" /><path d="M 79.1416061653843 102.43462659150553 l -31.499636001863056 3.6766901632478337 a52.71348481019376,52.71348481019376 0 0,0 -0.09743886477099918,-0.9021628727168718 l 31.558257168135107 -3.13393096864618" fill="#9eff22" stroke="none" /><path d="M 79.10278846688536 102.07522291339032 l -31.22587994319767 3.100923845567283 a52.37947269988778,52.37947269988778 0 0,0 -0.08137625922036902,-0.8979802395224706 l 31.274630798695114 -2.5629622174962465" fill="#a2ff22" stroke="none" /><path d="M 79.04373962182676 101.35467743843564 l -37.3127016048185 2.412008350677648 a58.39058016845906,58.39058016845906 0 0,0 -0.056204128523746934,-1.003562470589522 l 37.34869208422978 -1.769374163752688" fill="#5bff2a" stroke="none" /><path d="M 79.0235259727143 100.99374915477108 l -30.92907875478477 1.4652484412029951 a51.96376698036152,51.96376698036152 0 0,0 -0.03463723365439313,-0.8938330935318742 l 30.94971812129036 -0.9326381006571242" fill="#a7ff21" stroke="none" /><line stroke="#e1ed5e" stroke-width="0.3" x1="15.007084014347285" x2="10.007500721073583" y1="101.09737516637583" y2="101.16192664675087" /><path d="M 14.007167355692545 101.11028546245083 a86.0,86.0 0 0,1 10.666146001902534,-42.60595125391555" fill="none" id="id46" stroke="none" /><text fill="#e1ed5e" style="font-size:6.75px; font-family:Arial;" text-anchor="middle"><textPath startOffset="22.20632615414155" xlink:href="#id46">October</textPath></text><path d="M 79.00175016825051 100.2711162175752 l -62.994749495248485 0.8133486527256131 a84.0,84.0 0 0,0 -0.006222810841987947,-1.4459620871852985 l 62.99941660337998 0.27112291266336075" fill="#4dd2ff" stroke="none" /><line stroke="#e1ed5e" stroke-width="0.3" x1="26.266209847984243" x2="21.928928074336255" y1="57.711370442889674" y2="55.22380399835377" /><path d="M 25.398753493254645 57.213857153982495 a86.0,86.0 0 0,1 29.58750427330803,-30.492523968695096" fill="none" id="id47" stroke="none" /><text fill="#e1ed5e" style="font-size:6.75px; font-family:Arial;" text-anchor="middle"><textPath startOffset="21.46611528233685" xlink:href="#id47">November</textPath></text><line stroke="#e1ed5e" stroke-width="0.3" x1="56.762969772571076" x2="54.21961505331055" y1="26.818313649435495" y2="22.513508569990535" /><path d="M 56.25429882871897 25.957352633546506 a86.0,86.0 0 0,1 42.265352541879196,-11.944610805530505" fill="none" id="id48" stroke="none" /><text fill="#e1ed5e" style="font-size:6.75px; font-family:Arial;" text-anchor="middle"><textPath startOffset="22.20632615414155" xlink:href="#id48">December</textPath></text></svg>