<?xml version="1.0" encoding="utf-8" ?>
<svg baseProfile="full" height="200mm" version="1.1" viewBox="0,0,200,200" width="200mm" xmlns="http://www.w3.org/2000/svg" xmlns:ev="http://www.w3.org/2001/xml-events" xmlns:xlink="http://www.w3.org/1999/xlink"><defs /><rect fill="#1a1a1a" height="200" width="200" x="0" y="0" /><text alignment-baseline="middle" fill="#e1ed5e" style="dominant-baseline: central; font-size:9.0px; font-family:Arial;" text-anchor="middle" x="100.0" y="100.0">2026</text><line stroke="#e1ed5e" stroke-width="0.3" x1="100.0" x2="100.0" y1="15.0" y2="10.0" /><path d="M 100.0 14.0 a86.0,86.0 0 0,1 42.46469731375804,11.215312516191453" fill="none" id="id97" stroke="none" /><text fill="#e1ed5e" style="font-size:6.75px; font-family:Arial;" text-anchor="middle"><textPath startOffset="22.20632615414155" xlink:href="#id97">January</textPath></text><path d="M 100.0 79.0 l 0.0 -58.300527849102096 a79.3005278491021,79.3005278491021 0 0,0 1.3650282292122815,0.011749228923622259 l -1.003547749939753 58.291889996787035" fill="#47fffe" stroke="none" /><path d="M 101.08401301168833 79.027996857942 l 0.8768686946586066 -16.96445782593606 a37.98710475730445,37.98710475730445 0 0,0 0.6527232881495605,0.03937405125116263 l -1.168754031647779 16.946850505304592" fill="#ffb711" stroke="none" /><path d="M 101.44485096284872 79.0497635885617 l 1.509682794367256 -21.89029336694738 a42.942289894872616,42.942289894872616 0 0,0 0.7369915509218329,0.05720472861123861 l -1.88626453465143 21.861063376147676" fill="#fff917" stroke="none" /><path d="M 101.80526077348638 79.07773832637324 l 1.8797015064328093 -21.785000462812338 a42.86594436373649,42.86594436373649 0 0,0 0.7345893466693492,0.06975810987968381 l -2.2544159801924026 21.749416808417475" fill="#fff817" stroke="none" /><path d="M 102.16513564639614 79.11191278185805 l 1.7139691289518877 -16.535470520907758 a37.62406314722155,37.62406314722155 0 0,0 0.6436102967492694,0.07231711597616683 l -1.9983461292108822 16.50351745146099" fill="#ffb310" stroke="none" /><path d="M 102.88285421437855 79.19881850522331 l 3.9406027439120703 -28.43334653070536 a49.70511356745522,49.70511356745522 0 0,0 0.8464804972875459,0.12474922144811182 l -4.429452221628272 28.361302825096278" fill="#b1ff20" stroke="none" /><path d="M 103.2404852339499 79.25152402106235 l 9.185537757246111 -58.81400338230706 a80.52697789862862,80.52697789862862 0 0,0 1.3676962444924343,0.22568159921488307 l -10.196563207877421 58.647175520152544" fill="#48f4ff" stroke="none" /><path d="M 103.59715602781102 79.31037775812273 l 3.2805964375402885 -18.868878774229962 a40.15194243889084,40.15194243889084 0 0,0 0.6799155537364321,0.12425022153448452 l -3.6049071123796215 18.809613071344742" fill="#ffd513" stroke="none" /><path d="M 105.01212808612495 79.60689891045804 l 7.334113410584513 -29.840681166599918 a51.7287401630133,51.7287401630133 0 0,0 0.8628627561250242,0.2199629289769637 l -7.846685055394563 29.710015241454087" fill="#99ff23" stroke="none" /><path d="M 107.4271985657038 80.35727306442388 l 6.796279678781346 -17.97413449056706 a40.2161111611379,40.2161111611379 0 0,0 0.64540507140706,0.2504071407365521 l -7.104667915188073 17.854484645939962" fill="#ffd513" stroke="none" /><path d="M 107.76421540070413 80.48803036053334 l 8.614647011327676 -21.64915864190268 a44.30017624465631,44.30017624465631 0 0,0 0.7060944556744667,0.2880336574455536 l -8.986025336590531 21.497664098273546" fill="#f3ff19" stroke="none" /><path d="M 108.09893153111575 80.62456947434976 l 10.93023864548487 -26.148891207528692 a49.34139425346647,49.34139425346647 0 0,0 0.7808069868427862,0.33430080311224997 l -11.378729390117972 25.95687087645365" fill="#b5ff1f" stroke="none" /><path d="M 108.43124777332544 80.76684994638697 l 6.739812490869673 -15.374690491272837 a37.78708372870399,37.78708372870399 0 0,0 0.593469328796169,0.2662723886151322 l -7.003463938132622 15.256397772141174" fill="#ffb510" stroke="none" /><path d="M 108.76106565485865 80.91482961587045 l 6.997542490494185 -15.24349844669923 a37.77289020415961,37.77289020415961 0 0,0 0.5885767950947144,0.2763446972501583 l -7.258897496888498 15.120788766809067" fill="#ffb510" stroke="none" /><path d="M 109.08828744355905 81.06846463323043 l 7.148253982432786 -14.890310624471429 a37.51722995815621,37.51722995815621 0 0,0 0.5797818620761288,0.28449644175577476 l -7.403507111519347 14.765059022580822" fill="#ffb110" stroke="none" /><path d="M 109.73455568895987 81.39251694778311 l 9.140624148640883 -17.472190243404228 a40.71873326885951,40.71873326885951 0 0,0 0.6182557048508718,0.33025078598035923 l -9.440024900020067 17.312260730922116" fill="#ffdc14" stroke="none" /><path d="M 110.05341064243156 81.56283822128135 l 2.0918755415673678 -3.83633466816133 a25.369600321258716,25.369600321258716 0 0,0 0.38160217196933277,0.21236119554902835 l -2.1576018026087356 3.799758075052122" fill="#ff0000" stroke="none" /><path d="M 110.36928655335952 81.73862282372117 l 31.107859660078564 -54.7841315288365 a84.0,84.0 0 0,0 1.2512130701386868,0.7247833704398019 l -32.04626946268258 54.24054400100664" fill="#4dd2ff" stroke="none" /><line stroke="#e1ed5e" stroke-width="0.3" x1="143.23703022742887" x2="145.7803849466894" y1="26.81831364943548" y2="22.513508569990506" /><path d="M 143.74570117128098 25.957352633546492 a86.0,86.0 0 0,1 28.547481713284135,27.462654790039103" fill="none" id="id98" stroke="none" /><text fill="#e1ed5e" style="font-size:6.75px; font-family:Arial;" text-anchor="middle"><textPath startOffset="19.985693538727396" xlink:href="#id98">February</textPath></text><path d="M 110.68208982089419 81.91981866633111 l 8.524874732862584 -14.428944485702264 a37.75911477920229,37.75911477920229 0 0,0 0.5567454419849174,0.33543289932864395 l -8.771982241065137 14.280064976915005" fill="#ffb410" stroke="none" /><path d="M 110.99172775467656 82.1063720568725 l 8.598436519258668 -13.997546828136688 a37.427550875940106,37.427550875940106 0 0,0 0.5460516553333701,0.3419374964748812 l -8.838107326964302 13.847464990338862" fill="#ffb010" stroke="none" /><path d="M 111.2981086023043 82.29822771554956 l 15.260874943449714 -23.91059801419552 a49.36566589093339,49.36566589093339 0 0,0 0.71235355043186,0.46333456460401257 l -15.670195519665855 23.64436452543198" fill="#b5ff20" stroke="none" /><path d="M 111.60114157652 82.49532879139004 l 9.138159582904253 -13.78833952637018 a37.54159204723315,37.54159204723315 0 0,0 0.5355849877074169,0.3616293744999166 l -9.374149265018211 13.628998239571592" fill="#ffb110" stroke="none" /><path d="M 112.19680574252982 82.90503203632743 l 12.96161862273729 -18.166924995812614 a43.31682596438775,43.31682596438775 0 0,0 0.603248030189191,0.4382853488679065 l -13.272411969280272 17.941120412128033" fill="#fffe18" stroke="none" /><path d="M 112.77801427241765 83.33499621200491 l 16.711897131472153 -21.79554843679744 a48.465131301227935,48.465131301227935 0 0,0 0.6576659347987447,0.5133186938346218 l -17.084595621430328 21.504651353739593" fill="#c0ff1e" stroke="none" /><path d="M 113.06298171725822 83.55741782278167 l 17.19143647368656 -21.639133628240998 a48.636888251206415,48.636888251206415 0 0,0 0.6510316186577502,0.5264222927402432 l -17.561371490908805 21.340005238236625" fill="#beff1f" stroke="none" /><path d="M 113.34407831869373 83.78471172551755 l 17.642824008403565 -21.43898367798466 a48.765072665786306,48.765072665786306 0 0,0 0.6435653499506494,0.5389674726350142 l -18.009246895313332 21.132115047955825" fill="#bcff1f" stroke="none" /><path d="M 113.6212207817346 84.01681056812373 l 17.869712535363597 -20.968384928382193 a48.54995086386428,48.54995086386428 0 0,0 0.6313948883960107,0.5475394253484731 l -18.22800122240637 20.65768050961405" fill="#bfff1e" stroke="none" /><path d="M 113.89432698308785 84.25364557470407 l 11.086347542530147 -12.564088775165157 a37.75599679469996,37.75599679469996 0 0,0 0.4836165852445385,0.43419574527729854 l -11.300975115370676 12.371394021118562" fill="#ffb410" stroke="none" /><path d="M 114.16331599549186 84.49514656593476 l 11.348519930328845 -12.423442241161862 a37.82649166429401,37.82649166429401 0 0,0 0.4769598464954761,0.4432821963556474 l -11.560687660619166 12.226255458731574" fill="#ffb510" stroke="none" /><path d="M 114.42810811169701 84.74124197986012 l 11.713481071159242 -12.387845437157974 a38.048881294070924,38.048881294070924 0 0,0 0.4720176732813091,0.45408062771750696 l -11.924981988052968 12.184381722678165" fill="#ffb811" stroke="none" /><path d="M 115.4437574822437 85.77008943001954 l 24.476471314559937 -22.552672060237434 a54.282437787354006,54.282437787354006 0 0,0 0.6272370824745648,0.6926108526350292 l -24.861052037650538 22.128008420332854" fill="#7cff26" stroke="none" /><path d="M 115.68641384162765 86.03803664274999 l 20.557831814462936 -18.297852995331752 a48.52155288406735,48.52155288406735 0 0,0 0.5499297322974168,0.6286647489824152 l -20.869753410338202 17.94127269014639" fill="#bfff1e" stroke="none" /><path d="M 115.9244219780498 86.31012108654704 l 12.470406659170507 -10.72053713477824 a37.445089197181126,37.445089197181126 0 0,0 0.4159781850824076,0.49238696486387573 l -12.653095457740031 10.504291220285257" fill="#ffb010" stroke="none" /><path d="M 116.15771136456269 86.58626213691792 l 12.914888845278385 -10.721625705070613 a37.78533918768182,37.78533918768182 0 0,0 0.41114318960903123,0.5040129363427172 l -13.097530526963826 10.497728599119796" fill="#ffb510" stroke="none" /><path d="M 116.38621287248628 86.86637796730983 l 13.138929277836409 -10.53090988089717 a37.83839438567598,37.83839438567598 0 0,0 0.40297154767774734,0.5117329431493632 l -13.31825490610812 10.30318454379477" fill="#ffb510" stroke="none" /><path d="M 116.60985879189232 87.15038557335679 l 13.255464751135975 -10.25460921926672 a37.75900820479775,37.75900820479775 0 0,0 0.3932763603649701,0.5175055909035122 l -13.43001705172506 10.024918852482173" fill="#ffb410" stroke="none" /><path d="M 116.82858285166822 87.43820079747576 l 17.65942751987096 -13.181988316631154 a43.03679187879615,43.03679187879615 0 0,0 0.43802721247469856,0.5974686255506064 l -17.883717344859285 12.876057247409053" fill="#fffa17" stroke="none" /><path d="M 117.04232023915458 87.72973835380427 l 22.413682275874624 -16.137576463785816 a48.618735077631456,48.618735077631456 0 0,0 0.48314840246666524,0.6833791515383755 l -22.688143298145174 15.749370811915647" fill="#beff1f" stroke="none" /><path d="M 117.45458315368197 88.32363383020206 l 22.893935599361306 -15.315059246747207 a48.54420677672675,48.54420677672675 0 0,0 0.4586349503992005,0.6985324945933051 l -23.154167185118432 14.918708688176228" fill="#bfff1e" stroke="none" /><path d="M 117.65298651832404 88.62581576622439 l 13.908077437741756 -8.961261877716048 a37.545054622310204,37.545054622310204 0 0,0 0.3453651643080264,0.5462847503116904 l -14.060270198295738 8.720529479690152" fill="#ffb110" stroke="none" /><line stroke="#e1ed5e" stroke-width="0.3" x1="172.23445277983987" x2="176.4835382374775" y1="55.19839476539836" y2="52.563006222186495" /><path d="M 173.08426987136738 54.67131705675599 a86.0,86.0 0 0,1 12.851231095245387,41.99856678651699" fill="none" id="id99" stroke="none" /><text fill="#e1ed5e" style="font-size:6.75px; font-family:Arial;" text-anchor="middle"><textPath startOffset="22.20632615414155" xlink:href="#id99">March</textPath></text><path d="M 117.84615892207809 88.93136811851018 l 38.347215362344905 -23.783897273317677 a66.12408110481353,66.12408110481353 0 0,0 0.5916033424968987,0.9724403434397673 l -38.75093450312803 23.12028915667083" fill="#36ff6a" stroke="none" /><path d="M 118.03404312379186 89.2402003453031 l 23.868044946170706 -14.24058820350094 a48.79348704164548,48.79348704164548 0 0,0 0.42413233372903963,0.724979642858896 l -24.10963695437007 13.827629148288148" fill="#bcff1f" stroke="none" /><path d="M 118.3937258080291 89.86733742301442 l 24.51697894157267 -13.50581592955885 a48.990879234933715,48.990879234933715 0 0,0 0.40053986556211485,0.7421395394235896 l -24.74582690635325 13.0817954068028" fill="#b9ff1f" stroke="none" /><path d="M 118.56541770881063 90.18545643968196 l 24.301816393707647 -12.847070792148353 a48.48864325447782,48.48864325447782 0 0,0 0.3837311956075509,0.741246530727348 l -24.51935702247531 12.42685153916066" fill="#c0ff1e" stroke="none" /><path d="M 118.73160827565052 90.50648371742162 l 24.751489606568015 -12.54450051165523 a48.748887019679955,48.748887019679955 0 0,0 0.37290574187510284,0.7517552206033981 l -24.963755361396526 12.116585702552882" fill="#bcff1f" stroke="none" /><path d="M 119.04729006885535 91.15688171328212 l 37.65810293563817 -17.483592548305154 a62.518775573302634,62.518775573302634 0 0,0 0.4447695341399958,0.9799907120416036 l -37.95347478674151 16.832779827421486" fill="#31ff3d" stroke="none" /><path d="M 119.34039704204932 91.81776055985345 l 26.278613591111263 -11.117554003161155 a49.53358616234809,49.53358616234809 0 0,0 0.3254552695789516,0.7881157501658512 l -26.466090547576414 10.663563682542001" fill="#b3ff20" stroke="none" /><path d="M 119.47837535516314 92.15188598940014 l 25.684671489861497 -10.348718848556574 a48.69112369241404,48.69112369241404 0 0,0 0.30653717217357573,0.7801036675740549 l -25.859002211916774 9.905066176086736" fill="#bdff1f" stroke="none" /><path d="M 119.61058180528143 92.48833698450437 l 15.514067716985513 -5.942528877862758 a37.613246118427455,37.613246118427455 0 0,0 0.22638770099658498,0.6066064857872675 l -15.614060006483722 5.674599255046157" fill="#ffb210" stroke="none" /><path d="M 119.7369772167798 92.82701384747503 l 21.92812149753114 -7.969311112086224 a44.33136155503378,44.33136155503378 0 0,0 0.254476621855513,0.7194396781759733 l -22.06205120019646 7.590673807483636" fill="#f3ff19" stroke="none" /><path d="M 120.28053869075195 94.5502522615342 l 26.63972786825985 -7.158576944980079 a48.58478429808979,48.58478429808979 0 0,0 0.21007983950269876,0.8095233185637953 l -26.759004039632853 6.698957200867433" fill="#beff1e" stroke="none" /><path d="M 120.37134235888165 94.90015583598534 l 27.163147941626036 -6.800132218384305 a49.00140004153669,49.00140004153669 0 0,0 0.19779578403906817,0.8199912211410183 l -27.276176525925926 6.331555765583881" fill="#b9ff1f" stroke="none" /><path d="M 120.45610955862082 95.25157060432595 l 27.127229802411854 -6.2969811071769755 a48.8484930977783,48.8484930977783 0 0,0 0.1830785996803513,0.8207054642611474 l -27.231602789094243 5.829097473365864" fill="#bbff1f" stroke="none" /><path d="M 120.53481517161879 95.60439243477599 l 56.90774677662106 -12.181464510909887 a79.19690473575534,79.19690473575534 0 0,0 0.27387309444111757,1.3355024725446736 l -57.10899916697718 11.200086382201802" fill="#47fffc" stroke="none" /><path d="M 120.6074358757038 95.95851677861258 l 27.12323650963882 -5.319347148505176 a48.63992425539756,48.63992425539756 0 0,0 0.15405949290128787,0.8229919713572945 l -27.210781726449966 4.851677099685318" fill="#beff1f" stroke="none" /><path d="M 120.67395015179393 96.31383870115 l 16.31439492935436 -2.908853448963274 a37.5716900254165,37.5716900254165 0 0,0 0.10804211524638604,0.6376706800976438 l -16.362048906120968 2.6275969805497925" fill="#ffb210" stroke="none" /><path d="M 120.73433829027371 96.67025291283417 l 27.308319534436137 -4.385468981560738 a48.658211330147466,48.658211330147466 0 0,0 0.12568672383074211,0.8281184723242071 l -27.379762151706178 3.9147513968444483" fill="#bdff1f" stroke="none" /><path d="M 120.78858239683441 97.02765380044208 l 27.192789207092854 -3.88801805299575 a48.469336891192086,48.469336891192086 0 0,0 0.11098093527343501,0.826936875257268 l -27.255686141424125 3.419362835673818" fill="#c0ff1e" stroke="none" /><path d="M 120.87857604477298 97.74499172005257 l 28.228492992153548 -3.0488422817359986 a49.392662007408944,49.392662007408944 0 0,0 0.08402132652908707,0.8460832917957334 l -28.276791444364864 2.5624834592358305" fill="#b5ff20" stroke="none" /><path d="M 120.91429891909075 98.10471618934814 l 27.951765159745204 -2.5330291104355624 a49.06630385390744,49.06630385390744 0 0,0 0.0689860927788634,0.8418050672675081 l -27.991225736343562 2.0515101259602853" fill="#b9ff1f" stroke="none" /><path d="M 120.94382443527127 98.46500227214037 l 27.385687331824194 -2.0071294982510683 a48.459141273156845,48.459141273156845 0 0,0 0.053811358805883495,0.8324379032558553 l -27.41617928163449 1.5354325307421777" fill="#c0ff1e" stroke="none" /><path d="M 120.96714384426684 98.82574320788733 l 16.830322313753733 -0.9425757002079543 a37.8566959436142,37.8566959436142 0 0,0 0.030837689133184253,0.650934878342344 l -16.844053611120415 0.6527297152426105" fill="#ffb610" stroke="none" /><path d="M 120.98425023603335 99.18683210126433 l 16.7098913254603 -0.6475307463639192 a37.72243296222712,37.72243296222712 0 0,0 0.019558732189008332,0.6490591019529467 l -16.718561752104954 0.3598014969859734" fill="#ffb410" stroke="none" /><line stroke="#e1ed5e" stroke-width="0.3" x1="184.98032266829074" x2="189.97916517819016" y1="98.17113171792111" y2="98.06355123074" /><path d="M 185.9800911702706 98.14961562048488 a86.0,86.0 0 0,1 -9.607161424134198,41.387399972396054" fill="none" id="id100" stroke="none" /><text fill="#e1ed5e" style="font-size:6.75px; font-family:Arial;" text-anchor="middle"><textPath startOffset="21.466115282336823" xlink:href="#id100">April</textPath></text><path d="M 120.99513854157772 99.54816195383933 l 32.030811283380295 -0.6893376368325711 a53.038228069746246,53.038228069746246 0 0,0 0.01178709680430881,0.9129236373301466 l -32.03793138730232 0.13787774144196172" fill="#8aff24" stroke="none" /><path d="M 120.99980553446 99.90962569577887 l 27.700674752378312 -0.11921201856340854 a48.70093127030965,48.70093127030965 0 0,0 -0.003607817656235628,0.8383297646128917 l -27.69862263743257 -0.3576272242531678" fill="#bdff1f" stroke="none" /><path d="M 120.99824983174949 100.27111621757518 l 16.61335045976749 0.21450115004788745 a37.61473515414641,37.61473515414641 0 0,0 -0.013931669149952247,0.6473499219555284 l -16.60719672793253 -0.5004408877935307" fill="#ffb210" stroke="none" /><path d="M 120.9904718944345 100.63252640178507 l 38.341068854399005 1.1553688952317855 a59.35847283432742,59.35847283432742 0 0,0 -0.0395662865185895,1.021030046202861 l -38.315500435029215 -1.8151761884486526" fill="#45ff2d" stroke="none" /><path d="M 120.9764740272857 100.99374915477107 l 27.522479995549052 1.3038626604835293 a48.553347581424674,48.553347581424674 0 0,0 -0.04673525386889268,0.8344893527968206 l -27.49595839079263 -1.7774237296157733" fill="#bfff1e" stroke="none" /><path d="M 120.92983693683757 101.71520430193887 l 27.489736587495628 2.2527893837075994 a48.5818903931047,48.5818903931047 0 0,0 -0.0754763708427579,0.8328754629052902 l -27.446885620375795 -2.7256462351614603" fill="#beff1e" stroke="none" /><path d="M 120.89721153311464 102.0752229133903 l 27.44161561419329 2.725122890811602 a48.5765944650017,48.5765944650017 0 0,0 -0.0897919808594337,0.8313622248110711 l -27.390641331832803 -3.1970814375074648" fill="#beff1e" stroke="none" /><path d="M 120.76222939487914 103.15116336523771 l 16.280294315578224 2.4709228497008597 a37.46673746468991,37.46673746468991 0 0,0 -0.10226322196581972,0.6367931807990277 l -16.235349339251115 -2.750795260193092" fill="#ffb010" stroke="none" /><path d="M 120.70491114924044 103.5080841355445 l 57.34368463815819 9.71588184575085 a79.16095363662059,79.16095363662059 0 0,0 -0.23919257790791018,1.3415190034928723 l -57.16794561791109 -10.70151959997694" fill="#47fffc" stroke="none" /><path d="M 120.49622156327973 104.57218783832717 l 21.433153384399965 4.7811935940778945 a42.95996075095006,42.95996075095006 0 0,0 -0.1672153752108724,0.7203594599754761 l -21.34767744325854 -5.149421711401936" fill="#fff917" stroke="none" /><path d="M 120.41448212921028 104.9243191809786 l 9.477673301075026 2.2861754773956617 a30.74950714217676,30.74950714217676 0 0,0 -0.12854565800411127,0.5134760050958252 l -9.436916328775853 -2.448979321888883" fill="#ff5107" stroke="none" /><line stroke="#e1ed5e" stroke-width="0.3" x1="174.80103733775053" x2="179.2010983576182" y1="140.37084112569926" y2="142.7455964860345" /><path d="M 175.68104954172406 140.8457921977663 a86.0,86.0 0 0,1 -30.038265399797805,32.042727171017184" fill="none" id="id101" stroke="none" /><text fill="#e1ed5e" style="font-size:6.75px; font-family:Arial;" text-anchor="middle"><textPath startOffset="22.206326154141568" xlink:href="#id101">May</textPath></text><line stroke="#e1ed5e" stroke-width="0.3" x1="143.8653032363475" x2="146.44561519142675" y1="172.8068346515853" y2="177.08958963109032" /><path d="M 144.38136562736335 173.6633856474863 a86.0,86.0 0 0,1 -40.68145358897372,12.25698825130547" fill="none" id="id102" stroke="none" /><text fill="#e1ed5e" style="font-size:6.75px; font-family:Arial;" text-anchor="middle"><textPath startOffset="21.466115282336833" xlink:href="#id102">June</textPath></text><line stroke="#e1ed5e" stroke-width="0.3" x1="102.19456741930631" x2="102.32365962044197" y1="184.97166512339345" y2="189.96999836594603" /><path d="M 102.22038585953345 185.97133177190398 a86.0,86.0 0 0,1 -42.740103519485714,-10.115201625700543" fill="none" id="id103" stroke="none" /><text fill="#e1ed5e" style="font-size:6.75px; font-family:Arial;" text-anchor="middle"><textPath startOffset="22.20632615414155" xlink:href="#id103">July</textPath></text><line stroke="#e1ed5e" stroke-width="0.3" x1="58.666819895761336" x2="56.23545636021788" y1="174.27360380694188" y2="178.64263932499728" /><path d="M 58.180547188652646 175.14741091055294 a86.0,86.0 0 0,1 -31.652253787137756,-30.449443065178592" fill="none" id="id104" stroke="none" /><text fill="#e1ed5e" style="font-size:6.75px; font-family:Arial;" text-anchor="middle"><textPath startOffset="22.20632615414155" xlink:href="#id104">August</textPath></text><line stroke="#e1ed5e" stroke-width="0.3" x1="26.63291911575756" x2="22.317208475507996" y1="142.92168965132927" y2="145.44649492493687" /><path d="M 25.769776987707644 143.4266507060508 a86.0,86.0 0 0,1 -11.730757126820373,-40.83630448921669" fill="none" id="id105" stroke="none" /><text fill="#e1ed5e" style="font-size:6.75px; font-family:Arial;" text-anchor="middle"><textPath startOffset="21.46611528233685" xlink:href="#id105">September</textPath></text><line stroke="#e1ed5e" stroke-width="0.3" x1="15.007084014347285" x2="10.007500721073583" y1="101.09737516637583" y2="101.16192664675087" /><path d="M 14.007167355692545 101.11028546245083 a86.0,86.0 0 0,1 10.666146001902534,-42.60595125391555" fill="none" id="id106" stroke="none" /><text fill="#e1ed5e" style="font-size:6.75px; font-family:Arial;" text-anchor="middle"><textPath startOffset="22.20632615414155" xlink:href="#id106">October</textPath></text><line stroke="#e1ed5e" stroke-width="0.3" x1="26.266209847984243" x2="21.928928074336255" y1="57.711370442889674" y2="55.22380399835377" /><path d="M 25.398753493254645 57.213857153982495 a86.0,86.0 0 0,1 29.58750427330803,-30.492523968695096" fill="none" id="id107" stroke="none" /><text fill="#e1ed5e" style="font-size:6.75px; font-family:Arial;" text-anchor="middle"><textPath startOffset="21.46611528233685" xlink:href="#id107">November</textPath></text><line stroke="#e1ed5e" stroke-width="0.3" x1="56.762969772571076" x2="54.21961505331055" y1="26.818313649435495" y2="22.513508569990535" /><path d="M 56.25429882871897 25.957352633546506 a86.0,86.0 0 0,1 42.265352541879196,-11.944610805530505" fill="none" id="id108" stroke="none" /><text fill="#e1ed5e" style="font-size:6.75px; font-family:Arial;" text-anchor="middle"><textPath startOffset="22.20632615414155" xlink:href="#id108">December</textPath></text></svg>