<?xml version="1.0" encoding="utf-8" ?>
<svg baseProfile="full" height="200mm" version="1.1" viewBox="0,0,200,200" width="200mm" xmlns="http://www.w3.org/2000/svg" xmlns:ev="http://www.w3.org/2001/xml-events" xmlns:xlink="http://www.w3.org/1999/xlink"><defs /><rect fill="#1a1a1a" height="200" width="200" x="0" y="0" /><text alignment-baseline="middle" fill="#e1ed5e" style="dominant-baseline: central; font-size:9.0px; font-family:Arial;" text-anchor="middle" x="100.0" y="100.0">2026</text><line stroke="#e1ed5e" stroke-width="0.3" x1="100.0" x2="100.0" y1="15.0" y2="10.0" /><path d="M 100.0 14.0 a86.0,86.0 0 0,1 42.46469731375804,11.215312516191453" fill="none" id="id97" stroke="none" /><text fill="#e1ed5e" style="font-size:6.75px; font-family:Arial;" text-anchor="middle"><textPath startOffset="22.20632615414155" xlink:href="#id97">January</textPath></text><path d="M 100.0 79.0 l 0.0 -61.70199435873006 a82.70199435873006,82.70199435873006 0 0,0 1.4235788836946515,0.012253192891853346 l -1.062098404422123 61.692852542446765" fill="#4be2ff" stroke="none" /><path d="M 101.08401301168833 79.027996857942 l 0.9280284286826678 -17.9542264828901 a38.978194719252414,38.978194719252414 0 0,0 0.669752948686938,0.040401326880762915 l -1.2369434262092178 17.935591886629034" fill="#ff0801" stroke="none" /><path d="M 101.44485096284872 79.0497635885617 l 1.5977632227039074 -23.167453326224653 a44.2224835221951,44.2224835221951 0 0,0 0.7589627101029202,0.05891011342420742 l -1.9963161221691688 23.136517950611978" fill="#ff6d0a" stroke="none" /><path d="M 101.80526077348638 79.07773832637324 l 1.9893701828258812 -23.05601724808536 a44.141683712909185,44.141683712909185 0 0,0 0.7564515626764681,0.07183419071770943 l -2.3859468725925934 23.01835751285247" fill="#ff6b09" stroke="none" /><path d="M 102.16513564639614 79.11191278185805 l 1.8139683709099663 -17.500210485928065 a38.593971930819045,38.593971930819045 0 0,0 0.6602018933981552,0.07418137517951932 l -2.1149369678178465 17.466393157277945" fill="#ff0000" stroke="none" /><path d="M 102.88285421437855 79.19881850522331 l 4.170511953239605 -30.092252196725507 a51.37987511862821,51.37987511862821 0 0,0 0.8750017678153975,0.12895251532725222 l -4.687882701483659 30.016005197237288" fill="#ffeb16" stroke="none" /><path d="M 103.2404852339499 79.25152402106235 l 9.721455701849713 -62.245427936812945 a84.0,84.0 0 0,0 1.4266831754444993,0.23541494824150133 l -10.791468083433088 62.06886672563182" fill="#4dd2ff" stroke="none" /><path d="M 103.59715602781102 79.31037775812273 l 3.47199845953879 -19.96975833043044 a41.26933696692706,41.26933696692706 0 0,0 0.698837027347032,0.12770799989380605 l -3.815230607988723 19.907034849185898" fill="#ff3505" stroke="none" /><path d="M 105.01212808612495 79.60689891045804 l 7.762012471952973 -31.58169589420909 a53.52156750787171,53.52156750787171 0 0,0 0.8927680648405636,0.22758645803802943 l -8.304489425478563 31.443406440002196" fill="#efff19" stroke="none" /><path d="M 107.4271985657038 80.35727306442388 l 7.1927995486746985 -19.0228113853536 a41.337249527656226,41.337249527656226 0 0,0 0.6633975715918909,0.25738795127800473 l -7.519180285266256 18.896180730185044" fill="#ff3605" stroke="none" /><path d="M 107.76421540070413 80.48803036053334 l 9.11725709707408 -22.91224991738226 a45.65959393929128,45.65959393929128 0 0,0 0.7277620285488139,0.2968724044613545 l -9.510302995211282 22.751916626737327" fill="#ff870c" stroke="none" /><path d="M 108.09893153111575 80.62456947434976 l 11.567948835538159 -27.67451337576235 a50.994935086558826,50.994935086558826 0 0,0 0.8069735809377159,0.34550397312487763 l -12.04260617426619 27.471289874674678" fill="#ffe515" stroke="none" /><path d="M 108.43124777332544 80.76684994638697 l 7.133037858025907 -16.2717062942398 a38.766503730617174,38.766503730617174 0 0,0 0.608851720708658,0.2731740194803042 l -7.412071697201346 16.146511944242963" fill="#ff0300" stroke="none" /><line stroke="#e1ed5e" stroke-width="0.3" x1="143.23703022742887" x2="145.7803849466894" y1="26.81831364943548" y2="22.513508569990506" /><path d="M 143.74570117128098 25.957352633546492 a86.0,86.0 0 0,1 28.547481713284135,27.462654790039103" fill="none" id="id98" stroke="none" /><text fill="#e1ed5e" style="font-size:6.75px; font-family:Arial;" text-anchor="middle"><textPath startOffset="19.985693538727396" xlink:href="#id98">February</textPath></text><line stroke="#e1ed5e" stroke-width="0.3" x1="172.23445277983987" x2="176.4835382374775" y1="55.19839476539836" y2="52.563006222186495" /><path d="M 173.08426987136738 54.67131705675599 a86.0,86.0 0 0,1 12.851231095245387,41.99856678651699" fill="none" id="id99" stroke="none" /><text fill="#e1ed5e" style="font-size:6.75px; font-family:Arial;" text-anchor="middle"><textPath startOffset="22.20632615414155" xlink:href="#id99">March</textPath></text><line stroke="#e1ed5e" stroke-width="0.3" x1="184.98032266829074" x2="189.97916517819016" y1="98.17113171792111" y2="98.06355123074" /><path d="M 185.9800911702706 98.14961562048488 a86.0,86.0 0 0,1 -9.607161424134198,41.387399972396054" fill="none" id="id100" stroke="none" /><text fill="#e1ed5e" style="font-size:6.75px; font-family:Arial;" text-anchor="middle"><textPath startOffset="21.466115282336823" xlink:href="#id100">April</textPath></text><line stroke="#e1ed5e" stroke-width="0.3" x1="174.80103733775053" x2="179.2010983576182" y1="140.37084112569926" y2="142.7455964860345" /><path d="M 175.68104954172406 140.8457921977663 a86.0,86.0 0 0,1 -30.038265399797805,32.042727171017184" fill="none" id="id101" stroke="none" /><text fill="#e1ed5e" style="font-size:6.75px; font-family:Arial;" text-anchor="middle"><textPath startOffset="22.206326154141568" xlink:href="#id101">May</textPath></text><line stroke="#e1ed5e" stroke-width="0.3" x1="143.8653032363475" x2="146.44561519142675" y1="172.8068346515853" y2="177.08958963109032" /><path d="M 144.38136562736335 173.6633856474863 a86.0,86.0 0 0,1 -40.68145358897372,12.25698825130547" fill="none" id="id102" stroke="none" /><text fill="#e1ed5e" style="font-size:6.75px; font-family:Arial;" text-anchor="middle"><textPath startOffset="21.466115282336833" xlink:href="#id102">June</textPath></text><line stroke="#e1ed5e" stroke-width="0.3" x1="102.19456741930631" x2="102.32365962044197" y1="184.97166512339345" y2="189.96999836594603" /><path d="M 102.22038585953345 185.97133177190398 a86.0,86.0 0 0,1 -42.740103519485714,-10.115201625700543" fill="none" id="id103" stroke="none" /><text fill="#e1ed5e" style="font-size:6.75px; font-family:Arial;" text-anchor="middle"><textPath startOffset="22.20632615414155" xlink:href="#id103">July</textPath></text><line stroke="#e1ed5e" stroke-width="0.3" x1="58.666819895761336" x2="56.23545636021788" y1="174.27360380694188" y2="178.64263932499728" /><path d="M 58.180547188652646 175.14741091055294 a86.0,86.0 0 0,1 -31.652253787137756,-30.449443065178592" fill="none" id="id104" stroke="none" /><text fill="#e1ed5e" style="font-size:6.75px; font-family:Arial;" text-anchor="middle"><textPath startOffset="22.20632615414155" xlink:href="#id104">August</textPath></text><line stroke="#e1ed5e" stroke-width="0.3" x1="26.63291911575756" x2="22.317208475507996" y1="142.92168965132927" y2="145.44649492493687" /><path d="M 25.769776987707644 143.4266507060508 a86.0,86.0 0 0,1 -11.730757126820373,-40.83630448921669" fill="none" id="id105" stroke="none" /><text fill="#e1ed5e" style="font-size:6.75px; font-family:Arial;" text-anchor="middle"><textPath startOffset="21.46611528233685" xlink:href="#id105">September</textPath></text><line stroke="#e1ed5e" stroke-width="0.3" x1="15.007084014347285" x2="10.007500721073583" y1="101.09737516637583" y2="101.16192664675087" /><path d="M 14.007167355692545 101.11028546245083 a86.0,86.0 0 0,1 10.666146001902534,-42.60595125391555" fill="none" id="id106" stroke="none" /><text fill="#e1ed5e" style="font-size:6.75px; font-family:Arial;" text-anchor="middle"><textPath startOffset="22.20632615414155" xlink:href="#id106">October</textPath></text><line stroke="#e1ed5e" stroke-width="0.3" x1="26.266209847984243" x2="21.928928074336255" y1="57.711370442889674" y2="55.22380399835377" /><path d="M 25.398753493254645 57.213857153982495 a86.0,86.0 0 0,1 29.58750427330803,-30.492523968695096" fill="none" id="id107" stroke="none" /><text fill="#e1ed5e" style="font-size:6.75px; font-family:Arial;" text-anchor="middle"><textPath startOffset="21.46611528233685" xlink:href="#id107">November</textPath></text><line stroke="#e1ed5e" stroke-width="0.3" x1="56.762969772571076" x2="54.21961505331055" y1="26.818313649435495" y2="22.513508569990535" /><path d="M 56.25429882871897 25.957352633546506 a86.0,86.0 0 0,1 42.265352541879196,-11.944610805530505" fill="none" id="id108" stroke="none" /><text fill="#e1ed5e" style="font-size:6.75px; font-family:Arial;" text-anchor="middle"><textPath startOffset="22.20632615414155" xlink:href="#id108">December</textPath></text></svg>