<?xml version="1.0" encoding="utf-8" ?>
<svg baseProfile="full" height="200mm" version="1.1" viewBox="0,0,200,200" width="200mm" xmlns="http://www.w3.org/2000/svg" xmlns:ev="http://www.w3.org/2001/xml-events" xmlns:xlink="http://www.w3.org/1999/xlink"><defs /><rect fill="#1a1a1a" height="200" width="200" x="0" y="0" /><text alignment-baseline="middle" fill="#e1ed5e" style="dominant-baseline: central; font-size:9.0px; font-family:Arial;" text-anchor="middle" x="100.0" y="100.0">2020</text><line stroke="#e1ed5e" stroke-width="0.3" x1="100.0" x2="100.0" y1="15.0" y2="10.0" /><path d="M 100.0 14.0 a86.0,86.0 0 0,1 42.35913384403234,11.155469271406648" fill="none" id="id25" stroke="none" /><text fill="#e1ed5e" style="font-size:6.75px; font-family:Arial;" text-anchor="middle"><textPath startOffset="22.145653131862478" xlink:href="#id25">January</textPath></text><path d="M 102.15924093988457 79.11130261209362 l 3.6316517232342194 -35.132936053428 a56.320137173758695,56.320137173758695 0 0,0 0.9608325317274341,0.1076632892849344 l -4.23422015656245 35.06541700363609" fill="#69ff28" stroke="none" /><path d="M 102.51750503828377 79.15144685158666 l 3.4566123073909503 -28.625708512276958 a49.83364972516404,49.83364972516404 0 0,0 0.8484111901367617,0.10984381434696984 l -3.9475013194185036 28.562153101729592" fill="#b4ff20" stroke="none" /><path d="M 102.87502721639298 79.19773525538626 l 3.637055536068612 -26.31592206180377 a47.566067208666354,47.566067208666354 0 0,0 0.8078867618242368,0.11873153287959592 l -4.088267403500531 26.249609455625293" fill="#d0ff1d" stroke="none" /><path d="M 103.23170211078529 79.25015418208739 l 4.073924514543119 -26.157517819624406 a47.472865342349394,47.472865342349394 0 0,0 0.8041507712764703,0.1323227033982863 l -4.522352788872659 26.083729117730453" fill="#d1ff1c" stroke="none" /><path d="M 103.58742460773223 79.30868818359171 l 7.564801419412474 -43.63176431942313 a65.28269501894425,65.28269501894425 0 0,0 1.1025478296856746,0.2009209423693375 l -8.312683982649203 43.495475203122425" fill="#34ff5d" stroke="none" /><path d="M 103.94208987418118 79.37332000966035 l 5.003744112609202 -26.18170357817485 a47.65556334801208,47.65556334801208 0 0,0 0.8022099584535423,0.16046445889091765 l -5.452450556593702 26.091949722621074" fill="#cfff1d" stroke="none" /><line stroke="#e1ed5e" stroke-width="0.3" x1="143.13028292997686" x2="145.6673583964461" y1="26.7553504044142" y2="22.446841604673864" /><path d="M 143.63769802327073 25.89364864446614 a86.0,86.0 0 0,1 29.32050498858742,28.57503671076993" fill="none" id="id26" stroke="none" /><text fill="#e1ed5e" style="font-size:6.75px; font-family:Arial;" text-anchor="middle"><textPath startOffset="20.669276256404974" xlink:href="#id26">February</textPath></text><line stroke="#e1ed5e" stroke-width="0.3" x1="172.87174338648825" x2="177.1583165268699" y1="56.24261187166439" y2="53.66864786411523" /><path d="M 173.72905801456457 55.72781907015455 a86.0,86.0 0 0,1 12.242430191666344,42.057860355516425" fill="none" id="id27" stroke="none" /><text fill="#e1ed5e" style="font-size:6.75px; font-family:Arial;" text-anchor="middle"><textPath startOffset="22.145653131862474" xlink:href="#id27">March</textPath></text><path d="M 119.16976305983485 91.42560881287824 l 20.29012443982442 -9.075514581969653 a43.22732810553495,43.22732810553495 0 0,0 0.29716959758927586,0.6799821950239368 l -20.442927919430666 8.725870317169866" fill="#fff717" stroke="none" /><path d="M 119.4528033332814 92.08871423366111 l 20.586776546524096 -8.372462800190247 a43.224164819337624,43.224164819337624 0 0,0 0.273632273550732,0.6897320791787255 l -20.727467495040955 8.017829703797956" fill="#fff717" stroke="none" /><path d="M 119.71291397450082 92.76114493625339 l 20.884716754690274 -7.6691572757919255 a43.24831155940767,43.24831155940767 0 0,0 0.2499337017493466,0.6991090461888583 l -21.013290626483563 7.309513273222151" fill="#fff717" stroke="none" /><path d="M 119.94978838288452 93.4421083053983 l 21.023225839940878 -6.9107519079132045 a43.12994615108414,43.12994615108414 0 0,0 0.22516970975170014,0.7053409087383462 l -21.138760265469834 6.548841965483471" fill="#fff617" stroke="none" /><path d="M 120.05942366710727 93.78553927170692 l 21.279188943807707 -6.592347128998603 a43.27695945984291,43.27695945984291 0 0,0 0.21375454734422564,0.7115193682101177 l -21.38921981115556 6.2260901571977625" fill="#fff817" stroke="none" /><path d="M 120.26092885502905 94.47779374421319 l 21.44043375333821 -5.843685560846277 a43.222530469443114,43.222530469443114 0 0,0 0.18896585539680655,0.7175341319994574 l -21.537589089539743 5.474770924474021" fill="#fff717" stroke="none" /><path d="M 120.592083275326 95.88100663000786 l 21.646307965144103 -4.329867833240151 a43.07510824379325,43.07510824379325 0 0,0 0.13881201358118656,0.7263231114304532 l -21.717446271007447 3.957642156776383" fill="#fff517" stroke="none" /><path d="M 120.65975698304385 96.23510406497455 l 21.831897150891507 -3.978498919650663 a43.191444001253416,43.191444001253416 0 0,0 0.1266644267424349,0.7305667536888232 l -21.896976395126178 3.603139133041247" fill="#fff617" stroke="none" /><path d="M 120.77682067341334 96.94652285012252 l 21.937233842523355 -3.2240179247145346 a43.172878032416826,43.172878032416826 0 0,0 0.10146753652346557,0.7341685482870348 l -21.989345895602035 2.8469610682274142" fill="#fff617" stroke="none" /><path d="M 120.82617615685814 97.30363454192243 l 21.951603527783885 -2.8420745630848265 a43.13482065125326,43.13482065125326 0 0,0 0.08877128371955914,0.7351535740884804 l -21.997156897763105 2.4648273120729334" fill="#fff617" stroke="none" /><path d="M 120.99303781780057 99.45929381324524 l 26.45062353222772 -0.6812742353690968 a47.459395681447766,47.459395681447766 0 0,0 0.013985986498124457,0.8146135971248676 l -26.458420950324513 0.22711372227516283" fill="#d1ff1c" stroke="none" /><line stroke="#e1ed5e" stroke-width="0.3" x1="184.99686870605535" x2="189.99668451229388" y1="99.2704041080226" y2="99.22748670261217" /><path d="M 185.99683186730306 99.26182062694052 a86.0,86.0 0 0,1 -10.086455211305974,41.156179273409016" fill="none" id="id28" stroke="none" /><text fill="#e1ed5e" style="font-size:6.75px; font-family:Arial;" text-anchor="middle"><textPath startOffset="21.40746469413373" xlink:href="#id28">April</textPath></text><path d="M 120.99303781780057 100.54070618675476 l 22.199484392812302 0.5717799709664323 a43.20684668389268,43.20684668389268 0 0,0 -0.025461821504403185,0.7412931518164505 l -22.186397884311052 -0.9527793873469934" fill="#fff717" stroke="none" /><path d="M 120.82617615685814 102.69636545807757 l 21.94568258411876 2.8413079783859563 a43.128850288953856,43.128850288953856 0 0,0 -0.1013640598299657,0.7334198424796935 l -21.893674007733583 -3.217616129065735" fill="#fff617" stroke="none" /><path d="M 120.77682067341334 103.0534771498775 l 26.229306387520246 3.8548047831935652 a47.51105492972587,47.51105492972587 0 0,0 -0.12551630640180952,0.8059047264224939 l -26.159268588980172 -4.3044976915475095" fill="#d0ff1d" stroke="none" /><path d="M 120.7213421655516 103.40968896794604 l 26.436309880150464 4.350084730583006 a47.791821835078565,47.791821835078565 0 0,0 -0.1401556223853302,0.8083803850113274 l -26.3577394402729 -4.803258148514922" fill="#cdff1d" stroke="none" /><path d="M 120.65975698304385 103.76489593502545 l 4.940213871987405 0.9002715346587503 a26.021573651465605,26.021573651465605 0 0,0 -0.08385601760226427,0.43877011827526946 l -4.924031562102981 -0.9849442179673342" fill="#ff0000" stroke="none" /><path d="M 120.592083275326 104.11899336999214 l 22.13430303631497 4.427480514573374 a43.572770202399816,43.572770202399816 0 0,0 -0.15300742002137532,0.7321958941118205 l -22.05503790546923 -4.806792859970604" fill="#fffb17" stroke="none" /><path d="M 120.51834098615036 104.47187691870673 l 21.594909701342218 4.70651005947175 a43.10184069142281,43.10184069142281 0 0,0 -0.1637647016213068,0.721577491958783 l -21.510934138163247 -5.07652188536955" fill="#fff517" stroke="none" /><path d="M 120.43855184770803 104.8234425847677 l 34.35582937804089 8.107882187144238 a56.29958591561193,56.29958591561193 0 0,0 -0.23005746302509386,0.9387129564441613 l -34.211584388499496 -8.696450968196498" fill="#69ff28" stroke="none" /><path d="M 120.05942366710727 106.21446072829308 l 25.27787281982677 7.831149615289709 a47.46313962084599,47.46313962084599 0 0,0 -0.2477921334492994,0.7762053287632342 l -25.139715970600214 -8.263923977744327" fill="#d1ff1c" stroke="none" /><path d="M 119.31412917781788 108.2440532568976 l 24.384401134479887 10.408250858189541 a47.51284037243515,47.51284037243515 0 0,0 -0.32663068185314525,0.747394921319091 l -24.202136570609774 -10.825307849284476" fill="#d0ff1d" stroke="none" /><path d="M 119.16976305983485 108.57439118712176 l 20.142112259245515 9.009310616235643 a43.06518443258213,43.06518443258213 0 0,0 -0.30764031851283413,0.672249616188423 l -19.984487475877625 -9.353749214638755" fill="#fff517" stroke="none" /><path d="M 119.0197475246899 108.90220220490707 l 20.01197345155726 9.366614039105098 a43.09553212718339,43.09553212718339 0 0,0 -0.31935993753546343,0.6673394411719864 l -19.848234256061886 -9.708765982342188" fill="#fff517" stroke="none" /><path d="M 118.70294669586154 109.54985784667822 l 19.851451595358416 10.136292631782728 a43.289561654729575,43.289561654729575 0 0,0 -0.343620029783565,0.6589367151092173 l -19.6745234965999 -10.475575589996449" fill="#fff817" stroke="none" /><line stroke="#e1ed5e" stroke-width="0.3" x1="174.33088141563837" x2="178.70328620479359" y1="141.23008692659167" y2="143.65538615756765" /><path d="M 175.20536237346943 141.71514677278685 a86.0,86.0 0 0,1 -30.301960400862466,31.631185727798858" fill="none" id="id29" stroke="none" /><text fill="#e1ed5e" style="font-size:6.75px; font-family:Arial;" text-anchor="middle"><textPath startOffset="22.145653131862474" xlink:href="#id29">May</textPath></text><path d="M 118.36410011445183 110.18625677009912 l 19.41364901534317 10.768423853191912 a43.20019640392687,43.20019640392687 0 0,0 -0.3652815955171832,0.6454175786723942 l -19.225934054804608 -11.100098201963428" fill="#fff717" stroke="none" /><path d="M 118.18653347947321 110.5 l 19.113950614212683 11.0354445323929 a43.07088906478581,43.07088906478581 0 0,0 -0.3751808541920823,0.637139112787326 l -18.921696049890837 -11.361934813473775" fill="#fff517" stroke="none" /><path d="M 118.00360718960297 110.81064883170644 l 18.975620635651904 11.394314977844102 a43.13378847650128,43.13378847650128 0 0,0 -0.3866267050324688,0.6315256665456397 l -18.777225966164032 -11.718377760514299" fill="#fff617" stroke="none" /><path d="M 117.81537515405839 111.11811171558189 l 22.422114616981546 13.993057853423494 a47.43022686218025,47.43022686218025 0 0,0 -0.4369957038096361,0.6870298294458835 l -22.178601221546018 -14.375901357548049" fill="#d1ff1c" stroke="none" /><path d="M 117.423217284605 111.72311816256416 l 18.342355041295964 12.341555065080613 a43.107825987314364,43.107825987314364 0 0,0 -0.4183722552282816,0.6104176235843893 l -18.12779304925236 -12.654607423735046" fill="#fff517" stroke="none" /><path d="M 117.21940702142032 112.02048342749411 l 18.09974631329025 12.63502862381421 a43.0736214729271,43.0736214729271 0 0,0 -0.4284490084442928,0.6026671865162143 l -17.880182206315997 -12.943873037039927" fill="#fff517" stroke="none" /><path d="M 117.01052211995028 112.31430620078461 l 17.89907457526905 12.957549655223989 a43.09694466931205,43.09694466931205 0 0,0 -0.43896902032730256,0.5955457825153642 l -17.674003535357922 -13.26290174700823" fill="#fff517" stroke="none" /><path d="M 116.79662413953412 112.60449989151573 l 17.658396324749855 13.251189805204804 a43.07743173504343,43.07743173504343 0 0,0 -0.4489243217080567,0.5876563477801758 l -17.428320025687494 -13.552367066225857" fill="#fff517" stroke="none" /><path d="M 116.35404254752997 113.17365903436017 l 17.17781440876679 13.837231334022132 a43.05779406135799,43.05779406135799 0 0,0 -0.4686188471091191,0.5716387971144186 l -16.937748742419043 -14.130072412835043" fill="#fff517" stroke="none" /><path d="M 116.1254893667686 113.45245675266167 l 16.975156478903866 14.161279277062937 a43.10650963508812,43.10650963508812 0 0,0 -0.47890395457614326,0.5641476543038312 l -16.729557960820607 -14.450593713816325" fill="#fff517" stroke="none" /><path d="M 115.6541949942343 113.99807769240083 l 16.517681004318128 14.770212207136751 a43.158360823947774,43.158360823947774 0 0,0 -0.49858655065645097,0.5480339586795577 l -16.261696752819798 -15.05158374137398" fill="#fff617" stroke="none" /><path d="M 115.41159269507618 114.26474011684316 l 14.829398684309695 13.725870032129599 a41.20669625339876,41.20669625339876 0 0,0 -0.48495212333473414,0.5150023494846475 l -14.591590727238701 -13.978413841558744" fill="#ffdc14" stroke="none" /><path d="M 115.16444852881244 114.52719865689866 l 15.917515381571643 15.248619666780584 a43.042860469201756,43.042860469201756 0 0,0 -0.5157215147750155,0.5291757067448818 l -15.65340706564582 -15.519618065593203" fill="#fff517" stroke="none" /><path d="M 114.65682725009322 115.03919595460226 l 15.49496204963986 15.899196094582972 a43.200862266447714,43.200862266447714 0 0,0 -0.5355415753475892,0.5130367147424496 l -15.219747988426958 -16.162844939631" fill="#fff717" stroke="none" /><path d="M 114.13192950727249 115.5334660781643 l 14.813648951555267 16.282795167100243 a43.01303281498616,43.01303281498616 0 0,0 -0.5504336295133558,0.49220114565303513 l -14.531950295218534 -16.534691842636665" fill="#fff417" stroke="none" /><path d="M 113.86319453409587 115.77377054828091 l 14.560288968182789 16.566936050411545 a43.05596030408586,43.05596030408586 0 0,0 -0.5593594994985973,0.4831614132392396 l -14.273749988921336 -16.8144415961155" fill="#fff517" stroke="none" /><path d="M 112.45986205192187 116.90419585922612 l 14.013297579623915 19.0117294984854 a44.61817875236517,44.61817875236517 0 0,0 -0.6204454989628272,0.449154693856579 l -13.68487107028712 -19.24948496371506" fill="#f5ff19" stroke="none" /><path d="M 112.16784306229584 117.11559508785304 l 12.841294660067689 18.06288909877331 a43.16228352722857,43.16228352722857 0 0,0 -0.6075706136570852,0.42413147464441897 l -12.529328955236846 -18.28066538922285" fill="#fff617" stroke="none" /><path d="M 111.5731344415666 117.5232005979908 l 12.40606083793372 18.784357322696298 a43.51138435417171,43.51138435417171 0 0,0 -0.6268009013106903,0.4062847714359426 l -12.081774304366022 -18.994555935836136" fill="#fffb17" stroke="none" /><line stroke="#e1ed5e" stroke-width="0.3" x1="143.1302829299769" x2="145.66735839644613" y1="173.24464959558577" y2="177.55315839532614" /><path d="M 143.63769802327073 174.10635135553383 a86.0,86.0 0 0,1 -40.68552437913181,11.842963189579606" fill="none" id="id30" stroke="none" /><text fill="#e1ed5e" style="font-size:6.75px; font-family:Arial;" text-anchor="middle"><textPath startOffset="21.407464694133747" xlink:href="#id30">June</textPath></text><path d="M 110.65571695917076 118.09573695890943 l 11.547556290776505 19.61027511867705 a43.75761293543012,43.75761293543012 0 0,0 -0.6505455403281208,0.3755926428285526 l -11.209218282587987 -19.805614658781774" fill="#fffe18" stroke="none" /><path d="M 109.71004243097381 118.62028667847754 l 10.622465855363647 20.36997890228311 a43.973306712962014,43.973306712962014 0 0,0 -0.6723157979414998,0.3432892368686482 l -10.271222835708565 -20.549326090824593" fill="#fdff18" stroke="none" /><path d="M 109.06512990194946 118.94263497670748 l 9.643791212093229 20.15181455733759 a43.34050892204047,43.34050892204047 0 0,0 -0.6738650147428045,0.3154028523389113 l -9.296437483478917 -20.314393641247037" fill="#fff817" stroke="none" /><path d="M 108.4095320186766 119.2426549942271 l 8.879753123433137 20.318612903625535 a43.174220298817694,43.174220298817694 0 0,0 -0.6816693860929873,0.2909641263558214 l -8.529648662169718 -20.46805167964076" fill="#fff617" stroke="none" /><path d="M 108.07796709384702 119.3841803445677 l 8.495538057687648 20.38619864641334 a43.085544189370665,43.085544189370665 0 0,0 -0.6851535842486884,0.2786459980063145 l -8.144330012248519 -20.529031900998945" fill="#fff517" stroke="none" /><path d="M 107.74402155503746 119.51999308798841 l 8.225096961088823 20.732617372952483 a43.30456552261361,43.30456552261361 0 0,0 -0.6933426709223374,0.26819983980974654 l -7.867982027672956 -20.870757100900267" fill="#fff817" stroke="none" /><path d="M 107.407793817531 119.65005319985036 l 7.824723790335018 20.756009486973625 a43.18193481683629,43.18193481683629 0 0,0 -0.6958683425991313,0.2555324941832837 l -7.46726629608176 -20.88727283016563" fill="#fff617" stroke="none" /><path d="M 106.38641147887787 120.00534299687104 l 6.683755083335535 20.93676760281367 a42.977734634585104,42.977734634585104 0 0,0 -0.7047516904465237,0.21833387519800473 l -6.323362760017386 -21.048418065818318" fill="#fff417" stroke="none" /><path d="M 105.69591212413111 120.21278271476187 l 5.981435521184274 21.22600452346326 a43.05268325905416,43.05268325905416 0 0,0 -0.713072570341263,0.19435109993938585 l -5.616181549908316 -21.32555611754679" fill="#fff517" stroke="none" /><path d="M 105.3480935250658 120.30758222061773 l 5.631545847238721 21.383896857071417 a43.11301321447216,43.11301321447216 0 0,0 -0.7173075528685748,0.18233677492982314 l -5.263633001144749 -21.477418863836508" fill="#fff517" stroke="none" /><path d="M 104.9986988182912 120.39639698878246 l 5.268171088077415 21.495935807147752 a43.13207814097609,43.13207814097609 0 0,0 -0.7206504458117866,0.17007154298215127 l -4.89838848852575 -21.58320349377613" fill="#fff617" stroke="none" /><path d="M 104.64783097203109 120.47920084513623 l 4.8829942167010225 21.515373491682606 a43.06252317861523,43.06252317861523 0 0,0 -0.7222970999389465,0.15742129111929665 l -4.5129347001429405 -21.596026240935622" fill="#fff517" stroke="none" /><path d="M 103.94208987418118 120.62667999033965 l 5.785018483164559 30.269661220045368 a51.81750848506209,51.81750848506209 0 0,0 -0.8751366882654715,0.1594790569388868 l -5.26454706134803 -30.36450845091562" fill="#9cff22" stroke="none" /><path d="M 103.2317021107853 120.74984581791261 l 3.64571293025169 23.408092270209426 a44.690293508110926,44.690293508110926 0 0,0 -0.7590431293984288,0.1115532009358618 l -3.243344695245576 -23.46722654444417" fill="#f4ff19" stroke="none" /><path d="M 102.875027216393 120.80226474461374 l 3.09596498368609 22.400860368720927 a43.61379102315979,43.61379102315979 0 0,0 -0.7425189315333637,0.09613394143388673 l -2.710968230261951 -22.45070590635521" fill="#fffc17" stroke="none" /><path d="M 102.51750503828377 120.84855314841334 l 2.234530917773178 18.505121496291448 a39.63954532747492,39.63954532747492 0 0,0 -0.6762583794143834,0.07577616195337798 l -1.9165366367579952 -18.540753418751798" fill="#ffc712" stroke="none" /><path d="M 101.80034050326958 120.92268563240118 l 3.0399118021075964 35.3283830865408 a56.458929979258755,56.458929979258755 0 0,0 -0.9663376169695023,0.07480064309966133 l -2.433005190362858 -35.37536149663552" fill="#67ff28" stroke="none" /><path d="M 101.44090949804482 120.95050786540614 l 2.719767921584412 39.54482867282846 a60.63824683699615,60.63824683699615 0 0,0 -1.03909598100375,0.06250943391424327 l -2.040527588448197 -39.585690084567396" fill="#3aff2e" stroke="none" /><path d="M 100.72087961077811 120.9876233191556 l 0.7642294168510045 22.24970562418057 a43.26282657176022,43.26282657176022 0 0,0 -0.7424450805775633,0.019122751641669412 l -0.3821710222026974 -22.259546093172286" fill="#fff717" stroke="none" /><line stroke="#e1ed5e" stroke-width="0.3" x1="101.45913802915013" x2="101.54496967792366" y1="184.9874750549273" y2="189.98673829345242" /><path d="M 101.47630435890484 185.9873277026323 a86.0,86.0 0 0,1 -42.54439059252881,-10.42667462771756" fill="none" id="id31" stroke="none" /><text fill="#e1ed5e" style="font-size:6.75px; font-family:Arial;" text-anchor="middle"><textPath startOffset="22.145653131862474" xlink:href="#id31">July</textPath></text><path d="M 100.0 121.0 l 3.2448016349956758e-15 26.49581607737703 a47.49581607737703,47.49581607737703 0 0,0 -0.81532884075318,-0.006998617500621337 l 0.4548359159043247 -26.491911858070843" fill="#d1ff1d" stroke="none" /><path d="M 99.63950707515114 120.99690560180557 l -0.4542689416548603 26.45888845046957 a47.462787802983726,47.462787802983726 0 0,0 -0.8145217524419439,-0.0209791910353341 l 0.9084040081675482 -26.447191542084187" fill="#d1ff1c" stroke="none" /><path d="M 99.27912038922189 120.98762331915562 l -0.9080568039135647 26.43708306906253 a47.45267336886097,47.45267336886097 0 0,0 -0.813868120861254,-0.034950998968779186 l 1.3617506853756576 -26.417599501667922" fill="#d1ff1c" stroke="none" /><path d="M 98.55909050195518 120.95050786540614 l -2.12964904201405 30.964629677166677 a52.03777853014327,52.03777853014327 0 0,0 -0.8906662403215729,-0.06894319996787814 l 2.660884277110859 -30.923508710203745" fill="#9aff23" stroke="none" /><path d="M 98.19965949673042 120.92268563240118 l -1.719107681662495 19.97863711134008 a41.052462992055766,41.052462992055766 0 0,0 -0.7016069948556818,-0.06644291187087568 l 2.061814239903192 -19.94618244396402" fill="#ffda14" stroke="none" /><path d="M 97.84075906011543 120.88869738790638 l -3.181293434133691 30.776128138485845 a51.94011459433469,51.94011459433469 0 0,0 -0.8861084917090707,-0.09929030474144523 l 3.709137827443561 -30.71698207323743" fill="#9bff22" stroke="none" /><path d="M 97.48249496171623 120.84855314841334 l -2.6463210555846852 21.915334561846343 a43.074530665155436,43.074530665155436 0 0,0 -0.7333380964018169,-0.0949452985193855 l 3.0221369738772963 -21.86667766712656" fill="#fff517" stroke="none" /><path d="M 96.76829788921471 120.74984581791261 l -3.7211209577334863 23.892265900711624 a45.18030419685391,45.18030419685391 0 0,0 -0.7653166962727156,-0.12593257113451464 l 4.1307151570592655 -23.824867331081443" fill="#eeff19" stroke="none" /><path d="M 96.05791012581884 120.62667999033965 l -8.263577368245473 43.238528646082045 a65.02109801446389,65.02109801446389 0 0,0 -1.094532698226144,-0.21893719382123625 l 9.004606552002574 -43.09030205559795" fill="#34ff5a" stroke="none" /><path d="M 95.70440661134978 120.55596938700252 l -4.50846882278255 21.57465540110038 a43.040690706106105,43.040690706106105 0 0,0 -0.7219308991124765,-0.15734147935358897 l 4.878162138514163 -21.494082463613072" fill="#fff517" stroke="none" /><path d="M 95.35216902796893 120.47920084513623 l -4.873584462093966 21.473912376667695 a43.02000768096973,43.02000768096973 0 0,0 -0.7187779733864442,-0.16962964458824797 l 5.241494589220298 -21.38708658843322" fill="#fff417" stroke="none" /><path d="M 94.30408787586889 120.21278271476187 l -7.910693366216735 28.072260008547552 a50.1655764819042,50.1655764819042 0 0,0 -0.8268720010626609,-0.2406903885476789 l 8.391425379661003 -27.932325925697356" fill="#b0ff20" stroke="none" /><path d="M 93.95794788825049 120.11202640906438 l -6.356685136471862 21.15933741951966 a43.0935512301062,43.0935512301062 0 0,0 -0.7066508585196764,-0.21892224232174795 l 6.718976627863172 -21.04709858939126" fill="#fff517" stroke="none" /><path d="M 93.61358852112213 120.00534299687104 l -6.702122754482739 20.994304071074282 a43.038131791167814,43.038131791167814 0 0,0 -0.7018848358378461,-0.23072348674419219 l 7.061530327968328 -20.876159662928067" fill="#fff417" stroke="none" /><path d="M 93.27111125876986 119.89276391827306 l -7.0683147134878865 20.896216493210336 a43.05930498950556,43.05930498950556 0 0,0 -0.6981640385085541,-0.24285769406972155 l 7.425984524041462 -20.771800366572023" fill="#fff517" stroke="none" /><path d="M 92.59220618246901 119.65005319985036 l -7.853235749939592 20.831640847249353 a43.262762005935315,43.262762005935315 0 0,0 -0.6926733613112657,-0.26794093647377504 l 8.209681373744386 -20.693760022637537" fill="#fff717" stroke="none" /><path d="M 92.25597844496254 119.51999308798841 l -8.133767996081302 20.502408720637955 a43.0569024380616,43.0569024380616 0 0,0 -0.6846981182928144,-0.27846076396718794 l 8.484520575564558 -20.359760700091474" fill="#fff517" stroke="none" /><path d="M 91.26138138417905 119.09545874513695 l -9.210234325892005 20.126024184726653 a43.13335188854236,43.13335188854236 0 0,0 -0.6706441047695983,-0.3138953038381708 l 9.554367144533094 -19.964952649317958" fill="#fff617" stroke="none" /><path d="M 90.6110303473126 118.78422872680471 l -9.893441459747702 19.793510273191742 a43.128335519247756,43.128335519247756 0 0,0 -0.6593968813349366,-0.3366927459984118 l 10.231765562796221 -19.620759575520495" fill="#fff617" stroke="none" /><path d="M 90.28995756902619 118.62028667847754 l -10.622634419544589 20.370302146326075 a43.97367126829994,43.97367126829994 0 0,0 -0.6663292384999125,-0.35478278835758964 l 10.970752473831062 -20.184948890245913" fill="#fdff18" stroke="none" /><path d="M 89.97174638481275 118.45085714620012 l -10.571610050757883 19.450571788139296 a43.13783372308242,43.13783372308242 0 0,0 -0.647592990074162,-0.35920891512785896 l 10.903947228988148 -19.26622995757829" fill="#fff617" stroke="none" /><line stroke="#e1ed5e" stroke-width="0.3" x1="58.13341422392154" x2="55.67067388415222" y1="173.97424548756322" y2="178.32567169271397" /><path d="M 57.64086615596768 174.84453072859336 a86.0,86.0 0 0,1 -31.369924170532247,-30.572349798747897" fill="none" id="id32" stroke="none" /><text fill="#e1ed5e" style="font-size:6.75px; font-family:Arial;" text-anchor="middle"><textPath startOffset="22.145653131862474" xlink:href="#id32">August</textPath></text><path d="M 89.65649057296885 118.27599006163327 l -10.930726917340975 19.313547100917557 a43.19220341833689,43.19220341833689 0 0,0 -0.642139582710027,-0.37073946093495086 l 11.260658967911402 -19.123060742706432" fill="#fff617" stroke="none" /><path d="M 89.34428304082925 118.09573695890944 l -11.245805671788167 19.097836598648485 a43.16293094237088,43.16293094237088 0 0,0 -0.6352499088219379,-0.3814493180351914 l 11.571988337167532 -18.901973280077375" fill="#fff617" stroke="none" /><path d="M 88.72937992617639 117.7192867562869 l -11.843670328655586 18.62021693800017 a43.067736759170955,43.067736759170955 0 0,0 -0.6204099598010545,-0.4021422403625614 l 12.16156592071365 -18.414160855933712" fill="#fff517" stroke="none" /><path d="M 88.4268655584334 117.5232005979908 l -12.334413028797673 18.67587340779524 a43.38137601464591,43.38137601464591 0 0,0 -0.6178824092114342,-0.4157388601332417 l 12.653191726106114 -18.461384873604878" fill="#fff917" stroke="none" /><path d="M 88.1277618465304 117.32195027204791 l -12.502311059637242 18.241245472103444 a43.11449339698882,43.11449339698882 0 0,0 -0.6068978995098178,-0.4236618679240084 l 12.813604050320825 -18.02393878837431" fill="#fff517" stroke="none" /><path d="M 87.2517909369889 116.68781488649013 l -13.411853645393121 17.55654694810547 a43.09321522428269,43.09321522428269 0 0,0 -0.5839952622154586,-0.454118248162504 l 13.711258852243807 -17.323727648322176" fill="#fff517" stroke="none" /><path d="M 86.96720088162412 116.46651593811092 l -13.717657811969996 17.331812524898695 a43.10352599121997,43.10352599121997 0 0,0 -0.5762515103336645,-0.464187426020689 l 14.013160092658923 -17.093776805084595" fill="#fff517" stroke="none" /><path d="M 86.68645165197938 116.24036423190432 l -14.344596268116888 17.498075048375004 a43.6263137186294,43.6263137186294 0 0,0 -0.575089683010559,-0.47976026734075666 l 14.64286028528934 -17.24925259712238" fill="#fffc17" stroke="none" /><path d="M 86.40962598614128 116.0094264158162 l -14.311566917071499 16.858989842387086 a43.114395450193214,43.114395450193214 0 0,0 -0.5601186569729231,-0.483817155384491 l 14.598865053807284 -16.610828554537875" fill="#fff517" stroke="none" /><path d="M 86.13680546590413 115.77377054828092 l -18.074399527564868 20.56534879061042 a48.379143324097974,48.379143324097974 0 0,0 -0.6191032277861792,-0.553605923866346 l 18.42476778217442 -20.252047336860695" fill="#c6ff1e" stroke="none" /><path d="M 85.86807049272751 115.53346607816431 l -14.885494340129624 16.361765834603084 a43.11979482220429,43.11979482220429 0 0,0 -0.5432482846193047,-0.5028225020176589 l 15.164172396062895 -16.10382558645305" fill="#fff617" stroke="none" /><path d="M 85.34317274990678 115.03919595460226 l -15.430202657837892 15.832747253603127 a43.108076344594636,43.108076344594636 0 0,0 -0.5255245643747932,-0.5210329284212942 l 15.699719142342648 -15.565534314953172" fill="#fff517" stroke="none" /><path d="M 85.08716467003676 114.78537596483092 l -15.644112211890661 15.510402654555174 a43.02977161490011,43.02977161490011 0 0,0 -0.5155646896083389,-0.5290147903083334 l 15.90806370264981 -15.239565172179104" fill="#fff417" stroke="none" /><path d="M 84.83555147118756 114.52719865689866 l -16.125214440026625 15.447590666437684 a43.33048584636384,43.33048584636384 0 0,0 -0.5099465142048897,-0.5415455264348851 l 16.388016787967768 -15.16850368005831" fill="#fff817" stroke="none" /><path d="M 84.58840730492382 114.26474011684316 l -17.19891769456231 15.919061453154614 a44.435428039906625,44.435428039906625 0 0,0 -0.5133398574550737,-0.5642504272501909 l 17.469655252859265 -15.621473450346748" fill="#f7ff18" stroke="none" /><path d="M 84.3458050057657 113.99807769240083 l -19.400607847571557 17.34814316738305 a47.025788291832285,47.025788291832285 0 0,0 -0.532934158194364,-0.6063812426511093 l 19.695553069724514 -17.012549646920643" fill="#d6ff1c" stroke="none" /><path d="M 84.1078160697243 113.72728997021213 l -17.184121022443428 14.843234459985673 a43.70717121413604,43.70717121413604 0 0,0 -0.48557717418968527,-0.5720086902290108 l 17.436392760140226 -14.546058987307108" fill="#fffd17" stroke="none" /><path d="M 83.64595745247003 113.17365903436017 l -17.49971337919808 14.096530358569067 a43.471140080203845,43.471140080203845 0 0,0 -0.46314063496307983,-0.5851630626649905 l 17.739120444802722 -13.794047351989397" fill="#fffa17" stroke="none" /><path d="M 83.4222238831116 112.89097897827486 l -11.002400507481113 8.555533182041847 a34.93735860757123,34.93735860757123 0 0,0 -0.3640938975109934,-0.47661059941301065 l 11.147646382346402 -8.365401669387966" fill="#ff850c" stroke="none" /><path d="M 83.20337586046588 112.60449989151573 l -18.996936134105347 14.255655032363162 a44.750942778867085,44.750942778867085 0 0,0 -0.4558160134342494,-0.6184019642236485 l 19.238854167123428 -13.927446758870634" fill="#f3ff19" stroke="none" /><path d="M 82.78059297857968 112.02048342749411 l -18.324997167947863 12.79227121422818 a43.34832709675756,43.34832709675756 0 0,0 -0.4207063787716922,-0.6138231795903523 l 18.54189328353488 -12.475813299567776" fill="#fff917" stroke="none" /><path d="M 81.99639281039703 110.81064883170644 l -18.228361496173157 10.9456073350861 a42.262160820788154,42.262160820788154 0 0,0 -0.36813620384979856,-0.6251757563984558 l 18.413571410152727 -10.631080410394086" fill="#ffea16" stroke="none" /><line stroke="#e1ed5e" stroke-width="0.3" x1="26.387840678322732" x2="22.057713659400548" y1="142.50000000000003" y2="145.00000000000006" /><path d="M 25.521815274538298 143.00000000000003 a86.0,86.0 0 0,1 -11.493303480769221,-40.785679425670985" fill="none" id="id33" stroke="none" /><text fill="#e1ed5e" style="font-size:6.75px; font-family:Arial;" text-anchor="middle"><textPath startOffset="21.40746469413373" xlink:href="#id33">September</textPath></text><path d="M 81.81346652052679 110.50000000000001 l -19.66796814610035 11.355306703564036 a43.71061340712805,43.71061340712805 0 0,0 -0.3695974540740549,-0.6530432872048093 l 19.859998965195782 -11.016006646260104" fill="#fffd17" stroke="none" /><path d="M 81.63589988554817 110.18625677009913 l -19.77552667353056 10.969151290021683 a43.614016344712034,43.614016344712034 0 0,0 -0.357540749318819,-0.657834708092757 l 19.96091277246471 -10.62806174845434" fill="#fffc17" stroke="none" /><path d="M 81.4637452351635 109.86951160357371 l -20.211296603042666 10.761377035311758 a43.897679927719736,43.897679927719736 0 0,0 -0.3484470968891054,-0.6681932527567461 l 20.39305176890672 -10.41283753945051" fill="#feff18" stroke="none" /><path d="M 81.29705330413844 109.54985784667822 l -20.66061817016958 10.549458850421416 a44.19810822481601,44.19810822481601 0 0,0 -0.3392311866453755,-0.6786896152538091 l 20.838669270026696 -10.193237379003854" fill="#faff18" stroke="none" /><path d="M 81.1358732173502 109.22738970284198 l -20.627388966412646 10.089889595115194 a43.96290590524849,43.96290590524849 0 0,0 -0.32578762091492086,-0.6807708272988091 l 20.79755584528748 -9.73430626575128" fill="#fdff18" stroke="none" /><path d="M 80.83023694016515 108.57439118712176 l -33.13494992310661 14.820841641057514 a57.29851585610749,57.29851585610749 0 0,0 -0.39390306192073543,-0.9013272920391536 l 33.38448686704431 -14.249852279242512" fill="#5eff2a" stroke="none" /><path d="M 80.68587082218212 108.24405325689762 l -20.34550748021808 8.684287324647421 a43.12140413637077,43.12140413637077 0 0,0 -0.2847535381434341,-0.6833048306584978 l 20.491586862898004 -8.333749984547643" fill="#fff617" stroke="none" /><path d="M 79.56144815229197 104.8234425847677 l -21.513641371465113 5.077160785057371 a43.10462229257355,43.10462229257355 0 0,0 -0.16377527026698332,-0.7216240593616817 l 21.59762750328976 -4.707102391756663" fill="#fff517" stroke="none" /><path d="M 79.48165901384964 104.47187691870673 l -21.610669776933843 4.709944894594284 a43.117970727844735,43.117970727844735 0 0,0 -0.15141037457520065,-0.7245534535149382 l 21.68833786233341 -4.338274989793937" fill="#fff617" stroke="none" /><path d="M 79.407916724674 104.11899336999214 l -21.75975944359837 4.352561306324971 a43.19080712747028,43.19080712747028 0 0,0 -0.1391848598877218,-0.7282740008560982 l 21.83127059576825 -3.9783847404355583" fill="#fff617" stroke="none" /><path d="M 79.2786578344484 103.40968896794605 l -23.493483745683818 3.865843810033212 a44.80942096885772,44.80942096885772 0 0,0 -0.11837903873811681,-0.7600783480912294 l 23.556384276560202 -3.4619772800105326" fill="#f3ff19" stroke="none" /><path d="M 79.22317932658666 103.0534771498775 l -22.09709504666959 3.2475120166011395 a43.33445642498421,43.33445642498421 0 0,0 -0.10184728793677009,-0.7369162403407514 l 22.149586851161573 -2.8677074680603027" fill="#fff817" stroke="none" /><path d="M 79.06263194458094 101.62068470465958 l -27.48621676304723 2.127607012443889 a48.56843890293063,48.56843890293063 0 0,0 -0.05720908527880987,-0.831807544285572 l 27.518689809491107 -1.6554560440039736" fill="#c3ff1e" stroke="none" /><path d="M 79.03789590574601 101.26102812881392 l -22.117324537049317 1.3305233219870642 a43.157308884147355,43.157308884147355 0 0,0 -0.0381395741057862,-0.7398975485831455 l 22.136905700611678 -0.9506539800271879" fill="#fff617" stroke="none" /><path d="M 79.00696218219943 100.54070618675478 l -22.034854411364496 0.5675396866271 a43.0421621041568,43.0421621041568 0 0,0 -0.012684255443946633,-0.7387942892287286 l 22.041350098407108 -0.18919848142931903" fill="#fff517" stroke="none" /><line stroke="#e1ed5e" stroke-width="0.3" x1="15.003131293944662" x2="10.003315487706104" y1="100.72959589197737" y2="100.7725132973878" /><path d="M 14.003168132696942 100.73817937305945 a86.0,86.0 0 0,1 10.791469493833604,-42.45332614584628" fill="none" id="id34" stroke="none" /><text fill="#e1ed5e" style="font-size:6.75px; font-family:Arial;" text-anchor="middle"><textPath startOffset="22.145653131862435" xlink:href="#id34">October</textPath></text><path d="M 79.0935383218832 98.0201363427161 l -22.821091095360135 -2.161181053729548 a43.923195726811855,43.923195726811855 0 0,0 0.07752989429297745,-0.7500313978341534 l 22.780628808585494 2.552616973846614" fill="#feff18" stroke="none" /><path d="M 79.13060592940154 97.66154086499901 l -21.99601067075825 -2.464698874946248 a43.133667250870836,43.133667250870836 0 0,0 0.08876891002630026,-0.7351339165031987 l 21.95045967447228 2.841926468372883" fill="#fff617" stroke="none" /><path d="M 79.22317932658666 96.9465228501225 l -26.196482244255634 -3.8499807644951214 a47.477878197857606,47.477878197857606 0 0,0 0.12542865899324857,-0.8053419671855253 l 26.12653209312412 4.299110913612097" fill="#d1ff1c" stroke="none" /><path d="M 79.34024301695615 96.23510406497455 l -21.704075584677124 -3.9552055723259976 a43.06151735726118,43.06151735726118 0 0,0 0.13876821616771523,-0.7260939448561708 l 21.63298107622725 4.327202082215483" fill="#fff517" stroke="none" /><path d="M 79.407916724674 95.88100663000787 l -21.725344173176016 -4.345677288384631 a43.155710111340035,43.155710111340035 0 0,0 0.15154289783858257,-0.7251876253041821 l 21.647543564513068 4.7179813649742215" fill="#fff617" stroke="none" /><path d="M 79.73907114497095 94.47779374421319 l -25.637351799630096 -6.9875742372287 a47.57254223853598,47.57254223853598 0 0,0 0.22151023409188983,-0.7860616760267237 l 25.513623073463624 7.426643837158437" fill="#d0ff1d" stroke="none" /><path d="M 79.83685265289637 94.1308016681162 l -21.70097477826053 -6.316837484556445 a43.601653526523165,43.601653526523165 0 0,0 0.21535828369989052,-0.7168576849511605 l 21.58934017455701 6.688432773098329" fill="#fffc17" stroke="none" /><path d="M 80.05021161711548 93.44210830539832 l -21.342511855147148 -7.015707562937592 a43.466040258482494,43.466040258482494 0 0,0 0.23909339601796273,-0.7068371412147834 l 21.21893303755682 7.381046378626536" fill="#fffa17" stroke="none" /><path d="M 80.16572619554312 93.10060997987247 l -20.860330204201045 -7.2563056982247 a43.08636114470627,43.08636114470627 0 0,0 0.24899778390222876,-0.6964911173988135 l 20.732692250254875 7.613331772004435" fill="#fff517" stroke="none" /><path d="M 80.28708602549916 92.7611449362534 l -21.059188704665587 -7.73322579251117 a43.43417504738417,43.43417504738417 0 0,0 0.26302353999333017,-0.6977011889086981 l 20.92333448085782 8.093595261614013" fill="#fffa17" stroke="none" /><path d="M 80.68587082218212 91.75594674310238 l -13.715826876519722 -5.854470900105648 a35.91303914119602,35.91303914119602 0 0,0 0.246886954561277,-0.5649256675219512 l 13.613306039941468 6.089058637403466" fill="#ff930d" stroke="none" /><path d="M 81.63589988554816 89.8137432299009 l -19.304415438220587 -10.707833829310934 a43.07528393311273,43.07528393311273 0 0,0 0.3642253913691389,-0.6435513671463288 l 19.11775668183008 11.037641966556366" fill="#fff517" stroke="none" /><line stroke="#e1ed5e" stroke-width="0.3" x1="26.387840678322718" x2="22.05771365940052" y1="57.49999999999999" y2="54.99999999999999" /><path d="M 25.521815274538284 56.99999999999999 a86.0,86.0 0 0,1 29.574782752854787,-30.34633250058573" fill="none" id="id35" stroke="none" /><text fill="#e1ed5e" style="font-size:6.75px; font-family:Arial;" text-anchor="middle"><textPath startOffset="21.40746469413373" xlink:href="#id35">November</textPath></text><path d="M 81.99639281039701 89.18935116829357 l -19.185017748174236 -11.52005192744602 a43.37803616068249,43.37803616068249 0 0,0 0.3888160021168016,-0.6351017188008234 l 18.984433781602043 11.847690762371386" fill="#fff917" stroke="none" /><path d="M 82.18462484594161 88.88188828441811 l -18.753809310670523 -11.703764035597995 a43.106185927516975,43.106185927516975 0 0,0 0.39715639802188396,-0.6243958236147301 l 18.55013522102275 12.023973533891398" fill="#fff517" stroke="none" /><path d="M 82.37810715431573 88.57770195909679 l -18.545043073754805 -12.020672865553895 a43.10011761842196,43.10011761842196 0 0,0 0.4077590500201217,-0.6173991726464035 l 18.335959584813956 12.337251916539358" fill="#fff517" stroke="none" /><path d="M 82.576782715395 88.27688183743585 l -18.448060457919247 -12.412678386867611 a43.235231489571994,43.235231489571994 0 0,0 0.4196087575590724,-0.6122217174383311 l 18.23226196354486 12.727534839375977" fill="#fff717" stroke="none" /><path d="M 82.98947788004972 87.6856937992154 l -22.043030192967635 -15.957453949693154 a48.21278222903091,48.21278222903091 0 0,0 0.49107698804927924,-0.6662402483551922 l 21.765851185334537 16.333500507317208" fill="#c8ff1d" stroke="none" /><path d="M 83.2033758604659 87.39550010848427 l -18.094293358016575 -13.578295065338043 a43.62241253729023,43.62241253729023 0 0,0 0.4546037488962222,-0.5950909002815383 l 17.858537631766048 13.886906878860467" fill="#fffc17" stroke="none" /><path d="M 83.8745106332314 86.54754324733833 l -17.787739072579228 -14.839164577208336 a44.164724618774045,44.164724618774045 0 0,0 0.4906604930843412,-0.5779968271050927 l 17.53038401598777 15.142328186762985" fill="#fbff18" stroke="none" /><path d="M 84.34580500576568 86.00192230759919 l -16.813599120380733 -15.034824011241566 a43.55533303744092,43.55533303744092 0 0,0 0.5031725683562573,-0.5530747954836972 l 16.55302885118261 15.32123638228292" fill="#fffb17" stroke="none" /><path d="M 84.58840730492382 85.73525988315684 l -22.91403759080191 -21.208891107328125 a52.22291115055073,52.22291115055073 0 0,0 0.6145994207698868,-0.6526832865724311 l 22.546582336295753 21.599115853845067" fill="#98ff23" stroke="none" /><path d="M 84.83555147118756 85.47280134310135 l -19.2070145966082 -18.399885503302915 a47.59821791490884,47.59821791490884 0 0,0 0.5703018985281616,-0.5851799887449854 l 18.88832589692924 18.726888184115634" fill="#cfff1d" stroke="none" /><path d="M 85.60350026404147 84.71141617570332 l -15.282450818539614 -16.229433172311165 a43.29232612617167,43.29232612617167 0 0,0 0.5454219344548645,-0.5048343998547425 l 15.001599112770796 16.48938531829827" fill="#fff817" stroke="none" /><path d="M 85.86807049272753 84.46653392183569 l -42.395788521817444 -46.600398234492936 a84.0,84.0 0 0,0 1.0749398927064324,-0.9612178804663962 l 41.58958360228762 47.32131164484273" fill="#4dd2ff" stroke="none" /><path d="M 87.83215693770416 82.88440491214696 l -15.875474530403354 -22.33084306715569 a48.39885478729761,48.39885478729761 0 0,0 0.6812828122234894,-0.4755883140216059 l 15.489796627006099 22.600076196982425" fill="#c5ff1e" stroke="none" /><path d="M 88.4268655584334 82.4767994020092 l -21.881512400920524 -33.131398682416936 a60.70503952403142,60.70503952403142 0 0,0 0.8744831738297435,-0.5668294280704689 l 21.309543594833755 33.50214195219131" fill="#39ff2e" stroke="none" /><path d="M 88.72937992617638 82.28071324371311 l -24.71194965409488 -38.85128940197513 a67.04457779046894,67.04457779046894 0 0,0 0.9764112789749949,-0.6093528531463573 l 24.04137424633019 39.26977805196302" fill="#36ff73" stroke="none" /><line stroke="#e1ed5e" stroke-width="0.3" x1="56.869717070023135" x2="54.33264160355391" y1="26.7553504044142" y2="22.446841604673864" /><path d="M 56.362301976729285 25.89364864446614 a86.0,86.0 0 0,1 42.16139366436587,-11.88097634709845" fill="none" id="id36" stroke="none" /><text fill="#e1ed5e" style="font-size:6.75px; font-family:Arial;" text-anchor="middle"><textPath startOffset="22.145653131862474" xlink:href="#id36">December</textPath></text><path d="M 89.34428304082924 81.90426304109057 l -13.986243041027539 -23.75169836845102 a48.56371110334329,48.56371110334329 0 0,0 0.7219979235769196,-0.41684569553148315 l 13.57645264959022 23.988290961258677" fill="#c3ff1e" stroke="none" /><path d="M 89.97174638481275 81.54914285379989 l -11.031326797281816 -20.296398822767042 a44.1005189569682,44.1005189569682 0 0,0 0.6682513505582871,-0.35580620476527697 l 10.681286630936967 20.482775495254895" fill="#fcff18" stroke="none" /><path d="M 90.93487009805054 81.0573650232925 l -12.16183359043358 -25.41355466969101 a49.173728138653786,49.173728138653786 0 0,0 0.7645608199182833,-0.3578530686607002 l 11.723784056643774 25.618583969922252" fill="#bcff1f" stroke="none" /><path d="M 91.5904679813234 80.7573450057729 l -9.608167444255043 -21.9853674194893 a44.99319199703916,44.99319199703916 0 0,0 0.7103887772543166,-0.303222726682032 l 9.229343591830295 22.147064795830737" fill="#f0ff19" stroke="none" /><path d="M 91.92203290615298 80.6158196554323 l -8.984444951477432 -21.559397211203507 a44.35653782555492,44.35653782555492 0 0,0 0.7053651392324538,-0.28686586146347864 l 8.613025351054537 21.710450329246278" fill="#f8ff18" stroke="none" /><path d="M 92.93061703081487 80.22567764915836 l -8.109967405332192 -22.68502221861423 a45.09111463537069,45.09111463537069 0 0,0 0.7311078221619404,-0.25431725212585166 l 7.719353811125248 22.820897903308666" fill="#efff19" stroke="none" /><path d="M 93.95794788825049 79.88797359093562 l -6.809628591396759 -22.667038869089694 a44.66781976958569,44.66781976958569 0 0,0 0.7362532658087728,-0.21431259540687095 l 6.419515313206362 22.780595158799088" fill="#f4ff19" stroke="none" /><path d="M 94.30408787586887 79.78721728523814 l -6.53447078938582 -23.188531589567287 a45.09164389944564,45.09164389944564 0 0,0 0.7468434481265511,-0.203555502852184 l 6.135445940324591 23.29728758656361" fill="#efff19" stroke="none" /><path d="M 95.35216902796891 79.52079915486377 l -10.718310971147503 -47.22685579997217 a69.42786490054652,69.42786490054652 0 0,0 1.1645287310410877,-0.2538036168240213 l 9.906019823487297 47.40389087492991" fill="#3aff90" stroke="none" /></svg>