<?xml version="1.0" encoding="utf-8" ?>
<svg baseProfile="full" height="200mm" version="1.1" viewBox="0,0,200,200" width="200mm" xmlns="http://www.w3.org/2000/svg" xmlns:ev="http://www.w3.org/2001/xml-events" xmlns:xlink="http://www.w3.org/1999/xlink"><defs /><rect fill="#1a1a1a" height="200" width="200" x="0" y="0" /><text alignment-baseline="middle" fill="#e1ed5e" style="dominant-baseline: central; font-size:9.0px; font-family:Arial;" text-anchor="middle" x="100.0" y="100.0">2023</text><line stroke="#e1ed5e" stroke-width="0.3" x1="100.0" x2="100.0" y1="15.0" y2="10.0" /><path d="M 100.0 14.0 a86.0,86.0 0 0,1 42.46469731375804,11.215312516191453" fill="none" id="id61" stroke="none" /><text fill="#e1ed5e" style="font-size:6.75px; font-family:Arial;" text-anchor="middle"><textPath startOffset="22.20632615414155" xlink:href="#id61">January</textPath></text><path d="M 109.41281617654863 81.2277094730956 l 12.998052895791488 -25.92244665860849 a49.99866582879626,49.99866582879626 0 0,0 0.7660260173795075,0.3923882787137183 l -13.442339400759751 25.69486585458227" fill="#c4ff1e" stroke="none" /><path d="M 109.73455568895987 81.39251694778311 l 9.531060163552882 -18.218503867013112 a41.56100656567271,41.56100656567271 0 0,0 0.6310444197492442,0.33708207457782546 l -9.843249629830437 18.051743065933533" fill="#ffc812" stroke="none" /><path d="M 110.36928655335952 81.73862282372117 l 11.419562203985132 -20.11102032158491 a44.12703049044315,44.12703049044315 0 0,0 0.6572894916196526,0.380744498647182 l -11.764048428070113 19.91147166554768" fill="#ffec16" stroke="none" /><line stroke="#e1ed5e" stroke-width="0.3" x1="143.23703022742887" x2="145.7803849466894" y1="26.81831364943548" y2="22.513508569990506" /><path d="M 143.74570117128098 25.957352633546492 a86.0,86.0 0 0,1 28.547481713284135,27.462654790039103" fill="none" id="id62" stroke="none" /><text fill="#e1ed5e" style="font-size:6.75px; font-family:Arial;" text-anchor="middle"><textPath startOffset="19.985693538727396" xlink:href="#id62">February</textPath></text><path d="M 110.68208982089419 81.91981866633111 l 12.862031801839912 -21.76988503146803 a46.28556418897702,46.28556418897702 0 0,0 0.6824650694964645,0.4111775682178378 l -13.234858937554014 21.54526085379158" fill="#f5ff19" stroke="none" /><path d="M 111.2981086023043 82.29822771554956 l 13.676548841875151 -21.42829050047025 a46.42085014307626,46.42085014307626 0 0,0 0.6698594421180296,0.4356952145061742 l -14.043375309777462 21.18969636180455" fill="#f3ff19" stroke="none" /><path d="M 111.60114157652 82.49532879139004 l 12.407380261322785 -18.72118451465378 a43.45942640809811,43.45942640809811 0 0,0 0.620011435030979,0.41863448860432584 l -12.727796390760307 18.504838113750782" fill="#ffe315" stroke="none" /><path d="M 111.90073688211348 82.69761687909136 l 15.501777807445832 -22.537906798254806 a48.35438462181594,48.35438462181594 0 0,0 0.6817251214816609,0.4775920137803375 l -15.887434068511144 22.26772994171053" fill="#d9ff1c" stroke="none" /><path d="M 112.19680574252982 82.90503203632743 l 15.80445062573214 -22.151420858351457 a48.21150686060978,48.21150686060978 0 0,0 0.6714133803346085,0.4878103746849284 l -16.183409322420538 21.876091248849857" fill="#dbff1b" stroke="none" /><path d="M 113.6212207817346 84.01681056812373 l 14.90093414591137 -17.484809693811123 a43.9729494939065,43.9729494939065 0 0,0 0.5718707237418332,0.495920656321229 l -15.199698668299966 17.225724044070223" fill="#ffea16" stroke="none" /><path d="M 114.42810811169701 84.74124197986012 l 16.79119250581206 -17.75788906849528 a45.4394510972776,45.4394510972776 0 0,0 0.5637018291378525,0.5422807130102402 l -17.09437757856233 17.466225268722738" fill="#fffe18" stroke="none" /><path d="M 114.94478906791727 85.2469230424477 l 16.34759782959192 -16.137890454996928 a43.97118767359579,43.97118767359579 0 0,0 0.5271009192791148,0.5432238307960106 l -16.622963012574143 15.854102428650803" fill="#ffea16" stroke="none" /><path d="M 115.19652480421416 85.50635884689758 l 19.1954269706346 -18.307582416198905 a47.52606247656975,47.52606247656975 0 0,0 0.5595236048705444,0.5968607700207494 l -19.507717897475608 17.974452229300102" fill="#e4ff1a" stroke="none" /><path d="M 115.4437574822437 85.77008943001954 l 19.631320902891403 -18.08834029800811 a47.69413447049455,47.69413447049455 0 0,0 0.5511088111704499,0.6085481140457303 l -19.93977335467789 17.74773939669283" fill="#e2ff1b" stroke="none" /><path d="M 115.68641384162765 86.03803664274999 l 16.505804709310762 -14.691276340151003 a43.096949780559896,43.096949780559896 0 0,0 0.48844879536905356,0.5583814100187205 l -16.756245368257666 14.404979373929335" fill="#ffde14" stroke="none" /><path d="M 116.38621287248628 86.86637796730983 l 17.506319073833453 -14.03139210314172 a43.43548911583995,43.43548911583995 0 0,0 0.46257951896013777,0.5874290133937411 l -17.745252673387554 13.727970695794939" fill="#ffe315" stroke="none" /><path d="M 116.60985879189232 87.15038557335679 l 17.798117516127803 -13.768867662737781 a43.50232663152594,43.50232663152594 0 0,0 0.4530954995497152,0.5962205661499581 l -18.03248895590163 13.46046232070679" fill="#ffe315" stroke="none" /><path d="M 116.82858285166822 87.43820079747576 l 20.61973406030319 -15.391727346150363 a46.73089006264378,46.73089006264378 0 0,0 0.47562563604297237,0.6487528330437736 l -20.88162230885979 15.034512069435095" fill="#efff19" stroke="none" /><path d="M 117.04232023915458 87.72973835380427 l 20.6062760585641 -14.836266144759605 a46.391601094060455,46.391601094060455 0 0,0 0.46101627121060934,0.6520748214354875 l -20.85860494957859 14.479364822992325" fill="#f3ff19" stroke="none" /><path d="M 117.2510076193507 88.02491185347247 l 34.3748859904864 -23.861927305693378 a62.84524299847156,62.84524299847156 0 0,0 0.6092263773139115,0.8939645341216702 l -34.78053683346904 23.2666847483013" fill="#30ff33" stroke="none" /><path d="M 117.65298651832404 88.62581576622439 l 18.745223268405773 -12.077934956602846 a43.29932528571908,43.29932528571908 0 0,0 0.3982968926843155,0.630010033020915 l -18.950347757336047 11.753477275867725" fill="#ffe115" stroke="none" /><line stroke="#e1ed5e" stroke-width="0.3" x1="172.23445277983987" x2="176.4835382374775" y1="55.19839476539836" y2="52.563006222186495" /><path d="M 173.08426987136738 54.67131705675599 a86.0,86.0 0 0,1 12.851231095245387,41.99856678651699" fill="none" id="id63" stroke="none" /><text fill="#e1ed5e" style="font-size:6.75px; font-family:Arial;" text-anchor="middle"><textPath startOffset="22.20632615414155" xlink:href="#id63">March</textPath></text><path d="M 117.84615892207809 88.93136811851018 l 18.488167632146805 -11.466821660449453 a42.7554669310248,42.7554669310248 0 0,0 0.3825274653921593,0.6287745742799705 l -18.682810895825188 11.146879312962401" fill="#ffd914" stroke="none" /><path d="M 118.03404312379186 89.2402003453031 l 22.0568761407943 -13.159975644635699 a46.68444556648529,46.68444556648529 0 0,0 0.40579970908945284,0.6936432447422536 l -22.280135524354083 12.77835298753955" fill="#efff19" stroke="none" /><path d="M 118.3937258080291 89.86733742301442 l 36.85857534445156 -20.304505510824843 a63.08120150924554,63.08120150924554 0 0,0 0.515739590033591,0.9555871330632482 l -37.20262303370362 19.667037394429137" fill="#30ff36" stroke="none" /><path d="M 118.56541770881063 90.18545643968196 l 22.654214571841027 -11.976071814134771 a46.624982613932204,46.624982613932204 0 0,0 0.3689824899766244,0.7127567258671146 l -22.857006494977767 11.584342366007313" fill="#f0ff19" stroke="none" /><path d="M 119.04729006885535 91.15688171328212 l 23.40338505067222 -10.865530034170188 a46.80267766634855,46.80267766634855 0 0,0 0.3329624572982752,0.7336386388105272 l -23.586949824933843 10.461069386517599" fill="#eeff19" stroke="none" /><path d="M 119.196687751892 91.48605970444005 l 23.13174510238309 -10.259181129535762 a46.304711595476576,46.304711595476576 0 0,0 0.316877011158349,0.7313958307566778 l -23.304912823384118 9.859486154192481" fill="#f4ff19" stroke="none" /><path d="M 119.34039704204932 91.81776055985345 l 18.71189742089652 -7.91634343102466 a41.31756871301488,41.31756871301488 0 0,0 0.2714727825231153,0.657392875907679 l -18.845391890305834 7.593075984663678" fill="#ffc512" stroke="none" /><path d="M 119.47837535516314 92.15188598940014 l 40.370058619011495 -16.265669845643448 a64.52371363325858,64.52371363325858 0 0,0 0.4062119584715641,1.033765126653776 l -40.644064127364764 15.568355714093887" fill="#32ff49" stroke="none" /><path d="M 119.7369772167798 92.82701384747503 l 24.79792636747257 -9.012280882301988 a47.384813033790806,47.384813033790806 0 0,0 0.2720044394107935,0.7689931787260476 l -24.949383887693173 8.584090077149325" fill="#e6ff1a" stroke="none" /><path d="M 119.85752413597 93.16781622104841 l 24.836378650972755 -8.545209472499359 a47.26530619321595,47.26530619321595 0 0,0 0.2580746628009551,0.77161039341176 l -24.979790607545482 8.116425976165285" fill="#e8ff1a" stroke="none" /><path d="M 119.97218684219823 93.5106431181261 l 24.291413322193215 -7.892758637714994 a46.541503481644355,46.541503481644355 0 0,0 0.24100634670532206,0.7640559799791012 l -24.423675152666743 7.473452491309474" fill="#f1ff19" stroke="none" /><path d="M 120.08093135843002 93.85539295169968 l 21.82042151807982 -6.67687735512282 a43.819103541594984,43.819103541594984 0 0,0 0.21449263990131837,0.7231625517441846 l -21.932120055092838 6.300285416632106" fill="#ffe815" stroke="none" /><path d="M 120.18372546131832 94.20196356495316 l 24.743085588724966 -7.107771656617628 a46.743750744085176,46.743750744085176 0 0,0 0.21549587930361208,0.7752533342841345 l -24.86176823859494 6.680807018914542" fill="#eeff19" stroke="none" /><path d="M 120.37134235888165 94.90015583598534 l 24.93673008547628 -6.242761775616552 a46.706275147189196,46.706275147189196 0 0,0 0.18853143592737676,0.781584517185787 l -25.040494321664475 5.812592026771359" fill="#efff19" stroke="none" /><path d="M 120.53481517161879 95.60439243477599 l 21.36189034515988 -4.572648257309272 a42.84581129653253,42.84581129653253 0 0,0 0.14816633254511294,0.7225116576919457 l -21.437435973619987 4.204260943453914" fill="#ffda14" stroke="none" /><path d="M 120.6074358757038 95.95851677861258 l 24.556827667178077 -4.816028912379829 a46.02462626215147,46.02462626215147 0 0,0 0.1457759380069659,0.778740889882604 l -24.6360893290949 4.392609945034662" fill="#f8ff18" stroke="none" /><path d="M 120.83666639777658 97.38593545837742 l 25.523147949100302 -3.2020072103016206 a46.72321774985561,46.72321774985561 0 0,0 0.09324540773489987,0.7988697094617638 l -25.57448370983879 2.762193762515004" fill="#efff19" stroke="none" /><path d="M 120.98425023603335 99.18683210126433 l 28.359087527213518 -1.098952755289115 a49.38037248759281,49.38037248759281 0 0,0 0.025603265882808035,0.8496477481447877 l -28.37380248755197 0.6106348597193282" fill="#ccff1d" stroke="none" /><line stroke="#e1ed5e" stroke-width="0.3" x1="184.98032266829074" x2="189.97916517819016" y1="98.17113171792111" y2="98.06355123074" /><path d="M 185.9800911702706 98.14961562048488 a86.0,86.0 0 0,1 -9.607161424134198,41.387399972396054" fill="none" id="id64" stroke="none" /><text fill="#e1ed5e" style="font-size:6.75px; font-family:Arial;" text-anchor="middle"><textPath startOffset="21.466115282336823" xlink:href="#id64">April</textPath></text><path d="M 120.99513854157772 99.54816195383933 l 41.379627135687855 -0.8905342462408503 a62.389208655545495,62.389208655545495 0 0,0 0.013865237748894768,1.0738779436800021 l -41.388825380554465 0.17812004450038563" fill="#32ff2f" stroke="none" /><path d="M 120.99980553446 99.90962569577887 l 25.989189950299266 -0.11184650996766861 a46.98943061928307,46.98943061928307 0 0,0 -0.0034810278371013702,0.8088682758798281 l -25.987264625172664 -0.3355312441158443" fill="#ebff1a" stroke="none" /><path d="M 120.99824983174949 100.27111621757518 l 25.42899414283788 0.3283232061713853 a46.43111360605732,46.43111360605732 0 0,0 -0.01719706148062911,0.7990798724492991 l -25.419575018672244 -0.7659928944107993" fill="#f3ff19" stroke="none" /><path d="M 120.9904718944345 100.63252640178507 l 25.26901682667583 0.7614559772837475 a46.28048707189336,46.28048707189336 0 0,0 -0.030848957600665302,0.7960745214115246 l -25.25216573622396 -1.1963077457092783" fill="#f5ff19" stroke="none" /><path d="M 120.9764740272857 100.99374915477107 l 41.78243488372342 1.9794203399468993 a62.82929559166378,62.82929559166378 0 0,0 -0.06047663500350447,1.0798509438930268 l -41.742171897832385 -2.6983430001753494" fill="#30ff32" stroke="none" /><path d="M 120.95626037817324 101.35467743843564 l 21.34231636529689 1.3796332905911202 a42.38686175793276,42.38686175793276 0 0,0 -0.05333365500302691,0.7276953487301188 l -21.315406151629528 -1.7468017758180092" fill="#ffd413" stroke="none" /><path d="M 120.89721153311464 102.0752229133903 l 26.567212053510797 2.6382891856637696 a47.69788991893179,47.69788991893179 0 0,0 -0.08816772904329101,0.8163236702475436 l -26.517862022966455 -3.095209177796104" fill="#e2ff1b" stroke="none" /><path d="M 120.8583938346157 102.4346265915055 l 42.55216607348802 4.966759946623724 a63.84104972935526,63.84104972935526 0 0,0 -0.1367976612341858,1.090411956455964 l -42.460366903006985 -5.698489657367083" fill="#31ff40" stroke="none" /><path d="M 120.76222939487914 103.15116336523771 l 23.71017320642183 3.5985841294068774 a44.98170388473143,44.98170388473143 0 0,0 -0.12277487392918204,0.7645192571547856 l -23.64471657813136 -4.0061826162548675" fill="#fff817" stroke="none" /><path d="M 120.70491114924044 103.5080841355445 l 21.342059251472893 3.616037709134983 a42.64622881259611,42.64622881259611 0 0,0 -0.12885975899886756,0.722713961254463 l -21.276653050134836 -3.9828704211226644" fill="#ffd814" stroke="none" /><path d="M 120.5718875245553 104.21870165774334 l 24.616789396545236 5.048194537888858 a46.12907854033317,46.12907854033317 0 0,0 -0.1662095747861892,0.776475799384473 l -24.526245783034604 -5.4711841566895005" fill="#f7ff19" stroke="none" /><path d="M 120.49622156327973 104.57218783832717 l 25.68599318180041 5.729894423642727 a47.31733147265484,47.31733147265484 0 0,0 -0.18417580458339278,0.7934245458166169 l -25.583556811286464 -6.171187626807909" fill="#e7ff1a" stroke="none" /><path d="M 120.41448212921028 104.9243191809786 l 28.39794170743727 6.850064976674241 a50.212437135639064,50.212437135639064 0 0,0 -0.20990875534188724,0.8384811342608086 l -28.27582163780032 -7.337873950332446" fill="#c1ff1e" stroke="none" /><path d="M 120.32669344350535 105.2749913415812 l 21.49723285102413 5.578758663935056 a43.209312652164215,43.209312652164215 0 0,0 -0.19302613046900519,0.7183220389582393 l -21.398018644213348 -5.947971636068844" fill="#ffdf14" stroke="none" /><path d="M 120.13307415673323 105.97154293290107 l 24.645407239598157 7.3099173173646745 a46.70663317496761,46.70663317496761 0 0,0 -0.2352529207756409,0.7688201567376941 l -24.515927546316384 -7.733064446654426" fill="#efff19" stroke="none" /><path d="M 120.02730092923936 106.31721596034902 l 21.114040165468683 6.660006357921885 a43.139520699341816,43.139520699341816 0 0,0 -0.22947708331245206,0.7062578414697328 l -20.996270831139984 -7.022463099369413" fill="#ffde14" stroke="none" /><path d="M 119.9155931802556 106.66101706037122 l 22.07273166639983 7.382498772100265 a44.27459497686161,44.27459497686161 0 0,0 -0.24795706312160484,0.7206792915598401 l -21.942383772334992 -7.761350766749405" fill="#ffee16" stroke="none" /><path d="M 119.41010516605496 108.01547362559984 l 19.869464196253865 8.20516761024035 a42.49698543885518,42.49698543885518 0 0,0 -0.2850313667308327,0.6737299540470953 l -19.725281848330724 -8.54597208995361" fill="#ffd513" stroke="none" /><path d="M 119.26925614724726 108.34839909993367 l 24.067510431141972 10.427241243025009 a47.22922832058483,47.22922832058483 0 0,0 -0.32961259388780756,0.7431893840335202 l -23.884456752522894 -10.839978963551216" fill="#e8ff1a" stroke="none" /><path d="M 119.12269723197855 108.67885076344098 l 20.4651848163162 9.288139780303874 a43.47428152676838,43.47428152676838 0 0,0 -0.3151375791916837,0.678778309623714 l -20.302272620284686 -9.639038157206418" fill="#ffe315" stroke="none" /><line stroke="#e1ed5e" stroke-width="0.3" x1="174.80103733775053" x2="179.2010983576182" y1="140.37084112569926" y2="142.7455964860345" /><path d="M 175.68104954172406 140.8457921977663 a86.0,86.0 0 0,1 -30.038265399797805,32.042727171017184" fill="none" id="id65" stroke="none" /><text fill="#e1ed5e" style="font-size:6.75px; font-family:Arial;" text-anchor="middle"><textPath startOffset="22.206326154141568" xlink:href="#id65">May</textPath></text><path d="M 118.30583269289576 110.29060199501025 l 22.468027851384498 12.630375034572028 a46.77476768167911,46.77476768167911 0 0,0 -0.40058802847553227,0.698458993312497 l -22.247287826756587 -13.015253873742841" fill="#eeff19" stroke="none" /><path d="M 118.12598468904814 110.60418214915192 l 24.45317073765237 14.30575392591235 a49.33041041908032,49.33041041908032 0 0,0 -0.43509216282233837,0.7292394913446861 l -24.203297699131806 -14.72455551114314" fill="#ccff1d" stroke="none" /><path d="M 117.94076556474637 110.91462005526583 l 18.628723168399866 11.33315268872066 a42.80526717907245,42.80526717907245 0 0,0 -0.3883770002892234,0.6261873863952717 l -18.43088152844268 -11.652136406481205" fill="#ffda14" stroke="none" /><path d="M 117.75023020441432 111.22182372390056 l 21.105982592552394 13.343354618264868 a45.97013443427758,45.97013443427758 0 0,0 -0.42860613105403533,0.6652062334897141 l -20.87317159812131 -13.704682451676035" fill="#f9ff18" stroke="none" /><path d="M 117.55443506779139 111.5257021239791 l 22.107863721198576 14.51534332287218 a47.44717054990832,47.44717054990832 0 0,0 -0.454130187503784,0.6788630131251817 l -21.85473042828407 -14.893743250203169" fill="#e5ff1a" stroke="none" /><path d="M 117.14729908036423 112.12312394758627 l 20.74843576779165 14.66912411993268 a46.41024968897722,46.41024968897722 0 0,0 -0.4667991702478992,0.6483432200651431 l -20.49285680516815 -15.024100945448955" fill="#f3ff19" stroke="none" /><line stroke="#e1ed5e" stroke-width="0.3" x1="143.8653032363475" x2="146.44561519142675" y1="172.8068346515853" y2="177.08958963109032" /><path d="M 144.38136562736335 173.6633856474863 a86.0,86.0 0 0,1 -40.68145358897372,12.25698825130547" fill="none" id="id66" stroke="none" /><text fill="#e1ed5e" style="font-size:6.75px; font-family:Arial;" text-anchor="middle"><textPath startOffset="21.466115282336833" xlink:href="#id66">June</textPath></text><path d="M 109.2508944713604 118.85261126421891 l 10.476469961267403 21.350239829510897 a44.782118568936866,44.782118568936866 0 0,0 -0.6949488162727653,0.33361766378094354 l -10.107408476994404 -21.5274117697914" fill="#fff517" stroke="none" /><path d="M 108.92500713936063 119.00905698771935 l 9.885427435851444 21.054622202747748 a44.259810654644696,44.259810654644696 0 0,0 -0.6924173476821402,0.317854843394577 l -9.521542092401884 -21.221664116476397" fill="#ffee16" stroke="none" /><path d="M 108.59647513512805 119.15986991738527 l 10.979819447622685 24.471880512185546 a47.82218057699784,47.82218057699784 0 0,0 -0.7539492991346436,0.3305092162131353 l -10.556949473830286 -24.657254281693135" fill="#e0ff1b" stroke="none" /><path d="M 108.2653958097858 119.30500536409082 l 10.953256928221156 25.582886605772142 a48.82908414625642,48.82908414625642 0 0,0 -0.775518722351265,0.3241668888392594 l -10.511266746372431 -25.767638537631374" fill="#d3ff1c" stroke="none" /><path d="M 107.93186726928326 119.44442032107085 l 10.083063345374985 24.71792771554663 a47.69539505191547,47.69539505191547 0 0,0 -0.762851331799784,0.3035542883803652 l -9.656090937533333 -24.887828848333065" fill="#e2ff1b" stroke="none" /><path d="M 107.59598834532513 119.57807347666477 l 8.931731998089104 23.02084960939756 a45.6928198718613,45.6928198718613 0 0,0 -0.7357191950529995,0.27818604657999896 l -8.53414258227583 -23.171183906084188" fill="#fdff18" stroke="none" /><path d="M 107.2578585660854 119.70592522655815 l 7.909782560725587 21.475974253389428 a43.88628694852453,43.88628694852453 0 0,0 -0.7111259526273077,0.25498446596263724 l -7.538937047468544 -21.608946260392024" fill="#ffe915" stroke="none" /><path d="M 106.91757812671514 119.82793768551818 l 8.799134542366453 25.22106555164854 a47.71192460784545,47.71192460784545 0 0,0 -0.7777731377658392,0.26386287682367204 l -8.363691671663387 -25.368791415370335" fill="#e2ff1b" stroke="none" /><path d="M 106.57524785965236 119.94407469862006 l 7.271106380489069 22.054756244847315 a44.22243012727179,44.22243012727179 0 0,0 -0.724992321953667,0.23211964698662854 l -6.890392713444462 -22.17664873849365" fill="#ffed16" stroke="none" /><path d="M 105.18746579009965 120.34920634021253 l 5.534374588055049 21.71004783709569 a43.404362949432254,43.404362949432254 0 0,0 -0.7255694781529363,0.17832732471229307 l -5.159851825158901 -21.802096420122012" fill="#ffe215" stroke="none" /><path d="M 104.48393922423573 120.51570834832081 l 6.369066454281922 29.14087441704637 a50.828770831013586,50.828770831013586 0 0,0 -0.8563644345267607,0.17945949353051868 l -5.866510558325784 -29.24618989130343" fill="#b9ff1f" stroke="none" /><path d="M 104.13013068566511 120.58985236759428 l 4.456714068454792 22.217961536315723 a43.660540927285204,43.660540927285204 0 0,0 -0.738138380690657,0.14146597744351697 l -4.073608073192431 -22.291384712107707" fill="#ffe615" stroke="none" /><path d="M 103.7750983002368 120.6578951692458 l 5.4834557713400836 30.00627943448083 a51.503198073257664,51.503198073257664 0 0,0 -0.8734722364890215,0.15186434454334716 l -4.966134563379012 -30.096222357545184" fill="#b1ff20" stroke="none" /><path d="M 103.41894727170886 120.7198165907248 l 3.728625330381087 22.59655585223823 a43.90211744004648,43.90211744004648 0 0,0 -0.7466791362491266,0.11661592485009241 l -3.339110330523443 -22.657390084435427" fill="#ffe915" stroke="none" /><path d="M 103.06178313531738 120.77559828337769 l 4.586821206780409 31.123678777422462 a52.45985234267872,52.45985234267872 0 0,0 -0.8944939635463725,0.12396871269996869 l -4.050398652047207 -31.198022055615034" fill="#a5ff21" stroke="none" /><path d="M 102.70371172650421 120.8252237178851 l 3.666537837206145 28.241350577945823 a49.478366915574796,49.478366915574796 0 0,0 -0.8455442399143646,0.10238363208806629 l -3.1798661742404 -28.30027973875924" fill="#cbff1d" stroke="none" /><path d="M 101.98527174616119 120.90594882070398 l 2.537523613402494 26.721449542461336 a47.84166335641073,47.84166335641073 0 0,0 -0.8204974717384567,0.07079597433490156 l -2.0771818239224955 -26.7611697690749" fill="#e0ff1b" stroke="none" /><line stroke="#e1ed5e" stroke-width="0.3" x1="102.19456741930631" x2="102.32365962044197" y1="184.97166512339345" y2="189.96999836594603" /><path d="M 102.22038585953345 185.97133177190398 a86.0,86.0 0 0,1 -42.740103519485714,-10.115201625700543" fill="none" id="id67" stroke="none" /><text fill="#e1ed5e" style="font-size:6.75px; font-family:Arial;" text-anchor="middle"><textPath startOffset="22.20632615414155" xlink:href="#id67">July</textPath></text><path d="M 100.54218724476979 120.99299961872073 l 0.6859026310363607 26.557529360432582 a47.566385304544184,47.566385304544184 0 0,0 -0.8186861454837758,0.014094424443132011 l -0.22865679565991692 -26.565401262154875" fill="#e4ff1b" stroke="none" /><path d="M 100.18074693466247 120.99922214144158 l 0.2620272706096999 30.442391030996774 a51.443518685832885,51.443518685832885 0 0,0 -0.8855484105442897,0.0 l 0.2620272706096789 -30.442391030996774" fill="#b2ff20" stroke="none" /><path d="M 99.45781275523022 120.99299961872073 l -0.6816328685427538 26.392208019392935 a47.40100883501209,47.40100883501209 0 0,0 -0.8154771334371574,-0.02808668132097928 l 1.1358303536545544 -26.376564539645862" fill="#e6ff1a" stroke="none" /><path d="M 98.01472825383883 120.90594882070398 l -2.486197511007665 26.180958865602122 a47.29874113310542,47.29874113310542 0 0,0 -0.8098612158597587,-0.08394542634658696 l 2.936491323473017 -26.134284070799776" fill="#e7ff1a" stroke="none" /><path d="M 97.65516085044442 120.86867818915974 l -2.912007269518196 25.91638006538174 a47.079465907702996,47.079465907702996 0 0,0 -0.8045490119838874,-0.09741968090058144 l 3.357683704553473 -25.862414855755812" fill="#eaff1a" stroke="none" /><path d="M 97.2962882734958 120.8252237178851 l -3.3809541850337324 26.041654734502302 a47.26021006222767,47.26021006222767 0 0,0 -0.8058347617994365,-0.11168135520232447 l 3.82871753802 -25.979598813807375" fill="#e8ff1a" stroke="none" /><path d="M 96.93821686468263 120.77559828337769 l -3.3188715902057417 22.520060979133447 a43.7633050134677,43.7633050134677 0 0,0 -0.7443182400367735,-0.11624720141600574 l 3.7060256938510325 -22.45959547037034" fill="#ffe715" stroke="none" /><path d="M 96.22490169976321 120.6578951692458 l -4.738116216012723 25.927671362611907 a47.357046260232735,47.357046260232735 0 0,0 -0.8006326238385246,-0.15344314788035404 l 5.183716454422943 -25.842271016383087" fill="#e6ff1a" stroke="none" /><path d="M 95.51606077576429 120.51570834832081 l -6.431205990750187 29.42518616690076 a51.11979401410689,51.11979401410689 0 0,0 -0.858033207483811,-0.19528556450702245 l 6.936759347626861 -29.310123868816053" fill="#b6ff1f" stroke="none" /><path d="M 95.16358092515715 120.4354850818985 l -6.920698815844681 29.242262760718685 a51.050058293896015,51.050058293896015 0 0,0 -0.8533788227495152,-0.209739752028227 l 7.423030923337407 -29.118801750376427" fill="#b7ff1f" stroke="none" /><path d="M 94.81253420990036 120.34920634021253 l -6.683806220495721 26.21899737217371 a48.057514460777604,48.057514460777604 0 0,0 -0.7998362189888968,-0.2112440150332378 l 7.134132882296107 -26.10006200783689" fill="#ddff1b" stroke="none" /><path d="M 94.46302465271185 120.25689768951611 l -7.188824900185141 26.300151504596876 a48.264944023604215,48.264944023604215 0 0,0 -0.7995176047136855,-0.22595166125758342 l 7.640473673003441 -26.17251105000077" fill="#daff1b" stroke="none" /><path d="M 94.11515582081647 120.15858648285463 l -7.424903168230148 25.434072353697356 a47.495683111607185,47.495683111607185 0 0,0 -0.7828306919515724,-0.2358604658269228 l 7.861608834621966 -25.302496518764706" fill="#e4ff1a" stroke="none" /><path d="M 93.76903079525671 120.05430185196036 l -7.7605697794202255 24.97730349577398 a47.155155002814524,47.155155002814524 0 0,0 -0.7730720636379618,-0.24751326196574006 l 8.189363188149128 -24.840017387148535" fill="#e9ff1a" stroke="none" /><path d="M 93.08242187328487 119.8279376855182 l -12.552419258079052 35.9791508375601 a59.10593817533555,59.10593817533555 0 0,0 -0.9577426005569236,-0.3434124217101391 l 13.169881419265703 -35.75775087481" fill="#56ff2b" stroke="none" /><path d="M 92.7421414339146 119.70592522655815 l -10.195254991979295 27.68129617135801 a50.4991081573311,50.4991081573311 0 0,0 -0.8131072520495695,-0.307447587903294 l 10.670232464789148 -27.501700333348083" fill="#bdff1f" stroke="none" /><path d="M 92.40401165467489 119.57807347666478 l -9.413865716507173 24.263512043256636 a47.025735040564925,47.025735040564925 0 0,0 -0.7521406325602683,-0.2992922801093196 l 9.8301274251093 -24.09787291874125" fill="#ebff1a" stroke="none" /><path d="M 92.06813273071674 119.44442032107085 l -9.959401750378223 24.41477992587009 a47.367995032882305,47.367995032882305 0 0,0 -0.7523132499927948,-0.3144669995114005 l 10.37818645986848 -24.239727883338716" fill="#e6ff1a" stroke="none" /><path d="M 91.7346041902142 119.30500536409082 l -10.182724631161532 23.78319903239184 a46.871382590198536,46.871382590198536 0 0,0 -0.7389593202772251,-0.3239380499969095 l 10.5906046260965 -23.60439642910048" fill="#edff1a" stroke="none" /><path d="M 91.40352486487194 119.15986991738527 l -9.09033205260076 20.26058086551704 a43.206424156867214,43.206424156867214 0 0,0 -0.6759377678085033,-0.31028987654694123 l 9.437737816176682 -20.10110391863602" fill="#ffdf14" stroke="none" /><path d="M 90.7491055286396 118.85261126421891 l -15.6441444208061 31.88156283047353 a56.51300188906128,56.51300188906128 0 0,0 -0.8696169393127108,-0.43604398632291846 l 16.190615267801572 -31.60755100324131" fill="#74ff27" stroke="none" /><path d="M 90.42595943632237 118.69057910512821 l -12.765410165538698 24.92081654777942 a49.00004989464332,49.00004989464332 0 0,0 -0.747388655138566,-0.39099842059920237 l 13.19248972320376 -24.6973887082355" fill="#d1ff1d" stroke="none" /><path d="M 90.10565033884886 118.52300852407294 l -10.543116822522938 19.73755218502845 a43.37695865371538,43.37695865371538 0 0,0 -0.6555646270098298,-0.35746610444074134 l 10.881304261401407 -19.553145428827943" fill="#ffe215" stroke="none" /><line stroke="#e1ed5e" stroke-width="0.3" x1="58.666819895761336" x2="56.23545636021788" y1="174.27360380694188" y2="178.64263932499728" /><path d="M 58.180547188652646 175.14741091055294 a86.0,86.0 0 0,1 -31.652253787137756,-30.449443065178592" fill="none" id="id68" stroke="none" /><text fill="#e1ed5e" style="font-size:6.75px; font-family:Arial;" text-anchor="middle"><textPath startOffset="22.20632615414155" xlink:href="#id68">August</textPath></text><path d="M 89.4739219176387 118.17145234162733 l -3.7236268528396304 6.428197412649278 a28.428803329956935,28.428803329956935 0 0,0 -0.4213312849760913,-0.2489299497282233 l 3.8337260088441036 -6.363148890627305" fill="#ff0000" stroke="none" /><path d="M 88.8546689885994 117.79835938074946 l -14.63888865922064 23.37734079185902 a48.58255107265777,48.58255107265777 0 0,0 -0.7049517816582658,-0.4499335806934548 l 15.03912224292583 -23.12189278234176" fill="#d6ff1c" stroke="none" /><path d="M 88.54995079064634 117.60387380957326 l -20.189018189598304 31.039598350244077 a58.027734486522476,58.027734486522476 0 0,0 -0.8326297416947092,-0.551821590883147 l 20.720322630032975 -30.68747873826961" fill="#62ff29" stroke="none" /><path d="M 88.24862548938628 117.40417183066458 l -16.920369670529116 25.059623528998973 a51.23712356032763,51.23712356032763 0 0,0 -0.7266964049604709,-0.49982841370340464 l 17.349222960112478 -24.764654325930465" fill="#b4ff20" stroke="none" /><path d="M 87.95078237400918 117.19931262002967 l -23.474888336166515 33.5085609494762 a61.913250167888734,61.913250167888734 0 0,0 -0.8675894080221414,-0.619002006696314 l 24.048205072037543 -33.09951468093566" fill="#37ff2e" stroke="none" /><path d="M 87.65650970185807 116.9893568818739 l -13.904322006643996 19.137657426354274 a44.65544550907755,44.65544550907755 0 0,0 -0.6179782675044173,-0.4571655485259589 l 14.231685244566979 -18.895481929088547" fill="#fff316" stroke="none" /><path d="M 87.36589467227662 116.77436683061367 l -20.79122265390159 27.604613592085332 a55.55849578631068,55.55849578631068 0 0,0 -0.7589588728194383,-0.5819373000113508 l 21.263310255214513 -27.242636950246617" fill="#7fff26" stroke="none" /><path d="M 87.07902340077011 116.55440617244103 l -18.412642683772333 23.590350416187523 a50.92540798984692,50.92540798984692 0 0,0 -0.6863835791351313,-0.5453046272556535 l 18.81598375562482 -23.269911874926738" fill="#b8ff1f" stroke="none" /><path d="M 86.79598089348748 116.32954008644616 l -18.71732482240946 23.147899403433748 a50.76849837158525,50.76849837158525 0 0,0 -0.6748097344971318,-0.555322470678305 l 19.11300468545128 -22.82228181389826" fill="#baff1f" stroke="none" /><path d="M 86.51685102203217 116.09983520530335 l -17.271681167314092 20.62361106939343 a47.900637611160064,47.900637611160064 0 0,0 -0.6275771000381735,-0.534834819646961 l 17.62412374392932 -20.32325185952352" fill="#dfff1b" stroke="none" /><path d="M 86.24171649860922 115.8653595955263 l -21.832952469733893 25.1766611677501 a54.32479679009844,54.32479679009844 0 0,0 -0.7011976950834209,-0.6187254390530759 l 22.2630925177239 -24.797112586924737" fill="#8eff24" stroke="none" /><path d="M 85.97065885151581 115.62618273729859 l -17.667381133282696 19.678310132760963 a47.445647010232065,47.445647010232065 0 0,0 -0.6030125982317867,-0.5508377111940272 l 18.00349328098134 -19.37127965498036" fill="#e5ff1a" stroke="none" /><path d="M 85.70375840098266 115.38237550388516 l -22.88271753250549 24.621195101972134 a54.61282508093913,54.61282508093913 0 0,0 -0.6830872443545305,-0.6459016256932566 l 23.30314061125084 -24.22365883953295" fill="#8aff24" stroke="none" /><path d="M 85.44109423537348 115.13401014063109 l -31.401029169367085 32.6414293462971 a66.29334987241226,66.29334987241226 0 0,0 -0.8155661950812306,-0.7982031758170247 l 31.958245316824108 -32.096076067557505" fill="#34ff60" stroke="none" /><path d="M 85.18274418774928 114.88116024355367 l -18.205681851045526 18.284200016616463 a46.802302647421335,46.802302647421335 0 0,0 -0.5659944536333754,-0.5733493933163354 l 18.517716929734437 -17.968110129319463" fill="#eeff19" stroke="none" /><path d="M 84.9287848128048 114.62390073753433 l -18.613779871640922 18.06132191811998 a46.93615527675345,46.93615527675345 0 0,0 -0.5576315830957124,-0.5846744854941637 l 18.921918006115593 -17.738240316043317" fill="#ecff1a" stroke="none" /><path d="M 84.67929136418377 114.36230785411682 l -19.060435866660175 17.86809306657367 a47.126020846328736,47.126020846328736 0 0,0 -0.5496994325322085,-0.5965901670572473 l 19.36518170718811 -17.53735164471508" fill="#e9ff1a" stroke="none" /><path d="M 84.43433777217949 114.09645910891817 l -38.63614730274752 34.989379996046495 a73.12493252664547,73.12493252664547 0 0,0 -0.8369014477543626,-0.9402676484833681 l 39.23270760015021 -34.31913817782227" fill="#3effb5" stroke="none" /><path d="M 84.19399662182784 113.82643327865904 l -19.39411557153896 16.965164345010734 a46.76719852943726,46.76719852943726 0 0,0 -0.5248114590405881,-0.610474291665617 l 19.68326954015033 -16.628812954183587" fill="#eeff19" stroke="none" /><path d="M 83.72743513129214 113.27417163493432 l -29.038194951395884 23.687598535541756 a58.47424569509403,58.47424569509403 0 0,0 -0.6295228360839961,-0.7854265315758238 l 29.44163569953474 -23.18424417038767" fill="#5dff2a" stroke="none" /><path d="M 83.50135304334701 112.99209946851258 l -26.08804144419822 20.54340760622354 a54.20568479145773,54.20568479145773 0 0,0 -0.5709489497093656,-0.7380284821923022 l 26.437797211125652 -20.091301129917987" fill="#8fff24" stroke="none" /><path d="M 82.85270091963577 112.12312394758628 l -27.389951411111962 19.364669288093094 a54.54399879174053,54.54399879174053 0 0,0 -0.5354119252704314,-0.771300811260399 l 27.719224243544527 -18.89032721464568" fill="#8bff24" stroke="none" /><path d="M 82.6465618267979 111.8261652097733 l -27.228800729195516 18.556109323899086 a53.95052021426571,53.95052021426571 0 0,0 -0.5163755725972868,-0.7719114182752149 l 27.544179407203536 -18.08466099141805" fill="#93ff23" stroke="none" /><path d="M 82.44556493220864 111.52570212397912 l -36.78710567028712 24.15328208066443 a65.00763773329598,65.00763773329598 0 0,0 -0.6061037767393432,-0.940686521299051 l 37.19741431040351 -23.51647395944393" fill="#33ff50" stroke="none" /><path d="M 82.24976979558568 111.22182372390057 l -53.25069061324296 33.6654711717017 a84.0,84.0 0 0,0 -0.7621414413281764,-1.2288146745389432 l 53.82229669423909 -32.743860165797486" fill="#4dd2ff" stroke="none" /><path d="M 82.05923443525364 110.91462005526583 l -31.803768641948864 19.34845253953671 a58.226903114620136,58.226903114620136 0 0,0 -0.5135588574139922,-0.8607541848761405 l 32.13210837506109 -18.79813626077446" fill="#60ff29" stroke="none" /><line stroke="#e1ed5e" stroke-width="0.3" x1="26.63291911575756" x2="22.317208475507996" y1="142.92168965132927" y2="145.44649492493687" /><path d="M 25.769776987707644 143.4266507060508 a86.0,86.0 0 0,1 -11.730757126820373,-40.83630448921669" fill="none" id="id69" stroke="none" /><text fill="#e1ed5e" style="font-size:6.75px; font-family:Arial;" text-anchor="middle"><textPath startOffset="21.46611528233685" xlink:href="#id69">September</textPath></text><path d="M 81.87401531095188 110.60418214915194 l -25.35218981089341 14.831703945828801 a50.37197593190287,50.37197593190287 0 0,0 -0.43139520577205853,-0.7521739036737025 l 25.603737012817845 -14.39311019629679" fill="#bfff1e" stroke="none" /><path d="M 81.51974371655577 109.97397251340807 l -48.518229945461314 26.18575654217353 a76.1335876097923,76.1335876097923 0 0,0 -0.612503746024538,-1.1586262594149792 l 48.96178619971074 -25.346715267672426" fill="#42ffd8" stroke="none" /><path d="M 81.35079622478065 109.6543875284942 l -29.364618530239884 15.20158234819883 a54.06612960894543,54.06612960894543 0 0,0 -0.420740896200094,-0.8301617039019625 l 29.621938096226245 -14.693866432594183" fill="#91ff24" stroke="none" /><path d="M 81.18737489456691 109.33194174019688 l -26.229657279969977 13.01113652295767 a50.279422717050366,50.279422717050366 0 0,0 -0.37792586357992,-0.7786392169178442 l 26.449736400164618 -12.557708350074542" fill="#c0ff1e" stroke="none" /><path d="M 81.02952815118164 109.00673069616217 l -30.437500733496538 14.451004400711177 a54.69381217806878,54.69381217806878 0 0,0 -0.3964660245379559,-0.8539525455814123 l 30.68174137487432 -13.924931787850937" fill="#8aff24" stroke="none" /><path d="M 79.97269907076064 106.31721596034903 l -28.165664899364725 8.884301906920367 a50.53363336260229,50.53363336260229 0 0,0 -0.2545288332263968,-0.8318149539235987 l 28.314420505097253 -8.39815998044472" fill="#bdff1f" stroke="none" /><path d="M 79.76711848015287 105.62410040840567 l -58.782091101934256 16.339560049765264 a82.01078148111188,82.01078148111188 0 0,0 -0.3663613891170214,-1.3633670186864648 l 59.05464056739306 -15.32530209790326" fill="#4ae6ff" stroke="none" /><path d="M 79.67330655649465 105.27499134158121 l -41.56863548214656 10.787499347058324 a63.94556552206942,63.94556552206942 0 0,0 -0.2673189120876997,-1.0678061725037966 l 41.74816570852932 -10.070365335157135" fill="#31ff41" stroke="none" /><path d="M 79.58551787078972 104.9243191809786 l -33.22454766174673 8.014324159415072 a55.17747736536248,55.17747736536248 0 0,0 -0.21477027491544434,-0.9252247232754164 l 33.35757850259273 -7.4412307787910805" fill="#84ff25" stroke="none" /><path d="M 79.50377843672027 104.57218783832718 l -33.47226553054934 7.466814549576255 a55.29498329588987,55.29498329588987 0 0,0 -0.19923562213330945,-0.9307624976529111 l 33.59583519140709 -6.889538232507181" fill="#82ff25" stroke="none" /><path d="M 79.4281124754447 104.21870165774334 l -34.00225668619392 6.97288357608604 a55.70986264910118,55.70986264910118 0 0,0 -0.18455899421020883,-0.9410623353189669 l 34.117245613379794 -6.386557513699118" fill="#7dff26" stroke="none" /><path d="M 79.23777060512086 103.15116336523772 l -22.277745054025267 3.3811790024661237 a43.53287145791377,43.53287145791377 0 0,0 -0.10606669905316995,-0.7418302461385535 l 22.332645804095037 -2.9972032843471696" fill="#ffe415" stroke="none" /><path d="M 79.18660465613746 102.79330883721812 l -42.61099417362415 5.718704931193872 a63.99302746440046,63.99302746440046 0 0,0 -0.1371233168868104,-1.093007752422795 l 42.70311899975781 -4.984379424483668" fill="#31ff42" stroke="none" /><path d="M 79.10278846688536 102.07522291339032 l -34.173077528347015 3.393598873012868 a55.34116685654886,55.34116685654886 0 0,0 -0.0859775195806021,-0.9487547641808015 l 34.22642964420469 -2.8048627202835004" fill="#82ff25" stroke="none" /><path d="M 79.07016306316243 101.71520430193888 l -34.032825332190924 2.7889968083873846 a55.14691352507004,55.14691352507004 0 0,0 -0.0693891063986981,-0.94675922690847 l 34.075790997253954 -2.202764444982154" fill="#84ff25" stroke="none" /><path d="M 79.04373962182676 101.35467743843564 l -34.438825908190516 2.226232143623772 a55.51070615753839,55.51070615753839 0 0,0 -0.05343209220256277,-0.954065899926104 l 34.47204435128061 -1.6330945273622304" fill="#80ff26" stroke="none" /><path d="M 79.0235259727143 100.99374915477108 l -34.356670345666785 1.6276287460106003 a55.39520275526312,55.39520275526312 0 0,0 -0.03692450899280786,-0.952857506736856 l 34.379596987510794 -1.0359939922597476" fill="#81ff25" stroke="none" /><path d="M 79.0095281055655 100.63252640178507 l -44.65202638196564 1.345543145568138 a65.6722950649767,65.6722950649767 0 0,0 -0.024323571159384903,-1.1302207741389638 l 44.668572015810035 -0.5767325556390452" fill="#34ff58" stroke="none" /><line stroke="#e1ed5e" stroke-width="0.3" x1="15.007084014347285" x2="10.007500721073583" y1="101.09737516637583" y2="101.16192664675087" /><path d="M 14.007167355692545 101.11028546245083 a86.0,86.0 0 0,1 10.666146001902534,-42.60595125391555" fill="none" id="id70" stroke="none" /><text fill="#e1ed5e" style="font-size:6.75px; font-family:Arial;" text-anchor="middle"><textPath startOffset="22.20632615414155" xlink:href="#id70">October</textPath></text><path d="M 79.00486145842228 99.54816195383935 l -29.526873231878973 -0.6354501869042102 a50.53371022732308,50.53371022732308 0 0,0 0.026201260821189887,-0.8694922888812714 l 29.51156027660214 1.143612623210476" fill="#bdff1f" stroke="none" /><path d="M 79.12142395522702 97.74499172005258 l -44.60331286642959 -4.817418563947751 a65.86271325143935,65.86271325143935 0 0,0 0.13144205059969855,-1.126115219230638 l 44.5137804628263 5.58447752150325" fill="#34ff5b" stroke="none" /><path d="M 79.16333360222342 97.38593545837743 l -42.48698804478983 -5.330206224354492 a63.82003329648707,63.82003329648707 0 0,0 0.14612964481701707,-1.0888355875692395 l 42.38894240091498 6.060760153988391" fill="#31ff40" stroke="none" /><line stroke="#e1ed5e" stroke-width="0.3" x1="26.266209847984243" x2="21.928928074336255" y1="57.711370442889674" y2="55.22380399835377" /><path d="M 25.398753493254645 57.213857153982495 a86.0,86.0 0 0,1 29.58750427330803,-30.492523968695096" fill="none" id="id71" stroke="none" /><text fill="#e1ed5e" style="font-size:6.75px; font-family:Arial;" text-anchor="middle"><textPath startOffset="21.46611528233685" xlink:href="#id71">November</textPath></text><line stroke="#e1ed5e" stroke-width="0.3" x1="56.762969772571076" x2="54.21961505331055" y1="26.818313649435495" y2="22.513508569990535" /><path d="M 56.25429882871897 25.957352633546506 a86.0,86.0 0 0,1 42.265352541879196,-11.944610805530505" fill="none" id="id72" stroke="none" /><text fill="#e1ed5e" style="font-size:6.75px; font-family:Arial;" text-anchor="middle"><textPath startOffset="22.20632615414155" xlink:href="#id72">December</textPath></text></svg>