<?xml version="1.0" encoding="utf-8" ?>
<svg baseProfile="full" height="200mm" version="1.1" viewBox="0,0,200,200" width="200mm" xmlns="http://www.w3.org/2000/svg" xmlns:ev="http://www.w3.org/2001/xml-events" xmlns:xlink="http://www.w3.org/1999/xlink"><defs /><rect fill="#1a1a1a" height="200" width="200" x="0" y="0" /><text alignment-baseline="middle" fill="#e1ed5e" style="dominant-baseline: central; font-size:9.0px; font-family:Arial;" text-anchor="middle" x="100.0" y="100.0">2024</text><line stroke="#e1ed5e" stroke-width="0.3" x1="100.0" x2="100.0" y1="15.0" y2="10.0" /><path d="M 100.0 14.0 a86.0,86.0 0 0,1 42.35913384403234,11.155469271406648" fill="none" id="id73" stroke="none" /><text fill="#e1ed5e" style="font-size:6.75px; font-family:Arial;" text-anchor="middle"><textPath startOffset="22.145653131862478" xlink:href="#id73">January</textPath></text><path d="M 100.72087961077811 79.0123766808444 l 0.6008750433323174 -17.493821274439718 a38.5041376137112,38.5041376137112 0 0,0 0.660390403749484,0.028360005422022275 l -0.9010912076826376 17.480928700591864" fill="#ff920d" stroke="none" /><path d="M 101.08105385017728 79.02784411241856 l 0.9027603819044033 -17.51331023457064 a38.53656213969696,38.53656213969696 0 0,0 0.6603618826365844,0.03972573103620497 l -1.20326661667345 17.495232525709742" fill="#ff920d" stroke="none" /><path d="M 101.44090949804482 79.04949213459386 l 1.198575040767235 -17.427018041692754 a38.46818651016284,38.46818651016284 0 0,0 0.6584123307867443,0.05096527849349926 l -1.497556366329213 17.403874996204202" fill="#ff910d" stroke="none" /><path d="M 101.80034050326958 79.07731436759882 l 5.188515502554019 -60.298414972960515 a81.52123215344837,81.52123215344837 0 0,0 1.3932383720602066,0.1319411223785754 l -6.222853437999238 60.20046209507676" fill="#4aecff" stroke="none" /><path d="M 102.51750503828377 79.15144685158666 l 2.281848987070094 -18.89698298916436 a40.0342533578956,40.0342533578956 0 0,0 0.6815777837852725,0.08824388977361347 l -2.605904592746158 18.85502750319035" fill="#ffa80f" stroke="none" /><path d="M 102.87502721639298 79.19773525538626 l 2.4030210040321363 -17.387062921602354 a38.552335086408846,38.552335086408846 0 0,0 0.6547928593105776,0.09623200128816138 l -2.7011389689503957 17.34324984701531" fill="#ff920d" stroke="none" /><path d="M 103.23170211078529 79.25015418208739 l 2.706172913969731 -17.375571385147943 a38.58504628372287,38.58504628372287 0 0,0 0.6535985242313685,0.10754938843886382 l -3.00404894125417 17.32655599821341" fill="#ff930d" stroke="none" /><path d="M 103.58742460773223 79.30868818359171 l 2.9902343499756996 -17.246877106803968 a38.50417868410207,38.50417868410207 0 0,0 0.6502902282092811,0.11850454188697579 l -3.2858593117360346 17.193004390985624" fill="#ff920d" stroke="none" /><path d="M 104.29559338865022 79.4440306129975 l 5.722413124376481 -27.38381833701131 a48.975337686620925,48.975337686620925 0 0,0 0.821474028190343,0.17903644102907712 l -6.191649569185958 27.281550437848512" fill="#d8ff1c" stroke="none" /><path d="M 104.64783097203109 79.52079915486377 l 2.1725620832936468 -9.572709403598475 a30.816149516562383,30.816149516562383 0 0,0 0.5148760005193299,0.12150933418789563 l -2.336570237552862 9.534003925764353" fill="#ff1902" stroke="none" /><path d="M 104.9986988182912 79.60360301121754 l 3.534872443150317 -14.423485846232301 a35.85032885648688,35.85032885648688 0 0,0 0.5964721494564483,0.15162088790563313 l -3.7819498858321596 14.3606797264914" fill="#ff6909" stroke="none" /><path d="M 106.04205211174951 79.88797359093562 l 4.36364964002845 -14.525170451524726 a36.166476678080755,36.166476678080755 0 0,0 0.5930602390536589,0.18373157804899945 l -4.61235051195374 14.448122285669081" fill="#ff6e0a" stroke="none" /><path d="M 106.38641147887787 79.99465700312896 l 5.930745436905853 -18.577975610377695 a40.50166452426993,40.50166452426993 0 0,0 0.6605190089038817,0.2171257178012733 l -6.248787183457477 18.473428971174403" fill="#ffaf10" stroke="none" /><path d="M 106.72888874123014 80.10723608172694 l 5.553648324653694 -16.418374453201587 a38.33222517161231,38.33222517161231 0 0,0 0.6215191150287928,0.2161966110694997 l -5.834673211727505 16.320619409563495" fill="#ff8f0d" stroke="none" /><path d="M 107.06938296918511 80.22567764915836 l 5.794163544931496 -16.207306661754924 a38.21188892636653,38.21188892636653 0 0,0 0.6157770356414312,0.22612185688821856 l -6.071529732227051 16.105453955857982" fill="#ff8d0d" stroke="none" /><path d="M 107.74402155503746 80.48000691201159 l 8.460515490238084 -21.32602585317407 a43.94296626530247,43.94296626530247 0 0,0 0.6987884545884174,0.28419118107306096 l -8.82535840601694 21.17764741552171" fill="#ffe115" stroke="none" /><path d="M 108.73861861582097 80.90454125486305 l 7.248110940500119 -15.83843048075317 a38.41812252510151,38.41812252510151 0 0,0 0.5973309807768094,0.2795810600129039 l -7.5189306351484335 15.711673189169732" fill="#ff900d" stroke="none" /><path d="M 109.06512990194946 81.05736502329252 l 7.39700648006658 -15.456898598012206 a38.13567679245202,38.13567679245202 0 0,0 0.588088003175716,0.28766331181889326 l -7.6612547325043625 15.327641536096092" fill="#ff8c0c" stroke="none" /><path d="M 109.3889696526874 81.21577127319529 l 7.817932180205008 -15.641101385558757 a38.48611209296146,38.48611209296146 0 0,0 0.5884210921490366,0.30045200231757235 l -8.085280494067623 15.50459143156835" fill="#ff910d" stroke="none" /><path d="M 110.02825361518725 81.54914285379988 l 14.513638846243895 -26.703460771877022 a51.392771011449,51.392771011449 0 0,0 0.7715176070534281,0.42794781117066727 l -14.969900641453423 26.450380045273207" fill="#b9ff1f" stroke="none" /><line stroke="#e1ed5e" stroke-width="0.3" x1="143.13028292997686" x2="145.6673583964461" y1="26.7553504044142" y2="22.446841604673864" /><path d="M 143.63769802327073 25.89364864446614 a86.0,86.0 0 0,1 29.32050498858742,28.57503671076993" fill="none" id="id74" stroke="none" /><text fill="#e1ed5e" style="font-size:6.75px; font-family:Arial;" text-anchor="middle"><textPath startOffset="20.669276256404974" xlink:href="#id74">February</textPath></text><path d="M 110.65571695917076 81.90426304109057 l 8.817661394549887 -14.974316772854921 a38.37760959633803,38.37760959633803 0 0,0 0.5648220003740549,0.3391593825704105 l -9.073416151481377 14.820743389748591" fill="#ff900d" stroke="none" /><path d="M 110.96478420261332 82.08984904055464 l 15.632279244534917 -25.53415333455407 a50.93929092165738,50.93929092165738 0 0,0 0.7418601151361606,0.4629755795818495 l -16.068303488460792 25.262041958130677" fill="#beff1e" stroke="none" /><path d="M 111.5731344415666 82.4767994020092 l 8.192491505461573 -12.404476312996662 a35.8656634452269,35.8656634452269 0 0,0 0.5108358603014795,0.34371316469093294 l -8.404223653860054 12.26201347424861" fill="#ff6909" stroke="none" /><path d="M 111.8722381534696 82.67804972795209 l 9.548100364469686 -13.93096378019772 a37.888989680119025,37.888989680119025 0 0,0 0.5333414923766621,0.37231378306660073 l -9.78583694802011 13.765005181325993" fill="#ff880c" stroke="none" /><path d="M 112.16784306229584 82.88440491214696 l 9.901678453843168 -13.927950766495346 a38.088915962026974,38.088915962026974 0 0,0 0.5296517502467601,0.3834270216003945 l -10.139311214463897 13.755922973521876" fill="#ff8b0c" stroke="none" /><path d="M 112.7482090630111 83.31218511350987 l 10.376433126178203 -13.583084050145457 a38.092996716063695,38.092996716063695 0 0,0 0.516232764020701,0.4014257197084554 l -10.60807583483413 13.402957278816212" fill="#ff8b0c" stroke="none" /><path d="M 113.03279911837588 83.53348406188908 l 18.062567518659495 -22.821464002299145 a50.10456260750827,50.10456260750827 0 0,0 0.6698484454164103,0.5395824915439521 l -18.451666734431164 22.508033216961785" fill="#c9ff1d" stroke="none" /><path d="M 113.59037401385872 83.9905735841838 l 11.21523711667429 -13.21152112312971 a38.32991153959336,38.32991153959336 0 0,0 0.4979612574702575,0.43012707411492446 l -11.440377853907409 13.017049916550066" fill="#ff8f0d" stroke="none" /><path d="M 113.86319453409587 84.22622945171908 l 11.304300991869777 -12.862219426836269 a38.12378198584858,38.12378198584858 0 0,0 0.48786635854088073,0.4362531061405058 l -11.523432377234032 12.666270790812376" fill="#ff8c0c" stroke="none" /><path d="M 114.13192950727249 84.46653392183569 l 11.834610475852916 -13.008310031573988 a38.5861916000229,38.5861916000229 0 0,0 0.4861313112257726,0.44995588415150617 l -12.056171558392654 12.803236401290107" fill="#ff930d" stroke="none" /><path d="M 114.39649973595853 84.71141617570332 l 15.887757433263873 -16.872247820895396 a44.175279562239176,44.175279562239176 0 0,0 0.5476209864115528,0.5246085172943938 l -16.175050905540736 16.59702717329542" fill="#ffe415" stroke="none" /><path d="M 114.65682725009322 84.96080404539774 l 12.133920662441973 -12.450471539732552 a38.385231439475476,38.385231439475476 0 0,0 0.46794901886605295,0.4639494786351527 l -12.345861601437988 12.24034205086874" fill="#ff900d" stroke="none" /><path d="M 115.16444852881244 85.47280134310134 l 12.371462796336573 -11.851581505080086 a38.13222332018516,38.13222332018516 0 0,0 0.44876935905951937,0.4765775076993469 l -12.573087989132352 11.637462537436244" fill="#ff8c0c" stroke="none" /><path d="M 115.41159269507618 85.73525988315684 l 12.60296511412484 -11.665116358289714 a38.17293420823262,38.17293420823262 0 0,0 0.4409924573585227,0.48472796114499034 l -12.80135527232524 11.447050821587052" fill="#ff8d0d" stroke="none" /><path d="M 115.6541949942343 86.00192230759917 l 12.630056463429474 -11.293874370391583 a37.94313797865096,37.94313797865096 0 0,0 0.4300022398862643,0.4892636145681205 l -12.822069767274328 11.075398478012165" fill="#ff890c" stroke="none" /><path d="M 115.8921839302757 86.27271002978787 l 12.899019156031324 -11.141865527294518 a38.04481923095628,38.04481923095628 0 0,0 0.4226696741414889,0.4979038133508988 l -13.088383393679925 10.918794931494068" fill="#ff8b0c" stroke="none" /><path d="M 116.1254893667686 86.54754324733833 l 12.877647111039796 -10.742991229420056 a37.770380307907985,37.770380307907985 0 0,0 0.4110733599018607,0.5014426594868968 l -13.060167290180285 10.520346288234665" fill="#ff870c" stroke="none" /><path d="M 116.57777611688842 87.10902102172516 l 13.382186378886477 -10.406069069652812 a37.951967017477344,37.951967017477344 0 0,0 0.39551013987092787,0.517735469137099 l -13.558848496111711 10.174812687274832" fill="#ff890c" stroke="none" /><path d="M 117.21940702142032 87.97951657250589 l 13.857621888045275 -9.673696315007492 a37.90012085125491,37.90012085125491 0 0,0 0.36783017168691673,0.5366752132290756 l -14.021641796547517 9.434386366708368" fill="#ff890c" stroke="none" /><path d="M 117.42321728460499 88.27688183743584 l 16.19496363100982 -10.896694289206387 a40.51960023776496,40.51960023776496 0 0,0 0.38334544342599547,0.5804338606274839 l -16.37963351335654 10.617080550239844" fill="#ffb010" stroke="none" /><path d="M 117.62189284568427 88.57770195909679 l 14.227655010501598 -9.222194084155936 a37.955088640985984,37.955088640985984 0 0,0 0.34969705546675867,0.5497818543308003 l -14.383869757594246 8.976598555146463" fill="#ff890c" stroke="none" /><path d="M 117.81537515405839 88.88188828441811 l 14.342453864274209 -8.950751974608533 a37.90626936257058,37.90626936257058 0 0,0 0.33977020200088,0.554989090246447 l -14.49399203073049 8.703225768237532" fill="#ff890c" stroke="none" /><line stroke="#e1ed5e" stroke-width="0.3" x1="172.87174338648825" x2="177.1583165268699" y1="56.24261187166439" y2="53.66864786411523" /><path d="M 173.72905801456457 55.72781907015455 a86.0,86.0 0 0,1 12.242430191666344,42.057860355516425" fill="none" id="id75" stroke="none" /><text fill="#e1ed5e" style="font-size:6.75px; font-family:Arial;" text-anchor="middle"><textPath startOffset="22.145653131862474" xlink:href="#id75">March</textPath></text><path d="M 118.00360718960297 89.18935116829356 l 16.85436703150136 -10.120563137118184 a40.65948845328778,40.65948845328778 0 0,0 0.3541756843229278,0.6014677421807371 l -17.025616425954055 9.829744226643891" fill="#ffb210" stroke="none" /><path d="M 118.18653347947321 89.5 l 14.732641010005244 -8.50589425300065 a38.011788506001295,38.011788506001295 0 0,0 0.3214107321204661,0.5679019666753364 l -14.876485107147085 8.251735516226194" fill="#ff8a0c" stroke="none" /><path d="M 118.36410011445183 89.81374322990088 l 15.023285201141848 -8.33316305375789 a38.1796596216387,38.1796596216387 0 0,0 0.31299075971278484,0.5758677449875673 l -15.164121310469973 8.07404047529572" fill="#ff8d0d" stroke="none" /><path d="M 118.53625476483649 90.13048839642627 l 14.942343883239829 -7.955956486958934 a37.928404660433266,37.928404660433266 0 0,0 0.3010647149308254,0.577331287750493 l -15.0767166671456 7.698278956103943" fill="#ff890c" stroke="none" /><path d="M 118.70294669586156 90.45014215332178 l 15.224872069349736 -7.773928160118411 a38.09475617160852,38.09475617160852 0 0,0 0.29238648123417044,0.584968824407291 l -15.356078463795644 7.511427479547368" fill="#ff8c0c" stroke="none" /><path d="M 118.8641267826498 90.77261029715802 l 15.432172888672923 -7.548649075895104 a38.17946631699901,38.17946631699901 0 0,0 0.28292937518790157,0.5912135773387889 l -15.559481521820736 7.282622996491211" fill="#ff8d0d" stroke="none" /><path d="M 119.0197475246899 91.09779779509293 l 15.341802226839889 -7.180738095168227 a37.93912321104223,37.93912321104223 0 0,0 0.27102180340164955,0.5922315520806787 l -15.46280849509659 6.916317560872864" fill="#ff890c" stroke="none" /><path d="M 119.16976305983485 91.42560881287824 l 15.455194335879137 -6.912911844303093 a37.93078208845937,37.93078208845937 0 0,0 0.26075808391291017,0.5966655260421406 l -15.571586301809017 6.6465842484851025" fill="#ff890c" stroke="none" /><path d="M 119.31412917781788 91.75594674310238 l 15.465864185395786 -6.601457763613933 a37.81583181427213,37.81583181427213 0 0,0 0.24971802571402751,0.5992323550583822 l -15.576908055646296 6.3349928991142725" fill="#ff870c" stroke="none" /><path d="M 119.71291397450082 92.76114493625339 l 15.856096101788223 -5.822578118392516 a37.89136464392167,37.89136464392167 0 0,0 0.2189756938090131,0.612513988173117 l -15.95371196564118 5.549529173838482" fill="#ff880c" stroke="none" /><path d="M 119.83427380445688 93.10060997987247 l 21.096106854807037 -7.338321056397514 a43.33599517272968,43.33599517272968 0 0,0 0.23837805776761406,0.7047223707849049 l -21.218970334147016 6.975097011138447" fill="#ffd814" stroke="none" /><path d="M 119.94978838288452 93.4421083053983 l 16.19061253195739 -5.3221759256819485 a38.042930814384135,38.042930814384135 0 0,0 0.19861178726195933,0.622148594799793 l -16.27958903499661 5.043458297190768" fill="#ff8b0c" stroke="none" /><path d="M 120.05942366710727 93.78553927170692 l 16.406619915265885 -5.0828127886165815 a38.17591810903055,38.17591810903055 0 0,0 0.18855936730994347,0.6276528081641992 l -16.491455602579457 4.8004223768616585" fill="#ff8d0d" stroke="none" /><path d="M 120.96210409425399 98.7389718711861 l 16.87029032464591 -1.0148747733042287 a37.90078892961304,37.90078892961304 0 0,0 0.033494209565502114,0.649778717520745 l -16.885226123667987 0.725124262406753" fill="#ff890c" stroke="none" /><path d="M 120.98066250479742 99.09900007780936 l 62.94198751439227 -2.7029997665719256 a84.0,84.0 0 0,0 0.049501252012607466,1.4411749417435202 l -62.97911345340172 1.6221185602642854" fill="#4dd2ff" stroke="none" /><path d="M 120.99303781780057 99.45929381324524 l 16.72104920710715 -0.43067491393014967 a37.72659461659747,37.72659461659747 0 0,0 0.011117791015914829,0.6475555895017797 l -16.725978429721728 0.14357240845930352" fill="#ff860c" stroke="none" /><line stroke="#e1ed5e" stroke-width="0.3" x1="184.99686870605535" x2="189.99668451229388" y1="99.2704041080226" y2="99.22748670261217" /><path d="M 185.99683186730306 99.26182062694052 a86.0,86.0 0 0,1 -10.086455211305974,41.156179273409016" fill="none" id="id76" stroke="none" /><text fill="#e1ed5e" style="font-size:6.75px; font-family:Arial;" text-anchor="middle"><textPath startOffset="21.40746469413373" xlink:href="#id76">April</textPath></text><path d="M 120.99922638620191 99.81974689727618 l 16.783933187440624 -0.14406988035204443 a37.78455150937598,37.78455150937598 0 0,0 0.0,0.6486459661517406 l -16.783933187440624 -0.1440698803520424" fill="#ff870c" stroke="none" /><path d="M 120.99922638620191 100.18025310272382 l 17.243707489160165 0.1480164897610482 a38.24434274923111,38.24434274923111 0 0,0 -0.01127036814607564,0.6564424424141071 l -17.23862568941542 -0.4440058481442264" fill="#ff8e0d" stroke="none" /><path d="M 120.86939407059847 102.33845913500097 l 19.256297036512382 2.1577082477332024 a40.376807798002524,40.376807798002524 0 0,0 -0.0830953045963911,0.6881483245977774 l -19.216419645656327 -2.4879502492543883" fill="#ffae10" stroke="none" /><path d="M 120.82617615685814 102.69636545807757 l 32.66469786531481 4.229099108698903 a53.93733088614649,53.93733088614649 0 0,0 -0.12676681150511201,0.9172214992344562 l -32.587286537254485 -4.789208916133444" fill="#98ff23" stroke="none" /><path d="M 120.7213421655516 103.40968896794604 l 22.086170451353354 3.6342709429966393 a43.38318231381194,43.38318231381194 0 0,0 -0.12722672383637051,0.7338099339020155 l -22.02052891002475 -4.012873909819243" fill="#ffd914" stroke="none" /><path d="M 120.65975698304385 103.76489593502545 l 21.767192464316583 3.966707570330193 a43.12567370109022,43.12567370109022 0 0,0 -0.1389749636753596,0.7271757351793473 l -21.695891208359065 -4.339785870542855" fill="#ffd513" stroke="none" /><path d="M 120.592083275326 104.11899336999214 l 21.66538336029532 4.333683446507989 a43.094561510994026,43.094561510994026 0 0,0 -0.15132817223052067,0.7241600855380378 l -21.587797477240436 -4.704959983331436" fill="#ffd513" stroke="none" /><path d="M 120.51834098615036 104.47187691870673 l 27.991893304290286 6.10070286203205 a49.64899066580841,49.64899066580841 0 0,0 -0.18864048522649673,0.8311847844133554 l -27.883041957506126 -6.580321980384423" fill="#cfff1d" stroke="none" /><path d="M 120.43855184770803 104.8234425847677 l 13.476026994481915 3.1803056773786262 a34.84621420307992,34.84621420307992 0 0,0 -0.14239237296710808,0.5810094732222355 l -13.419447094998512 -3.4111709752089614" fill="#ff5a08" stroke="none" /><path d="M 120.26092885502905 105.52220625578681 l 43.51656543284435 11.860633418292721 a66.10394763381744,66.10394763381744 0 0,0 -0.3077973180694137,1.092264096555482 l -43.30654962270036 -12.605905438751211" fill="#34ff5a" stroke="none" /><path d="M 120.16314734710363 105.8691983318838 l 13.71740569792206 3.992936879052389 a35.28673384652634,35.28673384652634 0 0,0 -0.1742890423625804,0.5801515375860958 l -13.64684033555585 -4.227826020229208" fill="#ff6008" stroke="none" /><path d="M 119.94978838288452 106.5578916946017 l 13.33899329578665 4.384792042397538 a35.04119451471683,35.04119451471683 0 0,0 -0.1927508958080129,0.5698337738667157 l -13.261756978406272 -4.613127490738414" fill="#ff5d08" stroke="none" /><path d="M 119.58574465831526 107.57618678355244 l 20.773477366312008 8.035627310410204 a43.2734969899315,43.2734969899315 0 0,0 -0.2739445727948057,0.6905192772827591 l -20.632474118551077 -8.391047604906529" fill="#ffd714" stroke="none" /><path d="M 119.16976305983485 108.57439118712176 l 13.355801130607908 5.9738799667887985 a35.630948899437385,35.630948899437385 0 0,0 -0.25453313651767856,0.5562008392086182 l -13.251283529235174 -6.202269788212106" fill="#ff6609" stroke="none" /><path d="M 118.8641267826498 109.22738970284198 l 15.54256863709064 7.602649168447708 a38.302361521398524,38.302361521398524 0 0,0 -0.29397990258164847,0.5881567344928832 l -15.409768821297261 -7.868337759104337" fill="#ff8f0d" stroke="none" /><path d="M 118.5362547648365 109.86951160357373 l 14.88494735821081 7.925396070253107 a37.863379279583626,37.863379279583626 0 0,0 -0.31039794391707326,0.5710972559583796 l -14.746704064678397 -8.17974815968609" fill="#ff880c" stroke="none" /><line stroke="#e1ed5e" stroke-width="0.3" x1="174.33088141563837" x2="178.70328620479359" y1="141.23008692659167" y2="143.65538615756765" /><path d="M 175.20536237346943 141.71514677278685 a86.0,86.0 0 0,1 -30.301960400862466,31.631185727798858" fill="none" id="id77" stroke="none" /><text fill="#e1ed5e" style="font-size:6.75px; font-family:Arial;" text-anchor="middle"><textPath startOffset="22.145653131862474" xlink:href="#id77">May</textPath></text><path d="M 118.18653347947321 110.5 l 14.65302915149619 8.459930325059755 a37.91986065011952,37.91986065011952 0 0,0 -0.3303114010058413,0.5609409718776682 l -14.505644040360584 -8.710222465230972" fill="#ff890c" stroke="none" /><path d="M 118.00360718960297 110.81064883170644 l 14.341392698664079 8.611594253866587 a37.72827247896576,37.72827247896576 0 0,0 -0.3381747393474696,0.5523830219057771 l -14.191449994861205 -8.856514391896921" fill="#ff860c" stroke="none" /><path d="M 117.81537515405839 111.11811171558189 l 14.223435056695791 8.876475436086649 a37.76597509778338,37.76597509778338 0 0,0 -0.34795466856753743,0.5470425327224528 l -14.068962696502364 -9.119331643487774" fill="#ff870c" stroke="none" /><path d="M 117.62189284568427 111.42229804090321 l 23.44212972672227 15.19490526908498 a48.93597308598615,48.93597308598615 0 0,0 -0.462970567134215,0.7009964465391804 l -23.17783472066733 -15.595081593963222" fill="#d9ff1c" stroke="none" /><path d="M 117.423217284605 111.72311816256416 l 14.164689315043418 9.53063512116032 a38.07253435212241,38.07253435212241 0 0,0 -0.36950348792446785,0.5391166316273205 l -13.998996090303631 -9.772386487857684" fill="#ff8b0c" stroke="none" /><path d="M 117.21940702142032 112.02048342749411 l 14.524755455629059 10.139407357384865 a38.71372638957756,38.71372638957756 0 0,0 -0.3850815677345224,0.5416654501045305 l -14.348558789364576 -10.3872500341989" fill="#ff950d" stroke="none" /><path d="M 117.01052211995028 112.31430620078461 l 13.70277117385122 9.919749602288038 a37.91648219976664,37.91648219976664 0 0,0 -0.3862028079531341,0.5239582813852951 l -13.530466346314258 -10.15351419294221" fill="#ff890c" stroke="none" /><path d="M 116.57777611688842 112.89097897827486 l 13.229239592795809 10.287136723698346 a37.75822073418474,37.75822073418474 0 0,0 -0.40227530940394984,0.5082617121343392 l -13.050697852750297 -10.512718379747367" fill="#ff860c" stroke="none" /><path d="M 116.35404254752997 113.17365903436017 l 13.081804347009163 10.537775569609115 a37.79816415352816,37.79816415352816 0 0,0 -0.41137574496330237,0.5018115200947366 l -12.898981782807233 -10.760789371402346" fill="#ff870c" stroke="none" /><path d="M 115.41159269507618 114.26474011684316 l 12.498623745589088 11.568539545299203 a38.030757550530595,38.030757550530595 0 0,0 -0.4475752317716343,0.47530938590081195 l -12.298192680081193 -11.781390391144512" fill="#ff8b0c" stroke="none" /><path d="M 115.16444852881244 114.52719865689866 l 15.678511806816706 15.019659648644945 a42.71188403703428,42.71188403703428 0 0,0 -0.5117558938778083,0.525106630352214 l -15.418369111788092 -15.286588971064896" fill="#ffcf13" stroke="none" /><path d="M 114.91283532996324 114.78537596483092 l 11.893494039752781 11.791840855366967 a37.74821516556127,37.74821516556127 0 0,0 -0.46018324205029915,0.4562500755813827 l -11.689318877572516 -11.994270941177012" fill="#ff860c" stroke="none" /><path d="M 114.13192950727249 115.5334660781643 l 11.336045395281829 12.46029967227925 a37.84532555716549,37.84532555716549 0 0,0 -0.4843029784983523,0.43306670973358885 l -11.120477389960099 -12.653061911896225" fill="#ff880c" stroke="none" /><path d="M 113.86319453409587 115.77377054828091 l 11.383721336711597 12.952585200274635 a38.24408811280772,38.24408811280772 0 0,0 -0.4968462864253044,0.42916398868188005 l -11.159695570523436 -13.146093321421233" fill="#ff8e0d" stroke="none" /><path d="M 113.59037401385872 116.0094264158162 l 10.712800086098664 12.619651564471564 a37.553540143829814,37.553540143829814 0 0,0 -0.4950373216616044,0.41297774034256995 l -10.494588430275165 -12.801691488726004" fill="#ff830c" stroke="none" /><path d="M 113.31354834802062 116.24036423190432 l 10.686048305209411 13.03524140520558 a37.85553757295373,37.85553757295373 0 0,0 -0.506091095780693,0.4076711624519716 l -10.460706439073466 -13.216760861450956" fill="#ff880c" stroke="none" /><path d="M 113.03279911837588 116.46651593811092 l 10.366297580065302 13.097478352188238 a37.70341476179369,37.70341476179369 0 0,0 -0.510953185452368,0.3973202874804765 l -10.139934449977703 -13.273499691289508" fill="#ff860c" stroke="none" /><path d="M 112.7482090630111 116.68781488649013 l 29.307873440173392 38.36494712856343 a69.2785730294785,69.2785730294785 0 0,0 -0.9512509269322533,0.7138364296133114 l -28.644969524330374 -38.862402585440755" fill="#38ff83" stroke="none" /><path d="M 112.45986205192187 116.90419585922612 l 10.134421986414948 13.749289796670041 a38.08067559880304,38.08067559880304 0 0,0 -0.5295371625066266,0.3833440689132881 l -9.896903813534353 -13.921234636956406" fill="#ff8b0c" stroke="none" /><path d="M 112.16784306229584 117.11559508785304 l 9.685305195622128 13.623594681641958 a37.71548589727526,37.71548589727526 0 0,0 -0.5308991795238787,0.3706088590157885 l -9.450010924924491 -13.787848356462868" fill="#ff860c" stroke="none" /><path d="M 111.8722381534696 117.32195027204791 l 8.252655763085643 12.040871391947453 a35.59756524292354,35.59756524292354 0 0,0 -0.5070173285175014,0.3411438860910122 l -8.044742146471139 -12.180764952095588" fill="#ff6509" stroke="none" /><path d="M 110.96478420261333 117.91015095944535 l 8.63226057301024 14.100148906444812 a37.532698563279496,37.532698563279496 0 0,0 -0.5523870325673074,0.3316925416881018 l -8.388940783885497 -14.246255448668837" fill="#ff830c" stroke="none" /><line stroke="#e1ed5e" stroke-width="0.3" x1="143.1302829299769" x2="145.66735839644613" y1="173.24464959558577" y2="177.55315839532614" /><path d="M 143.63769802327073 174.10635135553383 a86.0,86.0 0 0,1 -40.68552437913181,11.842963189579606" fill="none" id="id78" stroke="none" /><text fill="#e1ed5e" style="font-size:6.75px; font-family:Arial;" text-anchor="middle"><textPath startOffset="21.407464694133747" xlink:href="#id78">June</textPath></text><path d="M 110.65571695917076 118.09573695890943 l 8.474239769252842 14.391111773961985 a37.700803506342254,37.700803506342254 0 0,0 -0.5604988010664357,0.32360413367617036 l -8.225948500326009 -14.534462804914327" fill="#ff860c" stroke="none" /><path d="M 109.3889696526874 118.78422872680471 l 7.4868533645193365 14.978721973281159 a37.74559898166292,37.74559898166292 0 0,0 -0.5820726364607433,0.2847208945247278 l -7.228620478796524 -15.10503661790311" fill="#ff860c" stroke="none" /><path d="M 109.06512990194946 118.94263497670748 l 7.340180867357778 15.338154923016534 a38.004036332823496,38.004036332823496 0 0,0 -0.590892703862105,0.2765676213291641 l -7.075799449624166 -15.461898775916232" fill="#ff8a0c" stroke="none" /><path d="M 108.4095320186766 119.2426549942271 l 6.451280806162594 14.761792992542993 a37.10992105488582,37.10992105488582 0 0,0 -0.5859213421425928,0.25009497992402757 l -6.19692438884957 -14.870362622126425" fill="#ff7d0b" stroke="none" /><path d="M 108.07796709384702 119.3841803445677 l 10.88491399501379 26.11983107422792 a49.29711872302637,49.29711872302637 0 0,0 -0.7839310892247546,0.3188179493576474 l -10.434928444598594 -26.30283628016486" fill="#d4ff1c" stroke="none" /><path d="M 107.74402155503746 119.51999308798841 l 6.43233896132945 16.2136960973557 a38.44301939604621,38.44301939604621 0 0,0 -0.6155052111642849,0.23809063823624982 l -6.153061487671636 -16.32172662372999" fill="#ff910d" stroke="none" /><path d="M 107.407793817531 119.65005319985036 l 5.948043337766559 15.777891623485289 a37.8618232593749,37.8618232593749 0 0,0 -0.6101357966250746,0.22405031578211168 l -5.676318389487357 -15.877672788276122" fill="#ff880c" stroke="none" /><path d="M 107.06938296918513 119.77432235084164 l 5.651057962290285 15.80701487763637 a37.786785738639246,37.786785738639246 0 0,0 -0.6126753541418167,0.21312029195615548 l -5.378876836103446 -15.901693602161115" fill="#ff870c" stroke="none" /><path d="M 106.72888874123015 119.89276391827305 l 6.94166867919013 20.521809996334518 a42.66405893588052,42.66405893588052 0 0,0 -0.6957842907236229,0.22871811639292272 l -6.588361650818772 -20.63794903412946" fill="#ffcf13" stroke="none" /><path d="M 106.38641147887787 120.00534299687104 l 5.735270973272256 17.965654637159318 a39.858899217041895,39.858899217041895 0 0,0 -0.6536088242292503,0.20248968451167149 l -5.426021516171382 -18.061460909477635" fill="#ffa60f" stroke="none" /><path d="M 105.69591212413111 120.21278271476187 l 8.056388614877038 28.58928104741993 a50.70273368433089,50.70273368433089 0 0,0 -0.8397787523269149,0.2288854332769396 l -7.564428461615428 -28.72336697484101" fill="#c2ff1e" stroke="none" /><path d="M 105.3480935250658 120.30758222061773 l 4.222179869431922 16.03230467957659 a37.57895039466038,37.57895039466038 0 0,0 -0.6252326835257002,0.1589317031988405 l -3.946341892680824 -16.1024216146107" fill="#ff840c" stroke="none" /><path d="M 104.9986988182912 120.39639698878246 l 3.9821977018356898 16.24872555178743 a37.72958399344751,37.72958399344751 0 0,0 -0.6303856131462504,0.14876928825148147 l -3.7026799349495603 -16.31469098368514" fill="#ff860c" stroke="none" /><path d="M 104.29559338865022 120.5559693870025 l 2.961490592906049 14.171804558718145 a35.477930479953805,35.477930479953805 0 0,0 -0.5972177671786663,0.11946027949479 l -2.717776340196424 -14.220554234875797" fill="#ff6309" stroke="none" /><path d="M 103.58742460773223 120.69131181640829 l 6.720402250471518 38.76149430331868 a60.339766738433376,60.339766738433376 0 0,0 -1.0221053566376523,0.1681870474780161 l -6.054019390780794 -38.871147349292364" fill="#4cff2c" stroke="none" /><path d="M 103.2317021107853 120.74984581791261 l 2.9967655750591127 19.24138472645131 a40.47335333483099,40.47335333483099 0 0,0 -0.6874204298287463,0.10102713056223517 l -2.6660200396226807 -19.28999293031243" fill="#ffaf10" stroke="none" /><path d="M 102.875027216393 120.80226474461374 l 2.640821714676569 19.107670403533895 a40.2892977471652,40.2892977471652 0 0,0 -0.685919880240837,0.08880606109158624 l -2.3124240125449567 -19.150188060825876" fill="#ffac0f" stroke="none" /><path d="M 102.51750503828377 120.84855314841334 l 2.0168594043197894 16.702489109020327 a37.823818362480495,37.823818362480495 0 0,0 -0.6452817230309146,0.07230516299448811 l -1.7298417796880756 -16.734650032521788" fill="#ff870c" stroke="none" /><path d="M 102.15924093988457 120.88869738790638 l 1.6871289345535585 16.321442001814876 a37.40840860840608,37.40840860840608 0 0,0 -0.6393282944108902,0.06054505418783317 l -1.4067010767576529 -16.347998811507892" fill="#ff810b" stroke="none" /><line stroke="#e1ed5e" stroke-width="0.3" x1="101.45913802915013" x2="101.54496967792366" y1="184.9874750549273" y2="189.98673829345242" /><path d="M 101.47630435890484 185.9873277026323 a86.0,86.0 0 0,1 -42.54439059252881,-10.42667462771756" fill="none" id="id79" stroke="none" /><text fill="#e1ed5e" style="font-size:6.75px; font-family:Arial;" text-anchor="middle"><textPath startOffset="22.145653131862474" xlink:href="#id79">July</textPath></text><path d="M 100.0 121.0 l 3.397224738330709e-15 27.740445169137658 a48.74044516913766,48.74044516913766 0 0,0 -0.8366945541646448,-0.00718201645368254 l 0.4762016293157893 -27.73635755087841" fill="#dbff1b" stroke="none" /><path d="M 99.63950707515114 120.99690560180557 l -0.3258900910487501 18.981464008436458 a39.9842613829196,39.9842613829196 0 0,0 -0.6861807356723585,-0.01767358170027824 l 0.6516841407918526 -18.97307270938613" fill="#ffa80f" stroke="none" /><path d="M 99.27912038922189 120.98762331915562 l -0.5753922292421954 16.75191694639507 a37.761795774808576,37.761795774808576 0 0,0 -0.6476583843589591,-0.02781323772688984 l 0.8628763742019931 -16.73957114024235" fill="#ff860c" stroke="none" /><path d="M 98.19965949673042 120.92268563240118 l -1.9137725608870397 22.240938084010367 a43.32312371223138,43.32312371223138 0 0,0 -0.7404137150402305,-0.07011794861954732 l 2.2952858393122857 -22.204808379885637" fill="#ffd814" stroke="none" /><path d="M 97.84075906011543 120.88869738790638 l -1.6987790107458014 16.434145920877636 a37.521713055129894,37.521713055129894 0 0,0 -0.6401277475280777,-0.07172764928923107 l 1.9806426598746782 -16.402562511081435" fill="#ff830c" stroke="none" /><path d="M 97.48249496171623 120.84855314841334 l -2.0216206253154354 16.741918848969 a37.86353452566111,37.86353452566111 0 0,0 -0.6446215873584514,-0.0834591702573338 l 2.308720034564681 -16.70474808251127" fill="#ff880c" stroke="none" /><path d="M 97.12497278360702 120.80226474461374 l -2.2642929084112153 16.383295529012926 a37.53902641530197,37.53902641530197 0 0,0 -0.6375822991556265,-0.09370264162357289 l 2.5452003131745267 -16.342011814090473" fill="#ff830c" stroke="none" /><path d="M 96.76829788921471 120.74984581791261 l -2.2868039166597245 14.682921587397676 a35.8599346733059,35.8599346733059 0 0,0 -0.6074374048734476,-0.09995359381488199 l 2.5385188245862356 -14.641501995087125" fill="#ff6909" stroke="none" /><path d="M 96.41257539226777 120.69131181640829 l -2.9091306081880215 16.77909227665331 a38.0294150963544,38.0294150963544 0 0,0 -0.642272030383142,-0.1170433591428316 l 3.1967373721222208 -16.72668074357911" fill="#ff8b0c" stroke="none" /><path d="M 96.05791012581884 120.62667999033965 l -3.0852778831615657 16.143477599040004 a37.435656622326725,37.435656622326725 0 0,0 -0.630173151545179,-0.12605227933746038 l 3.361947520237703 -16.088135923039683" fill="#ff820b" stroke="none" /><path d="M 95.35216902796893 120.47920084513623 l -3.7047564353466047 16.323840427574574 a37.7389661135376,37.7389661135376 0 0,0 -0.6305423695400139,-0.14880628233358364 l 3.9844309586265068 -16.257838001594763" fill="#ff860c" stroke="none" /><path d="M 95.00130118170881 120.39639698878247 l -4.087683337191114 16.679142941098945 a38.17273898697469,38.17273898697469 0 0,0 -0.6351120450065799,-0.16144299825434164 l 4.373400675423073 -16.60651471100934" fill="#ff8d0d" stroke="none" /><path d="M 94.6519064749342 120.30758222061772 l -5.715511424903421 21.702727831910526 a43.442715214389395,43.442715214389395 0 0,0 -0.7195325878791393,-0.1961118064457512 l 6.087225413717256 -21.60141553132063" fill="#ffda14" stroke="none" /><path d="M 94.30408787586889 120.21278271476187 l -4.52360503580244 16.052678426815664 a37.677874180922764,37.677874180922764 0 0,0 -0.6210389953558086,-0.18077540042878076 l 4.798504043539856 -15.972659332084366" fill="#ff850c" stroke="none" /><path d="M 93.95794788825049 120.11202640906438 l -4.818403895671388 16.038899467754092 a37.74703890956678,37.74703890956678 0 0,0 -0.618978401422297,-0.1917610910032272 l 5.0930229299653185 -15.953821788944218" fill="#ff860c" stroke="none" /><path d="M 93.61358852112213 120.00534299687104 l -5.023591379707684 15.736328446665476 a37.51873189235803,37.51873189235803 0 0,0 -0.6118720278772892,-0.20113448888601218 l 5.2929861452327165 -15.647773036377442" fill="#ff830c" stroke="none" /><path d="M 93.27111125876986 119.89276391827306 l -5.363422716205174 15.856006242699058 a37.73855540962891,37.73855540962891 0 0,0 -0.6118933470637029,-0.21284826930064513 l 5.634821835313899 -15.761599540829822" fill="#ff860c" stroke="none" /><path d="M 92.93061703081489 119.77432235084164 l -4.542296491874161 12.705611711084105 a34.4931473857262,34.4931473857262 0 0,0 -0.5558502509011009,-0.2041159114591095 l 4.759735894429381 -12.625764950616276" fill="#ff5407" stroke="none" /><path d="M 92.59220618246901 119.65005319985036 l -5.9446336172637295 15.768846934752384 a37.852157205982614,37.852157205982614 0 0,0 -0.6060450084336584,-0.23443122859174154 l 6.214450888190917 -15.664475818022602" fill="#ff880c" stroke="none" /><path d="M 92.25597844496254 119.51999308798841 l -6.382740327154879 16.088675139009915 a38.308519342002796,38.308519342002796 0 0,0 -0.60918853012674,-0.24775167182012772 l 6.65798331847206 -15.976736210610497" fill="#ff8f0d" stroke="none" /><path d="M 91.92203290615298 119.3841803445677 l -6.590612851795725 15.815071615944532 a38.133378767181604,38.133378767181604 0 0,0 -0.6020805173541927,-0.25699237093790595 l 6.861128444320348 -15.699604595347223" fill="#ff8c0c" stroke="none" /><path d="M 91.59046798132341 119.24265499422711 l -6.704583431050111 15.341398969310502 a37.74245983478751,37.74245983478751 0 0,0 -0.591454174994671,-0.26454992948172273 l 6.966951008900417 -15.224045288918925" fill="#ff860c" stroke="none" /><path d="M 90.93487009805054 118.94263497670748 l -7.259487211369785 15.169536217399543 a37.81710390117864,37.81710390117864 0 0,0 -0.5831753095708625,-0.2852602671985456 l 7.518822770202717 -15.042682200103776" fill="#ff870c" stroke="none" /><path d="M 90.28995756902619 118.62028667847754 l -6.44508429523945 12.359298952340037 a34.938844362645554,34.938844362645554 0 0,0 -0.5294252876041167,-0.2818891456512785 l 6.6562983986301285 -12.246839338966186" fill="#ff5b08" stroke="none" /><path d="M 89.97174638481275 118.45085714620012 l -7.882501172063268 14.50291433198647 a37.5066153056439,37.5066153056439 0 0,0 -0.563056117033215,-0.31231773668897156 l 8.130301477252585 -14.365463679864352" fill="#ff830c" stroke="none" /><line stroke="#e1ed5e" stroke-width="0.3" x1="58.13341422392154" x2="55.67067388415222" y1="173.97424548756322" y2="178.32567169271397" /><path d="M 57.64086615596768 174.84453072859336 a86.0,86.0 0 0,1 -31.369924170532247,-30.572349798747897" fill="none" id="id80" stroke="none" /><text fill="#e1ed5e" style="font-size:6.75px; font-family:Arial;" text-anchor="middle"><textPath startOffset="22.145653131862474" xlink:href="#id80">August</textPath></text><path d="M 89.65649057296885 118.27599006163327 l -6.79338231852623 12.003255627514461 a34.79232355280003,34.79232355280003 0 0,0 -0.5172583558962947,-0.2986392510173112 l 6.998433142282924 -11.884869479220978" fill="#ff5908" stroke="none" /><path d="M 89.34428304082925 118.09573695890944 l -8.36918985442256 14.212714052475182 a37.49377396343223,37.49377396343223 0 0,0 -0.5518141602446146,-0.33134854831828187 l 8.611936771224602 -14.066951503620981" fill="#ff820c" stroke="none" /><path d="M 89.03521579738668 117.91015095944536 l -8.817222280264858 14.402269954833296 a37.88694136282509,37.88694136282509 0 0,0 -0.551770748532985,-0.3443457558726961 l 9.063157157587556 -14.248788402119052" fill="#ff880c" stroke="none" /><path d="M 86.40962598614128 116.0094264158162 l -10.647701566613478 12.54296567220592 a37.452949173500755,37.452949173500755 0 0,0 -0.4865682418061687,-0.42028605853504675 l 10.86144928818251 -12.35833548120615" fill="#ff820b" stroke="none" /><path d="M 86.13680546590413 115.77377054828092 l -10.975725727380818 12.48836109157722 a37.626055394960915,37.626055394960915 0 0,0 -0.48149699939558005,-0.4305575859173613 l 11.188487753599768 -12.298107975776476" fill="#ff840c" stroke="none" /><path d="M 85.86807049272751 115.53346607816431 l -12.7449724697025 14.008957334763219 a39.93898647923618,39.93898647923618 0 0,0 -0.5031746088714231,-0.4657309060106603 l 12.98357684988789 -13.78810868262018" fill="#ffa70f" stroke="none" /><path d="M 85.60350026404147 115.28858382429668 l -5.6767392376685395 6.028500349080932 a29.280590850377436,29.280590850377436 0 0,0 -0.36297825849874177,-0.3477249607414039 l 5.779389982032596 -5.930163258033946" fill="#ff0000" stroke="none" /><path d="M 85.34317274990678 115.03919595460226 l -11.593190383683531 11.895634637988822 a37.610484240769495,37.610484240769495 0 0,0 -0.45850418349817634,-0.4545853678708228 l 11.79568648731167 -11.69486925988934" fill="#ff840c" stroke="none" /><path d="M 85.08716467003676 114.78537596483092 l -10.960940063117224 10.867257377646183 a36.43500858371169,36.43500858371169 0 0,0 -0.4365490028497816,-0.4479377347919794 l 11.145875867117814 -10.677496950786466" fill="#ff720a" stroke="none" /><path d="M 84.83555147118756 114.52719865689866 l -12.290855387150552 11.774361430493244 a38.02059673582964,38.02059673582964 0 0,0 -0.4474556514822266,-0.4751823957773872 l 12.491166872369032 -11.561637574771366" fill="#ff8a0c" stroke="none" /><path d="M 84.58840730492382 114.26474011684316 l -12.43918838694877 11.513527064660101 a37.94977029917107,37.94977029917107 0 0,0 -0.43841435843340204,-0.4818941788098252 l 12.635000446224051 -11.298295310292602" fill="#ff890c" stroke="none" /><path d="M 84.3458050057657 113.99807769240083 l -12.443953464134548 11.127459920854017 a37.69348202466336,37.69348202466336 0 0,0 -0.4271729372735977,-0.4860443875628235 l 12.633137465366739 -10.912203255479893" fill="#ff850c" stroke="none" /><path d="M 84.1078160697243 113.72728997021213 l -12.79568832741419 11.052610818595392 a37.90827743088147,37.90827743088147 0 0,0 -0.4211527244145376,-0.4961168503868617 l 12.983535615335839 -10.831327185758976" fill="#ff890c" stroke="none" /><path d="M 83.8745106332314 113.45245675266167 l -12.878366578556482 10.743591434811227 a37.77131726042501,37.77131726042501 0 0,0 -0.41108355721033213,-0.501455098545178 l 13.060896955005445 -10.520934054567554" fill="#ff870c" stroke="none" /><path d="M 83.64595745247003 113.17365903436017 l -12.930333648144543 10.41576149665197 a37.60366272264878,37.60366272264878 0 0,0 -0.40062865151852683,-0.5061812136881806 l 13.107228730304632 -10.192260339049108" fill="#ff840c" stroke="none" /><path d="M 83.4222238831116 112.89097897827486 l -15.185394345387442 11.80825449100985 a40.23619181515352,40.23619181515352 0 0,0 -0.4193148103590306,-0.548896546946207 l 15.385861133100768 -11.545837030822772" fill="#ffab0f" stroke="none" /><path d="M 82.98947788004972 112.3143062007846 l -15.770680905464372 11.416756775324831 a40.46937881620531,40.46937881620531 0 0,0 -0.40254486697984493,-0.5662297674819569 l 15.964340870974178 -11.14434978113337" fill="#ffaf10" stroke="none" /><path d="M 82.78059297857968 112.02048342749411 l -13.834449495576335 9.657520185405478 a37.871860862903254,37.871860862903254 0 0,0 -0.36755590141722405,-0.5362750447089234 l 13.998195133808885 -9.418610405626504" fill="#ff880c" stroke="none" /><path d="M 82.576782715395 111.72311816256416 l -13.906058856400287 9.356617006274584 a37.76081008542772,37.76081008542772 0 0,0 -0.35724524431096355,-0.5409148325673323 l 14.064628539631977 -9.116522295368192" fill="#ff860c" stroke="none" /><path d="M 82.37810715431573 111.42229804090323 l -14.229971661462375 9.22369570931973 a37.95784939266019,37.95784939266019 0 0,0 -0.3497224914956526,-0.5498218439930336 l 14.386211844583919 -8.978060190648025" fill="#ff890c" stroke="none" /><path d="M 82.18462484594161 111.11811171558189 l -14.191962406236708 8.856834174493022 a37.72887648751414,37.72887648751414 0 0,0 -0.33818015333597184,-0.5523918652491187 l 14.341910524028085 -8.611905193119346" fill="#ff860c" stroke="none" /><path d="M 81.99639281039703 110.81064883170644 l -14.44223930567207 8.672149743816522 a37.845903280663705,37.845903280663705 0 0,0 -0.3296671749485417,-0.5598469351911024 l 14.58898019075038 -8.42295164033186" fill="#ff880c" stroke="none" /><line stroke="#e1ed5e" stroke-width="0.3" x1="26.387840678322732" x2="22.057713659400548" y1="142.50000000000003" y2="145.00000000000006" /><path d="M 25.521815274538298 143.00000000000003 a86.0,86.0 0 0,1 -11.493303480769221,-40.785679425670985" fill="none" id="id81" stroke="none" /><text fill="#e1ed5e" style="font-size:6.75px; font-family:Arial;" text-anchor="middle"><textPath startOffset="21.40746469413373" xlink:href="#id81">September</textPath></text><path d="M 81.81346652052679 110.50000000000001 l -14.58882606274243 8.42286265448498 a37.845725308969946,37.845725308969946 0 0,0 -0.32000657578281194,-0.5654209569703643 l 14.73126600354662 -8.171184927415494" fill="#ff880c" stroke="none" /><path d="M 81.63589988554817 110.18625677009913 l -14.409138073391585 7.9925059946646595 a37.4773605924254,37.4773605924254 0 0,0 -0.3072334242918675,-0.565274896275273 l 14.544216847298783 -7.743976264914799" fill="#ff820c" stroke="none" /><path d="M 81.4637452351635 109.86951160357371 l -14.88758166754096 7.926798691593345 a37.866363727986766,37.866363727986766 0 0,0 -0.3005722519388121,-0.5763869250296358 l 15.021461988454721 -7.670065523459207" fill="#ff880c" stroke="none" /><path d="M 81.29705330413844 109.54985784667822 l -15.021540021453445 7.6701053676643625 a37.86645134482062,37.86645134482062 0 0,0 -0.29063418638674887,-0.5814630608966606 l 15.150994121051932 -7.411110450603949" fill="#ff880c" stroke="none" /><path d="M 81.1358732173502 109.22738970284198 l -15.05750922864765 7.365382305141316 a37.762381712384965,37.762381712384965 0 0,0 -0.2798385649182094,-0.5847549726244246 l 15.18172705152577 -7.105814830451787" fill="#ff860c" stroke="none" /><path d="M 80.9802524753101 108.90220220490708 l -15.321355479779049 7.171167985126973 a37.91654763858943,37.91654763858943 0 0,0 -0.2708605326119882,-0.5918791463005351 l 15.442200477246093 -6.907099856611749" fill="#ff890c" stroke="none" /><path d="M 80.68587082218212 108.24405325689762 l -15.617986240841217 6.666389623347031 a37.98123213519486,37.98123213519486 0 0,0 -0.2508102518958021,-0.6018533002836647 l 15.730122337273505 -6.397303813622084" fill="#ff8a0c" stroke="none" /><path d="M 80.5471966667186 107.91128576633889 l -15.462131895096485 6.288314433819812 a37.69192682586245,37.69192682586245 0 0,0 -0.2386102235861921,-0.6014536351717732 l 15.5678007936488 -6.0219597814344725" fill="#ff850c" stroke="none" /><path d="M 80.41425534168474 107.57618678355246 l -15.419253446526312 5.964498476407024 a37.53265311204694,37.53265311204694 0 0,0 -0.22728580147090433,-0.6029025915792082 l 15.519369931811653 -5.6989276046336705" fill="#ff830c" stroke="none" /><path d="M 80.16572619554312 106.89939002012753 l -15.903473041941071 5.532053468288801 a37.838173011694366,37.838173011694366 0 0,0 -0.20813621923417636,-0.6153177487833617 l 15.996094682747614 -5.258234045031277" fill="#ff880c" stroke="none" /><path d="M 79.73907114497094 105.5222062557868 l -16.045746582516646 4.37333958333057 a37.63105776856874,37.63105776856874 0 0,0 -0.1645203310285427,-0.6247104942474457 l 16.11845639434992 -4.0972485847103215" fill="#ff840c" stroke="none" /><path d="M 79.64726062577567 105.17358676015961 l -18.77828477590973 4.773366558124847 a40.37547437931231,40.37547437931231 0 0,0 -0.1649866345031813,-0.6732017706000528 l 18.857458936929202 -4.4503089629166945" fill="#ffad10" stroke="none" /><path d="M 79.56144815229197 104.8234425847677 l -16.15417432700522 3.8123411556370073 a37.597930391293914,37.597930391293914 0 0,0 -0.14285268919696056,-0.6294353066918749 l 16.217237877759842 -3.534471515006106" fill="#ff840c" stroke="none" /><path d="M 79.48165901384964 104.47187691870673 l -16.302595253201325 3.5530747577017894 a37.68529149351368,37.68529149351368 0 0,0 -0.1323333172848912,-0.6332628284083283 l 16.361186281310584 -3.272695478008052" fill="#ff850c" stroke="none" /><path d="M 79.34024301695615 103.76489593502545 l -27.805903250369617 5.067161835589219 a49.26383527826624,49.26383527826624 0 0,0 -0.1444724898402158,-0.8332789293282125 l 27.888790557702066 -4.589089873340414" fill="#d4ff1c" stroke="none" /><path d="M 79.2786578344484 103.40968896794605 l -16.444777719112274 2.7059819157080853 a37.66592488760077,37.66592488760077 0 0,0 -0.09950710999981828,-0.6389070277831292 l 16.488806321250358 -2.423286705993506" fill="#ff850c" stroke="none" /><path d="M 79.22317932658666 103.0534771498775 l -16.42707501167625 2.4142143293205076 a37.60353047599018,37.60353047599018 0 0,0 -0.08837811551777591,-0.6394600183776425 l 16.46609764374924 -2.1318660027427794" fill="#ff840c" stroke="none" /><path d="M 79.17382384314188 102.69636545807758 l -16.701917918263973 2.162397658565085 a37.84131900363493,37.84131900363493 0 0,0 -0.07787727907236824,-0.6449355878552225 l 16.736577283596002 -1.8753683937864634" fill="#ff880c" stroke="none" /><path d="M 79.13060592940153 102.33845913500099 l -16.475930224488053 1.846162347155678 a37.57904074952029,37.57904074952029 0 0,0 -0.06633167301993788,-0.6416987652249245 l 16.505194289989657 -1.5630590596478222" fill="#ff840c" stroke="none" /><path d="M 79.06263194458094 101.62068470465958 l -16.72281914720437 1.2944519644935832 a37.7728437099523,37.7728437099523 0 0,0 -0.04449288232929854,-0.6469167442225997 l 16.742575990698736 -1.0071917961166403" fill="#ff870c" stroke="none" /><line stroke="#e1ed5e" stroke-width="0.3" x1="15.003131293944662" x2="10.003315487706104" y1="100.72959589197737" y2="100.7725132973878" /><path d="M 14.003168132696942 100.73817937305945 a86.0,86.0 0 0,1 10.791469493833604,-42.45332614584628" fill="none" id="id82" stroke="none" /><text fill="#e1ed5e" style="font-size:6.75px; font-family:Arial;" text-anchor="middle"><textPath startOffset="22.145653131862435" xlink:href="#id82">October</textPath></text><path d="M 79.01933749520258 99.09900007780938 l -21.658649161200387 -0.9301155864136029 a42.678611544378384,42.678611544378384 0 0,0 0.037716533069720504,-0.7316906654997384 l 21.639491038674098 1.3017780452900534" fill="#ffcf13" stroke="none" /><path d="M 79.03789590574601 98.7389718711861 l -16.6530373895208 -1.0018053762137307 a37.683143238268634,37.683143238268634 0 0,0 0.044387223550679915,-0.6453804887703714 l 16.633386204805056 1.2875292891384271" fill="#ff850c" stroke="none" /><path d="M 79.06263194458094 98.37931529534042 l -9.608771859230243 -0.7437797120248512 a30.63751549429389,30.63751549429389 0 0,0 0.04509021968906609,-0.5240167012500874 l 9.594588016843433 0.9086174606506192" fill="#ff1602" stroke="none" /><path d="M 79.0935383218832 98.0201363427161 l -19.953167941398206 -1.8895857492808936 a41.04244109886634,41.04244109886634 0 0,0 0.07244500467843863,-0.7008397034534948 l 19.917790544238105 2.231829975017301" fill="#ffb711" stroke="none" /><path d="M 79.13060592940154 97.66154086499901 l -16.804599496858618 -1.8829904246633076 a37.90976691705698,37.90976691705698 0 0,0 0.07801814459702135,-0.6461021564749249 l 16.76979926600193 2.1711862580616685" fill="#ff890c" stroke="none" /><path d="M 79.17382384314186 97.30363454192245 l -16.361868996337275 -2.118371517605062 a37.49843189336197,37.49843189336197 0 0,0 0.08813110640564246,-0.6376727834896694 l 16.323093373376427 2.3989326092947985" fill="#ff820c" stroke="none" /><path d="M 79.407916724674 95.88100663000787 l -21.934219977986515 -4.387458299254819 a43.36872361960786,43.36872361960786 0 0,0 0.15229090277786841,-0.7287670997195009 l 21.85567136438428 4.763341850259729" fill="#ffd914" stroke="none" /><path d="M 79.56144815229197 95.17655741523228 l -16.381648966407056 -3.8660245511545193 a37.83165377165045,37.83165377165045 0 0,0 0.15459179933925435,-0.6307872958850353 l 16.312869640551504 4.1466676716476725" fill="#ff880c" stroke="none" /><path d="M 79.64726062577567 94.8264132398404 l -16.044941157361677 -4.078561298947002 a37.55520458987043,37.55520458987043 0 0,0 0.16418870628003598,-0.6234512610617864 l 15.972562970276915 4.353393064381573" fill="#ff830c" stroke="none" /><path d="M 79.83685265289637 94.1308016681162 l -15.845868910905141 -4.612501499796523 a37.503536942946965,37.503536942946965 0 0,0 0.18523832688582303,-0.6165981447021763 l 15.764354264015688 4.8838372480894225" fill="#ff830c" stroke="none" /><path d="M 79.94057633289273 93.78553927170692 l -15.96304164478667 -4.9453911065401694 a37.7115406755284,37.7115406755284 0 0,0 0.1968816895447182,-0.6167290883420526 l 15.875795239464695 5.218689228573614" fill="#ff860c" stroke="none" /><path d="M 80.05021161711548 93.44210830539832 l -21.231380168716097 -6.979176370251933 a43.34905829505203,43.34905829505203 0 0,0 0.2384499140089481,-0.7049348009943915 l 21.108444833134783 7.3426128457204864" fill="#ffd814" stroke="none" /><path d="M 80.16572619554312 93.10060997987247 l -13.154722495027828 -4.575895341292897 a34.927869258994974,34.927869258994974 0 0,0 0.20184953685709583,-0.5646090791202953 l 13.074232788126789 4.8010393767941135" fill="#ff5b08" stroke="none" /><path d="M 80.28708602549916 92.7611449362534 l -16.497003377168838 -6.057928147403046 a38.57411772651527,38.57411772651527 0 0,0 0.2335925797020186,-0.6196320701275674 l 16.390580113652383 6.340228497724758" fill="#ff930d" stroke="none" /><path d="M 80.41425534168474 92.42381321644754 l -15.396154820515731 -5.955563431651123 a37.50788657114259,37.50788657114259 0 0,0 0.2374451495232258,-0.5985168874503904 l 15.291650996026375 6.218981336315096" fill="#ff830c" stroke="none" /><path d="M 80.5471966667186 92.08871423366112 l -15.619230265262159 -6.352204973322667 a37.86152015989029,37.86152015989029 0 0,0 0.25001973013037515,-0.5999563358259853 l 15.507884690595306 6.619393818589916" fill="#ff880c" stroke="none" /><path d="M 80.68587082218212 91.75594674310238 l -15.228209578720362 -6.500017143840642 a37.55743306927897,37.55743306927897 0 0,0 0.2581914673151907,-0.5907926049827156 l 15.114384229388195 6.760471818599225" fill="#ff830c" stroke="none" /><path d="M 80.83023694016515 91.42560881287825 l -15.52049104988778 -6.94211823393847 a38.00231301922264,38.00231301922264 0 0,0 0.2714732059202242,-0.5932179480489532 l 15.39903337911251 7.207525164202095" fill="#ff8a0c" stroke="none" /><path d="M 80.9802524753101 91.09779779509293 l -25.28363075570796 -11.834015839029354 a48.91605120838868,48.91605120838868 0 0,0 0.36249296127241587,-0.7574708714910469 l 25.076758536475637 12.266299212585487" fill="#d9ff1c" stroke="none" /><path d="M 81.1358732173502 90.77261029715801 l -16.177939031746632 -7.913440667290468 a39.009671138297826,39.009671138297826 0 0,0 0.29940867522153186,-0.5990179163632687 l 16.039710443313353 8.189990439817507" fill="#ff990e" stroke="none" /><path d="M 81.29705330413844 90.45014215332179 l -15.744993706757167 -8.03950597419203 a38.67875796358138,38.67875796358138 0 0,0 0.30702080260001435,-0.5887528711957642 l 15.604664835182213 8.30860508849228" fill="#ff940d" stroke="none" /><path d="M 81.46374523516351 90.13048839642627 l -15.669656146513981 -8.34320930112628 a38.75238759131806,38.75238759131806 0 0,0 0.3176858922549422,-0.5845062600413392 l 15.524124904643688 8.610970394642237" fill="#ff950d" stroke="none" /><path d="M 81.63589988554816 89.8137432299009 l -16.703861469253123 -9.265350380227773 a40.101458207487354,40.101458207487354 0 0,0 0.3390800472209397,-0.5991219534168013 l 16.542348057010816 9.550729103743679" fill="#ffa90f" stroke="none" /><line stroke="#e1ed5e" stroke-width="0.3" x1="26.387840678322718" x2="22.05771365940052" y1="57.49999999999999" y2="54.99999999999999" /><path d="M 25.521815274538284 56.99999999999999 a86.0,86.0 0 0,1 29.574782752854787,-30.34633250058573" fill="none" id="id83" stroke="none" /><text fill="#e1ed5e" style="font-size:6.75px; font-family:Arial;" text-anchor="middle"><textPath startOffset="21.40746469413373" xlink:href="#id83">November</textPath></text><path d="M 81.81346652052679 89.5 l -14.63041928408921 -8.446876512026 a37.893753024051996,37.893753024051996 0 0,0 0.33008398333087074,-0.5605547669473164 l 14.48326159062856 8.696782447266889" fill="#ff880c" stroke="none" /><path d="M 81.99639281039701 89.18935116829357 l -28.622428461608976 -17.186945902029386 a54.38614264150934,54.38614264150934 0 0,0 0.4874863968966977,-0.7962723933057344 l 28.323174100256885 17.675755411459665" fill="#93ff23" stroke="none" /><path d="M 82.18462484594161 88.88188828441811 l -16.585100063231277 -10.350329068153469 a40.54980449842036,40.54980449842036 0 0,0 0.37360332278444014,-0.5873664772796546 l 16.404979048820948 10.633509220111796" fill="#ffb010" stroke="none" /><path d="M 82.576782715395 88.27688183743585 l -16.21067023491062 -10.907262393274294 a40.538531223732065,40.538531223732065 0 0,0 0.39343660561092714,-0.5740357655817503 l 16.02104389248438 11.18393289392608" fill="#ffb010" stroke="none" /><path d="M 82.78059297857968 87.97951657250589 l -13.778512728079635 -9.618471977424504 a37.80364294367007,37.80364294367007 0 0,0 0.3760290586426967,-0.5289319623901054 l 13.611368570906967 9.85358116652413" fill="#ff870c" stroke="none" /><path d="M 82.98947788004972 87.6856937992154 l -18.087506087544984 -13.093959538687887 a43.32956902557173,43.32956902557173 0 0,0 0.4413384431844436,-0.5987603596819143 l 17.860065624776723 13.402526207638665" fill="#ffd814" stroke="none" /><path d="M 83.2033758604659 87.39550010848427 l -13.438248668258243 -10.084312328127186 a37.80118693429611,37.80118693429611 0 0,0 0.39393881020147237,-0.5156785481594175 l 13.263157880702463 10.313511789527489" fill="#ff870c" stroke="none" /><path d="M 83.64595745247003 86.82634096563983 l -22.825984038704828 -18.386996974950467 a50.31053061771563,50.31053061771563 0 0,0 0.5475538951652955,-0.6679267210836777 l 22.506983324300904 18.776125977732637" fill="#c7ff1e" stroke="none" /><path d="M 83.8745106332314 86.54754324733833 l -13.026246377661124 -10.866958022751623 a37.96389906123517,37.96389906123517 0 0,0 0.4217706686406341,-0.4968447871314055 l 12.837781145513375 11.088969592332585" fill="#ff8a0c" stroke="none" /><path d="M 84.34580500576568 86.00192230759919 l -16.593388442941357 -14.837910265588857 a43.25992185673631,43.25992185673631 0 0,0 0.4997598335164499,-0.5493236020715988 l 16.336230908583044 15.120571443218113" fill="#ffd714" stroke="none" /><path d="M 84.58840730492382 85.73525988315684 l -12.837088628925226 -11.88181758832783 a38.491953397753434,38.491953397753434 0 0,0 0.453002939540479,-0.4810734234599181 l 12.631229855648476 12.10043247173226" fill="#ff910d" stroke="none" /><path d="M 84.83555147118756 85.47280134310135 l -20.105709008330418 -19.260814420442752 a48.84274603673988,48.84274603673988 0 0,0 0.5852133128991946,-0.6004804135135732 l 19.77210889428042 19.603117526024057" fill="#daff1c" stroke="none" /><path d="M 85.34317274990677 84.96080404539775 l -41.671108738700006 -42.758228590219694 a80.70550574014126,80.70550574014126 0 0,0 1.000469699348319,-0.958427340435502 l 40.930966553486385 43.46726806096077" fill="#48f5ff" stroke="none" /><path d="M 86.13680546590413 84.22622945171909 l -11.376700953467429 -12.944597292856747 a38.23345361959874,38.23345361959874 0 0,0 0.49670812890294896,-0.429044651504609 l 11.152813344801633 13.137986076826067" fill="#ff8e0d" stroke="none" /><path d="M 86.68645165197937 83.75963576809568 l -12.504630962272698 -15.253616549418949 a40.724061786035264,40.724061786035264 0 0,0 0.5444404273540373,-0.4385626693607103 l 12.240939764563414 15.466027512573056" fill="#ffb310" stroke="none" /><path d="M 86.96720088162412 83.53348406188908 l -25.879466345276594 -32.69786031179214 a62.700082101667086,62.700082101667086 0 0,0 0.8497057065089592,-0.6607362967803868 l 25.31435069413239 33.13729766019333" fill="#32ff2f" stroke="none" /><path d="M 87.25179093698888 83.31218511350988 l -10.3125813740646 -13.499500056959944 a37.98781434983811,37.98781434983811 0 0,0 0.5216034631232881,-0.39142096291107215 l 10.079324922030558 13.674540047135016" fill="#ff8a0c" stroke="none" /><path d="M 87.54013794807813 83.09580414077388 l -10.169545605485613 -13.796941731625756 a38.139873364991004,38.139873364991004 0 0,0 0.5303603468814041,-0.383939990918454 l 9.931204248230241 13.96948249391729" fill="#ff8c0c" stroke="none" /><path d="M 88.12776184653039 82.6780497279521 l -11.273674809669723 -16.44862846516163 a40.941241739147216,40.941241739147216 0 0,0 0.5831274940046383,-0.3923542021195262 l 10.989651027568096 16.639732341338263" fill="#ffb610" stroke="none" /><path d="M 88.4268655584334 82.4767994020092 l -11.78924198048493 -17.85041495589222 a42.392137353989874,42.392137353989874 0 0,0 0.610677648995979,-0.39583387408115256 l 11.481078699231924 18.05016267167728" fill="#ffcb12" stroke="none" /><path d="M 88.72937992617638 82.28071324371311 l -9.183841077316059 -14.4385235689985 a38.11180585987122,38.11180585987122 0 0,0 0.5550455880262659,-0.3463894979225904 l 8.934631360500095 14.594048863762627" fill="#ff8c0c" stroke="none" /><line stroke="#e1ed5e" stroke-width="0.3" x1="56.869717070023135" x2="54.33264160355391" y1="26.7553504044142" y2="22.446841604673864" /><path d="M 56.362301976729285 25.89364864446614 a86.0,86.0 0 0,1 42.16139366436587,-11.88097634709845" fill="none" id="id84" stroke="none" /><text fill="#e1ed5e" style="font-size:6.75px; font-family:Arial;" text-anchor="middle"><textPath startOffset="22.145653131862474" xlink:href="#id84">December</textPath></text><path d="M 89.34428304082924 81.90426304109057 l -20.97429839107615 -35.61894408765604 a62.3355823827059,62.3355823827059 0 0,0 0.9267446828661597,-0.5350562921228288 l 20.35976124034959 35.97374727705504" fill="#36ff2f" stroke="none" /><path d="M 89.65649057296885 81.72400993836675 l -8.299006045476485 -14.66354848695646 a37.84912922296515,37.84912922296515 0 0,0 0.5681979981319267,-0.315169851457811 l 8.046063859188456 14.803851253847416" fill="#ff880c" stroke="none" /><path d="M 90.93487009805054 81.0573650232925 l -9.623296234242908 -20.10898793615584 a43.29303088923655,43.29303088923655 0 0,0 0.6731268188592632,-0.3150573393917152 l 9.276680701512122 20.2712215071181" fill="#ffd814" stroke="none" /><path d="M 91.5904679813234 80.7573450057729 l -16.8350305892691 -38.52184458387317 a63.0398711354555,63.0398711354555 0 0,0 0.9953242921091909,-0.4248447546605415 l 16.171271221989475 38.80516398819311" fill="#30ff31" stroke="none" /><path d="M 92.25597844496254 80.48000691201159 l -8.48105243258914 -21.377792363622397 a43.998657715320654,43.998657715320654 0 0,0 0.7044556731878039,-0.272498587820508 l 8.112824496907805 21.520230839580947" fill="#ffe215" stroke="none" /><path d="M 92.592206182469 80.34994680014964 l -6.002925804142847 -15.923473885977643 a38.01740693547216,38.01740693547216 0 0,0 0.612642996806829,-0.224970994417193 l 5.728693655681891 16.024175729403556" fill="#ff8a0c" stroke="none" /><path d="M 93.95794788825049 79.88797359093562 l -16.764194819588347 -55.80255229553694 a79.26631162726235,79.26631162726235 0 0,0 1.3065352440578526,-0.3803133678965767 l 15.803799563148871 56.08210935773604" fill="#46fffa" stroke="none" /><path d="M 95.00130118170881 79.60360301121753 l -5.285387830828352 -21.566185992799515 a43.20440728320147,43.20440728320147 0 0,0 0.7218589205905153,-0.17035673973942364 l 4.914396756497931 21.653738876185173" fill="#ffd614" stroke="none" /><path d="M 95.35216902796891 79.52079915486377 l -6.314383432174152 -27.82233848409194 a49.52987831821052,49.52987831821052 0 0,0 0.830775459235981,-0.18106364463350433 l 5.835845556319052 27.926633586859158" fill="#d1ff1c" stroke="none" /><path d="M 95.70440661134978 79.44403061299748 l -5.810743268792246 -27.806510053913012 a49.407159990294346,49.407159990294346 0 0,0 0.8316954617382079,-0.16636238533752448 l 5.332551321523062 27.902161835913404" fill="#d2ff1c" stroke="none" /><path d="M 96.05791012581881 79.37332000966035 l -5.348631133380743 -27.98629820623453 a49.49281913551651,49.49281913551651 0 0,0 0.8358754231432487,-0.15232434657206176 l 4.867420976686456 28.073990726737954" fill="#d1ff1c" stroke="none" /></svg>