<?xml version="1.0" encoding="utf-8" ?>
<svg baseProfile="full" height="200mm" version="1.1" viewBox="0,0,200,200" width="200mm" xmlns="http://www.w3.org/2000/svg" xmlns:ev="http://www.w3.org/2001/xml-events" xmlns:xlink="http://www.w3.org/1999/xlink"><defs /><rect fill="#1a1a1a" height="200" width="200" x="0" y="0" /><text alignment-baseline="middle" fill="#e1ed5e" style="dominant-baseline: central; font-size:9.0px; font-family:Arial;" text-anchor="middle" x="100.0" y="100.0">2020</text><line stroke="#e1ed5e" stroke-width="0.3" x1="100.0" x2="100.0" y1="15.0" y2="10.0" /><path d="M 100.0 14.0 a86.0,86.0 0 0,1 42.35913384403234,11.155469271406648" fill="none" id="id97" stroke="none" /><text fill="#e1ed5e" style="font-size:6.75px; font-family:Arial;" text-anchor="middle"><textPath startOffset="22.145653131862478" xlink:href="#id97">January</textPath></text><path d="M 100.0 79.0 l 0.0 -21.929630435813735 a42.929630435813735,42.929630435813735 0 0,0 0.7369441923089004,0.00632577956706381 l -0.3764512674600457 21.926399054441106" fill="#f5ff19" stroke="none" /><path d="M 100.36049292484886 79.00309439819443 l 0.20048873865212508 -11.677463909919258 a32.67918486461247,32.67918486461247 0 0,0 0.5608163396298704,0.014444639556355289 l -0.4009183923527368 11.672301553012858" fill="#ff840c" stroke="none" /><path d="M 100.72087961077811 79.0123766808444 l 0.3926309443552017 -11.43102154696356 a32.43776257253185,32.43776257253185 0 0,0 0.5563450696367772,0.023891851095703766 l -0.5888017745928151 11.422597127442026" fill="#ff810b" stroke="none" /><path d="M 101.08105385017728 79.02784411241856 l 1.0801854143295027 -20.95530846413912 a41.98313020873079,41.98313020873079 0 0,0 0.7194222152747624,0.043278653987974196 l -1.4397519817367275 20.933677832326453" fill="#fffe18" stroke="none" /><path d="M 101.44090949804482 79.04949213459386 l 1.5653911127571034 -22.76044322336374 a43.814211033035164,43.814211033035164 0 0,0 0.7499136149873278,0.05804805658519026 l -1.9558737225196647 22.7302173997835" fill="#eaff1a" stroke="none" /><path d="M 101.80034050326958 79.07731436759882 l 0.7982070121768856 -9.276375416220064 a30.310653859796332,30.310653859796332 0 0,0 0.5180241383031736,0.049057424484976436 l -0.9573307138650722 9.261306236229904" fill="#ff6309" stroke="none" /><path d="M 102.15924093988457 79.11130261209362 l 2.042528244938597 -19.759607937525832 a40.8648943484758,40.8648943484758 0 0,0 0.6971630728540659,0.0781185764563117 l -2.3814272193934594 19.721633600562548" fill="#fff016" stroke="none" /><path d="M 102.51750503828377 79.15144685158666 l 2.491395498788382 -20.632328706526497 a41.78220487305282,41.78220487305282 0 0,0 0.7113364234485249,0.09209674146674324 l -2.8452097441276987 20.586520368859357" fill="#fffb17" stroke="none" /><path d="M 102.87502721639298 79.19773525538626 l 2.045567479200515 -14.800707281194965 a35.94139492602951,35.94139492602951 0 0,0 0.6104472971216272,0.08971473076968858 l -2.299339881929824 14.763411477126393" fill="#ffb010" stroke="none" /><path d="M 103.23170211078529 79.25015418208739 l 2.291273096334139 -14.711616926880561 a35.88897595556065,35.88897595556065 0 0,0 0.6079293399895405,0.10003454155103376 l -2.5434799393767498 14.67011638683386" fill="#ffaf10" stroke="none" /><path d="M 103.58742460773223 79.30868818359171 l 4.705724643166498 -27.141369244123315 a48.54628412078746,48.54628412078746 0 0,0 0.819889561562159,0.14941119007491552 l -5.17094893827971 27.056589880117034" fill="#b2ff20" stroke="none" /><path d="M 103.94208987418118 79.37332000966035 l 4.9862866657279605 -26.090358839277307 a47.562565370744444,47.562565370744444 0 0,0 0.8006444769391317,0.16015131874416866 l -5.433427628198049 26.00091812387028" fill="#bdff1f" stroke="none" /><path d="M 104.29559338865022 79.4440306129975 l 0.9535680326075117 -4.563168231540535 a25.661737476751746,25.661737476751746 0 0,0 0.4304299235316778,0.09381019846883498 l -1.0317603727583236 4.546126574937981" fill="#ff2003" stroke="none" /><path d="M 104.64783097203109 79.52079915486377 l 2.031143472393462 -8.949592910487397 a30.177186773128945,30.177186773128945 0 0,0 0.5042002156798563,0.11898987803443492 l -2.184475841813203 8.913406888806735" fill="#ff6109" stroke="none" /><path d="M 104.9986988182912 79.60360301121754 l 2.2690884560392086 -9.258655228974241 a30.53265225791555,30.53265225791555 0 0,0 0.5079974801288287,0.12913097294005527 l -2.4276912293934316 9.218339024198919" fill="#ff6609" stroke="none" /><path d="M 105.3480935250658 79.69241777938227 l 2.5187652885231238 -9.564162061001339 a30.890266655038495,30.890266655038495 0 0,0 0.5116290129861554,0.13944676260253977 l -2.682575702443972 9.519514804254657" fill="#ff6b09" stroke="none" /><path d="M 105.69591212413111 79.78721728523813 l 3.0247115605186967 -10.733634265279164 a32.15167182825564,32.15167182825564 0 0,0 0.5299513946925296,0.15426112740061482 l -3.2085229675928306 10.680129443576034" fill="#ff7d0b" stroke="none" /><path d="M 106.04205211174951 79.88797359093562 l 1.9875266859710947 -6.615829929576102 a27.90792790817349,27.90792790817349 0 0,0 0.4576360186820378,0.1417768084042886 l -2.100803337524763 6.580736533365167" fill="#ff4106" stroke="none" /><path d="M 106.38641147887787 79.99465700312896 l 2.097304290313892 -6.569775817813526 a27.896422230584236,27.896422230584236 0 0,0 0.45494715785491185,0.14955016718568265 l -2.209774185816546 6.532804729225822" fill="#ff4106" stroke="none" /><path d="M 106.72888874123014 80.10723608172694 l 2.7882952434927963 -8.243099439790376 a29.701912361036335,29.701912361036335 0 0,0 0.4815871294360759,0.1675210026548334 l -2.9293881449738906 8.194020004566951" fill="#ff5a08" stroke="none" /><path d="M 107.40779381753099 80.34994680014964 l 2.422388191577165 -6.425672475188525 a27.867112297690195,27.867112297690195 0 0,0 0.44617600565196264,0.17259046393844937 l -2.532336459722653 6.383142123112037" fill="#ff4006" stroke="none" /><path d="M 107.74402155503746 80.48000691201159 l 1.2197068377485687 -3.0744580026041874 a24.307563571547423,24.307563571547423 0 0,0 0.3865429720975259,0.1572036616440514 l -1.2723042710365344 3.0530670843808423" fill="#ff0c01" stroke="none" /><path d="M 108.07796709384702 80.6158196554323 l 2.6317967940567026 -6.315354233753742 a27.84178730033304,27.84178730033304 0 0,0 0.4395885768264667,0.1876342238946694 l -2.7398204460535993 6.269245360199671" fill="#ff4006" stroke="none" /><path d="M 108.4095320186766 80.7573450057729 l 1.864020057192144 -4.265242677381772 a25.65476807913922,25.65476807913922 0 0,0 0.4020304917948519,0.17982312535842565 l -1.9369639518426276 4.232615801113493" fill="#ff2003" stroke="none" /><path d="M 108.73861861582097 80.90454125486305 l 1.9106124906554436 -4.175033102737925 a25.591442202446423,25.591442202446423 0 0,0 0.3978997479716107,0.18623717318679744 l -1.9820009524985593 4.141619697980594" fill="#ff1f03" stroke="none" /><path d="M 109.06512990194946 81.05736502329252 l 3.0152204333951773 -6.3006510289313935 a27.98496654611445,27.98496654611445 0 0,0 0.431554504319195,0.21109493353451006 l -3.1229351869764397 6.247962345299662" fill="#ff4206" stroke="none" /><path d="M 110.34350942703115 81.72400993836675 l 5.651412779338285 -9.985504873177181 a32.473829961033644,32.473829961033644 0 0,0 0.48278925291692387,0.27873850513344434 l -5.821994500115606 9.887019470767566" fill="#ff810b" stroke="none" /><line stroke="#e1ed5e" stroke-width="0.3" x1="143.13028292997686" x2="145.6673583964461" y1="26.7553504044142" y2="22.446841604673864" /><path d="M 143.63769802327073 25.89364864446614 a86.0,86.0 0 0,1 29.32050498858742,28.57503671076993" fill="none" id="id98" stroke="none" /><text fill="#e1ed5e" style="font-size:6.75px; font-family:Arial;" text-anchor="middle"><textPath startOffset="20.669276256404974" xlink:href="#id98">February</textPath></text><path d="M 110.65571695917076 81.90426304109057 l 4.696803806334468 -7.976199682545561 a30.256334445720825,30.256334445720825 0 0,0 0.44529723256263265,0.2673881937251685 l -4.833033795454535 7.894397488284471" fill="#ff6209" stroke="none" /><path d="M 110.96478420261332 82.08984904055464 l 6.022950453282582 -9.83803692313807 a32.53528944863218,32.53528944863218 0 0,0 0.4738313616000616,0.2957058140544218 l -6.190945943672356 9.733195312242103" fill="#ff820c" stroke="none" /><path d="M 111.27062007382361 82.28071324371311 l 4.885183918062125 -7.6803205266751045 a30.102326367789708,30.102326367789708 0 0,0 0.43363743946405336,0.2810785492016875 l -5.016306989783185 7.595328135769522" fill="#ff6008" stroke="none" /><path d="M 111.8722381534696 82.67804972795209 l 3.815667541962428 -5.567172976329203 a27.749276534500254,27.749276534500254 0 0,0 0.39061058857024034,0.27267652716910834 l -3.9106732217064293 5.5008516333549675" fill="#ff3f05" stroke="none" /><path d="M 112.16784306229584 82.88440491214696 l 4.033272384413936 -5.673302709216854 a27.960865589657896,27.960865589657896 0 0,0 0.38881446278862797,0.28147168654261034 l -4.130067857576532 5.603230251301168" fill="#ff4206" stroke="none" /><path d="M 112.45986205192187 83.09580414077388 l 5.508267757574808 -7.473023106603542 a30.283700126618086,30.283700126618086 0 0,0 0.415819734106332,0.3120388805448808 l -5.635740480591906 7.377365198794647" fill="#ff6309" stroke="none" /><path d="M 112.7482090630111 83.31218511350987 l 5.114478893967262 -6.6950170491812635 a29.42503101748975,29.42503101748975 0 0,0 0.39876529554179047,0.31008230572362344 l -5.228654134144279 6.60623369183685" fill="#ff5608" stroke="none" /><path d="M 113.31354834802062 83.75963576809568 l 7.37041546205968 -8.990708450922076 a32.62565535928405,32.62565535928405 0 0,0 0.4300770842018296,0.3587855998627165 l -7.523666880423402 8.862860667147489" fill="#ff830c" stroke="none" /><path d="M 113.59037401385872 83.9905735841838 l 2.4346851083953367 -2.8680529357610807 a24.762103031466545,24.762103031466545 0 0,0 0.3216957062481123,0.2778730891370588 l -2.4835602944063093 2.825835714159302" fill="#ff1302" stroke="none" /><path d="M 113.86319453409587 84.22622945171908 l 6.210832677807054 -7.066787480515069 a30.408184088679413,30.408184088679413 0 0,0 0.3891305969248152,0.34796297926850145 l -6.331228301555245 6.959128971363182" fill="#ff6409" stroke="none" /><path d="M 115.8921839302757 86.27271002978787 l 2.2352287061071303 -1.9307373192440966 a23.95364079815526,23.95364079815526 0 0,0 0.26611974390511706,0.31348838917165195 l -2.26804301351936 1.8920821476228926" fill="#ff0701" stroke="none" /><path d="M 116.1254893667686 86.54754324733833 l 4.984296677661976 -4.158077561159896 a27.490980078198795,27.490980078198795 0 0,0 0.29919766376761225,0.3649725009368547 l -5.054941160668216 4.071902778524546" fill="#ff3b05" stroke="none" /><path d="M 116.35404254752997 86.82634096563983 l 7.5313323115474 -6.066708195141025 a30.670879727922852,30.670879727922852 0 0,0 0.3267669236615057,0.4128593334131138 l -7.634365665850465 5.936528917813233" fill="#ff6809" stroke="none" /><path d="M 116.57777611688842 87.10902102172516 l 9.623821165154538 -7.483541547186091 a33.19103473489174,33.19103473489174 0 0,0 0.3458948724426466,0.45278749140199764 l -9.750868014951491 7.317233142543211" fill="#ff8b0c" stroke="none" /><path d="M 117.81537515405839 88.88188828441811 l 3.9281656844400112 -2.4514659129684544 a25.630353201091502,25.630353201091502 0 0,0 0.22973588356040228,0.37525630047399255 l -3.969669532455816 2.383672496369907" fill="#ff2003" stroke="none" /><line stroke="#e1ed5e" stroke-width="0.3" x1="172.87174338648825" x2="177.1583165268699" y1="56.24261187166439" y2="53.66864786411523" /><path d="M 173.72905801456457 55.72781907015455 a86.0,86.0 0 0,1 12.242430191666344,42.057860355516425" fill="none" id="id99" stroke="none" /><text fill="#e1ed5e" style="font-size:6.75px; font-family:Arial;" text-anchor="middle"><textPath startOffset="22.145653131862474" xlink:href="#id99">March</textPath></text><path d="M 118.53625476483649 90.13048839642627 l 5.848850830854268 -3.1141836295967202 a27.62625050239069,27.62625050239069 0 0,0 0.2192891925345434,0.4205159410488299 l -5.901448092363756 3.0133214454433923" fill="#ff3d05" stroke="none" /><path d="M 119.16976305983485 91.42560881287824 l 11.41165382035932 -5.104287603470061 a33.501183738136945,33.501183738136945 0 0,0 0.23030646876719205,0.5269862712435778 l -11.497594171143483 4.907639262450634" fill="#ff8f0d" stroke="none" /><path d="M 119.4528033332814 92.08871423366111 l 15.902024882178297 -6.467215082111381 a38.16680710766293,38.16680710766293 0 0,0 0.24161647186690716,0.6090313446659007 l -16.01070002901133 6.193282720231915" fill="#ffcd13" stroke="none" /><path d="M 119.71291397450082 92.76114493625339 l 14.765639877288667 -5.42214748836373 a36.72971088009396,36.72971088009396 0 0,0 0.2122624507973015,0.5937358526679719 l -14.856542498129912 5.1678766793148405" fill="#ffba11" stroke="none" /><path d="M 119.94978838288452 93.4421083053983 l 11.823967673739618 -3.886773028198127 a33.446413785599766,33.446413785599766 0 0,0 0.17461462293408067,0.5469778193307734 l -11.888947012450956 3.683226175175967" fill="#ff8e0d" stroke="none" /><path d="M 120.05942366710727 93.78553927170692 l 11.967927477474479 -3.7076945251313966 a33.52909760508625,33.52909760508625 0 0,0 0.16560768526462435,0.5512541232653625 l -12.029811482742732 3.5017027982753106" fill="#ff8f0d" stroke="none" /><path d="M 120.26092885502905 94.47779374421319 l 14.760665673426635 -4.023085067057126 a36.299100123192,36.299100123192 0 0,0 0.15869710612530175,0.6025987607937371 l -14.827552260356667 3.76910580189059" fill="#ffb510" stroke="none" /><path d="M 120.35273937422433 94.82641323984039 l 4.496202493979301 -1.1429170917064557 a25.639191346062418,25.639191346062418 0 0,0 0.10476963940608178,0.42749588150391876 l -4.515159659901674 1.065565385594442" fill="#ff2003" stroke="none" /><path d="M 120.51834098615036 95.52812308129327 l 2.495795276565614 -0.5439469642611223 a23.5543829709846,23.5543829709846 0 0,0 0.0827121009714265,0.39580734526588973 l -2.5047650883614074 0.5010231677098281" fill="#ff0100" stroke="none" /><path d="M 120.592083275326 95.88100663000786 l 12.174404041715608 -2.435221772413805 a33.415571628071724,33.415571628071724 0 0,0 0.10768360131346552,0.5634461048307499 l -12.21441393531123 2.2258731025497407" fill="#ff8e0d" stroke="none" /><path d="M 120.65975698304385 96.23510406497455 l 12.2787838619002 -2.237603447449325 a33.4810016551276,33.4810016551276 0 0,0 0.09818731416542086,0.5663183358427853 l -12.315385993557854 2.0264920786859473" fill="#ff8f0d" stroke="none" /><path d="M 120.7213421655516 96.59031103205396 l 6.5012809819983115 -1.0697833115602609 a27.588709337995247,27.588709337995247 0 0,0 0.07288478228109932,0.46797258625963384 l -6.518687256417676 0.9580225433691857" fill="#ff3c05" stroke="none" /><path d="M 120.77682067341334 96.94652285012252 l 12.338027749883718 -1.8132651959129107 a33.47055970787237,33.47055970787237 0 0,0 0.07866455502617452,0.5691775334651594 l -12.367336821465106 1.6011993542476655" fill="#ff8f0d" stroke="none" /><path d="M 120.82617615685814 97.30363454192243 l 17.762435244116617 -2.299702858693242 a38.9106878438467,38.9106878438467 0 0,0 0.08007803575297717,0.6631610102177156 l -17.799295366129257 1.9944481715521138" fill="#ffd714" stroke="none" /><path d="M 120.99303781780057 99.45929381324524 l 14.876466626788451 -0.38316500984601193 a35.88140029441856,35.88140029441856 0 0,0 0.010574023812269247,0.6158838759748391 l -14.880852082199386 0.12773421790210646" fill="#ffaf10" stroke="none" /><line stroke="#e1ed5e" stroke-width="0.3" x1="184.99686870605535" x2="189.99668451229388" y1="99.2704041080226" y2="99.22748670261217" /><path d="M 185.99683186730306 99.26182062694052 a86.0,86.0 0 0,1 -10.086455211305974,41.156179273409016" fill="none" id="id100" stroke="none" /><text fill="#e1ed5e" style="font-size:6.75px; font-family:Arial;" text-anchor="middle"><textPath startOffset="21.40746469413373" xlink:href="#id100">April</textPath></text><path d="M 120.99922638620191 99.81974689727618 l 3.353918951165015 -0.028789360432295717 a24.354042509906208,24.354042509906208 0 0,0 0.0,0.41808492631224475 l -3.353918951165015 -0.028789360432295307" fill="#ff0d01" stroke="none" /><path d="M 120.99303781780057 100.54070618675476 l 12.485523764655422 0.3215828029756771 a33.48966449417057,33.48966449417057 0 0,0 -0.01973548002314193,0.5745769675761613 l -12.478163597635435 -0.5358660351159491" fill="#ff8f0d" stroke="none" /><path d="M 120.93736805541906 101.62068470465957 l 3.142289205317989 0.24323305771747394 a24.15168903450587,24.15168903450587 0 0,0 -0.03554481970415594,0.413084684358221 l -3.1376507629160924 -0.29713878945135225" fill="#ff0a01" stroke="none" /><path d="M 120.9064616781168 101.97986365728391 l 4.594460677065485 0.43510020296085666 a25.615016912181105,25.615016912181105 0 0,0 -0.04521368540362929,0.4374013917311607 l -4.586314599180191 -0.5139061169749488" fill="#ff1f03" stroke="none" /><path d="M 120.86939407059847 102.33845913500097 l 4.671362380444947 0.5234358982583607 a25.700596943902106,25.700596943902106 0 0,0 -0.05289172294270062,0.43801934062216596 l -4.661688571242583 -0.6035489158039352" fill="#ff2103" stroke="none" /><path d="M 120.82617615685814 102.69636545807757 l 15.52921413568692 2.010567675562825 a36.65882735232867,36.65882735232867 0 0,0 -0.08615781649967928,0.6233950407233851 l -15.49241180263203 -2.276851024486295" fill="#ffb911" stroke="none" /><path d="M 120.77682067341334 103.0534771498775 l 19.448690437043965 2.858287741807719 a40.65760332621792,40.65760332621792 0 0,0 -0.107410626941561,0.6896532761496185 l -19.39675831796414 -3.1917291998887882" fill="#ffed16" stroke="none" /><path d="M 120.7213421655516 103.40968896794604 l 14.868416284717108 2.4465922415542316 a36.068364755741555,36.068364755741555 0 0,0 -0.10577508696376224,0.6100825929714722 l -14.824226380261111 -2.7014678674462913" fill="#ffb210" stroke="none" /><path d="M 120.65975698304385 103.76489593502545 l 2.778495059153271 0.5063343563179339 a23.82425375526475,23.82425375526475 0 0,0 -0.07677502786806936,0.40171938784450817 l -2.7693937390030428 -0.5539563091957567" fill="#ff0500" stroke="none" /><path d="M 120.592083275326 104.11899336999214 l 17.317128853956632 3.4639107652704264 a38.66017071079138,38.66017071079138 0 0,0 -0.1357566422921244,0.6496446778255214 l -17.25511450084014 -3.7606718943813573" fill="#ffd313" stroke="none" /><path d="M 120.51834098615036 104.47187691870673 l 18.94685449065965 4.12937875123852 a40.391623551456696,40.391623551456696 0 0,0 -0.15346727825989975,0.676205144626303 l -18.873176350842087 -4.45401822980384" fill="#ffea16" stroke="none" /><path d="M 120.43855184770803 104.8234425847677 l 22.708039032405924 5.359035380863189 a44.33183012347327,44.33183012347327 0 0,0 -0.181153523664506,0.7391681953427313 l -22.612697982225125 -5.74805940081402" fill="#e4ff1b" stroke="none" /><path d="M 120.16314734710363 105.8691983318838 l 4.413331317596763 1.2846564259726183 a25.596502523840613,25.596502523840613 0 0,0 -0.12642683032424426,0.4208338000513002 l -4.390628167268889 -1.3602278296146422" fill="#ff1f03" stroke="none" /><path d="M 120.05942366710727 106.21446072829308 l 14.216883429692237 4.404426827946038 a35.88350597595165,35.88350597595165 0 0,0 -0.18733801793247778,0.5868336729458138 l -14.139180695982503 -4.647829534583235" fill="#ffaf10" stroke="none" /><path d="M 119.31412917781788 108.2440532568976 l 13.714373472116048 5.853850528190485 a35.91145887360041,35.91145887360041 0 0,0 -0.2468760908899563,0.5649008093159541 l -13.611863499209127 -6.0884134072822835" fill="#ffaf10" stroke="none" /><path d="M 119.16976305983485 108.57439118712176 l 11.328408211345325 5.067052901399503 a33.40999023804843,33.40999023804843 0 0,0 -0.23866750308324702,0.5215315668634269 l -11.239756243407022 -5.260773450477618" fill="#ff8e0d" stroke="none" /><path d="M 119.0197475246899 108.90220220490707 l 13.515632361400908 6.325998389420694 a35.92282056956729,35.92282056956729 0 0,0 -0.2662064758670952,0.55626914951342 l -13.4050466275739 -6.557080040999218" fill="#ffb010" stroke="none" /><path d="M 118.8641267826498 109.22738970284198 l 4.146345038497668 2.028185134328755 a25.615811100704445,25.615811100704445 0 0,0 -0.19660755506492442,0.39334681230972757 l -4.1109175702210115 -2.0990638028022284" fill="#ff1f03" stroke="none" /><path d="M 118.70294669586154 109.54985784667822 l 11.164933665621737 5.7008946829684595 a33.536185382485044,33.536185382485044 0 0,0 -0.26620054764859585,0.5104746499740571 l -11.065425048998192 -5.8917155760470195" fill="#ff900d" stroke="none" /><line stroke="#e1ed5e" stroke-width="0.3" x1="174.33088141563837" x2="178.70328620479359" y1="141.23008692659167" y2="143.65538615756765" /><path d="M 175.20536237346943 141.71514677278685 a86.0,86.0 0 0,1 -30.301960400862466,31.631185727798858" fill="none" id="id101" stroke="none" /><text fill="#e1ed5e" style="font-size:6.75px; font-family:Arial;" text-anchor="middle"><textPath startOffset="22.145653131862474" xlink:href="#id101">May</textPath></text><path d="M 118.36410011445183 110.18625677009912 l 10.918702968535023 6.056420480218077 a33.48592421682514,33.48592421682514 0 0,0 -0.2831420420157513,0.5002848580953678 l -10.813127561497893 -6.242962108412567" fill="#ff8f0d" stroke="none" /><path d="M 118.18653347947321 110.5 l 10.750145382091464 6.206599330178116 a33.41319866035624,33.41319866035624 0 0,0 -0.2910548792207648,0.4942748155912001 l -10.642016792740934 -6.3902253140628655" fill="#ff8e0d" stroke="none" /><path d="M 118.00360718960297 110.81064883170644 l 10.67234527628161 6.40843669702093 a33.44857480179538,33.44857480179538 0 0,0 -0.2998139676670288,0.48972358428968954 l -10.560763344159176 -6.590697397435177" fill="#ff8e0d" stroke="none" /><path d="M 117.81537515405839 111.11811171558189 l 12.610736355426027 7.870032171814073 a35.86499504915667,35.86499504915667 0 0,0 -0.3304400967588982,0.5195067167462186 l -12.47377856704124 -8.085352563238963" fill="#ffaf10" stroke="none" /><path d="M 117.423217284605 111.72311816256416 l 10.31618148041301 6.941187296573367 a33.43397287366061,33.43397287366061 0 0,0 -0.32448508622334327,0.4734334381541451 l -10.195506657374345 -7.117255469797556" fill="#ff8e0d" stroke="none" /><path d="M 117.21940702142032 112.02048342749411 l 10.179732498741666 7.106243881989049 a33.414735432390174,33.414735432390174 0 0,0 -0.3323730342115359,0.4675242968339563 l -10.05624436600017 -7.2799454055325095" fill="#ff8e0d" stroke="none" /><path d="M 117.01052211995028 112.31430620078461 l 10.066869888528545 7.287637464426122 a33.42785295879662,33.42785295879662 0 0,0 -0.34048334464454066,0.4619310487300224 l -9.940284524300177 -7.459374822425022" fill="#ff8e0d" stroke="none" /><path d="M 116.79662413953412 112.60449989151573 l 16.997140319136534 12.754970970885612 a42.25069560029863,42.25069560029863 0 0,0 -0.440308627977645,0.5763781281195826 l -16.775679713804585 -13.044870012246072" fill="#fdff18" stroke="none" /><path d="M 116.35404254752997 113.17365903436017 l 13.738379750146446 11.066666237842368 a38.64126355392476,38.64126355392476 0 0,0 -0.42055160447085704,0.513004576720067 l -13.546381326436961 -11.300873096260927" fill="#ffd313" stroke="none" /><path d="M 116.1254893667686 113.45245675266167 l 19.878098506256052 16.583016762991083 a46.88697056795295,46.88697056795295 0 0,0 -0.5209040540088257,0.6136236658277832 l -19.590499888740112 -16.921807211268423" fill="#c5ff1e" stroke="none" /><path d="M 115.89218393027572 113.72728997021213 l 3.6118939473816702 3.119867966221183 a25.772772151882535,25.772772151882535 0 0,0 -0.2920778392030629,0.3323309650236575 l -3.5578050442200215 -3.1814112090561335" fill="#ff2203" stroke="none" /><path d="M 115.6541949942343 113.99807769240083 l 9.289940931384187 8.307122465462244 a33.46239488079217,33.46239488079217 0 0,0 -0.3865739968293852,0.42491254031231396 l -9.145969233712924 -8.465372581332229" fill="#ff8f0d" stroke="none" /><path d="M 115.41159269507618 114.26474011684316 l 8.340410363244608 7.719759317122393 a32.364731802449896,32.364731802449896 0 0,0 -0.38089307893647767,0.4044952503885192 l -8.206661450571872 -7.8617960274554095" fill="#ff800b" stroke="none" /><path d="M 115.16444852881244 114.52719865689866 l 19.47950983772454 18.660929780200657 a47.9755742066705,47.9755742066705 0 0,0 -0.5748232234651044,0.5898192664372709 l -19.156299813108628 -18.992571738705667" fill="#b8ff1f" stroke="none" /><path d="M 114.91283532996324 114.78537596483092 l 6.933066237222648 6.873809616904361 a30.763025458287174,30.763025458287174 0 0,0 -0.375027765646148,0.37182241938846994 l -6.814046551446536 -6.991812046521493" fill="#ff6909" stroke="none" /><path d="M 114.65682725009322 115.03919595460226 l 10.623248073874166 10.900388380870663 a36.220770890230604,36.220770890230604 0 0,0 -0.4490125355188476,0.43014385195258403 l -10.434563052490006 -11.081144363128827" fill="#ffb410" stroke="none" /><path d="M 114.39649973595853 115.28858382429668 l 10.689548309696276 11.351929870040683 a36.59271480017679,36.59271480017679 0 0,0 -0.4610163296631214,0.42670983216201547 l -10.493102208719188 -11.533757448335079" fill="#ffb911" stroke="none" /><path d="M 114.13192950727249 115.5334660781643 l 17.637501291354177 19.386703554658933 a47.209267950836505,47.209267950836505 0 0,0 -0.6041324455455245,0.5402189580723319 l -17.302103818985273 -19.68661804261465" fill="#c1ff1e" stroke="none" /><path d="M 113.86319453409587 115.77377054828091 l 12.922172561649337 14.703060284657651 a40.57453768157297,40.57453768157297 0 0,0 -0.5271222132699218,0.4553156131997182 l -12.667870868616559 -14.922720030322086" fill="#ffec16" stroke="none" /><path d="M 113.59037401385872 116.0094264158162 l 11.580963907581696 13.642346363211695 a38.89503672314045,38.89503672314045 0 0,0 -0.5127211637467095,0.42773023035760305 l -11.345068409673091 -13.83913877748117" fill="#ffd714" stroke="none" /><path d="M 113.31354834802062 116.24036423190432 l 2.9443612233558616 3.5916419460559372 a25.64426042360569,25.64426042360569 0 0,0 -0.3428383980350754,0.27616634520022487 l -2.8822720549655334 -3.6416565850495655" fill="#ff2003" stroke="none" /><path d="M 113.03279911837588 116.46651593811092 l 8.801983021295698 11.121018009307678 a35.18280461229455,35.18280461229455 0 0,0 -0.4767941101190841,0.3707579838919948 l -8.609778966541382 -11.270477044820465" fill="#ffa60f" stroke="none" /><path d="M 112.7482090630111 116.68781488649013 l 5.624814743082413 7.363063057673835 a30.26570226616841,30.26570226616841 0 0,0 -0.4155726089031575,0.3118534331852967 l -5.497589145268489 -7.458535518123146" fill="#ff6209" stroke="none" /><path d="M 112.45986205192187 116.90419585922612 l 13.525368085038519 18.349759429507593 a43.795816567005915,43.795816567005915 0 0,0 -0.6090100049401955,0.4408762780643459 l -13.208377069724357 -18.579236478945013" fill="#eaff1a" stroke="none" /><path d="M 112.16784306229584 117.11559508785304 l 16.221031818212793 22.81691266778442 a48.99523846901064,48.99523846901064 0 0,0 -0.6896777619310406,0.4814486409021267 l -15.826958965107995 -23.092006124491668" fill="#acff20" stroke="none" /><path d="M 111.8722381534696 117.32195027204791 l 5.185639257893613 7.566002651973557 a30.17252694968395,30.17252694968395 0 0,0 -0.4297483241973177,0.28915385157829476 l -5.054994645599293 -7.653906177608973" fill="#ff6108" stroke="none" /><path d="M 111.5731344415666 117.5232005979908 l 10.845822135782578 16.42195706746844 a40.6802574100749,40.6802574100749 0 0,0 -0.5860172547633765,0.3798493044780123 l -10.562319248762194 -16.605720213650347" fill="#ffed16" stroke="none" /><path d="M 110.96478420261333 117.91015095944535 l 4.224946569891226 6.901132704855949 a29.09171218769353,29.09171218769353 0 0,0 -0.42815691870832695,0.2570959277368744 l -4.105856894625463 -6.972642633128747" fill="#ff5207" stroke="none" /><line stroke="#e1ed5e" stroke-width="0.3" x1="143.1302829299769" x2="145.66735839644613" y1="173.24464959558577" y2="177.55315839532614" /><path d="M 143.63769802327073 174.10635135553383 a86.0,86.0 0 0,1 -40.68552437913181,11.842963189579606" fill="none" id="id102" stroke="none" /><text fill="#e1ed5e" style="font-size:6.75px; font-family:Arial;" text-anchor="middle"><textPath startOffset="21.407464694133747" xlink:href="#id102">June</textPath></text><path d="M 110.65571695917076 118.09573695890943 l 10.101568720969235 17.15467210206677 a40.90789957664776,40.90789957664776 0 0,0 -0.6081787796114211,0.35113218212407343 l -9.805597473497416 -17.325551181467016" fill="#fff016" stroke="none" /><path d="M 110.34350942703117 118.27599006163325 l 6.360908448009028 11.23911573715645 a33.91428971477527,33.91428971477527 0 0,0 -0.5091274731971854,0.2824044270275463 l -6.167036786655748 -11.34665307961714" fill="#ff950d" stroke="none" /><path d="M 110.02825361518725 118.45085714620011 l 4.508942557596118 8.295946453192556 a30.442102019250775,30.442102019250775 0 0,0 -0.46128653969011113,0.24560910031731012 l -4.3658672021194525 -8.372126021232434" fill="#ff6509" stroke="none" /><path d="M 109.71004243097381 118.62028667847754 l 14.511435764126619 27.827591482239352 a52.384018474994136,52.384018474994136 0 0,0 -0.800908683313019,0.40894968039992985 l -14.031599859100018 -28.07259911431212" fill="#86ff25" stroke="none" /><path d="M 109.3889696526874 118.78422872680471 l 3.4367817979349917 6.875865804726705 a28.686936951167695,28.686936951167695 0 0,0 -0.4423795481762322,0.21639000493485067 l -3.3182420004966904 -6.933849559758779" fill="#ff4c07" stroke="none" /><path d="M 109.06512990194946 118.94263497670748 l 17.48686055723073 36.54081298415487 a61.509521173311995,61.509521173311995 0 0,0 -0.9563596603545675,0.44762461047607593 l -16.85701218300466 -36.835613826201474" fill="#30ff39" stroke="none" /><path d="M 108.73861861582097 119.09545874513695 l 6.045488267115487 13.210482900570879 a35.52806893066338,35.52806893066338 0 0,0 -0.5567529194048922,0.2490284992385684 l -5.817821944854968 -13.312315150719298" fill="#ffaa0f" stroke="none" /><path d="M 108.4095320186766 119.2426549942271 l 8.82216941105446 20.186850100638544 a43.030424192534184,43.030424192534184 0 0,0 -0.679399017275336,0.2899950409120411 l -8.474335318608693 -20.33531979120999" fill="#f3ff19" stroke="none" /><path d="M 108.07796709384702 119.3841803445677 l 9.277118126786474 22.261706288016793 a45.11738973422034,45.11738973422034 0 0,0 -0.7174643344988134,0.2917864988469421 l -8.893599331097219 -22.417680043443024" fill="#daff1c" stroke="none" /><path d="M 107.74402155503746 119.51999308798841 l 10.513091912336678 26.49985927902107 a49.50908001611343,49.50908001611343 0 0,0 -0.7926821885640303,0.30662649928944824 l -10.05663746127912 -26.676425666448562" fill="#a7ff21" stroke="none" /><path d="M 107.407793817531 119.65005319985036 l 9.348141859254014 24.797056907735794 a47.500599757481424,47.500599757481424 0 0,0 -0.7654627743270027,0.28108853349708224 l -8.921089933272883 -24.953876290241595" fill="#beff1f" stroke="none" /><path d="M 107.06938296918513 119.77432235084164 l 11.149611872733088 31.18744878007496 a54.1205496077947,54.1205496077947 0 0,0 -0.8775111788192931,0.3052439393236458 l -10.612594921868773 -31.374251151967194" fill="#73ff27" stroke="none" /><path d="M 106.72888874123015 119.89276391827305 l 1.1627122299954329 3.4373521075575857 a24.62867596253944,24.62867596253944 0 0,0 -0.401655310429122,0.13203207842623463 l -1.1035341819185767 -3.4568051073858395" fill="#ff1101" stroke="none" /><path d="M 106.38641147887787 120.00534299687104 l 11.433967450865913 35.81674018753055 a58.59753302184237,58.59753302184237 0 0,0 -0.9608861612707491,0.2976849889944275 l -10.817440656723539 -36.00774176433163" fill="#44ff2d" stroke="none" /><path d="M 106.0420521117495 120.11202640906438 l 4.03737432540828 13.439106044449208 a35.0324610356636,35.0324610356636 0 0,0 -0.577435029958402,0.16808292159259233 l -3.806079283068271 -13.506432660344318" fill="#ffa40f" stroke="none" /><path d="M 105.69591212413111 120.21278271476187 l 5.359644374395038 19.019487100069785 a40.760229689194034,40.760229689194034 0 0,0 -0.6751031422893103,0.18400236348127927 l -5.032359831171033 -19.108689957695205" fill="#ffee16" stroke="none" /><path d="M 105.3480935250658 120.30758222061773 l 6.4910590513164115 24.647608491826254 a46.48800604154869,46.48800604154869 0 0,0 -0.7734601542582314,0.196610546620034 l -6.066993603832783 -24.75540427028156" fill="#caff1d" stroke="none" /><path d="M 104.9986988182912 120.39639698878246 l 9.37470355043063 38.25198961118774 a60.38400406094931,60.38400406094931 0 0,0 -1.0088954977822702,0.2380965903966002 l -8.716675898908479 -38.40728234523057" fill="#32ff2f" stroke="none" /><path d="M 104.64783097203109 120.47920084513623 l 6.030519664495438 26.571582347319445 a48.24731465418647,48.24731465418647 0 0,0 -0.8092627389717522,0.17637504737931228 l -5.573494508904551 -26.671188852832476" fill="#b5ff20" stroke="none" /><path d="M 104.29559338865022 120.5559693870025 l 4.404574398113001 21.077482968851463 a42.53277882510142,42.53277882510142 0 0,0 -0.715975561657513,0.143215164396571 l -4.04210235092453 -21.149987529910895" fill="#faff18" stroke="none" /><path d="M 103.94208987418118 120.62667999033965 l 4.392080636426883 22.981221806405976 a44.397156409104625,44.397156409104625 0 0,0 -0.749815681305261,0.1366413948083474 l -3.9969302215705644 -23.05323137514569" fill="#e3ff1b" stroke="none" /><path d="M 103.58742460773223 120.69131181640829 l 5.096731337213845 29.396591949402914 a50.83515189442544,50.83515189442544 0 0,0 -0.8611051030743505,0.14169451702195748 l -4.5913487310864225 -29.47975246492054" fill="#98ff23" stroke="none" /><path d="M 103.2317021107853 120.74984581791261 l 3.5636040223977927 22.88089418083121 a44.15673966997179,44.15673966997179 0 0,0 -0.7499809742141006,0.11022137619621822 l -3.1702979425760067 -22.93869663032631" fill="#e6ff1a" stroke="none" /><path d="M 102.875027216393 120.80226474461374 l 4.11444171551499 29.770050646618362 a51.053028901137274,51.053028901137274 0 0,0 -0.869170956752752,0.11253158176041723 l -3.6027929368714626 -29.836293824579172" fill="#95ff23" stroke="none" /><path d="M 102.51750503828377 120.84855314841334 l 3.434964870707621 28.446436682685388 a49.65307563953692,49.65307563953692 0 0,0 -0.8470911607974292,0.09491833143043149 l -2.9461378083093925 -28.501210774622788" fill="#a5ff21" stroke="none" /><path d="M 102.15924093988457 120.88869738790638 l 1.295265314404092 12.53051694688826 a33.59728411964072,33.59728411964072 0 0,0 -0.5741942828388927,0.05437679557238846 l -1.079971468180184 -12.550905497965832" fill="#ff900d" stroke="none" /><path d="M 101.80034050326958 120.92268563240118 l 4.391558070591678 51.0365615729668 a72.2251539722294,72.2251539722294 0 0,0 -1.236188556892942,0.09568881250635682 l -3.5148005189235 -51.10442815246821" fill="#3effb6" stroke="none" /><path d="M 101.44090949804482 120.95050786540614 l 2.3040658504922997 33.50061179321286 a54.57975148751041,54.57975148751041 0 0,0 -0.9352777062851003,0.056263984310687576 l -1.7286437920747342 -33.53522775534824" fill="#6eff28" stroke="none" /><path d="M 101.08105385017728 120.97215588758144 l 0.741088144943436 14.376912028613125 a35.39599983040624,35.39599983040624 0 0,0 -0.6070822531757016,0.02607072406552899 l -0.4941801311669048 -14.387515321104486" fill="#ffa90f" stroke="none" /><path d="M 100.72087961077811 120.9876233191556 l 1.1016558943003492 32.07350935053703 a53.09242352594196,53.09242352594196 0 0,0 -0.911133455355557,0.02346756579709087 l -0.5509091248740483 -32.087694633684166" fill="#7fff26" stroke="none" /><line stroke="#e1ed5e" stroke-width="0.3" x1="101.45913802915013" x2="101.54496967792366" y1="184.9874750549273" y2="189.98673829345242" /><path d="M 101.47630435890484 185.9873277026323 a86.0,86.0 0 0,1 -42.54439059252881,-10.42667462771756" fill="none" id="id103" stroke="none" /><text fill="#e1ed5e" style="font-size:6.75px; font-family:Arial;" text-anchor="middle"><textPath startOffset="22.145653131862474" xlink:href="#id103">July</textPath></text><path d="M 100.36049292484886 120.99690560180557 l 0.08420316196105186 4.90441204584259 a25.905134828716754,25.905134828716754 0 0,0 -0.44469608680990347,0.003817181068598764 l -6.007057667374174e-16 -4.905134828716754" fill="#ff2403" stroke="none" /><path d="M 100.0 121.0 l 3.587154377331132e-15 29.291338366528606 a50.291338366528606,50.291338366528606 0 0,0 -0.8633176982053901,-0.0074105441255762515 l 0.5028247733565344 -29.287022220597464" fill="#9eff22" stroke="none" /><path d="M 99.63950707515114 120.99690560180557 l -0.5368879310615036 31.271030387000554 a52.27563892417278,52.27563892417278 0 0,0 -0.8971163936531928,-0.02310653600957305 l 1.0736176387854404 -31.257206133640935" fill="#87ff25" stroke="none" /><path d="M 99.27912038922189 120.98762331915562 l -1.905188698793229 55.46749022215366 a76.50020013948347,76.50020013948347 0 0,0 -1.312066733291527,-0.056345791003232316 l 2.857081192685595 -55.4266118627246" fill="#43ffe3" stroke="none" /><path d="M 98.91894614982273 120.97215588758144 l -0.5209771944214203 10.106818391599314 a31.120236916094274,31.120236916094274 0 0,0 -0.5332758579634698,-0.0320805513743074 l 0.6943974045173364 -10.096385862400314" fill="#ff6e0a" stroke="none" /><path d="M 98.55909050195518 120.95050786540614 l -2.332765885653045 33.9179040056581 a54.998029484284885,54.998029484284885 0 0,0 -0.9413331915675104,-0.07286514243450874 l 2.9146680719957914 -33.87286109622854" fill="#6aff28" stroke="none" /><path d="M 98.19965949673042 120.92268563240118 l -2.1966110226511155 25.527949740691156 a46.62228166943932,46.62228166943932 0 0,0 -0.7967979641499319,-0.07545759563271885 l 2.634508550186063 -25.486480389553254" fill="#c8ff1d" stroke="none" /><path d="M 97.84075906011543 120.88869738790638 l -2.7559308392686064 26.661130891005737 a47.803191137962884,47.803191137962884 0 0,0 -0.8155317701736635,-0.09138203588444907 l 3.2131985110430694 -26.609893094614318" fill="#baff1f" stroke="none" /><path d="M 97.48249496171623 120.84855314841334 l -3.3011894799220722 27.338584542439534 a48.53717590397501,48.53717590397501 0 0,0 -0.8263388975456578,-0.10698611416835975 l 3.7700061993585243 -27.277886832070777" fill="#b2ff20" stroke="none" /><path d="M 97.12497278360702 120.80226474461374 l -2.7397160699100636 19.82322069383561 a41.01164967763117,41.01164967763117 0 0,0 -0.6965631341725581,-0.10237079325446004 l 3.0796043096903065 -19.773268827282266" fill="#fff116" stroke="none" /><path d="M 96.76829788921471 120.74984581791261 l -5.6674227257595815 36.388919434121206 a57.82761379638138,57.82761379638138 0 0,0 -0.9795515796253284,-0.1611848396642522 l 6.291251808437973 -36.28626859596128" fill="#4cff2c" stroke="none" /><path d="M 96.41257539226777 120.69131181640829 l -2.133702362460561 12.306628217334753 a33.490227534007126,33.490227534007126 0 0,0 -0.565610498656398,-0.10307307433223464 l 2.3446475946680163 -12.268186969071152" fill="#ff8f0d" stroke="none" /><path d="M 96.05791012581884 120.62667999033965 l -9.342054036309065 48.881574294252665 a70.76627652438809,70.76627652438809 0 0,0 -1.1912441646313927,-0.23828219566486972 l 10.179794686471416 -48.71400270192493" fill="#3cffa6" stroke="none" /><path d="M 95.70440661134978 120.55596938700252 l -6.8525794155520074 32.79207316508907 a54.5004165214554,54.5004165214554 0 0,0 -0.9141473813699019,-0.19923416702176736 l 7.414489213541046 -32.66960753993359" fill="#6fff27" stroke="none" /><path d="M 95.35216902796893 120.47920084513623 l -6.175658774398016 27.211092045513237 a48.90308749237605,48.90308749237605 0 0,0 -0.8170724278057053,-0.1928268681892703 l 6.6418633559436095 -27.10106903367774" fill="#aeff20" stroke="none" /><path d="M 95.00130118170881 120.39639698878247 l -3.254032168774781 13.27756168980152 a34.67049266785605,34.67049266785605 0 0,0 -0.5768422199722487,-0.14663103659299281 l 3.481479681972408 -13.219745421373265" fill="#ff9f0e" stroke="none" /><path d="M 94.6519064749342 120.30758222061772 l -7.022267543444844 26.66469366051833 a48.573866784711306,48.573866784711306 0 0,0 -0.804518776011573,-0.2192751699380376 l 7.478967720391112 -26.54021799643615" fill="#b1ff20" stroke="none" /><path d="M 94.30408787586889 120.21278271476187 l -9.51540470339991 33.76681443135589 a56.08191390889484,56.08191390889484 0 0,0 -0.9243901421924121,-0.26907649818593293 l 10.093654857973927 -33.59849423886744" fill="#5eff29" stroke="none" /><path d="M 93.95794788825049 120.11202640906438 l -13.587908645411776 45.22972865279478 a68.22668329833783,68.22668329833783 0 0,0 -1.1187855943753857,-0.34660263699532334 l 14.362334872658796 -44.98980942799281" fill="#39ff89" stroke="none" /><path d="M 93.61358852112213 120.00534299687104 l -7.4994154492503045 23.49181208171178 a45.65981482012616,45.65981482012616 0 0,0 -0.744640399005133,-0.24477808959067257 l 7.901578585903182 -23.359613070719085" fill="#d4ff1c" stroke="none" /><path d="M 93.27111125876986 119.89276391827306 l -8.801832516513102 26.021053851926983 a48.46939204302912,48.46939204302912 0 0,0 -0.7858832487208744,-0.273370988858279 l 9.247221537278998 -25.86612443050011" fill="#b3ff20" stroke="none" /><path d="M 92.93061703081489 119.77432235084164 l -5.053444494528982 14.135383646986227 a36.01154129684127,36.01154129684127 0 0,0 -0.5803188685955614,-0.21310112680218568 l 5.295352514778663 -14.046551671175322" fill="#ffb110" stroke="none" /><path d="M 92.59220618246901 119.65005319985036 l -8.575754528179804 22.748207746926248 a45.31099589537442,45.31099589537442 0 0,0 -0.7254673159079414,-0.2806263426061515 l 8.964994106581273 -22.597641516182055" fill="#d8ff1c" stroke="none" /><path d="M 92.25597844496254 119.51999308798841 l -6.468831787921535 16.30568185924648 a38.54197952328596,38.54197952328596 0 0,0 -0.6129010532709869,-0.24926152266296403 l 6.747787302382963 -16.192233080004225" fill="#ffd213" stroke="none" /><path d="M 91.92203290615298 119.3841803445677 l -10.220158007358597 24.524658699775642 a47.568976533465815,47.568976533465815 0 0,0 -0.7510573394541961,-0.3205817175829688 l 10.639650421983223 -24.345602332533268" fill="#bdff1f" stroke="none" /><path d="M 91.59046798132341 119.24265499422711 l -4.068834837731781 9.310290374907927 a31.160557258430416,31.160557258430416 0 0,0 -0.48831055968090503,-0.21841510228569766 l 4.228058800268321 -9.239071521712374" fill="#ff6f0a" stroke="none" /><path d="M 91.26138138417905 119.09545874513695 l -15.4841990078092 33.835769285067215 a58.21047839017576,58.21047839017576 0 0,0 -0.9050656269205777,-0.4236164128413851 l 16.06275334860127 -33.5649766406553" fill="#48ff2c" stroke="none" /><path d="M 90.93487009805054 118.94263497670748 l -4.265007767931593 8.912225880334715 a30.88018529191759,30.88018529191759 0 0,0 -0.4762015003655097,-0.23293401659026733 l 4.417369517559172 -8.837698113647226" fill="#ff6b09" stroke="none" /><path d="M 90.6110303473126 118.78422872680471 l -8.266203675204734 16.53794466072807 a39.488746220370714,39.488746220370714 0 0,0 -0.603750545715319,-0.30827933053519624 l 8.548881442633634 -16.393607378520038" fill="#ffde14" stroke="none" /><path d="M 90.28995756902619 118.62028667847754 l -11.809515252493807 22.64630263961004 a46.54054959752614,46.54054959752614 0 0,0 -0.7052249238749069,-0.3754925500115829 l 12.196528992155274 -22.440239621875886" fill="#c9ff1d" stroke="none" /><path d="M 89.97174638481275 118.45085714620012 l -14.169454951961056 26.070201172636537 a50.672021212202466,50.672021212202466 0 0,0 -0.7606975802392418,-0.42194612468988135 l 14.6148967203564 -25.823122132513507" fill="#99ff23" stroke="none" /><line stroke="#e1ed5e" stroke-width="0.3" x1="58.13341422392154" x2="55.67067388415222" y1="173.97424548756322" y2="178.32567169271397" /><path d="M 57.64086615596768 174.84453072859336 a86.0,86.0 0 0,1 -31.369924170532247,-30.572349798747897" fill="none" id="id104" stroke="none" /><text fill="#e1ed5e" style="font-size:6.75px; font-family:Arial;" text-anchor="middle"><textPath startOffset="22.145653131862474" xlink:href="#id104">August</textPath></text><path d="M 89.65649057296885 118.27599006163327 l -18.441476167439085 32.58432135974777 a58.440967424861476,58.440967424861476 0 0,0 -0.8688433435984177,-0.5016269383101648 l 18.998111978897903 -32.262947524161426" fill="#46ff2c" stroke="none" /><path d="M 89.34428304082925 118.09573695890944 l -12.896224128374525 21.90060795387039 a46.41553118702028,46.41553118702028 0 0,0 -0.6831200131854821,-0.4101939402856854 l 13.270276898117435 -21.676000013048785" fill="#cbff1d" stroke="none" /><path d="M 89.03521579738668 117.91015095944536 l -1.418192889652676 2.316511503914292 a23.716154748910427,23.716154748910427 0 0,0 -0.3453928975900484,-0.21555071324444444 l 1.457749916032437 -2.2918249938282997" fill="#ff0300" stroke="none" /><path d="M 88.72937992617639 117.7192867562869 l -13.608502041207833 21.39482552088829 a46.35606213265007,46.35606213265007 0 0,0 -0.6677797536720672,-0.4328467684441388 l 13.97376742713691 -21.158064910740258" fill="#cbff1d" stroke="none" /><path d="M 88.4268655584334 117.5232005979908 l -14.71233108904095 22.276344428469532 a47.69622084058653,47.69622084058653 0 0,0 -0.6793388903411612,-0.45708952335293185 l 15.092566267479118 -22.020505231059477" fill="#bbff1f" stroke="none" /><path d="M 88.1277618465304 117.32195027204791 l -10.034375794421889 14.640454165015285 a38.7491294361609,38.7491294361609 0 0,0 -0.5454491844796335,-0.38076589248523235 l 10.284220070075289 -14.466043456724924" fill="#ffd513" stroke="none" /><path d="M 87.83215693770417 117.11559508785305 l -7.2167661071383575 10.151285310070067 a33.455131733208816,33.455131733208816 0 0,0 -0.4652158936446624,-0.3367804305720393 l 7.389963011156974 -10.025904108124962" fill="#ff8e0d" stroke="none" /><path d="M 87.54013794807813 116.9041958592261 l -13.63901646430197 18.503945282781668 a43.987360899887534,43.987360899887534 0 0,0 -0.603982097199333,-0.4532394256955477 l 13.954651550412068 -18.26708682982211" fill="#e8ff1a" stroke="none" /><path d="M 87.2517909369889 116.68781488649013 l -15.165544855184594 19.852185035966624 a45.982053587663145,45.982053587663145 0 0,0 -0.623144532204712,-0.48456095729838994 l 15.504099332024534 -19.58892302704744" fill="#d0ff1d" stroke="none" /><path d="M 86.96720088162412 116.46651593811092 l -20.24992443976825 25.585118016807048 a53.62909290419009,53.62909290419009 0 0,0 -0.7169679294951171,-0.5775386125044898 l 20.68614313961863 -25.233731110509147" fill="#79ff26" stroke="none" /><path d="M 86.68645165197938 116.24036423190432 l -15.928852832036807 19.430610459843273 a46.125225877330095,46.125225877330095 0 0,0 -0.6080307793059524,-0.507240901461062 l 16.260057945504652 -19.154307374470342" fill="#ceff1d" stroke="none" /><path d="M 86.40962598614128 116.0094264158162 l -8.049169327122193 9.481901228001561 a33.43766769753326,33.43766769753326 0 0,0 -0.4344038998455976,-0.37522774236278716 l 8.210752706730654 -9.342329353174051" fill="#ff8e0d" stroke="none" /><path d="M 86.13680546590413 115.77377054828092 l -20.169614179636657 22.949318451419344 a51.55297945438475,51.55297945438475 0 0,0 -0.6597185024213997,-0.5899243528913717 l 20.560597708881428 -22.59969856864459" fill="#8fff24" stroke="none" /><path d="M 85.86807049272751 115.53346607816431 l -11.682180438825949 12.840762719069122 a38.359681074625854,38.359681074625854 0 0,0 -0.48327759972557355,-0.4473145313903606 l 11.90088780986549 -12.638330441546385" fill="#ffd013" stroke="none" /><path d="M 85.60350026404147 115.28858382429668 l -8.38831629445932 8.908101216591758 a33.235935499214406,33.235935499214406 0 0,0 -0.4120108794500589,-0.394697102450007 l 8.539999659774693 -8.762791983836168" fill="#ff8b0c" stroke="none" /><path d="M 85.34317274990678 115.03919595460226 l -43.97048175027963 45.11758786380679 a84.0,84.0 0 0,0 -1.02403231948015,-1.0152799590853623 l 44.73850598988974 -44.35612789449277" fill="#4dd2ff" stroke="none" /><path d="M 85.08716467003676 114.78537596483092 l -14.101851242728976 13.981323323871234 a40.85798605998812,40.85798605998812 0 0,0 -0.4895432652899641,-0.5023145165953167 l 14.33978130916975 -13.73718611520818" fill="#fff016" stroke="none" /><path d="M 84.83555147118756 114.52719865689866 l -12.788366816262192 12.250966125418365 a38.70955947598427,38.70955947598427 0 0,0 -0.45556389538709813,-0.4837930698218456 l 12.996786545385543 -12.02963159565203" fill="#ffd413" stroke="none" /><path d="M 84.58840730492382 114.26474011684316 l -15.157014349361752 14.029106200683891 a41.653108840482716,41.653108840482716 0 0,0 -0.4811971415135489,-0.5289199518553904 l 15.395609191717181 -13.766848673270827" fill="#fff917" stroke="none" /><path d="M 84.3458050057657 113.99807769240083 l -14.570574591038778 13.029097645928392 a40.54633033027329,40.54633033027329 0 0,0 -0.4595037150326281,-0.5228308777735856 l 14.792089370029998 -12.777054490343506" fill="#ffec16" stroke="none" /><path d="M 84.1078160697243 113.72728997021213 l -17.256471249539608 14.905728862964985 a43.80277511449899,43.80277511449899 0 0,0 -0.4866393127470472,-0.5732598867788737 l 17.50980512579377 -14.607302193736556" fill="#eaff1a" stroke="none" /><path d="M 83.8745106332314 113.45245675266167 l -3.847537993515649 3.2097530366214215 a26.010595091168998,26.010595091168998 0 0,0 -0.2830859162658454,-0.3453187887182018 l 3.902070729020124 -3.1432319662047243" fill="#ff2503" stroke="none" /><path d="M 83.64595745247003 113.17365903436017 l -19.49849829277941 15.706609998390014 a46.03775216178654,46.03775216178654 0 0,0 -0.4904852674474126,-0.6197121125302788 l 19.765249990868384 -15.369577941945055" fill="#cfff1d" stroke="none" /><path d="M 83.4222238831116 112.89097897827486 l -11.313433549655144 8.797394356902911 a35.331361629424116,35.331361629424116 0 0,0 -0.36819993476094276,-0.4819855339787608 l 11.462785461770384 -8.601887909683281" fill="#ffa80f" stroke="none" /><path d="M 83.20337586046588 112.60449989151573 l -15.054198484171017 11.296951195923642 a39.82153018019251,39.82153018019251 0 0,0 -0.4056068991726059,-0.5502836577881315 l 15.245907402927454 -11.03686122886663" fill="#ffe215" stroke="none" /><path d="M 82.98947788004972 112.3143062007846 l -8.390006597951428 6.073717758057799 a31.357714908135634,31.357714908135634 0 0,0 -0.3119120566148331,-0.4387433694457687 l 8.493033753096222 -5.928797161902526" fill="#ff720a" stroke="none" /><path d="M 82.78059297857968 112.02048342749411 l -20.74868186967898 14.48419136887627 a46.30414193248558,46.30414193248558 0 0,0 -0.4493933025619253,-0.6556782587194063 l 20.99426490905623 -14.125878375086812" fill="#ccff1d" stroke="none" /><path d="M 82.576782715395 111.72311816256416 l -10.24660513163948 6.8943732240247515 a33.350113314293516,33.350113314293516 0 0,0 -0.3155167845130765,-0.47773262593389887 l 10.363446355073284 -6.7174607197517915" fill="#ff8d0d" stroke="none" /><path d="M 82.37810715431573 111.42229804090323 l -11.62960094994061 7.538166830898961 a34.858989047738106,34.858989047738106 0 0,0 -0.32117131754972333,-0.5049346563260892 l 11.757289959116223 -7.337418499894199" fill="#ffa10e" stroke="none" /><path d="M 82.18462484594161 111.11811171558189 l -6.435230393802798 4.016059713315039 a28.585573534165718,28.585573534165718 0 0,0 -0.2562247949307488,-0.41852394647848234 l 6.5032231531889515 -3.9049986507119994" fill="#ff4b06" stroke="none" /><path d="M 81.99639281039703 110.81064883170644 l -21.675907311391846 13.015759541088007 a46.28349173281796,46.28349173281796 0 0,0 -0.4031651154725643,-0.6846625063854584 l 21.89614613699418 -12.64174586640899" fill="#ccff1d" stroke="none" /><line stroke="#e1ed5e" stroke-width="0.3" x1="26.387840678322732" x2="22.057713659400548" y1="142.50000000000003" y2="145.00000000000006" /><path d="M 25.521815274538298 143.00000000000003 a86.0,86.0 0 0,1 -11.493303480769221,-40.785679425670985" fill="none" id="id105" stroke="none" /><text fill="#e1ed5e" style="font-size:6.75px; font-family:Arial;" text-anchor="middle"><textPath startOffset="21.40746469413373" xlink:href="#id105">September</textPath></text><path d="M 81.81346652052679 110.50000000000001 l -32.58936634278846 18.81547943072827 a58.630958861456506,58.630958861456506 0 0,0 -0.4957572414570872,-0.8759555431132807 l 32.907556949266926 -18.25326711751587" fill="#44ff2d" stroke="none" /><path d="M 81.63589988554817 110.18625677009913 l -24.725916635334958 13.715049153177938 a49.2749628953182,49.2749628953182 0 0,0 -0.4039482861886242,-0.7432193489433861 l 24.95771027113891 -13.288574970759965" fill="#a9ff21" stroke="none" /><path d="M 81.4637452351635 109.86951160357371 l -22.336029569953073 11.892677664131254 a46.304821654632235,46.304821654632235 0 0,0 -0.3675542922562492,-0.7048338192513888 l 22.53689193118427 -11.507497601775363" fill="#ccff1d" stroke="none" /><path d="M 81.29705330413844 109.54985784667822 l -23.79683494834378 12.150833483786434 a47.719508002757486,47.719508002757486 0 0,0 -0.36625878292274583,-0.732762912877531 l 24.00191364447826 -11.74053871474515" fill="#bbff1f" stroke="none" /><path d="M 81.1358732173502 109.22738970284198 l -22.63908249390848 11.073909706661615 a46.20237156216231,46.20237156216231 0 0,0 -0.3423832069769314,-0.7154492193789487 l 22.825844958845323 -10.683647985217561" fill="#cdff1d" stroke="none" /><path d="M 80.9802524753101 108.90220220490708 l -9.698026651295125 4.5391661548785285 a31.707742540368873,31.707742540368873 0 0,0 -0.2265073316872162,-0.49495939780156795 l 9.774518447837396 -4.372017774862272" fill="#ff760a" stroke="none" /><path d="M 80.83023694016515 108.57439118712176 l -32.5984124937981 14.580855273408407 a56.71075240904193,56.71075240904193 0 0,0 -0.389862436818584,-0.8920815510598655 l 32.84390881263366 -14.019111652572692" fill="#58ff2a" stroke="none" /><path d="M 80.68587082218212 108.24405325689762 l -34.83241984132504 14.867888766546216 a58.8728344381131,58.8728344381131 0 0,0 -0.38876859978326883,-0.9329031132404672 l 35.0825142856448 -14.267753143864468" fill="#42ff2d" stroke="none" /><path d="M 80.5471966667186 107.91128576633889 l -9.649959835211368 3.924554655803008 a31.417478296957363,31.417478296957363 0 0,0 -0.19888958066764478,-0.5013316675726334 l 9.715908090845137 -3.758321971016809" fill="#ff720a" stroke="none" /><path d="M 80.41425534168474 107.57618678355246 l -10.840351178248895 4.193280713013299 a32.62311562387175,32.62311562387175 0 0,0 -0.19755520503477908,-0.5240386523250437 l 10.91073706709811 -4.006573780494111" fill="#ff830c" stroke="none" /><path d="M 80.28708602549918 107.23885506374661 l -4.555573767718376 1.6728697887778625 a25.85301408233373,25.85301408233373 0 0,0 -0.1494055901373125,-0.41791402634019387 l 4.583619527899631 -1.5944208060567473" fill="#ff2303" stroke="none" /><path d="M 80.16572619554312 106.89939002012753 l -3.324023644859321 1.1562679727077771 a24.51938756267246,24.51938756267246 0 0,0 -0.13487365321932615,-0.39872999026531963 l 3.3433827196510144 -1.0990363079682959" fill="#ff0f01" stroke="none" /><path d="M 80.05021161711548 106.5578916946017 l -23.89034784928735 7.853231860664684 a46.148001332457966,46.148001332457966 0 0,0 -0.24092615439979292,-0.7546977471817611 l 24.0216387194644 -7.44196507979153" fill="#ceff1d" stroke="none" /><path d="M 79.94057633289273 106.21446072829308 l -11.682600624131544 3.6192995366086413 a33.23039191844048,33.23039191844048 0 0,0 -0.16413231130963293,-0.5463430832085817 l 11.743009255444807 -3.418218849809336" fill="#ff8b0c" stroke="none" /><path d="M 79.73907114497094 105.5222062557868 l -24.324018147862994 6.629619310304225 a46.2113012567207,46.2113012567207 0 0,0 -0.2020325505270686,-0.7671505017330686 l 24.434240179194795 -6.211088304198354" fill="#cdff1d" stroke="none" /><path d="M 79.64726062577567 105.17358676015961 l -24.511588337510776 6.230749903574655 a46.291109251839664,46.291109251839664 0 0,0 -0.18915974215261191,-0.7718362989029415 l 24.61493560617968 -5.809057780063615" fill="#ccff1d" stroke="none" /><path d="M 79.56144815229197 104.8234425847677 l -27.43602042226105 6.474826115243113 a49.18968942420898,49.18968942420898 0 0,0 -0.18689537806683823,-0.8234955202740222 l 27.543126661885555 -6.002896261030064" fill="#aaff21" stroke="none" /><path d="M 79.48165901384964 104.47187691870673 l -22.20153096753931 4.838720341021053 a43.722702124554154,43.722702124554154 0 0,0 -0.1535339116004259,-0.7347153469096978 l 22.281322589964102 -4.456888542825946" fill="#ebff1a" stroke="none" /><path d="M 79.407916724674 104.11899336999214 l -60.76913410897985 12.155528760656125 a82.97293392930753,82.97293392930753 0 0,0 -0.26738505139161256,-1.3990715750489553 l 60.96884545265362 -11.110554620573856" fill="#4cdcff" stroke="none" /><path d="M 79.34024301695615 103.76489593502545 l -3.3847269668220843 0.616810004542562 a24.44046962225165,24.44046962225165 0 0,0 -0.07167479915532718,-0.413401194691257 l 3.3948165834696455 -0.5586157769307123" fill="#ff0e01" stroke="none" /><path d="M 79.2786578344484 103.40968896794605 l -19.503330479767225 3.209265608558032 a40.76560865618083,40.76560865618083 0 0,0 -0.10769595906286845,-0.6914853130518663 l 19.555547930968363 -2.8739921135747153" fill="#ffee16" stroke="none" /><path d="M 79.22317932658666 103.0534771498775 l -19.82045848999458 2.912924843055454 a41.0333648170967,41.0333648170967 0 0,0 -0.09643912180543525,-0.6977854442893564 l 19.867542128355225 -2.572251090566012" fill="#fff216" stroke="none" /><path d="M 79.17382384314188 102.69636545807758 l -6.165257223504574 0.7982159803323648 a27.21671499935724,27.21671499935724 0 0,0 -0.05601188767321919,-0.4638587805544627 l 6.178051197437455 -0.6922635228545029" fill="#ff3705" stroke="none" /><path d="M 79.13060592940153 102.33845913500099 l -6.483483512821791 0.7264878508641621 a27.52405878717269,27.52405878717269 0 0,0 -0.04858338135402227,-0.47000014330947004 l 6.494999286657479 -0.6150831852717608" fill="#ff3b05" stroke="none" /><path d="M 79.0935383218832 101.97986365728391 l -13.631068288990011 1.2908763391356193 a34.692055522165006,34.692055522165006 0 0,0 -0.05105741701709317,-0.5933645793731718 l 13.651219328704846 -1.0566907123867855" fill="#ff9f0e" stroke="none" /><path d="M 79.06263194458094 101.62068470465958 l -18.005911328275186 1.393771414150559 a39.05977412695441,39.05977412695441 0 0,0 -0.04600876617562339,-0.6689573626573903 l 18.027184055615876 -1.0844706273388254" fill="#ffd914" stroke="none" /><path d="M 79.03789590574601 101.26102812881392 l -16.290572188199903 0.9800003697827676 a37.320022761740454,37.320022761740454 0 0,0 -0.03298096685249676,-0.6398219460023334 l 16.30499474450897 -0.7002066304037035" fill="#ffc212" stroke="none" /><path d="M 79.01933749520258 100.90099992219065 l -10.047722337607407 0.43149242986523756 a31.056983140618556,31.056983140618556 0 0,0 -0.018301899395179292,-0.532839831766791 l 10.053648923999434 -0.25894633353432667" fill="#ff6d0a" stroke="none" /><path d="M 79.00696218219943 100.54070618675478 l -12.392931904891018 0.31919796511409276 a33.39704192701625,33.39704192701625 0 0,0 -0.009841898969883741,-0.5732412742906604 l 12.396585235459566 -0.10640977485438002" fill="#ff8e0d" stroke="none" /><line stroke="#e1ed5e" stroke-width="0.3" x1="15.003131293944662" x2="10.003315487706104" y1="100.72959589197737" y2="100.7725132973878" /><path d="M 14.003168132696942 100.73817937305945 a86.0,86.0 0 0,1 10.791469493833604,-42.45332614584628" fill="none" id="id106" stroke="none" /><text fill="#e1ed5e" style="font-size:6.75px; font-family:Arial;" text-anchor="middle"><textPath startOffset="22.145653131862435" xlink:href="#id106">October</textPath></text><path d="M 79.00077361379809 100.18025310272382 l -10.553778256778193 0.09059149328917479 a31.55416705912411,31.55416705912411 0 0,0 0.0,-0.5416891920259808 l 10.553778256778193 0.0905914932891709" fill="#ff740a" stroke="none" /><path d="M 79.00077361379809 99.81974689727619 l -7.821956085676919 -0.06714208551697476 a28.8222442473951,28.8222442473951 0 0,0 0.008493734762140912,-0.49471746798413346 l 7.8196509193161114 0.2014064694701606" fill="#ff4e07" stroke="none" /><path d="M 79.00696218219943 99.45929381324524 l -3.3233019596434965 -0.0855964699167928 a24.324404107600717,24.324404107600717 0 0,0 0.014334386402221672,-0.4173300199132797 l 3.321342886244424 0.14263275439421108" fill="#ff0c01" stroke="none" /><path d="M 79.03789590574601 98.7389718711861 l -7.454408177854229 -0.44843868505124745 a28.467884475292216,28.467884475292216 0 0,0 0.033532509329967,-0.48755532628351667 l 7.445611707359198 0.5763374354890891" fill="#ff4906" stroke="none" /><path d="M 79.06263194458094 98.37931529534042 l -12.686925276083574 -0.982048254092088 a33.72487688483836,33.72487688483836 0 0,0 0.04963398902261789,-0.5768221884228742 l 12.668197664363213 1.1996914898906428" fill="#ff920d" stroke="none" /><path d="M 79.0935383218832 98.0201363427161 l -25.22146006725811 -2.3884984910224953 a46.33430427238751,46.33430427238751 0 0,0 0.08178580025733484,-0.7912034273926513 l 25.17674187451911 2.8211064406980597" fill="#ccff1d" stroke="none" /><path d="M 79.13060592940154 97.66154086499901 l -24.80525006206261 -2.7794800082545383 a45.960487570513195,45.960487570513195 0 0,0 0.09458649463266788,-0.7833118625318327 l 24.75388148117027 3.2048855477098073" fill="#d0ff1d" stroke="none" /><path d="M 79.17382384314186 97.30363454192245 l -7.43600540502158 -0.9627397736946346 a28.49806936853506,28.49806936853506 0 0,0 0.06697790432986998,-0.4846187507252097 l 7.418382984136502 1.0902468326199113" fill="#ff4906" stroke="none" /><path d="M 79.22317932658666 96.9465228501225 l -21.310778744392792 -3.13195059845544 a42.53969371285555,42.53969371285555 0 0,0 0.11238279676592135,-0.7215781732159783 l 21.253874455488603 3.4973169536028683" fill="#f9ff18" stroke="none" /><path d="M 79.2786578344484 96.59031103205396 l -7.6829217298342245 -1.264221846949618 a28.786240632363196,28.786240632363196 0 0,0 0.0844193277645975,-0.48690824898284435 l 7.660087584577393 1.3959231288530551" fill="#ff4d07" stroke="none" /><path d="M 79.34024301695615 96.23510406497455 l -22.428634765976618 -4.087244391495008 a43.7980092153105,43.7980092153105 0 0,0 0.1411416035362009,-0.7385125104661286 l 22.35516687015826 4.471659466994451" fill="#eaff1a" stroke="none" /><path d="M 79.407916724674 95.88100663000787 l -12.218855905380076 -2.444113390093745 a33.4609040562905,33.4609040562905 0 0,0 0.11749922204748056,-0.5622763126943925 l 12.175098972508229 2.6535061540735465" fill="#ff8f0d" stroke="none" /><path d="M 79.48165901384962 95.52812308129327 l -10.4912060963687 -2.2865095391198422 a31.737482536841203,31.737482536841203 0 0,0 0.12058601847349122,-0.5313242470077939 l 10.450409216337546 2.466268120066644" fill="#ff770a" stroke="none" /><path d="M 79.56144815229197 95.17655741523228 l -3.6275317029795335 -0.8560876046464396 a24.727180199956916,24.727180199956916 0 0,0 0.10104288072550091,-0.4122894343276378 l 3.6123012957377347 0.9182328635821951" fill="#ff1202" stroke="none" /><path d="M 79.73907114497095 94.47779374421319 l -17.598051296043597 -4.796427135794797 a39.23998691576204,39.23998691576204 0 0,0 0.18271167102842298,-0.6483792631389937 l 17.51312113294059 5.097814322836804" fill="#ffdb14" stroke="none" /><path d="M 79.83685265289637 94.1308016681162 l -12.205149971766316 -3.5527412770195563 a33.71171335480571,33.71171335480571 0 0,0 0.1665096651496777,-0.5542565209496586 l 12.142363986613008 3.7617354015599385" fill="#ff920d" stroke="none" /><path d="M 79.94057633289273 93.78553927170692 l -5.10640410306741 -1.5819770442030494 a26.34584083491167,26.34584083491167 0 0,0 0.13754446419155641,-0.43085607505459556 l 5.078494923098597 1.6694021529490366" fill="#ff2a04" stroke="none" /><path d="M 80.05021161711548 93.44210830539832 l -19.002030795271004 -6.246344950695432 a41.00234985164258,41.00234985164258 0 0,0 0.22554138845975694,-0.6667730389028832 l 18.892003985238883 6.571619664072477" fill="#fff116" stroke="none" /><path d="M 80.16572619554312 93.10060997987247 l -24.613252806559295 -8.561766992361076 a47.059855482160344,47.059855482160344 0 0,0 0.27196076471769454,-0.7607226616170997 l 24.462651871797657 8.983024610359097" fill="#c3ff1e" stroke="none" /><path d="M 80.28708602549916 92.7611449362534 l -18.779257517683234 -6.89600348031372 a41.00538369829385,41.00538369829385 0 0,0 0.24831555261136684,-0.6586865049640208 l 18.658111281257433 7.217358265471886" fill="#fff116" stroke="none" /><path d="M 80.41425534168474 92.42381321644754 l -7.413600565133445 -2.8677399608727665 a28.948924821794044,28.948924821794044 0 0,0 0.18326230591024514,-0.46194072669255465 l 7.363279584257069 2.9945817047789043" fill="#ff5007" stroke="none" /><path d="M 80.5471966667186 92.08871423366112 l -11.387844870310778 -4.631337370158234 a33.29358762227234,33.29358762227234 0 0,0 0.2198552450413985,-0.5275725526076651 l 11.306663780732901 4.826142432207163" fill="#ff8c0c" stroke="none" /><path d="M 80.68587082218212 91.75594674310238 l -14.420561876598745 -6.15528036550592 a36.679288287891,36.679288287891 0 0,0 0.25215459335728446,-0.5769790559579143 l 14.312773401224483 6.401921491239701" fill="#ffba11" stroke="none" /><path d="M 80.83023694016515 91.42560881287825 l -7.09309282248008 -3.172650198996963 a28.770307270212285,28.770307270212285 0 0,0 0.20552347816312547,-0.44910589086880615 l 7.037584879461908 3.2939450720804406" fill="#ff4d07" stroke="none" /><path d="M 80.9802524753101 91.09779779509293 l -8.921474254537815 -4.175700422766946 a30.85033892285322,30.85033892285322 0 0,0 0.22861679216013542,-0.4777211678460329 l 8.848478204417773 4.328234092678066" fill="#ff6b09" stroke="none" /><path d="M 81.1358732173502 90.77261029715801 l -5.9901031583764315 -2.9300596226590794 a27.66832701960007,27.66832701960007 0 0,0 0.21236111191928517,-0.4248644789078208 l 5.938922133245402 3.0324559577306704" fill="#ff3d05" stroke="none" /><path d="M 81.29705330413844 90.45014215332179 l -3.644722236073236 -1.8610211434131019 a25.0923587177027,25.0923587177027 0 0,0 0.19917589183939827,-0.38194603492778845 l 3.612238275258898 1.9233134214453769" fill="#ff1802" stroke="none" /><path d="M 81.46374523516351 90.13048839642627 l -11.420376520661266 -6.080707241986461 a33.93831520857402,33.93831520857402 0 0,0 0.27822089473219475,-0.5118951096347918 l 11.31431027631372 6.275857185095873" fill="#ff950d" stroke="none" /><path d="M 81.63589988554816 89.8137432299009 l -34.83617604237783 -19.323039617758454 a60.836403217722875,60.836403217722875 0 0,0 0.5144054954082957,-0.9089052210038839 l 34.499337181948164 19.91820160886144" fill="#30ff31" stroke="none" /><line stroke="#e1ed5e" stroke-width="0.3" x1="26.387840678322718" x2="22.05771365940052" y1="57.49999999999999" y2="54.99999999999999" /><path d="M 25.521815274538284 56.99999999999999 a86.0,86.0 0 0,1 29.574782752854787,-30.34633250058573" fill="none" id="id107" stroke="none" /><text fill="#e1ed5e" style="font-size:6.75px; font-family:Arial;" text-anchor="middle"><textPath startOffset="21.40746469413373" xlink:href="#id107">November</textPath></text><path d="M 81.81346652052679 89.5 l -2.4539433679960023 -1.4167848640885892 a23.833569728177178,23.833569728177178 0 0,0 0.2076088802256502,-0.35256526625961476 l 2.429260777640573 1.4587012986417769" fill="#ff0500" stroke="none" /><path d="M 81.99639281039701 89.18935116829357 l -17.34584037717346 -10.415678760018068 a41.23275914012403,41.23275914012403 0 0,0 0.36958696114600215,-0.6036925254935543 l 17.164485451572062 10.711908401636165" fill="#fff417" stroke="none" /><path d="M 82.18462484594161 88.88188828441811 l -10.54759325410305 -6.582478287184505 a33.43305046459861,33.43305046459861 0 0,0 0.30803351332755485,-0.4842798459575605 l 10.433042049149607 6.762571807820738" fill="#ff8e0d" stroke="none" /><path d="M 82.37810715431573 88.57770195909679 l -14.404069316841765 -9.336543706148445 a38.16532147270195,38.16532147270195 0 0,0 0.36107222177903847,-0.5467093642212879 l 14.241672656141997 9.582432948708794" fill="#ffcd13" stroke="none" /><path d="M 82.576782715395 88.27688183743585 l -20.733780740370953 -13.950613001356254 a45.990183410759265,45.990183410759265 0 0,0 0.4463462564218503,-0.6512325273389583 l 20.491244747133788 14.304480263765248" fill="#d0ff1d" stroke="none" /><path d="M 82.78059297857968 87.97951657250589 l -4.119451245282202 -2.8756969019134275 a26.023894030921788,26.023894030921788 0 0,0 0.2588570733578828,-0.3641148912372857 l 4.069479073394347 2.9459890198602334" fill="#ff2503" stroke="none" /><path d="M 82.98947788004972 87.6856937992154 l -18.310956248902226 -13.25572022352546 a43.60542495494374,43.60542495494374 0 0,0 0.4441482063358008,-0.6025723430273683 l 18.080706022982607 13.56809887582169" fill="#ecff1a" stroke="none" /><path d="M 83.2033758604659 87.39550010848427 l -13.317622516207287 -9.993792214810988 a37.65037393925458,37.65037393925458 0 0,0 0.39236713754651453,-0.5136211782027077 l 13.144103401306467 10.22093430625458" fill="#ffc612" stroke="none" /><path d="M 83.42222388311158 87.10902102172516 l -9.938395899709342 -7.7281567634641775 a33.58952421738155,33.58952421738155 0 0,0 0.35786210220030856,-0.45214707569754925 l 9.804267366867471 7.897623783076409" fill="#ff900d" stroke="none" /><path d="M 83.64595745247003 86.82634096563983 l -12.132557099812619 -9.773129180954527 a36.5792488833011,36.5792488833011 0 0,0 0.39810969914953626,-0.48562910123082376 l 11.963000581424453 9.979960563883843" fill="#ffb811" stroke="none" /><path d="M 83.8745106332314 86.54754324733833 l -16.364038499733894 -13.651462923675235 a42.31065921029316,42.31065921029316 0 0,0 0.47006222930281766,-0.5537321241640556 l 16.127281706923963 13.930361830288847" fill="#fcff18" stroke="none" /><path d="M 84.10781606972428 86.27271002978789 l -7.7795426703611374 -6.719783671030849 a31.279921047625926,31.279921047625926 0 0,0 0.35448929188493916,-0.40334374146328544 l 7.663042314517606 6.852339690305435" fill="#ff710a" stroke="none" /><path d="M 84.34580500576568 86.00192230759919 l -9.456372394616185 -8.455946506151616 a33.68566159806247,33.68566159806247 0 0,0 0.3891532834453724,-0.42774762812779243 l 9.309821410328947 8.617031709837066" fill="#ff920d" stroke="none" /><path d="M 84.58840730492382 85.73525988315684 l -25.425291014775176 -23.533269785721046 a55.6447717555411,55.6447717555411 0 0,0 0.6548705105932698,-0.6954497884133437 l 25.017564670445633 23.9662610340789" fill="#63ff29" stroke="none" /><path d="M 84.83555147118756 85.47280134310135 l -19.969051314869787 -19.129899441429558 a48.6535000145571,48.6535000145571 0 0,0 0.5829458463748662,-0.5981537931067141 l 19.637718667344117 19.469875926604004" fill="#b0ff20" stroke="none" /><path d="M 85.08716467003674 85.21462403516908 l -2.623834745893535 -2.601408942649279 a24.69483927399472,24.69483927399472 0 0,0 0.30105135167782066,-0.29847827866332827 l 2.578791474085738 2.6460672315412808" fill="#ff1202" stroke="none" /><path d="M 85.60350026404147 84.71141617570332 l -10.32815299106808 -10.96814056542554 a36.065551820953715,36.065551820953715 0 0,0 0.4543748234741997,-0.4205625531854815 l 10.138348396279927 11.143820864743386" fill="#ffb210" stroke="none" /><path d="M 85.86807049272753 84.46653392183569 l -27.510207732204453 -30.238537376763887 a61.88007671415244,61.88007671415244 0 0,0 0.7918733693306765,-0.7080980497889953 l 26.987069336050386 30.706330956436286" fill="#31ff3e" stroke="none" /><path d="M 86.40962598614128 83.9905735841838 l -7.098755035617561 -8.36231558239185 a31.96907675947339,31.96907675947339 0 0,0 0.42142195048429815,-0.351565179485057 l 6.954158750971354 8.482942945788787" fill="#ff7a0b" stroke="none" /><path d="M 86.68645165197937 83.75963576809568 l -8.695822116111533 -10.6074890607579 a34.71627305244223,34.71627305244223 0 0,0 0.4641222340766717,-0.3738640182830504 l 8.512449111679615 10.75520137283435" fill="#ffa00e" stroke="none" /><path d="M 86.96720088162412 83.53348406188908 l -6.329647122088204 -7.997302365500738 a31.199082204561506,31.199082204561506 0 0,0 0.42280707294884345,-0.3287773372507392 l 6.191430104504116 8.104780754372282" fill="#ff6f0a" stroke="none" /><path d="M 87.25179093698888 83.31218511350988 l -1.720438930086134 -2.2521097863143402 a23.83406220852132,23.83406220852132 0 0,0 0.3272609809496341,-0.2455827411871504 l 1.6815249602257476 2.2813115547654914" fill="#ff0500" stroke="none" /><path d="M 87.54013794807813 83.09580414077388 l -2.9723674708994885 -4.0325873339767355 a26.009663560381178,26.009663560381178 0 0,0 0.3616816987340732,-0.2618296577862051 l 2.9027047617914477 4.08301776313602" fill="#ff2503" stroke="none" /><path d="M 87.83215693770416 82.88440491214696 l -10.474091717878656 -14.733121707638228 a39.076821417677806,39.076821417677806 0 0,0 0.5500619158281761,-0.38398593720928925 l 10.219634710876715 14.910752460652644" fill="#ffd914" stroke="none" /><path d="M 88.12776184653039 82.6780497279521 l -4.479313854705535 -6.53545277993173 a28.923155662214036,28.923155662214036 0 0,0 0.41195348659603803,-0.2771806906817873 l 4.366464080012507 6.6113831446706275" fill="#ff4f07" stroke="none" /><path d="M 88.4268655584334 82.4767994020092 l -21.5533736165886 -32.63455474002074 a60.10961617474234,60.10961617474234 0 0,0 0.8659058348750012,-0.5612697005884743 l 20.989982149456576 32.999738282313125" fill="#35ff2f" stroke="none" /><path d="M 88.72937992617638 82.28071324371311 l -13.898594634795613 -21.850899261107323 a46.89657759900775,46.89657759900775 0 0,0 0.6829836031797162,-0.4262322816330327 l 13.521446902826199 22.08626733958189" fill="#c5ff1e" stroke="none" /><line stroke="#e1ed5e" stroke-width="0.3" x1="56.869717070023135" x2="54.33264160355391" y1="26.7553504044142" y2="22.446841604673864" /><path d="M 56.362301976729285 25.89364864446614 a86.0,86.0 0 0,1 42.16139366436587,-11.88097634709845" fill="none" id="id108" stroke="none" /><text fill="#e1ed5e" style="font-size:6.75px; font-family:Arial;" text-anchor="middle"><textPath startOffset="22.145653131862474" xlink:href="#id108">December</textPath></text><path d="M 89.34428304082924 81.90426304109057 l -7.866199357474075 -13.358526224430678 a36.50249383874503,36.50249383874503 0 0,0 0.5426835008731214,-0.31331846531386354 l 7.635723388740554 13.491591587020714" fill="#ffb711" stroke="none" /><path d="M 89.65649057296885 81.72400993836675 l -2.9591238289676345 -5.228488268016904 a27.00778689734868,27.00778689734868 0 0,0 0.4054457992586016,-0.22489395025439246 l 2.8689338415529306 5.278515133704443" fill="#ff3404" stroke="none" /><path d="M 89.97174638481275 81.54914285379989 l -7.386982454243095 -13.591215702633683 a36.468957755932095,36.468957755932095 0 0,0 0.552610963549762,-0.29423421215393947 l 7.152582674906771 13.716020382510198" fill="#ffb711" stroke="none" /><path d="M 90.28995756902619 81.37971332152246 l -4.630675261862742 -8.87993039204164 a31.014804898166133,31.014804898166133 0 0,0 0.4741909322221617,-0.24212526873679902 l 4.477557107926999 8.958113612451273" fill="#ff6d0a" stroke="none" /><path d="M 90.61103034731259 81.2157712731953 l -11.187271991142119 -22.382038038693615 a46.022203767240825,46.022203767240825 0 0,0 0.7097056664949652,-0.34715260528716585 l 10.8014060753851 22.570784394077997" fill="#cfff1d" stroke="none" /><path d="M 90.93487009805054 81.0573650232925 l -12.2023771292793 -25.498275072523107 a49.26765004876089,49.26765004876089 0 0,0 0.7660211324737459,-0.35853656867216027 l 11.762867282934033 25.703987872765808" fill="#a9ff21" stroke="none" /><path d="M 91.26138138417902 80.90454125486306 l -2.266785252419019 -4.953334866140699 a26.447370161528355,26.447370161528355 0 0,0 0.41445119285120047,-0.18537874695599257 l 2.1814206567122 4.991517364006537" fill="#ff2c04" stroke="none" /><path d="M 91.5904679813234 80.7573450057729 l -6.539972114082546 -14.964736061848166 a37.331398000592486,37.331398000592486 0 0,0 0.589418198659484,-0.2515875800351467 l 6.282118840252631 15.074798291542717" fill="#ffc212" stroke="none" /><path d="M 91.92203290615298 80.6158196554323 l -7.484704081697549 -17.96056508522523 a40.457715522927955,40.457715522927955 0 0,0 0.6433654099670495,-0.2616511113192113 l 7.175284210540059 18.086403453123733" fill="#ffea16" stroke="none" /><path d="M 92.25597844496254 80.48000691201159 l -1.112147806771013 -2.80333898178136 a24.01588829217538,24.01588829217538 0 0,0 0.38451465641363164,-0.14873852941641197 l 1.063860887863852 2.8220173993358126" fill="#ff0801" stroke="none" /><path d="M 92.93061703081487 80.22567764915836 l -6.681203779166725 -18.68851606947714 a40.84689186794388,40.84689186794388 0 0,0 0.6622919481398449,-0.23037951893051237 l 6.359406058981875 18.800454020976236" fill="#ffef16" stroke="none" /><path d="M 93.27111125876988 80.10723608172694 l -3.9849224040147204 -11.78071501316132 a33.43643247830112,33.43643247830112 0 0,0 0.5452960884759075,-0.17924965523859177 l 3.7821035778910517 11.84738558980194" fill="#ff8e0d" stroke="none" /><path d="M 93.61358852112211 79.99465700312896 l -0.7583797353292304 -2.3756137194284297 a23.49372820629968,23.49372820629968 0 0,0 0.38525168460036274,-0.11935195667578044 l 0.7174874178572515 2.388282263910852" fill="#ff0000" stroke="none" /><path d="M 93.95794788825049 79.88797359093562 l -5.361227046051688 -17.845781191708472 a39.63369694348526,39.63369694348526 0 0,0 0.6532765413946878,-0.19015928024566933 l 5.0540904922753755 17.93518416625666" fill="#ffe015" stroke="none" /><path d="M 94.30408787586887 79.78721728523814 l -5.709627818017258 -20.2614548737174 a42.050567769539214,42.050567769539214 0 0,0 0.6964747415001203,-0.18982728788146105 l 5.3609716755824595 20.356482655743005" fill="#fffe18" stroke="none" /><path d="M 94.6519064749342 79.69241777938228 l -1.5285490203433068 -5.804149602728651 a27.002050876029596,27.002050876029596 0 0,0 0.4492558880068468,-0.11419908992985724 l 1.428687839111082 5.829533924493771" fill="#ff3404" stroke="none" /><path d="M 95.35216902796891 79.52079915486377 l -7.738050871596844 -34.0952799064598 a55.96234464665181,55.96234464665181 0 0,0 0.9386686208887929,-0.2045784570448576 l 7.151619834088932 34.223089821638375" fill="#60ff29" stroke="none" /><path d="M 95.70440661134978 79.44403061299748 l -5.137939282448005 -24.58689942147108 a46.11800237343044,46.11800237343044 0 0,0 0.776327424728496,-0.15528722726326846 l 4.715115372188532 24.671476045397217" fill="#ceff1d" stroke="none" /><path d="M 96.05791012581881 79.37332000966035 l -1.179807147120364 -6.173249532780389 a27.284978496253554,27.284978496253554 0 0,0 0.4608111508775215,-0.08397514211697177 l 1.0736612626918038 6.192592848828722" fill="#ff3805" stroke="none" /><path d="M 96.76829788921471 79.25015418208739 l -0.9275479106877416 -5.955522964590557 a27.027321039100762,27.027321039100762 0 0,0 0.4590460417775457,-0.067463960022673 l 0.8251767633025109 5.970567997912115" fill="#ff3404" stroke="none" /><path d="M 97.12497278360702 79.19773525538626 l -1.3598526059834 -9.839216047077917 a30.93274239729771,30.93274239729771 0 0,0 0.5266257827034695,-0.06818225098644226 l 1.1907490013891366 9.861109894264754" fill="#ff6c09" stroke="none" /><path d="M 97.84075906011542 79.11130261209362 l -1.1562069586529813 -11.185253498567297 a32.24485261612839,32.24485261612839 0 0,0 0.5510805563102049,-0.052187901638870896 l 0.964026838957761 11.203453155711351" fill="#ff7e0b" stroke="none" /><path d="M 98.1996594967304 79.07731436759882 l -0.34316130065660777 -3.9880544829185363 a25.00279130570093,25.00279130570093 0 0,0 0.4279418291635022,-0.0331254040705361 l 0.27465047671788845 3.993357653984126" fill="#ff1602" stroke="none" /><path d="M 99.63950707515114 79.00309439819443 l -0.12645801635114814 -7.3655454764608495 a28.366630966439974,28.366630966439974 0 0,0 0.4869509411999985,-0.00417988817355968 l 1.8043042067100976e-15 7.366630966439974" fill="#ff4706" stroke="none" /></svg>