<?xml version="1.0" encoding="utf-8" ?>
<svg baseProfile="full" height="200mm" version="1.1" viewBox="0,0,200,200" width="200mm" xmlns="http://www.w3.org/2000/svg" xmlns:ev="http://www.w3.org/2001/xml-events" xmlns:xlink="http://www.w3.org/1999/xlink"><defs /><rect fill="#1a1a1a" height="200" width="200" x="0" y="0" /><rect fill="#1a1a1a" height="200" width="180" x="10" y="0" /><text alignment-baseline="middle" fill="#e1ed5e" style="dominant-baseline: central; font-size:9.0px; font-family:Arial;" text-anchor="middle" x="100.0" y="100.0">2019</text><line stroke="#e1ed5e" stroke-width="0.3" x1="100.0" x2="100.0" y1="15.0" y2="10.0" /><path d="M 100.0 14.0 a86.0,86.0 0 0,1 42.46469731375804,11.215312516191453" fill="none" id="id13" stroke="none" /><text fill="#e1ed5e" style="font-size:6.75px; font-family:Arial;" text-anchor="middle"><textPath startOffset="22.20632615414155" xlink:href="#id13">January</textPath></text><path d="M 100.0 79.0 l 0.0 -19.187104534839634 a40.187104534839634,40.187104534839634 0 0,0 0.6917549432299538,0.005954153191210004 l -0.3302744639574254 19.184261758256984" fill="red" stroke="none" /><path d="M 100.36148047927253 79.00311137660856 l 0.27112617183435356 -15.748584942537034 a36.7509186110956,36.7509186110956 0 0,0 0.6324191961033891,0.016333522016979938 l -0.5421720031326105 15.741584628377694" fill="red" stroke="none" /><path d="M 100.72285384407766 79.0124445844662 l 0.24131276803323692 -7.006347317742557 a28.01050173588554,28.01050173588554 0 0,0 0.48172616625188597,0.020744142056714723 l -0.36187976667445443 7.001155449161647" fill="red" stroke="none" /><path d="M 101.08401301168833 79.027996857942 l 0.41523188085467594 -8.033339282896609 a29.04406349732571,29.04406349732571 0 0,0 0.49905716027367736,0.030104490773696764 l -0.5534510899679652 8.025001522742608" fill="red" stroke="none" /><path d="M 101.44485096284872 79.0497635885617 l 0.3719888471482562 -5.393811881336819 a26.406623929371538,26.406623929371538 0 0,0 0.4532003014268889,0.03517706575771369 l -0.46477933793748627 5.386609553390641" fill="red" stroke="none" /><path d="M 101.80526077348638 79.07773832637324 l 4.2385850668361815 -49.123532287809184 a70.30605467688768,70.30605467688768 0 0,0 1.2048277376967285,0.11441291123184498 l -5.0835379316231535 49.04329383206216" fill="red" stroke="none" /><path d="M 102.16513564639614 79.11191278185805 l 1.1125918473726946 -10.733699565104546 a31.79120785513678,31.79120785513678 0 0,0 0.5438314474861096,0.06110579967097817 l -1.2971899983685293 10.712957811962967" fill="red" stroke="none" /><path d="M 102.52436894288641 79.15227682838746 l 2.298718857938916 -18.98417207782624 a40.12283707686601,40.12283707686601 0 0,0 0.6849260067874177,0.08892305318902342 l -2.6251595932341796 18.94179070147308" fill="red" stroke="none" /><path d="M 102.88285421437855 79.19881850522331 l 1.2285427145857049 -8.864527332920177 a29.94925483141756,29.94925483141756 0 0,0 0.5100372638458033,0.0751662345183074 l -1.3809489588601638 8.8420666142409" fill="red" stroke="none" /><path d="M 103.2404852339499 79.25152402106235 l 4.598835301246703 -29.44584433816396 a50.80280246747569,50.80280246747569 0 0,0 0.8628512326878317,0.14237784658814293 l -5.10501574007341 29.36232022863619" fill="red" stroke="none" /><path d="M 103.59715602781102 79.31037775812273 l 8.121240094045037 -46.710620385190204 a68.41135515290057,68.41135515290057 0 0,0 1.1584481744920783,0.21169899927404365 l -8.924083389640018 46.563905904565424" fill="red" stroke="none" /><path d="M 103.95276090670814 79.375362276772 l 7.468583743746821 -38.96942862366308 a60.67866064261911,60.67866064261911 0 0,0 1.0241216933471105,0.20542917724875326 l -8.138271846561057 38.83509549033712" fill="red" stroke="none" /><path d="M 104.307194497241 79.44645832069477 l 7.708296466873988 -36.78329195717089 a58.582288403285055,58.582288403285055 0 0,0 0.9851791135884057,0.21532199597087728 l -8.340318304615922 36.645156463104136" fill="red" stroke="none" /><path d="M 104.66035177308747 79.52364482259891 l 5.962908664160286 -26.19944623125695 a47.86944849753418,47.86944849753418 0 0,0 0.8018732428380925,0.18977748909437495 l -6.413005593960902 26.092922830021706" fill="red" stroke="none" /><path d="M 105.01212808612495 79.60689891045804 l 5.755382797073496 -23.41721942714226 a45.114116132252875,45.114116132252875 0 0,0 0.7525273274266523,0.19183597148094883 l -6.157619013185173 23.314680459492443" fill="red" stroke="none" /><path d="M 105.36241919743992 79.69619591428918 l 11.633169588699243 -44.0468354912577 a66.55715477807362,66.55715477807362 0 0,0 1.1051723980180215,0.30208536450752266 l -12.389639875940974 43.840063585923886" fill="red" stroke="none" /><path d="M 105.71112130821622 79.79150937346287 l 16.06518524190548 -56.845779988523816 a80.07226827675058,80.07226827675058 0 0,0 1.3231362086241214,0.38625974208117714 l -17.041311668253027 56.56082191752394" fill="red" stroke="none" /><path d="M 106.0581310904928 79.89281104454417 l 5.615527506316876 -18.638169258382355 a40.4657520398856,40.4657520398856 0 0,0 0.665208071829981,0.2066833859845475 l -5.935520950857574 18.538745737515285" fill="red" stroke="none" /><path d="M 106.40334571778207 80.00007090966166 l 10.654719707860787 -33.27848409666307 a55.94253218965297,55.94253218965297 0 0,0 0.9145729651411606,0.3015203273359341 l -11.225975495244365 33.0901500450679" fill="red" stroke="none" /><path d="M 106.74666289553966 80.11325718540242 l 7.539623961996686 -22.224107677016523 a44.46821023273695,44.46821023273695 0 0,0 0.7227523999776573,0.2521541207368204 l -7.921058366037616 22.091032703107494" fill="red" stroke="none" /><path d="M 107.08798089147638 80.2323363322302 l 21.26394267442914 -59.302991003309366 a84.0,84.0 0 0,0 1.3568706969096942,0.49974692877470117 l -22.28159569711141 58.92818080672834" fill="red" stroke="none" /><path d="M 107.4271985657038 80.35727306442388 l 13.123839942767892 -34.70864580521263 a58.106943669279666,58.106943669279666 0 0,0 0.9325246784268223,0.3618050875894913 l -13.719347786194382 34.47759801373259" fill="red" stroke="none" /><path d="M 107.76421540070413 80.48803036053334 l 6.690545087950546 -16.813767507755475 a39.09602639749271,39.09602639749271 0 0,0 0.6231462223923341,0.25419699038366883 l -6.978975179931267 16.696109631188225" fill="red" stroke="none" /><path d="M 108.09893153111575 80.62456947434976 l 3.7374564851436043 -8.9412817224502 a30.69098033320489,30.69098033320489 0 0,0 0.4856719644791423,0.2079393890044331 l -3.8908122074130618 8.875622805482974" fill="red" stroke="none" /><path d="M 108.43124777332544 80.76684994638697 l 11.146244254339274 -25.426531640568207 a48.762335496967964,48.762335496967964 0 0,0 0.7658423901058141,0.343611156670635 l -11.58226876291187 25.23090015338104" fill="red" stroke="none" /><path d="M 108.76106565485865 80.91482961587045 l 11.757811462845552 -25.613303672531305 a49.183105851150046,49.183105851150046 0 0,0 0.7663706604978346,0.35982130101238147 l -12.196960334642986 25.40711738887892" fill="red" stroke="none" /><path d="M 109.08828744355905 81.06846463323043 l 16.004017719385963 -33.33748292476016 a57.97994525308407,57.97994525308407 0 0,0 0.8960075319899,0.43966700462945624 l -16.575496518386295 33.05706075999587" fill="red" stroke="none" /><path d="M 109.41281617654863 81.2277094730956 l 3.861098126106621 -7.700315656513365 a29.614112835885592,29.614112835885592 0 0,0 0.45371572496711454,0.23241081674252226 l -3.993074338662491 7.632712314458343" fill="red" stroke="none" /><path d="M 109.73455568895987 81.39251694778311 l 12.660576942711902 -24.200536564804583 a48.31219834701652,48.31219834701652 0 0,0 0.7335516074310932,0.3918378641887478 l -13.075273596671307 23.97901997411408" fill="red" stroke="none" /><path d="M 110.05341064243156 81.56283822128135 l 5.636748312221765 -10.337351594862948 a32.77428424708485,32.77428424708485 0 0,0 0.49298128055047513,0.2743435488868318 l -5.813853681844275 10.238792648415936" fill="red" stroke="none" /><path d="M 110.36928655335952 81.73862282372117 l 4.15158003038415 -7.311358252298412 a29.40782827144659,29.40782827144659 0 0,0 0.4380411797336662,0.25374172490349944 l -4.276817942583144 7.238812370004863" fill="red" stroke="none" /><line stroke="#e1ed5e" stroke-width="0.3" x1="143.23703022742887" x2="145.7803849466894" y1="26.81831364943548" y2="22.513508569990506" /><path d="M 143.74570117128098 25.957352633546492 a86.0,86.0 0 0,1 28.547481713284135,27.462654790039103" fill="none" id="id14" stroke="none" /><text fill="#e1ed5e" style="font-size:6.75px; font-family:Arial;" text-anchor="middle"><textPath startOffset="19.985693538727396" xlink:href="#id14">February</textPath></text><path d="M 110.68208982089419 81.91981866633111 l 24.604835191244103 -41.64539798875158 a69.37082889955266,69.37082889955266 0 0,0 1.0228495297727278,0.6162553969465654 l -25.31804678723447 41.2156959823464" fill="red" stroke="none" /><path d="M 110.99172775467656 82.1063720568725 l 9.976246940784176 -16.240508772718307 a40.05989580822114,40.05989580822114 0 0,0 0.5844564206476959,0.36598655699145205 l -10.254322513804134 16.066377874403912" fill="red" stroke="none" /><path d="M 111.2981086023043 82.29822771554956 l 26.17725444892218 -41.014280672822416 a69.65613907404358,69.65613907404358 0 0,0 1.0051479521900593,0.6537761881136918 l -26.87936942689652 40.55760556054919" fill="red" stroke="none" /><path d="M 111.60114157652 82.49532879139004 l 11.012826918557016 -16.616977994375677 a40.93505240534019,40.93505240534019 0 0,0 0.5839975968981961,0.39431778433476145 l -11.297229209861753 16.424948297742247" fill="red" stroke="none" /><path d="M 112.19680574252982 82.90503203632743 l 24.996636298418867 -35.03513179938643 a64.03826537438295,64.03826537438295 0 0,0 0.8918233638722519,0.6479476013219868 l -25.596004978644906 34.59966496324777" fill="red" stroke="none" /><path d="M 112.48926042617603 83.11751280151076 l 26.0548313735785 -35.219888297093895 a64.80975655679202,64.80975655679202 0 0,0 0.8911460228455503,0.6711927090127096 l -26.657223550182433 34.766178998575334" fill="red" stroke="none" /><path d="M 112.77801427241765 83.33499621200491 l 7.684721175179269 -10.022363785466181 a33.62943844311665,33.62943844311665 0 0,0 0.4563473878361037,0.3561863746684017 l -7.856101118174802 9.888599021574557" fill="red" stroke="none" /><path d="M 113.06298171725822 83.55741782278167 l 7.034884571883326 -8.854920735869726 a32.3092538294203,32.3092538294203 0 0,0 0.4324772117317736,0.349699828446324 l -7.186265182179591 8.732514810159273" fill="red" stroke="none" /><path d="M 113.34407831869373 83.78471172551755 l 12.357402607323115 -15.016312166039562 a40.44723708569996,40.44723708569996 0 0,0 0.5337927099585438,0.44703604353374987 l -12.614052854240775 14.801374965111993" fill="red" stroke="none" /><path d="M 113.6212207817346 84.01681056812373 l 9.478014912773105 -11.121536770928783 a35.61236965156132,35.61236965156132 0 0,0 0.4631409046059605,0.4016312286080298 l -9.66804961602583 10.956740548901083" fill="red" stroke="none" /><path d="M 113.89432698308785 84.25364557470407 l 32.556663407895776 -36.89626432066738 a70.20640865858402,70.20640865858402 0 0,0 0.8992739299764214,0.8073770134188486 l -33.186948325468194 36.330388298479235" fill="red" stroke="none" /><path d="M 114.16331599549186 84.49514656593476 l 17.515551296191752 -19.174609657141477 a46.97037143964768,46.97037143964768 0 0,0 0.5922563834498284,0.5504377619841895 l -17.843015563436428 18.87026730908265" fill="red" stroke="none" /><path d="M 114.42810811169701 84.74124197986012 l 36.70311177744733 -38.81617027420122 a74.42109591634727,74.42109591634727 0 0,0 0.9232353578540904,0.8881516827772196 l -37.36583037891384 38.1786355046617" fill="red" stroke="none" /><path d="M 114.68862486808459 84.99185889309783 l 35.95718077206088 -36.73934406249497 a72.40718093045999,72.40718093045999 0 0,0 0.8832441697710088,0.8794512386119392 l -36.58426074199921 36.114956973232914" fill="red" stroke="none" /><path d="M 114.94478906791727 85.2469230424477 l 6.406674024539524 -6.324489057452793 a30.002479319306964,30.002479319306964 0 0,0 0.35965220105609436,0.37065320750930764 l -6.514590489298727 6.213271654393372" fill="red" stroke="none" /><path d="M 115.19652480421416 85.50635884689758 l 27.193309519044945 -25.935539540262845 a58.57829551540514,58.57829551540514 0 0,0 0.6896413749847254,0.7356613349794011 l -27.635718216000132 25.463608788405388" fill="red" stroke="none" /><path d="M 115.4437574822437 85.77008943001954 l 9.370344654304573 -8.633855238529481 a33.74153896593097,33.74153896593097 0 0,0 0.3898856669278563,0.43052149138843365 l -9.517573961848464 8.4712809598715" fill="red" stroke="none" /><path d="M 115.68641384162765 86.03803664274999 l 8.664339927411751 -7.711845282333114 a32.59928204831596,32.59928204831596 0 0,0 0.3694711604295138,0.42236940591901323 l -8.795802951419113 7.561560320211153" fill="red" stroke="none" /><path d="M 115.9244219780498 86.31012108654704 l 7.326473848809914 -6.298410076738654 a30.66163487987714,30.66163487987714 0 0,0 0.3406206662194546,0.40318743151514747 l -7.433805128516486 6.1713636955944" fill="red" stroke="none" /><path d="M 116.15771136456269 86.58626213691792 l 8.247817354317228 -6.84713679042655 a31.719597629435036,31.719597629435036 0 0,0 0.3451417090026416,0.4231029252221957 l -8.364457555396278 6.704149695596254" fill="red" stroke="none" /><path d="M 116.38621287248628 86.86637796730983 l 3.302279032365042 -2.6467912381623795 a25.23208585286392,25.23208585286392 0 0,0 0.26871681138551357,0.3412430618401567 l -3.34734992434452 2.589555782369185" fill="red" stroke="none" /><path d="M 116.60985879189232 87.15038557335679 l 4.204722302376025 -3.252830805702715 a26.316069778570153,26.316069778570153 0 0,0 0.27409321996735136,0.3606745486309299 l -4.260091462567489 3.1799714811907513" fill="red" stroke="none" /><path d="M 116.82858285166822 87.43820079747576 l 26.57323084892839 -19.8357516511541 a54.160121250030166,54.160121250030166 0 0,0 0.5512401343774607,0.7518909237947333 l -26.910733595819476 19.375398283687876" fill="red" stroke="none" /><path d="M 117.04232023915458 87.72973835380427 l 19.126126541849608 -13.770576638242156 a44.56772151576271,44.56772151576271 0 0,0 0.4428914783064115,0.6264385872402723 l -19.3603306399599 13.43931155067009" fill="red" stroke="none" /><path d="M 117.2510076193507 88.02491185347247 l 8.555491671619572 -5.938943925200279 a31.414772810283726,31.414772810283726 0 0,0 0.30453710289280267,0.44687062059043064 l -8.65645324018111 5.790795281339442" fill="red" stroke="none" /><path d="M 117.45458315368197 88.32363383020206 l 2.9318984261674887 -1.9613140740839974 a24.527432675270127,24.527432675270127 0 0,0 0.2317297699431222,0.352940337689066 l -2.965224831468536 1.9105556724172572" fill="red" stroke="none" /><path d="M 117.65298651832404 88.62581576622439 l 20.782797036858167 -13.390785867593415 a45.723223876084205,45.723223876084205 0 0,0 0.42059357445369033,0.6652780290203572 l -21.010218207557813 13.031060190858852" fill="red" stroke="none" /><line stroke="#e1ed5e" stroke-width="0.3" x1="172.23445277983987" x2="176.4835382374775" y1="55.19839476539836" y2="52.563006222186495" /><path d="M 173.08426987136738 54.67131705675599 a86.0,86.0 0 0,1 12.851231095245387,41.99856678651699" fill="none" id="id15" stroke="none" /><text fill="#e1ed5e" style="font-size:6.75px; font-family:Arial;" text-anchor="middle"><textPath startOffset="22.20632615414155" xlink:href="#id15">March</textPath></text><path d="M 117.84615892207809 88.93136811851018 l 20.561409807113343 -12.752698051894908 a45.19510034818746,45.19510034818746 0 0,0 0.40435454049015257,0.664652546698102 l -20.777880145889718 12.396877731989726" fill="red" stroke="none" /><path d="M 118.03404312379186 89.2402003453031 l 24.216640199180215 -14.44857345989707 a49.199413780477656,49.199413780477656 0 0,0 0.4276608098741646,0.7310109523632619 l -24.461760683524705 14.02958309517991" fill="red" stroke="none" /><path d="M 118.21658344932153 89.55222093294921 l 32.28205369163324 -18.514765172028852 a58.21461433260949,58.21461433260949 0 0,0 0.49106067114903723,0.8735421399519783 l -32.59597200407471 17.95633952214208" fill="red" stroke="none" /><path d="M 118.3937258080291 89.86733742301442 l 8.33965635357864 -4.59411675050303 a30.521332722525617,30.521332722525617 0 0,0 0.2495364585483853,0.4623531596701286 l -8.417500911345488 4.4498826075004425" fill="red" stroke="none" /><path d="M 118.56541770881063 90.18545643968196 l 16.788107204516685 -8.874974538053301 a39.9896212853611,39.9896212853611 0 0,0 0.31647132519649707,0.611321869479964 l -16.9383879628733 8.584679946312992" fill="red" stroke="none" /><path d="M 118.73160827565052 90.50648371742162 l 3.5546506886878424 -1.8015609602408567 a24.985117741303625,24.985117741303625 0 0,0 0.1911242376343137,0.3852948005117121 l -3.5851349392755645 1.7401065712301946" fill="red" stroke="none" /><path d="M 119.04729006885535 91.15688171328212 l 7.558084812700549 -3.5090051014156414 a29.33293242728727,29.33293242728727 0 0,0 0.208679625776544,0.45979789386599706 l -7.61736675544044 3.3783851987075812" fill="red" stroke="none" /><path d="M 119.196687751892 91.48605970444005 l 2.711573972893903 -1.202612617894856 a23.96629575720216,23.96629575720216 0 0,0 0.1640085405222807,0.3785543239883062 l -2.731873223258864 1.155759149319947" fill="red" stroke="none" /><path d="M 119.34039704204932 91.81776055985345 l 29.822541032074263 -12.61686463351792 a53.38161865611829,53.38161865611829 0 0,0 0.3507383663550236,0.8493407744463568 l -30.035301085315485 12.10164928861826" fill="red" stroke="none" /><path d="M 119.47837535516314 92.15188598940014 l 28.2432035098129 -11.379587728851893 a51.44952481362138,51.44952481362138 0 0,0 0.32390281123248815,0.824297324818188 l -28.434899870927087 10.89174139913792" fill="red" stroke="none" /><path d="M 119.61058180528143 92.48833698450437 l 9.861170221988742 -3.7772355956349295 a31.559838393269523,31.559838393269523 0 0,0 0.1899532743114051,0.5089803363282728 l -9.924728084801773 3.6069321222773234" fill="red" stroke="none" /><path d="M 119.97218684219823 93.5106431181261 l 4.72146851039269 -1.5340981141700258 a25.964445781608436,25.964445781608436 0 0,0 0.13445195694036424,0.4262494458114177 l -4.74717595110126 1.452598501932189" fill="red" stroke="none" /><path d="M 120.08093135843002 93.85539295169968 l 30.252056151577786 -9.256891233609343 a52.636639150028074,52.636639150028074 0 0,0 0.2576541000229612,0.868681538563183 l -30.40691614871245 8.73478030829963" fill="red" stroke="none" /><path d="M 120.18372546131832 94.20196356495316 l 26.613648706656637 -7.645115128347265 a48.689963575400576,48.689963575400576 0 0,0 0.2244682197495562,0.8075316166788084 l -26.741303696972555 7.185872208249505" fill="red" stroke="none" /><path d="M 120.28053869075195 94.5502522615342 l 7.211724197165838 -1.9379207935864926 a28.467563384277508,28.467563384277508 0 0,0 0.12309329419081227,0.474328675432065 l -7.244013823226952 1.8134956926055772" fill="red" stroke="none" /><path d="M 120.37134235888165 94.90015583598534 l 29.3360013353632 -7.344093117184802 a51.24130747937848,51.24130747937848 0 0,0 0.2068372450476782,0.8574739141588061 l -29.4580713806717 6.83803397136659" fill="red" stroke="none" /><path d="M 120.45610955862082 95.25157060432595 l 23.880970691876772 -5.5434344886341895 a45.51592191038421,45.51592191038421 0 0,0 0.17058850167257988,0.7647148039544124 l -23.97285358055139 5.131541515129813" fill="red" stroke="none" /><path d="M 120.53481517161879 95.60439243477599 l 18.06793297084051 -3.867555767648345 a39.47723435621943,39.47723435621943 0 0,0 0.13651735972749185,0.6657071291847343 l -18.131829626482997 3.555972982300199" fill="red" stroke="none" /><path d="M 120.73433829027371 96.67025291283417 l 4.410626970733263 -0.7083067760721994 a25.467138767039756,25.467138767039756 0 0,0 0.06578296138454483,0.43342752381781063 l -4.422165825557108 0.6322801398623066" fill="red" stroke="none" /><path d="M 120.78858239683441 97.02765380044208 l 10.681279923997469 -1.5272066744359927 a31.789907369446375,31.789907369446375 0 0,0 0.0727898064716076,0.5423686056159996 l -10.705985729526912 1.3431197267553288" fill="red" stroke="none" /><path d="M 120.83666639777658 97.38593545837742 l 24.38485114256162 -3.059202153916377 a45.57599810920027,45.57599810920027 0 0,0 0.09095590439360393,0.7792546430096681 l -24.43389739995881 2.6390037725818565" fill="red" stroke="none" /><path d="M 120.87857604477298 97.74499172005257 l 30.155389180155968 -3.2569583356865466 a51.330764484382286,51.330764484382286 0 0,0 0.08731821182431945,0.8792824767942884 l -30.206984517662516 2.7374003281878236" fill="red" stroke="none" /><path d="M 120.94382443527127 98.46500227214037 l 33.86116636249047 -2.48172503497338 a54.95198884568428,54.95198884568428 0 0,0 0.06102132871491946,0.9439729465404246 l -33.89886828220981 1.8984930241799205" fill="red" stroke="none" /><path d="M 120.96714384426684 98.82574320788733 l 11.234637894538173 -0.629191555729946 a32.25224291575662,32.25224291575662 0 0,0 0.026272357269779556,0.5545679382560358 l -11.24380386004145 0.4357125108509104" fill="red" stroke="none" /><path d="M 120.98425023603335 99.18683210126433 l 7.900715020880331 -0.3061633253403783 a28.90664491569892,28.90664491569892 0 0,0 0.014987827719252571,0.49737303551559003 l -7.904814543055229 0.17012014239978923" fill="red" stroke="none" /><line stroke="#e1ed5e" stroke-width="0.3" x1="184.98032266829074" x2="189.97916517819016" y1="98.17113171792111" y2="98.06355123074" /><path d="M 185.9800911702706 98.14961562048488 a86.0,86.0 0 0,1 -9.607161424134198,41.387399972396054" fill="none" id="id16" stroke="none" /><text fill="#e1ed5e" style="font-size:6.75px; font-family:Arial;" text-anchor="middle"><textPath startOffset="21.466115282336823" xlink:href="#id16">April</textPath></text><path d="M 120.99513854157772 99.54816195383933 l 9.980745871764572 -0.21479642561031487 a30.98305692967843,30.98305692967843 0 0,0 0.006885605055343957,0.5332976997393941 l -9.982964483937632 0.042962467810458045" fill="red" stroke="none" /><path d="M 120.99980553446 99.90962569577887 l 14.76120445929767 -0.0635259969567701 a35.761341153210935,35.761341153210935 0 0,0 -0.002649238826812271,0.6155898035052507 l -14.760110923181355 -0.1905732847521653" fill="red" stroke="none" /><path d="M 120.99824983174949 100.27111621757518 l 21.609493109208245 0.2790082069900511 a42.61129422354169,42.61129422354169 0 0,0 -0.01578228454197196,0.7333407473691342 l -21.601488761981265 -0.6509387701493001" fill="red" stroke="none" /><path d="M 120.9904718944345 100.63252640178507 l 12.003539575116848 0.36171438804796346 a33.008988285027066,33.008988285027066 0 0,0 -0.022002639653809473,0.5677903629333284 l -11.995534802611836 -0.568281997995298" fill="red" stroke="none" /><path d="M 120.9764740272857 100.99374915477107 l 24.81108381051708 1.1754117271369555 a45.83891045478432,45.83891045478432 0 0,0 -0.044122459601475,0.7878361559761679 l -24.787175000028075 -1.6023195994485466" fill="red" stroke="none" /><path d="M 120.95626037817324 101.35467743843564 l 39.51746215730701 2.5545308868415844 a60.59994246720592,60.59994246720592 0 0,0 -0.07625042974889179,1.0403765326751393 l -39.46763516889378 -3.2343805560134937" fill="red" stroke="none" /><path d="M 120.92983693683757 101.71520430193887 l 3.050905022980242 0.2500222737527594 a24.06113256763221,24.06113256763221 0 0,0 -0.03738115066903865,0.412497882711796 l -3.0461492760341278 -0.302501545013126" fill="red" stroke="none" /><path d="M 120.8583938346157 102.4346265915055 l 23.383680560639405 2.729382278980832 a44.54243071959308,44.54243071959308 0 0,0 -0.09544486461231035,0.7607894800000844 l -23.33323418678025 -3.1314895132683116" fill="red" stroke="none" /><path d="M 120.81339534386255 102.79330883721812 l 7.651113990655598 1.0268350728735656 a28.719710847233145,28.719710847233145 0 0,0 -0.06997482190607106,0.48940374143313026 l -7.632305117732925 -1.1583842862871052" fill="red" stroke="none" /><path d="M 120.76222939487914 103.15116336523771 l 32.57328435616458 4.94377257838855 a53.94631604678105,53.94631604678105 0 0,0 -0.14724324735585542,0.9168838418395672 l -32.48335935444744 -5.503735649921322" fill="red" stroke="none" /><path d="M 120.70491114924044 103.5080841355445 l 6.136461574323437 1.0397158114852476 a27.223919152897192,27.223919152897192 0 0,0 -0.08225973922483937,0.4613563027652818 l -6.117655392759409 -1.1451908649837477" fill="red" stroke="none" /><path d="M 120.64145759157962 103.86396538481128 l 20.661181145501534 3.867657523764239 a42.020066152330685,42.020066152330685 0 0,0 -0.13920661040879395,0.7098115073921993 l -20.591544602117075 -4.222732758224383" fill="red" stroke="none" /><path d="M 120.41448212921028 104.9243191809786 l 6.455741298742518 1.5572342469244533 a27.640901611685276,27.640901611685276 0 0,0 -0.11555040115187545,0.4615664137701751 l -6.427979583295581 -1.6681285000920243" fill="red" stroke="none" /><path d="M 120.23288151984713 105.62410040840565 l 3.1039764385975666 0.8628071655969454 a24.22166198356908,24.22166198356908 0 0,0 -0.11511905775315433,0.40074454224028266 l -3.088664743958313 -0.91610918334181" fill="red" stroke="none" /><path d="M 120.13307415673323 105.97154293290107 l 4.714901139081797 1.39845680581249 a25.917923768119845,25.917923768119845 0 0,0 -0.13054392604257387,0.426625103528142 l -4.69013044053309 -1.4794088818926892" fill="red" stroke="none" /><path d="M 119.9155931802556 106.66101706037122 l 10.741133185885248 3.592505166747079 a32.32598938239083,32.32598938239083 0 0,0 -0.18103965477147285,0.5261859795498397 l -10.677702700170544 -3.776863849386219" fill="red" stroke="none" /><path d="M 119.79798401119884 107.00284435728193 l 30.10820825702486 10.64972555697141 a52.93619981912673,52.93619981912673 0 0,0 -0.31125411391626934,0.8564376431748547 l -29.920429882103367 -11.166410997152395" fill="red" stroke="none" /><path d="M 119.67450827220406 107.3425965602758 l 36.607033280446196 13.661875200543147 a60.073286521495874,60.073286521495874 0 0,0 -0.36989617099274785,0.9656821805970073 l -36.366442829859935 -14.289980947973298" fill="red" stroke="none" /><path d="M 119.54520255179757 107.68017299344265 l 18.769164239494717 7.375233278838513 a41.16619924939785,41.16619924939785 0 0,0 -0.26483075712156867,0.6572882205634187 l -18.639430868115756 -7.697220867244745" fill="red" stroke="none" /><path d="M 119.41010516605496 108.01547362559984 l 5.944585908542047 2.45483840285218 a27.431510958410513,27.431510958410513 0 0,0 -0.18398578109069266,0.43488803797726927 l -5.901449146259045 -2.556800966495613" fill="red" stroke="none" /><path d="M 119.12269723197855 108.67885076344098 l 22.586366143143394 10.250839547727123 a45.803702283840224,45.803702283840224 0 0,0 -0.33202314906247,0.7151483249145717 l -22.406568377241094 -10.638107939920525" fill="red" stroke="none" /><path d="M 118.81262510543309 109.33194174019688 l 23.166366062669102 11.491600838123718 a46.859957586437616,46.859957586437616 0 0,0 -0.3646626953587928,0.7195140935017709 l -22.96512469752404 -11.888669143328183" fill="red" stroke="none" /><line stroke="#e1ed5e" stroke-width="0.3" x1="174.80103733775053" x2="179.2010983576182" y1="140.37084112569926" y2="142.7455964860345" /><path d="M 175.68104954172406 140.8457921977663 a86.0,86.0 0 0,1 -30.038265399797805,32.042727171017184" fill="none" id="id17" stroke="none" /><text fill="#e1ed5e" style="font-size:6.75px; font-family:Arial;" text-anchor="middle"><textPath startOffset="22.206326154141568" xlink:href="#id17">May</textPath></text><path d="M 118.48025628344425 109.97397251340804 l 13.603734407178628 7.3420666345659065 a36.45857471720668,36.45857471720668 0 0,0 -0.3028207384978859,0.5497076006030497 l -13.475337259229232 -7.575144753566761" fill="red" stroke="none" /><path d="M 118.12598468904814 110.60418214915192 l 5.219841161340294 3.053745626185893 a27.04748742033184,27.04748742033184 0 0,0 -0.2385577111693847,0.3998364457337979 l -5.166502574472682 -3.143144165805795" fill="red" stroke="none" /><path d="M 117.94076556474637 110.91462005526583 l 23.945754521314008 14.567874018173264 a49.028951336152375,49.028951336152375 0 0,0 -0.4448451861683669,0.7172320818942611 l -23.691444695477678 -14.977902431432799" fill="red" stroke="none" /><path d="M 117.75023020441432 111.22182372390056 l 15.427789988665223 9.753560247297717 a39.25235988665644,39.25235988665644 0 0,0 -0.3659724365133851,0.5679973486506904 l -15.257612688774788 -10.01767919586986" fill="red" stroke="none" /><path d="M 117.55443506779139 111.5257021239791 l 19.08909426453277 12.533312149317936 a43.83588039188457,43.83588039188457 0 0,0 -0.4195655157312316,0.6271935186214668 l -18.870525643390813 -12.86004258214521" fill="red" stroke="none" /><path d="M 117.35343817320211 111.8261652097733 l 2.671732526547021 1.8207544775802684 a24.2331565939555,24.2331565939555 0 0,0 -0.23787623413694686,0.34267845692215854 l -2.6399953852479383 -1.8664741966894465" fill="red" stroke="none" /><path d="M 116.93607887273984 112.41649034213515 l 22.538677926210287 16.523971038286234 a48.94697875505617,48.94697875505617 0 0,0 -0.504011080242647,0.675205206298617 l -22.250905579272548 -16.909489124094165" fill="red" stroke="none" /><path d="M 116.71984013943494 112.70617746262583 l 12.803972240953676 9.730328888514755 a37.081697840271005,37.081697840271005 0 0,0 -0.39058184610702007,0.5048796870560263 l -12.634583577628588 -9.949286569684034" fill="red" stroke="none" /><path d="M 116.498646956653 112.99209946851258 l 21.95972358233326 17.292503672106758 a48.951031162773035,48.951031162773035 0 0,0 -0.5269976824927447,0.657510638507713 l -21.658807987785664 -17.667942144192722" fill="red" stroke="none" /><path d="M 116.27256486870786 113.27417163493432 l 20.61359361167055 16.815319639025557 a47.60216562894276,47.60216562894276 0 0,0 -0.523406212259665,0.6304765003188677 l -20.32109139951734 -17.167657396458196" fill="red" stroke="none" /><path d="M 116.0416608686014 113.55231037782055 l 15.772616838215205 13.325016693272579 a41.64779677837669,41.64779677837669 0 0,0 -0.4673626319380217,0.5436483269723708 l -15.540911696706406 -13.594542119406476" fill="red" stroke="none" /><path d="M 115.80600337817218 113.82643327865902 l 4.2309050614625345 3.701019488673379 a26.621218986541038,26.621218986541038 0 0,0 -0.30467497118994147,0.342305559969093 l -4.166571240624255 -3.7732992183833387" fill="red" stroke="none" /><path d="M 115.56566222782051 114.09645910891815 l 18.952809955249254 17.163902609666003 a46.56968044371878,46.56968044371878 0 0,0 -0.5432100239609664,0.5895471957269265 l -18.654553523292567 -17.487601060194265" fill="red" stroke="none" /><path d="M 115.32070863581623 114.36230785411682 l 13.608981194626843 12.757659070755114 a39.65374584691577,39.65374584691577 0 0,0 -0.4711118953375752,0.4939589387809109 l -13.387362747910302 -12.990025126118532" fill="red" stroke="none" /><path d="M 114.81725581225074 114.88116024355365 l 10.06119590373785 10.104588216768175 a35.259395711033534,35.259395711033534 0 0,0 -0.4337745981498205,0.42453974174033976 l -9.885771353212236 -10.276278061431087" fill="red" stroke="none" /><path d="M 114.29624159901734 115.38237550388516 l 4.914897494592002 5.28829890718377 a28.21957912305612,28.21957912305612 0 0,0 -0.3586580181809123,0.3276255959087302 l -4.823139926944226 -5.372117269679083" fill="red" stroke="none" /><path d="M 114.0293411484842 115.62618273729858 l 14.611516039275708 16.274621686233665 a42.87143598385891,42.87143598385891 0 0,0 -0.5533633602524116,0.48827882696808655 l -14.329210326116709 -16.523723654974038" fill="red" stroke="none" /><path d="M 113.75828350139079 115.86535959552629 l 16.589895877417774 19.130632372923944 a46.32204060125346,46.32204060125346 0 0,0 -0.6068948840383114,0.5172089864807772 l -16.258135516802415 -19.41336574962767" fill="red" stroke="none" /><path d="M 113.48314897796784 116.09983520530334 l 14.18773689304061 16.941163098279688 a43.097395440835534,43.097395440835534 0 0,0 -0.5728462118790018,0.47141343320487183 l -13.894020552616917 -17.18287165034174" fill="red" stroke="none" /><path d="M 113.20401910651253 116.32954008644616 l 26.48543197097185 32.75479379331639 a63.12308895524704,63.12308895524704 0 0,0 -0.8507865412056574,0.6759162832986982 l -25.91768793704884 -33.20584399062021" fill="red" stroke="none" /><path d="M 112.92097659922987 116.55440617244103 l 22.23590355290564 28.488727318642802 a57.139216801836014,57.139216801836014 0 0,0 -0.7805523703251726,0.5984942731047793 l -21.742222454086974 -28.867260933574954" fill="red" stroke="none" /><path d="M 112.63410532772338 116.77436683061366 l 5.1957889314286865 6.898475772477371 a29.63627179999646,29.63627179999646 0 0,0 -0.4101307621828305,0.30340493302111315 l -5.076273198827292 -6.986890654238253" fill="red" stroke="none" /><path d="M 112.04921762599082 117.19931262002967 l 2.8632448588453223 4.087057347918378 a25.990211306836393,25.990211306836393 0 0,0 -0.3686193097589388,0.25353972250251944 l -2.7924686644635 -4.135737859785992" fill="red" stroke="none" /><path d="M 111.45004920935366 117.60387380957326 l 13.67599947688215 21.026160203237517 a46.08251132928858,46.08251132928858 0 0,0 -0.6686752290196537,0.426780168433809 l -13.312042445815568 -21.258454800495134" fill="red" stroke="none" /><path d="M 111.1453310114006 117.79835938074945 l 10.774164200583897 17.205630436013323 a41.30064858377219,41.30064858377219 0 0,0 -0.6057837533375271,0.3721218590246623 l -10.476401247314062 -17.388540761866366" fill="red" stroke="none" /><line stroke="#e1ed5e" stroke-width="0.3" x1="143.8653032363475" x2="146.44561519142675" y1="172.8068346515853" y2="177.08958963109032" /><path d="M 144.38136562736335 173.6633856474863 a86.0,86.0 0 0,1 -40.68145358897372,12.25698825130547" fill="none" id="id18" stroke="none" /><text fill="#e1ed5e" style="font-size:6.75px; font-family:Arial;" text-anchor="middle"><textPath startOffset="21.466115282336833" xlink:href="#id18">June</textPath></text><path d="M 110.8373102113329 117.98757091392108 l 13.850552064755991 22.9888950859064 a47.83890999592435,47.83890999592435 0 0,0 -0.7090002764625308,0.4188898604743517 l -13.452783917265078 -23.2239035186745" fill="red" stroke="none" /><path d="M 110.5260780823613 118.17145234162733 l 9.54893616349003 16.48458590658448 a40.05055784920671,40.05055784920671 0 0,0 -0.5995210593043799,0.34042370401154726 l -9.263766337264451 -16.646512776390658" fill="red" stroke="none" /><path d="M 109.89434966115114 118.52300852407294 l 5.147274726988536 9.636107163071626 a31.924696717680323,31.924696717680323 0 0,0 -0.486941466321692,0.2547447609045421 l -4.980642358140349 -9.723281342920885" fill="red" stroke="none" /><path d="M 109.57404056367764 118.69057910512821 l 8.607050843197964 16.80280792385294 a39.87897450454579,39.87897450454579 0 0,0 -0.6136540369887045,0.30769887339497376 l -8.3165428985265 -16.948474638157215" fill="red" stroke="none" /><path d="M 109.2508944713604 118.85261126421891 l 7.731506833922097 15.756216145134612 a38.55091294306894,38.55091294306894 0 0,0 -0.5982501983415254,0.287196450808614 l -7.459143967580339 -15.886966872442787" fill="red" stroke="none" /><path d="M 108.92500713936063 119.00905698771935 l 15.741135392773957 33.5264874369705 a58.0379360023609,58.0379360023609 0 0,0 -0.90796759220847,0.41680338858474036 l -15.161699804798067 -33.79247789588931" fill="red" stroke="none" /><path d="M 108.59647513512805 119.15986991738527 l 6.85344804772875 15.275001790380328 a37.74202585827173,37.74202585827173 0 0,0 -0.5950287837241055,0.260843132500596 l -6.58949858934689 -15.39070947617538" fill="red" stroke="none" /><path d="M 108.2653958097858 119.30500536409082 l 7.557022620015028 17.650499210603016 a40.200226906547655,40.200226906547655 0 0,0 -0.638472524191035,0.2668815668935075 l -7.252078636326532 -17.7779658205165" fill="red" stroke="none" /><path d="M 107.93186726928326 119.44442032107085 l 10.462954928761985 25.649205480672606 a48.70117628605454,48.70117628605454 0 0,0 -0.7789380326883514,0.30995551865559595 l -10.019895820031767 -25.82550784373427" fill="red" stroke="none" /><path d="M 107.59598834532513 119.57807347666477 l 9.625887549641153 24.80998194803322 a47.61189424637169,47.61189424637169 0 0,0 -0.7666190138433715,0.28986971405412637 l -9.197398315037507 -24.971999912193976" fill="red" stroke="none" /><path d="M 107.2578585660854 119.70592522655815 l 1.925402104476086 5.22768934616037 a26.57098816763055,26.57098816763055 0 0,0 -0.43055178705635433,0.15438055253955846 l -1.835130756789997 -5.26005743973989" fill="red" stroke="none" /><path d="M 106.91757812671514 119.82793768551818 l 1.140183745293754 3.26812243210047 a24.461306574724404,24.461306574724404 0 0,0 -0.39875455297284623,0.13527919438846653 l -1.0837594593836808 -3.2872646133870598" fill="red" stroke="none" /><path d="M 106.57524785965236 119.94407469862006 l 12.44192732743499 37.73891620661812 a60.73697713806773,60.73697713806773 0 0,0 -0.9957354663017268,0.3188030520201756 l -11.790470516042324 -37.947492105298" fill="red" stroke="none" /><path d="M 106.2309692047433 120.05430185196036 l 1.0911918383861043 3.51198822949278 a24.677602609344337,24.677602609344337 0 0,0 -0.40673980161489354,0.12254736568909798 l -1.030577062330965 -3.530250964287603" fill="red" stroke="none" /><path d="M 105.88484417918355 120.15858648285463 l 9.731378579116654 33.33492454709962 a55.72631456994703,55.72631456994703 0 0,0 -0.9231165692991792,0.26088196324613144 l -9.15613084171287 -33.49749530368427" fill="red" stroke="none" /><path d="M 105.53697534728816 120.25689768951611 l 2.0848311238303916 7.627306990997385 a28.907106471384427,28.907106471384427 0 0,0 -0.4811099991625937,0.12706552351957773 l -1.9532306818563006 -7.662063863820547" fill="red" stroke="none" /><path d="M 105.18746579009965 120.34920634021253 l 6.095707052302997 23.912022867416233 a45.67675995910592,45.67675995910592 0 0,0 -0.7635560260579501,0.18766349397922666 l -5.683197741501835 -24.01340761970949" fill="red" stroke="none" /><path d="M 104.83641907484287 120.43548508189849 l 7.848417803673953 33.162185174926464 a55.07826561897097,55.07826561897097 0 0,0 -0.9244751827178642,0.2104075417537987 l -7.276422471563226 -33.292369450257944" fill="red" stroke="none" /><path d="M 104.48393922423573 120.51570834832081 l 1.6504192408677163 7.5512887451926485 a28.72954367242333,28.72954367242333 0 0,0 -0.4840360885971885,0.10143446856027771 l -1.5201916908411497 -7.578579194479467" fill="red" stroke="none" /><path d="M 104.13013068566511 120.58985236759428 l 5.347645819163079 26.6595045800637 a48.19055902811948,48.19055902811948 0 0,0 -0.8147242441369689,0.15614384044889393 l -4.887953960454405 -26.747605618861062" fill="red" stroke="none" /><path d="M 103.41894727170886 120.7198165907248 l 3.100498100110735 18.789921829381058 a40.04400826567351,40.04400826567351 0 0,0 -0.6810611252315563,0.10636774103170267 l -2.7766011112706614 -18.840507877759865" fill="red" stroke="none" /><path d="M 103.06178313531738 120.77559828337769 l 3.306940293348022 22.439101675498655 a43.68147125093818,43.68147125093818 0 0,0 -0.7448136166597809,0.1032243805119141 l -2.9201980855014105 -22.49270062150317" fill="red" stroke="none" /><path d="M 102.70371172650421 120.8252237178851 l 0.9334200226170909 7.189627726654026 a28.249966881751586,28.249966881751586 0 0,0 -0.4827684958841597,0.05845654163680295 l -0.8095241036815509 -7.204629797016179" fill="red" stroke="none" /><path d="M 102.34483914955558 120.86867818915974 l 0.7881788284362166 7.014660399738611 a28.058802050578848,28.058802050578848 0 0,0 -0.4804300283659061,0.04979853679999689 l -0.6673162034647078 -7.027188304994366" fill="red" stroke="none" /><path d="M 101.98527174616119 120.90594882070398 l 0.2792899428493168 2.9410690312977854 a23.954300241856888,23.954300241856888 0 0,0 -0.41082273079190096,0.03544751386462365 l -0.22862289431587413 -2.945440797441073" fill="red" stroke="none" /><path d="M 101.62511606390274 120.93702456842531 l 0.3619950108828451 4.663727474516643 a25.67775526769683,25.67775526769683 0 0,0 -0.44096927472078395,0.03041182298158569 l -0.2816629753831308 -4.669267642014514" fill="red" stroke="none" /><path d="M 101.26447882468166 120.96189622390904 l 2.6737121966049995 44.32346078388751 a65.4040303662977,65.4040303662977 0 0,0 -1.124363587432408,0.058116754531710973 l -1.9103605407591118 -44.36291734518143" fill="red" stroke="none" /><path d="M 100.90346689309514 120.98055641714683 l 0.6893516373085966 16.008313119540595 a37.023148710946785,37.023148710946785 0 0,0 -0.6369385783899002,0.021937452491000806 l -0.41369270724404406 -16.017807370457692" fill="red" stroke="none" /><line stroke="#e1ed5e" stroke-width="0.3" x1="102.19456741930631" x2="102.32365962044197" y1="184.97166512339345" y2="189.96999836594603" /><path d="M 102.22038585953345 185.97133177190398 a86.0,86.0 0 0,1 -42.740103519485714,-10.115201625700543" fill="none" id="id19" stroke="none" /><text fill="#e1ed5e" style="font-size:6.75px; font-family:Arial;" text-anchor="middle"><textPath startOffset="22.20632615414155" xlink:href="#id19">July</textPath></text><path d="M 100.54218724476979 120.99299961872073 l 0.5362443410804577 20.7628957642169 a41.76981941445512,41.76981941445512 0 0,0 -0.7189188801089484,0.012376840492944997 l -0.17876577107884134 -20.769050081989004" fill="red" stroke="none" /><path d="M 100.18074693466247 120.99922214144158 l 0.1856749559911507 21.57176083921886 a42.57255990590219,42.57255990590219 0 0,0 -0.7328437813071974,0.0 l 0.18567495599113581 -21.57176083921886" fill="red" stroke="none" /><path d="M 99.81925306533755 120.99922214144158 l -0.1917513040590505 22.277712412478756 a43.278537629200855,43.278537629200855 0 0,0 -0.7448860981757236,-0.012823889701068854 l 0.5751970921274421 -22.27111104549853" fill="red" stroke="none" /><path d="M 99.45781275523022 120.99299961872073 l -0.5636162350243296 21.822710735282215 a42.82998779422894,42.82998779422894 0 0,0 -0.7368382346703982,-0.02537819864435874 l 0.9391748213693709 -21.809775738211762" fill="red" stroke="none" /><path d="M 99.09653310690486 120.98055641714683 l -1.2266965974977064 28.486685419487245 a49.51308525451323,49.51308525451323 0 0,0 -0.8511816450733057,-0.04399636850708519 l 1.716866310984501 -28.46134924421796" fill="red" stroke="none" /><path d="M 98.73552117531835 120.96189622390904 l -2.498221445554681 41.4142630654535 a62.48954441357021,62.48954441357021 0 0,0 -1.0731455608329712,-0.07401040095183883 l 3.2107297671665824 -41.36512431998537" fill="red" stroke="none" /><path d="M 98.37488393609728 120.93702456842531 l -1.3880029021591154 17.88220023729373 a38.93598721517915,38.93598721517915 0 0,0 -0.6677627161852123,-0.057617376951433055 l 1.6956099360858694 -17.85565860806363" fill="red" stroke="none" /><path d="M 98.01472825383883 120.90594882070398 l -0.38697107839074607 4.0750076535229 a25.093340199858925,25.093340199858925 0 0,0 -0.42965462753122646,-0.044535458895389964 l 0.45705830252756585 -4.067742826171749" fill="red" stroke="none" /><path d="M 97.65516085044442 120.86867818915974 l -2.7249023331486795 24.25117727079402 a45.40378437342609,45.40378437342609 0 0,0 -0.7759130048243086,-0.09395225922931003 l 3.1419427610243775 -24.20067948283936" fill="red" stroke="none" /><path d="M 97.2962882734958 120.8252237178851 l -2.8602005247235978 22.030571980540195 a43.21546418221757,43.21546418221757 0 0,0 -0.736867721059128,-0.1021231517848246 l 3.238996836969557 -21.978074263262766" fill="red" stroke="none" /><path d="M 96.93821686468263 120.77559828337769 l -2.023949896007503 13.733425303741331 a34.8817629916013,34.8817629916013 0 0,0 -0.5932626073670317,-0.09265541820898116 l 2.260048366983052 -13.696551578185245" fill="red" stroke="none" /><path d="M 96.58105272829116 120.7198165907248 l -1.7859299371332813 10.823255756966088 a31.96961307070803,31.96961307070803 0 0,0 -0.5421909798463457,-0.09426685168912675 l 1.971969888451677 -10.790910326755954" fill="red" stroke="none" /><path d="M 96.22490169976321 120.6578951692458 l -8.452363392239898 46.25258019858986 a68.01854551069678,68.01854551069678 0 0,0 -1.149942212667924,-0.220389161943335 l 9.247273219479517 -46.10023383829806" fill="red" stroke="none" /><path d="M 95.86986931433489 120.58985236759428 l -1.5859739007415405 7.90652184166112 a29.064018901670412,29.064018901670412 0 0,0 -0.48967133583755657,-0.10261538940998202 l 1.7218366980084838 -7.878050471524596" fill="red" stroke="none" /><path d="M 95.16358092515715 120.4354850818985 l -6.553888265667011 27.692365737727076 a49.45734653039331,49.45734653039331 0 0,0 -0.8267542402291116,-0.20319607741758625 l 7.029595790639333 -27.57544840199546" fill="red" stroke="none" /><path d="M 94.81253420990036 120.34920634021253 l -6.9390202994988615 27.22014208612515 a49.09067706385339,49.09067706385339 0 0,0 -0.8170314667938847,-0.21578543626371044 l 7.406542209104235 -27.09666530055786" fill="red" stroke="none" /><path d="M 94.46302465271185 120.25689768951611 l -2.04768598582497 7.491412353032769 a28.76622668608868,28.76622668608868 0 0,0 -0.47651779406321676,-0.1346686884098574 l 2.176334947992801 -7.45505487128439" fill="red" stroke="none" /><path d="M 94.11515582081647 120.15858648285463 l -5.877478995602708 20.133356980482855 a41.97371742556166,41.97371742556166 0 0,0 -0.6918168579409728,-0.20843874423739392 l 6.223170827983926 -20.029202867139738" fill="red" stroke="none" /><path d="M 93.76903079525671 120.05430185196036 l -17.455584587483443 56.18059579773544 a79.8298969698173,79.8298969698173 0 0,0 -1.3087490262046435,-0.4190201092586608 l 18.420054958779026 -55.87180284181707" fill="red" stroke="none" /><path d="M 93.42475214034765 119.94407469862007 l -9.804697631201309 29.739657900044712 a52.314203608761574,52.314203608761574 0 0,0 -0.8527969186935093,-0.28931501666309534 l 10.315164282832043 -29.566479896483493" fill="red" stroke="none" /><path d="M 93.08242187328487 119.8279376855182 l -7.1093514610911965 20.37761990870378 a42.582174851968006,42.582174851968006 0 0,0 -0.6899943413318799,-0.24740742197881369 l 7.459065363052803 -20.252224945685008" fill="red" stroke="none" /><path d="M 92.7421414339146 119.70592522655815 l -10.303387674960701 27.97488890893708 a50.8119809312951,50.8119809312951 0 0,0 -0.8181449473824536,-0.3093524132197364 l 10.783402843103438 -27.79338824561071" fill="red" stroke="none" /><path d="M 92.40401165467489 119.57807347666478 l -3.018279485780501 7.779382334372373 a29.34438736868252,29.34438736868252 0 0,0 -0.4693410120763798,-0.18676047479977045 l 3.151741573898739 -7.726275015166537" fill="red" stroke="none" /><path d="M 92.06813273071674 119.44442032107085 l -5.997753033968573 14.703073944024931 a36.87933955994216,36.87933955994216 0 0,0 -0.5857291570535719,-0.24483483515243512 l 6.249953650519607 -14.597654065852524" fill="red" stroke="none" /><path d="M 91.7346041902142 119.30500536409082 l -8.96926364343738 20.94898861873026 a43.78832627581889,43.78832627581889 0 0,0 -0.6903528343459395,-0.3026303949775834 l 9.328537152441063 -20.791493670458223" fill="red" stroke="none" /><path d="M 91.40352486487194 119.15986991738527 l -16.664372246458743 37.14164229851853 a61.70875698175573,61.70875698175573 0 0,0 -0.9653953147579741,-0.44316563935529635 l 17.301235556984135 -36.849289588829166" fill="red" stroke="none" /><path d="M 91.07499286063937 119.00905698771935 l -10.831866176074984 23.070408595674184 a46.48672355615281,46.48672355615281 0 0,0 -0.7214016339583305,-0.346316623805103 l 11.227380478033556 -22.88053769536952" fill="red" stroke="none" /><path d="M 90.7491055286396 118.85261126421891 l -9.499504993639066 19.359260383093257 a42.56435850436033,42.56435850436033 0 0,0 -0.6549764820321,-0.3284188051796197 l 9.831335383353926 -19.192873737004334" fill="red" stroke="none" /><path d="M 90.42595943632237 118.69057910512821 l -13.842083003091759 27.02271268105612 a51.361657769420184,51.361657769420184 0 0,0 -0.7834098211840944,-0.4098429922087782 l 14.305183726802348 -26.780440269902627" fill="red" stroke="none" /><path d="M 90.10565033884886 118.52300852407294 l -8.213108342425038 15.375591225889028 a38.431693956413056,38.431693956413056 0 0,0 -0.5808258553814922,-0.31671256704119 l 8.47655700967517 -15.231938007088074" fill="red" stroke="none" /><line stroke="#e1ed5e" stroke-width="0.3" x1="58.666819895761336" x2="56.23545636021788" y1="174.27360380694188" y2="178.64263932499728" /><path d="M 58.180547188652646 175.14741091055294 a86.0,86.0 0 0,1 -31.652253787137756,-30.449443065178592" fill="none" id="id20" stroke="none" /><text fill="#e1ed5e" style="font-size:6.75px; font-family:Arial;" text-anchor="middle"><textPath startOffset="22.20632615414155" xlink:href="#id20">August</textPath></text><path d="M 89.7882731507175 118.34994917583269 l -7.214752016743142 12.964539179068938 a35.83684342401418,35.83684342401418 0 0,0 -0.5364455199995467,-0.3046077666238072 l 7.436846303663896 -12.838428246650498" fill="red" stroke="none" /><path d="M 89.4739219176387 118.17145234162733 l -2.1464288031926007 3.7054379035312004 a25.282222164262443,25.282222164262443 0 0,0 -0.3746971347293726,-0.2213776717691042 l 2.2098938089503553 -3.667941659468347" fill="red" stroke="none" /><path d="M 89.1626897886671 117.98757091392108 l -9.540903321234646 15.835818272887263 a39.48788729295634,39.48788729295634 0 0,0 -0.5791947922361539,-0.3557887474480226 l 9.812077313403108 -15.669241058610861" fill="red" stroke="none" /><path d="M 88.8546689885994 117.79835938074946 l -19.47935139401902 31.107240893968278 a57.70293675943443,57.70293675943443 0 0,0 -0.8372921383778665,-0.5343994578191671 l 20.01192533444381 -30.767327007325306" fill="red" stroke="none" /><path d="M 88.54995079064634 117.60387380957326 l -12.108406537490984 18.61606503375327 a43.207462399339676,43.207462399339676 0 0,0 -0.6199762678172762,-0.4108864640366945 l 12.427057504048221 -18.404880548625258" fill="red" stroke="none" /><path d="M 88.24862548938628 117.40417183066458 l -14.18086767292453 21.002331043452184 a46.341565011177806,46.341565011177806 0 0,0 -0.6572626711609554,-0.45207125846551116 l 14.540287228708376 -20.755118995621572" fill="red" stroke="none" /><path d="M 87.95078237400918 117.19931262002967 l -11.407219536688185 16.282910727216347 a40.88109250792566,40.88109250792566 0 0,0 -0.5728661110840063,-0.40872475971982325 l 11.685812975621078 -16.084141705652304" fill="red" stroke="none" /><path d="M 87.65650970185807 116.9893568818739 l -12.343755178493614 16.98972145840104 a42.00045064137055,42.00045064137055 0 0,0 -0.5812362955035968,-0.4299847160162454 l 12.634376444415777 -16.77472679364503" fill="red" stroke="none" /><path d="M 87.36589467227662 116.77436683061367 l -12.726606559726765 16.89718119361441 a42.15375254691037,42.15375254691037 0 0,0 -0.575842885328719,-0.4415317692697485 l 13.015578173548972 -16.675610082517295" fill="red" stroke="none" /><path d="M 87.07902340077011 116.55440617244103 l -25.59644586484852 32.794267380908074 a62.60098573306421,62.60098573306421 0 0,0 -0.8437495219167328,-0.6703256495816574 l 26.15715287948261 -32.34880781732129" fill="red" stroke="none" /><path d="M 86.79598089348748 116.32954008644616 l -21.76600452278392 26.918231525525652 a55.61719430207557,55.61719430207557 0 0,0 -0.7392581093449248,-0.6083590955550169 l 22.226132760673533 -26.539577311113455" fill="red" stroke="none" /><path d="M 86.51685102203217 116.09983520530335 l -5.373234350649424 6.416022526064921 a29.368810694595226,29.368810694595226 0 0,0 -0.3847797016169572,-0.3279176093353295 l 5.482879528843438 -6.32258052650664" fill="red" stroke="none" /><path d="M 86.24171649860922 115.8653595955263 l -4.621107028859 5.328827882842429 a28.053441484632092,28.053441484632092 0 0,0 -0.36209999246176655,-0.3195111427032972 l 4.712149374227354 -5.248493598366842" fill="red" stroke="none" /><path d="M 85.97065885151581 115.62618273729859 l -17.880883954774244 19.91611417988232 a47.76523145855856,47.76523145855856 0 0,0 -0.6070743712432976,-0.5545480445363339 l 18.221057875484398 -19.605373368759413" fill="red" stroke="none" /><path d="M 85.70375840098266 115.38237550388516 l -10.214129850508119 10.990131897096497 a36.003714464045856,36.003714464045856 0 0,0 -0.45032788659666095,-0.4258131248265969 l 10.401793571495595 -10.81268413552397" fill="red" stroke="none" /><path d="M 85.44109423537348 115.13401014063109 l -8.294937782406471 8.622603548946309 a32.964751764090046,32.964751764090046 0 0,0 -0.4055450089606088,-0.3969111471777718 l 8.442132743742874 -8.478542298845968" fill="red" stroke="none" /><path d="M 85.18274418774928 114.88116024355367 l -5.121237201962396 5.143324270924805 a28.25815782651823,28.25815782651823 0 0,0 -0.34173448089069813,-0.34617522492697594 l 5.209012307908627 -5.054408552017165" fill="red" stroke="none" /><path d="M 84.9287848128048 114.62390073753433 l -23.747977911977948 23.04313669391345 a54.090068050733485,54.090068050733485 0 0,0 -0.6426246482916366,-0.6737893745542933 l 24.141109111648543 -22.630940202776657" fill="red" stroke="none" /><path d="M 84.67929136418377 114.36230785411682 l -17.144175653164584 16.07170624341593 a44.49941489486953,44.49941489486953 0 0,0 -0.5190615009803168,-0.5633387434226401 l 17.41828356214063 -15.774216245191948" fill="red" stroke="none" /><path d="M 84.43433777217949 114.09645910891817 l -20.21118477526147 18.303502643019584 a48.267383428242354,48.267383428242354 0 0,0 -0.5524113551242142,-0.6206400135546284 l 20.52325498003402 -17.952888459724093" fill="red" stroke="none" /><path d="M 84.19399662182784 113.82643327865904 l -3.539509665907066 3.0962156001065044 a25.702624768934093,25.702624768934093 0 0,0 -0.2884293357376643,-0.3355084790868055 l 3.5922815112155093 -3.034830021858169" fill="red" stroke="none" /><path d="M 83.95833913139862 113.55231037782056 l -7.939580166230999 6.707513365586558 a31.39363597426478,31.39363597426478 0 0,0 -0.34518648211161496,-0.41579935450048616 l 8.05386264823615 -6.56985275397231" fill="red" stroke="none" /><path d="M 83.72743513129214 113.27417163493432 l -6.535517577048246 5.331278918893462 a29.434187863152232,29.434187863152232 0 0,0 -0.3168829832890918,-0.3953602446392308 l 6.626318472392199 -5.217990840675972" fill="red" stroke="none" /><path d="M 83.50135304334701 112.99209946851258 l -24.53157816594989 19.317747963756002 a52.22456907153898,52.22456907153898 0 0,0 -0.5500818405880253,-0.7110549307383529 l 24.860466823755985 -18.8926150389044" fill="red" stroke="none" /><path d="M 83.28015986056508 112.70617746262583 l -21.899695225620903 16.642588182279315 a48.50586105505563,48.50586105505563 0 0,0 -0.4994688548766398,-0.669120153140984 l 22.18292534719263 -16.26315514962902" fill="red" stroke="none" /><path d="M 83.06392112726016 112.41649034213515 l -6.791072695293607 4.978796400716671 a29.420634296331343,29.420634296331343 0 0,0 -0.29591583259583,-0.4110012099454913 l 6.875768320265045 -4.861161585320042" fill="red" stroke="none" /><path d="M 82.85270091963577 112.12312394758628 l -22.3590524145783 15.807828539184342 a48.38274398233513,48.38274398233513 0 0,0 -0.4749321406440614,-0.6841751707106263 l 22.627845462384496 -15.420612106286704" fill="red" stroke="none" /><path d="M 82.6465618267979 111.8261652097733 l -6.532388550061625 4.451746416843071 a28.905070924972865,28.905070924972865 0 0,0 -0.2766585473239111,-0.4135669907246169 l 6.608050202796266 -4.338642511912634" fill="red" stroke="none" /><path d="M 82.44556493220864 111.52570212397912 l -20.70926696603446 13.597067711647234 a45.774058783849,45.774058783849 0 0,0 -0.4267780044462313,-0.6623689403970291 l 20.940249833857735 -13.238577171328757" fill="red" stroke="none" /><path d="M 82.05923443525364 110.91462005526583 l -20.594442870999433 12.529037201652695 a45.10617867616634,45.10617867616634 0 0,0 -0.39783461499993406,-0.6667936981441915 l 20.8070583616976 -12.172681409622392" fill="red" stroke="none" /><line stroke="#e1ed5e" stroke-width="0.3" x1="26.63291911575756" x2="22.317208475507996" y1="142.92168965132927" y2="145.44649492493687" /><path d="M 25.769776987707644 143.4266507060508 a86.0,86.0 0 0,1 -11.730757126820373,-40.83630448921669" fill="none" id="id21" stroke="none" /><text fill="#e1ed5e" style="font-size:6.75px; font-family:Arial;" text-anchor="middle"><textPath startOffset="21.46611528233685" xlink:href="#id21">September</textPath></text><path d="M 81.87401531095188 110.60418214915194 l -33.38818079211293 19.53297196385166 a59.68213554533195,59.68213554533195 0 0,0 -0.5111291877710098,-0.8911968220862195 l 33.719461976036314 -18.955355295907133" fill="red" stroke="none" /><path d="M 81.69416730710424 110.29060199501025 l -13.4497316971581 7.560750617416116 a36.42920064761287,36.42920064761287 0 0,0 -0.30257676084608454,-0.5492647102969225 l 13.577884867455701 -7.328115388721371" fill="red" stroke="none" /><path d="M 81.51974371655577 109.97397251340807 l -17.486166206566672 9.437452513330417 a40.870367851276455,40.870367851276455 0 0,0 -0.32880695887616235,-0.6219788520559362 l 17.646025673667722 -9.135058646188353" fill="red" stroke="none" /><path d="M 81.35079622478065 109.6543875284942 l -4.230422993058217 2.1900207363655104 a25.763682349391757,25.763682349391757 0 0,0 -0.20049215432103248,-0.3955900411710117 l 4.267493817165517 -2.1168764834918137" fill="red" stroke="none" /><path d="M 81.18737489456691 109.33194174019688 l -17.20100732957487 8.532503963305706 a40.2009967719365,40.2009967719365 0 0,0 -0.30217125815677964,-0.6225622919732232 l 17.34533184434637 -8.235152715367198" fill="red" stroke="none" /><path d="M 81.02952815118164 109.00673069616217 l -7.50826424138013 3.5647460198491254 a29.31152489645659,29.31152489645659 0 0,0 -0.21247419563676492,-0.45765051480977004 l 7.568513053856721 -3.434975437760528" fill="red" stroke="none" /><path d="M 80.87730276802145 108.67885076344099 l -3.968887337912441 1.8012825536478343 a25.35851873222059,25.35851873222059 0 0,0 -0.17697699991503663,-0.3990364142449251 l 3.9993054225587574 -1.7326978029102134" fill="red" stroke="none" /><path d="M 80.73074385275274 108.34839909993369 l -15.978636834582284 6.9227393288375865 a38.41382080149283,38.41382080149283 0 0,0 -0.25764518897832517,-0.6089971195862941 l 16.095433004752916 -6.646667683585133" fill="red" stroke="none" /><path d="M 80.58989483394504 108.01547362559985 l -4.295296009915905 1.7737581320185476 a25.64712660939009,25.64712660939009 0 0,0 -0.16499332174944698,-0.4094998935782907 l 4.3251919459227395 -1.6995588705974516" fill="red" stroke="none" /><path d="M 80.45479744820244 107.68017299344265 l -24.682493109699493 9.698841262431127 a47.519671716373104,47.519671716373104 0 0,0 -0.2925983516555036,-0.7638819658701193 l 24.845785740948504 -9.272535729727851" fill="red" stroke="none" /><path d="M 80.32549172779594 107.34259656027581 l -25.20985169267741 9.408406439577044 a47.90826516331116,47.90826516331116 0 0,0 -0.2816908783332147,-0.7750923157547647 l 25.36806683201585 -8.973066326816163" fill="red" stroke="none" /><path d="M 80.20201598880116 107.00284435728193 l -23.145241923877144 8.18681976472278 a45.5504835303677,45.5504835303677 0 0,0 -0.25510259610193825,-0.7414475551505282 l 23.28273535092231 -7.787199506482954" fill="red" stroke="none" /><path d="M 80.0844068197444 106.66101706037122 l -29.758307436225714 9.953034877062462 a52.378651416734726,52.378651416734726 0 0,0 -0.27862386878895146,-0.8575160940358374 l 29.925223556030915 -9.439319883048823" fill="red" stroke="none" /><path d="M 79.97269907076064 106.31721596034903 l -18.901613895591275 5.962140250424611 a40.81963986110097,40.81963986110097 0 0,0 -0.20560119301171723,-0.6719165947677085 l 19.00144186110912 -5.635896683104854" fill="red" stroke="none" /><path d="M 79.86692584326677 105.97154293290107 l -8.650467838373238 2.5657601856718895 a30.022955123079623,30.022955123079623 0 0,0 -0.14269104684387668,-0.49672625337023846 l 8.69335152210322 -2.416476456797055" fill="red" stroke="none" /><path d="M 79.76711848015287 105.62410040840567 l -23.24690138423957 6.4619024947592365 a45.128294755749636,45.128294755749636 0 0,0 -0.20159867345010787,-0.7502236604551893 l 23.354688134031456 -6.060787901128508" fill="red" stroke="none" /><path d="M 79.67330655649465 105.27499134158121 l -4.503079299948786 1.1685965739436612 a25.652240442438472,25.652240442438472 0 0,0 -0.10723697494422951,-0.42835840858321445 l 4.5225275891880745 -1.0909103259630548" fill="red" stroke="none" /><path d="M 79.58551787078972 104.9243191809786 l -21.13507960375875 5.098139508294494 a42.741265287541395,42.741265287541395 0 0,0 -0.16636413504836386,-0.7166923396344157 l 21.21970430473767 -4.733578511311504" fill="red" stroke="none" /><path d="M 79.50377843672027 104.57218783832718 l -10.589163083812654 2.3621740485383405 a31.849435056774556,31.849435056774556 0 0,0 -0.11475800569782584,-0.5361111977129607 l 10.62825512823492 -2.1795490314092163" fill="red" stroke="none" /><path d="M 79.4281124754447 104.21870165774334 l -30.960524186232668 6.349111842710508 a52.60482999602347,52.60482999602347 0 0,0 -0.17427245469652497,-0.8886114919530104 l 31.06522657390486 -5.815236623689543" fill="red" stroke="none" /><path d="M 79.35854240842038 103.8639653848113 l -36.44637794646184 6.822558056381 a58.07945204353793,58.07945204353793 0 0,0 -0.1754927551977599,-0.9842565690468897 l 36.55841714399879 -6.194182736600897" fill="red" stroke="none" /><path d="M 79.29508885075956 103.50808413554451 l -25.794101604617143 4.370358219726055 a47.161722201683126,47.161722201683126 0 0,0 -0.1287251037095543,-0.8015713436771147 l 25.865508462687988 -3.9257076463557263" fill="red" stroke="none" /><path d="M 79.23777060512086 103.15116336523772 l -21.520597784679705 3.2662638509246436 a42.76705328136581,42.76705328136581 0 0,0 -0.10420080316022642,-0.7287801746091535 l 21.57363263885653 -2.8953382043350895" fill="red" stroke="none" /><path d="M 79.1416061653843 102.43462659150553 l -20.84499590601005 2.4330627628851196 a41.9865111138015,41.9865111138015 0 0,0 -0.0776104633065848,-0.7185765012155111 l 20.883788670817683 -2.0738899397848263" fill="red" stroke="none" /><path d="M 79.10278846688536 102.07522291339032 l -18.75363409717124 1.8623523586444297 a39.84587881098497,39.84587881098497 0 0,0 -0.06190418490014828,-0.6831075219806152 l 18.782912878348466 -1.5392634481152483" fill="red" stroke="none" /><path d="M 79.07016306316243 101.71520430193888 l -21.106928909716345 1.7297170243569853 a42.17768563805238,42.17768563805238 0 0,0 -0.053070457244342034,-0.7241042244244119 l 21.133575925625024 -1.3661396634358127" fill="red" stroke="none" /><path d="M 79.04373962182676 101.35467743843564 l -7.356776425483597 0.4755647650569312 a28.37213138924659,28.37213138924659 0 0,0 -0.027309728975003823,-0.4876335564869632 l 7.363872505346132 -0.3488594922345304" fill="red" stroke="none" /><path d="M 79.0235259727143 100.99374915477108 l -7.679875492620076 0.36382996349200375 a28.688488786782553,28.688488786782553 0 0,0 -0.019122745463675997,-0.4934730904080799 l 7.6850003709349535 -0.23157962606992713" fill="red" stroke="none" /><path d="M 79.0095281055655 100.63252640178507 l -10.976893006664875 0.3307774437470572 a31.981875695757083,31.981875695757083 0 0,0 -0.011845382113213437,-0.5504083612657509 l 10.980960451463098 -0.14177926669117744" fill="red" stroke="none" /><line stroke="#e1ed5e" stroke-width="0.3" x1="15.007084014347285" x2="10.007500721073583" y1="101.09737516637583" y2="101.16192664675087" /><path d="M 14.007167355692545 101.11028546245083 a86.0,86.0 0 0,1 10.666146001902534,-42.60595125391555" fill="none" id="id22" stroke="none" /><text fill="#e1ed5e" style="font-size:6.75px; font-family:Arial;" text-anchor="middle"><textPath startOffset="22.20632615414155" xlink:href="#id22">October</textPath></text><path d="M 79.00175016825051 100.2711162175752 l -17.289620137444093 0.22323271951400447 a38.29106119774532,38.29106119774532 0 0,0 -0.0028366432234827807,-0.6591359853575216 l 17.290901077957077 0.07441274404719254" fill="red" stroke="none" /><path d="M 79.00019446554 99.90962569577889 l -16.592914564816233 -0.07140890454128296 a37.593068221005375,37.593068221005375 0 0,0 0.008354599133841227,-0.6470729100072647 l 16.589226958564677 0.35701807260901963" fill="red" stroke="none" /><path d="M 79.00486145842228 99.54816195383935 l -40.276031766729545 -0.8667836825436708 a61.28535774728743,61.28535774728743 0 0,0 0.03177589050226502,-1.0544871085635164 l 40.255144181771634 1.5599409385321814" fill="red" stroke="none" /><path d="M 79.01574976396665 99.18683210126434 l -11.389262149184361 -0.44134921504598107 a32.397810378860726,32.397810378860726 0 0,0 0.026390935081790957,-0.5570709284543053 l 11.37997760586907 0.6373312501232954" fill="red" stroke="none" /><path d="M 79.03285615573316 98.82574320788736 l -37.09923671025908 -2.077728421800684 a58.157372348951064,58.157372348951064 0 0,0 0.06458074056732484,-0.9990354724641249 l 37.05797537868734 2.716022958517821" fill="red" stroke="none" /><path d="M 79.05617556472873 98.46500227214037 l -18.41378954882614 -1.349568470939462 a39.46317904929194,39.46317904929194 0 0,0 0.05548432055018824,-0.6770492473427362 l 18.387830744456455 1.6663316354899766" fill="red" stroke="none" /><path d="M 79.08570108090925 98.10471618934814 l -45.02922887620551 -4.080613403555559 a66.21374634925729,66.21374634925729 0 0,0 0.11263549233063372,-1.134224036455145 l 44.952316258192646 4.855112970715134" fill="red" stroke="none" /><path d="M 79.12142395522702 97.74499172005258 l -21.459623127218165 -2.3177647619576613 a42.58442628966564,42.58442628966564 0 0,0 0.08498563206402739,-0.7281049956737059 l 21.41654714215055 2.686813495956229" fill="red" stroke="none" /><path d="M 79.16333360222342 97.38593545837743 l -5.333837709044716 -0.6691567528033626 a26.375648376358868,26.375648376358868 0 0,0 0.0603927000656706,-0.44999576330483 l 5.321529009921212 0.760870858172852" fill="red" stroke="none" /><path d="M 79.21141760316559 97.0276538004421 l -26.669557206097465 -3.8132064751806705 a47.94078367812757,47.94078367812757 0 0,0 0.1238335704018911,-0.8159085066276905 l 26.599967742256272 4.271714094200453" fill="red" stroke="none" /><path d="M 79.26566170972629 96.67025291283419 l -21.573365375656557 -3.4644872440251815 a42.84977724132652,42.84977724132652 0 0,0 0.12321991818461056,-0.7272509322052271 l 21.510533595951724 3.8353239645462365" fill="red" stroke="none" /><path d="M 79.32604984820605 96.31383870115002 l -7.087507299685965 -1.2637011757113168 a28.199284713400075,28.199284713400075 0 0,0 0.08931690518911958,-0.47713447897836186 l 7.064704670586984 1.3855137321522513" fill="red" stroke="none" /><path d="M 79.3925641242962 95.95851677861259 l -14.45334680158257 -2.8345573386137923 a35.728677777475696,35.728677777475696 0 0,0 0.12355436839174151,-0.6024949797189431 l 14.402413137275834 3.0829279744961378" fill="red" stroke="none" /><path d="M 79.54389044137918 95.25157060432595 l -11.074075424906972 -2.5705995134045 a32.36851478315633,32.36851478315633 0 0,0 0.1306565884706944,-0.5416559106691557 l 11.028186036175462 2.7608406557330523" fill="red" stroke="none" /><path d="M 79.62865764111835 94.90015583598534 l -38.892578284790986 -9.736525207564336 a61.092799462698174,61.092799462698174 0 0,0 0.2641642994059386,-1.0179328050106926 l 38.71921765351474 10.404554438123892" fill="red" stroke="none" /><path d="M 79.71946130924805 94.55025226153421 l -20.95368773302822 -5.630635067285527 a42.69702930988947,42.69702930988947 0 0,0 0.19683987117681662,-0.7081377469630767 l 20.853661091285044 5.990484117667546" fill="red" stroke="none" /><path d="M 79.81627453868168 94.20196356495316 l -20.73002806299033 -5.954968929750345 a42.56839628824217,42.56839628824217 0 0,0 0.20837048132586655,-0.7025216765158301 l 20.624451684552756 6.310919993012714" fill="red" stroke="none" /><path d="M 79.91906864156998 93.8553929516997 l -36.319101224186866 -11.113359305238848 a58.981362123811074,58.981362123811074 0 0,0 0.30542379480220094,-0.9682768941012976 l 36.12242194561646 11.73688636576656" fill="red" stroke="none" /><path d="M 80.02781315780177 93.51064311812611 l -17.519669149246255 -5.69248557807411 a39.42127029158502,39.42127029158502 0 0,0 0.2152452159327414,-0.6435557987106921 l 17.419086639541742 5.993214479707124" fill="red" stroke="none" /><path d="M 80.14247586403 93.16781622104843 l -4.131068867586425 -1.4213363918682256 a25.368744342209872,25.368744342209872 0 0,0 0.14562495115128452,-0.41170134697150507 l 4.105990835625331 1.4922353652663416" fill="red" stroke="none" /><path d="M 80.2630227832202 92.82701384747504 l -6.820829919952101 -2.4788861043498143 a28.25731335380059,28.25731335380059 0 0,0 0.17007594043771807,-0.45571896393543254 l 6.777149391012755 2.5959282053145882" fill="red" stroke="none" /><path d="M 80.38941819471856 92.48833698450439 l -20.369975194802652 -7.80254205697016 a42.81319673930585,42.81319673930585 0 0,0 0.26953241710097064,-0.6859306022158529 l 20.23264922781999 8.152021664081776" fill="red" stroke="none" /><path d="M 80.95270993114464 91.15688171328213 l -32.762232776756534 -15.21057844630462 a57.12098549582454,57.12098549582454 0 0,0 0.4217209886100834,-0.8882519542737457 l 32.4955535943047 15.772272816218898" fill="red" stroke="none" /><path d="M 81.10775173730289 90.83032412892265 l -19.765571614487463 -9.59355829921441 a42.970757430909345,42.970757430909345 0 0,0 0.32870580557539614,-0.6626508461398566 l 19.597505795958654 9.932368733853227" fill="red" stroke="none" /><path d="M 81.26839172434947 90.50648371742162 l -19.297155034204792 -9.780145560848823 a42.634034288720315,42.634034288720315 0 0,0 0.3373987773863602,-0.6517470460365427 l 19.125946823658317 10.1108653291457" fill="red" stroke="none" /><path d="M 81.43458229118936 90.18545643968196 l -13.174524387485985 -6.964666538372063 a35.90217007107295,35.90217007107295 0 0,0 0.29352913436591466,-0.5438649066304788 l 13.052687153901598 7.190412428335014" fill="red" stroke="none" /><path d="M 81.6062741919709 89.86733742301443 l -7.5967881217052025 -4.184888451065737 a29.673204777586232,29.673204777586232 0 0,0 0.2503038802244924,-0.445262673261874 l 7.523626600188279 4.315034634262395" fill="red" stroke="none" /><line stroke="#e1ed5e" stroke-width="0.3" x1="26.266209847984243" x2="21.928928074336255" y1="57.711370442889674" y2="55.22380399835377" /><path d="M 25.398753493254645 57.213857153982495 a86.0,86.0 0 0,1 29.58750427330803,-30.492523968695096" fill="none" id="id23" stroke="none" /><text fill="#e1ed5e" style="font-size:6.75px; font-family:Arial;" text-anchor="middle"><textPath startOffset="21.46611528233685" xlink:href="#id23">November</textPath></text><path d="M 81.78341655067845 89.55222093294921 l -21.984660237225654 -12.608888689896709 a46.34382291092754,46.34382291092754 0 0,0 0.402838881926206,-0.6885822313540373 l 21.764361680829122 12.985450333604637" fill="red" stroke="none" /><path d="M 81.96595687620814 89.24020034530311 l -25.148838948272324 -15.004758875987003 a50.28492597519498,50.28492597519498 0 0,0 0.4498925321469611,-0.7395050315731851 l 24.886830617839145 15.435431680767262" fill="red" stroke="none" /><path d="M 82.15384107792192 88.93136811851018 l -9.976838281642747 -6.187883385037125 a32.73998308707771,32.73998308707771 0 0,0 0.30116482056177757,-0.47637042124063783 l 9.868845864835006 6.358701453991978" fill="red" stroke="none" /><path d="M 82.54541684631803 88.32363383020206 l -18.04162334616239 -12.069070835583334 a42.706281206119115,42.706281206119115 0 0,0 0.4139978102779395,-0.6074907019362569 l 17.83120107021571 12.377839560790006" fill="red" stroke="none" /><path d="M 82.7489923806493 88.02491185347247 l -22.342639044189845 -15.50953300142888 a48.19814577101476,48.19814577101476 0 0,0 0.4789687986316121,-0.6774673983213879 l 22.072357625754353 15.891826900082053" fill="red" stroke="none" /><path d="M 82.95767976084542 87.72973835380427 l -17.78085538114943 -12.801997894548068 a42.910042632942634,42.910042632942634 0 0,0 0.4367371623473224,-0.5957089986266582 l 17.557855606288474 13.106169336846227" fill="red" stroke="none" /><path d="M 83.17141714833178 87.43820079747576 l -12.78825493578368 -9.545871572785432 a36.95816807740502,36.95816807740502 0 0,0 0.3849352649414175,-0.506529687058334 l 12.622043730618154 9.764586035724793" fill="red" stroke="none" /><path d="M 83.39014120810768 87.1503855733568 l -13.80656252089291 -10.680946007645447 a38.45576627540487,38.45576627540487 0 0,0 0.40954643833934684,-0.5200823865989933 l 13.620662001959593 10.917020788197489" fill="red" stroke="none" /><path d="M 83.6137871275137 86.86637796730984 l -20.59032228347949 -16.503234304771087 a47.38784027266584,47.38784027266584 0 0,0 0.5156282361689142,-0.6320992489741598 l 20.303195555234183 16.855217723353327" fill="red" stroke="none" /><path d="M 83.84228863543731 86.58626213691792 l -17.496723544160588 -14.525353113989025 a43.74029942342128,43.74029942342128 0 0,0 0.4859117913514021,-0.5751662964914537 l 17.244101139322062 14.824378360109595" fill="red" stroke="none" /><path d="M 84.07557802195018 86.31012108654704 l -11.018437041089951 -9.472310462253848 a35.53033448760856,35.53033448760856 0 0,0 0.4026908903738852,-0.46034529985639827 l 10.853754287138223 9.66057131831319" fill="red" stroke="none" /><path d="M 84.31358615837235 86.03803664274999 l -15.753856127555787 -14.021991527765252 a42.09028755831574,42.09028755831574 0 0,0 0.48635599734879403,-0.5370464397273136 l 15.510156489590948 14.291090754762122" fill="red" stroke="none" /><path d="M 84.5562425177563 85.77008943001954 l -13.189678161731885 -12.152997151377265 a38.934964448569474,38.934964448569474 0 0,0 0.45838073950499625,-0.4889686132311245 l 12.978530100256433 12.37823518148644" fill="red" stroke="none" /><path d="M 84.80347519578584 85.50635884689758 l -20.084524461373036 -19.155556551529713 a48.75470175733014,48.75470175733014 0 0,0 0.5844428926103034,-0.6023197748155593 l 19.751817305059614 19.498440521895397" fill="red" stroke="none" /><path d="M 85.31137513191541 84.99185889309783 l -6.74312489017167 -6.889805598688252 a30.64049555117208,30.64049555117208 0 0,0 0.3801125007190092,-0.3656679245289433 l 6.623529145840233 7.004856609979508" fill="red" stroke="none" /><path d="M 85.57189188830299 84.74124197986013 l -12.180253419245846 -12.881490636847847 a38.72826484414786,38.72826484414786 0 0,0 0.48833043833500894,-0.4538499222586307 l 11.956715097115982 13.089245145181124" fill="red" stroke="none" /><path d="M 85.83668400450813 84.49514656593479 l -12.110728540297773 -13.257846612815502 a38.95662113499437,38.95662113499437 0 0,0 0.49899538312857356,-0.4480029818619431 l 11.880722169573227 13.464348603446725" fill="red" stroke="none" /><path d="M 86.10567301691215 84.25364557470407 l -2.631539354805916 -2.982307197414153 a24.97733020953008,24.97733020953008 0 0,0 0.32483160826047375,-0.28169076973966034 l 2.5798139478986686 3.0271629605734938" fill="red" stroke="none" /><path d="M 86.65592168130627 83.78471172551755 l -4.611027380372286 -5.603169917664834 a28.25652028377011,28.25652028377011 0 0,0 0.3782291342933826,-0.30583498919206 l 4.513894847514403 5.681711004121029" fill="red" stroke="none" /><path d="M 86.93701828274178 83.55741782278169 l -27.031389450251474 -34.0248384343173 a64.45555943826477,64.45555943826477 0 0,0 0.8746540989948608,-0.6826813977989153 l 26.44170279609719 34.48509822133944" fill="red" stroke="none" /><path d="M 87.51073957382395 83.11751280151077 l -10.511059921876114 -14.208434168103835 a38.67376536538298,38.67376536538298 0 0,0 0.5385868483495787,-0.391306250350344 l 10.264927757172755 14.387259653270847" fill="red" stroke="none" /><path d="M 88.09926311788651 82.69761687909137 l -11.76199225718958 -17.10066345596853 a41.75517170472182,41.75517170472182 0 0,0 0.5956977822373117,-0.4022178017042405 l 11.465889780545728 17.300593169971435" fill="red" stroke="none" /><path d="M 88.39885842347998 82.49532879139004 l -11.27706530020693 -17.01568065315869 a41.41336792093382,41.41336792093382 0 0,0 0.5976007644461985,-0.38869616054252654 l 10.982497509976444 17.20727573786075" fill="red" stroke="none" /><line stroke="#e1ed5e" stroke-width="0.3" x1="56.762969772571076" x2="54.21961505331055" y1="26.818313649435495" y2="22.513508569990535" /><path d="M 56.25429882871897 25.957352633546506 a86.0,86.0 0 0,1 42.265352541879196,-11.944610805530505" fill="none" id="id24" stroke="none" /><text fill="#e1ed5e" style="font-size:6.75px; font-family:Arial;" text-anchor="middle"><textPath startOffset="22.20632615414155" xlink:href="#id24">December</textPath></text><path d="M 89.63071344664047 81.73862282372117 l -3.8591861259850937 -6.79642259642669 a28.815668727896234,28.815668727896234 0 0,0 0.4334369337343996,-0.24120718435098387 l 3.7416251031786483 6.861845178337858" fill="red" stroke="none" /><path d="M 89.94658935756843 81.56283822128135 l -1.7072415262890512 -3.1309462365624268 a24.566160114931773,24.566160114931773 0 0,0 0.3730019924011796,-0.19924474646367182 l 1.6530944873595663 3.159869709527848" fill="red" stroke="none" /><path d="M 90.26544431104013 81.39251694778311 l -3.5089598216172497 -6.707333390234008 a28.56975034181922,28.56975034181922 0 0,0 0.4377151211756032,-0.22421468601368652 l 3.3929842128528827 6.766740601560199" fill="red" stroke="none" /><path d="M 90.58718382345135 81.22770947309562 l -1.9686791336148242 -3.9262018887128254 a25.39212463416768,25.39212463416768 0 0,0 0.39240352549713275,-0.19255070577164188 l 1.9008043411072653 3.9595077546192967" fill="red" stroke="none" /><path d="M 90.91171255644093 81.06846463323043 l -14.55255216261852 -30.313979135708536 a54.626092628878325,54.626092628878325 0 0,0 0.851183225701659,-0.39964193758791783 l 14.028590725617253 30.55998605593646" fill="red" stroke="none" /><path d="M 91.23893434514133 80.91482961587045 l -11.252756536892111 -24.513088276950928 a47.97250501069853,47.97250501069853 0 0,0 0.7534376178319352,-0.33804549694177755 l 10.829136800593401 24.703154104409233" fill="red" stroke="none" /><path d="M 92.57280143429618 80.3572730644239 l -1.4753858777878694 -3.9019559886031048 a25.17157332733964,25.17157332733964 0 0,0 0.40660202670216083,-0.14975495789006435 l 1.4080015253131393 3.9267742142994915" fill="red" stroke="none" /><path d="M 92.91201910852362 80.23233633223022 l -1.1863194461915731 -3.308525259012837 a24.514782101060923,24.514782101060923 0 0,0 0.39844458559806467,-0.13900949225064366 l 1.1291928565302232 3.3284556044356903" fill="red" stroke="none" /><path d="M 93.59665428221793 80.00007090966166 l -1.419384217834927 -4.433242395426446 a25.654921019141494,25.654921019141494 0 0,0 0.42173590465517247,-0.13103539848155166 l 1.3428629404690258 4.457017928790523" fill="red" stroke="none" /><path d="M 93.94186890950719 79.89281104454417 l -3.646693366120793 -12.103526893016328 a33.640954701148125,33.640954701148125 0 0,0 0.5558923984010313,-0.1622802346665076 l 3.4378107499963404 12.164505456601534" fill="red" stroke="none" /><path d="M 95.33964822691252 79.52364482259891 l -3.983206078428449 -17.50115578778495 a38.94871540170906,38.94871540170906 0 0,0 0.6550010585232082,-0.14315786169130967 l 3.68136229575172 17.567127147572126" fill="red" stroke="none" /><path d="M 96.40284397218896 79.31037775812273 l -7.0776967431721145 -40.7085127324615 a62.31920618885713,62.31920618885713 0 0,0 1.0584495592463876,-0.17465324642143654 l 6.375917977786841 40.82431224182257" fill="red" stroke="none" /><path d="M 96.75951476605007 79.25152402106235 l -4.3928449848358655 -28.126910652811283 a49.46787996904628,49.46787996904628 0 0,0 0.8424403975887258,-0.1241538157729455 l 3.9080356068184905 28.198358952745195" fill="red" stroke="none" /><path d="M 97.11714578562143 79.19881850522333 l -3.4732951417645013 -25.06149713309158 a46.301035901594275,46.301035901594275 0 0,0 0.7903923535976404,-0.10261561190941454 l 3.041388059659003 25.11757106816513" fill="red" stroke="none" /><path d="M 97.47563105711357 79.15227682838746 l -0.6218620844311633 -5.135702775807014 a26.17321519497159,26.17321519497159 0 0,0 0.4477281130590087,-0.05030747028351771 l 0.5333672678624366 5.1456461995611305" fill="red" stroke="none" /><path d="M 97.83486435360386 79.11191278185805 l -0.6984790616876833 -6.738557736492428 a27.77466112566954,27.77466112566954 0 0,0 0.4759715544148609,-0.04519923429738758 l 0.582382380182586 6.749582515304996" fill="red" stroke="none" /><path d="M 98.91598698831166 79.02799685794201 l -1.70381010516427 -32.96299075167241 a54.00699513995936,54.00699513995936 0 0,0 0.9288153052334067,-0.03999674085825038 l 1.1361539675415393 32.98743521905485" fill="red" stroke="none" /><path d="M 99.27714615592234 79.0124445844662 l -0.15171542399501473 -4.40495114548285 a25.407563064094337,25.407563064094337 0 0,0 0.4372198359985752,-0.011292098439680867 l 0.07586895280156046 4.4069100360648905" fill="red" stroke="none" /></svg>