<?xml version="1.0" encoding="utf-8" ?>
<svg baseProfile="full" height="200mm" version="1.1" viewBox="0,0,200,200" width="200mm" xmlns="http://www.w3.org/2000/svg" xmlns:ev="http://www.w3.org/2001/xml-events" xmlns:xlink="http://www.w3.org/1999/xlink"><defs /><rect fill="#1a1a1a" height="200" width="200" x="0" y="0" /><text alignment-baseline="middle" fill="#e1ed5e" style="dominant-baseline: central; font-size:9.0px; font-family:Arial;" text-anchor="middle" x="100.0" y="100.0">2022</text><line stroke="#e1ed5e" stroke-width="0.3" x1="100.0" x2="100.0" y1="15.0" y2="10.0" /><path d="M 100.0 14.0 a86.0,86.0 0 0,1 42.46469731375804,11.215312516191453" fill="none" id="id49" stroke="none" /><text fill="#e1ed5e" style="font-size:6.75px; font-family:Arial;" text-anchor="middle"><textPath startOffset="22.20632615414155" xlink:href="#id49">January</textPath></text><path d="M 100.0 79.0 l 0.0 -61.420412925125646 a82.42041292512565,82.42041292512565 0 0,0 1.418731922191148,0.012211473563952333 l -1.0572514429186197 61.41131282817025" fill="#4aecff" stroke="none" /><path d="M 100.36148047927253 79.00311137660856 l 0.9707719927379017 -56.38808339317857 a77.39643913420372,77.39643913420372 0 0,0 1.33185769685061,0.03439795494670161 l -1.9412563247833794 56.36301864608951" fill="#3effb9" stroke="none" /><path d="M 100.72285384407766 79.0124445844662 l 1.163155833142444 -33.77141548735504 a54.79144026986327,54.79144026986327 0 0,0 0.9423062361930228,0.0405776887242934 l -1.7443029017247984 33.74639007210656" fill="#ff8f0d" stroke="none" /><path d="M 102.52436894288641 79.15227682838746 l 6.704880707401344 -55.372847649900315 a76.77730436440572,76.77730436440572 0 0,0 1.3106444190242723,0.17015926133604228 l -7.657039854933462 55.249230065400134" fill="#3dffae" stroke="none" /><path d="M 102.88285421437855 79.19881850522331 l 7.8460986830956205 -56.61338055839986 a78.1544934611014,78.1544934611014 0 0,0 1.33097481812265,0.19615109014312038 l -8.819442481646925 56.46993498409577" fill="#40ffc8" stroke="none" /><path d="M 103.59715602781102 79.31037775812273 l 9.68738184164117 -55.71853688491333 a77.55440495258708,77.55440495258708 0 0,0 1.313272608623872,0.239992174998751 l -10.645049571367942 55.543529228563834" fill="#3fffbc" stroke="none" /><path d="M 105.01212808612495 79.60689891045804 l 13.4928407577197 -54.89900912927508 a77.53280423868438,77.53280423868438 0 0,0 1.293288198101674,0.329687957959058 l -14.435837844506398 54.658618175147154" fill="#3fffbc" stroke="none" /><path d="M 105.36241919743992 79.69619591428918 l 15.221128217210182 -57.63197428378269 a80.60811357568147,80.60811357568147 0 0,0 1.3384866356921419,0.36585895916024774 l -16.210912742126034 57.36142878379615" fill="#46fff3" stroke="none" /><path d="M 107.08798089147638 80.2323363322302 l 19.149819514398423 -53.40691478363646 a77.73635636997358,77.73635636997358 0 0,0 1.2556926671779334,0.4624822065479759 l -20.066294507348932 53.06936930928216" fill="#3fffc0" stroke="none" /><path d="M 107.4271985657038 80.35727306442388 l 20.282054354325528 -53.639989809101984 a78.34640560272614,78.34640560272614 0 0,0 1.2573360785658627,0.4878268645955707 l -21.202373597891057 53.282920240615866" fill="#41ffcb" stroke="none" /><path d="M 107.76421540070413 80.48803036053334 l 21.097406857103078 -53.0191321108812 a78.0625003472965,78.0625003472965 0 0,0 1.2442275260239164,0.5075516485578047 l -22.006918252715383 52.64811957613981" fill="#40ffc6" stroke="none" /><path d="M 109.73455568895987 81.39251694778311 l 17.840921486417464 -34.102701222506084 a59.487565656404286,59.487565656404286 0 0,0 0.9032335704531821,0.482476092376633 l -18.425300103398957 33.7905464036277" fill="#fff917" stroke="none" /><path d="M 110.05341064243156 81.56283822128135 l 22.87297704417727 -41.94723493582644 a68.77806607246549,68.77806607246549 0 0,0 1.0345397272620855,0.5757202381489536 l -23.59164086051139 41.5472993001173" fill="#4eff2b" stroke="none" /><path d="M 110.36928655335952 81.73862282372117 l 16.883329071662786 -29.733274182588588 a55.192314840604794,55.192314840604794 0 0,0 0.8221112583306444,0.4762199044350981 l -17.392637062458757 29.438250120763442" fill="#ff980e" stroke="none" /><line stroke="#e1ed5e" stroke-width="0.3" x1="143.23703022742887" x2="145.7803849466894" y1="26.81831364943548" y2="22.513508569990506" /><path d="M 143.74570117128098 25.957352633546492 a86.0,86.0 0 0,1 28.547481713284135,27.462654790039103" fill="none" id="id50" stroke="none" /><text fill="#e1ed5e" style="font-size:6.75px; font-family:Arial;" text-anchor="middle"><textPath startOffset="19.985693538727396" xlink:href="#id50">February</textPath></text><path d="M 110.99172775467656 82.1063720568725 l 29.72470356385324 -48.38937045771082 a77.78986859689434,77.78986859689434 0 0,0 1.134920279884131,0.7106869751456562 l -30.553242996109635 47.87053914124222" fill="#3fffc1" stroke="none" /><path d="M 111.2981086023043 82.29822771554956 l 30.899371622790863 -48.41285027900124 a78.4332241722535,78.4332241722535 0 0,0 1.1318025332498223,0.736155850761337 l -31.728141181824967 47.87379550408038" fill="#41ffcd" stroke="none" /><path d="M 111.60114157652 82.49532879139004 l 31.741204323551276 -47.89350615060273 a78.4568706362194,78.4568706362194 0 0,0 1.1193004825792652,0.7557566822872117 l -32.560909500537086 47.340037556016846" fill="#41ffcd" stroke="none" /><path d="M 111.90073688211348 82.69761687909136 l 19.23139946448953 -27.960372940094924 a54.93566236736747,54.93566236736747 0 0,0 0.7745113787297048,0.5425947165616605 l -19.70984198280289 27.62519338076933" fill="#ff920d" stroke="none" /><path d="M 112.48926042617603 83.11751280151076 l 33.83817227078721 -45.741100008173305 a77.89701338897486,77.89701338897486 0 0,0 1.071098201276249,0.8067289590068059 l -34.62051662582184 45.15185445966065" fill="#40ffc3" stroke="none" /><path d="M 112.77801427241765 83.33499621200491 l 20.930353575804485 -27.297232119843557 a55.39794444749294,55.39794444749294 0 0,0 0.7517433656486613,0.5867476208444633 l -21.397129496612575 26.93290610977587" fill="#ff9d0e" stroke="none" /><path d="M 113.89432698308785 84.25364557470407 l 36.338436056759654 -41.18212376224983 a75.92221092254455,75.92221092254455 0 0,0 0.9724876445516284,0.8731090092486182 l -37.04193468890727 40.55051574423191" fill="#3bff9d" stroke="none" /><path d="M 114.16331599549186 84.49514656593476 l 38.42279373342927 -42.06216860188416 a77.96961563653893,77.96961563653893 0 0,0 0.983130453528645,0.913712611127392 l -39.14113207075277 41.394551404682126" fill="#40ffc4" stroke="none" /><path d="M 114.94478906791727 85.2469230424477 l 32.354924080012786 -31.939874342750617 a66.464235232258,66.464235232258 0 0,0 0.7967344377905824,0.82110487307749 l -32.899922781506476 31.37820527412301" fill="#78ff26" stroke="none" /><path d="M 115.19652480421416 85.50635884689758 l 33.7909027683079 -32.22797483457638 a67.69547592471167,67.69547592471167 0 0,0 0.7969778001595486,0.8501603495400862 l -34.340647890437914 31.64154506815824" fill="#61ff29" stroke="none" /><path d="M 115.9244219780498 86.31012108654704 l 42.92210970654291 -36.89920333701664 a77.60263870675116,77.60263870675116 0 0,0 0.8620891416989939,1.02044162685882 l -43.55090946172903 36.15490276052871" fill="#3fffbd" stroke="none" /><path d="M 117.2510076193507 88.02491185347247 l 32.336607530189525 -22.447020723550082 a60.36400546089024,60.36400546089024 0 0,0 0.5851730793369632,0.8586692873615768 l -32.71820507519522 21.8870734129181" fill="#f2ff19" stroke="none" /><path d="M 117.45458315368197 88.32363383020206 l 37.74625501304247 -25.250622784301957 a66.41336497667557,66.41336497667557 0 0,0 0.6274588127892657,0.9556628193528173 l -38.17531046118966 24.597141900971465" fill="#79ff26" stroke="none" /><line stroke="#e1ed5e" stroke-width="0.3" x1="172.23445277983987" x2="176.4835382374775" y1="55.19839476539836" y2="52.563006222186495" /><path d="M 173.08426987136738 54.67131705675599 a86.0,86.0 0 0,1 12.851231095245387,41.99856678651699" fill="none" id="id51" stroke="none" /><text fill="#e1ed5e" style="font-size:6.75px; font-family:Arial;" text-anchor="middle"><textPath startOffset="22.20632615414155" xlink:href="#id51">March</textPath></text><path d="M 118.03404312379186 89.2402003453031 l 34.75824980104569 -20.738100804126503 a61.47474217575704,61.47474217575704 0 0,0 0.5343628308864471,0.913399294241547 l -35.11007230640247 20.13672209753106" fill="#dbff1b" stroke="none" /><path d="M 118.21658344932153 89.55222093294921 l 39.7318409835187 -22.787450658781907 a66.80269746931982,66.80269746931982 0 0,0 0.5635041617973015,1.002411026353328 l -40.118202786608435 22.100156122493786" fill="#72ff27" stroke="none" /><path d="M 118.56541770881063 90.18545643968196 l 49.895166176669036 -26.376906222682432 a77.43818556330103,77.43818556330103 0 0,0 0.6128331406579568,1.1837985668802284 l -50.34180875048711 25.51413493354186" fill="#3fffba" stroke="none" /><path d="M 118.73160827565052 90.50648371742162 l 50.37102948015434 -25.52894452537201 a77.47094491391213,77.47094491391213 0 0,0 0.5926157898789561,1.1946772704903093 l -50.8030052829867 24.65810766638275" fill="#3fffbb" stroke="none" /><path d="M 119.04729006885535 91.15688171328212 l 41.12096718600952 -19.09130251996942 a66.33664934930528,66.33664934930528 0 0,0 0.47193055777148113,1.0398364272834664 l -41.44350006074435 18.38064408384389" fill="#7bff26" stroke="none" /><path d="M 119.34039704204932 91.81776055985345 l 42.70363447128966 -18.06640067672385 a67.36804104627934,67.36804104627934 0 0,0 0.4426346981593827,1.0718750310622662 l -43.008290856335236 17.328651075208278" fill="#67ff28" stroke="none" /><path d="M 119.47837535516314 92.15188598940014 l 31.86744045606632 -12.83984425625707 a55.35688230538199,55.35688230538199 0 0,0 0.34850175710528875,0.8868989589291769 l -32.083735763053305 12.289396292432109" fill="#ff9c0e" stroke="none" /><path d="M 119.61058180528143 92.48833698450437 l 58.83174541584429 -22.534989046486903 a84.0,84.0 0 0,0 0.505581645993499,1.354707451882667 l -59.21093165033941 21.518958457574904" fill="#4dd2ff" stroke="none" /><path d="M 119.7369772167798 92.82701384747503 l 52.79772533665374 -19.188214515577364 a77.17639519424989,77.17639519424989 0 0,0 0.4430179368986402,1.2524713650494277 l -53.12019635436219 18.276545524101323" fill="#3effb5" stroke="none" /><path d="M 119.97218684219823 93.5106431181261 l 32.080649039122086 -10.423634740746028 a54.73159059368254,54.73159059368254 0 0,0 0.28341715912888593,0.8985098451614009 l -32.25532168201918 9.869874729158207" fill="#ff8d0d" stroke="none" /><path d="M 120.18372546131832 94.20196356495316 l 32.70046136312788 -9.393630863123784 a55.02294041017106,55.02294041017106 0 0,0 0.25366421685920104,0.9125651522626266 l -32.85731235055344 8.829354407442207" fill="#ff940d" stroke="none" /><path d="M 120.28053869075195 94.5502522615342 l 32.4953683322402 -8.732093500060426 a54.64815626363139,54.64815626363139 0 0,0 0.23629776406012498,0.9105516768480764 l -32.64086242817062 8.171445397663499" fill="#ff8b0c" stroke="none" /><path d="M 120.37134235888165 94.90015583598534 l 44.09814693912 -11.039708299501466 a66.4590114587009,66.4590114587009 0 0,0 0.268264014228009,1.1121275293287738 l -44.281643753608826 10.278995538513286" fill="#78ff26" stroke="none" /><path d="M 120.45610955862082 95.25157060432595 l 32.5868472557314 -7.564309478204018 a54.45327176750305,54.45327176750305 0 0,0 0.20408467305742703,0.9148715723335095 l -32.712226315790865 7.0022597363205445" fill="#ff870c" stroke="none" /><path d="M 120.67395015179393 96.31383870115 l 33.68167172882636 -6.005435530983722 a55.2128669708521,55.2128669708521 0 0,0 0.15877153602387242,0.9370785931542268 l -33.78005512637045 5.424771149513658" fill="#ff990e" stroke="none" /><path d="M 120.78858239683441 97.02765380044208 l 33.00254527458156 -4.718695491116214 a54.33817754075177,54.33817754075177 0 0,0 0.12441890381261773,0.9270653494516745 l -33.078880177452014 4.149911799599875" fill="#ff840c" stroke="none" /><path d="M 120.94382443527127 98.46500227214037 l 33.06852682581405 -2.4236315434255333 a54.157223289773086,54.157223289773086 0 0,0 0.06013878285521011,0.9303203527147645 l -33.105346199673676 1.8540521264577334" fill="#ff800b" stroke="none" /><line stroke="#e1ed5e" stroke-width="0.3" x1="184.98032266829074" x2="189.97916517819016" y1="98.17113171792111" y2="98.06355123074" /><path d="M 185.9800911702706 98.14961562048488 a86.0,86.0 0 0,1 -9.607161424134198,41.387399972396054" fill="none" id="id52" stroke="none" /><text fill="#e1ed5e" style="font-size:6.75px; font-family:Arial;" text-anchor="middle"><textPath startOffset="21.466115282336823" xlink:href="#id52">April</textPath></text><path d="M 120.99824983174949 100.27111621757518 l 56.318710694640494 0.7271518314424166 a77.32340476296318,77.32340476296318 0 0,0 -0.028638885487053505,1.330736474243716 l -56.29784974646843 -1.6964781214762474" fill="#3effb8" stroke="none" /><path d="M 120.9904718944345 100.63252640178507 l 28.166708809294246 0.8487749614621379 a49.17949439011955,49.17949439011955 0 0,0 -0.032781334710375774,0.8459405882884868 l -28.14792534173267 -1.3334927967646308" fill="#ff0400" stroke="none" /><path d="M 120.9764740272857 100.99374915477107 l 28.417226365354146 1.3462507876574146 a49.44909744584258,49.44909744584258 0 0,0 -0.04759746212850634,0.8498846604709698 l -28.38984255233811 -1.8352071644638077" fill="#ff0b01" stroke="none" /><path d="M 120.92983693683757 101.71520430193887 l 47.836516991260275 3.920212086734914 a68.99687928042943,68.99687928042943 0 0,0 -0.10719290676885265,1.1828647939534336 l -47.76194948821435 -4.7430582692369185" fill="#4aff2c" stroke="none" /><path d="M 120.89721153311464 102.0752229133903 l 33.566985721116495 3.3334101916670207 a54.732093826318405,54.732093826318405 0 0,0 -0.10117018649362702,0.9367102777202636 l -33.504633233121815 -3.9107167912720757" fill="#ff8d0d" stroke="none" /><path d="M 120.8583938346157 102.4346265915055 l 43.6296326839929 5.092523650300711 a64.92583118472562,64.92583118472562 0 0,0 -0.13912211496221788,1.1089401397188035 l -43.53550905978384 -5.842781544306909" fill="#96ff23" stroke="none" /><path d="M 120.64145759157962 103.86396538481128 l 53.93046797539 10.0954818970046 a75.86724096195574,75.86724096195574 0 0,0 -0.2513375732702239,1.2815648712610628 l -53.74870046914412 -11.022310495333608" fill="#3bff9c" stroke="none" /><path d="M 120.23288151984713 105.62410040840565 l 43.55337455236073 12.106459051178556 a66.20467659054853,66.20467659054853 0 0,0 -0.31465305696720147,1.0953485699058516 l -43.33852885850743 -12.85436509658899" fill="#7dff26" stroke="none" /><path d="M 120.13307415673323 105.97154293290107 l 38.106737553785905 11.302596789925563 a60.74760547742156,60.74760547742156 0 0,0 -0.30597477589861954,0.9999432712187404 l -37.90653600538115 -11.95686703369636" fill="#eaff1a" stroke="none" /><path d="M 119.9155931802556 106.66101706037122 l 34.77312497556224 11.630302778742942 a57.66652646885584,57.66652646885584 0 0,0 -0.3229577266853487,0.9386663269084907 l -34.56777641793366 -12.227141808740734" fill="#ffd113" stroke="none" /><path d="M 119.79798401119884 107.00284435728193 l 31.33431015860455 11.083416218509125 a54.236743345104365,54.236743345104365 0 0,0 -0.31890104596221963,0.8774787159386793 l -31.1388848516371 -11.621142731453935" fill="#ff820b" stroke="none" /><path d="M 119.67450827220406 107.3425965602758 l 41.26737204668679 15.401130226452098 a65.04759707284613,65.04759707284613 0 0,0 -0.40052506667693666,1.0456445621869632 l -40.996152700416346 -16.109198355472206" fill="#93ff23" stroke="none" /><path d="M 119.41010516605496 108.01547362559984 l 30.680981332398783 12.669822990317485 a54.19408125140655,54.19408125140655 0 0,0 -0.3634849128307095,0.8591709622243334 l -30.458345438375765 -13.196068478207982" fill="#ff810b" stroke="none" /><path d="M 119.26925614724726 108.34839909993367 l 26.766599550637384 11.596620745982896 a50.1707467204791,50.1707467204791 0 0,0 -0.350141438932165,0.789476510151731 l -26.563017026973945 -12.055645592627314" fill="#ff1e03" stroke="none" /><path d="M 118.81262510543309 109.33194174019688 l 30.46859554347878 15.11384811656356 a55.01122931154719,55.01122931154719 0 0,0 -0.4280956319421728,0.8446732952650325 l -30.20392124175034 -15.636075623531285" fill="#ff940d" stroke="none" /><line stroke="#e1ed5e" stroke-width="0.3" x1="174.80103733775053" x2="179.2010983576182" y1="140.37084112569926" y2="142.7455964860345" /><path d="M 175.68104954172406 140.8457921977663 a86.0,86.0 0 0,1 -30.038265399797805,32.042727171017184" fill="none" id="id53" stroke="none" /><text fill="#e1ed5e" style="font-size:6.75px; font-family:Arial;" text-anchor="middle"><textPath startOffset="22.206326154141568" xlink:href="#id53">May</textPath></text><path d="M 118.48025628344425 109.97397251340804 l 30.14136536297347 16.26758552673368 a55.25107654970646,55.25107654970646 0 0,0 -0.4589091025461572,0.8330533202807975 l -29.8568798509758 -16.78400936541228" fill="#ff9a0e" stroke="none" /><path d="M 118.30583269289576 110.29060199501025 l 24.420665800375136 13.728048126559473 a49.01478580140753,49.01478580140753 0 0,0 -0.41977197073342065,0.7319078136584305 l -24.180741833489336 -14.14637578607622" fill="#ff0000" stroke="none" /><path d="M 117.94076556474637 110.91462005526583 l 29.183252946601538 17.754209915923155 a55.159540721209815,55.159540721209815 0 0,0 -0.5004687127173993,0.8069149176077258 l -28.873319594216177 -18.253921164896155" fill="#ff970e" stroke="none" /><path d="M 117.55443506779139 111.5257021239791 l 33.08709509321581 21.723968941152364 a60.58139320771387,60.58139320771387 0 0,0 -0.5798415192686917,0.866784397376242 l -32.70825046853639 -22.290290252734412" fill="#eeff19" stroke="none" /><path d="M 117.35343817320211 111.8261652097733 l 27.668851731136748 18.855998936420914 a54.483041259866695,54.483041259866695 0 0,0 -0.5348135571598488,0.7704388173686928 l -27.340177266814763 -19.329479015976627" fill="#ff880c" stroke="none" /><path d="M 117.14729908036423 112.12312394758627 l 36.116456852757956 25.53430023711558 a65.23119876508309,65.23119876508309 0 0,0 -0.6561022546071035,0.911268647324431 l -35.67157480577525 -26.152202489891142" fill="#90ff24" stroke="none" /><path d="M 116.71984013943494 112.70617746262583 l 31.388050889283427 23.853227152843118 a60.42316811512462,60.42316811512462 0 0,0 -0.6364377556739114,0.8226815918813611 l -30.97280631639145 -24.38998673883773" fill="#f1ff19" stroke="none" /><path d="M 116.27256486870786 113.27417163493432 l 34.71533774525101 28.318667359030023 a65.80068744738458,65.80068744738458 0 0,0 -0.7235067591121813,0.8715104994126309 l -34.222734986245285 -28.912039115556425" fill="#85ff25" stroke="none" /><path d="M 116.0416608686014 113.55231037782055 l 30.145800185196617 25.467764469276183 a60.46360723335269,60.46360723335269 0 0,0 -0.6785096163290478,0.789259971903079 l -29.702948059296787 -25.98290154034079" fill="#f0ff19" stroke="none" /><path d="M 115.56566222782051 114.09645910891815 l 25.073344693757768 22.706735699792674 a54.827037414947085,54.827037414947085 0 0,0 -0.639527607321154,0.6940809095106644 l -24.678770678440895 -23.134967864104674" fill="#ff900d" stroke="none" /><path d="M 115.07121518719521 114.62390073753431 l 24.482253027421944 23.755618485787622 a55.113195730406225,55.113195730406225 0 0,0 -0.6665006066136138,0.6751615956548213 l -24.069711795752795 -24.173520575423108" fill="#ff960d" stroke="none" /><path d="M 114.29624159901734 115.38237550388516 l 26.198719546244902 28.189125022132757 a59.48375859211553,59.48375859211553 0 0,0 -0.7560115222685684,0.6905986007321553 l -25.70960847450947 -28.635916389451495" fill="#fff917" stroke="none" /><path d="M 114.0293411484842 115.62618273729858 l 25.67264567646389 28.594746427824003 a59.428430351769684,59.428430351769684 0 0,0 -0.7670728810288294,0.6768526314733632 l -25.176630442528474 -29.032422201069654" fill="#fff817" stroke="none" /><line stroke="#e1ed5e" stroke-width="0.3" x1="143.8653032363475" x2="146.44561519142675" y1="172.8068346515853" y2="177.08958963109032" /><path d="M 144.38136562736335 173.6633856474863 a86.0,86.0 0 0,1 -40.68145358897372,12.25698825130547" fill="none" id="id54" stroke="none" /><text fill="#e1ed5e" style="font-size:6.75px; font-family:Arial;" text-anchor="middle"><textPath startOffset="21.466115282336833" xlink:href="#id54">June</textPath></text><line stroke="#e1ed5e" stroke-width="0.3" x1="102.19456741930631" x2="102.32365962044197" y1="184.97166512339345" y2="189.96999836594603" /><path d="M 102.22038585953345 185.97133177190398 a86.0,86.0 0 0,1 -42.740103519485714,-10.115201625700543" fill="none" id="id55" stroke="none" /><text fill="#e1ed5e" style="font-size:6.75px; font-family:Arial;" text-anchor="middle"><textPath startOffset="22.20632615414155" xlink:href="#id55">July</textPath></text><line stroke="#e1ed5e" stroke-width="0.3" x1="58.666819895761336" x2="56.23545636021788" y1="174.27360380694188" y2="178.64263932499728" /><path d="M 58.180547188652646 175.14741091055294 a86.0,86.0 0 0,1 -31.652253787137756,-30.449443065178592" fill="none" id="id56" stroke="none" /><text fill="#e1ed5e" style="font-size:6.75px; font-family:Arial;" text-anchor="middle"><textPath startOffset="22.20632615414155" xlink:href="#id56">August</textPath></text><line stroke="#e1ed5e" stroke-width="0.3" x1="26.63291911575756" x2="22.317208475507996" y1="142.92168965132927" y2="145.44649492493687" /><path d="M 25.769776987707644 143.4266507060508 a86.0,86.0 0 0,1 -11.730757126820373,-40.83630448921669" fill="none" id="id57" stroke="none" /><text fill="#e1ed5e" style="font-size:6.75px; font-family:Arial;" text-anchor="middle"><textPath startOffset="21.46611528233685" xlink:href="#id57">September</textPath></text><line stroke="#e1ed5e" stroke-width="0.3" x1="15.007084014347285" x2="10.007500721073583" y1="101.09737516637583" y2="101.16192664675087" /><path d="M 14.007167355692545 101.11028546245083 a86.0,86.0 0 0,1 10.666146001902534,-42.60595125391555" fill="none" id="id58" stroke="none" /><text fill="#e1ed5e" style="font-size:6.75px; font-family:Arial;" text-anchor="middle"><textPath startOffset="22.20632615414155" xlink:href="#id58">October</textPath></text><line stroke="#e1ed5e" stroke-width="0.3" x1="26.266209847984243" x2="21.928928074336255" y1="57.711370442889674" y2="55.22380399835377" /><path d="M 25.398753493254645 57.213857153982495 a86.0,86.0 0 0,1 29.58750427330803,-30.492523968695096" fill="none" id="id59" stroke="none" /><text fill="#e1ed5e" style="font-size:6.75px; font-family:Arial;" text-anchor="middle"><textPath startOffset="21.46611528233685" xlink:href="#id59">November</textPath></text><line stroke="#e1ed5e" stroke-width="0.3" x1="56.762969772571076" x2="54.21961505331055" y1="26.818313649435495" y2="22.513508569990535" /><path d="M 56.25429882871897 25.957352633546506 a86.0,86.0 0 0,1 42.265352541879196,-11.944610805530505" fill="none" id="id60" stroke="none" /><text fill="#e1ed5e" style="font-size:6.75px; font-family:Arial;" text-anchor="middle"><textPath startOffset="22.20632615414155" xlink:href="#id60">December</textPath></text></svg>