<?xml version="1.0" encoding="utf-8" ?>
<svg baseProfile="full" height="200mm" version="1.1" viewBox="0,0,200,200" width="200mm" xmlns="http://www.w3.org/2000/svg" xmlns:ev="http://www.w3.org/2001/xml-events" xmlns:xlink="http://www.w3.org/1999/xlink"><defs /><rect fill="#1a1a1a" height="200" width="200" x="0" y="0" /><text alignment-baseline="middle" fill="#e1ed5e" style="dominant-baseline: central; font-size:9.0px; font-family:Arial;" text-anchor="middle" x="100.0" y="100.0">2018</text><line stroke="#e1ed5e" stroke-width="0.3" x1="100.0" x2="100.0" y1="15.0" y2="10.0" /><path d="M 100.0 14.0 a86.0,86.0 0 0,1 42.46469731375804,11.215312516191453" fill="none" id="id73" stroke="none" /><text fill="#e1ed5e" style="font-size:6.75px; font-family:Arial;" text-anchor="middle"><textPath startOffset="22.20632615414155" xlink:href="#id73">January</textPath></text><path d="M 100.0 79.0 l 0.0 -23.30649334535528 a44.30649334535528,44.30649334535528 0 0,0 0.7626634499697198,0.006564485095333695 l -0.4011829706971914 23.303040236868505" fill="#f9ff18" stroke="none" /><path d="M 100.36148047927253 79.00311137660856 l 0.20068543274109746 -11.65697712939315 a32.658704492271404,32.658704492271404 0 0,0 0.561999330121362,0.014514784637505806 l -0.40131139805732735 11.651795552613283" fill="#ff6409" stroke="none" /><path d="M 100.72285384407766 79.0124445844662 l 0.48014519836465813 -13.940679766376245 a34.94894590139931,34.94894590139931 0 0,0 0.6010539147914123,0.025882645921413552 l -0.7200399455454021 13.930349393930637" fill="#ff850c" stroke="none" /><path d="M 101.08401301168833 79.027996857942 l 0.7136704488390683 -13.807121071485957 a34.82555307364655,34.82555307364655 0 0,0 0.5983991056724751,0.03609706821123751 l -0.9512316033511554 13.792790733894416" fill="#ff840c" stroke="none" /><path d="M 101.44485096284872 79.0497635885617 l 0.9484132180893657 -13.751924347636423 a34.78458961650154,34.78458961650154 0 0,0 0.5969860646091426,0.0463376083049281 l -1.1849894720608496 13.73356147714303" fill="#ff830c" stroke="none" /><path d="M 101.80526077348638 79.07773832637324 l 1.1486084142623212 -13.311919339672693 a34.36138083415281,34.36138083415281 0 0,0 0.5888475028902125,0.055918165700655414 l -1.3775810442427778 13.29017562945686" fill="#ff7d0b" stroke="none" /><path d="M 102.16513564639614 79.11191278185805 l 2.8876678721106415 -27.858697199906395 a49.00795664477672,49.00795664477672 0 0,0 0.8383471342740764,0.09419806868193072 l -3.3667817098944433 27.804863177753862" fill="#beff1f" stroke="none" /><path d="M 102.52436894288641 79.15227682838746 l 1.6912755252617384 -13.967547832871173 a35.069570191228074,35.069570191228074 0 0,0 0.5986630662435973,0.07772364774346484 l -1.931453320013182 13.936365861963571" fill="#ff870c" stroke="none" /><path d="M 102.88285421437855 79.19881850522331 l 1.9057166934127263 -13.75066370667967 a34.882093087490425,34.882093087490425 0 0,0 0.5940437388410352,0.08754660522482295 l -2.1421294126824173 13.71582261729388" fill="#ff840c" stroke="none" /><path d="M 103.2404852339499 79.25152402106235 l 2.303204151238122 -14.747166722405874 a35.92593969238506,35.92593969238506 0 0,0 0.6101777823947558,0.10068456230012056 l -2.556711139771753 14.70533589716613" fill="#ff930d" stroke="none" /><path d="M 103.59715602781102 79.31037775812273 l 2.396890938566549 -13.786104269738319 a34.99291810550893,34.99291810550893 0 0,0 0.5925548764364577,0.10828561615331067 l -2.6338409361059076 13.74280317223427" fill="#ff860c" stroke="none" /><path d="M 103.95276090670814 79.375362276772 l 2.5010324316147163 -13.049837582778553 a34.287340748279476,34.287340748279476 0 0,0 0.5786945376779445,0.1160806801826382 l -2.7252933787597864 13.004852946518707" fill="#ff7c0b" stroke="none" /><path d="M 104.307194497241 79.44645832069477 l 7.424260867127792 -35.42789982395531 a57.19745481880428,57.19745481880428 0 0,0 0.9618903490076469,0.210231974061095 l -8.032993940288968 35.29485435179834" fill="#5fff29" stroke="none" /><path d="M 104.66035177308747 79.52364482259891 l 3.035107913594156 -13.33546278617543 a34.676492524351104,34.676492524351104 0 0,0 0.5808746994898975,0.13747427406042087 l -3.2642063000465766 13.281242599974142" fill="#ff810b" stroke="none" /><path d="M 105.01212808612495 79.60689891045804 l 3.4049738016489637 -13.853990510835926 a35.266285419276024,35.266285419276024 0 0,0 0.588260300546157,0.14996064877118528 l -3.6429429908801456 13.793326865895873" fill="#ff8a0c" stroke="none" /><path d="M 105.36241919743992 79.69619591428918 l 4.765275258373234 -18.04282949506934 a39.66149898792185,39.66149898792185 0 0,0 0.6585737339828575,0.18001307926444218 l -5.075146881579802 17.958129874978606" fill="#ffc712" stroke="none" /><path d="M 105.71112130821622 79.79150937346287 l 4.673761148291006 -16.53784839415574 a38.18558910190029,38.18558910190029 0 0,0 0.6309891885882426,0.1842030470117259 l -4.957740554602676 16.45494701822531" fill="#ffb310" stroke="none" /><path d="M 106.0581310904928 79.89281104454417 l 5.666171346828359 -18.806258270551872 a40.641304637684314,40.641304637684314 0 0,0 0.6680939444308738,0.20758004064935287 l -5.989050663969951 18.70593809502" fill="#ffd413" stroke="none" /><path d="M 106.40334571778207 80.00007090966166 l 5.656782369192679 -17.668145880231567 a39.55161894869428,39.55161894869428 0 0,0 0.6466071520575736,0.2131762118247871 l -5.96007234349267 17.56815594414754" fill="#ffc612" stroke="none" /><path d="M 106.74666289553966 80.11325718540242 l 14.076040209803613 -41.491118770046064 a64.81378601283022,64.81378601283022 0 0,0 1.053433883379573,0.367522397194616 l -14.78815609724646 41.242675519679246" fill="#34ff57" stroke="none" /><path d="M 107.08798089147638 80.2323363322302 l 5.995161324801441 -16.719900140420826 a38.76223578314507,38.76223578314507 0 0,0 0.6261350223911183,0.23061081291747113 l -6.2820786729651354 16.614226059697028" fill="#ffbb11" stroke="none" /><path d="M 107.4271985657038 80.35727306442388 l 6.726504332338943 -17.789599491956388 a40.01882516395767,40.01882516395767 0 0,0 0.6422389427232712,0.24917873199600238 l -7.031726440061882 17.671178056069838" fill="#ffcc13" stroke="none" /><path d="M 107.76421540070413 80.48803036053334 l 6.912896751604056 -17.372551452634017 a39.69742456791187,39.69742456791187 0 0,0 0.6327318256513494,0.25810719863318543 l -7.2109124468437935 17.250983367817252" fill="#ffc812" stroke="none" /><path d="M 108.09893153111575 80.62456947434976 l 7.164915885008636 -17.140943767552464 a39.57815849005613,39.57815849005613 0 0,0 0.6263078525235611,0.26815233677755546 l -7.458907495322513 17.015071902812117" fill="#ffc612" stroke="none" /><path d="M 108.43124777332544 80.76684994638697 l 7.6222210576845155 -17.387618687718145 a39.984929219823144,39.984929219823144 0 0,0 0.6279878404065623,0.28175983858425335 l -7.920391016557859 17.25383851861736" fill="#ffcc13" stroke="none" /><path d="M 108.76106565485865 80.91482961587045 l 5.761656355542472 -12.551234926466845 a34.810509843547564,34.810509843547564 0 0,0 0.5424170141227898,0.2546720611487514 l -5.97685158096486 12.450197882678092" fill="#ff830c" stroke="none" /><path d="M 109.08828744355905 81.06846463323043 l 8.378741507953182 -17.453501792491483 a40.36047608086126,40.36047608086126 0 0,0 0.6237206745417941,0.30605702620850933 l -8.677933449505408 17.306689606148144" fill="#ffd113" stroke="none" /><path d="M 109.41281617654863 81.2277094730956 l 20.616165362269374 -41.115500236309614 a66.99468049597053,66.99468049597053 0 0,0 1.0264207541390793,0.5257725766684179 l -21.320846603997207 40.7545351343287" fill="#36ff72" stroke="none" /><path d="M 109.73455568895987 81.39251694778311 l 7.762225924834468 -14.83739905126259 a37.74516532956842,37.74516532956842 0 0,0 0.5731063302352735,0.30613355368256817 l -8.016477301598051 14.701586771078269" fill="#ffad10" stroke="none" /><path d="M 110.05341064243156 81.56283822128135 l 6.646790782143647 -12.189689779750047 a34.884104747088756,34.884104747088756 0 0,0 0.5247165887568194,0.29200421354457323 l -6.855631459972502 12.073470168645294" fill="#ff840c" stroke="none" /><path d="M 110.36928655335952 81.73862282372117 l 8.442074296096454 -14.867358721149312 a38.09698727156767,38.09698727156767 0 0,0 0.5674696238939602,0.32871503378915534 l -8.696740652455743 14.719839529970107" fill="#ffb210" stroke="none" /><line stroke="#e1ed5e" stroke-width="0.3" x1="143.23703022742887" x2="145.7803849466894" y1="26.81831364943548" y2="22.513508569990506" /><path d="M 143.74570117128098 25.957352633546492 a86.0,86.0 0 0,1 28.547481713284135,27.462654790039103" fill="none" id="id74" stroke="none" /><text fill="#e1ed5e" style="font-size:6.75px; font-family:Arial;" text-anchor="middle"><textPath startOffset="19.985693538727396" xlink:href="#id74">February</textPath></text><path d="M 110.68208982089419 81.91981866633111 l 11.694619282835387 -19.793957999520444 a43.990539216322105,43.990539216322105 0 0,0 0.6486256985197125,0.3907897258356509 l -12.033607047572737 19.58972166422618" fill="#fdff18" stroke="none" /><path d="M 110.99172775467656 82.1063720568725 l 12.756260106631188 -20.766141355411968 a45.37118788038411,45.37118788038411 0 0,0 0.6619458571747324,0.4145104350357878 l -13.111825116178183 20.543486579053237" fill="#ecff1a" stroke="none" /><path d="M 111.2981086023043 82.29822771554956 l 29.022534971341738 -45.47223993540029 a74.94471374384489,74.94471374384489 0 0,0 1.0814628336925263,0.7034135098794302 l -29.800964830818543 44.965927501361335" fill="#41ffce" stroke="none" /><path d="M 111.60114157652 82.49532879139004 l 12.142341265580484 -18.321273829370956 a42.979661647546166,42.979661647546166 0 0,0 0.6131668983619061,0.41401302689201447 l -12.455912858348933 18.10954889018027" fill="#fff417" stroke="none" /><path d="M 111.90073688211348 82.69761687909136 l 11.989296983800722 -17.431139921751992 a42.15627285552607,42.15627285552607 0 0,0 0.5943409363683939,0.416373807753113 l -12.287569059752766 17.222181271234945" fill="#ffe915" stroke="none" /><path d="M 112.19680574252982 82.90503203632743 l 13.240766362737974 -18.558176752475706 a43.797452012203976,43.797452012203976 0 0,0 0.6099414272732969,0.4431483865063364 l -13.55825310636506 18.327509131152695" fill="#fffe18" stroke="none" /><path d="M 112.48926042617603 83.11751280151076 l 8.269950996598494 -11.178991955327142 a34.90546477552654,34.90546477552654 0 0,0 0.4799565337516462,0.36149331067928686 l -8.461153684108522 11.034982055142008" fill="#ff850c" stroke="none" /><path d="M 112.77801427241765 83.33499621200491 l 14.231290520897298 -18.560357296731972 a44.38838371654897,44.38838371654897 0 0,0 0.602344966109891,0.47013980028630636 l -14.54866804216662 18.31263910722244" fill="#f8ff18" stroke="none" /><path d="M 113.06298171725822 83.55741782278167 l 14.31800235895812 -18.022296554984987 a44.01756643667949,44.01756643667949 0 0,0 0.5891994442291584,0.4764249744918257 l -14.62610520175177 17.773165483229032" fill="#fdff18" stroke="none" /><path d="M 113.34407831869373 83.78471172551755 l 14.730657047109169 -17.900213471978045 a44.18210299739718,44.18210299739718 0 0,0 0.5830827070011723,0.4883149985525214 l -15.036597291069459 17.643997316031705" fill="#fbff18" stroke="none" /><path d="M 113.6212207817346 84.01681056812373 l 30.492202627402584 -35.77966017865742 a68.01019574061334,68.01019574061334 0 0,0 0.8844764862861394,0.7670092931313146 l -31.103572912335487 35.24948589210644" fill="#38ff7f" stroke="none" /><path d="M 113.89432698308785 84.25364557470407 l 14.682090569425627 -16.63912200222972 a43.190632359036144,43.190632359036144 0 0,0 0.5532288353981814,0.4966943107899089 l -14.966330392419799 16.38392868267051" fill="#fff617" stroke="none" /><path d="M 114.16331599549186 84.49514656593476 l 14.653996944984886 -16.042011272469676 a42.727534423621805,42.727534423621805 0 0,0 0.5387578219171119,0.500716679523393 l -14.927962650696845 15.787390006871643" fill="#fff016" stroke="none" /><path d="M 114.42810811169701 84.74124197986012 l 14.928225385314118 -15.787667867552853 a42.727916831829454,42.727916831829454 0 0,0 0.5300637285822175,0.5099208869271515 l -15.197772357508754 15.5283638938634" fill="#fff016" stroke="none" /><path d="M 114.68862486808459 84.99185889309783 l 7.646203562144442 -7.812528607909508 a31.931607025646084,31.931607025646084 0 0,0 0.38951116967124433,0.3878384849224339 l -7.779550531983009 7.679754272336955" fill="#ff5a08" stroke="none" /><path d="M 114.94478906791727 85.2469230424477 l 8.015792126371789 -7.912965353922214 a32.263567112845614,32.263567112845614 0 0,0 0.38675680108173077,0.39858688039733225 l -8.15081319115663 7.773814277974767" fill="#ff5e08" stroke="none" /><path d="M 115.19652480421416 85.50635884689758 l 8.560896456763524 -8.164929994967544 a32.830259082798946,32.830259082798946 0 0,0 0.3865101368306627,0.41230206533100494 l -8.700173915564651 8.016358512758483" fill="#ff6709" stroke="none" /><path d="M 115.4437574822437 85.77008943001954 l 5.052853388051617 -4.655709720763586 a27.870732156412245,27.870732156412245 0 0,0 0.32204811421145624,0.35561357133655297 l -5.13224514287911 4.568043362157484" fill="#ff1c02" stroke="none" /><path d="M 115.68641384162765 86.03803664274999 l 6.634864952707101 -5.905476056239684 a29.88234655884813,29.88234655884813 0 0,0 0.33867817220915925,0.3871676972769024 l -6.735534988494108 5.790392802759834" fill="#ff3b05" stroke="none" /><path d="M 115.9244219780498 86.31012108654704 l 15.230192214939734 -13.093064698896713 a41.08449895101957,41.08449895101957 0 0,0 0.4564084550225015,0.540243652109353 l -15.453311283449352 12.828962097158254" fill="#ffda14" stroke="none" /><path d="M 116.15771136456269 86.58626213691792 l 13.31338438456038 -11.052446981854875 a38.30325946340079,38.30325946340079 0 0,0 0.416778692655983,0.5109213967288991 l -13.501661569292772 10.821641415517874" fill="#ffb510" stroke="none" /><path d="M 116.38621287248628 86.86637796730983 l 4.958139700353994 -3.973970881280553 a27.354179243103875,27.354179243103875 0 0,0 0.29131669363911766,0.3699426172482581 l -5.025810474587076 3.8880358700792566" fill="#ff1402" stroke="none" /><path d="M 116.60985879189232 87.15038557335679 l 18.16815060252848 -14.055130330284987 a43.970162927533906,43.970162927533906 0 0,0 0.4579682164055902,0.60263249035884 l -18.407394759158183 13.740313064045113" fill="#feff18" stroke="none" /><path d="M 116.82858285166822 87.43820079747576 l 7.466315020530015 -5.573276781377425 a30.317042130828476,30.317042130828476 0 0,0 0.30856597054083806,0.42088363704429077 l -7.561143603584479 5.443930700661641" fill="#ff4106" stroke="none" /><path d="M 117.04232023915458 87.72973835380427 l 15.338148280329566 -11.04327872770493 a39.90007401380103,39.90007401380103 0 0,0 0.39650675788434797,0.5608306896987679 l -15.525967658017796 10.777621537674369" fill="#ffca12" stroke="none" /><path d="M 117.2510076193507 88.02491185347247 l 13.717954889903927 -9.522557906265124 a37.69914355407521,37.69914355407521 0 0,0 0.36545825204057075,0.5362648896898125 l -13.879837607613233 9.285014993304905" fill="#ffac0f" stroke="none" /><path d="M 117.45458315368197 88.32363383020206 l 30.774826202184123 -20.5870364468024 a58.02588280428448,58.02588280428448 0 0,0 0.548215732604608,0.8349701716763467 l -31.124638570146658 20.054248211148384" fill="#56ff2a" stroke="none" /><path d="M 117.65298651832404 88.62581576622439 l 18.36779291660729 -11.83474877661463 a42.850333984471504,42.850333984471504 0 0,0 0.39416676273542745,0.6234771592946267 l -18.568787275588672 11.516823969605797" fill="#fff216" stroke="none" /><line stroke="#e1ed5e" stroke-width="0.3" x1="172.23445277983987" x2="176.4835382374775" y1="55.19839476539836" y2="52.563006222186495" /><path d="M 173.08426987136738 54.67131705675599 a86.0,86.0 0 0,1 12.851231095245387,41.99856678651699" fill="none" id="id75" stroke="none" /><text fill="#e1ed5e" style="font-size:6.75px; font-family:Arial;" text-anchor="middle"><textPath startOffset="22.20632615414155" xlink:href="#id75">March</textPath></text><path d="M 117.84615892207809 88.93136811851018 l 52.43073823655564 -32.51884864127446 a82.69649770436192,82.69649770436192 0 0,0 0.7398745455099597,1.216159215905408 l -52.982728580351825 31.61152165216197" fill="#4bdfff" stroke="none" /><path d="M 118.03404312379186 89.2402003453031 l 36.01221854196632 -21.48626650013497 a62.93494404943406,62.93494404943406 0 0,0 0.5470554844750205,0.9350951536085302 l -36.376733700911664 20.863191934172544" fill="#31ff40" stroke="none" /><path d="M 118.21658344932153 89.55222093294921 l 33.709507789535586 -19.333454641694225 a59.860177351566584,59.860177351566584 0 0,0 0.5049415718433231,0.8982347134145907 l -34.03730700267134 18.75033641834484" fill="#42ff2d" stroke="none" /><path d="M 118.3937258080291 89.86733742301442 l 17.03809716137 -9.38587925534358 a40.45228737902495,40.45228737902495 0 0,0 0.33073000528884283,0.6127924706175337 l -17.197135265877307 9.091205801393588" fill="#ffd213" stroke="none" /><path d="M 118.56541770881063 90.18545643968196 l 22.910057661758135 -12.111322374611317 a46.914375773435935,46.914375773435935 0 0,0 0.3712727001298392,0.7171806829238747 l -23.11513979504809 11.715168969427097" fill="#d8ff1c" stroke="none" /><path d="M 118.89224826269711 90.83032412892265 l 51.243211145606615 -24.87176911210612 a77.96026323042352,77.96026323042352 0 0,0 0.5755761914198565,1.212310249359748 l -51.663745530868226 23.98601644710583" fill="#45ffef" stroke="none" /><path d="M 119.04729006885535 91.15688171328212 l 20.648623215013878 -9.58657199465907 a43.7655002862751,43.7655002862751 0 0,0 0.3113554447480702,0.6860304507741982 l -20.810580976725294 9.22971953504281" fill="#fffe18" stroke="none" /><path d="M 119.196687751892 91.48605970444005 l 20.863373472691453 -9.253133582534684 a43.82325204166217,43.82325204166217 0 0,0 0.2998956401567887,0.6922004852007737 l -21.019559822690923 8.892633952747307" fill="#ffff18" stroke="none" /><path d="M 119.34039704204932 91.81776055985345 l 13.354218056440079 -5.649698371556446 a35.50014591611125,35.50014591611125 0 0,0 0.23325001184756566,0.5648334049138614 l -13.449489755173841 5.418990396189281" fill="#ff8d0d" stroke="none" /><path d="M 119.47837535516314 92.15188598940014 l 48.77384511947281 -19.65167475487105 a73.58399270129226,73.58399270129226 0 0,0 0.4632513552651769,1.1789241699091009 l -49.104890024619685 18.809201580066166" fill="#3fffbf" stroke="none" /><path d="M 119.7369772167798 92.82701384747503 l 8.693251950647914 -3.1593782156973056 a30.249556756259537,30.249556756259537 0 0,0 0.17364242256361417,0.49091051152743276 l -8.746347454021338 3.0092700777432584" fill="#ff4006" stroke="none" /><path d="M 119.85752413597 93.16781622104841 l 22.026123318573152 -7.578312453250445 a44.29336661120678,44.29336661120678 0 0,0 0.24184748969524245,0.7230932112592571 l -22.153308102040164 7.1980461390688735" fill="#f9ff18" stroke="none" /><path d="M 119.97218684219823 93.5106431181261 l 22.104579247374808 -7.18221317441323 a44.24213006129576,44.24213006129576 0 0,0 0.22909947764665287,0.7263079512177348 l -22.22493420878967 6.800655056769076" fill="#faff18" stroke="none" /><path d="M 120.18372546131832 94.20196356495316 l 22.05875879220504 -6.336664033318706 a43.95086382957814,43.95086382957814 0 0,0 0.20262024113045152,0.728932813181662 l -22.164565803901855 5.956019916718092" fill="#feff18" stroke="none" /><path d="M 120.45610955862082 95.25157060432595 l 34.46662431243464 -8.000657778343115 a56.383028649066674,56.383028649066674 0 0,0 0.21131718250030807,0.9472934940133586 l -34.599235881936984 7.406186114779792" fill="#68ff28" stroke="none" /><path d="M 120.53481517161879 95.60439243477599 l 28.551216027752623 -6.111569065466358 a50.19800015592444,50.19800015592444 0 0,0 0.1735911483324918,0.8464920889107473 l -28.65218647200011 5.619201320392199" fill="#b0ff20" stroke="none" /><path d="M 120.6074358757038 95.95851677861258 l 13.172771651705604 -2.5834138672392197 a34.42370813886471,34.42370813886471 0 0,0 0.10903181081880339,0.5824522931794778 l -13.215289186434267 2.356283496597179" fill="#ff7e0b" stroke="none" /><path d="M 120.67395015179393 96.31383870115 l 22.241568519643565 -3.965667349532439 a43.592341351465706,43.592341351465706 0 0,0 0.1253552545804771,0.7398538084880739 l -22.306535635744265 3.582227752728527" fill="#fffc17" stroke="none" /><path d="M 120.73433829027371 96.67025291283417 l 31.828080805237267 -5.111301738576892 a53.23588269626709,53.23588269626709 0 0,0 0.13751109018234492,0.9060262727731835 l -31.91134778885891 4.562676353411627" fill="#8cff24" stroke="none" /><path d="M 120.78858239683441 97.02765380044208 l 27.963275875750277 -3.9981820400188703 a49.24765932477321,49.24765932477321 0 0,0 0.112763071303417,0.8402158586816352 l -28.02795494611153 3.516247839272571" fill="#bbff1f" stroke="none" /><path d="M 120.83666639777658 97.38593545837742 l 29.149124409720923 -3.656904184391388 a50.377617365389035,50.377617365389035 0 0,0 0.10053848382398684,0.8613523315865509 l -29.2077532465485 3.1546081144799842" fill="#aeff20" stroke="none" /><path d="M 120.87857604477298 97.74499172005257 l 22.956655502088694 -2.479453010880541 a44.09016498587101,44.09016498587101 0 0,0 0.07500130583047962,0.755252914318874 l -22.995933933601403 2.083924565857232" fill="#fcff18" stroke="none" /><path d="M 120.94382443527127 98.46500227214037 l 31.533811134974606 -2.311150410591851 a52.61839118166241,52.61839118166241 0 0,0 0.05842998974546867,0.903886079636797 l -31.56892171572449 1.7680052667020185" fill="#93ff23" stroke="none" /><path d="M 120.96714384426684 98.82574320788733 l 30.355874375453126 -1.7000690189685275 a51.40344295910495,51.40344295910495 0 0,0 0.041872734924074596,0.8838672539938552 l -30.380640718610696 1.1772906583516725" fill="#a1ff22" stroke="none" /><path d="M 120.98425023603335 99.18683210126433 l 17.146430585150654 -0.6644472293702298 a38.15929986718594,38.15929986718594 0 0,0 0.01978524363393254,0.6565759140655023 l -17.15532752324023 0.36920116787972834" fill="#ffb310" stroke="none" /><line stroke="#e1ed5e" stroke-width="0.3" x1="184.98032266829074" x2="189.97916517819016" y1="98.17113171792111" y2="98.06355123074" /><path d="M 185.9800911702706 98.14961562048488 a86.0,86.0 0 0,1 -9.607161424134198,41.387399972396054" fill="none" id="id76" stroke="none" /><text fill="#e1ed5e" style="font-size:6.75px; font-family:Arial;" text-anchor="middle"><textPath startOffset="21.466115282336823" xlink:href="#id76">April</textPath></text><path d="M 120.99513854157772 99.54816195383933 l 21.000285904953614 -0.4519488229772167 a42.005148555256255,42.005148555256255 0 0,0 0.00933512996793723,0.7230161036909083 l -21.00495404203927 0.09039646122584569" fill="#ffe715" stroke="none" /><path d="M 120.99980553446 99.90962569577887 l 25.45893656034403 -0.10956452306548216 a46.45917231899608,46.45917231899608 0 0,0 -0.003441745728767085,0.7997404973247058 l -25.457050517325758 -0.3286854524629083" fill="#deff1b" stroke="none" /><path d="M 120.99824983174949 100.27111621757518 l 24.89075838135444 0.3213738439632811 a45.892832983542675,45.892832983542675 0 0,0 -0.01699769419778177,0.7898160582140786 l -24.881538624471652 -0.7497797179674746" fill="#e5ff1a" stroke="none" /><path d="M 120.9904718944345 100.63252640178507 l 14.8276558352744 0.44681624308218976 a35.834386482912905,35.834386482912905 0 0,0 -0.023885951492688327,0.6163902731867564 l -14.817767750930509 -0.7019837632829523" fill="#ff920d" stroke="none" /><path d="M 120.9764740272857 100.99374915477107 l 25.352627695660267 1.2010670769079637 a46.38106170352202,46.38106170352202 0 0,0 -0.044644309844706985,0.7971541426282396 l -25.32819703492803 -1.6372929358716264" fill="#dfff1b" stroke="none" /><path d="M 120.95626037817324 101.35467743843564 l 25.345798452589655 1.6384307459083598 a46.39869985862335,46.39869985862335 0 0,0 -0.05838158684596847,0.7965703681265346 l -25.313840307079346 -2.0744742505316647" fill="#dfff1b" stroke="none" /><path d="M 120.92983693683757 101.71520430193887 l 25.647721392087355 2.10183587188925 a46.73370021272681,46.73370021272681 0 0,0 -0.07260503985268296,0.8011905646939657 l -25.607741755957598 -2.5430078251317862" fill="#daff1b" stroke="none" /><path d="M 120.89721153311464 102.0752229133903 l 17.207756003485493 1.7088370613406987 a38.29239690666689,38.29239690666689 0 0,0 -0.07078203418690708,0.6553537281954055 l -17.175791667797533 -2.0047871114208955" fill="#ffb410" stroke="none" /><path d="M 120.8583938346157 102.4346265915055 l 31.37605711727302 3.662265829286274 a52.58906695726762,52.58906695726762 0 0,0 -0.11268707824730913,0.8982268874363478 l -31.308368529778864 -4.201810471010017" fill="#93ff23" stroke="none" /><path d="M 120.76222939487914 103.15116336523771 l 29.250730425987967 4.4394957965136035 a50.58571198029684,50.58571198029684 0 0,0 -0.13807067929027472,0.8597662517392962 l -29.169977992336406 -4.942341277946104" fill="#abff21" stroke="none" /><path d="M 120.70491114924044 103.5080841355445 l 24.270145095434202 4.112150511680863 a45.61604608348274,45.61604608348274 0 0,0 -0.13783335287697607,0.7730426412762343 l -24.19576530021804 -4.529311903690315" fill="#e8ff1a" stroke="none" /><path d="M 120.5718875245553 104.21870165774334 l 34.858341582280225 7.148441932895899 a56.583763150275594,56.583763150275594 0 0,0 -0.2038792776835256,0.9524561104310019 l -34.73012826587226 -7.74741186274307" fill="#66ff29" stroke="none" /><path d="M 120.49622156327973 104.57218783832717 l 19.950212859958658 4.450387127633349 a41.44057090062468,41.44057090062468 0 0,0 -0.16130137204437436,0.6948820891180456 l -19.870650921983728 -4.79313787409996" fill="#ffdf14" stroke="none" /><path d="M 120.41448212921028 104.9243191809786 l 19.666096102822735 4.743795783853409 a41.230149143403885,41.230149143403885 0 0,0 -0.1723590764151452,0.6884888324802403 l -19.581525712112526 -5.081612455731046" fill="#ffdc14" stroke="none" /><path d="M 120.32669344350535 105.2749913415812 l 28.488537222503847 7.39307588815126 a50.43219876539894,50.43219876539894 0 0,0 -0.22529245621409152,0.838397040423509 l -28.357056689947978 -7.882363861750317" fill="#adff20" stroke="none" /><path d="M 120.23288151984713 105.62410040840565 l 34.107119554311886 9.480699268009921 a56.40027207384949,56.40027207384949 0 0,0 -0.2680553540284516,0.9331358529317473 l -33.938871563397335 -10.066392596446251" fill="#68ff28" stroke="none" /><path d="M 120.13307415673323 105.97154293290107 l 19.422033299261777 5.7606456315558905 a41.258341876125925,41.258341876125925 0 0,0 -0.20781085625158188,0.6791379020858422 l -19.319995670504063 -6.09411050619379" fill="#ffdd14" stroke="none" /><path d="M 120.02730092923936 106.31721596034902 l 23.76382667462467 7.49582910239959 a45.91800377546291,45.91800377546291 0 0,0 -0.24425699236116352,0.7517457242298999 l -23.63127743124726 -7.903773726607285" fill="#e5ff1a" stroke="none" /><path d="M 119.9155931802556 106.66101706037122 l 28.03755578676645 9.377508153355658 a50.564204600534964,50.564204600534964 0 0,0 -0.2831816231945421,0.8230583513828776 l -27.87198333262868 -9.858739207827837" fill="#abff21" stroke="none" /><path d="M 119.79798401119884 107.00284435728193 l 23.95627104244491 8.473692947534769 a46.41075351948826,46.41075351948826 0 0,0 -0.27288581372014703,0.7508645595643614 l -23.806860967719537 -8.88480530410526" fill="#deff1b" stroke="none" /><path d="M 119.67450827220406 107.3425965602758 l 18.477623575876855 6.89591492876001 a40.72247995857761,40.72247995857761 0 0,0 -0.25074521941823147,0.6546166444821625 l -18.35618407686512 -7.212955140075316" fill="#ffd614" stroke="none" /><path d="M 119.41010516605496 108.01547362559984 l 20.22440425653143 8.351741400927436 a42.88099887938327,42.88099887938327 0 0,0 -0.28760698179308736,0.6798179472298755 l -20.077646293546035 -8.698633873823475" fill="#fff216" stroke="none" /><path d="M 119.26925614724726 108.34839909993367 l 24.441354942326726 10.589209258647438 a47.63665114349444,47.63665114349444 0 0,0 -0.332455996125015,0.7496005054421547 l -24.25545786147044 -11.00835810058228" fill="#cfff1d" stroke="none" /><path d="M 119.12269723197855 108.67885076344098 l 22.764999465692878 10.331912417781876 a45.99987229730809,45.99987229730809 0 0,0 -0.3334451517036453,0.7182111920963695 l -22.5837796971494 -10.722243677157076" fill="#e4ff1b" stroke="none" /><path d="M 118.97047184881838 109.00673069616215 l 28.030733516380796 13.308328333101198 a52.02956049459898,52.02956049459898 0 0,0 -0.39108079446857924,0.8057422709103045 l -27.797499465297502 -13.788859559976776" fill="#9aff23" stroke="none" /><line stroke="#e1ed5e" stroke-width="0.3" x1="174.80103733775053" x2="179.2010983576182" y1="140.37084112569926" y2="142.7455964860345" /><path d="M 175.68104954172406 140.8457921977663 a86.0,86.0 0 0,1 -30.038265399797805,32.042727171017184" fill="none" id="id77" stroke="none" /><text fill="#e1ed5e" style="font-size:6.75px; font-family:Arial;" text-anchor="middle"><textPath startOffset="22.206326154141568" xlink:href="#id77">May</textPath></text><path d="M 118.30583269289576 110.29060199501025 l 31.795483635765812 17.873793168748175 a57.474995022226395,57.474995022226395 0 0,0 -0.49222681551901615,0.8582389427791584 l -31.483104824094415 -18.41845195738565" fill="#5cff2a" stroke="none" /><path d="M 117.94076556474637 110.91462005526583 l 21.02340306419537 12.790003630909592 a45.60828456594039,45.60828456594039 0 0,0 -0.413809092090359,0.6671920161330219 l -20.80012933243705 -13.149991978407886" fill="#e9ff1a" stroke="none" /><path d="M 117.55443506779139 111.5257021239791 l 33.01338677134418 21.675574324141333 a60.4932174986508,60.4932174986508 0 0,0 -0.5789975648067923,0.8655227999649476 l -32.63538610112667 -22.240634038312088" fill="#3cff2e" stroke="none" /><path d="M 117.35343817320211 111.8261652097733 l 10.435273289311924 7.111516732120029 a33.62808769584097,33.62808769584097 0 0,0 -0.3300982614996565,0.47553116558195957 l -10.311314120650131 -7.290089159889009" fill="#ff720a" stroke="none" /><path d="M 117.14729908036423 112.12312394758627 l 27.996876493692568 19.793764737384514 a55.28728942162098,55.28728942162098 0 0,0 -0.5560853690773773,0.7723539410476553 l -27.65201133223959 -20.2727522838833" fill="#74ff27" stroke="none" /><path d="M 116.93607887273984 112.41649034213515 l 20.885325584959446 15.311834892042217 a46.89689387843498,46.89689387843498 0 0,0 -0.4829011870574987,0.6469250546476697 l -20.618663131206855 -15.669072826199203" fill="#d8ff1c" stroke="none" /><path d="M 116.498646956653 112.99209946851258 l 19.893323822023387 15.66528713136912 a46.32085214988078,46.32085214988078 0 0,0 -0.4986816652115931,0.6221820531627825 l -19.62072424475694 -16.005397018110152" fill="#e0ff1b" stroke="none" /><path d="M 116.27256486870786 113.27417163493432 l 23.705781589096862 19.337739077572042 a51.592682677107945,51.592682677107945 0 0,0 -0.5672836574460627,0.6833297096161407 l -23.369401931757256 -19.742930044301954" fill="#9fff22" stroke="none" /><path d="M 115.80600337817218 113.82643327865902 l 25.824659727398252 22.590336476711283 a55.31087804424331,55.31087804424331 0 0,0 -0.6330228598149479,0.7112078936313562 l -25.431978017934966 -23.031518540083507" fill="#74ff27" stroke="none" /><path d="M 115.56566222782051 114.09645910891815 l 12.782645438614198 11.576124169466462 a38.24536677476678,38.24536677476678 0 0,0 -0.44611142709524726,0.4841658460349747 l -12.581487603523229 -11.794441270302773" fill="#ffb410" stroke="none" /><path d="M 115.32070863581623 114.36230785411682 l 18.769986272391506 17.595812809299023 a46.727903394673596,46.727903394673596 0 0,0 -0.5551574173698909,0.5820803326222247 l -18.464322303642653 -17.916300258503753" fill="#daff1b" stroke="none" /><path d="M 115.07121518719521 114.62390073753431 l 18.1958667450407 17.65581247482658 a46.35384153830579,46.35384153830579 0 0,0 -0.5605710773020423,0.5678555417258616 l -17.889255042683125 -17.966408510533107" fill="#dfff1b" stroke="none" /><path d="M 114.55890576462653 115.13401014063108 l 27.248771881485784 28.325150024400024 a60.304067129929685,60.304067129929685 0 0,0 -0.754272260739224,0.7132115018296821 l -26.75716378635575 -28.78999616297563" fill="#3eff2e" stroke="none" /><path d="M 114.29624159901734 115.38237550388516 l 16.6891777653118 17.957111137151095 a45.51502589992867,45.51502589992867 0 0,0 -0.5784752818437294,0.5284234544476968 l -16.377602934001207 -18.241727358185376" fill="#eaff1a" stroke="none" /><path d="M 114.0293411484842 115.62618273729858 l 17.320910871543077 19.292404083026877 a46.927028536311894,46.927028536311894 0 0,0 -0.6057109495303865,0.5344694881560584 l -16.9862575691061 -19.587696712955225" fill="#d8ff1c" stroke="none" /><path d="M 113.75828350139079 115.86535959552629 l 20.27841056654418 23.3840417397578 a51.95201678715081,51.95201678715081 0 0,0 -0.6806568275997132,0.5800705150149947 l -19.872888262367418 -23.72963664499574" fill="#9bff22" stroke="none" /><path d="M 113.20401910651253 116.32954008644616 l 16.150221162157024 19.973137099016967 a46.685712938571754,46.685712938571754 0 0,0 -0.6292400592576834,0.49990635906556563 l -15.804023610181991 -20.248177372087657" fill="#dbff1b" stroke="none" /><path d="M 112.92097659922987 116.55440617244103 l 18.882850611223127 24.192782667089222 a51.68962007556924,51.68962007556924 0 0,0 -0.7061079540365133,0.5414134691673964 l -18.46361392869312 -24.51423547808399" fill="#9eff22" stroke="none" /><path d="M 111.7513745106137 117.40417183066458 l 14.635220068756183 21.67524187286931 a47.15350409999224,47.15350409999224 0 0,0 -0.676597325161738,0.44841181339271813 l -14.259948044854482 -21.92395170735335" fill="#d5ff1c" stroke="none" /><line stroke="#e1ed5e" stroke-width="0.3" x1="143.8653032363475" x2="146.44561519142675" y1="172.8068346515853" y2="177.08958963109032" /><path d="M 144.38136562736335 173.6633856474863 a86.0,86.0 0 0,1 -40.68145358897372,12.25698825130547" fill="none" id="id78" stroke="none" /><text fill="#e1ed5e" style="font-size:6.75px; font-family:Arial;" text-anchor="middle"><textPath startOffset="21.466115282336833" xlink:href="#id78">June</textPath></text><path d="M 110.8373102113329 117.98757091392108 l 12.890974635049842 21.396205873578815 a45.97948864220537,45.97948864220537 0 0,0 -0.681442578054281,0.4026082865110501 l -12.520764185967177 -21.614932732383615" fill="#e4ff1a" stroke="none" /><path d="M 110.5260780823613 118.17145234162733 l 13.102518985563743 22.619231725101184 a47.14011567688411,47.14011567688411 0 0,0 -0.7056454043098016,0.4006838767808961 l -12.711224814332743 -22.84141876767671" fill="#d5ff1c" stroke="none" /><path d="M 109.89434966115114 118.52300852407294 l 12.531790900312949 23.460508029123964 a47.597767202412996,47.597767202412996 0 0,0 -0.7259998978266131,0.379808833668688 l -12.126100099959839 -23.672746281737368" fill="#d0ff1d" stroke="none" /><path d="M 109.57404056367764 118.69057910512821 l 12.286041361602772 23.984985903350474 a47.94858736785539,47.94858736785539 0 0,0 -0.7378285066692486,0.3699625303125034 l -11.871358947250762 -24.19291627457228" fill="#cbff1d" stroke="none" /><path d="M 108.59647513512805 119.15986991738527 l 16.139540704331715 35.97189494072028 a60.42666610015356,60.42666610015356 0 0,0 -0.9526676116723819,0.4176214846367918 l -15.517952418001578 -36.24438097865153" fill="#3cff2e" stroke="none" /><path d="M 108.2653958097858 119.30500536409082 l 10.089044552805875 23.5643959094944 a46.6333683812311,46.6333683812311 0 0,0 -0.7406456807099644,0.3095899546049084 l -9.68192741259845 -23.73457090711928" fill="#dcff1b" stroke="none" /><path d="M 107.2578585660854 119.70592522655815 l 12.720595144645747 34.53788668865031 a57.80596633362631,57.80596633362631 0 0,0 -0.9366780772490056,0.33585943309176314 l -12.124197506767006 -34.75173366278203" fill="#58ff2a" stroke="none" /><path d="M 106.91757812671514 119.82793768551818 l 8.300227053071415 23.791040992854324 a46.19736892328668,46.19736892328668 0 0,0 -0.7530836971955325,0.25548687809123755 l -7.889473622938656 -23.930390857843683" fill="#e1ff1b" stroke="none" /><path d="M 106.57524785965236 119.94407469862006 l 7.840072002732721 23.780545616318122 a46.03959022863235,46.03959022863235 0 0,0 -0.7547832474513252,0.2416577605645587 l -7.429567410190455 -23.91197622354239" fill="#e3ff1b" stroke="none" /><path d="M 106.2309692047433 120.05430185196036 l 1.9705858947795343 6.342307763139106 a27.641391159318854,27.641391159318854 0 0,0 -0.4555893915012572,0.1372653464025632 l -1.8611215288380312 -6.375288478647395" fill="#ff1902" stroke="none" /><path d="M 105.53697534728816 120.25689768951611 l 7.019073780476572 25.679120914980547 a47.62113160070332,47.62113160070332 0 0,0 -0.7925733627893916,0.20932582869987534 l -6.576009974875683 -25.796138092984005" fill="#cfff1d" stroke="none" /><path d="M 104.83641907484287 120.43548508189849 l 12.829687818954778 54.20971383423456 a76.7072164402552,76.7072164402552 0 0,0 -1.2875118186357404,0.29303349814289614 l -11.894655850926174 -54.422524065955145" fill="#43ffe2" stroke="none" /><path d="M 104.48393922423573 120.51570834832081 l 7.600417369277195 34.77476796090608 a56.595657472816406,56.595657472816406 0 0,0 -0.9535250885666987,0.19982045325993206 l -7.000700819281118 -34.90044439489255" fill="#66ff29" stroke="none" /><path d="M 103.7750983002368 120.6578951692458 l 6.151970039857533 33.66448819617379 a55.221988558259284,55.221988558259284 0 0,0 -0.9365413343991777,0.16282971563924512 l -5.571579733986305 -33.76539649033404" fill="#75ff27" stroke="none" /><path d="M 103.06178313531738 120.77559828337769 l 5.293421800562748 35.918286832410104 a57.3062479930653,57.3062479930653 0 0,0 -0.977129950127322,0.13542130745926367 l -4.6743632592485955 -36.004082705361974" fill="#5eff2a" stroke="none" /><path d="M 102.70371172650421 120.8252237178851 l 3.3844833554171903 26.068838018153887 a47.28762148236012,47.28762148236012 0 0,0 -0.8081062180545469,0.09785040901674745 l -2.935249714311263 -26.123233955895987" fill="#d3ff1c" stroke="none" /><path d="M 102.34483914955558 120.86867818915974 l 2.960068945445202 26.34412098242602 a47.509898500343,47.509898500343 0 0,0 -0.8134767066333193,0.08432018674812382 l -2.50615964220628 -26.3911705376299" fill="#d1ff1d" stroke="none" /><path d="M 101.98527174616119 120.90594882070398 l 2.4337781581084355 25.628955689691765 a46.74425461859538,46.74425461859538 0 0,0 -0.8016766149439671,0.06917203161663775 l -1.9922572254229267 -25.667051973587064" fill="#daff1c" stroke="none" /><path d="M 101.62511606390274 120.93702456842531 l 0.3902378272678504 5.0275910493522264 a26.04271328962468,26.04271328962468 0 0,0 -0.44723677250457644,0.030844066323843188 l -0.3036382939843436 -5.0335634601923545" fill="#ff0000" stroke="none" /><line stroke="#e1ed5e" stroke-width="0.3" x1="102.19456741930631" x2="102.32365962044197" y1="184.97166512339345" y2="189.96999836594603" /><path d="M 102.22038585953345 185.97133177190398 a86.0,86.0 0 0,1 -42.740103519485714,-10.115201625700543" fill="none" id="id79" stroke="none" /><text fill="#e1ed5e" style="font-size:6.75px; font-family:Arial;" text-anchor="middle"><textPath startOffset="22.20632615414155" xlink:href="#id79">July</textPath></text><path d="M 100.54218724476979 120.99299961872073 l 0.7787185499770566 30.15127777434177 a51.161332099322046,51.161332099322046 0 0,0 -0.8805603685468172,0.015159645305547125 l -0.2595984915375714 -30.16021489692648" fill="#a4ff21" stroke="none" /><path d="M 99.81925306533755 120.99922214144158 l -0.2654451733018077 30.83948378404337 a51.84062614809082,51.84062614809082 0 0,0 -0.8922519995773435,-0.015360927336623094 l 0.7962568627718191 -30.830345379427587" fill="#9cff22" stroke="none" /><path d="M 99.45781275523022 120.99299961872073 l -0.7626814500279454 29.530335772543864 a50.54018303655887,50.54018303655887 0 0,0 -0.8694828358927219,-0.02994674690981036 l 1.2708846375953105 -29.512832227207962" fill="#acff21" stroke="none" /><path d="M 99.09653310690486 120.98055641714683 l -1.269989940934937 29.492055335544677 a50.51938689005761,50.51938689005761 0 0,0 -0.8684810211307601,-0.04489054864874092 l 1.777459030479186 -29.465824980133732" fill="#acff21" stroke="none" /><path d="M 98.73552117531835 120.96189622390904 l -1.1254342357823135 18.656884715521176 a39.690798525138476,39.690798525138476 0 0,0 -0.6816180953612216,-0.047008374609084816 l 1.4464150919224652 -18.634747996395806" fill="#ffc812" stroke="none" /><path d="M 98.37488393609728 120.93702456842531 l -2.339033292582484 30.13470766854459 a51.22534835221009,51.22534835221009 0 0,0 -0.8785285849865437,-0.07580314296813646 l 2.8574061953105696 -30.089980273297787" fill="#a3ff21" stroke="none" /><path d="M 97.65516085044442 120.86867818915974 l -2.7576272247591325 24.542423359858642 a45.69686320740486,45.69686320740486 0 0,0 -0.7809214789385494,-0.09455871569465948 l 3.1796761267490714 -24.491319115438635" fill="#e7ff1a" stroke="none" /><path d="M 97.2962882734958 120.8252237178851 l -4.710060960358418 36.279042718494715 a57.58351561592539,57.58351561592539 0 0,0 -0.9818576457623581,-0.13607652299541279 l 5.333847197307607 -36.192591630006696" fill="#5bff2a" stroke="none" /><path d="M 96.93821686468263 120.77559828337769 l -5.3493110811370705 36.29752115118536 a57.68957850348685,57.68957850348685 0 0,0 -0.9811737373803112,-0.15323915892173892 l 5.973320682125899 -36.200063684916515" fill="#5aff2a" stroke="none" /><path d="M 96.58105272829116 120.7198165907248 l -1.5506540054977789 9.397415062656995 a30.52449146698231,30.52449146698231 0 0,0 -0.5176823348218279,-0.09000570959804581 l 1.7121853117916566 -9.369330774537943" fill="#ff4506" stroke="none" /><path d="M 94.46302465271185 120.25689768951611 l -7.138629056610828 26.116511158749606 a48.07456703094218,48.07456703094218 0 0,0 -0.7963639750919188,-0.2250604140257173 l 7.587124199807361 -25.98976195138537" fill="#caff1d" stroke="none" /><path d="M 94.11515582081647 120.15858648285463 l -7.114090308813205 24.36938011788542 a46.38655093256938,46.38655093256938 0 0,0 -0.7645498155792578,-0.23035258773625994 l 7.532515098832709 -24.243312161043434" fill="#dfff1b" stroke="none" /><path d="M 93.76903079525671 120.05430185196036 l -7.353185791524889 23.66614287301096 a45.78216414622522,45.78216414622522 0 0,0 -0.750562947194676,-0.24030655369506912 l 7.7594700838105055 -23.53606347265618" fill="#e6ff1a" stroke="none" /><path d="M 93.42475214034765 119.94407469862007 l -11.029209381128792 33.45385306518073 a56.22504427931187,56.22504427931187 0 0,0 -0.9165492582739588,-0.3109432716247645 l 11.603428372339978 -33.25904680665784" fill="#6aff28" stroke="none" /><path d="M 93.08242187328487 119.8279376855182 l -14.606688390631568 41.86732724893035 a65.34217446979835,65.34217446979835 0 0,0 -1.0587935160948592,-0.37964568480267563 l 15.325201467356154 -41.60969402308771" fill="#34ff5e" stroke="none" /><path d="M 92.7421414339146 119.70592522655815 l -8.579594096451315 23.29459002258821 a45.82432998451979,45.82432998451979 0 0,0 -0.7378366943558868,-0.27898670362913963 l 8.979301011567484 -23.14345506885244" fill="#e6ff1a" stroke="none" /><path d="M 92.40401165467489 119.57807347666478 l -8.887105362297978 22.905827901251783 a45.569444307154164,45.569444307154164 0 0,0 -0.728848377107496,-0.2900238109672933 l 9.280074815447332 -22.749457245878425" fill="#e9ff1a" stroke="none" /><path d="M 92.06813273071674 119.44442032107085 l -11.108958848793819 27.23283910989414 a50.41150272749719,50.41150272749719 0 0,0 -0.8006511871067541,-0.3346722611453583 l 11.576081495398036 -27.03758180572881" fill="#adff20" stroke="none" /><path d="M 91.40352486487194 119.15986991738527 l -18.821143129736846 41.94866481828961 a66.97745000266161,66.97745000266161 0 0,0 -1.0478207565600894,-0.4810031169740217 l 19.540431882064354 -41.61847463098151" fill="#36ff72" stroke="none" /><path d="M 90.42595943632237 118.69057910512821 l -22.344003616210166 43.62028386410216 a70.0100363393669,70.0100363393669 0 0,0 -1.0678500739976122,-0.5586486890042479 l 23.091544592734273 -43.2292057561532" fill="#3aff96" stroke="none" /><line stroke="#e1ed5e" stroke-width="0.3" x1="58.666819895761336" x2="56.23545636021788" y1="174.27360380694188" y2="178.64263932499728" /><path d="M 58.180547188652646 175.14741091055294 a86.0,86.0 0 0,1 -31.652253787137756,-30.449443065178592" fill="none" id="id80" stroke="none" /><text fill="#e1ed5e" style="font-size:6.75px; font-family:Arial;" text-anchor="middle"><textPath startOffset="22.20632615414155" xlink:href="#id80">August</textPath></text><path d="M 89.7882731507175 118.34994917583269 l -19.41809762095002 34.89332506586061 a60.93252620819977,60.93252620819977 0 0,0 -0.9121054641977835,-0.517917287061867 l 20.015851852069012 -34.55390461300411" fill="#37ff2e" stroke="none" /><path d="M 89.1626897886671 117.98757091392108 l -20.303284476637703 33.69902329889255 a60.34269350004624,60.34269350004624 0 0,0 -0.8850859395297008,-0.5436920739451909 l 20.880349616099714 -33.34454275811898" fill="#3dff2e" stroke="none" /><path d="M 88.54995079064634 117.60387380957326 l -20.467450553458256 31.467674082345535 a58.53839426921428,58.53839426921428 0 0,0 -0.8399571089738042,-0.5566777703666056 l 21.006082361172023 -31.11069829088761" fill="#50ff2b" stroke="none" /><path d="M 88.24862548938628 117.40417183066458 l -16.4799284512511 24.4073156092149 a50.450044091752744,50.450044091752744 0 0,0 -0.7155332525333422,-0.4921502956729672 l 16.897618588407333 -24.12002452417683" fill="#adff20" stroke="none" /><path d="M 87.65650970185807 116.9893568818739 l -20.223784545204385 27.83565141152366 a55.40675734263121,55.40675734263121 0 0,0 -0.7667636392447714,-0.5672334095835996 l 20.69993315486772 -27.483408053200293" fill="#73ff27" stroke="none" /><path d="M 87.07902340077011 116.55440617244103 l -21.314297636003754 27.307962183581093 a55.64136374821364,55.64136374821364 0 0,0 -0.7499462430438042,-0.5958026516894103 l 21.781201371764915 -26.93702561788655" fill="#70ff27" stroke="none" /><path d="M 86.79598089348748 116.32954008644616 l -24.786559680192404 30.653781749161404 a60.42116026076555,60.42116026076555 0 0,0 -0.8031119379413449,-0.6609064493433517 l 25.31054174667844 -30.222580180960872" fill="#3cff2e" stroke="none" /><path d="M 86.51685102203217 116.09983520530335 l -8.535705066912568 10.192236632771923 a34.294357771917184,34.294357771917184 0 0,0 -0.4493124657939214,-0.38291383097535925 l 8.709883009283546 -10.043798411573613" fill="#ff7c0b" stroke="none" /><path d="M 86.24171649860922 115.8653595955263 l -19.90823698947657 22.95717621453834 a51.387001164552714,51.387001164552714 0 0,0 -0.6632780774690522,-0.5852657853467359 l 20.30045741985221 -22.611087287419313" fill="#a2ff22" stroke="none" /><path d="M 85.97065885151581 115.62618273729859 l -19.70739716212122 21.950523982025953 a50.49927127898383,50.49927127898383 0 0,0 -0.6418227740931577,-0.5862898866630014 l 20.082319485681236 -21.608041328776373" fill="#acff20" stroke="none" /><path d="M 85.70375840098266 115.38237550388516 l -16.860788121004056 18.141759312920254 a45.767107360960026,45.767107360960026 0 0,0 -0.5724466222529745,-0.5412840116568011 l 17.170570577647847 -17.84884066451752" fill="#e7ff1a" stroke="none" /><path d="M 84.9287848128048 114.62390073753433 l -28.3098482094192 27.46961044395102 a60.44650812914596,60.44650812914596 0 0,0 -0.7181432271543098,-0.7529703025725065 l 28.77849798795247 -26.978233024796012" fill="#3cff2e" stroke="none" /><path d="M 84.67929136418377 114.36230785411682 l -18.07627374360265 16.945496095003477 a45.77703594781742,45.77703594781742 0 0,0 -0.5339642565107865,-0.579512741221001 l 18.36528440810916 -16.631832098981132" fill="#e6ff1a" stroke="none" /><path d="M 84.43433777217949 114.09645910891817 l -18.327267278891608 16.597403309533554 a45.72574614710841,45.72574614710841 0 0,0 -0.5233227823659095,-0.58795869369483 l 18.610248910905856 -16.27947044609786" fill="#e7ff1a" stroke="none" /><path d="M 84.19399662182784 113.82643327865904 l -18.571282587509124 16.24538432972365 a45.67397513505982,45.67397513505982 0 0,0 -0.5125435408692784,-0.5962039312784159 l 18.84816863794918 -15.923303299283702" fill="#e8ff1a" stroke="none" /><path d="M 83.95833913139862 113.55231037782056 l -18.773129144166266 15.859908460141384 a45.5757415804205,45.5757415804205 0 0,0 -0.5011248113684559,-0.6036371175850591 l 19.04334995542826 -15.534410085442564" fill="#e9ff1a" stroke="none" /><path d="M 83.72743513129214 113.27417163493432 l -5.1142240267861805 4.1718738292825375 a27.599986260865215,27.599986260865215 0 0,0 -0.29713631052921713,-0.3707232341815486 l 5.185278249370259 -4.0832227615227294" fill="#ff1802" stroke="none" /><path d="M 83.50135304334701 112.99209946851258 l -34.00713435264142 26.77941247602886 a64.28535687088527,64.28535687088527 0 0,0 -0.6771182234544488,-0.8752665802699481 l 34.46305939331394 -26.19006790164566" fill="#33ff51" stroke="none" /><path d="M 83.28015986056508 112.70617746262583 l -19.558335953850825 14.863281313147942 a45.565130503977926,45.565130503977926 0 0,0 -0.46918790966920604,-0.6285538785942838 l 19.81128513021512 -14.52441455504435" fill="#e9ff1a" stroke="none" /><path d="M 83.06392112726016 112.41649034213515 l -21.034867242766353 15.421469628858137 a47.08231901949286,47.08231901949286 0 0,0 -0.47355891422548413,-0.6577319132260916 l 21.297205949367445 -15.057104110180907" fill="#d6ff1c" stroke="none" /><path d="M 82.85270091963577 112.12312394758628 l -20.95149887576034 14.812689541842529 a46.658937557973786,46.658937557973786 0 0,0 -0.45801100290377894,-0.6597990097576614 l 21.20337078582625 -14.449849269897856" fill="#dbff1b" stroke="none" /><path d="M 82.6465618267979 111.8261652097733 l -20.47571263240399 13.953958746491429 a45.778373080240215,45.778373080240215 0 0,0 -0.4381576584989191,-0.6549862494441027 l 20.712873396313636 -13.599435582841506" fill="#e6ff1a" stroke="none" /><path d="M 82.24976979558568 111.22182372390057 l -21.015974728320142 13.286450996478177 a45.8636476379313,45.8636476379313 0 0,0 -0.41612602994453063,-0.6709276576830158 l 21.24156539793263 -12.922727007429897" fill="#e5ff1a" stroke="none" /><path d="M 82.05923443525364 110.91462005526583 l -7.954403890597849 4.839219146957914 a30.310777798177888,30.310777798177888 0 0,0 -0.2673397962230468,-0.44807687582617595 l 8.036524562519128 -4.701580177245627" fill="#ff4106" stroke="none" /><line stroke="#e1ed5e" stroke-width="0.3" x1="26.63291911575756" x2="22.317208475507996" y1="142.92168965132927" y2="145.44649492493687" /><path d="M 25.769776987707644 143.4266507060508 a86.0,86.0 0 0,1 -11.730757126820373,-40.83630448921669" fill="none" id="id81" stroke="none" /><text fill="#e1ed5e" style="font-size:6.75px; font-family:Arial;" text-anchor="middle"><textPath startOffset="21.46611528233685" xlink:href="#id81">September</textPath></text><path d="M 81.87401531095188 110.60418214915194 l -21.373793460767565 12.504236485054333 a45.76277401620655,45.76277401620655 0 0,0 -0.3919211217783146,-0.6833475109501674 l 21.585866578698255 -12.13446912824586" fill="#e7ff1a" stroke="none" /><path d="M 81.69416730710424 110.29060199501025 l -33.668825233358184 18.926889911460208 a59.62404632240065,59.62404632240065 0 0,0 -0.49523048774201056,-0.8989871846707588 l 33.98963213055171 -18.344532208391627" fill="#45ff2d" stroke="none" /><path d="M 81.51974371655577 109.97397251340807 l -34.643472933870505 18.69741639465091 a60.3670369313564,60.3670369313564 0 0,0 -0.4856599750213492,-0.9186856470001333 l 34.96018541711674 -18.09831573256465" fill="#3dff2e" stroke="none" /><path d="M 81.35079622478065 109.6543875284942 l -21.974725924639937 11.375955910290681 a45.744715644676944,45.744715644676944 0 0,0 -0.35598391813819436,-0.7023900426897322 l 22.167288512564397 -10.996011655898265" fill="#e7ff1a" stroke="none" /><path d="M 81.18737489456691 109.33194174019688 l -35.48281333570305 17.601134608876745 a60.60845846200209,60.60845846200209 0 0,0 -0.4555641804680528,-0.9385971454172558 l 35.78053077278582 -16.987748507494207" fill="#3aff2e" stroke="none" /><path d="M 80.73074385275274 108.34839909993369 l -36.524692216521096 15.824311291296 a60.80530076956378,60.80530076956378 0 0,0 -0.40782699769998776,-0.9639825524151857 l 36.79167019541339 -15.193254213214656" fill="#38ff2e" stroke="none" /><path d="M 80.58989483394504 108.01547362559985 l -23.8778233411483 9.860434118740352 a46.83367199066183,46.83367199066183 0 0,0 -0.3012907928888292,-0.7477790392719814 l 24.044016748294517 -9.447955711625566" fill="#d9ff1c" stroke="none" /><path d="M 80.32549172779594 107.34259656027581 l -36.81886115512677 13.740930117824016 a60.29938545656186,60.29938545656186 0 0,0 -0.3545481514371333,-0.9755642403830568 l 37.04993356756913 -13.105118080434842" fill="#3eff2e" stroke="none" /><path d="M 80.0844068197444 106.66101706037122 l -23.958226285896092 8.013125824683069 a46.26275504073942,46.26275504073942 0 0,0 -0.24609086797084123,-0.7573898130030302 l 24.09260940488318 -7.599537111702235" fill="#e0ff1b" stroke="none" /><path d="M 79.97269907076064 106.31721596034903 l -37.62315021113941 11.867478589959239 a60.450456016288335,60.450456016288335 0 0,0 -0.30447808744376315,-0.9950520067504602 l 37.82185507108931 -11.218099610656731" fill="#3cff2e" stroke="none" /><path d="M 79.86692584326677 105.97154293290107 l -25.585780968000204 7.58883558133218 a47.68749919387305,47.68749919387305 0 0,0 -0.22664588323983367,-0.7889840527043713 l 25.712619488126144 -7.147294053123213" fill="#ceff1d" stroke="none" /><path d="M 79.76711848015287 105.62410040840567 l -25.691963580995175 7.141552364989602 a47.66606012948053,47.66606012948053 0 0,0 -0.2129354663788188,-0.7924120843334094 l 25.81108712371577 -6.698249347480654" fill="#cfff1d" stroke="none" /><path d="M 79.50377843672027 104.57218783832718 l -24.439075901726405 5.451738764281196 a46.03976610282753,46.03976610282753 0 0,0 -0.16588776947963585,-0.7749724321267463 l 24.529297709930482 -5.030252512738286" fill="#e3ff1b" stroke="none" /><path d="M 79.4281124754447 104.21870165774334 l -25.124625281587377 5.152337052158962 a46.647482773933774,46.647482773933774 0 0,0 -0.1545365953856675,-0.7879787705184308 l 25.209591809948712 -4.7190945545725755" fill="#dbff1b" stroke="none" /><path d="M 79.29508885075956 103.50808413554451 l -24.409045584908878 4.135684764015174 a45.75692619921679,45.75692619921679 0 0,0 -0.12489079693138089,-0.7776951117092966 l 24.476618136201548 -3.7149104226126637" fill="#e7ff1a" stroke="none" /><path d="M 79.23777060512086 103.15116336523772 l -25.493543152939626 3.869253041461156 a46.785497117365246,46.785497117365246 0 0,0 -0.11399163612715067,-0.7972572375760509 l 25.556368840083376 -3.4298503319047047" fill="#daff1c" stroke="none" /><path d="M 79.04373962182676 101.35467743843564 l -29.824796123515142 1.9279669981839898 a50.88704603260969,50.88704603260969 0 0,0 -0.04898156632729513,-0.8745987707290188 l 29.85356404072997 -1.4142965111195334" fill="#a7ff21" stroke="none" /><line stroke="#e1ed5e" stroke-width="0.3" x1="15.007084014347285" x2="10.007500721073583" y1="101.09737516637583" y2="101.16192664675087" /><path d="M 14.007167355692545 101.11028546245083 a86.0,86.0 0 0,1 10.666146001902534,-42.60595125391555" fill="none" id="id82" stroke="none" /><text fill="#e1ed5e" style="font-size:6.75px; font-family:Arial;" text-anchor="middle"><textPath startOffset="22.20632615414155" xlink:href="#id82">October</textPath></text><path d="M 79.00486145842228 99.54816195383935 l -49.58691710119582 -1.067163986261111 a70.5983990323724,70.5983990323724 0 0,0 0.0366046161717506,-1.2147290054475492 l 49.56120079056843 1.9205631391336548" fill="#3bff9d" stroke="none" /><path d="M 79.01574976396665 99.18683210126434 l -29.423374897614984 -1.1401953212566966 a50.44545866065284,50.44545866065284 0 0,0 0.041092370413808005,-0.8673949925557084 l 29.399388918967677 1.646501420435414" fill="#adff20" stroke="none" /><path d="M 79.05617556472873 98.46500227214037 l -34.66813443864277 -2.540868682170067 a55.7611213731065,55.7611213731065 0 0,0 0.07839885196879252,-0.9566645710294365 l 34.61926110285448 3.1372471704072815" fill="#6fff27" stroke="none" /><path d="M 79.08570108090925 98.10471618934814 l -29.69739886231067 -2.691220944099195 a50.81909068628903,50.81909068628903 0 0,0 0.08644780902522506,-0.8705176393908929 l 29.646673927603217 3.2020141141945184" fill="#a8ff21" stroke="none" /><path d="M 79.12142395522702 97.74499172005258 l -34.82948773519749 -3.7617883068639877 a56.032046288533174,56.032046288533174 0 0,0 0.11182301335423768,-0.9580312892556678 l 34.759574368839665 4.360763334444517" fill="#6cff28" stroke="none" /><path d="M 79.16333360222342 97.38593545837743 l -39.12892326307954 -4.908920117125888 a60.435645454896395,60.435645454896395 0 0,0 0.13838036347588842,-1.0310944405701292 l 39.03862690054582 5.581732899760676" fill="#3cff2e" stroke="none" /><path d="M 79.21141760316559 97.0276538004421 l -34.189029690309134 -4.88833872972681 a55.53672837286975,55.53672837286975 0 0,0 0.14345429580430832,-0.9451845721572826 l 34.099819501065525 5.476122414276185" fill="#72ff27" stroke="none" /><path d="M 79.32604984820605 96.31383870115002 l -39.13965035912039 -6.978592061265576 a60.75692364094274,60.75692364094274 0 0,0 0.19243822825910098,-1.0280127102647354 l 39.01372640695143 7.651282848992883" fill="#39ff2e" stroke="none" /><path d="M 79.3925641242962 95.95851677861259 l -39.74690735662307 -7.795072621005829 a61.504071419830524,61.504071419830524 0 0,0 0.21268899860012153,-1.0371470921346055 l 39.60683906210796 8.478095369303837" fill="#31ff2f" stroke="none" /><path d="M 79.54389044137918 95.25157060432595 l -29.509128280243914 -6.849885691366708 a51.29372188828374,51.29372188828374 0 0,0 0.20704881755573168,-0.8583510187951695 l 29.386846662427367 7.356821941821274" fill="#a3ff22" stroke="none" /><path d="M 79.62865764111835 94.90015583598534 l -28.739524509443605 -7.194768698300366 a50.62642343670515,50.62642343670515 0 0,0 0.2189078548733271,-0.843541262960948 l 28.61142032269997 7.688406386810177" fill="#abff21" stroke="none" /><path d="M 79.71946130924805 94.55025226153421 l -24.197164951020827 -6.502216089025395 a46.05557035342224,46.05557035342224 0 0,0 0.2123232618725229,-0.7638397413662201 l 24.081654918581943 6.917767133810558" fill="#e3ff1b" stroke="none" /><path d="M 79.91906864156998 93.8553929516997 l -44.03994580182428 -13.475877017380025 a67.05557607516349,67.05557607516349 0 0,0 0.3472345800446694,-1.1008285091473102 l 43.80145573801141 14.231955692953749" fill="#36ff73" stroke="none" /><path d="M 80.02781315780177 93.51064311812611 l -8.800091107430845 -2.8593229294483287 a30.252963369318632,30.252963369318632 0 0,0 0.1651850786356911,-0.49388235996705504 l 8.749568735023383 3.0103783923377057" fill="#ff4106" stroke="none" /><path d="M 80.14247586403 93.16781622104843 l -8.60372993706256 -2.9602010659526483 a30.098733932848774,30.098733932848774 0 0,0 0.17277664986334115,-0.4884628555175603 l 8.55150020638941 3.1078615478968197" fill="#ff3e05" stroke="none" /><path d="M 80.2630227832202 92.82701384747504 l -46.137123384049644 -16.76755987080773 a70.0895632306516,70.0895632306516 0 0,0 0.421857104108543,-1.1303673048543192 l 45.84166169143948 17.55925031269139" fill="#3bff97" stroke="none" /><path d="M 80.38941819471856 92.48833698450439 l -16.641437868912625 -6.374358221789901 a38.82049093275995,38.82049093275995 0 0,0 0.2443961570509615,-0.6219615621315276 l 16.52924816197997 6.659868788817192" fill="#ffbc11" stroke="none" /><path d="M 80.52162464483688 92.15188598940014 l -25.0614654124967 -10.09762027087355 a48.019233589362315,48.019233589362315 0 0,0 0.3155053736989404,-0.7640212880737365 l 24.88393835191156 10.527516129400599" fill="#caff1d" stroke="none" /><path d="M 80.803312248108 91.48605970444005 l -13.746537845579361 -6.096739395908694 a36.03786999550039,36.03786999550039 0 0,0 0.2563797275668432,-0.5648987452728297 l 13.639555801049166 6.332460150023594" fill="#ff950d" stroke="none" /><path d="M 81.10775173730289 90.83032412892265 l -23.38748440951836 -11.351515631869095 a46.996756223537446,46.996756223537446 0 0,0 0.35950277671336534,-0.7247356606973504 l 23.188621619851585 11.752410881065407" fill="#d7ff1c" stroke="none" /><path d="M 81.26839172434947 90.50648371742162 l -22.550837588700816 -11.429170452619706 a46.281736751793716,46.281736751793716 0 0,0 0.36626609833880863,-0.707509521832958 l 22.350762057201894 11.815652696713" fill="#e0ff1b" stroke="none" /><line stroke="#e1ed5e" stroke-width="0.3" x1="26.266209847984243" x2="21.928928074336255" y1="57.711370442889674" y2="55.22380399835377" /><path d="M 25.398753493254645 57.213857153982495 a86.0,86.0 0 0,1 29.58750427330803,-30.492523968695096" fill="none" id="id83" stroke="none" /><text fill="#e1ed5e" style="font-size:6.75px; font-family:Arial;" text-anchor="middle"><textPath startOffset="21.46611528233685" xlink:href="#id83">November</textPath></text><path d="M 81.78341655067845 89.55222093294921 l -21.48320527033252 -12.321288618195565 a45.765747755723396,45.765747755723396 0 0,0 0.397814023497083,-0.6799931194668748 l 21.26793157236511 12.689261150016332" fill="#e7ff1a" stroke="none" /><path d="M 81.96595687620814 89.24020034530311 l -21.263521367300765 -12.686629853051876 a45.76061222922412,45.76061222922412 0 0,0 0.40941409993436917,-0.6729691321028032 l 21.041991469080177 13.050766758361753" fill="#e7ff1a" stroke="none" /><path d="M 82.15384107792192 88.93136811851018 l -21.077621286253876 -13.072865257653529 a45.802538683197476,45.802538683197476 0 0,0 0.4213231664509779,-0.6664320683481727 l 20.849470523556935 13.433744973715918" fill="#e6ff1a" stroke="none" /><path d="M 82.34701348167596 88.62581576622439 l -33.373593000396475 -21.503296053363325 a60.70123991659081,60.70123991659081 0 0,0 0.5734919160665587,-0.873467533188168 l 32.99850444897199 22.07458165052916" fill="#3aff2e" stroke="none" /><path d="M 82.95767976084542 87.72973835380427 l -39.48301303671981 -28.427285354470147 a69.65201816042433,69.65201816042433 0 0,0 0.7089162092743838,-0.9669609127542079 l 38.98783421493179 29.102708710895854" fill="#3aff92" stroke="none" /><path d="M 83.17141714833178 87.43820079747576 l -30.878723173227183 -23.04961288489958 a59.53284571573356,59.53284571573356 0 0,0 0.6200602716646196,-0.8159266348625772 l 30.477386961338457 23.577724295643183" fill="#46ff2c" stroke="none" /><path d="M 83.39014120810768 87.1503855733568 l -30.76756854065183 -23.80221274281236 a59.89972500362705,59.89972500362705 0 0,0 0.6379204319335463,-0.8100941667214709 l 30.353294028124314 24.32829930348688" fill="#42ff2d" stroke="none" /><path d="M 83.6137871275137 86.86637796730984 l -7.638290125600916 -6.1221232914723185 a30.788966729887292,30.788966729887292 0 0,0 0.33501549167566796,-0.4106893801167385 l 7.531776141848855 6.252696841197139" fill="#ff4906" stroke="none" /><path d="M 83.84228863543731 86.58626213691792 l -37.528082396504566 -31.154898637124013 a69.77483651892959,69.77483651892959 0 0,0 0.7751299431208231,-0.9175093640854257 l 36.98624183989662 31.796266950838554" fill="#3aff94" stroke="none" /><path d="M 84.07557802195018 86.31012108654704 l -26.27864883857464 -22.591182342763762 a55.65442113822018,55.65442113822018 0 0,0 0.6307716694648408,-0.7210810581066572 l 25.885885305531957 23.040178957073362" fill="#70ff27" stroke="none" /><path d="M 84.31358615837235 86.03803664274999 l -6.925647433501752 -6.164292021620587 a30.271628147255726,30.271628147255726 0 0,0 0.3497906228018064,-0.38624754223188695 l 6.818513170083901 6.282592351122029" fill="#ff4106" stroke="none" /><path d="M 85.31137513191541 84.99185889309783 l -18.069171378890186 -18.462223399033874 a46.833092094357156,46.833092094357156 0 0,0 0.580990725905828,-0.5589126180030517 l 17.748697409371932 18.770519103799238" fill="#d9ff1c" stroke="none" /><path d="M 85.57189188830299 84.74124197986013 l -20.689697219586982 -21.88083710903842 a51.11369461939963,51.11369461939963 0 0,0 0.6445001602540145,-0.5989926587912007 l 20.309989175538114 22.23373435390427" fill="#a5ff21" stroke="none" /><path d="M 85.83668400450813 84.49514656593479 l -17.38665703153262 -19.033506635598485 a46.7792594459095,46.7792594459095 0 0,0 0.5991955618736678,-0.5379636916774392 l 17.05645048206298 19.329969336045203" fill="#daff1c" stroke="none" /><path d="M 86.65592168130627 83.78471172551755 l -19.58221897059376 -23.795673112723485 a51.81716013359884,51.81716013359884 0 0,0 0.6936013147425566,-0.5608440264502377 l 19.169714257286707 24.129223236437856" fill="#9cff22" stroke="none" /><path d="M 86.93701828274178 83.55741782278169 l -19.061174434352196 -23.99260244060963 a51.642671924784054,51.642671924784054 0 0,0 0.7007847744355132,-0.5469736321108177 l 18.645357104757256 24.31715446194367" fill="#9eff22" stroke="none" /><path d="M 87.22198572758235 83.33499621200491 l -19.174407551636648 -25.007138642061307 a52.51213874080172,52.51213874080172 0 0,0 0.7220515255133121,-0.5438342393186337 l 18.741109872364948 25.333489470885795" fill="#94ff23" stroke="none" /><path d="M 87.51073957382395 83.11751280151077 l -29.284203566846077 -39.585225623051876 a70.2397671214274,70.2397671214274 0 0,0 0.9781880415657666,-0.7106952125838072 l 28.59847020892653 40.08344007045235" fill="#3bff99" stroke="none" /><line stroke="#e1ed5e" stroke-width="0.3" x1="56.762969772571076" x2="54.21961505331055" y1="26.818313649435495" y2="22.513508569990535" /><path d="M 56.25429882871897 25.957352633546506 a86.0,86.0 0 0,1 42.265352541879196,-11.944610805530505" fill="none" id="id84" stroke="none" /><text fill="#e1ed5e" style="font-size:6.75px; font-family:Arial;" text-anchor="middle"><textPath startOffset="22.20632615414155" xlink:href="#id84">December</textPath></text><path d="M 89.3179101791058 81.91981866633112 l -15.57724000544449 -26.36556410765523 a51.62341223479346,51.62341223479346 0 0,0 0.768951048968246,-0.4454260799183023 l 15.121092224010924 26.62979434496358" fill="#9fff22" stroke="none" /><path d="M 89.63071344664047 81.73862282372117 l -12.951520203846847 -22.80895548903658 a47.22956968940789,47.22956968940789 0 0,0 0.7104134927798582,-0.39534433958362486 l 12.556982621994944 23.02851522618039" fill="#d4ff1c" stroke="none" /><path d="M 90.26544431104013 81.39251694778311 l -14.27341590726744 -27.283458339339994 a51.79151669886263,51.79151669886263 0 0,0 0.7934941585585935,-0.4064585274940365 l 13.801661261120081 27.525109392146536" fill="#9dff22" stroke="none" /><path d="M 90.58718382345135 81.22770947309562 l -13.655837436299919 -27.234288116778526 a51.466183635538506,51.466183635538506 0 0,0 0.7953454936690505,-0.39027257959584666 l 13.185020675620443 27.465315856509203" fill="#a1ff22" stroke="none" /><path d="M 91.90106846888425 80.62456947434976 l -17.856120806649137 -42.717984072052666 a67.29975392420346,67.29975392420346 0 0,0 1.0726815814839803,-0.4375737505178133 l 17.118155355576775 43.01901870875406" fill="#37ff76" stroke="none" /><path d="M 92.23578459929587 80.48803036053334 l -18.141527776016385 -45.59081902172248 a70.06768599719602,70.06768599719602 0 0,0 1.1244757033605477,-0.4362791031256772 l 17.35406890765616 45.896340828738715" fill="#3aff97" stroke="none" /><path d="M 92.57280143429618 80.3572730644239 l -11.344778900416916 -30.00355950013004 a53.07674533017944,53.07674533017944 0 0,0 0.8573604812602431,-0.3157731008108885 l 10.826636093384105 30.194395868747254" fill="#8eff24" stroke="none" /><path d="M 92.91201910852362 80.23233633223022 l -13.526517754653383 -37.72409345680522 a61.0758519523257,61.0758519523257 0 0,0 0.9926803518331091,-0.3463266829649223 l 12.87515539875699 37.95134099294235" fill="#36ff2f" stroke="none" /><path d="M 93.25333710446033 80.11325718540243 l -10.016048049554074 -29.523717823787987 a52.17645157277576,52.17645157277576 0 0,0 0.8530034333033799,-0.2812218207090918 l 9.506361794008285 29.69175336875631" fill="#98ff23" stroke="none" /><path d="M 93.94186890950719 79.89281104454417 l -17.03878539211252 -56.55243710198377 a80.06351115377664,80.06351115377664 0 0,0 1.3229915035128792,-0.3862174986911414 l 16.06280367087622 56.837352929593614" fill="#48f9ff" stroke="none" /><path d="M 94.28887869178378 79.79150937346287 l -1.4443809460033579 -5.110863039534051 a26.31104107742096,26.31104107742096 0 0,0 0.4368912171627634,-0.11941887331192441 l 1.356191839616872 5.134968453672271" fill="#ff0400" stroke="none" /><path d="M 94.63758080256005 79.69619591428918 l -10.068729642350084 -38.12337426881193 a60.43058435086463,60.43058435086463 0 0,0 1.0080141214132978,-0.2569652439189045 l 9.411006632251786 38.29104250889969" fill="#3cff2e" stroke="none" /><path d="M 94.98787191387505 79.60689891045804 l -2.4625589916410973 -10.019539323928896 a31.317720923298417,31.317720923298417 0 0,0 0.5246110666254391,-0.12415848996647474 l 2.289724238053124 10.060443726036242" fill="#ff5007" stroke="none" /><path d="M 95.33964822691252 79.52364482259891 l -2.4307640496318266 -10.68013541813483 a31.953260081577564,31.953260081577564 0 0,0 0.5373583945154274,-0.11744573191094786 l 2.2465629309628783 10.720394648141646" fill="#ff5a08" stroke="none" /><path d="M 96.40284397218896 79.31037775812273 l -10.791468083433102 -62.06886672563182 a84.0,84.0 0 0,0 1.4266831754444573,-0.235414948241492 l 9.72145570184976 62.24542793681294" fill="#4dd2ff" stroke="none" /><path d="M 96.75951476605007 79.25152402106235 l -8.670622088316348 -55.51705412420288 a77.19006127446447,77.19006127446447 0 0,0 1.3145504911600858,-0.19373057129128876 l 7.713702616727614 55.65807917965514" fill="#44ffe7" stroke="none" /><path d="M 97.83486435360386 79.11191278185805 l -4.555190990963971 -43.94608110255133 a65.18153244553858,65.18153244553858 0 0,0 1.1170093192810397,-0.10607349423773206 l 3.7980565445926953 44.01798014130424" fill="#34ff5c" stroke="none" /><path d="M 98.19473922651362 79.07773832637324 l -2.254559044734648 -26.12945175864154 a47.22653781369875,47.22653781369875 0 0,0 0.8105194071670347,-0.06291190538499516 l 1.8044494482052793 26.164388926214997" fill="#d4ff1c" stroke="none" /></svg>