<?xml version="1.0" encoding="utf-8" ?>
<svg baseProfile="full" height="200mm" version="1.1" viewBox="0,0,200,200" width="200mm" xmlns="http://www.w3.org/2000/svg" xmlns:ev="http://www.w3.org/2001/xml-events" xmlns:xlink="http://www.w3.org/1999/xlink"><defs /><rect fill="#1a1a1a" height="200" width="200" x="0" y="0" /><text alignment-baseline="middle" fill="#e1ed5e" style="dominant-baseline: central; font-size:9.0px; font-family:Arial;" text-anchor="middle" x="100.0" y="100.0">2025</text><line stroke="#e1ed5e" stroke-width="0.3" x1="100.0" x2="100.0" y1="15.0" y2="10.0" /><path d="M 100.0 14.0 a86.0,86.0 0 0,1 42.46469731375804,11.215312516191453" fill="none" id="id85" stroke="none" /><text fill="#e1ed5e" style="font-size:6.75px; font-family:Arial;" text-anchor="middle"><textPath startOffset="22.20632615414155" xlink:href="#id85">January</textPath></text><path d="M 100.72285384407766 79.0124445844662 l 0.8148749648147905 -23.65932424777169 a44.67335305928333,44.67335305928333 0 0,0 0.7682948097746798,0.0330843906599607 l -1.222010606978802 23.641792130587536" fill="#f6ff19" stroke="none" /><path d="M 101.08401301168833 79.027996857942 l 1.2335329484453255 -23.864710655396973 a44.89656917217863,44.89656917217863 0 0,0 0.771446954010456,0.04653578699615983 l -1.6441419512953936 23.83994159902051" fill="#f3ff19" stroke="none" /><path d="M 101.44485096284872 79.0497635885617 l 2.266180758501469 -32.859460153627914 a53.937512001031024,53.937512001031024 0 0,0 0.9256956422170496,0.07185179792549481 l -2.83146659008086 32.81558309351395" fill="#85ff25" stroke="none" /><path d="M 101.80526077348638 79.07773832637324 l 1.5481262670893519 -17.942173972630698 a39.008839546261676,39.008839546261676 0 0,0 0.6684905320984751,0.06348123098039406 l -1.856741926278071 17.912867197135125" fill="#ffbd11" stroke="none" /><path d="M 102.52436894288641 79.15227682838746 l 2.578762784410713 -21.296939500919258 a42.4524975143706,42.4524975143706 0 0,0 0.7246950046171016,0.0940862104851965 l -2.9449725175356605 21.249394967269925" fill="#ffeb16" stroke="none" /><path d="M 103.2404852339499 79.25152402106235 l 3.259046347329502 -20.867320777569702 a42.12028549826053,42.12028549826053 0 0,0 0.7153845555391336,0.11804458131536026 l -3.617760109007511 20.808129933314717" fill="#ffe715" stroke="none" /><path d="M 103.59715602781102 79.31037775812273 l 5.040585496712822 -28.991739306992386 a50.42666223332641,50.42666223332641 0 0,0 0.85390319603176,0.15604535106293377 l -5.538883813847483 28.90067847457871" fill="#aeff20" stroke="none" /><path d="M 103.95276090670814 79.375362276772 l 3.3865491282280167 -17.670269098007434 a38.991862743860025,38.991862743860025 0 0,0 0.6580964720891112,0.13200796125090175 l -3.6902120097842532 17.609357180679325" fill="#ffbc11" stroke="none" /><path d="M 108.76106565485865 80.91482961587045 l 8.267613736559309 -18.010231066456964 a40.81721120551819,40.81721120551819 0 0,0 0.636013374306274,0.2986168072450693 l -8.57640532216518 17.865249276571895" fill="#ffd513" stroke="none" /><path d="M 109.08828744355905 81.06846463323043 l 7.710017048692139 -16.06050219496043 a38.815276973582314,38.815276973582314 0 0,0 0.5998415550893252,0.29433964599906 l -7.985329870791896 15.925407388826539" fill="#ffba11" stroke="none" /><path d="M 109.41281617654863 81.2277094730956 l 8.741819984850894 -17.434100635936527 a40.50300698947475,40.50300698947475 0 0,0 0.6205437009515634,0.31786658567549875 l -9.040624173391214 17.281041524948527" fill="#ffd113" stroke="none" /><path d="M 110.05341064243156 81.56283822128135 l 14.600721002897643 -26.776570140305175 a51.49861902255804,51.49861902255804 0 0,0 0.774627295013464,0.4310792510038153 l -15.059472386983142 26.52127549174118" fill="#a1ff22" stroke="none" /><line stroke="#e1ed5e" stroke-width="0.3" x1="143.23703022742887" x2="145.7803849466894" y1="26.81831364943548" y2="22.513508569990506" /><path d="M 143.74570117128098 25.957352633546492 a86.0,86.0 0 0,1 28.547481713284135,27.462654790039103" fill="none" id="id86" stroke="none" /><text fill="#e1ed5e" style="font-size:6.75px; font-family:Arial;" text-anchor="middle"><textPath startOffset="19.985693538727396" xlink:href="#id86">February</textPath></text><path d="M 111.60114157652 82.49532879139004 l 17.70654546608894 -26.716961824817684 a53.05179872474305,53.05179872474305 0 0,0 0.7568604691058108,0.5110355672925773 l -18.16381062960129 26.408214345226437" fill="#8fff24" stroke="none" /><path d="M 112.77801427241765 83.33499621200491 l 14.473628598020662 -18.87641305368584 a44.786653706791185,44.786653706791185 0 0,0 0.607749441418272,0.4743580789888646 l -14.796410594598365 18.624476585473754" fill="#f4ff19" stroke="none" /><path d="M 113.06298171725822 83.55741782278167 l 14.658058245389736 -18.450330290201165 a44.564238993499295,44.564238993499295 0 0,0 0.5965169584110682,0.4823418953945957 l -14.973478602365295 18.195282297542438" fill="#f7ff18" stroke="none" /><path d="M 113.34407831869373 83.78471172551755 l 14.930148262929709 -18.142628683842126 a44.49604866169702,44.49604866169702 0 0,0 0.5872259296042706,0.4917848283299129 l -15.240231729493098 17.882942698118395" fill="#f8ff18" stroke="none" /><path d="M 113.6212207817346 84.01681056812373 l 15.179739523030525 -17.81196092559328 a44.402787099017004,44.402787099017004 0 0,0 0.5774607863861428,0.5007683035609823 l -15.484094108063431 17.548027628612626" fill="#f9ff18" stroke="none" /><path d="M 113.89432698308785 84.25364557470407 l 20.154917147914016 -22.84144235340272 a51.46230743103841,51.46230743103841 0 0,0 0.659180726281265,0.5918189645530918 l -20.545108861791274 22.49112438008033" fill="#a2ff22" stroke="none" /><path d="M 114.42810811169701 84.74124197986012 l 20.996221502720676 -22.20500849917671 a51.55983834773705,51.55983834773705 0 0,0 0.6396286593438337,0.6153222635116454 l -21.37533340567693 21.840303148902763" fill="#a0ff22" stroke="none" /><path d="M 114.68862486808459 84.99185889309783 l 21.277309523687272 -21.74014698956455 a51.41969578570216,51.41969578570216 0 0,0 0.6272326298373376,0.6245390935909427 l -21.648377953691934 21.37067204532349" fill="#a2ff22" stroke="none" /><path d="M 114.94478906791727 85.2469230424477 l 12.676206560775054 -12.513595880882258 a38.812251251357026,38.812251251357026 0 0,0 0.4652586021952518,0.47948988694794725 l -12.889729426673416 12.293541798384197" fill="#ffba11" stroke="none" /><path d="M 115.19652480421416 85.50635884689758 l 13.104909188052199 -12.498768867402598 a39.109607064424324,39.109607064424324 0 0,0 0.46043680434383466,0.49116187984622733 l -13.318113314366498 12.271337570678316" fill="#ffbe11" stroke="none" /><path d="M 115.4437574822437 85.77008943001954 l 13.140190244167162 -12.107398880227896 a38.867672128675565,38.867672128675565 0 0,0 0.4491184674511425,0.4959278291523644 l -13.34665235223434 11.879418263805983" fill="#ffbb11" stroke="none" /><path d="M 115.68641384162765 86.03803664274999 l 13.28955593980392 -11.828598616547383 a38.79123498547991,38.79123498547991 0 0,0 0.4396490261146595,0.5025948378678597 l -13.49119682949643 11.598088222476575" fill="#ffba11" stroke="none" /><path d="M 115.9244219780498 86.31012108654704 l 13.390397482362959 -11.511433218061695 a38.65830794469183,38.65830794469183 0 0,0 0.4294558544782504,0.5083402743527932 l -13.586563950328326 11.279233994079796" fill="#ffb811" stroke="none" /><path d="M 116.15771136456269 86.58626213691792 l 13.715246818171085 -11.386063372187028 a38.82555565470011,38.82555565470011 0 0,0 0.4224618101462041,0.5178882267925341 l -13.909207120393697 11.148290975786393" fill="#ffba11" stroke="none" /><path d="M 116.60985879189232 87.15038557335679 l 4.106299614703482 -3.1766896654755965 a26.191633052947157,26.191633052947157 0 0,0 0.2727971577857571,0.3589690827226531 l -4.160372712713352 3.10553580687191" fill="#ff0000" stroke="none" /><path d="M 116.82858285166822 87.43820079747576 l 14.396557237792248 -10.746398720725676 a38.96513138738047,38.96513138738047 0 0,0 0.39658597075247604,0.5409428184140992 l -14.57940582105835 10.496993458640084" fill="#ffbc11" stroke="none" /><path d="M 117.04232023915458 87.72973835380427 l 19.134561421263903 -13.776649648015187 a44.57811519838424,44.57811519838424 0 0,0 0.4429947654681675,0.6265846796056932 l -19.368868806535954 13.4452384680777" fill="#f7ff18" stroke="none" /><path d="M 117.2510076193507 88.02491185347247 l 25.066680225295205 -17.40047374983577 a51.5141761192389,51.5141761192389 0 0,0 0.49938218710043014,0.732781739044546 l -25.36248687806437 16.966413987520816" fill="#a1ff22" stroke="none" /><path d="M 117.45458315368197 88.32363383020206 l 14.890739052796148 -9.96126462537038 a38.915381728423306,38.915381728423306 0 0,0 0.36766393672618647,0.5599773996068003 l -15.059999624880259 9.703469161785906" fill="#ffbb11" stroke="none" /><path d="M 117.65298651832404 88.62581576622439 l 17.27818885890795 -11.132694351926926 a41.55414055068994,41.55414055068994 0 0,0 0.38224348648143724,0.6046173996418001 l -17.46725994163534 10.83362930457092" fill="#ffdf14" stroke="none" /><line stroke="#e1ed5e" stroke-width="0.3" x1="172.23445277983987" x2="176.4835382374775" y1="55.19839476539836" y2="52.563006222186495" /><path d="M 173.08426987136738 54.67131705675599 a86.0,86.0 0 0,1 12.851231095245387,41.99856678651699" fill="none" id="id87" stroke="none" /><text fill="#e1ed5e" style="font-size:6.75px; font-family:Arial;" text-anchor="middle"><textPath startOffset="22.20632615414155" xlink:href="#id87">March</textPath></text><path d="M 117.84615892207809 88.93136811851018 l 15.30703727431713 -9.493805447179703 a39.01215511775959,39.01215511775959 0 0,0 0.34903655340163164,0.5737243208099261 l -15.468189626004985 9.228913353162696" fill="#ffbd11" stroke="none" /><path d="M 118.03404312379186 89.2402003453031 l 15.250822292044093 -9.099223690737013 a38.75903861017197,38.75903861017197 0 0,0 0.3369089297675212,0.5758865716068533 l -15.405190896281942 8.835357706776264" fill="#ffb911" stroke="none" /><path d="M 118.21658344932153 89.55222093294921 l 15.505206882888652 -8.892719996151055 a38.87433661457461,38.87433661457461 0 0,0 0.327918651480842,0.5833306908380037 l -15.655983175661929 8.624505795378258" fill="#ffbb11" stroke="none" /><path d="M 118.3937258080291 89.86733742301442 l 15.994233617509119 -8.810839854585435 a39.260514996971196,39.260514996971196 0 0,0 0.3209863069281882,0.5947388773665587 l -16.143528023655772 8.534219993886417" fill="#ffc011" stroke="none" /><path d="M 118.73160827565052 90.50648371742162 l 16.036191172976423 -8.12743037174711 a38.9781687550163,38.9781687550163 0 0,0 0.298164405900271,0.6010812480562787 l -16.173715591830103 7.850189535191881" fill="#ffbc11" stroke="none" /><path d="M 118.89224826269711 90.83032412892265 l 16.155499414673898 -7.841348001997427 a38.957920253357784,38.957920253357784 0 0,0 0.2876241104880675,0.6058097299811898 l -16.28808171900372 7.562095856375697" fill="#ffbc11" stroke="none" /><path d="M 119.196687751892 91.48605970444005 l 28.08818643551343 -12.457416894690517 a51.72675467608451,51.72675467608451 0 0,0 0.3539816760305666,0.8170385130388655 l -28.298458821386674 11.97207923706505" fill="#9eff22" stroke="none" /><path d="M 119.34039704204932 91.81776055985345 l 16.520492783559114 -6.989237466552576 a38.93811924855811,38.93811924855811 0 0,0 0.2558388576066731,0.6195340866507135 l -16.638353328051984 6.70382880944856" fill="#ffbc11" stroke="none" /><path d="M 119.47837535516314 92.15188598940014 l 16.42814323861702 -6.619132179571435 a38.71148782793688,38.71148782793688 0 0,0 0.24370992307282371,0.6202151715082901 l -16.539646711571546 6.33536800316736" fill="#ffb911" stroke="none" /><path d="M 119.61058180528143 92.48833698450437 l 17.8787623591557 -6.848304619903552 a40.14548039778984,40.14548039778984 0 0,0 0.24162878641326588,0.6474450173130408 l -17.99399573407059 6.539536465561178" fill="#ffcc13" stroke="none" /><path d="M 119.7369772167798 92.82701384747503 l 16.702189644328246 -6.070056914984837 a38.77100812746033,38.77100812746033 0 0,0 0.22255836112681796,0.6292024569367379 l -16.804201086264875 5.7816568316214845" fill="#ffb911" stroke="none" /><path d="M 120.18372546131832 94.20196356495316 l 17.19204263040674 -4.938636811871608 a38.887326892671695,38.887326892671695 0 0,0 0.1792765571676697,0.6449531617604649 l -17.27450595814077 4.6419723466921905" fill="#ffbb11" stroke="none" /><path d="M 120.28053869075195 94.5502522615342 l 17.179009791361047 -4.616310798600409 a38.788442956058674,38.788442956058674 0 0,0 0.1677206143547451,0.6462959446533069 l -17.255926737586094 4.319918428398252" fill="#ffba11" stroke="none" /><path d="M 120.45610955862082 95.25157060432595 l 17.16388124118169 -3.9842120514620727 a38.62023736878719,38.62023736878719 0 0,0 0.14474425982081957,0.648860135279542 l -17.22991988800455 3.688173746632567" fill="#ffb711" stroke="none" /><path d="M 120.53481517161879 95.60439243477599 l 17.597837706673694 -3.7669288916683 a38.99648980288411,38.99648980288411 0 0,0 0.134854883158528,0.6576003030179305 l -17.660071885747218 3.463452932486958" fill="#ffbc11" stroke="none" /><path d="M 120.67395015179393 96.31383870115 l 62.02185045538181 -11.058483896549978 a84.0,84.0 0 0,0 0.2415525539191079,1.4256568467366484 l -62.20301487082114 9.98924126149749" fill="#4dd2ff" stroke="none" /><path d="M 120.78858239683441 97.02765380044208 l 17.821983882318115 -2.5481827019266645 a39.003231503927424,39.003231503927424 0 0,0 0.08930625811344187,0.6654353546696586 l -17.863206139489392 2.241029005192342" fill="#ffbd11" stroke="none" /><path d="M 120.83666639777658 97.38593545837742 l 17.804824377696626 -2.233704719701251 a38.944392101585265,38.944392101585265 0 0,0 0.07772122502225041,0.665867992438397 l -17.840635955722465 1.9268929889380013" fill="#ffbc11" stroke="none" /><path d="M 120.87857604477298 97.74499172005257 l 18.088926800899753 -1.9537098518557243 a39.19412693683177,39.19412693683177 0 0,0 0.06667270812186747,0.6713850719930866 l -18.119876634703846 1.6420492491582026" fill="#ffbf11" stroke="none" /><path d="M 120.91429891909075 98.10471618934814 l 17.546573810778717 -1.5900957237261613 a38.61847487462288,38.61847487462288 0 0,0 0.05429668594176731,0.6625570969518134 l -17.57134498053998 1.2878247095665791" fill="#ffb711" stroke="none" /><path d="M 120.98425023603335 99.18683210126433 l 17.86792022244215 -0.6924059224718038 a38.881331019726446,38.881331019726446 0 0,0 0.02015961010066605,0.668999314537027 l -17.877191526998462 0.38473646050977767" fill="#ffbb11" stroke="none" /><line stroke="#e1ed5e" stroke-width="0.3" x1="184.98032266829074" x2="189.97916517819016" y1="98.17113171792111" y2="98.06355123074" /><path d="M 185.9800911702706 98.14961562048488 a86.0,86.0 0 0,1 -9.607161424134198,41.387399972396054" fill="none" id="id88" stroke="none" /><text fill="#e1ed5e" style="font-size:6.75px; font-family:Arial;" text-anchor="middle"><textPath startOffset="21.466115282336823" xlink:href="#id88">April</textPath></text><path d="M 120.99513854157772 99.54816195383933 l 17.769411565512847 -0.3824169193876035 a38.77352610161573,38.77352610161573 0 0,0 0.008616941444633852,0.66739161108954 l -17.773361514075198 0.07648905023760075" fill="#ffb911" stroke="none" /><path d="M 120.99980553446 99.90962569577887 l 17.62544528323517 -0.07585248117874717 a38.6256085010197,38.6256085010197 0 0,0 -0.002861426849506276,0.6648948272254191 l -17.62413955909616 -0.22755182425035672" fill="#ffb711" stroke="none" /><path d="M 120.99824983174949 100.27111621757518 l 17.781459615229558 0.2295830420379988 a38.78294166951101,38.78294166951101 0 0,0 -0.01436434710459376,0.6674547663323431 l -17.774873205439956 -0.5356276241604567" fill="#ffba11" stroke="none" /><path d="M 120.9904718944345 100.63252640178507 l 17.788113102537803 0.5360265949179235 a38.79618757653269,38.79618757653269 0 0,0 -0.025860184741719316,0.6673364610360071 l -17.77625078494488 -0.8421403029679367" fill="#ffba11" stroke="none" /><path d="M 120.9764740272857 100.99374915477107 l 62.835278394781724 2.976787457863276 a83.90575072693287,83.90575072693287 0 0,0 -0.08076387636726926,1.4420932666409374 l -62.77472816752692 -4.057952440839637" fill="#4dd3ff" stroke="none" /><path d="M 120.92983693683757 101.71520430193887 l 18.161262068960564 1.4883190405795437 a39.22214404245607,39.22214404245607 0 0,0 -0.06093515639351589,0.6724143731577615 l -18.132952316289973 -1.8007148022858757" fill="#ffc011" stroke="none" /><path d="M 120.8583938346157 102.4346265915055 l 17.52000359293798 2.044964102645861 a38.638945662302774,38.638945662302774 0 0,0 -0.08279496376650805,0.6599573239105753 l -17.48220711992462 -2.346239180843831" fill="#ffb811" stroke="none" /><path d="M 120.76222939487914 103.15116336523771 l 17.61598546055079 2.6736458291679903 a38.81772504463362,38.81772504463362 0 0,0 -0.10595066186877504,0.6597548725946668 l -17.567353044320726 -2.976479931455862" fill="#ffba11" stroke="none" /><path d="M 120.70491114924044 103.5080841355445 l 17.735874581735505 3.0050329509612874 a38.988648370998156,38.988648370998156 0 0,0 -0.11780802131077274,0.6607299471187664 l -17.68152011808554 -3.3098816488132723" fill="#ffbc11" stroke="none" /><path d="M 120.41448212921028 104.9243191809786 l 17.194620615024224 4.147633996703757 a38.68778804331477,38.68778804331477 0 0,0 -0.16173095548351726,0.6460347724802277 l -17.120678345245647 -4.442996608581381" fill="#ffb811" stroke="none" /><path d="M 120.32669344350535 105.2749913415812 l 17.245568824800188 4.475407005290866 a38.81681542683559,38.81681542683559 0 0,0 -0.1734038154989345,0.6453001052742645 l -17.165976932959474 -4.7715980437406795" fill="#ffba11" stroke="none" /><path d="M 120.23288151984713 105.62410040840565 l 17.392811734281423 4.834650936009335 a39.052250543830084,39.052250543830084 0 0,0 -0.18560486430681292,0.6461148817226612 l -17.307014233088513 -5.133323293236578" fill="#ffbd11" stroke="none" /><path d="M 120.02730092923936 106.31721596034902 l 17.180202574792816 5.419155096883668 a39.01462190763375,39.01462190763375 0 0,0 -0.20753502813114202,0.6387271394664235 l -17.084375295645426 -5.714081136327887" fill="#ffbd11" stroke="none" /><path d="M 119.9155931802556 106.66101706037122 l 17.12216282142382 5.726719642828845 a39.05446696944858,39.05446696944858 0 0,0 -0.21872206705866132,0.6357087084026101 l -17.02104992342193 -6.020601054320756" fill="#ffbd11" stroke="none" /><path d="M 119.41010516605496 108.01547362559984 l 16.742014824956346 6.91367600127814 a39.11336457563054,39.11336457563054 0 0,0 -0.2623370963211935,0.6200874025778131 l -16.620526747442845 -7.200837929522117" fill="#ffbe11" stroke="none" /><line stroke="#e1ed5e" stroke-width="0.3" x1="174.80103733775053" x2="179.2010983576182" y1="140.37084112569926" y2="142.7455964860345" /><path d="M 175.68104954172406 140.8457921977663 a86.0,86.0 0 0,1 -30.038265399797805,32.042727171017184" fill="none" id="id89" stroke="none" /><text fill="#e1ed5e" style="font-size:6.75px; font-family:Arial;" text-anchor="middle"><textPath startOffset="22.206326154141568" xlink:href="#id89">May</textPath></text><line stroke="#e1ed5e" stroke-width="0.3" x1="143.8653032363475" x2="146.44561519142675" y1="172.8068346515853" y2="177.08958963109032" /><path d="M 144.38136562736335 173.6633856474863 a86.0,86.0 0 0,1 -40.68145358897372,12.25698825130547" fill="none" id="id90" stroke="none" /><text fill="#e1ed5e" style="font-size:6.75px; font-family:Arial;" text-anchor="middle"><textPath startOffset="21.466115282336833" xlink:href="#id90">June</textPath></text><line stroke="#e1ed5e" stroke-width="0.3" x1="102.19456741930631" x2="102.32365962044197" y1="184.97166512339345" y2="189.96999836594603" /><path d="M 102.22038585953345 185.97133177190398 a86.0,86.0 0 0,1 -42.740103519485714,-10.115201625700543" fill="none" id="id91" stroke="none" /><text fill="#e1ed5e" style="font-size:6.75px; font-family:Arial;" text-anchor="middle"><textPath startOffset="22.20632615414155" xlink:href="#id91">July</textPath></text><line stroke="#e1ed5e" stroke-width="0.3" x1="58.666819895761336" x2="56.23545636021788" y1="174.27360380694188" y2="178.64263932499728" /><path d="M 58.180547188652646 175.14741091055294 a86.0,86.0 0 0,1 -31.652253787137756,-30.449443065178592" fill="none" id="id92" stroke="none" /><text fill="#e1ed5e" style="font-size:6.75px; font-family:Arial;" text-anchor="middle"><textPath startOffset="22.20632615414155" xlink:href="#id92">August</textPath></text><line stroke="#e1ed5e" stroke-width="0.3" x1="26.63291911575756" x2="22.317208475507996" y1="142.92168965132927" y2="145.44649492493687" /><path d="M 25.769776987707644 143.4266507060508 a86.0,86.0 0 0,1 -11.730757126820373,-40.83630448921669" fill="none" id="id93" stroke="none" /><text fill="#e1ed5e" style="font-size:6.75px; font-family:Arial;" text-anchor="middle"><textPath startOffset="21.46611528233685" xlink:href="#id93">September</textPath></text><line stroke="#e1ed5e" stroke-width="0.3" x1="15.007084014347285" x2="10.007500721073583" y1="101.09737516637583" y2="101.16192664675087" /><path d="M 14.007167355692545 101.11028546245083 a86.0,86.0 0 0,1 10.666146001902534,-42.60595125391555" fill="none" id="id94" stroke="none" /><text fill="#e1ed5e" style="font-size:6.75px; font-family:Arial;" text-anchor="middle"><textPath startOffset="22.20632615414155" xlink:href="#id94">October</textPath></text><line stroke="#e1ed5e" stroke-width="0.3" x1="26.266209847984243" x2="21.928928074336255" y1="57.711370442889674" y2="55.22380399835377" /><path d="M 25.398753493254645 57.213857153982495 a86.0,86.0 0 0,1 29.58750427330803,-30.492523968695096" fill="none" id="id95" stroke="none" /><text fill="#e1ed5e" style="font-size:6.75px; font-family:Arial;" text-anchor="middle"><textPath startOffset="21.46611528233685" xlink:href="#id95">November</textPath></text><line stroke="#e1ed5e" stroke-width="0.3" x1="56.762969772571076" x2="54.21961505331055" y1="26.818313649435495" y2="22.513508569990535" /><path d="M 56.25429882871897 25.957352633546506 a86.0,86.0 0 0,1 42.265352541879196,-11.944610805530505" fill="none" id="id96" stroke="none" /><text fill="#e1ed5e" style="font-size:6.75px; font-family:Arial;" text-anchor="middle"><textPath startOffset="22.20632615414155" xlink:href="#id96">December</textPath></text></svg>