<?xml version="1.0" encoding="utf-8" ?>
<svg baseProfile="full" height="200mm" version="1.1" viewBox="0,0,200,200" width="200mm" xmlns="http://www.w3.org/2000/svg" xmlns:ev="http://www.w3.org/2001/xml-events" xmlns:xlink="http://www.w3.org/1999/xlink"><defs /><rect fill="#1a1a1a" height="200" width="200" x="0" y="0" /><rect fill="#1a1a1a" height="200" width="180" x="10" y="0" /><text alignment-baseline="middle" fill="#e1ed5e" style="dominant-baseline: central; font-size:9.0px; font-family:Arial;" text-anchor="middle" x="100.0" y="100.0">2023</text><line stroke="#e1ed5e" stroke-width="0.3" x1="100.0" x2="100.0" y1="15.0" y2="10.0" /><path d="M 100.0 14.0 a86.0,86.0 0 0,1 42.46469731375804,11.215312516191453" fill="none" id="id61" stroke="none" /><text fill="#e1ed5e" style="font-size:6.75px; font-family:Arial;" text-anchor="middle"><textPath startOffset="22.20632615414155" xlink:href="#id61">January</textPath></text><path d="M 100.0 79.0 l 0.0 -2.8922152465353506 a23.89221524653535,23.89221524653535 0 0,0 0.4112652103904766,0.003539889506891603 l -0.049784731117948205 2.891786733637018" fill="#ff0801" stroke="none" /><path d="M 100.36148047927253 79.00311137660856 l 0.11049429614694022 -6.418151360168484 a27.419102419459715,27.419102419459715 0 0,0 0.47183491910746184,0.012186103911940341 l -0.22095585044926985 6.415298464114184" fill="#ff3b05" stroke="none" /><path d="M 101.80526077348638 79.07773832637324 l 0.36300312641463633 -4.207063328875325 a25.2226950070961,25.2226950070961 0 0,0 0.43223876952953527,0.04104627941558297 l -0.43536702303441577 4.200191504944564" fill="#ff1b02" stroke="none" /><path d="M 102.52436894288641 79.15227682838746 l 0.30645164213113235 -2.530857867919591 a23.549343867856074,23.549343867856074 0 0,0 0.40200442523478447,0.052191711999732215 l -0.34997079587376295 2.525207832755722" fill="#ff0300" stroke="none" /><path d="M 103.2404852339499 79.25152402106235 l 0.3754057677731263 -2.403682471189983 a23.43282118388987,23.43282118388987 0 0,0 0.3979906159077992,0.06567186173997369 l -0.4167255898198007 2.3968643465103847" fill="#ff0100" stroke="none" /><path d="M 103.59715602781102 79.31037775812273 l 0.9064884445046957 -5.213814285070634 a26.29202992236695,26.29202992236695 0 0,0 0.44521781507153363,0.08136070994366645 l -0.9961013806791301 5.1974380937762295" fill="#ff2b04" stroke="none" /><path d="M 103.95276090670814 79.375362276772 l 0.4658283577921264 -2.4305899970737253 a23.474826012631627,23.474826012631627 0 0,0 0.3962031843234073,0.07947463148923575 l -0.507597951582659 2.4222114095072813" fill="#ff0100" stroke="none" /><path d="M 104.307194497241 79.44645832069477 l 0.5129699604986881 -2.447846149064069 a23.50101758287738,23.50101758287738 0 0,0 0.3952169213899532,0.086379111352845 l -0.5550296060421692 2.4386535396153537" fill="#ff0200" stroke="none" /><path d="M 105.01212808612495 79.60689891045804 l 3.2993674430633724 -13.424304535272713 a34.82381198440177,34.82381198440177 0 0,0 0.5808796095352304,0.14807914629455957 l -3.529955941283628 13.365522392809286" fill="#ffa20f" stroke="none" /><path d="M 106.0581310904928 79.89281104454417 l 0.8941776278421202 -2.967812722141056 a24.099591260769017,24.099591260769017 0 0,0 0.3961681626147813,0.12309137657221289 l -0.9451311631676198 2.9519812106863226" fill="#ff0b01" stroke="none" /><path d="M 106.40334571778207 80.00007090966166 l 2.056631668954414 -6.42359312723155 a27.744796697155714,27.744796697155714 0 0,0 0.45358406188216177,0.14953953377789042 l -2.166898553078993 6.387239869194423" fill="#ff4006" stroke="none" /><path d="M 106.74666289553966 80.11325718540242 l 2.059537306125475 -6.070777413684656 a27.410618715991955,27.410618715991955 0 0,0 0.44551130702514746,0.1554301471772497 l -2.163730617213896 6.034426413335199" fill="#ff3b05" stroke="none" /><path d="M 107.4271985657038 80.35727306442388 l 0.8402597265772572 -2.222236583297123 a23.37578867752411,23.37578867752411 0 0,0 0.375144491225514,0.14555023437614395 l -0.8783873828024383 2.2074436450304322" fill="#ff0000" stroke="none" /><path d="M 107.76421540070413 80.48803036053334 l 2.4817687996280218 -6.236843643741001 a27.712480540849235,27.712480540849235 0 0,0 0.4417054405114365,0.1801827397477313 l -2.588758109727846 6.193200017809691" fill="#ff4006" stroke="none" /><path d="M 108.09893153111575 80.62456947434976 l 1.3445997328936152 -3.2167451483441587 a24.486459205425078,24.486459205425078 0 0,0 0.3874880051508383,0.16590214163179742 l -1.399771495834769 3.1931234787495706" fill="#ff1101" stroke="none" /><path d="M 108.43124777332544 80.76684994638697 l 1.9249424755328741 -4.391130289591132 a25.79452070120417,25.79452070120417 0 0,0 0.4051187701350449,0.1817649832308898 l -2.0002433641346995 4.357344975843711" fill="#ff2403" stroke="none" /><path d="M 109.08828744355905 81.06846463323043 l 1.9512897934851965 -4.06467246613792 a25.508779670280997,25.508779670280997 0 0,0 0.39420628316696893,0.1934353111309405 l -2.0209673436625972 4.030481994872147" fill="#ff2003" stroke="none" /><path d="M 109.41281617654863 81.2277094730956 l 7.63010029188527 -15.216961294277374 a38.022759514713336,38.022759514713336 0 0,0 0.5825440050854226,0.2984016655366665 l -7.890904784559448 15.083367103428206" fill="#ffcc13" stroke="none" /><path d="M 109.73455568895987 81.39251694778311 l 7.174559069710396 -13.714081110879102 a36.47741317405899,36.47741317405899 0 0,0 0.5538573276372452,0.29585140312987707 l -7.409561443875953 13.58855098124747" fill="#ffb811" stroke="none" /><path d="M 110.05341064243156 81.56283822128135 l 1.1560910826505737 -2.120179815574238 a23.4148931739836,23.4148931739836 0 0,0 0.352200033838717,0.1959989375123602 l -1.1924152055613257 2.099965480501698" fill="#ff0100" stroke="none" /><path d="M 110.36928655335952 81.73862282372117 l 7.897562141232388 -13.908416966972455 a36.99423490829725,36.99423490829725 0 0,0 0.5510436932981236,0.31920007456758875 l -8.13580256699584 13.770412735014817" fill="#ffbf11" stroke="none" /><line stroke="#e1ed5e" stroke-width="0.3" x1="143.23703022742887" x2="145.7803849466894" y1="26.81831364943548" y2="22.513508569990506" /><path d="M 143.74570117128098 25.957352633546492 a86.0,86.0 0 0,1 28.547481713284135,27.462654790039103" fill="none" id="id62" stroke="none" /><text fill="#e1ed5e" style="font-size:6.75px; font-family:Arial;" text-anchor="middle"><textPath startOffset="19.985693538727396" xlink:href="#id62">February</textPath></text><path d="M 110.68208982089419 81.91981866633111 l 7.550253364273636 -12.779329909227787 a35.84309936615696,35.84309936615696 0 0,0 0.528494439432988,0.31841198639373164 l -7.769109869924261 12.64747131337544" fill="#ffb010" stroke="none" /><path d="M 111.2981086023043 82.29822771554956 l 9.859328021821304 -15.447504149888093 a39.32571236003339,39.32571236003339 0 0,0 0.5674755990291817,0.3691019149693109 l -10.123770646634766 15.275503310759255" fill="#ffdd14" stroke="none" /><path d="M 111.60114157652 82.49532879139004 l 10.190408624697756 -15.37605168251261 a39.44633820793746,39.44633820793746 0 0,0 0.562758940473806,0.3799773487096939 l -10.453572259578104 15.198362421504246" fill="#ffdf14" stroke="none" /><path d="M 111.90073688211348 82.69761687909136 l 10.947084955020205 -15.915876455816303 a40.31718903902008,40.31718903902008 0 0,0 0.5684125816177711,0.3982093382783087 l -11.219428676221627 15.725082274774058" fill="#ffea16" stroke="none" /><path d="M 112.19680574252982 82.90503203632743 l 14.36119032590581 -20.12855609280555 a45.72655572371757,45.72655572371757 0 0,0 0.6368069232576511,0.4626673118749269 l -14.705542565517248 19.878369546113944" fill="#d2ff1c" stroke="none" /><path d="M 112.48926042617603 83.11751280151076 l 2.482183786131343 -3.3553176540246588 a25.173654622455345,25.173654622455345 0 0,0 0.3461423617234306,0.26070725056635613 l -2.5395723016131564 3.3120938139524556" fill="#ff1b02" stroke="none" /><path d="M 112.77801427241765 83.33499621200491 l 2.565536158852044 -3.345955709080481 a25.216324867643095,25.216324867643095 0 0,0 0.34218246027628424,0.267078837853888 l -2.6227511742877585 3.301298482003369" fill="#ff1b02" stroke="none" /><path d="M 113.06298171725822 83.55741782278167 l 4.959597133259125 -6.2427235369832355 a28.97302959253486,28.97302959253486 0 0,0 0.3878200072262845,0.3135901414366244 l -5.0663205390499 6.156427298282481" fill="#ff5207" stroke="none" /><path d="M 113.6212207817346 84.01681056812373 l 12.162631215157926 -14.271675191007718 a39.751274912217546,39.751274912217546 0 0,0 0.516967604296377,0.44830921216245234 l -12.406492618101067 14.060200985425595" fill="#ffe315" stroke="none" /><path d="M 114.42810811169701 84.74124197986012 l 12.061864335184572 -12.756285698547432 a38.55595044602722,38.55595044602722 0 0,0 0.47830814998282606,0.4601320613204281 l -12.279655728779815 12.546770550464702" fill="#ffd313" stroke="none" /><path d="M 114.68862486808459 84.99185889309783 l 2.8932579235609093 -2.956193895986347 a25.13642644838693,25.13642644838693 0 0,0 0.306621550847809,0.3053048204644605 l -2.9437152745760407 2.905953224871768" fill="#ff1a02" stroke="none" /><path d="M 114.94478906791727 85.2469230424477 l 9.596345850506475 -9.473243697211977 a34.48451704101038,34.48451704101038 0 0,0 0.413380251817211,0.4260246866476342 l -9.757990366026796 9.306654815014229" fill="#ff9e0e" stroke="none" /><path d="M 115.19652480421416 85.50635884689758 l 11.268074849804872 -10.746893481467623 a36.57129507532422,36.57129507532422 0 0,0 0.4305532962133728,0.45928423693999904 l -11.451395467988707 10.551339827649569" fill="#ffb911" stroke="none" /><path d="M 115.4437574822437 85.77008943001954 l 14.984780465496168 -13.80700818307735 a41.375895577045945,41.375895577045945 0 0,0 0.4781011517608115,0.527931233052174 l -15.220225257873015 13.547024162755626" fill="#fff717" stroke="none" /><path d="M 115.68641384162765 86.03803664274999 l 14.46886131111704 -12.878259714840414 a40.37001602795468,40.37001602795468 0 0,0 0.4575424896259948,0.5230501598592443 l -14.688395664320884 12.627293998778223" fill="#ffea16" stroke="none" /><path d="M 116.38621287248628 86.86637796730983 l 12.808973627778931 -10.266448969207088 a37.41553471058648,37.41553471058648 0 0,0 0.3984681743055983,0.5060141162914601 l -12.983795882678494 10.044442458962589" fill="#ffc412" stroke="none" /><path d="M 116.60985879189232 87.15038557335679 l 12.72794771362498 -9.846514808565885 a37.092063474771614,37.092063474771614 0 0,0 0.3863298432698534,0.50836478866792 l -12.895553497118946 9.625965244016932" fill="#ffc011" stroke="none" /><path d="M 116.82858285166822 87.43820079747576 l 12.104169765539007 -9.035231988823902 a36.10451398770763,36.10451398770763 0 0,0 0.36747069029513624,0.5012296085906979 l -12.257903068347769 8.82553993656171" fill="#ffb310" stroke="none" /><path d="M 117.04232023915458 87.72973835380427 l 14.07038650688084 -10.130505792625248 a38.33790425822649,38.33790425822649 0 0,0 0.3809827048504213,0.5388730176116838 l -14.242681831535146 9.886806274681772" fill="#ffd013" stroke="none" /><path d="M 117.2510076193507 88.02491185347247 l 20.17870135875932 -14.007397874112858 a45.56394072069253,45.56394072069253 0 0,0 0.44170017040253046,0.648140497127395 l -20.41682599483058 13.657979353715056" fill="#d4ff1c" stroke="none" /><path d="M 117.45458315368197 88.32363383020206 l 3.4803309038750094 -2.3281918375195407 a25.18726407487754,25.18726407487754 0 0,0 0.2379637113611508,0.3624350581548607 l -3.5198912505940854 2.267938715387006" fill="#ff1b02" stroke="none" /><path d="M 117.65298651832404 88.62581576622439 l 11.00379685160591 -7.0899738427426255 a34.09012124627525,34.09012124627525 0 0,0 0.31358431740046705,0.4960150826908248 l -11.124208765252332 6.899511112337594" fill="#ff980e" stroke="none" /><line stroke="#e1ed5e" stroke-width="0.3" x1="172.23445277983987" x2="176.4835382374775" y1="55.19839476539836" y2="52.563006222186495" /><path d="M 173.08426987136738 54.67131705675599 a86.0,86.0 0 0,1 12.851231095245387,41.99856678651699" fill="none" id="id63" stroke="none" /><text fill="#e1ed5e" style="font-size:6.75px; font-family:Arial;" text-anchor="middle"><textPath startOffset="22.20632615414155" xlink:href="#id63">March</textPath></text><path d="M 117.84615892207809 88.93136811851018 l 10.852900382652061 -6.731238901691208 a33.77086621445117,33.77086621445117 0 0,0 0.3021434399945185,0.4966443720826045 l -10.967159620932803 6.543426756401522" fill="#ff940d" stroke="none" /><path d="M 118.03404312379186 89.2402003453031 l 12.94779906107651 -7.725151975635465 a36.077250199312815,36.077250199312815 0 0,0 0.31359776169514336,0.5360402289450062 l -13.078856497241981 7.501132334336564" fill="#ffb310" stroke="none" /><path d="M 118.21658344932153 89.55222093294921 l 2.306264517487023 -1.3227146690770017 a23.658651936679778,23.658651936679778 0 0,0 0.1995690194240383,0.3550110170457582 l -2.3286911782034942 1.2828201420964498" fill="#ff0400" stroke="none" /><path d="M 118.3937258080291 89.86733742301442 l 24.28861614625135 -13.380016340379472 a48.730158881058784,48.730158881058784 0 0,0 0.39840826684167574,0.7381900107283559 l -24.51533251231149 12.959945346318657" fill="#afff20" stroke="none" /><path d="M 118.56541770881063 90.18545643968196 l 13.298447898531206 -7.030178271874496 a36.0423443333905,36.0423443333905 0 0,0 0.28523322071449697,0.5509797945096971 l -13.41749055240582 6.800225755104454" fill="#ffb210" stroke="none" /><path d="M 119.04729006885535 91.15688171328212 l 19.41903971812295 -9.015711139015258 a42.40986106718585,42.40986106718585 0 0,0 0.30171118958780585,0.6647806129230215 l -19.5713532246741 8.680108517250174" fill="#faff18" stroke="none" /><path d="M 119.196687751892 91.48605970444005 l 13.578767256336935 -6.022331310585738 a35.854339252091606,35.854339252091606 0 0,0 0.24536198299894255,0.5663292857238539 l -13.680419949178557 5.787702880275281" fill="#ffb010" stroke="none" /><path d="M 119.34039704204932 91.81776055985345 l 13.276307049266228 -5.6167369740042945 a35.41554935136164,35.41554935136164 0 0,0 0.23269417892854785,0.5634874114121882 l -13.371022915080973 5.387374992138803" fill="#ffaa0f" stroke="none" /><path d="M 119.47837535516314 92.15188598940014 l 23.697979883746925 -9.548252590750531 a46.5492343937592,46.5492343937592 0 0,0 0.2930528111868362,0.7457874396723648 l -23.85882624481546 9.138916146182382" fill="#c8ff1d" stroke="none" /><path d="M 119.7369772167798 92.82701384747503 l 14.556846839411202 -5.290377531304636 a36.48837900910902,36.48837900910902 0 0,0 0.20945531789486221,0.5921583892452212 l -14.645755238115873 5.0390215156328" fill="#ffb811" stroke="none" /><path d="M 119.85752413597 93.16781622104841 l 17.248169645770965 -5.934408744188849 a39.240519819138925,39.240519819138925 0 0,0 0.21425829506023625,0.6406050309195637 l -17.34776523460297 5.6366306103469705" fill="#ffdc14" stroke="none" /><path d="M 119.97218684219823 93.5106431181261 l 14.259514203083723 -4.633197023294778 a35.993340520531575,35.993340520531575 0 0,0 0.18638468583197276,0.5908903882957374 l -14.337154372683903 4.387056468572621" fill="#ffb210" stroke="none" /><path d="M 120.08093135843002 93.85539295169968 l 12.808995772595086 -3.9194519567388326 a34.39524080946448,34.39524080946448 0 0,0 0.16836323441123183,0.5676371285874708 l -12.87456490411802 3.698385441404832" fill="#ff9c0e" stroke="none" /><path d="M 120.18372546131832 94.20196356495316 l 14.524654276010812 -4.172394975356007 a36.112063448385044,36.112063448385044 0 0,0 0.16648216590240736,0.598924929013816 l -14.594323212479583 3.9217587429232394" fill="#ffb310" stroke="none" /><path d="M 120.37134235888165 94.90015583598534 l 14.638327219414714 -3.6646179876468006 a36.090064571698896,36.090064571698896 0 0,0 0.14567874819757734,0.603932460993364 l -14.699238767873112 3.4121002949940307" fill="#ffb310" stroke="none" /><path d="M 120.53481517161879 95.60439243477599 l 12.539829393262403 -2.6842300983465592 a33.8239000476843,33.8239000476843 0 0,0 0.11696740173160017,0.5703745909705021 l -12.584176090909 2.467979851212645" fill="#ff950d" stroke="none" /><path d="M 120.6074358757038 95.95851677861258 l 14.415317390482288 -2.8270990974329013 a35.68992391998839,35.68992391998839 0 0,0 0.11304235491667737,0.6038767801173877 l -14.461845469308825 2.578544239852951" fill="#ffae10" stroke="none" /><path d="M 120.67395015179393 96.31383870115 l 3.1363043972549245 -0.559202465213015 a24.185767202628103,24.185767202628103 0 0,0 0.06954921233675972,0.41048338816673136 l -3.1454654711119074 0.5051332887304458" fill="#ff0c01" stroke="none" /><path d="M 120.78858239683441 97.02765380044208 l 3.8835986855242437 -0.5552759477858319 a24.92309445825551,24.92309445825551 0 0,0 0.0570667665434474,0.425213695399179 l -3.892581451125527 0.4883439103219885" fill="#ff1702" stroke="none" /><path d="M 120.83666639777658 97.38593545837742 l 14.982565479427732 -1.879638153946244 a36.10001019652338,36.10001019652338 0 0,0 0.07204469923348265,0.6172349860761135 l -15.012700531664803 1.6214594295452776" fill="#ffb310" stroke="none" /><path d="M 120.87857604477298 97.74499172005257 l 3.049111301879322 -0.32932184730771075 a24.066844079890984,24.066844079890984 0 0,0 0.04093984982339736,0.41225870067894743 l -3.054328277384948 0.2767876159243284" fill="#ff0a01" stroke="none" /><path d="M 120.94382443527127 98.46500227214037 l 3.3315070299568066 -0.24417010069659983 a24.340442804288948,24.340442804288948 0 0,0 0.02702879718508788,0.4181235292245081 l -3.3352164181463095 0.1867875072190565" fill="#ff0e01" stroke="none" /><path d="M 120.96714384426684 98.82574320788733 l 3.4180914338614037 -0.1914288904624162 a24.423447687688594,24.423447687688594 0 0,0 0.01989509830639551,0.4199540808570728 l -3.4208801404012954 0.1325637029823436" fill="#ff1001" stroke="none" /><path d="M 120.98425023603335 99.18683210126433 l 21.968457936762945 -0.8513072698792441 a42.9849463994587,42.9849463994587 0 0,0 0.022287296676429806,0.7396068735933681 l -21.97985692789502 0.473030248860877" fill="#f3ff19" stroke="none" /><line stroke="#e1ed5e" stroke-width="0.3" x1="184.98032266829074" x2="189.97916517819016" y1="98.17113171792111" y2="98.06355123074" /><path d="M 185.9800911702706 98.14961562048488 a86.0,86.0 0 0,1 -9.607161424134198,41.387399972396054" fill="none" id="id64" stroke="none" /><text fill="#e1ed5e" style="font-size:6.75px; font-family:Arial;" text-anchor="middle"><textPath startOffset="21.466115282336823" xlink:href="#id64">April</textPath></text><path d="M 120.99513854157772 99.54816195383933 l 24.290615495828835 -0.5227602677610417 a45.29624002729125,45.29624002729125 0 0,0 0.010066534752457914,0.7796642102883877 l -24.296015037699007 0.10455979941219126" fill="#d7ff1c" stroke="none" /><path d="M 120.99980553446 99.90962569577887 l 17.65722945737061 -0.07598926685602499 a38.6573929694877,38.6573929694877 0 0,0 -0.0028637814773037704,0.6654419598012057 l -17.655921378603804 -0.2279621711488654" fill="#ffd513" stroke="none" /><path d="M 120.99824983174949 100.27111621757518 l 14.927295433182755 0.19273186617451826 a35.92853959775563,35.92853959775563 0 0,0 -0.013307139467170036,0.6183304816389055 l -14.921766231030578 -0.4496521636035386" fill="#ffb110" stroke="none" /><path d="M 120.9904718944345 100.63252640178507 l 14.833385754823292 0.446988908347316 a35.84011900341706,35.84011900341706 0 0,0 -0.02388977259080475,0.6164888787504735 l -14.823493849381284 -0.7022550341117957" fill="#ffb010" stroke="none" /><path d="M 120.9764740272857 100.99374915477107 l 24.527071181961254 1.1619567818871233 a45.55457929446089,45.55457929446089 0 0,0 -0.04384877530116455,0.7829493389434111 l -24.50343605577256 -1.5839778371659576" fill="#d4ff1c" stroke="none" /><path d="M 120.95626037817324 101.35467743843564 l 16.786171568853064 1.0851100096904451 a37.82120743799628,37.82120743799628 0 0,0 -0.047588878856276676,0.6493124424536105 l -16.76500613133245 -1.373895588640826" fill="#ffca12" stroke="none" /><path d="M 120.89721153311464 102.0752229133903 l 21.177195955245335 2.1030271056997485 a42.28136159962908,42.28136159962908 0 0,0 -0.07815548317616211,0.7236227083155157 l -21.13785817056812 -2.4672461359000555" fill="#fcff18" stroke="none" /><path d="M 120.8583938346157 102.4346265915055 l 27.479582317281544 3.207462777986752 a48.66613926453098,48.66613926453098 0 0,0 -0.10428108655650471,0.8312228629316362 l -27.42029972147819 -3.680003395205783" fill="#afff20" stroke="none" /><path d="M 120.76222939487914 103.15116336523771 l 17.153163170258185 2.603401511082132 a38.349602478829496,38.349602478829496 0 0,0 -0.10467294928707102,0.6517985551287239 l -17.105808466609826 -2.898279295904061" fill="#ffd113" stroke="none" /><path d="M 120.70491114924044 103.5080841355445 l 12.528188170154403 2.1226818048164984 a33.70674139468085,33.70674139468085 0 0,0 -0.10184822184025885,0.5712189160119696 l -12.489793505974955 -2.338019471561686" fill="#ff930d" stroke="none" /><path d="M 120.5718875245553 104.21870165774334 l 14.450516047728446 2.963384664291592 a35.75123936197281,35.75123936197281 0 0,0 -0.12881675681505717,0.6017890025334326 l -14.397365252188944 -3.211687486241194" fill="#ffaf10" stroke="none" /><path d="M 120.49622156327973 104.57218783832717 l 19.986010653105037 4.4583727084857765 a41.47724857088468,41.47724857088468 0 0,0 -0.16144413452104286,0.6954971061310924 l -19.90630595265344 -4.801738471965434" fill="#fff817" stroke="none" /><path d="M 120.41448212921028 104.9243191809786 l 20.70097352770876 4.993425763251037 a42.2947084001636,42.2947084001636 0 0,0 -0.17680937441542913,0.7062655607972608 l -20.61195283899827 -5.349019163445694" fill="#fcff18" stroke="none" /><path d="M 120.32669344350535 105.2749913415812 l 12.619277976967858 3.274835735114644 a34.0372821459064,34.0372821459064 0 0,0 -0.15205251972405526,0.5658439908189503 l -12.561037380902025 -3.4915706591091427" fill="#ff980e" stroke="none" /><path d="M 120.13307415673323 105.97154293290107 l 14.467315257147101 4.291058261113891 a36.09027474070486,36.09027474070486 0 0,0 -0.18178023049832132,0.5940683110022604 l -14.391308254142647 -4.539453544668208" fill="#ffb310" stroke="none" /><path d="M 120.02730092923936 106.31721596034902 l 14.687901252032262 4.633007939572245 a36.40127286160434,36.40127286160434 0 0,0 -0.1936335357863428,0.5959427453346667 l -14.605975465229672 -4.885149584884707" fill="#ffb711" stroke="none" /><path d="M 119.9155931802556 106.66101706037122 l 25.0427384434873 8.375854361991054 a47.40631903621179,47.40631903621179 0 0,0 -0.26549608523280804,0.7716558996492628 l -24.89485152731126 -8.805682964729618" fill="#beff1f" stroke="none" /><path d="M 119.41010516605496 108.01547362559984 l 11.663747314994199 4.816586936504399 a33.61913274139468,33.61913274139468 0 0,0 -0.22548675522814104,0.5329840816486208 l -11.579109578573748 -5.016645543819184" fill="#ff920d" stroke="none" /><path d="M 119.26925614724726 108.34839909993367 l 14.128079015978342 6.120985742235556 a36.39704787088676,36.39704787088676 0 0,0 -0.2540148502352903,0.5727364293185624 l -14.020623081011777 -6.3632705080468055" fill="#ffb711" stroke="none" /><path d="M 119.12269723197855 108.67885076344098 l 12.013446467125778 5.452311866780747 a34.192823833855094,34.192823833855094 0 0,0 -0.24785789092555896,0.5338638465805335 l -11.91781395936039 -5.6582957806401115" fill="#ff9a0e" stroke="none" /><line stroke="#e1ed5e" stroke-width="0.3" x1="174.80103733775053" x2="179.2010983576182" y1="140.37084112569926" y2="142.7455964860345" /><path d="M 175.68104954172406 140.8457921977663 a86.0,86.0 0 0,1 -30.038265399797805,32.042727171017184" fill="none" id="id65" stroke="none" /><text fill="#e1ed5e" style="font-size:6.75px; font-family:Arial;" text-anchor="middle"><textPath startOffset="22.206326154141568" xlink:href="#id65">May</textPath></text><path d="M 118.48025628344425 109.97397251340804 l 6.2902186648919916 3.394891667339266 a28.147876627721352,28.147876627721352 0 0,0 -0.23379303370109966,0.42440226594466435 l -6.2308492217393825 -3.5026644516817353" fill="#ff4606" stroke="none" /><path d="M 118.30583269289576 110.29060199501025 l 13.189152809375166 7.414266506725137 a36.130270971195294,36.130270971195294 0 0,0 -0.309426529173481,0.5395112352537268 l -13.059574284049306 -7.640197587837179" fill="#ffb410" stroke="none" /><path d="M 118.12598468904814 110.60418214915192 l 14.354468833042889 8.397745268530544 a37.63048108365861,37.63048108365861 0 0,0 -0.3318992739699844,0.5562822739842641 l -14.207788683374677 -8.643589636400913" fill="#ffc712" stroke="none" /><path d="M 117.94076556474637 110.91462005526583 l 10.935409112751 6.652772713841328 a33.80009989200355,33.80009989200355 0 0,0 -0.30667210534198786,0.4944530803354149 l -10.81927236774105 -6.840022125542016" fill="#ff940d" stroke="none" /><path d="M 117.75023020441432 111.22182372390056 l 17.721798080761406 11.20384872999597 a41.966362430805944,41.966362430805944 0 0,0 -0.3912766507479939,0.6072700510757026 l -17.52631656663636 -11.507240380993126" fill="#fffe18" stroke="none" /><path d="M 117.55443506779139 111.5257021239791 l 15.193734327252482 9.975738628473032 a39.175943551594216,39.175943551594216 0 0,0 -0.3749639522131107,0.5605202327814819 l -15.01976726962865 -10.23579577546032" fill="#ffdb14" stroke="none" /><path d="M 117.14729908036423 112.12312394758627 l 12.179720076323768 8.611050372432269 a35.91629208798789,35.91629208798789 0 0,0 -0.361249841520157,0.5017444340674796 l -12.029690442428008 -8.819428411950879" fill="#ffb110" stroke="none" /><path d="M 116.498646956653 112.99209946851258 l 2.552462421547931 2.009973651628374 a24.24885495115658,24.24885495115658 0 0,0 -0.2610586551255463,0.32571081187235756 l -2.5174858543675307 -2.0536122970789816" fill="#ff0d01" stroke="none" /><path d="M 116.27256486870786 113.27417163493432 l 3.189397994412385 2.601717475488982 a25.115968098640526,25.115968098640526 0 0,0 -0.2761608333582025,0.3326535139679295 l -3.144141161160639 -2.656232246570682" fill="#ff1a02" stroke="none" /><path d="M 116.0416608686014 113.55231037782055 l 3.2199893040262975 2.7203102483509487 a25.215260248825327,25.215260248825327 0 0,0 -0.2829602357503751,0.32914668022881 l -3.1726865587051436 -2.775334027741287" fill="#ff1b02" stroke="none" /><path d="M 115.80600337817218 113.82643327865902 l 5.45878601461938 4.775118593093704 a28.252592800613677,28.252592800613677 0 0,0 -0.3233457454341222,0.36328237275994885 l -5.37578141953692 -4.86837513559452" fill="#ff4706" stroke="none" /><path d="M 115.56566222782051 114.09645910891815 l 3.2896393740947665 2.9791387119484596 a25.438129637203552,25.438129637203552 0 0,0 -0.296721963262071,0.3220330878215019 l -3.2378710028369735 -3.0353230545712964" fill="#ff1f03" stroke="none" /><path d="M 115.32070863581623 114.36230785411682 l 3.7955703464698503 3.5581350114914287 a26.20256465745524,26.20256465745524 0 0,0 -0.31130324852877,0.32640021150842896 l -3.7337605465621158 -3.622942339582365" fill="#ff2a04" stroke="none" /><path d="M 115.07121518719521 114.62390073753431 l 2.001306361620486 1.9419074848456597 a23.788589577682995,23.788589577682995 0 0,0 -0.2876826352361321,0.2914209906500684 l -1.9675831013288183 -1.9760689694763927" fill="#ff0601" stroke="none" /><path d="M 114.55890576462653 115.13401014063108 l 8.04612238534225 8.36395947203605 a32.60585643068909,32.60585643068909 0 0,0 -0.4078280987304794,0.3856269226961156 l -7.900958452220963 -8.501221031478089" fill="#ff840c" stroke="none" /><path d="M 114.29624159901734 115.38237550388516 l 2.036153269951873 2.1908467316344327 a23.99094124653912,23.99094124653912 0 0,0 -0.30491395368644225,0.2785316672525018 l -1.9981397667985668 -2.2255711654735175" fill="#ff0901" stroke="none" /><path d="M 113.75828350139079 115.86535959552629 l 2.9531596865507286 3.405435014142771 a25.507564727191166,25.507564727191166 0 0,0 -0.33419103166170766,0.28480484730170486 l -2.894103178311974 -3.4557642516674227" fill="#ff2003" stroke="none" /><path d="M 112.63410532772338 116.77436683061366 l 2.5583332135331838 3.3967122075973184 a25.252378470069154,25.252378470069154 0 0,0 -0.3494628912419408,0.2585242924629962 l -2.499485351872679 -3.4402464488000835" fill="#ff1c02" stroke="none" /><path d="M 112.04921762599082 117.19931262002967 l 5.667295721039287 8.089619910761284 a30.877256253145184,30.877256253145184 0 0,0 -0.43793229508258663,0.30121382583766826 l -5.5272065413338165 -8.185974525964047" fill="#ff6c0a" stroke="none" /><path d="M 111.7513745106137 117.40417183066458 l 2.3782827363649592 3.522314889055241 a25.25005069990369,25.25005069990369 0 0,0 -0.36230853018950754,0.24011833772930033 l -2.3172995074354876 -3.5627312478758597" fill="#ff1c02" stroke="none" /><path d="M 111.45004920935366 117.60387380957326 l 3.374386450870401 5.1879491677057565 a27.188804447267387,27.188804447267387 0 0,0 -0.3945201664604629,0.2518014363106935 l -3.2845844823630075 -5.245265032840258" fill="#ff3805" stroke="none" /><path d="M 111.1453310114006 117.79835938074945 l 3.2210560136737834 5.143814253542371 a27.069104292905973,27.069104292905973 0 0,0 -0.39704034101984165,0.24389460594491763 l -3.132036472721633 -5.198497326315667" fill="#ff3605" stroke="none" /><line stroke="#e1ed5e" stroke-width="0.3" x1="143.8653032363475" x2="146.44561519142675" y1="172.8068346515853" y2="177.08958963109032" /><path d="M 144.38136562736335 173.6633856474863 a86.0,86.0 0 0,1 -40.68145358897372,12.25698825130547" fill="none" id="id66" stroke="none" /><text fill="#e1ed5e" style="font-size:6.75px; font-family:Arial;" text-anchor="middle"><textPath startOffset="21.466115282336833" xlink:href="#id66">June</textPath></text><path d="M 110.8373102113329 117.98757091392108 l 2.195917413962826 3.6447438925818476 a25.255139402118086,25.255139402118086 0 0,0 -0.3742957525522002,0.22114052810389787 l -2.1328537903822435 -3.682002992979495" fill="#ff1c02" stroke="none" /><path d="M 110.21172684928248 118.3499491758327 l 1.3539881049071207 2.433047150245057 a23.784421344470978,23.784421344470978 0 0,0 -0.3594587032209282,0.19600554553072147 l -1.311906589817544 -2.4559933475355487" fill="#ff0601" stroke="none" /><path d="M 109.89434966115114 118.52300852407294 l 1.9261218611609348 3.6058531257259374 a25.088046255651907,25.088046255651907 0 0,0 -0.38266330731054254,0.20019135660006726 l -1.8637676513238965 -3.6384739012707215" fill="#ff1902" stroke="none" /><path d="M 109.2508944713604 118.85261126421891 l 6.149883921096794 12.532990322551841 a34.960548652117616,34.960548652117616 0 0,0 -0.5425333297850795,0.2604489679929939 l -5.933237923311482 -12.636993567044396" fill="#ffa40f" stroke="none" /><path d="M 108.92500713936063 119.00905698771935 l 8.40214295052319 17.89542704801708 a40.76973230450852,40.76973230450852 0 0,0 -0.6378172317155224,0.29279060812087904 l -8.092857723040249 -18.037404726472033" fill="#ffef16" stroke="none" /><path d="M 108.59647513512805 119.15986991738527 l 6.445359489133852 14.36545182082353 a36.745121941749765,36.745121941749765 0 0,0 -0.5793119134330038,0.25395331844121866 l -6.197126901043095 -14.474269692559204" fill="#ffbc11" stroke="none" /><path d="M 108.2653958097858 119.30500536409082 l 8.517436753878286 19.893682771640407 a42.64036374636478,42.64036374636478 0 0,0 -0.677227537467734,0.2830811655862924 l -8.17373775691309 -20.03734898024667" fill="#f7ff18" stroke="none" /><path d="M 107.93186726928326 119.44442032107085 l 5.918946875462657 14.509886133657487 a36.670696465896306,36.670696465896306 0 0,0 -0.5865197176076471,0.2333883000235361 l -5.668306081813144 -14.609621278087092" fill="#ffbb11" stroke="none" /><path d="M 107.59598834532513 119.57807347666477 l 6.459168680549924 16.64800856412656 a38.857128806026694,38.857128806026694 0 0,0 -0.6256548754795892,0.23656913874678825 l -6.171643584310059 -16.75672595297998" fill="#ffd714" stroke="none" /><path d="M 107.2578585660854 119.70592522655815 l 5.491237903107648 14.909345853820534 a36.8884325059888,36.8884325059888 0 0,0 -0.5977339057532497,0.21432611224938855 l -5.2337844367246635 -15.001659507109883" fill="#ffbe11" stroke="none" /><path d="M 106.91757812671514 119.82793768551818 l 6.725267047989015 19.27671411921102 a41.4161926935596,41.4161926935596 0 0,0 -0.6751436335956917,0.2290453768324663 l -6.392453681456097 -19.38962248294161" fill="#fff817" stroke="none" /><path d="M 106.57524785965236 119.94407469862006 l 5.337245277243067 16.188959072916337 a38.04607236327517,38.04607236327517 0 0,0 -0.6237357437048154,0.1997004882086968 l -5.0577881884473115 -16.278432407784738" fill="#ffcd13" stroke="none" /><path d="M 105.88484417918355 120.15858648285463 l 0.7197355215830351 2.465460480319297 a23.568368081300783,23.568368081300783 0 0,0 -0.3904143178153713,0.11033498595783871 l -0.677190035663058 -2.4774842596156548" fill="#ff0300" stroke="none" /><path d="M 105.53697534728816 120.25689768951611 l 1.366826627286091 5.000503959585317 a26.183942021173337,26.183942021173337 0 0,0 -0.43578752291760564,0.11509544561369996 l -1.2805486615569879 -5.0232907545026" fill="#ff2904" stroke="none" /><path d="M 105.18746579009965 120.34920634021253 l 4.254511057700571 16.689444690911706 a38.223194489730915,38.223194489730915 0 0,0 -0.6389584224876872,0.15704043446628987 l -3.9665993504696733 -16.760206383692026" fill="#ffcf13" stroke="none" /><path d="M 104.48393922423573 120.51570834832081 l 3.7387611976550583 17.106238617269312 a38.510046685376,38.510046685376 0 0,0 -0.648818254192348,0.13596617350772935 l -3.4437514820333326 -17.16806077150358" fill="#ffd313" stroke="none" /><path d="M 104.13013068566511 120.58985236759428 l 2.6161745599278423 13.042359202756229 a34.30216158756665,34.30216158756665 0 0,0 -0.5799227739895543,0.11114357986293301 l -2.3912841713665838 -13.085459980967629" fill="#ff9b0e" stroke="none" /><path d="M 103.7750983002368 120.6578951692458 l 4.1173078415225195 22.530516295257918 a43.90363264621456,43.90363264621456 0 0,0 -0.7445868534791715,0.12945596864500783 l -3.728872016571298 -22.59805084242393" fill="#e8ff1a" stroke="none" /><path d="M 103.41894727170886 120.7198165907248 l 2.839394142924158 17.20755577513235 a38.44024469017458,38.44024469017458 0 0,0 -0.653784609402071,0.10210771022901752 l -2.54277366991357 -17.253881792708473" fill="#ffd213" stroke="none" /><path d="M 103.06178313531738 120.77559828337769 l 3.176890134013797 21.556651891302216 a42.78948993635183,42.78948993635183 0 0,0 -0.7296044259003066,0.1011165252591128 l -2.8053571169266602 -21.60814298205393" fill="#f5ff19" stroke="none" /><path d="M 102.70371172650421 120.8252237178851 l 2.152326325040045 16.57820129027082 a37.71733431591883,37.71733431591883 0 0,0 -0.6445579505517331,0.07804699145654433 l -1.8666409514369318 -16.612793810452715" fill="#ffc812" stroke="none" /><path d="M 102.34483914955558 120.86867818915974 l 0.6974809838444749 6.207464677339399 a27.246526830426728,27.246526830426728 0 0,0 -0.4665220430443961,0.0483569172551013 l -0.5905263441944761 -6.218550963050258" fill="#ff3905" stroke="none" /><path d="M 101.98527174616119 120.90594882070398 l 1.4895738475996683 15.685990939423434 a36.75655869786061,36.75655869786061 0 0,0 -0.6303849273952885,0.054392264057105545 l -1.2193446024628383 -15.709307455759202" fill="#ffbc11" stroke="none" /><path d="M 101.62511606390274 120.93702456842531 l 0.3279363371512796 4.224935867858543 a25.23764384165798,25.23764384165798 0 0,0 -0.4334111523571507,0.029890570611924513 l -0.25516242401519856 -4.229954782986752" fill="#ff1c02" stroke="none" /><path d="M 101.26447882468166 120.96189622390904 l 0.2504446531938086 4.151745942762749 a25.159292836235544,25.159292836235544 0 0,0 -0.43251451924572853,0.02235606028811928 l -0.17894206553460046 -4.1554418098130705" fill="#ff1a02" stroke="none" /><path d="M 100.90346689309514 120.98055641714683 l 0.1092615149659848 2.5373009199191228 a23.539652345671566,23.539652345671566 0 0,0 -0.40497130100691286,0.013948030434136456 l -0.06556986228441966 -2.538805748779353" fill="#ff0200" stroke="none" /><line stroke="#e1ed5e" stroke-width="0.3" x1="102.19456741930631" x2="102.32365962044197" y1="184.97166512339345" y2="189.96999836594603" /><path d="M 102.22038585953345 185.97133177190398 a86.0,86.0 0 0,1 -42.740103519485714,-10.115201625700543" fill="none" id="id67" stroke="none" /><text fill="#e1ed5e" style="font-size:6.75px; font-family:Arial;" text-anchor="middle"><textPath startOffset="22.20632615414155" xlink:href="#id67">July</textPath></text><path d="M 100.54218724476979 120.99299961872073 l 0.4026376802151588 15.589766725014487 a36.59496532993575,36.59496532993575 0 0,0 -0.6298521722485257,0.010843476344470937 l -0.13422581807396508 -15.594387678638117" fill="#ffba11" stroke="none" /><path d="M 100.18074693466247 120.99922214144158 l 0.15381491135555422 17.870253225889034 a38.87091518038046,38.87091518038046 0 0,0 -0.6691236920360071,0.0 l 0.1538149113555419 -17.870253225889034" fill="#ffd714" stroke="none" /><path d="M 99.45781275523022 120.99299961872073 l -0.40013124972822806 15.492720004045234 a36.49788624750977,36.49788624750977 0 0,0 -0.6279020718152005,-0.021626216933298265 l 0.6667536732180717 -15.483536988685842" fill="#ffb811" stroke="none" /><path d="M 98.73552117531835 120.96189622390904 l -0.44432681938347945 7.36582732396566 a28.37921665821668,28.37921665821668 0 0,0 -0.4873620165178982,-0.03361133807718411 l 0.5710515966803077 -7.357087641372191" fill="#ff4906" stroke="none" /><path d="M 98.01472825383883 120.90594882070398 l -1.4594444649910687 15.368712797510344 a36.437853192680365,36.437853192680365 0 0,0 -0.623898297988508,-0.06466960955273676 l 1.72377535958517 -15.341313819501847" fill="#ffb811" stroke="none" /><path d="M 97.65516085044442 120.86867818915974 l -1.999150877857923 17.79211010252038 a38.904071775231685,38.904071775231685 0 0,0 -0.6648383091319574,-0.08050266044875151 l 2.30511661004127 -17.75506191334628" fill="#ffd814" stroke="none" /><path d="M 97.2962882734958 120.8252237178851 l -2.3636846462079077 18.206179702247702 a39.35897558300177,39.35897558300177 0 0,0 -0.671110658878503,-0.09300982214630557 l 2.676723896273242 -18.162795314608793" fill="#ffde14" stroke="none" /><path d="M 96.93821686468263 120.77559828337769 l -1.9482397319184448 13.219697229097717 a34.362486029255166,34.362486029255166 0 0,0 -0.5844308403287294,-0.09127607783206113 l 2.175506435855691 -13.18420284391855" fill="#ff9c0e" stroke="none" /><path d="M 96.22490169976321 120.6578951692458 l -2.7813628866282283 15.220028293301082 a36.47207939341052,36.47207939341052 0 0,0 -0.6166080642177648,-0.11817440304689308 l 3.042938565417688 -15.16989669190572" fill="#ffb811" stroke="none" /><path d="M 95.51606077576429 120.51570834832081 l -3.7752382684244545 17.27313493496724 a38.680882739981115,38.680882739981115 0 0,0 -0.6492491318828925,-0.14776698864284588 l 4.07200754970021 -17.205591212746704" fill="#ffd513" stroke="none" /><path d="M 95.16358092515715 120.4354850818985 l -4.0625797169916105 17.165755472359077 a38.639946567201875,38.639946567201875 0 0,0 -0.645925062862575,-0.15875266517291883 l 4.357458064597396 -17.093281548872127" fill="#ffd413" stroke="none" /><path d="M 94.81253420990036 120.34920634021253 l -3.923519330377643 15.39104211271022 a36.88326733550331,36.88326733550331 0 0,0 -0.6138597349570107,-0.16212593528645677 l 4.187869508146143 -15.321224828120181" fill="#ffbe11" stroke="none" /><path d="M 94.46302465271185 120.25689768951611 l -5.073296707187002 18.560539988024235 a40.241413256988196,40.241413256988196 0 0,0 -0.6666063535013328,-0.18838961405036822 l 5.39203422879295 -18.470461580635344" fill="#ffe915" stroke="none" /><path d="M 94.11515582081647 120.15858648285463 l -5.640794060035142 19.322590612240695 a41.12910990570572,41.12910990570572 0 0,0 -0.6778959151124919,-0.20424447835840795 l 5.97256494958788 -19.222630764776564" fill="#fff417" stroke="none" /><path d="M 93.76903079525671 120.05430185196036 l -5.322737807389502 17.13116967212301 a38.939022049746214,38.939022049746214 0 0,0 -0.6383749587981352,-0.20438750259040203 l 5.616834111278577 -17.037009322872905" fill="#ffd814" stroke="none" /><path d="M 93.42475214034765 119.94407469862007 l -1.251963934443295 3.7974632685307674 a24.998517346340655,24.998517346340655 0 0,0 -0.40751186282600904,-0.13825014936092683 l 1.3171455302065298 -3.7753501322717176" fill="#ff1802" stroke="none" /><path d="M 93.08242187328487 119.8279376855182 l -9.405890456666052 26.96021735285347 a49.55388055931983,49.55388055931983 0 0,0 -0.802962678534638,-0.2879138484788021 l 9.868572695830418 -26.79431596333471" fill="#a5ff21" stroke="none" /><path d="M 92.7421414339146 119.70592522655815 l -5.984805471543597 16.249438872896675 a38.31652852670603,38.31652852670603 0 0,0 -0.6169504443794015,-0.23327786771326062 l 6.263626136683281 -16.14401275507678" fill="#ffd013" stroke="none" /><path d="M 92.40401165467489 119.57807347666478 l -6.973672211469911 17.97410169044824 a40.27953411500397,40.27953411500397 0 0,0 -0.6442403131468,-0.25635651620589406 l 7.282033600658568 -17.85139832983628" fill="#ffe915" stroke="none" /><path d="M 92.06813273071674 119.44442032107085 l -5.846355205029827 14.331932708091394 a36.4785065278482,36.4785065278482 0 0,0 -0.579363001997405,-0.24217378182264684 l 6.0921896665246935 -14.229173883248773" fill="#ffb811" stroke="none" /><path d="M 91.7346041902142 119.30500536409082 l -9.104893561307032 21.26577154749271 a44.13292299457379,44.13292299457379 0 0,0 -0.6957856366869171,-0.30501197586852424 l 9.469599872651692 -21.105895018329733" fill="#e5ff1a" stroke="none" /><path d="M 91.40352486487194 119.15986991738527 l -5.336195028898564 11.893340119103533 a34.03558654511255,34.03558654511255 0 0,0 -0.5324656887093943,-0.24442888189364687 l 5.540128713375378 -11.799724166875812" fill="#ff980e" stroke="none" /><path d="M 90.7491055286396 118.85261126421891 l -16.758535605183773 34.15260633447053 a59.042726441036386,59.042726441036386 0 0,0 -0.9085441109131744,-0.4555628782782173 l 17.34393362377971 -33.85907561528301" fill="#3fff2d" stroke="none" /><path d="M 90.42595943632237 118.69057910512821 l -8.988052360919719 17.546604543345957 a40.714675149319696,40.714675149319696 0 0,0 -0.6210133738574052,-0.32488484629755243 l 9.28875663730362 -17.38929027810369" fill="#ffef16" stroke="none" /><path d="M 90.10565033884886 118.52300852407294 l -7.614172871663487 14.254336448139934 a37.16049925269473,37.16049925269473 0 0,0 -0.5616140363037018,-0.3062367514739552 l 7.85840971983583 -14.121159044906214" fill="#ffc112" stroke="none" /><line stroke="#e1ed5e" stroke-width="0.3" x1="58.666819895761336" x2="56.23545636021788" y1="174.27360380694188" y2="178.64263932499728" /><path d="M 58.180547188652646 175.14741091055294 a86.0,86.0 0 0,1 -31.652253787137756,-30.449443065178592" fill="none" id="id68" stroke="none" /><text fill="#e1ed5e" style="font-size:6.75px; font-family:Arial;" text-anchor="middle"><textPath startOffset="22.20632615414155" xlink:href="#id68">August</textPath></text><path d="M 89.4739219176387 118.17145234162733 l -2.185838645565339 3.773472176777501 a25.36084657530632,25.36084657530632 0 0,0 -0.37586239391215,-0.22206612743364282 l 2.2504689105058713 -3.7352874770501083" fill="#ff1d03" stroke="none" /><path d="M 88.8546689885994 117.79835938074946 l -10.325893441886654 16.489771566051235 a40.456018135110526,40.456018135110526 0 0,0 -0.5870326163089459,-0.37467199021530984 l 10.608207860242523 -16.309585147012122" fill="#ffec16" stroke="none" /><path d="M 88.54995079064634 117.60387380957326 l -17.36263451687109 26.694175845729212 a52.84399631718915,52.84399631718915 0 0,0 -0.7582491957172082,-0.5025262208564645 l 17.81955841132826 -26.39135160378143" fill="#81ff25" stroke="none" /><path d="M 88.24862548938628 117.40417183066458 l -12.17195138329343 18.027060000342964 a42.751581384653946,42.751581384653946 0 0,0 -0.6063459136620658,-0.41705024837399257 l 12.480454181578388 -17.81486896260387" fill="#f6ff19" stroke="none" /><path d="M 87.95078237400918 117.19931262002967 l -16.064341289712182 22.93058657025381 a48.99776529525626,48.99776529525626 0 0,0 -0.6866049201365777,-0.48987438002615347 l 16.456673537697647 -22.650667928383434" fill="#acff21" stroke="none" /><path d="M 87.65650970185807 116.9893568818739 l -10.269415930946174 14.134638421152966 a38.47137392592536,38.47137392592536 0 0,0 -0.5323980700724416,-0.39385536439934743 l 10.51119897143718 -13.955773108013851" fill="#ffd213" stroke="none" /><path d="M 87.36589467227662 116.77436683061367 l -12.20483677917255 16.204424763846514 a41.28648374493237,41.28648374493237 0 0,0 -0.5639955279972257,-0.4324477208651927 l 12.481961035663263 -15.991937701153956" fill="#fff617" stroke="none" /><path d="M 87.07902340077011 116.55440617244103 l -10.808565824602734 13.84797715775627 a38.56677450605289,38.56677450605289 0 0,0 -0.5198112644760706,-0.41296950631537255 l 11.045334581796164 -13.659873737435767" fill="#ffd313" stroke="none" /><path d="M 86.79598089348748 116.32954008644616 l -10.987419941722083 13.588250133360903 a38.47466562376902,38.47466562376902 0 0,0 -0.5114013557070822,-0.42084849971988464 l 11.219691425973854 -13.397106514783838" fill="#ffd213" stroke="none" /><path d="M 86.51685102203217 116.09983520530335 l -10.138800062795703 12.106445642428278 a36.79117768902677,36.79117768902677 0 0,0 -0.48202491141139087,-0.41079208681191876 l 10.345690450784149 -11.930129165393408" fill="#ffbc11" stroke="none" /><path d="M 86.24171649860922 115.8653595955263 l -12.816351675716877 14.779171254715001 a40.56227934704555,40.56227934704555 0 0,0 -0.5235579047883752,-0.46197897794195864 l 13.06885193341184 -14.556369135000754" fill="#ffed16" stroke="none" /><path d="M 85.97065885151581 115.62618273729859 l -11.993920516256386 13.359087339885999 a38.953254409855006,38.953254409855006 0 0,0 -0.4950781500820254,-0.4522421519102861 l 12.222098215805266 -13.150652421389136" fill="#ffd814" stroke="none" /><path d="M 85.70375840098266 115.38237550388516 l -13.432583412584014 14.453102279261216 a40.73135734385278,40.73135734385278 0 0,0 -0.5094603805167885,-0.48172658869225216 l 13.67937962749162 -14.219741053823032" fill="#ffef16" stroke="none" /><path d="M 85.44109423537348 115.13401014063109 l -20.134888880171207 20.930255159241927 a50.04288779112393,50.04288779112393 0 0,0 -0.6156467830518882,-0.6025399536877658 l 20.492185615598892 -20.580565102631592" fill="#a0ff22" stroke="none" /><path d="M 85.18274418774928 114.88116024355367 l -10.687075942782904 10.733167575340815 a36.1464345113679,36.1464345113679 0 0,0 -0.4371298054751473,-0.44281018508356007 l 10.870246373313584 -10.54761689627659" fill="#ffb410" stroke="none" /><path d="M 84.9287848128048 114.62390073753433 l -10.926637117908674 10.602333960642765 a36.22500850966785,36.22500850966785 0 0,0 -0.4303762999716021,-0.4512478298984516 l 11.107519969259235 -10.412679014161814" fill="#ffb510" stroke="none" /><path d="M 84.67929136418377 114.36230785411682 l -13.015337021219066 12.201150845387975 a38.840041472144264,38.840041472144264 0 0,0 -0.4530479843903139,-0.49169410899206223 l 13.223431413605109 -11.975305481594567" fill="#ffd714" stroke="none" /><path d="M 84.43433777217949 114.09645910891817 l -22.68014149315132 20.539420839498163 a51.5983108450675,51.5983108450675 0 0,0 -0.5905332087955307,-0.6634703202813488 l 23.03033355159519 -20.145976349475948" fill="#8eff24" stroke="none" /><path d="M 84.19399662182784 113.82643327865904 l -11.384708776740615 9.9588689520305 a36.12582773718225,36.12582773718225 0 0,0 -0.4053962811534629,-0.47156746164320223 l 11.554447567464855 -9.761424391225768" fill="#ffb410" stroke="none" /><path d="M 83.95833913139862 113.55231037782056 l -3.175116505853794 2.6824008265438026 a25.15651765544044,25.15651765544044 0 0,0 -0.276606693113813,-0.3331905807656989 l 3.2208191988611437 -2.627348988664343" fill="#ff1a02" stroke="none" /><path d="M 83.72743513129214 113.27417163493432 l -22.18354111023925 18.095987605137754 a49.62820748134563,49.62820748134563 0 0,0 -0.5342880365884377,-0.6666064761852756 l 22.49174705888255 -17.71145329537422" fill="#a4ff21" stroke="none" /><path d="M 83.50135304334701 112.99209946851258 l -15.314168532314698 12.059364708641581 a40.49235837481365,40.49235837481365 0 0,0 -0.42650636320341107,-0.55131696807675 l 15.519481712736177 -11.793969746451578" fill="#ffec16" stroke="none" /><path d="M 83.28015986056508 112.70617746262583 l -5.018071592670377 3.8134639832020656 a27.30266214074218,27.30266214074218 0 0,0 -0.2811377655793403,-0.37662997987056357 l 5.082970624944802 -3.7265211238221942" fill="#ff3a05" stroke="none" /><path d="M 83.06392112726016 112.41649034213515 l -3.4378897222298535 2.520449087072953 a25.2628334875691,25.2628334875691 0 0,0 -0.25409623497260964,-0.3529174464922093 l 3.4807657495780706 -2.4608980351296057" fill="#ff1c02" stroke="none" /><path d="M 82.85270091963577 112.12312394758628 l -22.039240168634596 15.581721589083303 a47.9910754674663,47.9910754674663 0 0,0 -0.471087464817956,-0.6786366284336485 l 22.304188540614685 -15.200043698462641" fill="#b7ff1f" stroke="none" /><path d="M 82.6465618267979 111.8261652097733 l -15.983815580469647 10.892783427153143 a40.34257199292086,40.34257199292086 0 0,0 -0.3861300804914826,-0.577212079517468 l 16.168948766371862 -10.616034433429855" fill="#ffea16" stroke="none" /><path d="M 82.44556493220864 111.52570212397912 l -23.64125154491265 15.522118603786375 a49.281530025086084,49.281530025086084 0 0,0 -0.45948018591666456,-0.713123452259346 l 23.904936594206358 -15.11287355160558" fill="#a8ff21" stroke="none" /><path d="M 82.24976979558568 111.22182372390057 l -31.25915190903339 19.762261584335146 a57.98217896500576,57.98217896500576 0 0,0 -0.5260788267587828,-0.8482065758802656 l 31.594695375460127 -19.221258677089615" fill="#4aff2c" stroke="none" /><path d="M 82.05923443525364 110.91462005526583 l -18.66940735997128 11.357903722429628 a42.85288878250495,42.85288878250495 0 0,0 -0.37796069209983946,-0.6334838602177235 l 18.86214892776935 -11.034857768325793" fill="#f5ff19" stroke="none" /><line stroke="#e1ed5e" stroke-width="0.3" x1="26.63291911575756" x2="22.317208475507996" y1="142.92168965132927" y2="145.44649492493687" /><path d="M 25.769776987707644 143.4266507060508 a86.0,86.0 0 0,1 -11.730757126820373,-40.83630448921669" fill="none" id="id69" stroke="none" /><text fill="#e1ed5e" style="font-size:6.75px; font-family:Arial;" text-anchor="middle"><textPath startOffset="21.46611528233685" xlink:href="#id69">September</textPath></text><path d="M 81.87401531095188 110.60418214915194 l -14.8822098530358 8.706487772708295 a38.24189953126148,38.24189953126148 0 0,0 -0.3275109187637485,-0.5710428928421006 l 15.029872767951925 -8.449025034007889" fill="#ffcf13" stroke="none" /><path d="M 81.69416730710424 110.29060199501025 l -2.2097627965457276 1.2422155180877343 a23.534985406343708,23.534985406343708 0 0,0 -0.19547888848002992,-0.35485096327263904 l 2.230818094477274 -1.2039940364172728" fill="#ff0200" stroke="none" /><path d="M 81.51974371655577 109.97397251340807 l -28.481108935053197 15.371529123440185 a53.364447682034324,53.364447682034324 0 0,0 -0.42932331361161863,-0.8121179146381023 l 28.7414847568897 -14.878996193715956" fill="#7bff26" stroke="none" /><path d="M 81.35079622478065 109.6543875284942 l -27.590254831130625 14.283023305455368 a52.068101267874546,52.068101267874546 0 0,0 -0.40519230337616335,-0.7994828551649636 l 27.832025804293057 -13.80598623858772" fill="#89ff24" stroke="none" /><path d="M 81.18737489456691 109.33194174019688 l -19.12045942304415 9.484641956220964 a42.34362672054552,42.34362672054552 0 0,0 -0.318276360998099,-0.6557435740002321 l 19.280889040656966 -9.154109426255447" fill="#fbff18" stroke="none" /><path d="M 81.02952815118164 109.00673069616217 l -24.066626655507044 11.426264290033014 a47.64135946608667,47.64135946608667 0 0,0 -0.3453440094760282,-0.7438402731659862 l 24.259745281822898 -11.0103039495882" fill="#bbff1f" stroke="none" /><path d="M 80.87730276802145 108.67885076344099 l -17.394338253546657 7.8944337192606815 a40.101965527835,40.101965527835 0 0,0 -0.27987145561443355,-0.6310362485040781 l 17.527650793892374 -7.593849134263907" fill="#ffe715" stroke="none" /><path d="M 80.73074385275274 108.34839909993369 l -17.562587159259476 7.608985303452635 a40.140039839946624,40.140039839946624 0 0,0 -0.26922310601705735,-0.6363638954044529 l 17.690961246468838 -7.305546882382024" fill="#ffe815" stroke="none" /><path d="M 80.58989483394504 108.01547362559985 l -25.619926557920607 10.579841987355687 a48.7184720594527,48.7184720594527 0 0,0 -0.313416105362217,-0.7778730704412912 l 25.798245277540214 -10.13726954907159" fill="#afff20" stroke="none" /><path d="M 80.45479744820244 107.68017299344265 l -29.33366630714631 11.526492558660342 a52.5170431627693,52.5170431627693 0 0,0 -0.32336924284669816,-0.8442150529217503 l 29.52772982958652 -11.019853938905435" fill="#84ff25" stroke="none" /><path d="M 80.32549172779594 107.34259656027581 l -18.008806487057907 6.720950721465261 a40.22207818339795,40.22207818339795 0 0,0 -0.23649765845717632,-0.650739984371507 l 18.121828406520308 -6.409962940087636" fill="#ffe915" stroke="none" /><path d="M 80.0844068197444 106.66101706037122 l -21.676798887524274 7.2500741452774555 a43.85710360308572,43.85710360308572 0 0,0 -0.23329420573561177,-0.7180057363108721 l 21.798385344276134 -6.87586950898878" fill="#e8ff1a" stroke="none" /><path d="M 79.97269907076064 106.31721596034903 l -26.520392388875305 8.365333235150276 a48.808452179059245,48.808452179059245 0 0,0 -0.24583940552187097,-0.8034174014182861 l 26.660458566903305 -7.907588861179941" fill="#aeff20" stroke="none" /><path d="M 79.86692584326677 105.97154293290107 l -22.20806803390817 6.586993654762798 a44.16434266726728,44.16434266726728 0 0,0 -0.20990126596564154,-0.7306938432854966 l 22.318161936759918 -6.203742335972706" fill="#e5ff1a" stroke="none" /><path d="M 79.76711848015287 105.62410040840567 l -34.50618750903183 9.591627523331388 a56.81447046871966,56.81447046871966 0 0,0 -0.25380356029971496,-0.9444974651171725 l 34.666179145673325 -8.996239125038676" fill="#56ff2a" stroke="none" /><path d="M 79.67330655649465 105.27499134158121 l -29.636555111981956 7.690998639030963 a51.61824389103856,51.61824389103856 0 0,0 -0.21578560902816188,-0.861956243418232 l 29.764552035305176 -7.179714556215338" fill="#8eff24" stroke="none" /><path d="M 79.58551787078972 104.9243191809786 l -22.123952808887193 5.336672489966468 a43.75850085473629,43.75850085473629 0 0,0 -0.17032357598064107,-0.7337495075424691 l 22.212536950798388 -4.955054325075425" fill="#eaff1a" stroke="none" /><path d="M 79.50377843672027 104.57218783832718 l -19.648846257380466 4.383159872554571 a41.13179698175369,41.13179698175369 0 0,0 -0.14820366464835902,-0.6923581816966606 l 19.721383960753265 -4.044287871441746" fill="#fff417" stroke="none" /><path d="M 79.4281124754447 104.21870165774334 l -23.6482871308136 4.849582616202374 a45.140421201229614,45.140421201229614 0 0,0 -0.14954391087981864,-0.7625211797860413 l 23.728260974669084 -4.4417977093483785" fill="#d9ff1c" stroke="none" /><path d="M 79.35854240842038 103.8639653848113 l -4.3946350375343055 0.8226510937308262 a25.470969909889874,25.470969909889874 0 0,0 -0.0769630313263803,-0.4316495519794444 l 4.4081445111998745 -0.7468827910181681" fill="#ff1f03" stroke="none" /><path d="M 79.23777060512086 103.15116336523772 l -13.077453246424355 1.9848153489193943 a34.22721721987361,34.22721721987361 0 0,0 -0.0833937166721827,-0.583255460173437 l 13.109681014113136 -1.7594144167655568" fill="#ff9a0e" stroke="none" /><path d="M 79.18660465613746 102.79330883721812 l -27.520181094199952 3.6934082009324816 a48.76691613406638,48.76691613406638 0 0,0 -0.1044970297485009,-0.8329441426402159 l 27.5796796331953 -3.219146304004857" fill="#aeff20" stroke="none" /><path d="M 79.1416061653843 102.43462659150553 l -2.6471299778569706 0.30897743548050965 a23.665101156674012,23.665101156674012 0 0,0 -0.043744036268899056,-0.4050154475560637 l 2.652056315626922 -0.2633656660396638" fill="#ff0400" stroke="none" /><path d="M 79.10278846688536 102.07522291339032 l -20.06023601489438 1.9921060453524402 a41.15890759612721,41.15890759612721 0 0,0 -0.06394409414848574,-0.7056177505531233 l 20.09155470531994 -1.6465069062507507" fill="#fff417" stroke="none" /><path d="M 79.07016306316243 101.71520430193888 l -22.436968075411205 1.838713998658865 a43.51218349218675,43.51218349218675 0 0,0 -0.05474960132821298,-0.7470148113626437 l 22.46529423540375 -1.4522260507994607" fill="#edff1a" stroke="none" /><path d="M 79.04373962182676 101.35467743843564 l -24.425636423455604 1.5789486284848069 a45.476617279808806,45.476617279808806 0 0,0 -0.04377373259600338,-0.7816094010319796 l 24.44919650693914 -1.1582675111173897" fill="#d5ff1c" stroke="none" /><path d="M 79.0235259727143 100.99374915477108 l -20.16800843436754 0.9554485329135224 a41.19062767988571,41.19062767988571 0 0,0 -0.027456234954223266,-0.708523425130942 l 20.181466802172967 -0.6081478607685836" fill="#fff517" stroke="none" /><path d="M 79.0095281055655 100.63252640178507 l -26.211575092190664 0.789859006579963 a47.22347318842082,47.22347318842082 0 0,0 -0.01749053401217944,-0.8127163878122419 l 26.221287688887852 -0.3385528029775922" fill="#c0ff1e" stroke="none" /><line stroke="#e1ed5e" stroke-width="0.3" x1="15.007084014347285" x2="10.007500721073583" y1="101.09737516637583" y2="101.16192664675087" /><path d="M 14.007167355692545 101.11028546245083 a86.0,86.0 0 0,1 10.666146001902534,-42.60595125391555" fill="none" id="id70" stroke="none" /><text fill="#e1ed5e" style="font-size:6.75px; font-family:Arial;" text-anchor="middle"><textPath startOffset="22.20632615414155" xlink:href="#id70">October</textPath></text><path d="M 79.00486145842228 99.54816195383935 l -17.332827145053745 -0.3730211513561564 a38.33684058932512,38.33684058932512 0 0,0 0.019877296854371434,-0.6596307123015398 l 17.32383815374373 0.6713220110826906" fill="#ffd013" stroke="none" /><path d="M 79.03285615573316 98.82574320788736 l -2.4936958855675844 -0.1396584748423794 a23.497603583295795,23.497603583295795 0 0,0 0.0260928680178591,-0.40364511925951946 l 2.490922426545312 0.18256265835491065" fill="#ff0200" stroke="none" /><path d="M 79.08570108090925 98.10471618934814 l -4.258607850268338 -0.3859211607213355 a25.27605846132389,25.27605846132389 0 0,0 0.04299683141250065,-0.43297222456588236 l 4.251333893173609 0.45916891599164816" fill="#ff1c02" stroke="none" /><path d="M 79.12142395522702 97.74499172005258 l -26.182979346959403 -2.8279148489088364 a47.33525222730896,47.33525222730896 0 0,0 0.0944668433967905,-0.8093342242946342 l 26.130422150559024 3.278192811528332" fill="#bfff1e" stroke="none" /><path d="M 79.16333360222342 97.38593545837743 l -24.94065707232504 -3.128930801737547 a46.13616086759032,46.13616086759032 0 0,0 0.10563862869643531,-0.7871304860196116 l 24.88310244457077 3.557779629821818" fill="#cdff1d" stroke="none" /><path d="M 79.21141760316559 97.0276538004421 l -15.326138497360933 -2.1913273664810196 a36.48200364511575,36.48200364511575 0 0,0 0.09423493777492495,-0.6208904992609192 l 15.286147666146706 2.4548169781340308" fill="#ffb811" stroke="none" /><path d="M 79.26566170972629 96.67025291283419 l -18.88689414473448 -3.0330642764490388 a40.12888520900988,40.12888520900988 0 0,0 0.11539565128765536,-0.6810716660730423 l 18.8318866319266 3.357721730837909" fill="#ffe715" stroke="none" /><path d="M 79.32604984820605 96.31383870115002 l -12.902722433022879 -2.300552905139194 a34.106211880363304,34.106211880363304 0 0,0 0.1080261901618687,-0.5770802274190254 l 12.861210518951149 2.522311210020792" fill="#ff990e" stroke="none" /><path d="M 79.46518482838121 95.60439243477599 l -25.806189342961172 -5.52397867511856 a47.39078909028541,47.39078909028541 0 0,0 0.1776152907527649,-0.7962145215860152 l 25.707279665206368 5.967371366254534" fill="#beff1f" stroke="none" /><path d="M 79.54389044137918 95.25157060432595 l -24.453884008631334 -5.676423531670668 a46.10406794164045,46.10406794164045 0 0,0 0.18610060647609536,-0.77150715977481 l 24.352550601894425 6.0965159231048744" fill="#cdff1d" stroke="none" /><path d="M 79.62865764111835 94.90015583598534 l -25.432885267954276 -6.3669712688953775 a47.21774163027519,47.21774163027519 0 0,0 0.20416876861090863,-0.7867455511401671 l 25.319520167473062 6.803813245584408" fill="#c0ff1e" stroke="none" /><path d="M 79.71946130924805 94.55025226153421 l -14.704580803021145 -3.951386952699364 a36.22623247696359,36.22623247696359 0 0,0 0.16700850268136327,-0.6008184424497153 l 14.63438552977342 4.203916698568022" fill="#ffb510" stroke="none" /><path d="M 79.81627453868168 94.20196356495316 l -27.29097313765566 -7.839685339719095 a49.39468050579279,49.39468050579279 0 0,0 0.24178485095461083,-0.8151783197310177 l 27.15198238958934 8.308293046196653" fill="#a7ff21" stroke="none" /><path d="M 79.91906864156998 93.8553929516997 l -18.21398407579055 -5.573335864362128 a40.04760584877104,40.04760584877104 0 0,0 0.20737892972696462,-0.6574478786373508 l 18.11534966229538 5.886033909425893" fill="#ffe615" stroke="none" /><path d="M 80.02781315780177 93.51064311812611 l -19.117187691899435 -6.211550817679416 a41.101000691705,41.101000691705 0 0,0 0.22441676038091193,-0.6709775492345104 l 19.00743363774675 6.539701469836248" fill="#fff417" stroke="none" /><path d="M 80.14247586403 93.16781622104843 l -27.114804291836126 -9.329125060286875 a49.67481797980673,49.67481797980673 0 0,0 0.28514982232377056,-0.8061569463973425 l 26.95020138870255 9.794479633110829" fill="#a4ff21" stroke="none" /><path d="M 80.2630227832202 92.82701384747504 l -26.544527389434165 -9.64704601411077 a49.24318379940178,49.24318379940178 0 0,0 0.2963863085626368,-0.7941679529461405 l 26.3745364923699 10.102537104086252" fill="#a9ff21" stroke="none" /><path d="M 80.38941819471856 92.48833698450439 l -3.806572369714851 -1.4580744808751072 a25.07626966694498,25.07626966694498 0 0,0 0.15786879023220116,-0.40175885156884866 l 3.780910029600958 1.5233823373397193" fill="#ff1902" stroke="none" /><path d="M 80.52162464483688 92.15188598940014 l -14.00467342013708 -5.642681778042608 a36.09869978683423,36.09869978683423 0 0,0 0.2371827477232804,-0.5743568367787119 l 13.905468985527598 5.882913185274631" fill="#ffb310" stroke="none" /><path d="M 80.65960295795068 91.81776055985345 l -3.9460927566546444 -1.6694525824768163 a25.28470768772629,25.28470768772629 0 0,0 0.173030828268498,-0.3993790080426952 l 3.9167712185434658 1.7371307351061107" fill="#ff1c02" stroke="none" /><path d="M 80.803312248108 91.48605970444005 l -12.249977706211846 -5.432998658966505 a34.40072491438501,34.40072491438501 0 0,0 0.2447327903328678,-0.539236262937799 l 12.154642598915627 5.643056930746375" fill="#ff9d0e" stroke="none" /><path d="M 80.95270993114464 91.15688171328213 l -4.3673959618539335 -2.0276584729897618 a25.81513721203303,25.81513721203303 0 0,0 0.19059169045602914,-0.4014347070414149 l 4.331846077556153 2.102535595671709" fill="#ff2403" stroke="none" /><path d="M 81.10775173730289 90.83032412892265 l -23.224327354131905 -11.272324564021055 a46.81539622257446,46.81539622257446 0 0,0 0.3581154591797719,-0.7219389132048893 l 23.02685188199872 11.670423065724906" fill="#c5ff1e" stroke="none" /><path d="M 81.26839172434947 90.50648371742162 l -25.496239144667285 -12.921952984627268 a49.58382548678504,49.58382548678504 0 0,0 0.39239828874946625,-0.7579885959971998 l 25.270031422757704 13.358914302884802" fill="#a5ff21" stroke="none" /><path d="M 81.43458229118936 90.18545643968196 l -25.12721249623191 -13.283413573646696 a49.422277952327015,49.422277952327015 0 0,0 0.404066897266097,-0.748674593507785 l 24.89483749974734 13.713969150486953" fill="#a7ff21" stroke="none" /><path d="M 81.6062741919709 89.86733742301443 l -17.27276634813166 -9.515152884378171 a40.720207699977195,40.720207699977195 0 0,0 0.3434892209064803,-0.6110289964353987 l 17.10641948593275 9.811065390748356" fill="#ffef16" stroke="none" /><line stroke="#e1ed5e" stroke-width="0.3" x1="26.266209847984243" x2="21.928928074336255" y1="57.711370442889674" y2="55.22380399835377" /><path d="M 25.398753493254645 57.213857153982495 a86.0,86.0 0 0,1 29.58750427330803,-30.492523968695096" fill="none" id="id71" stroke="none" /><text fill="#e1ed5e" style="font-size:6.75px; font-family:Arial;" text-anchor="middle"><textPath startOffset="21.46611528233685" xlink:href="#id71">November</textPath></text><path d="M 81.78341655067845 89.55222093294921 l -22.093550938007745 -12.671340904791593 a46.46935164812382,46.46935164812382 0 0,0 0.4039300274762601,-0.6904473527991066 l 21.87216123606116 13.049767669944591" fill="#c9ff1d" stroke="none" /><path d="M 81.96595687620814 89.24020034530311 l -19.019773038100475 -11.34792381070546 a43.147847327323475,43.147847327323475 0 0,0 0.3860380405124933,-0.6345450367342138 l 18.821619199301765 11.673636620646748" fill="#f1ff19" stroke="none" /><path d="M 82.15384107792192 88.93136811851018 l -17.067296433064104 -10.585561983096648 a41.08349396972707,41.08349396972707 0 0,0 0.3779141564165084,-0.59776943916995 l 16.882554680401633 10.877779069980814" fill="#fff316" stroke="none" /><path d="M 82.34701348167596 88.62581576622439 l -22.141606851784587 -14.266295128170519 a47.33966458903864,47.33966458903864 0 0,0 0.44725470169013254,-0.6811995950554085 l 21.892755514736535 14.645312787203594" fill="#bfff1e" stroke="none" /><path d="M 82.54541684631803 88.32363383020206 l -43.654940418950176 -29.203279446112063 a73.52223675158743,73.52223675158743 0 0,0 0.7127299348539897,-1.0458432331435563 l 43.145786018427444 29.950400702526036" fill="#40ffc4" stroke="none" /><path d="M 82.7489923806493 88.02491185347247 l -16.043719762009154 -11.137028200760621 a40.53034410721993,40.53034410721993 0 0,0 0.40277006334204996,-0.5696896910897654 l 15.849637078863223 11.411544392182172" fill="#ffec16" stroke="none" /><path d="M 82.95767976084542 87.72973835380427 l -19.45976212126452 -14.010790165300259 a44.978836145073345,44.978836145073345 0 0,0 0.45779328237263495,-0.624429522677841 l 19.215706226378252 14.3436821316496" fill="#dbff1b" stroke="none" /><path d="M 83.17141714833178 87.43820079747576 l -10.360111443461252 -7.73336892450411 a33.928143874641194,33.928143874641194 0 0,0 0.35337625566295505,-0.4650017301533634 l 10.225459247574188 7.9105554305385" fill="#ff960d" stroke="none" /><path d="M 83.39014120810768 87.1503855733568 l -20.13944544225081 -15.580151038108681 a46.46248945196985,46.46248945196985 0 0,0 0.4948164843513676,-0.6283666857255109 l 19.868274877305474 15.92451011778724" fill="#c9ff1d" stroke="none" /><path d="M 83.6137871275137 86.86637796730984 l -3.447672431427359 -2.7633246900461126 a25.41841697183988,25.41841697183988 0 0,0 0.2765784098617347,-0.3390524274911878 l 3.3995955294892317 2.8222612871453827" fill="#ff1e03" stroke="none" /><path d="M 83.84228863543731 86.58626213691792 l -41.06279525689815 -34.08933103666377 a74.36886400174905,74.36886400174905 0 0,0 0.8261650789822632,-0.9779188676348768 l 40.469919564428764 34.79110885392777" fill="#41ffcd" stroke="none" /><path d="M 84.07557802195018 86.31012108654704 l -15.085962396801008 -12.969073464002902 a40.89429888064413,40.89429888064413 0 0,0 0.4634845650891804,-0.5298429793052697 l 14.860485968133984 13.226831999511115" fill="#fff116" stroke="none" /><path d="M 84.31358615837235 86.03803664274999 l -2.352722067220759 -2.0940808794141383 a24.149678690773936,24.149678690773936 0 0,0 0.27905110054264193,-0.30813519492993685 l 2.3163273260620723 2.134268861613631" fill="#ff0c01" stroke="none" /><path d="M 84.5562425177563 85.77008943001954 l -19.840392091918744 -18.280978930545487 a47.97842376826563,47.97842376826563 0 0,0 0.5648492474221257,-0.6025417941750816 l 19.522775522526164 18.619790141598617" fill="#b7ff1f" stroke="none" /><path d="M 84.80347519578584 85.50635884689758 l -17.189034370601494 -16.393991333252377 a44.75343879164601,44.75343879164601 0 0,0 0.5364780888586873,-0.5528878283242374 l 16.90429201803969 16.687443357126735" fill="#deff1b" stroke="none" /><path d="M 85.05521093208273 85.24692304244772 l -13.957905641942633 -13.77885329568793 a40.613258986039625,40.613258986039625 0 0,0 0.4954125233693579,-0.4932850645524285 l 13.718657318405961 14.017074210890469" fill="#ffed16" stroke="none" /><path d="M 85.31137513191541 84.99185889309783 l -13.656629741070814 -13.953697370544587 a40.52457953947902,40.52457953947902 0 0,0 0.5027300959807266,-0.4836259540209208 l 13.414416401477661 14.18670641132782" fill="#ffec16" stroke="none" /><path d="M 85.57189188830299 84.74124197986013 l -43.28432433509105 -45.776274060419595 a84.0,84.0 0 0,0 1.0591684648205755,-0.98438165570141 l 42.48994798647562 46.514560302195655" fill="#4dd2ff" stroke="none" /><path d="M 85.83668400450813 84.49514656593479 l -2.6041245709381853 -2.8507850710452436 a24.861144947066663,24.861144947066663 0 0,0 0.31844642031166037,-0.28590434037367785 l 2.5546671630305533 2.8951884201882003" fill="#ff1602" stroke="none" /><path d="M 86.10567301691215 84.25364557470407 l -8.728350674190416 -9.891785577765983 a34.19210094746623,34.19210094746623 0 0,0 0.4446702288594552,-0.38561364061371955 l 8.556786646684188 10.040564211799383" fill="#ff9a0e" stroke="none" /><path d="M 86.37877921826538 84.01681056812374 l -11.382185657230881 -13.35589756773172 a38.54805260350602,38.54805260350602 0 0,0 0.5087286782840684,-0.4260456378093422 l 11.150599441987703 13.549844362934875" fill="#ffd313" stroke="none" /><path d="M 86.65592168130627 83.78471172551755 l -18.001348141506895 -21.874650498336358 a49.32929348459119,49.32929348459119 0 0,0 0.6602998452253769,-0.5339165540626497 l 17.622144897717018 22.18127314966314" fill="#a8ff21" stroke="none" /><path d="M 86.93701828274178 83.55741782278169 l -12.030932373904527 -15.143525307482514 a40.34088137918816,40.34088137918816 0 0,0 0.5474208518687598,-0.4272706579292367 l 11.768478966876343 15.348374354634972" fill="#ffea16" stroke="none" /><path d="M 87.22198572758235 83.33499621200491 l -13.738725060769841 -17.917956600985473 a43.57887807332827,43.57887807332827 0 0,0 0.5992175551698906,-0.45131823947123695 l 13.428261351841561 18.151791429962564" fill="#ecff1a" stroke="none" /><path d="M 87.51073957382395 83.11751280151077 l -7.7555481837177025 -10.483642622621613 a34.04052492305488,34.04052492305488 0 0,0 0.4740624260725345,-0.34442651347109476 l 7.573940441291386 10.615588370909375" fill="#ff980e" stroke="none" /><path d="M 87.80319425747018 82.90503203632743 l -7.33461272838964 -10.280148119482877 a33.62845949567732,33.62845949567732 0 0,0 0.47411141335439155,-0.3321453435191571 l 7.156570175451588 10.404878305765976" fill="#ff920d" stroke="none" /><path d="M 88.09926311788651 82.69761687909137 l -8.41669490537921 -12.23696324918732 a35.852071326660045,35.852071326660045 0 0,0 0.5114815364413933,-0.3453546166096147 l 8.204808674531275 12.3800297780956" fill="#ffb010" stroke="none" /><path d="M 88.39885842347998 82.49532879139004 l -10.684120261800519 -16.12100077414679 a40.34003856585239,40.34003856585239 0 0,0 0.5821124698374671,-0.3786221428940645 l 10.405040766178764 16.302521841200388" fill="#ffea16" stroke="none" /><path d="M 88.70189139769569 82.29822771554957 l -10.450701799966202 -16.374063127519143 a40.424909560041684,40.424909560041684 0 0,0 0.5897818122038581,-0.3693213166953701 l 10.167300835390101 16.551528785537442" fill="#ffeb16" stroke="none" /><path d="M 89.00827224532344 82.1063720568725 l -2.2946699725853827 -3.7355338176238924 a25.384030472715345,25.384030472715345 0 0,0 0.374278987935229,-0.22549890239479886 l 2.2300289184325046 3.7744793294773107" fill="#ff1e03" stroke="none" /><line stroke="#e1ed5e" stroke-width="0.3" x1="56.762969772571076" x2="54.21961505331055" y1="26.818313649435495" y2="22.513508569990535" /><path d="M 56.25429882871897 25.957352633546506 a86.0,86.0 0 0,1 42.265352541879196,-11.944610805530505" fill="none" id="id72" stroke="none" /><text fill="#e1ed5e" style="font-size:6.75px; font-family:Arial;" text-anchor="middle"><textPath startOffset="22.20632615414155" xlink:href="#id72">December</textPath></text><path d="M 89.3179101791058 81.91981866633112 l -2.2125629939968445 -3.744917035370851 a25.349694081681502,25.349694081681502 0 0,0 0.3775936733216433,-0.21872662757308636 l 2.147772588209881 3.7824478203339846" fill="#ff1d03" stroke="none" /><path d="M 89.63071344664047 81.73862282372117 l -3.396430570451971 -5.981462599273277 a27.87849078260673,27.87849078260673 0 0,0 0.41934017482154673,-0.23336235327821822 l 3.2929663065583785 6.03904035011168" fill="#ff4206" stroke="none" /><path d="M 89.94658935756843 81.56283822128135 l -12.235129201780595 -22.438261451756766 a46.55726831180629,46.55726831180629 0 0,0 0.7069055057776286,-0.37760443949840916 l 11.84707864947466 22.645544617756926" fill="#c8ff1d" stroke="none" /><path d="M 90.26544431104013 81.39251694778311 l -7.028152745071699 -13.434227228329366 a36.16157617896124,36.16157617896124 0 0,0 0.5540289470400365,-0.2837951452749557 l 6.795863310442899 13.553214898916826" fill="#ffb410" stroke="none" /><path d="M 90.58718382345135 81.22770947309562 l -11.80329818241957 -23.539707830277287 a47.333167160786545,47.333167160786545 0 0,0 0.7314748936701795,-0.3589315535633711 l 11.396352021738966 23.739394543975486" fill="#bfff1e" stroke="none" /><path d="M 90.91171255644093 81.06846463323043 l -10.631281401963587 -22.1456991875837 a45.56534422218997,45.56534422218997 0 0,0 0.7099987351968596,-0.3333539262185803 l 10.24850445546712 22.325418096442288" fill="#d4ff1c" stroke="none" /><path d="M 91.56875222667455 80.76684994638697 l -14.005761886286827 -31.949591236823775 a55.88463481556732,55.88463481556732 0 0,0 0.8843510399604877,-0.37863296291363013 l 13.45372708853603 32.18594372770019" fill="#60ff29" stroke="none" /><path d="M 91.90106846888425 80.62456947434976 l -21.590878943137557 -51.652810416197504 a76.9837376157475,76.9837376157475 0 0,0 1.2270332742555448,-0.500537681539533 l 20.698561799293632 52.01680898392061" fill="#44ffe8" stroke="none" /><path d="M 92.23578459929587 80.48803036053334 l -3.5046356237158673 -8.807373360756543 a30.47904511914477,30.47904511914477 0 0,0 0.48914053904220156,-0.18977892989415499 l 3.3525119196739896 8.86639499454125" fill="#ff6709" stroke="none" /><path d="M 92.57280143429618 80.3572730644239 l -0.9800382896894724 -2.5919092293656916 a23.771004962559346,23.771004962559346 0 0,0 0.3839783341641948,-0.14142246099913613 l 0.9352776297527081 2.60839495817115" fill="#ff0601" stroke="none" /><path d="M 92.91201910852362 80.23233633223022 l -6.274615389517604 -17.49926933546807 a39.590191649405455,39.590191649405455 0 0,0 0.6434688034535965,-0.224493630683805 l 5.972464582000722 17.604683819324087" fill="#ffe115" stroke="none" /><path d="M 93.25333710446033 80.11325718540243 l -4.898975023438289 -14.440421561697333 a36.24879441660243,36.24879441660243 0 0,0 0.5926111331534789,-0.19537457333847172 l 4.649681068042401 14.52260985929504" fill="#ffb510" stroke="none" /><path d="M 93.59665428221793 80.00007090966166 l -7.300402831236824 -22.80175792323365 a44.94193070510562,44.94193070510562 0 0,0 0.7387910408582521,-0.2295459726451679 l 6.906826417667843 22.924044030761344" fill="#dbff1b" stroke="none" /><path d="M 93.94186890950719 79.89281104454417 l -5.132677985383529 -17.03557162399067 a38.79199493754865,38.79199493754865 0 0,0 0.6410096055882334,-0.18712828151195493 l 4.838678162071874 17.121398234421324" fill="#ffd614" stroke="none" /><path d="M 94.28887869178378 79.79150937346287 l -5.685817578990461 -20.118954763563995 a41.90695727072429,41.90695727072429 0 0,0 0.6958592598339443,-0.19020462194844473 l 5.338660429932794 20.213845926338735" fill="#fffe18" stroke="none" /><path d="M 94.63758080256005 79.69619591428918 l -13.88303347972476 -52.565527145335096 a75.36794333673217,75.36794333673217 0 0,0 1.2571771728071384,-0.32048245356595595 l 12.976147418232623 52.79671259506992" fill="#42ffd7" stroke="none" /><path d="M 94.98787191387505 79.60689891045804 l -3.0287635949073137 -12.32328486142554 a33.69002595307337,33.69002595307337 0 0,0 0.5643501483766044,-0.13356344669873846 l 2.816189759568175 12.37359422026515" fill="#ff930d" stroke="none" /><path d="M 95.33964822691252 79.52364482259891 l -0.5487234234154919 -2.4109458382304263 a23.472601308396772,23.472601308396772 0 0,0 0.3947390445287573,-0.08627466598026161 l 0.5071416547332136 2.420034002306556" fill="#ff0100" stroke="none" /><path d="M 95.692805502759 79.44645832069477 l -3.7232362647946844 -17.766945931830374 a39.15287459407094,39.15287459407094 0 0,0 0.6608139962885474,-0.1325530710401681 l 3.4168558590390004 17.828402958947752" fill="#ffdb14" stroke="none" /><path d="M 96.04723909329186 79.375362276772 l -4.833903267003789 -25.222244912887874 a46.68128227406973,46.68128227406973 0 0,0 0.790480558563439,-0.14445526945289677 l 4.399027587337456 25.301715663691507" fill="#c7ff1e" stroke="none" /><path d="M 96.40284397218896 79.31037775812273 l -2.6026680455279947 -14.969664442314263 a36.194233592738414,36.194233592738414 0 0,0 0.6147345727960296,-0.10143647176041648 l 2.3446042665930795 15.012247177014306" fill="#ffb410" stroke="none" /><path d="M 96.75951476605007 79.25152402106235 l -7.897775745219535 -50.5686026956469 a72.18162209535728,72.18162209535728 0 0,0 1.229256528775076,-0.18116045841113365 l 7.02615023601581 50.697057638219" fill="#3effb5" stroke="none" /><path d="M 97.11714578562143 79.19881850522333 l -2.1807699541800956 -15.735305444515655 a36.88570410857695,36.88570410857695 0 0,0 0.6296657929305731,-0.08174869145165065 l 1.9095894327416647 15.770512459131442" fill="#ffbe11" stroke="none" /><path d="M 97.47563105711357 79.15227682838746 l -2.2932012294526998 -18.938604257175868 a40.07693641779736,40.07693641779736 0 0,0 0.6855699991712753,-0.07703177744399231 l 1.9668645267717066 18.97527198809046" fill="#ffe715" stroke="none" /><path d="M 97.83486435360386 79.11191278185805 l -1.9159675956569475 -18.484245230468854 a39.58327887020259,39.58327887020259 0 0,0 0.6783346406078996,-0.06441604769966347 l 1.5975078279588115 18.5144868226837" fill="#ffe015" stroke="none" /><path d="M 98.19473922651362 79.07773832637324 l -1.1432418391155164 -13.249722846422662 a34.29895324488807,34.29895324488807 0 0,0 0.5886513925742982,-0.04569067734456846 l 0.915000257178884 13.267438785955692" fill="#ff9b0e" stroke="none" /><path d="M 98.55514903715128 79.0497635885617 l -0.9163434160663625 -13.286914494491967 a34.318475214532214,34.318475214532214 0 0,0 0.5896861087314278,-0.03557147644158827 l 0.6874952584953117 13.300719240313862" fill="#ff9b0e" stroke="none" /><path d="M 98.91598698831166 79.02799685794201 l -0.1515768925997597 -2.932502685474681 a23.93641746941514,23.93641746941514 0 0,0 0.4116598385159816,-0.017726938595973425 l 0.10107622169445402 2.9346773505948467" fill="#ff0801" stroke="none" /></svg>