<?xml version="1.0" encoding="utf-8" ?>
<svg baseProfile="full" height="200mm" version="1.1" viewBox="0,0,200,200" width="200mm" xmlns="http://www.w3.org/2000/svg" xmlns:ev="http://www.w3.org/2001/xml-events" xmlns:xlink="http://www.w3.org/1999/xlink"><defs /><rect fill="#1a1a1a" height="200" width="200" x="0" y="0" /><text alignment-baseline="middle" fill="#e1ed5e" style="dominant-baseline: central; font-size:9.0px; font-family:Arial;" text-anchor="middle" x="100.0" y="100.0">2025</text><line stroke="#e1ed5e" stroke-width="0.3" x1="100.0" x2="100.0" y1="15.0" y2="10.0" /><path d="M 100.0 14.0 a86.0,86.0 0 0,1 42.46469731375804,11.215312516191453" fill="none" id="id85" stroke="none" /><text fill="#e1ed5e" style="font-size:6.75px; font-family:Arial;" text-anchor="middle"><textPath startOffset="22.20632615414155" xlink:href="#id85">January</textPath></text><path d="M 100.72285384407766 79.0124445844662 l 0.4120770620987446 -11.96436907284207 a32.97146335316981,32.97146335316981 0 0,0 0.5670450599779271,0.024418153093618434 l -0.6179629544660032 11.955503193224256" fill="#ff870c" stroke="none" /><path d="M 101.08401301168833 79.027996857942 l 0.6237897289099852 -12.068231666618622 a33.084342314957404,33.084342314957404 0 0,0 0.5684802998294363,0.0342922841380707 l -0.8314320775790334 12.055706113100246" fill="#ff890c" stroke="none" /><path d="M 101.44485096284872 79.0497635885617 l 1.1459931271299257 -16.616819005275666 a37.65628932570276,37.65628932570276 0 0,0 0.6462712431044488,0.05016308670675508 l -1.4318545595967156 16.59463065638045" fill="#ffc612" stroke="none" /><path d="M 101.80526077348638 79.07773832637324 l 0.782877559681899 -9.07324271520192 a30.106955069748516,30.106955069748516 0 0,0 0.5159398394964512,0.048994704562602395 l -0.9389425262685943 9.058422466124139" fill="#ff5f08" stroke="none" /><path d="M 102.52436894288641 79.15227682838746 l 1.3040638600193954 -10.769726203612313 a31.848390896892607,31.848390896892607 0 0,0 0.5436751932028947,0.07058464366025839 l -1.4892537817301363 10.745683236787919" fill="#ff780b" stroke="none" /><path d="M 103.2404852339499 79.25152402106235 l 1.6480789103104003 -10.552470760771783 a31.680393403407635,31.680393403407635 0 0,0 0.5380700507155306,0.08878616873016201 l -1.8294781671648062 10.522538329101996" fill="#ff750a" stroke="none" /><path d="M 103.59715602781102 79.31037775812273 l 2.5489918729004746 -14.660937290512368 a35.88087503490466,35.88087503490466 0 0,0 0.607591153405201,0.11103339965988487 l -2.8009781474085766 14.614888409501745" fill="#ffae10" stroke="none" /><path d="M 103.95276090670814 79.375362276772 l 1.712556251780845 -8.935742157762965 a30.098370009267374,30.098370009267374 0 0,0 0.5079939691224584,0.10189881124682423 l -1.8661166303704289 8.904939390438933" fill="#ff5f08" stroke="none" /><path d="M 108.76106565485865 80.91482961587045 l 4.18087943087431 -9.10765875261851 a31.021437061103384,31.021437061103384 0 0,0 0.4833757201519615,0.2269513819721274 l -4.337033362325869 9.03434238800638" fill="#ff6c0a" stroke="none" /><path d="M 109.08828744355905 81.06846463323043 l 3.8989063492439056 -8.121693322403088 a30.00907171374173,30.00907171374173 0 0,0 0.4637526676882711,0.22756141997891166 l -4.038130283942609 8.053376742289345" fill="#ff5e08" stroke="none" /><path d="M 109.41281617654863 81.2277094730956 l 4.420682500133257 -8.81631327577163 a30.86254599702995,30.86254599702995 0 0,0 0.47284288099304855,0.24220848896177624 l -4.571785868715061 8.738912261497353" fill="#ff6a09" stroke="none" /><path d="M 110.05341064243156 81.56283822128135 l 7.3834913025766955 -13.540740399363967 a36.422956732682394,36.422956732682394 0 0,0 0.5478635541250431,0.30488547471130206 l -7.6154789457737735 13.411639527092486" fill="#ffb610" stroke="none" /><line stroke="#e1ed5e" stroke-width="0.3" x1="143.23703022742887" x2="145.7803849466894" y1="26.81831364943548" y2="22.513508569990506" /><path d="M 143.74570117128098 25.957352633546492 a86.0,86.0 0 0,1 28.547481713284135,27.462654790039103" fill="none" id="id86" stroke="none" /><text fill="#e1ed5e" style="font-size:6.75px; font-family:Arial;" text-anchor="middle"><textPath startOffset="19.985693538727396" xlink:href="#id86">February</textPath></text><path d="M 111.60114157652 82.49532879139004 l 8.95408688527099 -13.510596855159825 a37.20838978219726,37.20838978219726 0 0,0 0.5308313765446616,0.3584197150231612 l -9.185322956222192 13.354465227837993" fill="#ffc011" stroke="none" /><path d="M 112.77801427241765 83.33499621200491 l 7.319221485637755 -9.545681448065105 a33.028758766545934,33.028758766545934 0 0,0 0.4481962377122934,0.3498242727053669 l -7.482450278509479 9.418278786136513" fill="#ff880c" stroke="none" /><path d="M 113.06298171725822 83.55741782278167 l 7.412486379680771 -9.330214117531048 a32.9162850674163,32.9162850674163 0 0,0 0.4406026602063386,0.35627004269235724 l -7.5719924384516 9.20123797757456" fill="#ff860c" stroke="none" /><path d="M 113.34407831869373 83.78471172551755 l 7.550080562709516 -9.1746113816189 a32.88180165240672,32.88180165240672 0 0,0 0.4339496904366554,0.36342038601569515 l -7.706887790105288 9.043289838209386" fill="#ff860c" stroke="none" /><path d="M 113.6212207817346 84.01681056812373 l 7.676297267883718 -9.007394809465485 a32.83463987616458,32.83463987616458 0 0,0 0.4270163699705138,0.3703043881492459 l -7.830207436500996 8.873925427896568" fill="#ff850c" stroke="none" /><path d="M 113.89432698308785 84.25364557470407 l 10.192212798001117 -11.550771425684111 a36.40459419290681,36.40459419290681 0 0,0 0.46630646851994095,0.41865455156849873 l -10.389530254117048 11.373617865346315" fill="#ffb510" stroke="none" /><path d="M 114.42810811169701 84.74124197986012 l 10.617655033716877 -11.228930892849428 a36.45391495419208,36.45391495419208 0 0,0 0.4522312229283277,0.4350460781547229 l -10.809369500257624 11.044501727932403" fill="#ffb610" stroke="none" /><path d="M 114.68862486808459 84.99185889309783 l 10.759799449575075 -10.993853398221399 a36.383045756177815,36.383045756177815 0 0,0 0.4438111335050944,0.44190526745510966 l -10.947446383247492 10.80701228011617" fill="#ffb510" stroke="none" /><path d="M 114.94478906791727 85.2469230424477 l 6.410276648158233 -6.328045466529856 a30.00754162534883,30.00754162534883 0 0,0 0.3597128850246091,0.3707157476731335 l -6.5182537968859515 6.216765523306608" fill="#ff5e08" stroke="none" /><path d="M 115.19652480421416 85.50635884689758 l 6.627068827069424 -6.320547540567944 a30.157912559710034,30.157912559710034 0 0,0 0.35504864218655824,0.3787411364339506 l -6.734884791226445 6.205536987255938" fill="#ff6008" stroke="none" /><path d="M 115.4437574822437 85.77008943001954 l 6.644910231676697 -6.1226342391754685 a30.035567608831524,30.035567608831524 0 0,0 0.34706292799952293,0.38323555350302013 l -6.749316800292255 6.0073458984029" fill="#ff5e08" stroke="none" /><path d="M 115.68641384162765 86.03803664274999 l 6.7204435094113 -5.981646727556513 a29.99691383400308,29.99691383400308 0 0,0 0.33997664571652086,0.38865207695965853 l -6.822412018705669 5.865079094393907" fill="#ff5e08" stroke="none" /><path d="M 115.9244219780498 86.31012108654704 l 6.77143843303701 -5.821258212446019 a29.92969347897121,29.92969347897121 0 0,0 0.33248951572513435,0.3935627140267614 l -6.870638562249262 5.703836548790151" fill="#ff5d08" stroke="none" /><path d="M 116.15771136456269 86.58626213691792 l 6.935712666145849 -5.757859482586222 a30.0142695770952,30.0142695770952 0 0,0 0.326585993218639,0.40035581172353985 l -7.033797151440898 5.637619501254582" fill="#ff5e08" stroke="none" /><path d="M 116.60985879189232 87.15038557335679 l 2.076529473093838 -1.6064316626123782 a23.625375656791032,23.625375656791032 0 0,0 0.24606847987541597,0.32379727569305167 l -2.103873893193368 1.5704496110382928" fill="#ff0100" stroke="none" /><path d="M 116.82858285166822 87.43820079747576 l 7.280246991308929 -5.434385156236631 a30.084852133127306,30.084852133127306 0 0,0 0.3062027475165945,0.41766020349506594 l -7.372712351339151 5.308262509070072" fill="#ff5f08" stroke="none" /><path d="M 117.04232023915458 87.72973835380427 l 9.676225427804784 -6.96676368479195 a32.92330217554817,32.92330217554817 0 0,0 0.32717512754382244,0.46276601541859247 l -9.79471317515249 6.799171169041564" fill="#ff870c" stroke="none" /><path d="M 117.2510076193507 88.02491185347247 l 12.676059996708913 -8.799308374369271 a36.430823857053426,36.430823857053426 0 0,0 0.35316306822990035,0.5182232245936493 l -12.825647530607547 8.579807126505216" fill="#ffb610" stroke="none" /><path d="M 117.45458315368197 88.32363383020206 l 7.530151576996768 -5.0373478617590655 a30.059694048527,30.059694048527 0 0,0 0.28399735425424366,0.4325474544677467 l -7.615745566608936 4.906982343313644" fill="#ff5f08" stroke="none" /><path d="M 117.65298651832404 88.62581576622439 l 8.73746968651112 -5.629732388241937 a31.394097521474436,31.394097521474436 0 0,0 0.2887844419958144,0.4567876355036249 l -8.83308172475289 5.478497105024106" fill="#ff710a" stroke="none" /><line stroke="#e1ed5e" stroke-width="0.3" x1="172.23445277983987" x2="176.4835382374775" y1="55.19839476539836" y2="52.563006222186495" /><path d="M 173.08426987136738 54.67131705675599 a86.0,86.0 0 0,1 12.851231095245387,41.99856678651699" fill="none" id="id87" stroke="none" /><text fill="#e1ed5e" style="font-size:6.75px; font-family:Arial;" text-anchor="middle"><textPath startOffset="22.20632615414155" xlink:href="#id87">March</textPath></text><path d="M 117.84615892207809 88.93136811851018 l 7.740670927189703 -4.800956742731757 a30.108631733066247,30.108631733066247 0 0,0 0.26937791608862943,0.4427864658957514 l -7.822164641564556 4.667002503628924" fill="#ff5f08" stroke="none" /><path d="M 118.03404312379186 89.2402003453031 l 7.712243369906391 -4.601419270145856 a29.980632332766703,29.980632332766703 0 0,0 0.2606035421718412,0.4454559294510321 l -7.790306586548559 4.467983928340929" fill="#ff5e08" stroke="none" /><path d="M 118.21658344932153 89.55222093294921 l 7.840884031805048 -4.496991671493519 a30.038937796760052,30.038937796760052 0 0,0 0.25338896639942676,0.4507506973239087 l -7.917130639496908 4.361357464234817" fill="#ff5e08" stroke="none" /><path d="M 118.3937258080291 89.86733742301442 l 8.08818172628747 -4.455585407173863 a30.234225736794137,30.234225736794137 0 0,0 0.2471891278765808,0.45800391243301997 l -8.163678953382515 4.315700511408384" fill="#ff6109" stroke="none" /><path d="M 118.73160827565052 90.50648371742162 l 8.109399393949822 -4.109989599156314 a30.09144504662305,30.09144504662305 0 0,0 0.23018520678584564,0.4640393307885545 l -8.178944613689076 3.9697906798688094" fill="#ff5f08" stroke="none" /><path d="M 118.89224826269711 90.83032412892265 l 8.169732809315004 -3.965319573035814 a30.081205508736105,30.081205508736105 0 0,0 0.22208783016627423,0.46777360978825394 l -8.236778833323035 3.8241035476070193" fill="#ff5f08" stroke="none" /><path d="M 119.196687751892 91.48605970444005 l 14.204016377726001 -6.299636112234823 a36.538323474727946,36.538323474727946 0 0,0 0.25004269190912704,0.5771330072351749 l -14.310349779477809 6.054203960413044" fill="#ffb711" stroke="none" /><path d="M 119.34039704204932 91.81776055985345 l 8.354307623403114 -3.534412720830201 a30.07119226715087,30.07119226715087 0 0,0 0.19757963725439534,0.4784547634877664 l -8.413908947543709 3.3900833868891316" fill="#ff5f08" stroke="none" /><path d="M 119.47837535516314 92.15188598940014 l 8.307607048702625 -3.347252842429635 a29.956586206072423,29.956586206072423 0 0,0 0.18859304380798356,0.4799487256646803 l -8.363993642392309 3.2037551118691705" fill="#ff5d08" stroke="none" /><path d="M 119.61058180528143 92.48833698450437 l 9.041175867511173 -3.463143880937025 a30.68174708445423,30.68174708445423 0 0,0 0.18466819277279295,0.4948189453820171 l -9.099448648785591 3.307001798525675" fill="#ff6709" stroke="none" /><path d="M 119.7369772167798 92.82701384747503 l 8.446190564726916 -3.0695889900944966 a29.98668524116603,29.98668524116603 0 0,0 0.17213345345469133,0.4866444526565423 l -8.497777098991417 2.9237469110113397" fill="#ff5e08" stroke="none" /><path d="M 120.18372546131832 94.20196356495316 l 8.693906089291351 -2.497437074498063 a30.04550689737699,30.04550689737699 0 0,0 0.13851440727169897,0.49831002073353914 l -8.735607267129412 2.347415750345572" fill="#ff5f08" stroke="none" /><path d="M 120.28053869075195 94.5502522615342 l 8.687315465874697 -2.334438869470394 a29.99550192256774,29.99550192256774 0 0,0 0.12970007628383518,0.4997873019125134 l -8.726211874028834 2.1845551420090303" fill="#ff5e08" stroke="none" /><path d="M 120.45610955862082 95.25157060432595 l 8.679665054730771 -2.0147905725856496 a29.910441432033238,29.910441432033238 0 0,0 0.11210093466418232,0.5025265093151698 l -8.713060376396992 1.865085893720516" fill="#ff5d08" stroke="none" /><path d="M 120.53481517161879 95.60439243477599 l 8.899114066051599 -1.9049118672658705 a30.100709883445784,30.100709883445784 0 0,0 0.10409213072353544,0.5075901969757497 l -8.930585492690131 1.751446014126709" fill="#ff5f08" stroke="none" /><path d="M 120.67395015179393 96.31383870115 l 31.36405341326241 -5.592204635213355 a52.85869738693155,52.85869738693155 0 0,0 0.15200182560298323,0.8971233790388042 l -31.455667100385618 5.051495467858714" fill="#81ff25" stroke="none" /><path d="M 120.78858239683441 97.02765380044208 l 9.01246335462769 -1.2885997077348448 a30.10411911857931,30.10411911857931 0 0,0 0.06892983295527519,0.5136073194517824 l -9.0333091866408 1.1332740462183981" fill="#ff5f08" stroke="none" /><path d="M 120.83666639777658 97.38593545837742 l 9.003785902801567 -1.1295702018527451 a30.074364408838886,30.074364408838886 0 0,0 0.06001933314361272,0.5142089931854186 l -9.02189558894877 0.9744174703424737" fill="#ff5f08" stroke="none" /><path d="M 120.87857604477298 97.74499172005257 l 9.147454682606684 -0.9879785865418792 a30.20065371904672,30.20065371904672 0 0,0 0.051374007481906625,0.5173292443553912 l -9.16310581577082 0.8303738114820531" fill="#ff6108" stroke="none" /><path d="M 120.91429891909075 98.10471618934814 l 8.873190241508851 -0.8041012456896143 a29.909550149997894,29.909550149997894 0 0,0 0.04205213842406648,0.5131426029343111 l -8.885716863752412 0.6512447255475344" fill="#ff5d08" stroke="none" /><path d="M 120.98425023603335 99.18683210126433 l 9.035693068263798 -0.3501452500467998 a30.042474822746303,30.042474822746303 0 0,0 0.015576745008507246,0.5169163332710047 l -9.04038150772795 0.19455876935079602" fill="#ff5e08" stroke="none" /><line stroke="#e1ed5e" stroke-width="0.3" x1="184.98032266829074" x2="189.97916517819016" y1="98.17113171792111" y2="98.06355123074" /><path d="M 185.9800911702706 98.14961562048488 a86.0,86.0 0 0,1 -9.607161424134198,41.387399972396054" fill="none" id="id88" stroke="none" /><text fill="#e1ed5e" style="font-size:6.75px; font-family:Arial;" text-anchor="middle"><textPath startOffset="21.466115282336823" xlink:href="#id88">April</textPath></text><path d="M 120.99513854157772 99.54816195383933 l 8.98587786999231 -0.193385792228766 a29.98795856460484,29.98795856460484 0 0,0 0.006664456627392941,0.5161695102804695 l -8.987875333737417 0.038680023887833766" fill="#ff5e08" stroke="none" /><path d="M 120.99980553446 99.90962569577887 l 8.913075041087447 -0.038358114982882954 a29.91315757927801,29.91315757927801 0 0,0 -0.0022159990631241086,0.5149201400908863 l -8.91241474473482 -0.11507150331168801" fill="#ff5d08" stroke="none" /><path d="M 120.99824983174949 100.27111621757518 l 8.991970491738773 0.11609867716602838 a29.992719957117565,29.992719957117565 0 0,0 -0.01110864265393268,0.5161749735551123 l -8.988639786399833 -0.27086346651125554" fill="#ff5e08" stroke="none" /><path d="M 120.9904718944345 100.63252640178507 l 8.995335117750221 0.27106522347361056 a29.999418327648026,29.999418327648026 0 0,0 -0.01999656534721891,0.5160224988710238 l -8.9893364195518 -0.4258649693586405" fill="#ff5e08" stroke="none" /><path d="M 120.9764740272857 100.99374915477107 l 31.77539872385633 1.5053423937345929 a52.811036131858785,52.811036131858785 0 0,0 -0.050833512077876446,0.9076665061723683 l -31.744778860890925 -2.052080616242385" fill="#82ff25" stroke="none" /><path d="M 120.92983693683757 101.71520430193887 l 9.184034165393223 0.7526334274449521 a30.21482179031247,30.21482179031247 0 0,0 -0.046941464729769795,0.5179951517238424 l -9.169718104386378 -0.910609967717365" fill="#ff6108" stroke="none" /><path d="M 120.8583938346157 102.4346265915055 l 8.859753852148648 1.0341252779894055 a29.91990209650529,29.91990209650529 0 0,0 -0.06411192561070489,0.5110351274036095 l -8.840640417291095 -1.1864781596804097" fill="#ff5d08" stroke="none" /><path d="M 120.76222939487914 103.15116336523771 l 8.908291269210695 1.3520456093856306 a30.010309687627526,30.010309687627526 0 0,0 -0.08191134773186858,0.5100620405168329 l -8.883698167117538 -1.5051868795956684" fill="#ff5e08" stroke="none" /><path d="M 120.70491114924044 103.5080841355445 l 8.968918431620361 1.5196259590862475 a30.096744521453168,30.096744521453168 0 0,0 -0.09094026256641595,0.5100412875789486 l -8.941431726714756 -1.6737859973984144" fill="#ff5f08" stroke="none" /><path d="M 120.41448212921028 104.9243191809786 l 8.695209759637326 2.097432005916419 a29.944601376446844,29.944601376446844 0 0,0 -0.12518081899031333,0.5000351458601108 l -8.657817626351951 -2.246794991173926" fill="#ff5d08" stroke="none" /><path d="M 120.32669344350535 105.2749913415812 l 8.720973943727142 2.263184721665322 a30.00984969972014,30.00984969972014 0 0,0 -0.13406103471547073,0.4988909821053024 l -8.680724832669894 -2.4129666369461726" fill="#ff5e08" stroke="none" /><path d="M 120.23288151984713 105.62410040840565 l 8.795433742068957 2.4448520816153465 a30.12890773379291,30.12890773379291 0 0,0 -0.14319461116247031,0.49847922682469203 l -8.752046494020387 -2.5958887839446207" fill="#ff6008" stroke="none" /><path d="M 120.02730092923936 106.31721596034902 l 8.68791864883344 2.7404321003883263 a30.109879172941135,30.109879172941135 0 0,0 -0.16016699164676387,0.49294331339013503 l -8.63945940617043 -2.8895743137562566" fill="#ff5f08" stroke="none" /><path d="M 119.9155931802556 106.66101706037122 l 8.65856831646844 2.895965525725094 a30.130028566063707,30.130028566063707 0 0,0 -0.16874131539578438,0.4904412485990343 l -8.607436170129423 -3.0445794774134285" fill="#ff6008" stroke="none" /><path d="M 119.41010516605496 108.01547362559984 l 8.466329904060414 3.496201770730338 a30.159812709113957,30.159812709113957 0 0,0 -0.20228476321440153,0.4781414262857826 l -8.404894159653704 -3.641417722682284" fill="#ff6008" stroke="none" /><path d="M 119.12269723197855 108.67885076344098 l 8.207932838594456 3.725176596080918 a30.013717443700255,30.013717443700255 0 0,0 -0.2175642684727766,0.46861407886441087 l -8.142593953281848 -3.865910742224159" fill="#ff5e08" stroke="none" /><line stroke="#e1ed5e" stroke-width="0.3" x1="174.80103733775053" x2="179.2010983576182" y1="140.37084112569926" y2="142.7455964860345" /><path d="M 175.68104954172406 140.8457921977663 a86.0,86.0 0 0,1 -30.038265399797805,32.042727171017184" fill="none" id="id89" stroke="none" /><text fill="#e1ed5e" style="font-size:6.75px; font-family:Arial;" text-anchor="middle"><textPath startOffset="22.206326154141568" xlink:href="#id89">May</textPath></text><path d="M 118.30583269289576 110.29060199501025 l 7.8993865893254345 4.440630740988733 a30.061981563953253,30.061981563953253 0 0,0 -0.25745654171337906,0.44889718155375957 l -7.821778051459676 -4.575947768400808" fill="#ff5f08" stroke="none" /><path d="M 118.12598468904814 110.60418214915192 l 7.6789098152464215 4.492366058158672 a29.89646046195811,29.89646046195811 0 0,0 -0.2636855345945931,0.4419521231441501 l -7.600443404953601 -4.6238802751889265" fill="#ff5c08" stroke="none" /><path d="M 117.75023020441432 111.22182372390056 l 7.559116325195128 4.778927931239048 a29.94306389274997,29.94306389274997 0 0,0 -0.2791764897995567,0.43328811186564625 l -7.475734972018521 -4.908337643026147" fill="#ff5d08" stroke="none" /><path d="M 117.55443506779139 111.5257021239791 l 7.449067639760321 4.8908286929025895 a29.911162326264943,29.911162326264943 0 0,0 -0.2862881305302422,0.4279619110590753 l -7.363776403819357 -5.018327518167472" fill="#ff5d08" stroke="none" /><path d="M 117.35343817320211 111.8261652097733 l 7.378867254151445 5.028611756218858 a29.929424289906432,29.929424289906432 0 0,0 -0.293791636775278,0.42322876479046534 l -7.291214710214031 -5.154881783196343" fill="#ff5d08" stroke="none" /><path d="M 116.93607887273984 112.41649034213515 l 7.174154098580014 5.259648100800169 a29.89563854787408,29.89563854787408 0 0,0 -0.307837857663508,0.41239911648399835 l -7.082554974221414 -5.382360096793483" fill="#ff5c08" stroke="none" /><path d="M 116.498646956653 112.99209946851258 l 7.0272283271586655 5.533693135822809 a29.944478614400822,29.944478614400822 0 0,0 -0.3223766784558339,0.4022144740539902 l -6.930933736647978 -5.6538354434550495" fill="#ff5d08" stroke="none" /><path d="M 116.27256486870786 113.27417163493432 l 6.955169982345786 5.673605902984623 a29.97575586932409,29.97575586932409 0 0,0 -0.32959628268769176,0.3970199549789676 l -6.856477699764551 -5.792487115077361" fill="#ff5e08" stroke="none" /><path d="M 116.0416608686014 113.55231037782055 l 6.8599391835238155 5.795411444587728 a29.980287267883128,29.980287267883128 0 0,0 -0.33643234570935576,0.3913468244687063 l -6.759164328243681 -5.912635368217962" fill="#ff5e08" stroke="none" /><path d="M 115.80600337817218 113.82643327865902 l 6.698428069182849 5.859505819058201 a29.89959252109857,29.89959252109857 0 0,0 -0.3421953553127034,0.3844601092818771 l -6.596573864221807 -5.973940098080944" fill="#ff5c08" stroke="none" /><path d="M 115.56566222782051 114.09645910891815 l 6.602996062360448 5.979756121333004 a29.90825685923835,29.90825685923835 0 0,0 -0.34886356896462,0.37862250271942316 l -6.499086085400105 -6.092529878853762" fill="#ff5d08" stroke="none" /><path d="M 115.32070863581623 114.36230785411682 l 6.504382543387668 6.097495012122855 a29.915516681246764,29.915516681246764 0 0,0 -0.35541549638497,0.37265172702721183 l -6.398460495623733 -6.208553855732574" fill="#ff5d08" stroke="none" /><path d="M 114.81725581225074 114.88116024355365 l 6.296907913582517 6.324065460451055 a29.92439651854444,29.92439651854444 0 0,0 -0.36814139360436066,0.36030383713419556 l -6.187116567602362 -6.431519400507822" fill="#ff5d08" stroke="none" /><path d="M 114.55890576462653 115.13401014063108 l 10.350174352422785 10.759025859446814 a35.92925807164561,35.92925807164561 0 0,0 -0.44939659963553025,0.42493253487684746 l -10.163441918396448 -10.935593031069583" fill="#ffaf10" stroke="none" /><path d="M 114.29624159901734 115.38237550388516 l 6.053002918531589 6.512870055677124 a29.891362139396172,29.891362139396172 0 0,0 -0.3799056200978078,0.3470347764840352 l -5.939997748966917 -6.616097598747742" fill="#ff5c08" stroke="none" /><path d="M 114.0293411484842 115.62618273729858 l 3.4303273272724626 3.8207725578403253 a26.134729643416286,26.134729643416286 0 0,0 -0.33733420593175584,0.2976582155591875 l -3.364050768434119 -3.8792539151718017" fill="#ff2603" stroke="none" /><path d="M 113.48314897796784 116.09983520530334 l 8.560661387115067 10.222036247331364 a34.33322723224198,34.33322723224198 0 0,0 -0.45635377638007685,0.3755480895538872 l -8.383437482190299 -10.367879455742429" fill="#ff9a0e" stroke="none" /><path d="M 112.92097659922987 116.55440617244103 l 6.396118235099194 8.194731905721405 a31.395381642057053,31.395381642057053 0 0,0 -0.42887776433756813,0.32884518140798713 l -6.254111742268132 -8.303616428956763" fill="#ff710a" stroke="none" /><path d="M 112.63410532772338 116.77436683061366 l 7.5277219309525885 9.994595247798847 a33.51233517921686,33.51233517921686 0 0,0 -0.4637708704500522,0.34308660276332736 l -7.3545660900839716 -10.122691799301943" fill="#ff8f0d" stroke="none" /><path d="M 112.34349029814194 116.9893568818739 l 1.498165450193621 2.0620478395210555 a23.548831302504603,23.548831302504603 0 0,0 -0.32998940540113625,0.23543867899158616 l -1.4624487169436002 -2.087530780356861" fill="#ff0000" stroke="none" /><path d="M 112.04921762599082 117.19931262002967 l 10.75268948876834 15.34862044690026 a39.740343669870995,39.740343669870995 0 0,0 -0.5636375126091265,0.38767502069379284 l -10.48689509153633 -15.531436256959147" fill="#ffe115" stroke="none" /><path d="M 111.7513745106137 117.40417183066458 l 6.477147011849191 9.592867580288848 a32.57482361965243,32.57482361965243 0 0,0 -0.4674104066992524,0.30977413044980245 l -6.311061906409974 -9.70293973182997" fill="#ff820b" stroke="none" /><path d="M 111.45004920935366 117.60387380957326 l 2.4480789740462936 3.7637980891623775 a25.489907206073408,25.489907206073408 0 0,0 -0.3698685042774119,0.23606757915244272 l -2.382928667721951 -3.8053800971386287" fill="#ff1d02" stroke="none" /><line stroke="#e1ed5e" stroke-width="0.3" x1="143.8653032363475" x2="146.44561519142675" y1="172.8068346515853" y2="177.08958963109032" /><path d="M 144.38136562736335 173.6633856474863 a86.0,86.0 0 0,1 -40.68145358897372,12.25698825130547" fill="none" id="id90" stroke="none" /><text fill="#e1ed5e" style="font-size:6.75px; font-family:Arial;" text-anchor="middle"><textPath startOffset="21.466115282336833" xlink:href="#id90">June</textPath></text><path d="M 110.21172684928248 118.3499491758327 l 5.789888216663327 10.404132041290326 a32.90666910156072,32.90666910156072 0 0,0 -0.497325052867722,0.27118127178442847 l -5.609940351926956 -10.502253964834525" fill="#ff860c" stroke="none" /><path d="M 109.89434966115114 118.52300852407294 l 5.647493961935308 10.57255730584395 a32.986373765048796,32.986373765048796 0 0,0 -0.5031350290288792,0.2632164675579037 l -5.464668030379933 -10.66820319234657" fill="#ff870c" stroke="none" /><path d="M 109.57404056367764 118.69057910512821 l 6.849201994991871 13.371110226968106 a36.023253864257626,36.023253864257626 0 0,0 -0.5543225580374642,0.2779488381475233 l -6.618025529271646 -13.487026906024932" fill="#ffb010" stroke="none" /><path d="M 109.2508944713604 118.85261126421891 l 4.368558971589792 8.902787112226886 a30.91685060157159,30.91685060157159 0 0,0 -0.47978142649436023,0.23032424098656568 l -4.214664877095199 -8.976665629713011" fill="#ff6b09" stroke="none" /><path d="M 108.92500713936063 119.00905698771935 l 8.651247274254958 18.425985535171822 a41.355859656193964,41.355859656193964 0 0,0 -0.6469868314100344,0.2969999216001653 l -8.332792447077503 -18.57217252710606" fill="#fff517" stroke="none" /><path d="M 108.2653958097858 119.30500536409082 l 4.423652712558624 10.332068942628442 a32.239232712091805,32.239232712091805 0 0,0 -0.512033534923128,0.21403005912501677 l -4.2451477181380355 -10.406684044773433" fill="#ff7d0b" stroke="none" /><path d="M 107.93186726928326 119.44442032107085 l 3.3707932477057265 8.263264941111428 a29.924337208206545,29.924337208206545 0 0,0 -0.47861686579298846,0.19045152842541385 l -3.228055305870872 -8.320063313942912" fill="#ff5d08" stroke="none" /><path d="M 107.59598834532513 119.57807347666477 l 4.527677281409953 11.669738612569674 a33.51729447006402,33.51729447006402 0 0,0 -0.5396759704702672,0.20405927379471567 l -4.326131090179411 -11.74594613647102" fill="#ff8f0d" stroke="none" /><path d="M 107.2578585660854 119.70592522655815 l 1.5504197384121718 4.209568863424251 a25.486008401816587,25.486008401816587 0 0,0 -0.41297095889354374,0.14807669305627988 l -1.4777292188888933 -4.235633097520491" fill="#ff1d02" stroke="none" /><path d="M 106.91757812671514 119.82793768551818 l 3.6675292578708683 10.512283381960115 a32.133681904921374,32.133681904921374 0 0,0 -0.5238253289629491,0.17770999220968572 l -3.486034195970692 -10.573856361067925" fill="#ff7c0b" stroke="none" /><path d="M 106.2309692047433 120.05430185196036 l 2.6391400285740296 8.494041460247475 a29.894593887234244,29.894593887234244 0 0,0 -0.4927270034913059,0.14845460425068835 l -2.492538050642478 -8.538211433603887" fill="#ff5c08" stroke="none" /><path d="M 105.88484417918355 120.15858648285463 l 3.60038731278062 12.3331590109375 a33.847941469009754,33.847941469009754 0 0,0 -0.560697326708957,0.15845866518216808 l -3.387558817967057 -12.393306469458187" fill="#ff930d" stroke="none" /><path d="M 105.53697534728816 120.25689768951611 l 3.2758272035871663 11.98453891330744 a33.424178718625306,33.424178718625306 0 0,0 -0.5562890430160049,0.14692099229296027 l -3.069047717759664 -12.039151254903983" fill="#ff8d0d" stroke="none" /><path d="M 103.06178313531738 120.77559828337769 l 1.7364354552569183 11.782508384511138 a32.90977379807646,32.90977379807646 0 0,0 -0.5611451936952367,0.07776961067950987 l -1.5333616703748512 -11.810652560683248" fill="#ff860c" stroke="none" /><path d="M 102.34483914955558 120.86867818915974 l 1.4393928625912604 12.810356924859223 a33.89096956614076,33.89096956614076 0 0,0 -0.5802899012102751,0.0601494209227018 l -1.2186703647753827 -12.833235714237683" fill="#ff940d" stroke="none" /><path d="M 101.98527174616119 120.90594882070398 l 1.0443134341200098 10.997166130381174 a32.046639916639194,32.046639916639194 0 0,0 -0.5496085458699206,0.04742253796980927 l -0.8548605705085474 -11.013512920629648" fill="#ff7a0b" stroke="none" /><path d="M 101.26447882468166 120.96189622390904 l 0.5368273667950493 8.899255039518069 a29.915431783157103,29.915431783157103 0 0,0 -0.5142775148705871,0.02658227323170851 l -0.3835617835109826 -8.90717711951198" fill="#ff5d08" stroke="none" /><line stroke="#e1ed5e" stroke-width="0.3" x1="102.19456741930631" x2="102.32365962044197" y1="184.97166512339345" y2="189.96999836594603" /><path d="M 102.22038585953345 185.97133177190398 a86.0,86.0 0 0,1 -42.740103519485714,-10.115201625700543" fill="none" id="id91" stroke="none" /><text fill="#e1ed5e" style="font-size:6.75px; font-family:Arial;" text-anchor="middle"><textPath startOffset="22.20632615414155" xlink:href="#id91">July</textPath></text><path d="M 100.54218724476979 120.99299961872073 l 0.3854212495668724 14.923162105444979 a35.928138422623455,35.928138422623455 0 0,0 -0.6183751187167702,0.010645888459631965 l -0.12848644095743428 -14.92758547118377" fill="#ffaf10" stroke="none" /><path d="M 100.18074693466247 120.99922214144158 l 0.07795445887126838 9.05676769462582 a30.057103177731598,30.057103177731598 0 0,0 -0.5174027870674415,0.0 l 0.07795445887126215 -9.05676769462582" fill="#ff5f08" stroke="none" /><path d="M 99.81925306533755 120.99922214144158 l -0.07838156330469326 9.106388789954293 a30.106726111137377,30.106726111137377 0 0,0 -0.518180210567905,-0.008920942251269975 l 0.23512146376526616 -9.103690370423863" fill="#ff5f08" stroke="none" /><path d="M 99.45781275523022 120.99299961872073 l -0.2315224839165095 8.96434112655736 a29.96733039950277,29.96733039950277 0 0,0 -0.5155517422848638,-0.01775664441870764 l 0.38579457787601634 -8.959027683712558" fill="#ff5d08" stroke="none" /><path d="M 99.09653310690486 120.98055641714683 l -0.44695298724788524 10.379265069294698 a31.388883980076535,31.388883980076535 0 0,0 -0.5396076969520154,-0.02789155431366921 l 0.6255487526133896 -10.370033708218827" fill="#ff710a" stroke="none" /><path d="M 98.73552117531835 120.96189622390904 l -0.8948510320662945 14.834391928037316 a35.86135734864783,35.86135734864783 0 0,0 -0.6158543289969801,-0.04247292024542639 l 1.1500681218422046 -14.816790663275606" fill="#ffae10" stroke="none" /><path d="M 98.01472825383883 120.90594882070398 l -1.139553334699452 12.000092047728746 a33.05407777296079,33.05407777296079 0 0,0 -0.565960424591442,-0.05866411208145954 l 1.3459463558964873 -11.978698567191525" fill="#ff880c" stroke="none" /><path d="M 97.2962882734958 120.8252237178851 l -1.5306479040084322 11.789749891532328 a32.88869570268042,32.88869570268042 0 0,0 -0.5607857906803045,-0.07771980069652447 l 1.7333622858755677 -11.761655525343198" fill="#ff860c" stroke="none" /><path d="M 96.93821686468263 120.77559828337769 l -1.733579937258389 11.763132389476116 a32.890188518741276,32.890188518741276 0 0,0 -0.5593902751452045,-0.08736525653562745 l 1.9358060760121107 -11.731548825593382" fill="#ff860c" stroke="none" /><path d="M 95.86986931433489 120.58985236759428 l -2.334327271999514 11.637271933050013 a32.86908513140563,32.86908513140563 0 0,0 -0.5537791892617,-0.11604981340399513 l 2.534297922690601 -11.595366138919477" fill="#ff860c" stroke="none" /><path d="M 95.51606077576429 120.51570834832081 l -2.8514137084969495 13.046290125374833 a34.35425947675337,34.35425947675337 0 0,0 -0.5766278213373743,-0.13123861479737456 l 3.0755616792271865 -12.995274776999771" fill="#ff9a0e" stroke="none" /><path d="M 95.16358092515715 120.4354850818985 l -2.7418643485265903 11.58529216013505 a32.905327149701,32.905327149701 0 0,0 -0.5500622385882186,-0.13519191529720903 l 2.9408798718580194 -11.536378986523811" fill="#ff860c" stroke="none" /><path d="M 94.46302465271185 120.25689768951611 l -1.9605367469256456 7.172578855432415 a28.435697127602896,28.435697127602896 0 0,0 -0.4710425116147717,-0.1331213188988087 l 2.0837104266450313 -7.137768743195085" fill="#ff4806" stroke="none" /><path d="M 93.08242187328487 119.8279376855182 l -3.15915286956739 9.055118003640548 a30.59038106193654,30.59038106193654 0 0,0 -0.49568134801237407,-0.17773369589959925 l 3.3145537782094907 -8.99939676670099" fill="#ff6609" stroke="none" /><path d="M 92.06813273071674 119.44442032107085 l -3.9364995093052495 9.650054451747907 a31.42207173782929,31.42207173782929 0 0,0 -0.49905512982305916,-0.2086050847406089 l 4.102026098625771 -9.580864323987326" fill="#ff720a" stroke="none" /><path d="M 91.7346041902142 119.30500536409082 l -3.505521824049338 8.187643904129468 a29.906525470671188,29.906525470671188 0 0,0 -0.47149677505527776,-0.2066903301712717 l 3.645939273762359 -8.126089020663743" fill="#ff5d08" stroke="none" /><path d="M 91.07499286063937 119.00905698771935 l -4.4149314811749925 9.403206385394974 a31.38806576364449,31.38806576364449 0 0,0 -0.48709395277843087,-0.23383469798441325 l 4.576138101953665 -9.325817410910997" fill="#ff710a" stroke="none" /><path d="M 90.7491055286396 118.85261126421891 l -6.53748627991664 13.32289411169866 a35.840425680270535,35.840425680270535 0 0,0 -0.5515092145507554,-0.27653816931923475 l 6.765849402150157 -13.208388101470124" fill="#ffae10" stroke="none" /><path d="M 90.42595943632237 118.69057910512821 l -4.1131312703405065 8.029713773068183 a30.021870766335205,30.021870766335205 0 0,0 -0.45791801569671503,-0.23956106327054338 l 4.250740188563717 -7.957723290852923" fill="#ff5e08" stroke="none" /><path d="M 90.10565033884886 118.52300852407294 l -4.203236408857777 7.868792441777144 a29.92104762909137,29.92104762909137 0 0,0 -0.4522027601174047,-0.2465770000645503 l 4.338061980843822 -7.795274789952828" fill="#ff5d08" stroke="none" /><line stroke="#e1ed5e" stroke-width="0.3" x1="58.666819895761336" x2="56.23545636021788" y1="174.27360380694188" y2="178.64263932499728" /><path d="M 58.180547188652646 175.14741091055294 a86.0,86.0 0 0,1 -31.652253787137756,-30.449443065178592" fill="none" id="id92" stroke="none" /><text fill="#e1ed5e" style="font-size:6.75px; font-family:Arial;" text-anchor="middle"><textPath startOffset="22.20632615414155" xlink:href="#id92">August</textPath></text><path d="M 89.7882731507175 118.34994917583269 l -4.371142462357182 7.854718717844894 a29.98907629084796,29.98907629084796 0 0,0 -0.4489096719486688,-0.2549026275552185 l 4.505700901227058 -7.778312924495042" fill="#ff5e08" stroke="none" /><path d="M 89.4739219176387 118.17145234162733 l -4.552440094464983 7.859000053714831 a30.082323087073156,30.082323087073156 0 0,0 -0.4458374028000872,-0.26340859609389106 l 4.687045368293453 -7.77947288532719" fill="#ff5f08" stroke="none" /><path d="M 89.1626897886671 117.98757091392108 l -4.675421947621948 7.760180542530507 a30.059799801373874,30.059799801373874 0 0,0 -0.4409068373663718,-0.27084099082142693 l 4.808307984920629 -7.678551084880702" fill="#ff5f08" stroke="none" /><path d="M 88.8546689885994 117.79835938074946 l -4.792311229086768 7.653005319666021 a30.02965876095368,30.02965876095368 0 0,0 -0.4357420715611249,-0.2781112064928728 l 4.923335102694817 -7.569379684349344" fill="#ff5e08" stroke="none" /><path d="M 88.54995079064634 117.60387380957326 l -4.9211588335728695 7.566033780214091 a30.02566736749106,30.02566736749106 0 0,0 -0.43083301262109247,-0.2855326281591328 l 5.050666544933923 -7.480203130963639" fill="#ff5e08" stroke="none" /><path d="M 88.24862548938628 117.40417183066458 l -4.995845720617638 7.399011688597678 a29.92770118407973,29.92770118407973 0 0,0 -0.4244647503210249,-0.2919507257470334 l 5.122467355561552 -7.311920173485544" fill="#ff5d08" stroke="none" /><path d="M 87.95078237400918 117.19931262002967 l -5.225762614105865 7.459366049144573 a30.10772950598102,30.10772950598102 0 0,0 -0.4218991435299022,-0.30101383679156307 l 5.353389085484654 -7.3683079505087905" fill="#ff5f08" stroke="none" /><path d="M 87.65650970185807 116.9893568818739 l -5.292239677534289 7.28414301095839 a30.003695919374564,30.003695919374564 0 0,0 -0.4152154751029257,-0.30716648208108527 l 5.4168401230557786 -7.191966580137539" fill="#ff5e08" stroke="none" /><path d="M 86.24171649860922 115.8653595955263 l -5.845404050063653 6.740625545768912 a29.92215115635086,29.92215115635086 0 0,0 -0.38622037563875666,-0.3407945764281273 l 5.960566778608997 -6.639007827568496" fill="#ff5d08" stroke="none" /><path d="M 85.97065885151581 115.62618273729859 l -9.92965000019951 11.059858319668782 a35.86332449950579,35.86332449950579 0 0,0 -0.4558065460254517,-0.4163684727253512 l 10.118556095691817 -10.887297080356856" fill="#ffae10" stroke="none" /><path d="M 85.70375840098266 115.38237550388516 l -7.2013982042182 7.748512821572825 a31.578260114111185,31.578260114111185 0 0,0 -0.39497511163155996,-0.3734736211510814 l 7.333709150240577 -7.6234045636758125" fill="#ff740a" stroke="none" /><path d="M 84.9287848128048 114.62390073753433 l -7.763092953598735 7.532683951466279 a31.81697461025457,31.81697461025457 0 0,0 -0.37800603429526486,-0.3963378157103751 l 7.891605539272958 -7.397939019173403" fill="#ff770b" stroke="none" /><path d="M 84.67929136418377 114.36230785411682 l -10.946354516935363 10.261595412433877 a36.00410002695647,36.00410002695647 0 0,0 -0.41996826802305043,-0.45579261019872713 l 11.121369192954143 -10.071651547433806" fill="#ffb010" stroke="none" /><path d="M 84.43433777217949 114.09645910891817 l -11.01586008594446 9.976101175672417 a35.861755216001804,35.861755216001804 0 0,0 -0.4104312143925513,-0.4611238203214658 l 11.185950149985349 -9.785003185610087" fill="#ffae10" stroke="none" /><path d="M 84.19399662182784 113.82643327865904 l -6.704261892061248 5.864609004275738 a29.90734339129107,29.90734339129107 0 0,0 -0.3356137851903147,-0.39039465365680687 l 6.804218186822341 -5.7483372514574" fill="#ff5d08" stroke="none" /><path d="M 83.95833913139862 113.55231037782056 l -6.851986255958622 5.788692655077182 a29.96987615894391,29.96987615894391 0 0,0 -0.329531632752166,-0.39694207996690095 l 6.950613888604325 -5.66988931799652" fill="#ff5d08" stroke="none" /><path d="M 83.50135304334701 112.99209946851258 l -8.215269012254097 6.469233049729245 a31.45665439781824,31.45665439781824 0 0,0 -0.33133321456784104,-0.4282928439957316 l 8.325409044040006 -6.326862211620261" fill="#ff720a" stroke="none" /><path d="M 83.28015986056508 112.70617746262583 l -7.161334132578338 5.442228011683328 a29.9945846090624,29.9945846090624 0 0,0 -0.3088567134224167,-0.4137640402720817 l 7.253952112695839 -5.318151091901939" fill="#ff5e08" stroke="none" /><path d="M 83.06392112726016 112.41649034213515 l -7.216153743965267 5.290439655044673 a29.947716278482076,29.947716278482076 0 0,0 -0.3012172785817802,-0.4183644547424069 l 7.306150814922655 -5.165441594851128" fill="#ff5d08" stroke="none" /><path d="M 82.85270091963577 112.12312394758628 l -9.998939084021682 7.069240309616439 a33.24552740232458,33.24552740232458 0 0,0 -0.3263429933157909,-0.4701214216819712 l 10.119142984499607 -6.896077625747455" fill="#ff8b0c" stroke="none" /><path d="M 82.6465618267979 111.8261652097733 l -7.36296973327435 5.017777781623057 a29.910186146139942,29.910186146139942 0 0,0 -0.28627878723624395,-0.42794794410226256 l 7.4482516259213245 -4.8902929233149735" fill="#ff5d08" stroke="none" /><path d="M 82.44556493220864 111.52570212397912 l -7.46725770097755 4.902771727605632 a29.932922712405926,29.932922712405926 0 0,0 -0.27908193771427864,-0.4331413649295645 l 7.550544502068875 -4.773508762754619" fill="#ff5d08" stroke="none" /><line stroke="#e1ed5e" stroke-width="0.3" x1="26.63291911575756" x2="22.317208475507996" y1="142.92168965132927" y2="145.44649492493687" /><path d="M 25.769776987707644 143.4266507060508 a86.0,86.0 0 0,1 -11.730757126820373,-40.83630448921669" fill="none" id="id93" stroke="none" /><text fill="#e1ed5e" style="font-size:6.75px; font-family:Arial;" text-anchor="middle"><textPath startOffset="21.46611528233685" xlink:href="#id93">September</textPath></text><path d="M 81.87401531095188 110.60418214915194 l -10.266250692969287 6.006029145709302 a32.89404428232895,32.89404428232895 0 0,0 -0.28171086679296053,-0.49118664173316134 l 10.368113555914624 -5.828422658117834" fill="#ff860c" stroke="none" /><path d="M 81.69416730710424 110.29060199501025 l -10.379467705919286 5.834805379988495 a32.907069483318054,32.907069483318054 0 0,0 -0.2733223435099411,-0.49615944531189665 l 10.478366458880744 -5.655275416278776" fill="#ff860c" stroke="none" /><path d="M 81.51974371655577 109.97397251340807 l -13.057428465108176 7.047220049835194 a35.83778111956826,35.83778111956826 0 0,0 -0.288319201473171,-0.545391273259235 l 13.176800174806232 -6.821413761489833" fill="#ffae10" stroke="none" /><path d="M 81.35079622478065 109.6543875284942 l -7.942306968415316 4.111602311152262 a29.943462055916104,29.943462055916104 0 0,0 -0.23301906668486946,-0.45976872509383854 l 8.011904704886453 -3.974279374355738" fill="#ff5d08" stroke="none" /><path d="M 80.87730276802145 108.67885076344099 l -9.464049331096565 4.295266026859135 a31.393148703974152,31.393148703974152 0 0,0 -0.21909265813924184,-0.49399610533144894 l 9.536583073967087 -4.13172158503499" fill="#ff710a" stroke="none" /><path d="M 80.58989483394504 108.01547362559985 l -11.945923551055479 4.933112640954259 a33.92442222368198,33.92442222368198 0 0,0 -0.2182428931070481,-0.5416609627222929 l 12.029069058419914 -4.726752310389161" fill="#ff940d" stroke="none" /><path d="M 80.45479744820244 107.68017299344265 l -8.616878526577196 3.385952003936006 a30.25825396685279,30.25825396685279 0 0,0 -0.18631263463935532,-0.4864034975231723 l 8.67388544081006 -3.2371249395796755" fill="#ff6209" stroke="none" /><path d="M 79.97269907076064 106.31721596034903 l -7.5389715720423895 2.378019469912295 a28.90512928188687,28.90512928188687 0 0,0 -0.14558994358441585,-0.47579635941163273 l 7.578788288132936 -2.2478961379486146" fill="#ff4e07" stroke="none" /><path d="M 79.86692584326677 105.97154293290107 l -9.967672187182425 2.9564477805758935 a31.396878007863812,31.396878007863812 0 0,0 -0.14922093352255034,-0.519457645539354 l 10.01708575759108 -2.7844326595319435" fill="#ff710a" stroke="none" /><path d="M 79.76711848015287 105.62410040840567 l -10.03468503931631 2.7893247025877694 a31.415144556593773,31.415144556593773 0 0,0 -0.14033881632644196,-0.5222529428718096 l 10.081211931984527 -2.616180826540421" fill="#ff720a" stroke="none" /><path d="M 79.67330655649465 105.27499134158121 l -10.109713713578053 2.6235773394825457 a31.444590438440105,31.444590438440105 0 0,0 -0.13145139367242029,-0.5250829746815193 l 10.153376421545532 -2.4491665254036348" fill="#ff720a" stroke="none" /><path d="M 79.58551787078972 104.9243191809786 l -8.84914254231615 2.1345632027564374 a30.102949181490104,30.102949181490104 0 0,0 -0.11717133475791708,-0.504771043478369 l 8.884574443004622 -1.9819235019294945" fill="#ff5f08" stroke="none" /><path d="M 79.4281124754447 104.21870165774334 l -21.79940062480475 4.470429242037335 a43.25305833382909,43.25305833382909 0 0,0 -0.1432913412996142,-0.7306394622026127 l 21.873121899080033 -4.094526052766768" fill="#f1ff19" stroke="none" /><path d="M 79.35854240842038 103.8639653848113 l -9.223722593846274 1.7266292684806681 a30.383938784913525,30.383938784913525 0 0,0 -0.09180804817386051,-0.5149082901152661 l 9.252077084359323 -1.5676022276321884" fill="#ff6309" stroke="none" /><path d="M 79.1416061653843 102.43462659150553 l -11.860408664692075 1.3843667230628818 a32.94092814304762,32.94092814304762 0 0,0 -0.060890048425349404,-0.5637662254828767 l 11.882481014618477 -1.1800041756952229" fill="#ff870c" stroke="none" /><path d="M 79.07016306316243 101.71520430193888 l -15.18955619992542 1.2447871532529495 a36.240476127982234,36.240476127982234 0 0,0 -0.04559990928306162,-0.622174532870736 l 15.208732667872816 -0.9831394838854529" fill="#ffb310" stroke="none" /><path d="M 79.04373962182676 101.35467743843564 l -10.409311040225765 0.6728900367424281 a31.431037212747025,31.431037212747025 0 0,0 -0.03025409321235258,-0.5402071578568465 l 10.419351484325649 -0.4936111625501441" fill="#ff720a" stroke="none" /><path d="M 79.0235259727143 100.99374915477108 l -15.049376108544992 0.7129560844327385 a36.066254598763905,36.066254598763905 0 0,0 -0.024040506687060145,-0.6203786560028379 l 15.059418748083253 -0.45380018141590384" fill="#ffb110" stroke="none" /><path d="M 79.0095281055655 100.63252640178507 l -14.865972932002437 0.4479708896019156 a35.872720972739316,35.872720972739316 0 0,0 -0.013286465478294512,-0.6173698426127154 l 14.87148146016574 -0.1920112311990713" fill="#ffae10" stroke="none" /><line stroke="#e1ed5e" stroke-width="0.3" x1="15.007084014347285" x2="10.007500721073583" y1="101.09737516637583" y2="101.16192664675087" /><path d="M 14.007167355692545 101.11028546245083 a86.0,86.0 0 0,1 10.666146001902534,-42.60595125391555" fill="none" id="id94" stroke="none" /><text fill="#e1ed5e" style="font-size:6.75px; font-family:Arial;" text-anchor="middle"><textPath startOffset="22.20632615414155" xlink:href="#id94">October</textPath></text><path d="M 79.00019446554 99.90962569577889 l -7.5833281329589415 -0.03263544524600449 a28.583398357228305,28.583398357228305 0 0,0 0.006352310318318357,-0.49199343464532863 l 7.581642815522907 0.1631651379518051" fill="#ff4a06" stroke="none" /><path d="M 79.05617556472873 98.46500227214037 l -10.44480324309877 -0.7655120150404316 a31.472818313721376,31.472818313721376 0 0,0 0.04425005744608615,-0.5399627821277128 l 10.430078701833187 0.9451887143759229" fill="#ff730a" stroke="none" /><path d="M 79.08570108090925 98.10471618934814 l -15.426849665457993 -1.398003276773173 a36.49006467909382,36.49006467909382 0 0,0 0.06207285687517215,-0.625065197678478 l 15.400499682900593 1.6633440051560813" fill="#ffb710" stroke="none" /><path d="M 79.12142395522702 97.74499172005258 l -9.52152828082623 -1.0283807221801444 a30.57690282462579,30.57690282462579 0 0,0 0.06102224779160152,-0.5228013534197196 l 9.502415680031039 1.1921258139247257" fill="#ff6609" stroke="none" /><path d="M 79.16333360222342 97.38593545837743 l -8.8829545996494 -1.1144113074759572 a29.952585938245033,29.952585938245033 0 0,0 0.06858286526070888,-0.5110220071145333 l 8.862455735330856 1.26715165665515" fill="#ff5d08" stroke="none" /><path d="M 79.21141760316559 97.0276538004421 l -11.757938390244178 -1.6811470268506652 a32.87751533422149,32.87751533422149 0 0,0 0.08492435453526123,-0.559545388704446 l 11.727258142269614 1.8832915279472033" fill="#ff860c" stroke="none" /><path d="M 79.26566170972629 96.67025291283419 l -11.744116420957173 -1.8859988149398563 a32.89458961204423,32.89458961204423 0 0,0 0.09459252536797905,-0.5582904392976713 l 11.70991203406897 2.087875042553356" fill="#ff860c" stroke="none" /><path d="M 79.32604984820605 96.31383870115002 l -13.813953894998175 -2.463025297921681 a35.03181441693616,35.03181441693616 0 0,0 0.11095789409840864,-0.5927415070761961 l 13.769510276989903 2.70044488246045" fill="#ffa30f" stroke="none" /><path d="M 79.3925641242962 95.95851677861259 l -8.777512914215036 -1.7214257699151927 a29.944721328277357,29.944721328277357 0 0,0 0.10355270221375146,-0.5049597519879041 l 8.74658091608629 1.8722611780664993" fill="#ff5d08" stroke="none" /><path d="M 79.71946130924805 94.55025226153421 l -8.613153556740786 -2.314510222468171 a29.918709086067675,29.918709086067675 0 0,0 0.13792984986227508,-0.4962070567130643 l 8.57203693631215 2.462428582600178" fill="#ff5d08" stroke="none" /><path d="M 79.81627453868168 94.20196356495316 l -14.449559048986133 -4.150822899218643 a36.03393120414002,36.03393120414002 0 0,0 0.1763845538889544,-0.5946810302548486 l 14.375968597985471 4.398933316220032" fill="#ffb110" stroke="none" /><path d="M 80.14247586403 93.16781622104843 l -11.320390260144453 -3.8948957673258406 a32.97169364293566,32.97169364293566 0 0,0 0.18926838519708006,-0.5350872121070044 l 11.251668794137563 4.089180605859457" fill="#ff870c" stroke="none" /><path d="M 80.2630227832202 92.82701384747504 l -14.013454656908149 -5.092893156789013 a35.91021368484332,35.91021368484332 0 0,0 0.2161374397947741,-0.5791408818756547 l 13.923712628611748 5.333357175694009" fill="#ffaf10" stroke="none" /><path d="M 80.38941819471856 92.48833698450439 l -14.055299746437523 -5.383760478161117 a36.051123806826396,36.051123806826396 0 0,0 0.22696148101315106,-0.5775922133063226 l 13.960544715542682 5.624901696363202" fill="#ffb110" stroke="none" /><path d="M 80.52162464483688 92.15188598940014 l -13.8225640806676 -5.569307339338578 a35.902364309201836,35.902364309201836 0 0,0 0.2358927459133704,-0.5712329950739891 l 13.72464964786803 5.806414904865878" fill="#ffaf10" stroke="none" /><path d="M 81.10775173730289 90.83032412892265 l -13.892792812842758 -6.743104646223511 a36.44277023109832,36.44277023109832 0 0,0 0.27876981608882806,-0.5619829384703179 l 13.774662983800518 6.98124717319279" fill="#ffb610" stroke="none" /><path d="M 81.26839172434947 90.50648371742162 l -13.238004268095935 -6.709258875084302 a35.841122317905196,35.841122317905196 0 0,0 0.28364078258049297,-0.5479037108976875 l 13.12055405235533 6.936135308242325" fill="#ffae10" stroke="none" /><path d="M 81.43458229118936 90.18545643968196 l -7.929976472614766 -4.192154507024061 a29.96987660266215,29.96987660266215 0 0,0 0.2450278609570911,-0.4539994130707627 l 7.856640512439204 4.328034903427297" fill="#ff5d08" stroke="none" /><path d="M 81.6062741919709 89.86733742301443 l -7.8030402275134625 -4.298507791473408 a29.908681497592724,29.908681497592724 0 0,0 0.2522902088722387,-0.4487961302857081 l 7.727892377348793 4.4321874316939" fill="#ff5d08" stroke="none" /><line stroke="#e1ed5e" stroke-width="0.3" x1="26.266209847984243" x2="21.928928074336255" y1="57.711370442889674" y2="55.22380399835377" /><path d="M 25.398753493254645 57.213857153982495 a86.0,86.0 0 0,1 29.58750427330803,-30.492523968695096" fill="none" id="id95" stroke="none" /><text fill="#e1ed5e" style="font-size:6.75px; font-family:Arial;" text-anchor="middle"><textPath startOffset="21.46611528233685" xlink:href="#id95">November</textPath></text><path d="M 82.34701348167596 88.62581576622439 l -12.66401231555998 -8.159684995310226 a36.065114242890616,36.065114242890616 0 0,0 0.34073523866621386,-0.5189631449896811 l 12.521680441535846 8.376466204277573" fill="#ffb110" stroke="none" /><path d="M 82.54541684631803 88.32363383020206 l -12.412124289351471 -8.303177845696004 a35.933304781981974,35.933304781981974 0 0,0 0.3483400819657137,-0.5111460873762037 l 12.267359741717017 8.515601956342623" fill="#ffaf10" stroke="none" /><path d="M 83.6137871275137 86.86637796730984 l -8.135539717204797 -6.520671036631935 a31.42622449682469,31.42622449682469 0 0,0 0.3419495088509645,-0.41918966528623225 l 8.022091716277439 6.65974487152625" fill="#ff720a" stroke="none" /><path d="M 83.84228863543731 86.58626213691792 l -11.67897758801633 -9.695602325094612 a36.1790389006606,36.1790389006606 0 0,0 0.4019136090362181,-0.4757389430208331 l 11.510353365492987 9.895200217744561" fill="#ffb210" stroke="none" /><path d="M 84.07557802195018 86.31012108654704 l -11.314328030850623 -9.726681504856765 a35.920534571074015,35.920534571074015 0 0,0 0.4071133091689986,-0.46540088903160126 l 11.14522285810378 9.919997950091311" fill="#ffaf10" stroke="none" /><path d="M 84.31358615837235 86.03803664274999 l -11.374686747145981 -10.124236244641294 a36.22772662392541,36.22772662392541 0 0,0 0.4186137262532819,-0.4622437320210148 l 11.198729380276653 10.318532763931865" fill="#ffb310" stroke="none" /><path d="M 84.80347519578584 85.50635884689758 l -22.842903150923426 -21.786352171303363 a52.56649117805972,52.56649117805972 0 0,0 0.630136398154876,-0.6494109488517739 l 22.46450248906543 22.17632731570526" fill="#85ff25" stroke="none" /><path d="M 85.83668400450813 84.49514656593479 l -6.08677237049555 -6.663306355735497 a30.02487947180532,30.02487947180532 0 0,0 0.38458869888909075,-0.34528753114399613 l 5.9711726840104875 6.767092895648771" fill="#ff5e08" stroke="none" /><path d="M 86.10567301691215 84.25364557470407 l -6.100714571062897 -6.913901911222664 a30.220670144603783,30.220670144603783 0 0,0 0.3930215440734096,-0.3408244101218524 l 5.980799228342715 7.017891314764197" fill="#ff6108" stroke="none" /><path d="M 86.37877921826538 84.01681056812374 l -5.894296384891062 -6.916388567291101 a30.087307669859918,30.087307669859918 0 0,0 0.39707002637590605,-0.332534727967179 l 5.774368821556045 7.0168244526520915" fill="#ff5f08" stroke="none" /><path d="M 86.93701828274178 83.55741782278169 l -39.18894515177469 -49.32774653165494 a84.0,84.0 0 0,0 1.1398697793622974,-0.889686443107113 l 38.334042817252964 49.99501136398527" fill="#4dd2ff" stroke="none" /><line stroke="#e1ed5e" stroke-width="0.3" x1="56.762969772571076" x2="54.21961505331055" y1="26.818313649435495" y2="22.513508569990535" /><path d="M 56.25429882871897 25.957352633546506 a86.0,86.0 0 0,1 42.265352541879196,-11.944610805530505" fill="none" id="id96" stroke="none" /><text fill="#e1ed5e" style="font-size:6.75px; font-family:Arial;" text-anchor="middle"><textPath startOffset="22.20632615414155" xlink:href="#id96">December</textPath></text></svg>