<?xml version="1.0" encoding="utf-8" ?>
<svg baseProfile="full" height="200mm" version="1.1" viewBox="0,0,200,200" width="200mm" xmlns="http://www.w3.org/2000/svg" xmlns:ev="http://www.w3.org/2001/xml-events" xmlns:xlink="http://www.w3.org/1999/xlink"><defs /><rect fill="#1a1a1a" height="200" width="200" x="0" y="0" /><text alignment-baseline="middle" fill="#e1ed5e" style="dominant-baseline: central; font-size:9.0px; font-family:Arial;" text-anchor="middle" x="100.0" y="100.0">2025</text><line stroke="#e1ed5e" stroke-width="0.3" x1="100.0" x2="100.0" y1="15.0" y2="10.0" /><path d="M 100.0 14.0 a86.0,86.0 0 0,1 42.46469731375804,11.215312516191453" fill="none" id="id85" stroke="none" /><text fill="#e1ed5e" style="font-size:6.75px; font-family:Arial;" text-anchor="middle"><textPath startOffset="22.20632615414155" xlink:href="#id85">January</textPath></text><path d="M 100.72285384407766 79.0124445844662 l 0.8148749648147905 -23.65932424777169 a44.67335305928333,44.67335305928333 0 0,0 0.7682948097746798,0.0330843906599607 l -1.222010606978802 23.641792130587536" fill="#f4ff19" stroke="none" /><path d="M 101.08401301168833 79.027996857942 l 1.2335329484453255 -23.864710655396973 a44.89656917217863,44.89656917217863 0 0,0 0.771446954010456,0.04653578699615983 l -1.6441419512953936 23.83994159902051" fill="#f2ff19" stroke="none" /><path d="M 101.44485096284872 79.0497635885617 l 2.266180758501469 -32.859460153627914 a53.937512001031024,53.937512001031024 0 0,0 0.9256956422170496,0.07185179792549481 l -2.83146659008086 32.81558309351395" fill="#84ff25" stroke="none" /><path d="M 101.80526077348638 79.07773832637324 l 1.5481262670893519 -17.942173972630698 a39.008839546261676,39.008839546261676 0 0,0 0.6684905320984751,0.06348123098039406 l -1.856741926278071 17.912867197135125" fill="#ffbe11" stroke="none" /><path d="M 102.52436894288641 79.15227682838746 l 2.578762784410713 -21.296939500919258 a42.4524975143706,42.4524975143706 0 0,0 0.7246950046171016,0.0940862104851965 l -2.9449725175356605 21.249394967269925" fill="#ffed16" stroke="none" /><path d="M 103.2404852339499 79.25152402106235 l 3.259046347329502 -20.867320777569702 a42.12028549826053,42.12028549826053 0 0,0 0.7153845555391336,0.11804458131536026 l -3.617760109007511 20.808129933314717" fill="#ffe815" stroke="none" /><path d="M 103.59715602781102 79.31037775812273 l 5.040585496712822 -28.991739306992386 a50.42666223332641,50.42666223332641 0 0,0 0.85390319603176,0.15604535106293377 l -5.538883813847483 28.90067847457871" fill="#adff20" stroke="none" /><path d="M 103.95276090670814 79.375362276772 l 3.3865491282280167 -17.670269098007434 a38.991862743860025,38.991862743860025 0 0,0 0.6580964720891112,0.13200796125090175 l -3.6902120097842532 17.609357180679325" fill="#ffbe11" stroke="none" /><path d="M 108.76106565485865 80.91482961587045 l 8.267613736559309 -18.010231066456964 a40.81721120551819,40.81721120551819 0 0,0 0.636013374306274,0.2986168072450693 l -8.57640532216518 17.865249276571895" fill="#ffd714" stroke="none" /><path d="M 109.08828744355905 81.06846463323043 l 7.710017048692139 -16.06050219496043 a38.815276973582314,38.815276973582314 0 0,0 0.5998415550893252,0.29433964599906 l -7.985329870791896 15.925407388826539" fill="#ffbc11" stroke="none" /><path d="M 109.41281617654863 81.2277094730956 l 8.741819984850894 -17.434100635936527 a40.50300698947475,40.50300698947475 0 0,0 0.6205437009515634,0.31786658567549875 l -9.040624173391214 17.281041524948527" fill="#ffd313" stroke="none" /><path d="M 110.05341064243156 81.56283822128135 l 14.600721002897643 -26.776570140305175 a51.49861902255804,51.49861902255804 0 0,0 0.774627295013464,0.4310792510038153 l -15.059472386983142 26.52127549174118" fill="#a0ff22" stroke="none" /><line stroke="#e1ed5e" stroke-width="0.3" x1="143.23703022742887" x2="145.7803849466894" y1="26.81831364943548" y2="22.513508569990506" /><path d="M 143.74570117128098 25.957352633546492 a86.0,86.0 0 0,1 28.547481713284135,27.462654790039103" fill="none" id="id86" stroke="none" /><text fill="#e1ed5e" style="font-size:6.75px; font-family:Arial;" text-anchor="middle"><textPath startOffset="19.985693538727396" xlink:href="#id86">February</textPath></text><path d="M 111.60114157652 82.49532879139004 l 17.70654546608894 -26.716961824817684 a53.05179872474305,53.05179872474305 0 0,0 0.7568604691058108,0.5110355672925773 l -18.16381062960129 26.408214345226437" fill="#8eff24" stroke="none" /><path d="M 112.77801427241765 83.33499621200491 l 14.473628598020662 -18.87641305368584 a44.786653706791185,44.786653706791185 0 0,0 0.607749441418272,0.4743580789888646 l -14.796410594598365 18.624476585473754" fill="#f3ff19" stroke="none" /><path d="M 113.06298171725822 83.55741782278167 l 14.658058245389736 -18.450330290201165 a44.564238993499295,44.564238993499295 0 0,0 0.5965169584110682,0.4823418953945957 l -14.973478602365295 18.195282297542438" fill="#f6ff19" stroke="none" /><path d="M 113.34407831869373 83.78471172551755 l 14.930148262929709 -18.142628683842126 a44.49604866169702,44.49604866169702 0 0,0 0.5872259296042706,0.4917848283299129 l -15.240231729493098 17.882942698118395" fill="#f7ff19" stroke="none" /><path d="M 113.6212207817346 84.01681056812373 l 15.179739523030525 -17.81196092559328 a44.402787099017004,44.402787099017004 0 0,0 0.5774607863861428,0.5007683035609823 l -15.484094108063431 17.548027628612626" fill="#f8ff18" stroke="none" /><path d="M 113.89432698308785 84.25364557470407 l 20.154917147914016 -22.84144235340272 a51.46230743103841,51.46230743103841 0 0,0 0.659180726281265,0.5918189645530918 l -20.545108861791274 22.49112438008033" fill="#a1ff22" stroke="none" /><path d="M 114.42810811169701 84.74124197986012 l 20.996221502720676 -22.20500849917671 a51.55983834773705,51.55983834773705 0 0,0 0.6396286593438337,0.6153222635116454 l -21.37533340567693 21.840303148902763" fill="#9fff22" stroke="none" /><path d="M 114.68862486808459 84.99185889309783 l 21.277309523687272 -21.74014698956455 a51.41969578570216,51.41969578570216 0 0,0 0.6272326298373376,0.6245390935909427 l -21.648377953691934 21.37067204532349" fill="#a1ff22" stroke="none" /><path d="M 114.94478906791727 85.2469230424477 l 12.676206560775054 -12.513595880882258 a38.812251251357026,38.812251251357026 0 0,0 0.4652586021952518,0.47948988694794725 l -12.889729426673416 12.293541798384197" fill="#ffbc11" stroke="none" /><path d="M 115.19652480421416 85.50635884689758 l 13.104909188052199 -12.498768867402598 a39.109607064424324,39.109607064424324 0 0,0 0.46043680434383466,0.49116187984622733 l -13.318113314366498 12.271337570678316" fill="#ffc011" stroke="none" /><path d="M 115.4437574822437 85.77008943001954 l 13.140190244167162 -12.107398880227896 a38.867672128675565,38.867672128675565 0 0,0 0.4491184674511425,0.4959278291523644 l -13.34665235223434 11.879418263805983" fill="#ffbc11" stroke="none" /><path d="M 115.68641384162765 86.03803664274999 l 13.28955593980392 -11.828598616547383 a38.79123498547991,38.79123498547991 0 0,0 0.4396490261146595,0.5025948378678597 l -13.49119682949643 11.598088222476575" fill="#ffbb11" stroke="none" /><path d="M 115.9244219780498 86.31012108654704 l 13.390397482362959 -11.511433218061695 a38.65830794469183,38.65830794469183 0 0,0 0.4294558544782504,0.5083402743527932 l -13.586563950328326 11.279233994079796" fill="#ffb911" stroke="none" /><path d="M 116.15771136456269 86.58626213691792 l 13.715246818171085 -11.386063372187028 a38.82555565470011,38.82555565470011 0 0,0 0.4224618101462041,0.5178882267925341 l -13.909207120393697 11.148290975786393" fill="#ffbc11" stroke="none" /><path d="M 116.60985879189232 87.15038557335679 l 4.106299614703482 -3.1766896654755965 a26.191633052947157,26.191633052947157 0 0,0 0.2727971577857571,0.3589690827226531 l -4.160372712713352 3.10553580687191" fill="#ff0200" stroke="none" /><path d="M 116.82858285166822 87.43820079747576 l 14.396557237792248 -10.746398720725676 a38.96513138738047,38.96513138738047 0 0,0 0.39658597075247604,0.5409428184140992 l -14.57940582105835 10.496993458640084" fill="#ffbe11" stroke="none" /><path d="M 117.04232023915458 87.72973835380427 l 19.134561421263903 -13.776649648015187 a44.57811519838424,44.57811519838424 0 0,0 0.4429947654681675,0.6265846796056932 l -19.368868806535954 13.4452384680777" fill="#f6ff19" stroke="none" /><path d="M 117.2510076193507 88.02491185347247 l 25.066680225295205 -17.40047374983577 a51.5141761192389,51.5141761192389 0 0,0 0.49938218710043014,0.732781739044546 l -25.36248687806437 16.966413987520816" fill="#a0ff22" stroke="none" /><path d="M 117.45458315368197 88.32363383020206 l 14.890739052796148 -9.96126462537038 a38.915381728423306,38.915381728423306 0 0,0 0.36766393672618647,0.5599773996068003 l -15.059999624880259 9.703469161785906" fill="#ffbd11" stroke="none" /><path d="M 117.65298651832404 88.62581576622439 l 17.27818885890795 -11.132694351926926 a41.55414055068994,41.55414055068994 0 0,0 0.38224348648143724,0.6046173996418001 l -17.46725994163534 10.83362930457092" fill="#ffe115" stroke="none" /><line stroke="#e1ed5e" stroke-width="0.3" x1="172.23445277983987" x2="176.4835382374775" y1="55.19839476539836" y2="52.563006222186495" /><path d="M 173.08426987136738 54.67131705675599 a86.0,86.0 0 0,1 12.851231095245387,41.99856678651699" fill="none" id="id87" stroke="none" /><text fill="#e1ed5e" style="font-size:6.75px; font-family:Arial;" text-anchor="middle"><textPath startOffset="22.20632615414155" xlink:href="#id87">March</textPath></text><path d="M 117.84615892207809 88.93136811851018 l 15.30703727431713 -9.493805447179703 a39.01215511775959,39.01215511775959 0 0,0 0.34903655340163164,0.5737243208099261 l -15.468189626004985 9.228913353162696" fill="#ffbe11" stroke="none" /><path d="M 118.03404312379186 89.2402003453031 l 15.250822292044093 -9.099223690737013 a38.75903861017197,38.75903861017197 0 0,0 0.3369089297675212,0.5758865716068533 l -15.405190896281942 8.835357706776264" fill="#ffbb11" stroke="none" /><path d="M 118.21658344932153 89.55222093294921 l 15.505206882888652 -8.892719996151055 a38.87433661457461,38.87433661457461 0 0,0 0.327918651480842,0.5833306908380037 l -15.655983175661929 8.624505795378258" fill="#ffbc11" stroke="none" /><path d="M 118.3937258080291 89.86733742301442 l 15.994233617509119 -8.810839854585435 a39.260514996971196,39.260514996971196 0 0,0 0.3209863069281882,0.5947388773665587 l -16.143528023655772 8.534219993886417" fill="#ffc212" stroke="none" /><path d="M 118.73160827565052 90.50648371742162 l 16.036191172976423 -8.12743037174711 a38.9781687550163,38.9781687550163 0 0,0 0.298164405900271,0.6010812480562787 l -16.173715591830103 7.850189535191881" fill="#ffbe11" stroke="none" /><path d="M 118.89224826269711 90.83032412892265 l 16.155499414673898 -7.841348001997427 a38.957920253357784,38.957920253357784 0 0,0 0.2876241104880675,0.6058097299811898 l -16.28808171900372 7.562095856375697" fill="#ffbe11" stroke="none" /><path d="M 119.196687751892 91.48605970444005 l 28.08818643551343 -12.457416894690517 a51.72675467608451,51.72675467608451 0 0,0 0.3539816760305666,0.8170385130388655 l -28.298458821386674 11.97207923706505" fill="#9dff22" stroke="none" /><path d="M 119.34039704204932 91.81776055985345 l 16.520492783559114 -6.989237466552576 a38.93811924855811,38.93811924855811 0 0,0 0.2558388576066731,0.6195340866507135 l -16.638353328051984 6.70382880944856" fill="#ffbd11" stroke="none" /><path d="M 119.47837535516314 92.15188598940014 l 16.42814323861702 -6.619132179571435 a38.71148782793688,38.71148782793688 0 0,0 0.24370992307282371,0.6202151715082901 l -16.539646711571546 6.33536800316736" fill="#ffba11" stroke="none" /><path d="M 119.61058180528143 92.48833698450437 l 17.8787623591557 -6.848304619903552 a40.14548039778984,40.14548039778984 0 0,0 0.24162878641326588,0.6474450173130408 l -17.99399573407059 6.539536465561178" fill="#ffce13" stroke="none" /><path d="M 119.7369772167798 92.82701384747503 l 16.702189644328246 -6.070056914984837 a38.77100812746033,38.77100812746033 0 0,0 0.22255836112681796,0.6292024569367379 l -16.804201086264875 5.7816568316214845" fill="#ffbb11" stroke="none" /><path d="M 120.18372546131832 94.20196356495316 l 17.19204263040674 -4.938636811871608 a38.887326892671695,38.887326892671695 0 0,0 0.1792765571676697,0.6449531617604649 l -17.27450595814077 4.6419723466921905" fill="#ffbd11" stroke="none" /><path d="M 120.28053869075195 94.5502522615342 l 17.179009791361047 -4.616310798600409 a38.788442956058674,38.788442956058674 0 0,0 0.1677206143547451,0.6462959446533069 l -17.255926737586094 4.319918428398252" fill="#ffbb11" stroke="none" /><path d="M 120.45610955862082 95.25157060432595 l 17.16388124118169 -3.9842120514620727 a38.62023736878719,38.62023736878719 0 0,0 0.14474425982081957,0.648860135279542 l -17.22991988800455 3.688173746632567" fill="#ffb911" stroke="none" /><path d="M 120.53481517161879 95.60439243477599 l 17.597837706673694 -3.7669288916683 a38.99648980288411,38.99648980288411 0 0,0 0.134854883158528,0.6576003030179305 l -17.660071885747218 3.463452932486958" fill="#ffbe11" stroke="none" /><path d="M 120.67395015179393 96.31383870115 l 62.02185045538181 -11.058483896549978 a84.0,84.0 0 0,0 0.2415525539191079,1.4256568467366484 l -62.20301487082114 9.98924126149749" fill="#4dd2ff" stroke="none" /><path d="M 120.78858239683441 97.02765380044208 l 17.821983882318115 -2.5481827019266645 a39.003231503927424,39.003231503927424 0 0,0 0.08930625811344187,0.6654353546696586 l -17.863206139489392 2.241029005192342" fill="#ffbe11" stroke="none" /><path d="M 120.83666639777658 97.38593545837742 l 17.804824377696626 -2.233704719701251 a38.944392101585265,38.944392101585265 0 0,0 0.07772122502225041,0.665867992438397 l -17.840635955722465 1.9268929889380013" fill="#ffbd11" stroke="none" /><path d="M 120.87857604477298 97.74499172005257 l 18.088926800899753 -1.9537098518557243 a39.19412693683177,39.19412693683177 0 0,0 0.06667270812186747,0.6713850719930866 l -18.119876634703846 1.6420492491582026" fill="#ffc111" stroke="none" /><path d="M 120.91429891909075 98.10471618934814 l 17.546573810778717 -1.5900957237261613 a38.61847487462288,38.61847487462288 0 0,0 0.05429668594176731,0.6625570969518134 l -17.57134498053998 1.2878247095665791" fill="#ffb911" stroke="none" /><path d="M 120.98425023603335 99.18683210126433 l 17.86792022244215 -0.6924059224718038 a38.881331019726446,38.881331019726446 0 0,0 0.02015961010066605,0.668999314537027 l -17.877191526998462 0.38473646050977767" fill="#ffbd11" stroke="none" /><line stroke="#e1ed5e" stroke-width="0.3" x1="184.98032266829074" x2="189.97916517819016" y1="98.17113171792111" y2="98.06355123074" /><path d="M 185.9800911702706 98.14961562048488 a86.0,86.0 0 0,1 -9.607161424134198,41.387399972396054" fill="none" id="id88" stroke="none" /><text fill="#e1ed5e" style="font-size:6.75px; font-family:Arial;" text-anchor="middle"><textPath startOffset="21.466115282336823" xlink:href="#id88">April</textPath></text><path d="M 120.99513854157772 99.54816195383933 l 17.769411565512847 -0.3824169193876035 a38.77352610161573,38.77352610161573 0 0,0 0.008616941444633852,0.66739161108954 l -17.773361514075198 0.07648905023760075" fill="#ffbb11" stroke="none" /><path d="M 120.99980553446 99.90962569577887 l 17.62544528323517 -0.07585248117874717 a38.6256085010197,38.6256085010197 0 0,0 -0.002861426849506276,0.6648948272254191 l -17.62413955909616 -0.22755182425035672" fill="#ffb911" stroke="none" /><path d="M 120.99824983174949 100.27111621757518 l 17.781459615229558 0.2295830420379988 a38.78294166951101,38.78294166951101 0 0,0 -0.01436434710459376,0.6674547663323431 l -17.774873205439956 -0.5356276241604567" fill="#ffbb11" stroke="none" /><path d="M 120.9904718944345 100.63252640178507 l 17.788113102537803 0.5360265949179235 a38.79618757653269,38.79618757653269 0 0,0 -0.025860184741719316,0.6673364610360071 l -17.77625078494488 -0.8421403029679367" fill="#ffbb11" stroke="none" /><path d="M 120.9764740272857 100.99374915477107 l 62.835278394781724 2.976787457863276 a83.90575072693287,83.90575072693287 0 0,0 -0.08076387636726926,1.4420932666409374 l -62.77472816752692 -4.057952440839637" fill="#4dd3ff" stroke="none" /><path d="M 120.92983693683757 101.71520430193887 l 18.161262068960564 1.4883190405795437 a39.22214404245607,39.22214404245607 0 0,0 -0.06093515639351589,0.6724143731577615 l -18.132952316289973 -1.8007148022858757" fill="#ffc112" stroke="none" /><path d="M 120.8583938346157 102.4346265915055 l 17.52000359293798 2.044964102645861 a38.638945662302774,38.638945662302774 0 0,0 -0.08279496376650805,0.6599573239105753 l -17.48220711992462 -2.346239180843831" fill="#ffb911" stroke="none" /><path d="M 120.76222939487914 103.15116336523771 l 17.61598546055079 2.6736458291679903 a38.81772504463362,38.81772504463362 0 0,0 -0.10595066186877504,0.6597548725946668 l -17.567353044320726 -2.976479931455862" fill="#ffbc11" stroke="none" /><path d="M 120.70491114924044 103.5080841355445 l 17.735874581735505 3.0050329509612874 a38.988648370998156,38.988648370998156 0 0,0 -0.11780802131077274,0.6607299471187664 l -17.68152011808554 -3.3098816488132723" fill="#ffbe11" stroke="none" /><path d="M 120.41448212921028 104.9243191809786 l 17.194620615024224 4.147633996703757 a38.68778804331477,38.68778804331477 0 0,0 -0.16173095548351726,0.6460347724802277 l -17.120678345245647 -4.442996608581381" fill="#ffba11" stroke="none" /><path d="M 120.32669344350535 105.2749913415812 l 17.245568824800188 4.475407005290866 a38.81681542683559,38.81681542683559 0 0,0 -0.1734038154989345,0.6453001052742645 l -17.165976932959474 -4.7715980437406795" fill="#ffbc11" stroke="none" /><path d="M 120.23288151984713 105.62410040840565 l 17.392811734281423 4.834650936009335 a39.052250543830084,39.052250543830084 0 0,0 -0.18560486430681292,0.6461148817226612 l -17.307014233088513 -5.133323293236578" fill="#ffbf11" stroke="none" /><path d="M 120.02730092923936 106.31721596034902 l 17.180202574792816 5.419155096883668 a39.01462190763375,39.01462190763375 0 0,0 -0.20753502813114202,0.6387271394664235 l -17.084375295645426 -5.714081136327887" fill="#ffbe11" stroke="none" /><path d="M 119.9155931802556 106.66101706037122 l 17.12216282142382 5.726719642828845 a39.05446696944858,39.05446696944858 0 0,0 -0.21872206705866132,0.6357087084026101 l -17.02104992342193 -6.020601054320756" fill="#ffbf11" stroke="none" /><path d="M 119.41010516605496 108.01547362559984 l 16.742014824956346 6.91367600127814 a39.11336457563054,39.11336457563054 0 0,0 -0.2623370963211935,0.6200874025778131 l -16.620526747442845 -7.200837929522117" fill="#ffc011" stroke="none" /><path d="M 119.12269723197855 108.67885076344098 l 16.23103928422275 7.366469592362119 a38.82446382086086,38.82446382086086 0 0,0 -0.28143185148184047,0.606179170739016 l -16.101832815901076 -7.644768830379966" fill="#ffbc11" stroke="none" /><line stroke="#e1ed5e" stroke-width="0.3" x1="174.80103733775053" x2="179.2010983576182" y1="140.37084112569926" y2="142.7455964860345" /><path d="M 175.68104954172406 140.8457921977663 a86.0,86.0 0 0,1 -30.038265399797805,32.042727171017184" fill="none" id="id89" stroke="none" /><text fill="#e1ed5e" style="font-size:6.75px; font-family:Arial;" text-anchor="middle"><textPath startOffset="22.206326154141568" xlink:href="#id89">May</textPath></text><path d="M 118.30583269289576 110.29060199501025 l 15.620894636189457 8.781267271682225 a38.919905248958486,38.919905248958486 0 0,0 -0.33331748899827185,0.5811671374832463 l -15.467425151038805 -9.048854255023787" fill="#ffbd11" stroke="none" /><path d="M 118.12598468904814 110.60418214915192 l 15.184905788363077 8.883572929133345 a38.592590252395844,38.592590252395844 0 0,0 -0.3403850367183757,0.5705049004507292 l -15.029739875946474 -9.143639923470179" fill="#ffb911" stroke="none" /><path d="M 117.75023020441432 111.22182372390056 l 14.948016320423712 9.450243869404407 a38.684747697009115,38.684747697009115 0 0,0 -0.36068026002667797,0.5597837732194947 l -14.783131197019983 -9.706149242545353" fill="#ffba11" stroke="none" /><path d="M 117.55443506779139 111.5257021239791 l 14.730397028015446 9.67152560918121 a38.62166292414011,38.62166292414011 0 0,0 -0.36965877674409775,0.5525897152709675 l -14.561735145860627 -9.923652238657985" fill="#ffb911" stroke="none" /><path d="M 117.35343817320211 111.8261652097733 l 14.591577030460458 9.943989134086209 a38.657775628166924,38.657775628166924 0 0,0 -0.37947041900571477,0.5466554408189451 l -14.418245704292607 -10.193685837092174" fill="#ffb911" stroke="none" /><path d="M 116.93607887273984 112.41649034213515 l 14.186760454177882 10.400859342301098 a38.59096493210527,38.59096493210527 0 0,0 -0.39737435113964603,0.5323478813399324 l -14.005624836343143 -10.643520103150346" fill="#ffb911" stroke="none" /><path d="M 116.498646956653 112.99209946851258 l 13.896217388743517 10.942778460862058 a38.68754528358088,38.68754528358088 0 0,0 -0.4165029054849692,0.5196514148418668 l -13.705796571203694 -11.180357709282177" fill="#ffba11" stroke="none" /><path d="M 116.27256486870786 113.27417163493432 l 13.753723310342384 11.219453436745097 a38.74939549158638,38.74939549158638 0 0,0 -0.42606621051020904,0.5132241976014841 l -13.55856109993863 -11.45453889146035" fill="#ffbb11" stroke="none" /><path d="M 116.0416608686014 113.55231037782055 l 13.56540612169784 11.460321700371697 a38.758356250582644,38.758356250582644 0 0,0 -0.4349379508178108,0.5059310974828876 l -13.36612566130925 -11.692129897016112" fill="#ffbb11" stroke="none" /><path d="M 115.80600337817218 113.82643327865902 l 13.246020803462741 11.587067170928702 a38.59878384290748,38.59878384290748 0 0,0 -0.4417560052847389,0.4963175549606629 l -13.044605948529663 -11.81335889563023" fill="#ffb911" stroke="none" /><path d="M 115.56566222782051 114.09645910891815 l 13.057305729623044 11.82485997680846 a38.61591741545053,38.61591741545053 0 0,0 -0.45043369902167446,0.4888568185520384 l -12.851825622605649 -12.047868050161833" fill="#ffb911" stroke="none" /><path d="M 115.32070863581623 114.36230785411682 l 12.862299272835722 12.05768651173149 a38.630273582652705,38.630273582652705 0 0,0 -0.4589523893957194,0.48120974541393924 l -12.65284033206104 -12.277303373727936" fill="#ffb911" stroke="none" /><path d="M 114.81725581225074 114.88116024355365 l 12.452021931016775 12.50572549057975 a38.647833300897275,38.647833300897275 0 0,0 -0.475460455898056,0.4653381272570224 l -12.234911522742925 -12.718213720759344" fill="#ffb911" stroke="none" /><path d="M 114.55890576462653 115.13401014063108 l 20.467283275370544 21.275779763148467 a50.522338816636136,50.522338816636136 0 0,0 -0.6319241890426972,0.5975237634590223 l -20.09802325193704 -21.62493816335341" fill="#acff21" stroke="none" /><path d="M 114.29624159901734 115.38237550388516 l 11.96970419838683 12.879083175446103 a38.582508411399616,38.582508411399616 0 0,0 -0.4903661370333842,0.4479378397111063 l -11.746238511886583 -13.083213781743794" fill="#ffb811" stroke="none" /><path d="M 114.0293411484842 115.62618273729858 l 6.7834104763747725 7.555508884135332 a31.153835343811664,31.153835343811664 0 0,0 -0.4021183479156751,0.3548226885369667 l -6.65234977555251 -7.6711547144445875" fill="#ff4e07" stroke="none" /><path d="M 113.48314897796784 116.09983520530334 l 16.92855363287638 20.213892481556396 a47.36621659163662,47.36621659163662 0 0,0 -0.62958694993085,0.5181071977317636 l -16.57809655440084 -20.502294798145336" fill="#d2ff1c" stroke="none" /><path d="M 112.92097659922987 116.55440617244103 l 12.648208554080481 16.20493467734251 a41.556679876002654,41.556679876002654 0 0,0 -0.5676865521722725,0.43527784080927484 l -12.367393273414715 -16.420251859979157" fill="#ffe115" stroke="none" /><path d="M 112.63410532772338 116.77436683061366 l 14.885934471525161 19.764132003388617 a45.742917348969,45.742917348969 0 0,0 -0.6330275846910378,0.46829867360225497 l -14.543521916415559 -20.017440625730643" fill="#e7ff1a" stroke="none" /><path d="M 112.34349029814194 116.9893568818739 l 2.962595181337034 4.07766244526731 a26.04026797164841,26.04026797164841 0 0,0 -0.36490186854990875,0.2603477944648465 l -2.8919659849382406 -4.128054501576376" fill="#ff0000" stroke="none" /><path d="M 112.04921762599082 117.19931262002967 l 21.263249704310986 30.351620356937914 a58.05869191268857,58.05869191268857 0 0,0 -0.8234467463807322,0.5663741807489797 l -20.73764607330737 -30.71313532705199" fill="#56ff2b" stroke="none" /><path d="M 111.7513745106137 117.40417183066458 l 12.8084414999932 18.96972277988058 a43.88900513356289,43.88900513356289 0 0,0 -0.6297556044701952,0.4173676751193235 l -12.48001119678304 -19.187388476091225" fill="#ffff18" stroke="none" /><path d="M 111.45004920935366 117.60387380957326 l 4.841032057644055 7.442842898984822 a29.878710593442396,29.878710593442396 0 0,0 -0.4335517547235741,0.2767132426558932 l -4.7121985008735505 -7.525070570464524" fill="#ff3b05" stroke="none" /><line stroke="#e1ed5e" stroke-width="0.3" x1="143.8653032363475" x2="146.44561519142675" y1="172.8068346515853" y2="177.08958963109032" /><path d="M 144.38136562736335 173.6633856474863 a86.0,86.0 0 0,1 -40.68145358897372,12.25698825130547" fill="none" id="id90" stroke="none" /><text fill="#e1ed5e" style="font-size:6.75px; font-family:Arial;" text-anchor="middle"><textPath startOffset="21.466115282336833" xlink:href="#id90">June</textPath></text><path d="M 110.21172684928248 118.3499491758327 l 11.449399616677843 20.5739836328073 a44.54522359429626,44.54522359429626 0 0,0 -0.6732208480495273,0.3670936839259145 l -11.093555956759667 -20.76801796849298" fill="#f6ff19" stroke="none" /><path d="M 109.89434966115114 118.52300852407294 l 11.167817543848185 20.907041558497355 a44.702838130093596,44.702838130093596 0 0,0 -0.681844082664497,0.356708598108574 l -10.806282558657191 -21.096179575550646" fill="#f4ff19" stroke="none" /><path d="M 109.57404056367764 118.69057910512821 l 13.544173524856326 26.44112953106912 a50.70821380275486,50.70821380275486 0 0,0 -0.7802933875593973,0.39125530314729046 l -13.08702622961417 -26.670352675125713" fill="#aaff21" stroke="none" /><path d="M 109.2508944713604 118.85261126421891 l 8.638746646404064 17.605101089298305 a40.61039336640573,40.61039336640573 0 0,0 -0.6302101307447148,0.3025391605640386 l -8.334423847659117 -17.751194526361903" fill="#ffd413" stroke="none" /><path d="M 108.92500713936063 119.00905698771935 l 17.107685592369293 36.4370543659453 a61.25334566460549,61.25334566460549 0 0,0 -0.9582706865306615,0.4398950719770847 l -16.477946910071214 -36.72613650825646" fill="#34ff2f" stroke="none" /><path d="M 108.2653958097858 119.30500536409082 l 8.747693526399859 20.43148015375542 a43.2253801610933,43.2253801610933 0 0,0 -0.6865189503712784,0.28696497693352985 l -8.394703116531119 -20.579030173708922" fill="#fff717" stroke="none" /><path d="M 107.93186726928326 119.44442032107085 l 6.6656829068149825 16.340457519884804 a38.64771601577284,38.64771601577284 0 0,0 -0.6181406318484435,0.24597091438124527 l -6.383421198924673 -16.452775278672117" fill="#ffb911" stroke="none" /><path d="M 107.59598834532513 119.57807347666477 l 8.953400236816778 23.07669782172155 a45.75272425725457,45.75272425725457 0 0,0 -0.7366837406057861,0.27855075517518063 l -8.554846275450716 -23.22739682700336" fill="#e7ff1a" stroke="none" /><path d="M 107.2578585660854 119.70592522655815 l 3.0659270946850996 8.324346572453214 a29.87100077827963,29.87100077827963 0 0,0 -0.4840246318696441,0.1735540122169125 l -2.9221829021857206 -8.375888125710087" fill="#ff3b05" stroke="none" /><path d="M 106.91757812671514 119.82793768551818 l 7.252473019836751 20.78785096013223 a43.01665534190265,43.01665534190265 0 0,0 -0.7012334814924188,0.23789646976387968 l -6.893569805407105 -20.90961041679423" fill="#fff417" stroke="none" /><path d="M 106.2309692047433 120.05430185196036 l 5.218851850118835 16.79681392796364 a38.58889913451442,38.58889913451442 0 0,0 -0.6360277952026943,0.19162995727901058 l -4.928949080475895 -16.884159254348376" fill="#ffb911" stroke="none" /><path d="M 105.88484417918355 120.15858648285463 l 7.119701033295309 24.388599704888872 a46.40657273952573,46.40657273952573 0 0,0 -0.7687333452936886,0.2172517220498363 l -6.698836519897014 -24.507540220277228" fill="#deff1b" stroke="none" /><path d="M 105.53697534728816 120.25689768951611 l 6.477889265825647 23.69920974383845 a45.568589536698,45.568589536698 0 0,0 -0.7584122643179023,0.20030357210816258 l -6.068986558696247 -23.807204665250193" fill="#e9ff1a" stroke="none" /><path d="M 103.06178313531738 120.77559828337769 l 3.433769822807003 23.299698013663694 a44.55136307571058,44.55136307571058 0 0,0 -0.7596461590984148,0.10528003573947427 l -3.0321950725217577 -23.355352614895768" fill="#f6ff19" stroke="none" /><path d="M 102.34483914955558 120.86867818915974 l 2.8463734484149716 25.33224998072847 a46.491660026250926,46.491660026250926 0 0,0 -0.7960421654825783,0.08251302527231161 l -2.4098986863267906 -25.37749237445654" fill="#ddff1b" stroke="none" /><path d="M 101.98527174616119 120.90594882070398 l 2.065110997807098 21.746697857716224 a42.84453137854102,42.84453137854102 0 0,0 -0.7347953061753508,0.06340123087421096 l -1.6904713738902055 -21.7790233408691" fill="#fff216" stroke="none" /><path d="M 101.26447882468166 120.96189622390904 l 1.061566444394589 17.598116479163345 a38.63010569821024,38.63010569821024 0 0,0 -0.664091860738206,0.03432596367262708 l -0.7584865152429033 -17.613782249598174" fill="#ffb911" stroke="none" /><line stroke="#e1ed5e" stroke-width="0.3" x1="102.19456741930631" x2="102.32365962044197" y1="184.97166512339345" y2="189.96999836594603" /><path d="M 102.22038585953345 185.97133177190398 a86.0,86.0 0 0,1 -42.740103519485714,-10.115201625700543" fill="none" id="id91" stroke="none" /><text fill="#e1ed5e" style="font-size:6.75px; font-family:Arial;" text-anchor="middle"><textPath startOffset="22.20632615414155" xlink:href="#id91">July</textPath></text><path d="M 100.54218724476979 120.99299961872073 l 0.762163575861493 29.51028415332157 a50.5201247308705,50.5201247308705 0 0,0 -0.8695242642565204,0.014969648761787127 l -0.2540796217123047 -29.519031279362515" fill="#acff21" stroke="none" /><path d="M 100.18074693466247 120.99922214144158 l 0.15415353770567075 17.90959491631561 a38.91025832811199,38.91025832811199 0 0,0 -0.6698009447362401,0.0 l 0.15415353770565843 -17.90959491631561" fill="#ffbd11" stroke="none" /><path d="M 99.81925306533755 120.99922214144158 l -0.154998129026495 18.00771973817277 a39.00838678473391,39.00838678473391 0 0,0 -0.6713906388695703,-0.01155859871768261 l 0.4649484577887333 -18.002383662175927" fill="#ffbe11" stroke="none" /><path d="M 99.45781275523022 120.99299961872073 l -0.45783153999018333 17.72682304345487 a38.73273427683876,38.73273427683876 0 0,0 -0.6663499342007527,-0.022950439053107206 l 0.7629018258655791 -17.71631580597567" fill="#ffba11" stroke="none" /><path d="M 99.09653310690486 120.98055641714683 l -0.8838414783451631 20.52480964378014 a41.543830866521795,41.543830866521795 0 0,0 -0.7141818393631597,-0.0369150434194142 l 1.2370113861218117 -20.506554793598525" fill="#ffe115" stroke="none" /><path d="M 98.73552117531835 120.96189622390904 l -1.7695517910064285 29.334742727105677 a50.388066360455454,50.388066360455454 0 0,0 -0.8653244353296534,-0.05967783938132424 l 2.274238987115012 -29.29993654320807" fill="#adff20" stroke="none" /><path d="M 98.01472825383883 120.90594882070398 l -2.253446185013029 23.7299657868945 a44.83672158573685,44.83672158573685 0 0,0 -0.7677058836810164,-0.07957585380350654 l 2.661584665299639 -23.68766056463523" fill="#f2ff19" stroke="none" /><path d="M 97.2962882734958 120.8252237178851 l -3.02682864843329 23.31401796330865 a44.50968152188487,44.50968152188487 0 0,0 -0.7589354461127042,-0.1051815373956815 l 3.427692685732825 -23.258461860420365" fill="#f7ff19" stroke="none" /><path d="M 96.93821686468263 120.77559828337769 l -3.4281230874203517 23.261382332630625 a44.51263353874518,44.51263353874518 0 0,0 -0.7570626817322132,-0.11823762110615216 l 3.8280216327610823 -23.198926404177367" fill="#f7ff19" stroke="none" /><path d="M 95.86986931433489 120.58985236759428 l -4.6160901166126935 23.012495548009703 a44.470901970564654,44.470901970564654 0 0,0 -0.7492468969105945,-0.15701197203874492 l 5.011528474952675 -22.929627595244416" fill="#f7ff18" stroke="none" /><path d="M 95.51606077576429 120.51570834832081 l -5.638619227068454 25.79880363331379 a47.407807476164145,47.407807476164145 0 0,0 -0.7957284236576317,-0.18110519855514526 l 6.081867800118949 -25.69792170118096" fill="#d2ff1c" stroke="none" /><path d="M 95.16358092515715 120.4354850818985 l -5.421987341768472 22.90970648372781 a44.54256990867517,44.54256990867517 0 0,0 -0.744596326454111,-0.18300366110380226 l 5.815536952965793 -22.81298156430998" fill="#f6ff19" stroke="none" /><path d="M 94.46302465271185 120.25689768951611 l -3.8769260888545007 14.18364543923884 a35.703957081156126,35.703957081156126 0 0,0 -0.591442563993561,-0.1671475763446716 l 4.120499820952675 -14.114809069555648" fill="#ff900d" stroke="none" /><path d="M 93.08242187328487 119.8279376855182 l -6.247167872732495 17.906332682119082 a39.96480573464508,39.96480573464508 0 0,0 -0.64758293593965,-0.23220020093068774 l 6.554470369301872 -17.796144940148437" fill="#ffcb12" stroke="none" /><path d="M 92.06813273071674 119.44442032107085 l -7.784356845297768 19.082808787703318 a41.60945905944601,41.60945905944601 0 0,0 -0.660854388152244,-0.2762371878445168 l 8.111682692947474 -18.94598655683883" fill="#ffe115" stroke="none" /><path d="M 91.7346041902142 119.30500536409082 l -6.93210623877234 16.19091828191778 a38.61249362575799,38.61249362575799 0 0,0 -0.6087523018761021,-0.2668591195614049 l 7.2097792153061855 -16.069194609061924" fill="#ffb911" stroke="none" /><path d="M 91.07499286063937 119.00905698771935 l -8.730447448492287 18.59467118460677 a41.5422128582714,41.5422128582714 0 0,0 -0.6446705197022907,-0.3094810260200691 l 9.04923063619482 -18.441635882087137" fill="#ffe115" stroke="none" /><path d="M 90.7491055286396 118.85261126421891 l -12.927761315303938 26.345783031961442 a50.346674363420746,50.346674363420746 0 0,0 -0.7747300515099027,-0.388465730959112 l 13.3793452744966 -26.119349460093026" fill="#aeff20" stroke="none" /><path d="M 90.42595943632237 118.69057910512821 l -8.133642969902029 15.878614293590184 a38.84058686945144,38.84058686945144 0 0,0 -0.5924282535950113,-0.30993046239248484 l 8.405762126023536 -15.736254412252983" fill="#ffbc11" stroke="none" /><path d="M 90.10565033884886 118.52300852407294 l -8.31182425765664 15.560395260708626 a38.64121093234965,38.64121093234965 0 0,0 -0.5839923272238038,-0.3184391799602782 l 8.578439396749085 -15.415015428988582" fill="#ffb911" stroke="none" /><line stroke="#e1ed5e" stroke-width="0.3" x1="58.666819895761336" x2="56.23545636021788" y1="174.27360380694188" y2="178.64263932499728" /><path d="M 58.180547188652646 175.14741091055294 a86.0,86.0 0 0,1 -31.652253787137756,-30.449443065178592" fill="none" id="id92" stroke="none" /><text fill="#e1ed5e" style="font-size:6.75px; font-family:Arial;" text-anchor="middle"><textPath startOffset="22.20632615414155" xlink:href="#id92">August</textPath></text><path d="M 89.7882731507175 118.34994917583269 l -8.643855452842972 15.532564725236217 a38.77573638512047,38.77573638512047 0 0,0 -0.5804381212476585,-0.3295879137488505 l 8.909942341011838 -15.381473645692735" fill="#ffbb11" stroke="none" /><path d="M 89.4739219176387 118.17145234162733 l -9.002368253415813 15.541030989770832 a38.96013024438092,38.96013024438092 0 0,0 -0.5774116324271521,-0.34114497014086825 l 9.268547756871348 -15.383767447336215" fill="#ffbe11" stroke="none" /><path d="M 89.1626897886671 117.98757091392108 l -9.245562651943446 15.345617187097083 a38.91559085277237,38.91559085277237 0 0,0 -0.570800544265613,-0.3506323147396478 l 9.508342396141368 -15.184196405529057" fill="#ffbd11" stroke="none" /><path d="M 88.8546689885994 117.79835938074946 l -9.47670909973589 15.133680115142838 a38.85598748847251,38.85598748847251 0 0,0 -0.5638155470083157,-0.359853758110033 l 9.735806448791129 -14.968311928209" fill="#ffbc11" stroke="none" /><path d="M 88.54995079064634 117.60387380957326 l -9.731502915818096 14.961695463073573 a38.84809457982371,38.84809457982371 0 0,0 -0.5574244667925636,-0.36943054116297247 l 9.987602081350621 -14.791966900819283" fill="#ffbc11" stroke="none" /><path d="M 88.24862548938628 117.40417183066458 l -9.87919488911737 14.631412286582172 a38.654368217444386,38.654368217444386 0 0,0 -0.5482351168008367,-0.3770811124103038 l 10.129586890541097 -14.459190384806767" fill="#ffb911" stroke="none" /><path d="M 87.95078237400918 117.19931262002967 l -10.333851402967808 14.750761946999049 a39.01037097995638,39.01037097995638 0 0,0 -0.546651719518,-0.3900214873727423 l 10.586230450334694 -14.570696197782087" fill="#ffbe11" stroke="none" /><path d="M 87.65650970185807 116.9893568818739 l -10.465308598003928 14.404261546444136 a38.80464643709119,38.80464643709119 0 0,0 -0.5370101653434481,-0.3972672822212126 l 10.71170373376594 -14.221984315483157" fill="#ffbb11" stroke="none" /><path d="M 86.24171649860922 115.8653595955263 l -11.559181176850963 13.32946555302782 a38.64339313762012,38.64339313762012 0 0,0 -0.4987898675994774,-0.4401240648530607 l 11.78691339735703 -13.128518346402469" fill="#ffb911" stroke="none" /><path d="M 85.97065885151581 115.62618273729859 l -19.63570394655173 21.870670532341002 a50.391956365829685,50.391956365829685 0 0,0 -0.6404588503469784,-0.5850439746591866 l 20.00926234636556 -21.52943379109524" fill="#adff20" stroke="none" /><path d="M 85.70375840098266 115.38237550388516 l -14.240635182148079 15.322544479151547 a41.91831875908318,41.91831875908318 0 0,0 -0.5243066771711594,-0.4957646888380742 l 14.502277693710054 -15.075145153567542" fill="#ffe615" stroke="none" /><path d="M 84.9287848128048 114.62390073753433 l -15.351376427503872 14.895746777677099 a42.39037237365444,42.39037237365444 0 0,0 -0.5036247710396768,-0.5280485589697997 l 15.605507749922507 -14.629291102124798" fill="#ffec16" stroke="none" /><path d="M 84.67929136418377 114.36230785411682 l -21.646218807734755 20.2921200177042 a50.67033743463733,50.67033743463733 0 0,0 -0.5910419601277569,-0.6414593155138483 l 21.992307175858244 -19.916509447389007" fill="#aaff21" stroke="none" /><path d="M 84.43433777217949 114.09645910891817 l -21.783664817984043 19.72756030901536 a50.38885313597851,50.38885313597851 0 0,0 -0.5766911870286672,-0.6479186620880123 l 22.120014854661047 -19.349667477186483" fill="#adff20" stroke="none" /><path d="M 84.19399662182784 113.82643327865904 l -13.257557083081318 11.597158627738759 a38.61411104904517,38.61411104904517 0 0,0 -0.4333192621415833,-0.504048196860146 l 13.45521885479368 -11.367233331717083" fill="#ffb911" stroke="none" /><path d="M 83.95833913139862 113.55231037782056 l -13.549679350746667 11.44703541518485 a38.737768470259915,38.737768470259915 0 0,0 -0.42593836642766947,-0.513070201168394 l 13.744713717067873 -11.212103956902695" fill="#ffbb11" stroke="none" /><path d="M 83.50135304334701 112.99209946851258 l -16.24554643543939 12.792791782507855 a41.67784564640664,41.67784564640664 0 0,0 -0.4389931109534645,-0.5674577727742297 l 16.463346363610924 -12.511256015620372" fill="#ffe215" stroke="none" /><path d="M 83.28015986056508 112.70617746262583 l -14.1614092024209 10.76190782604599 a38.786628985131536,38.786628985131536 0 0,0 -0.3993891200434544,-0.535046993535408 l 14.34455958915944 -10.516547953001274" fill="#ffbb11" stroke="none" /><path d="M 83.06392112726016 112.41649034213515 l -14.269813996108205 10.461749085966494 a38.69394770595998,38.69394770595998 0 0,0 -0.3891877937266787,-0.5405478061599849 l 14.44778158221049 -10.21456767435537" fill="#ffba11" stroke="none" /><path d="M 82.85270091963577 112.12312394758628 l -19.77272186124486 13.97929532701244 a45.215309777947965,45.215309777947965 0 0,0 -0.4438401400004425,-0.6393848248325075 l 20.01042290840744 -13.63686923999292" fill="#eeff19" stroke="none" /><path d="M 82.6465618267979 111.8261652097733 l -14.560139969393802 9.922565144547468 a38.61973254553335,38.61973254553335 0 0,0 -0.3696403005485882,-0.5525620958655638 l 14.72878337535312 -9.670466134476083" fill="#ffb911" stroke="none" /><path d="M 82.44556493220864 111.52570212397912 l -14.766367546293946 9.695142745097149 a38.66469369561932,38.66469369561932 0 0,0 -0.3604932849818317,-0.5594935837977173 l 14.931065694652823 -9.439527561377982" fill="#ffba11" stroke="none" /><line stroke="#e1ed5e" stroke-width="0.3" x1="26.63291911575756" x2="22.317208475507996" y1="142.92168965132927" y2="145.44649492493687" /><path d="M 25.769776987707644 143.4266507060508 a86.0,86.0 0 0,1 -11.730757126820373,-40.83630448921669" fill="none" id="id93" stroke="none" /><text fill="#e1ed5e" style="font-size:6.75px; font-family:Arial;" text-anchor="middle"><textPath startOffset="21.46611528233685" xlink:href="#id93">September</textPath></text><line stroke="#e1ed5e" stroke-width="0.3" x1="15.007084014347285" x2="10.007500721073583" y1="101.09737516637583" y2="101.16192664675087" /><path d="M 14.007167355692545 101.11028546245083 a86.0,86.0 0 0,1 10.666146001902534,-42.60595125391555" fill="none" id="id94" stroke="none" /><text fill="#e1ed5e" style="font-size:6.75px; font-family:Arial;" text-anchor="middle"><textPath startOffset="22.20632615414155" xlink:href="#id94">October</textPath></text><line stroke="#e1ed5e" stroke-width="0.3" x1="26.266209847984243" x2="21.928928074336255" y1="57.711370442889674" y2="55.22380399835377" /><path d="M 25.398753493254645 57.213857153982495 a86.0,86.0 0 0,1 29.58750427330803,-30.492523968695096" fill="none" id="id95" stroke="none" /><text fill="#e1ed5e" style="font-size:6.75px; font-family:Arial;" text-anchor="middle"><textPath startOffset="21.46611528233685" xlink:href="#id95">November</textPath></text><line stroke="#e1ed5e" stroke-width="0.3" x1="56.762969772571076" x2="54.21961505331055" y1="26.818313649435495" y2="22.513508569990535" /><path d="M 56.25429882871897 25.957352633546506 a86.0,86.0 0 0,1 42.265352541879196,-11.944610805530505" fill="none" id="id96" stroke="none" /><text fill="#e1ed5e" style="font-size:6.75px; font-family:Arial;" text-anchor="middle"><textPath startOffset="22.20632615414155" xlink:href="#id96">December</textPath></text></svg>