<?xml version="1.0" encoding="utf-8" ?>
<svg baseProfile="full" height="200mm" version="1.1" viewBox="0,0,200,200" width="200mm" xmlns="http://www.w3.org/2000/svg" xmlns:ev="http://www.w3.org/2001/xml-events" xmlns:xlink="http://www.w3.org/1999/xlink"><defs /><rect fill="#1a1a1a" height="200" width="200" x="0" y="0" /><rect fill="#1a1a1a" height="200" width="180" x="10" y="0" /><text alignment-baseline="middle" fill="#e1ed5e" style="dominant-baseline: central; font-size:9.0px; font-family:Arial;" text-anchor="middle" x="100.0" y="100.0">2022</text><line stroke="#e1ed5e" stroke-width="0.3" x1="100.0" x2="100.0" y1="15.0" y2="10.0" /><path d="M 100.0 14.0 a86.0,86.0 0 0,1 42.46469731375804,11.215312516191453" fill="none" id="id49" stroke="none" /><text fill="#e1ed5e" style="font-size:6.75px; font-family:Arial;" text-anchor="middle"><textPath startOffset="22.20632615414155" xlink:href="#id49">January</textPath></text><path d="M 100.0 79.0 l 0.0 -46.75012822305601 a67.75012822305601,67.75012822305601 0 0,0 1.1662070867069303,0.010037912580003834 l -0.8047266074344019 46.743201687084564" fill="red" stroke="none" /><path d="M 100.36148047927253 79.00311137660856 l 0.7599829940147986 -44.1442323887419 a65.15077380230657,65.15077380230657 0 0,0 1.1211311594570277,0.02895551018966844 l -1.5197407886666943 44.12461008640987" fill="red" stroke="none" /><path d="M 100.72285384407766 79.0124445844662 l 1.0091424395199535 -29.299744402156843 a50.31711770442247,50.31711770442247 0 0,0 0.8653565879379642,0.037264075002545693 l -1.5133398598472494 29.2780326006301" fill="red" stroke="none" /><path d="M 101.08401301168833 79.027996857942 l 0.4438634709118482 -8.58726418063001 a29.598727864558867,29.598727864558867 0 0,0 0.5085878247429195,0.030679406481597154 l -0.5916133444943796 8.578351504768108" fill="red" stroke="none" /><path d="M 101.44485096284872 79.0497635885617 l 0.5717685742621779 -8.290603744905328 a29.310296610684365,29.310296610684365 0 0,0 0.5030342119614459,0.03904513632677296 l -0.7143929755859649 8.279533346390089" fill="red" stroke="none" /><path d="M 101.80526077348638 79.07773832637324 l 0.7748596146633613 -8.980317888923983 a30.013684973891884,30.013684973891884 0 0,0 0.5143414793110852,0.04884292100360632 l -0.9293262210646906 8.965649423405198" fill="red" stroke="none" /><path d="M 102.16513564639614 79.11191278185805 l 0.8567509549396084 -8.265481518810446 a29.309765757022696,29.309765757022696 0 0,0 0.5013830367739541,0.05633622613248832 l -0.9989006952232877 8.249509339207357" fill="red" stroke="none" /><path d="M 102.52436894288641 79.15227682838746 l 5.151286601745894 -42.54235394293854 a63.853093618309344,63.853093618309344 0 0,0 1.0900187429225499,0.14151571657873707 l -5.88282007317629 42.44737990319567" fill="red" stroke="none" /><path d="M 102.88285421437855 79.19881850522331 l 5.48207997124486 -39.55584707752072 a60.93392340894303,60.93392340894303 0 0,0 1.037707674058214,0.15293113644592152 l -6.16215662573173 39.455621456913825" fill="red" stroke="none" /><path d="M 103.2404852339499 79.25152402106235 l 1.0739118700677872 -6.876141389614478 a27.95949761941491,27.95949761941491 0 0,0 0.474873152946426,0.07835813910634454 l -1.1921142291530884 6.856636987568509" fill="red" stroke="none" /><path d="M 103.59715602781102 79.31037775812273 l 8.874189589639256 -51.041330677047135 a72.80703309548362,72.80703309548362 0 0,0 1.2328826755607876,0.22530142857099297 l -9.751467386302945 50.8810137671254" fill="red" stroke="none" /><path d="M 103.95276090670814 79.375362276772 l 2.5865250626616993 -13.495919343088731 a34.74154106404859,34.74154106404859 0 0,0 0.5863604352369547,0.11761838711595568 l -2.8184519073657794 13.449396999895567" fill="red" stroke="none" /><path d="M 104.307194497241 79.44645832069477 l 2.8625926319103074 -13.660032535918337 a34.956751966650934,34.956751966650934 0 0,0 0.5878681569992023,0.1284852096302897 l -3.0973035130630375 13.608733828192177" fill="red" stroke="none" /><path d="M 104.66035177308747 79.52364482259891 l 2.129920342301573 -9.35830760252786 a30.597628970119693,30.597628970119693 0 0,0 0.5125486241332088,0.1213036995504499 l -2.290692653397305 9.320257990836543" fill="red" stroke="none" /><path d="M 105.01212808612495 79.60689891045804 l 11.868900818926075 -48.291601903023015 a70.72876050143981,70.72876050143981 0 0,0 1.1797931484752406,0.30075554273658567 l -12.698402856086341 48.08014336411756" fill="red" stroke="none" /><path d="M 105.36241919743992 79.69619591428918 l 10.635023278396483 -40.267539918293615 a62.648271167041315,62.648271167041315 0 0,0 1.0402659234491733,0.28434397315157517 l -11.326587091069367 40.078509404315746" fill="red" stroke="none" /><path d="M 105.71112130821622 79.79150937346287 l 1.7467091512327566 -6.180634870982751 a27.422712843293574,27.422712843293574 0 0,0 0.45314045777068007,0.13228412555277005 l -1.8528398267268638 6.149652416511278" fill="red" stroke="none" /><path d="M 106.0581310904928 79.89281104454417 l 2.5832331303628604 -8.57385815729758 a29.954559570814332,29.954559570814332 0 0,0 0.4924167675168218,0.15299628662947845 l -2.7304352705904007 8.528121735785582" fill="red" stroke="none" /><path d="M 106.74666289553966 80.11325718540242 l 2.7199936808514886 -8.017565962008462 a29.46638822515414,29.46638822515414 0 0,0 0.47892421792872203,0.1670872557118032 l -2.8575999028434844 7.96955785312445" fill="red" stroke="none" /><path d="M 107.08798089147638 80.2323363322302 l 16.184467165243277 -45.136846227861874 a68.95072329819943,68.95072329819943 0 0,0 1.1137763806435161,0.4102132405365405 l -16.95902587165937 44.851569719519006" fill="red" stroke="none" /><path d="M 107.4271985657038 80.35727306442388 l 17.07953883301429 -45.17029058999947 a69.29146714206804,69.29146714206804 0 0,0 1.1120186166071113,0.4314459469978018 l -17.85454061462107 44.86960193911112" fill="red" stroke="none" /><path d="M 107.76421540070413 80.48803036053334 l 14.740787268673104 -37.044540730039756 a60.86964769345033,60.86964769345033 0 0,0 0.9701929969271348,0.39576608354197357 l -15.376264135188627 36.7853137603142" fill="red" stroke="none" /><path d="M 108.09893153111575 80.62456947434976 l 3.203507333349844 -7.663891654999581 a29.306485089037267,29.306485089037267 0 0,0 0.46376290462681063,0.19855907296284067 l -3.33495399576697 7.6076130540739495" fill="red" stroke="none" /><path d="M 108.43124777332544 80.76684994638697 l 3.4236628314836977 -7.809973415706187 a29.5274352496938,29.5274352496938 0 0,0 0.4637464829125394,0.20806952899734346 l -3.557591432863017 7.749883556192312" fill="red" stroke="none" /><path d="M 108.76106565485865 80.91482961587045 l 2.4709943064082585 -5.382832319018446 a26.922895967090046,26.922895967090046 0 0,0 0.4195122940640974,0.19696664710882258 l -2.5632848117719536 5.33950068926962" fill="red" stroke="none" /><path d="M 109.08828744355905 81.06846463323043 l 7.995185359426956 -16.654527636352494 a39.47420579406931,39.47420579406931 0 0,0 0.6100244758151803,0.29933636097529787 l -8.280681102252569 16.514436115242365" fill="red" stroke="none" /><path d="M 109.73455568895987 81.39251694778311 l 16.615582972713305 -31.760481777109398 a56.844187816677035,56.844187816677035 0 0,0 0.863097660067738,0.46103687904332885 l -17.159825679309353 31.469766171564313" fill="red" stroke="none" /><path d="M 110.05341064243156 81.56283822128135 l 20.370061987797524 -37.35708623364402 a63.549868592683445,63.549868592683445 0 0,0 0.9558986967174453,0.5319565897936984 l -21.010084773587003 37.00091424629014" fill="red" stroke="none" /><path d="M 110.36928655335952 81.73862282372117 l 11.79640530791558 -20.77467967960737 a44.89021753728731,44.89021753728731 0 0,0 0.6686574631431283,0.38732956150536907 l -12.152259503524036 20.568545960711955" fill="red" stroke="none" /><line stroke="#e1ed5e" stroke-width="0.3" x1="143.23703022742887" x2="145.7803849466894" y1="26.81831364943548" y2="22.513508569990506" /><path d="M 143.74570117128098 25.957352633546492 a86.0,86.0 0 0,1 28.547481713284135,27.462654790039103" fill="none" id="id50" stroke="none" /><text fill="#e1ed5e" style="font-size:6.75px; font-family:Arial;" text-anchor="middle"><textPath startOffset="19.985693538727396" xlink:href="#id50">February</textPath></text><path d="M 110.99172775467656 82.1063720568725 l 25.03748449227507 -40.75896366210334 a68.83480687229306,68.83480687229306 0 0,0 1.0042698321821288,0.6288736767805576 l -25.735373476829462 40.32194564399984" fill="red" stroke="none" /><path d="M 111.2981086023043 82.29822771554956 l 31.29498866594648 -49.03269941094887 a79.16856476763188,79.16856476763188 0 0,0 1.142413602186921,0.7430575851641109 l -32.13436929391768 48.486742901625234" fill="red" stroke="none" /><path d="M 111.60114157652 82.49532879139004 l 22.177623238442074 -33.46325880231246 a61.14519475823761,61.14519475823761 0 0,0 0.8723244432936054,0.5889973580842508 l -22.75035237614222 33.07654953192954" fill="red" stroke="none" /><path d="M 111.90073688211348 82.69761687909136 l 13.437005329850287 -19.535951136285632 a44.71089410026043,44.71089410026043 0 0,0 0.6303573078314367,0.44160557761764485 l -13.771293777265374 19.301760715904052" fill="red" stroke="none" /><path d="M 112.19680574252982 82.90503203632743 l 2.2223523886125096 -3.114835448665767 a24.826362503924138,24.826362503924138 0 0,0 0.345742190103395,0.25119640483582917 l -2.2756398950696934 3.076119809013263" fill="red" stroke="none" /><path d="M 112.48926042617603 83.11751280151076 l 31.54600214417223 -42.64263528737756 a74.04285621582247,74.04285621582247 0 0,0 1.018102834239703,0.766813947264059 l -32.275351132170314 42.09330475060765" fill="red" stroke="none" /><path d="M 112.77801427241765 83.33499621200491 l 14.624066910629322 -19.072613730569934 a45.03389122722511,45.03389122722511 0 0,0 0.6111044244881184,0.47697669649073937 l -14.950203890276871 18.81805864485597" fill="red" stroke="none" /><path d="M 113.06298171725822 83.55741782278167 l 6.257754763428519 -7.876735125994581 a31.05994288871906,31.05994288871906 0 0,0 0.41575449460952046,0.3361778875204856 l -6.392412656602531 7.767851141209966" fill="red" stroke="none" /><path d="M 113.34407831869373 83.78471172551755 l 9.285300843394086 -11.283194409913285 a35.612572937174114,35.612572937174114 0 0,0 0.46998838947769117,0.39360176004506203 l -9.478146769830895 11.121691492474403" fill="red" stroke="none" /><path d="M 113.6212207817346 84.01681056812373 l 5.324332007863588 -6.247590318336264 a29.208586730718615,29.208586730718615 0 0,0 0.37985934137729,0.3294102776462784 l -5.431085147887642 6.155015047270314" fill="red" stroke="none" /><path d="M 113.89432698308785 84.25364557470407 l 28.299685526162808 -32.07185774178062 a63.7723772999435,63.7723772999435 0 0,0 0.8168604185032241,0.7333853490987957 l -28.847556932262023 31.579973383912524" fill="red" stroke="none" /><path d="M 114.16331599549186 84.49514656593476 l 26.846058974394634 -29.388895214422238 a60.804749017937105,60.804749017937105 0 0,0 0.7666961032277513,0.7125604703903251 l -27.34796296141723 28.922430157957272" fill="red" stroke="none" /><path d="M 114.42810811169701 84.74124197986012 l 12.606205541012839 -13.331965522667335 a39.348234869868364,39.348234869868364 0 0,0 0.4881368818035641,0.4695872935446841 l -12.833825666428822 13.11299514236035" fill="red" stroke="none" /><path d="M 114.68862486808459 84.99185889309783 l 11.123464278112325 -11.365428893635093 a36.9029692662319,36.9029692662319 0 0,0 0.45015331397781827,0.44822021258934536 l -11.317453392257466 11.17227283039563" fill="red" stroke="none" /><path d="M 114.94478906791727 85.2469230424477 l 31.613447025553278 -31.20790897361846 a65.4223323942262,65.4223323942262 0 0,0 0.7842447150247844,0.808233115889709 l -32.145956004281175 30.659111662178635" fill="red" stroke="none" /><path d="M 115.19652480421416 85.50635884689758 l 33.010689428445446 -31.483848640165533 a66.61730309584438,66.61730309584438 0 0,0 0.7842844879757608,0.8366200091180191 l -33.54774123839167 30.91095921416946" fill="red" stroke="none" /><path d="M 115.4437574822437 85.77008943001954 l 6.477944105854088 -5.968791300279057 a29.808531627056617,29.808531627056617 0 0,0 0.3444395125334913,0.38033871262177693 l -6.579727259003615 5.856399800387731" fill="red" stroke="none" /><path d="M 115.9244219780498 86.31012108654704 l 29.989737250281006 -25.781524263080076 a60.54834173095857,60.54834173095857 0 0,0 0.6726326427041763,0.7961848897048904 l -30.4290805064723 25.26148042374608" fill="red" stroke="none" /><path d="M 116.15771136456269 86.58626213691792 l 7.258096589317707 -6.02549475215686 a30.433268421291487,30.433268421291487 0 0,0 0.3311451297765958,0.4059447740652203 l -7.360740211170712 5.8996658084835385" fill="red" stroke="none" /><path d="M 116.60985879189232 87.15038557335679 l 25.07330573559057 -19.39705298764765 a52.70041521993063,52.70041521993063 0 0,0 0.548897560418007,0.7222848484612822 l -25.40347923623269 18.962583363305335" fill="red" stroke="none" /><path d="M 116.82858285166822 87.43820079747576 l 7.022499134976497 -5.241987683159562 a29.763214534127428,29.763214534127428 0 0,0 0.3029291294152791,0.41319499208383775 l -7.111690876905403 5.12033024740423" fill="red" stroke="none" /><path d="M 117.04232023915458 87.72973835380427 l 6.760965629413246 -4.867812368836951 a29.331041561552148,29.331041561552148 0 0,0 0.29147705818589265,0.412273627935094 l -6.843755307403021 4.7507122405700635" fill="red" stroke="none" /><path d="M 117.2510076193507 88.02491185347247 l 22.593632280102348 -15.683764338551658 a48.50368490649403,48.50368490649403 0 0,0 0.47019826532737685,0.6899579349493927 l -22.86025501109846 15.292528380331857" fill="red" stroke="none" /><path d="M 117.45458315368197 88.32363383020206 l 32.85748898167297 -21.98024836182835 a60.53158104893376,60.53158104893376 0 0,0 0.5718890165339489,0.8710262072313878 l -33.23097463356485 21.41140409061929" fill="red" stroke="none" /><path d="M 117.65298651832404 88.62581576622439 l 5.609369698093109 -3.61423288434747 a27.672908492717685,27.672908492717685 0 0,0 0.25455439297161825,0.40264391831140045 l -5.670751687310682 3.517141318321863" fill="red" stroke="none" /><line stroke="#e1ed5e" stroke-width="0.3" x1="172.23445277983987" x2="176.4835382374775" y1="55.19839476539836" y2="52.563006222186495" /><path d="M 173.08426987136738 54.67131705675599 a86.0,86.0 0 0,1 12.851231095245387,41.99856678651699" fill="none" id="id51" stroke="none" /><text fill="#e1ed5e" style="font-size:6.75px; font-family:Arial;" text-anchor="middle"><textPath startOffset="22.20632615414155" xlink:href="#id51">March</textPath></text><path d="M 117.84615892207809 88.93136811851018 l 10.495726076125901 -6.509710508173791 a33.35057070605636,33.35057070605636 0 0,0 0.29838311208601165,0.4904633817126697 l -10.606224986498137 6.32807935325404" fill="red" stroke="none" /><path d="M 118.03404312379186 89.2402003453031 l 32.58954495120566 -19.44416857083472 a58.94936272900628,58.94936272900628 0 0,0 0.5124112315390268,0.8758768952413296 l -32.919415857215014 18.880312263239496" fill="red" stroke="none" /><path d="M 118.21658344932153 89.55222093294921 l 39.653382281523655 -22.742452144839252 a66.71225061102284,66.71225061102284 0 0,0 0.5627412108536626,1.0010538217569485 l -40.03898113366975 22.05651481314751" fill="red" stroke="none" /><path d="M 118.3937258080291 89.86733742301442 l 14.229760831080162 -7.8388340979619535 a37.24602761677802,37.24602761677802 0 0,0 0.3045162513374367,0.5642223657248339 l -14.362585181636064 7.5927307489046605" fill="red" stroke="none" /><path d="M 118.56541770881063 90.18545643968196 l 34.8618214232213 -18.42958075690686 a60.433438092815635,60.433438092815635 0 0,0 0.4782603491775261,0.9238467673992657 l -35.17389120555894 17.82676126724725" fill="red" stroke="none" /><path d="M 118.73160827565052 90.50648371742162 l 48.91089427796079 -24.78892171938533 a75.83398780938398,75.83398780938398 0 0,0 0.5800938485424214,1.1694338008550729 l -49.330348139456625 23.943328330031303" fill="red" stroke="none" /><path d="M 118.89224826269711 90.83032412892265 l 9.143778835399896 -4.438089474135678 a31.16392294201117,31.16392294201117 0 0,0 0.230081471424083,0.4846102569098815 l -9.218818500665735 4.280036801585256" fill="red" stroke="none" /><path d="M 119.04729006885535 91.15688171328212 l 36.88057041030375 -17.122606178672154 a61.66153115832302,61.66153115832302 0 0,0 0.4386709470259927,0.9665532837342536 l -37.169843674293084 16.485230886095838" fill="red" stroke="none" /><path d="M 119.196687751892 91.48605970444005 l 8.35730832852179 -3.7065573530312577 a30.14238316355696,30.14238316355696 0 0,0 0.206273356575462,0.47610734664524884 l -8.419872394939933 3.562150861799406" fill="red" stroke="none" /><path d="M 119.34039704204932 91.81776055985345 l 43.95442758055747 -18.59556709910202 a68.72616493781662,68.72616493781662 0 0,0 0.45155810975718585,1.0934837800450055 l -44.26800737720085 17.836208748603713" fill="red" stroke="none" /><path d="M 119.47837535516314 92.15188598940014 l 30.703305769172704 -12.370797860967572 a54.101806972916656,54.101806972916656 0 0,0 0.3406003735654656,0.8667907996654286 l -30.911699692619873 11.84045805640636" fill="red" stroke="none" /><path d="M 119.61058180528143 92.48833698450437 l 48.382328092885466 -18.532430508564794 a72.81023694447263,72.81023694447263 0 0,0 0.43823237428051365,1.1742448876430922 l -48.694165055667604 17.696862483892367" fill="red" stroke="none" /><path d="M 119.7369772167798 92.82701384747503 l 36.88984351152205 -13.406831946484525 a60.25052480089742,60.25052480089742 0 0,0 0.345857864016207,0.9777867552946652 l -37.115154456348066 12.769847564763246" fill="red" stroke="none" /><path d="M 119.85752413597 93.16781622104841 l 16.95038447081176 -5.8319527165371845 a38.92560197584064,38.92560197584064 0 0,0 0.21253880305299155,0.6354639686789757 l -17.04826056763652 5.539315644935895" fill="red" stroke="none" /><path d="M 119.97218684219823 93.5106431181261 l 30.725970600167788 -9.983473033867728 a53.30719738913203,53.30719738913203 0 0,0 0.27604120913113833,0.8751260680084424 l -30.89326729306713 9.453096799432867" fill="red" stroke="none" /><path d="M 120.08093135843002 93.85539295169968 l 19.36845133090268 -5.9265937639174755 a41.25491102424425,41.25491102424425 0 0,0 0.20194102707017766,0.680844753018556 l -19.46759825508456 5.59231962415239" fill="red" stroke="none" /><path d="M 120.18372546131832 94.20196356495316 l 31.016626942601132 -8.909927627092829 a53.27100799814785,53.27100799814785 0 0,0 0.24558753902313307,0.8835090448206431 l -31.16540125219063 8.374707278853235" fill="red" stroke="none" /><path d="M 120.28053869075195 94.5502522615342 l 31.146445875906895 -8.369613626233386 a53.25138017129235,53.25138017129235 0 0,0 0.23025812631058926,0.8872784888758221 l -31.285900334087785 7.8322387118087144" fill="red" stroke="none" /><path d="M 120.37134235888165 94.90015583598534 l 37.5634181738477 -9.40377789443109 a59.72262160018537,59.72262160018537 0 0,0 0.24107235210144823,0.9994005349677185 l -37.71972332620997 8.755792127803966" fill="red" stroke="none" /><path d="M 120.45610955862082 95.25157060432595 l 22.76847512146993 -5.285193465142468 a44.37384712282041,44.37384712282041 0 0,0 0.16630813518473575,0.7455267602849317 l -22.856077643656704 4.892488535307573" fill="red" stroke="none" /><path d="M 120.53481517161879 95.60439243477599 l 4.30938656947779 -0.9224515559532106 a25.40700913072302,25.40700913072302 0 0,0 0.08786070913177181,0.4284400208222616 l -4.324626574524559 0.8481358789675372" fill="red" stroke="none" /><path d="M 120.67395015179393 96.31383870115 l 36.72840166137892 -6.548666886528449 a58.307647025647384,58.307647025647384 0 0,0 0.1676709649054643,0.9896035261811663 l -36.835684487804606 5.9154775720314445" fill="red" stroke="none" /><path d="M 120.73433829027371 96.67025291283417 l 8.681767468817132 -1.3942132869658748 a29.793003870814776,29.793003870814776 0 0,0 0.0769568988919918,0.5070498108540635 l -8.704480261148424 1.244564363719729" fill="red" stroke="none" /><path d="M 120.78858239683441 97.02765380044208 l 40.024955002161526 -5.722757839720093 a61.43200440513842,61.43200440513842 0 0,0 0.14066174084265176,1.048093351836373 l -40.11753274206202 5.032946145819056" fill="red" stroke="none" /><path d="M 120.91429891909075 98.10471618934814 l 12.599487936671991 -1.1417836955118 a33.651117194685995,33.651117194685995 0 0,0 0.047312695486846655,0.577334723602653 l -12.617275115978334 0.9247350547013781" fill="red" stroke="none" /><path d="M 120.94382443527127 98.46500227214037 l 40.62595685780519 -2.9775245520027087 a61.734923874607006,61.734923874607006 0 0,0 0.06855342567348735,1.060491152704446 l -40.671190874483095 2.2777743350452275" fill="red" stroke="none" /><path d="M 120.96714384426684 98.82574320788733 l 8.785574746937787 -0.49203272013732724 a29.79934201129361,29.79934201129361 0 0,0 0.024274248515676937,0.5123910204867029 l -8.79274260368696 0.3407305930276245" fill="red" stroke="none" /><path d="M 120.98425023603335 99.18683210126433 l 5.310321925047302 -0.20578211148023975 a26.314307596013176,26.314307596013176 0 0,0 0.0136437248235015,0.4527688040133651 l -5.313077344326448 0.11434316004187554" fill="red" stroke="none" /><line stroke="#e1ed5e" stroke-width="0.3" x1="184.98032266829074" x2="189.97916517819016" y1="98.17113171792111" y2="98.06355123074" /><path d="M 185.9800911702706 98.14961562048488 a86.0,86.0 0 0,1 -9.607161424134198,41.387399972396054" fill="none" id="id52" stroke="none" /><text fill="#e1ed5e" style="font-size:6.75px; font-family:Arial;" text-anchor="middle"><textPath startOffset="21.466115282336823" xlink:href="#id52">April</textPath></text><path d="M 120.99513854157772 99.54816195383933 l 4.115841958311831 -0.08857736209107975 a25.116794988200795,25.116794988200795 0 0,0 0.005581900163606229,0.43232431914110836 l -4.116756865593152 0.017716784889508674" fill="red" stroke="none" /><path d="M 120.99980553446 99.90962569577887 l 15.499813786052748 -0.06670465991568135 a36.49995731974657,36.49995731974657 0 0,0 -0.002703956311207337,0.628304219859925 l -15.498665532452037 -0.20010903814792838" fill="red" stroke="none" /><path d="M 120.99824983174949 100.27111621757518 l 39.34996083730236 0.5080619875190919 a60.3532405893135,60.3532405893135 0 0,0 -0.0223535105743021,1.0386797999546338 l -39.335385264043055 -1.1853316032638406" fill="red" stroke="none" /><path d="M 120.9904718944345 100.63252640178507 l 19.68011829267433 0.5930402362069049 a40.689051595630886,40.689051595630886 0 0,0 -0.027121901840294275,0.6998957730363301 l -19.666994257982832 -0.9317132562572412" fill="red" stroke="none" /><path d="M 120.9764740272857 100.99374915477107 l 19.85515525460805 0.9406272820898938 a40.87742362250202,40.87742362250202 0 0,0 -0.039346757034622704,0.7025627785094989 l -19.836022146685895 -1.282261776934816" fill="red" stroke="none" /><path d="M 120.95626037817324 101.35467743843564 l 13.776509501166386 0.8905561519488614 a34.80526364454883,34.80526364454883 0 0,0 -0.04379404009923794,0.5975348826272467 l -13.75913890240281 -1.1275641710728783" fill="red" stroke="none" /><path d="M 120.92983693683757 101.71520430193887 l 52.09195450816087 4.268946038062239 a73.26658229458081,73.26658229458081 0 0,0 -0.11382627746474205,1.256063486832708 l -52.01075363441905 -5.164990913443518" fill="red" stroke="none" /><path d="M 120.89721153311464 102.0752229133903 l 31.390774715925726 3.117298920783459 a52.54517855120683,52.54517855120683 0 0,0 -0.09712775707495915,0.899282401834481 l -31.332464657349714 -3.657177644502732" fill="red" stroke="none" /><path d="M 120.8583938346157 102.4346265915055 l 39.47640117852123 4.607751527189339 a60.74440368333469,60.74440368333469 0 0,0 -0.13016221368810765,1.037520910838644 l -39.39123745558627 -5.286590192315378" fill="red" stroke="none" /><path d="M 120.81339534386255 102.79330883721812 l 6.010660991491842 0.8066743646421571 a27.064550196445943,27.064550196445943 0 0,0 -0.06594206640999929,0.4611986588862706 l -5.995884874065242 -0.9100184955088371" fill="red" stroke="none" /><path d="M 120.70491114924044 103.5080841355445 l 7.863257200130974 1.3322910510773907 a28.975325274883307,28.975325274883307 0 0,0 -0.08755178443193193,0.4910369027017536 l -7.8391589733598535 -1.4674467045123625" fill="red" stroke="none" /><path d="M 120.64145759157962 103.86396538481128 l 46.44743314717619 8.694699640166764 a68.25422571362394,68.25422571362394 0 0,0 -0.2261167170281413,1.152964268643533 l -46.29088649717239 -9.492927635878242" fill="red" stroke="none" /><path d="M 120.5718875245553 104.21870165774334 l 8.006740664380303 1.6419519148947104 a29.17336541196266,29.17336541196266 0 0,0 -0.10511574940663039,0.49106578639291054 l -7.97729087624923 -1.77953152070379" fill="red" stroke="none" /><path d="M 120.41448212921028 104.9243191809786 l 38.45446785868465 9.275869574957044 a60.55739949322029,60.55739949322029 0 0,0 -0.2531549767247027,1.0112282914648856 l -38.289101567664886 -9.936425705819325" fill="red" stroke="none" /><path d="M 120.32669344350535 105.2749913415812 l 3.978448599398382 1.032449373680978 a25.11023174130963,25.11023174130963 0 0,0 -0.1121732925312391,0.4174385509978254 l -3.960087230525365 -1.1007788578543518" fill="red" stroke="none" /><path d="M 120.23288151984713 105.62410040840565 l 41.00518310541884 11.398142514881755 a63.55987187831375,63.55987187831375 0 0,0 -0.3020830100967552,1.0515905877146026 l -40.80290745843598 -12.10229057810094" fill="red" stroke="none" /><path d="M 120.13307415673323 105.97154293290107 l 34.83773653219208 10.332999211524132 a57.33784197488603,57.33784197488603 0 0,0 -0.2888004096770016,0.9438164487043138 l -34.65470935000895 -10.931142632780503" fill="red" stroke="none" /><path d="M 120.02730092923936 106.31721596034902 l 8.786393215349309 2.7714939546781507 a30.21313651671101,30.21313651671101 0 0,0 -0.16071626047717216,0.49463378902696614 l -8.73738470385589 -2.922326643682912" fill="red" stroke="none" /><path d="M 119.9155931802556 106.66101706037122 l 33.067875616697414 11.05996098832885 a55.86842604513039,55.86842604513039 0 0,0 -0.31288757922273086,0.9093977646505833 l -32.87259720653145 -11.627531456068734" fill="red" stroke="none" /><path d="M 119.79798401119884 107.00284435728193 l 32.53925043206651 11.509621694283922 a55.5148404346054,55.5148404346054 0 0,0 -0.32641599751618194,0.8981566350719187 l -32.3363101735451 -12.068026126361971" fill="red" stroke="none" /><path d="M 119.67450827220406 107.3425965602758 l 39.14589038169224 14.609385713168153 a62.78318902012611,62.78318902012611 0 0,0 -0.3865821659840211,1.0092440482026046 l -38.888613936114716 -15.281053328203901" fill="red" stroke="none" /><path d="M 119.54520255179757 107.68017299344265 l 14.826287091106826 5.825902771198119 a36.9298440672649,36.9298440672649 0 0,0 -0.23757739949379206,0.5896476219628688 l -14.72380707735564 -6.0802497610038015" fill="red" stroke="none" /><path d="M 119.41010516605496 108.01547362559984 l 39.739742799030644 16.410671532620647 a63.99485199282204,63.99485199282204 0 0,0 -0.42921962437773326,1.0145484026016163 l -39.45137219346061 -17.092294460888425" fill="red" stroke="none" /><path d="M 119.26925614724726 108.34839909993367 l 28.363677762801917 12.288554373678368 a51.911272779148284,51.911272779148284 0 0,0 -0.3622885632729035,0.8168650687929243 l -28.147948114797742 -12.77496777896398" fill="red" stroke="none" /><path d="M 119.12269723197855 108.67885076344098 l 18.13004721151806 8.228335792493457 a40.90990009532702,40.90990009532702 0 0,0 -0.29654881985977977,0.6387397757564564 l -17.98572377481845 -8.539195635528744" fill="red" stroke="none" /><path d="M 118.97047184881838 109.00673069616215 l 16.003904222853752 7.59827465395355 a38.7160584806889,38.7160584806889 0 0,0 -0.29100970228052453,0.59956618092449 l -15.870741263958514 -7.872629790843316" fill="red" stroke="none" /><path d="M 118.81262510543309 109.33194174019688 l 29.658161170869867 14.711834771426775 a54.106564400116405,54.106564400116405 0 0,0 -0.42105555845532966,0.8307825623835462 l -29.400526942628268 -15.220171545513015" fill="red" stroke="none" /><line stroke="#e1ed5e" stroke-width="0.3" x1="174.80103733775053" x2="179.2010983576182" y1="140.37084112569926" y2="142.7455964860345" /><path d="M 175.68104954172406 140.8457921977663 a86.0,86.0 0 0,1 -30.038265399797805,32.042727171017184" fill="none" id="id53" stroke="none" /><text fill="#e1ed5e" style="font-size:6.75px; font-family:Arial;" text-anchor="middle"><textPath startOffset="22.206326154141568" xlink:href="#id53">May</textPath></text><path d="M 118.48025628344425 109.97397251340804 l 21.059813550183037 11.366184443838026 a44.931274424481,44.931274424481 0 0,0 -0.37319401014464454,0.6774555299404467 l -20.861043130586882 -11.727010492176278" fill="red" stroke="none" /><path d="M 118.30583269289576 110.29060199501025 l 24.05684617703899 13.523527359624913 a48.59742089819697,48.59742089819697 0 0,0 -0.416197578127779,0.725675558864045 l -23.820496602758833 -13.935622764347272" fill="red" stroke="none" /><path d="M 117.94076556474637 110.91462005526583 l 20.390379083432066 12.404890954922116 a44.867318214863865,44.867318214863865 0 0,0 -0.40708622110482184,0.6563526074956126 l -20.173828222659278 -12.754039893783004" fill="red" stroke="none" /><path d="M 117.75023020441432 111.22182372390056 l 3.9114464656896653 2.4728447033057237 a25.627566788348208,25.627566788348208 0 0,0 -0.23894061622087642,0.37084114254996964 l -3.8683009860917386 -2.5398074457771465" fill="red" stroke="none" /><path d="M 117.55443506779139 111.5257021239791 l 30.15955231667058 19.801834399803536 a57.0792356008166,57.0792356008166 0 0,0 -0.5463213857759025,0.8166763458759582 l -29.814227825483957 -20.3180476598853" fill="red" stroke="none" /><path d="M 117.35343817320211 111.8261652097733 l 19.33226486551952 13.174712463135062 a44.39464710819308,44.39464710819308 0 0,0 -0.43578439436857214,0.6277799224238904 l -19.10261956398881 -13.505533647745972" fill="red" stroke="none" /><path d="M 117.14729908036423 112.12312394758627 l 25.234618214961923 17.840850792666252 a51.904399580983096,51.904399580983096 0 0,0 -0.522059907434044,0.7250955507760395 l -24.923778515152275 -18.272579948893423" fill="red" stroke="none" /><path d="M 116.93607887273984 112.41649034213515 l 7.669436806819678 5.622758889885049 a30.509767529628775,30.509767529628775 0 0,0 -0.31416159447781605,0.4208707953570648 l -7.571513945646769 -5.753942564751429" fill="red" stroke="none" /><path d="M 116.71984013943494 112.70617746262583 l 21.930874446848712 16.66628271014338 a48.54502193460492,48.54502193460492 0 0,0 -0.511325138568283,0.6609566689218279 l -21.640742491062362 -17.04131737317846" fill="red" stroke="none" /><path d="M 116.27256486870786 113.27417163493432 l 24.255654362118598 19.786291940956474 a52.30230210874788,52.30230210874788 0 0,0 -0.5750862272231546,0.692728407551568 l -23.9114721350019 -20.200881605621813" fill="red" stroke="none" /><path d="M 116.0416608686014 113.55231037782055 l 21.062912166586866 17.794362159910513 a48.57327680228464,48.57327680228464 0 0,0 -0.545078881578586,0.6340498828701108 l -20.753490775437502 -18.154289141942154" fill="red" stroke="none" /><path d="M 115.56566222782051 114.09645910891815 l 20.742144062639404 18.784346038788875 a48.98371305635209,48.98371305635209 0 0,0 -0.5713684029933475,0.620107554819175 l -20.415729251650333 -19.138604848409383" fill="red" stroke="none" /><path d="M 115.32070863581623 114.36230785411682 l 6.455668226108553 6.051828063008625 a29.848744269658056,29.848744269658056 0 0,0 -0.35462219737354095,0.3718199561852961 l -6.3505394773560475 -6.162055135776428" fill="red" stroke="none" /><path d="M 115.07121518719521 114.62390073753431 l 23.013719574671097 22.330671182200376 a53.06696374945957,53.06696374945957 0 0,0 -0.6417549020958716,0.6500943276253307 l -22.62592404751969 -22.723506003806374" fill="red" stroke="none" /><path d="M 114.55890576462653 115.13401014063108 l 12.728041880749755 13.230823662700256 a39.35913246620299,39.35913246620299 0 0,0 -0.49229684230175635,0.4654973920159001 l -12.498409204057191 -13.447955691462077" fill="red" stroke="none" /><path d="M 114.29624159901734 115.38237550388516 l 23.302146465049937 25.072489471398274 a55.22893159553796,55.22893159553796 0 0,0 -0.7019346059672777,0.6412006198422364 l -22.867112309615795 -25.469882857827095" fill="red" stroke="none" /><path d="M 114.0293411484842 115.62618273729858 l 21.672335833063286 24.139115050897516 a53.44051503755059,53.44051503755059 0 0,0 -0.6897838221685039,0.6086540232739097 l -21.253609657988196 -24.508592215943715" fill="red" stroke="none" /><path d="M 113.75828350139079 115.86535959552629 l 16.132267571690612 18.602918459286467 a45.62353817402125,45.62353817402125 0 0,0 -0.5977433539227728,0.5094098539781093 l -15.809658741190793 -18.877852703487523" fill="red" stroke="none" /><path d="M 113.20401910651253 116.32954008644616 l 22.94623554061171 28.37783481460149 a57.49426303201697,57.49426303201697 0 0,0 -0.7749200172833426,0.6156433283414016 l -22.454358030611015 -28.768612056948015" fill="red" stroke="none" /><path d="M 112.92097659922987 116.55440617244103 l 5.980287719717155 7.6619682095979975 a30.719547214530632,30.719547214530632 0 0,0 -0.41964550331126454,0.3217662773368236 l -5.847513487912397 -7.763773828762193" fill="red" stroke="none" /><path d="M 112.34349029814194 116.9893568818739 l 4.933957177337131 6.79100945526581 a29.39414932255236,29.39414932255236 0 0,0 -0.41189975555982766,0.29387953897512964 l -4.8163300939284195 -6.874933256085159" fill="red" stroke="none" /><path d="M 112.04921762599082 117.19931262002967 l 16.44675362934824 23.476450175951324 a49.66425330980042,49.66425330980042 0 0,0 -0.704388377555678,0.4844847490389393 l -16.04020836716968 -23.756075714355354" fill="red" stroke="none" /><path d="M 111.7513745106137 117.40417183066458 l 15.863403125971411 23.49422134186493 a49.348297924172115,49.348297924172115 0 0,0 -0.7080900351748174,0.4692834643443978 l -15.456638392056629 -23.763802827300648" fill="red" stroke="none" /><path d="M 111.45004920935366 117.60387380957326 l 4.216249465620922 6.4822711400959205 a28.73282604809323,28.73282604809323 0 0,0 -0.41692452264161833,0.2661009564509312 l -4.104043140932373 -6.55388652537066" fill="red" stroke="none" /><line stroke="#e1ed5e" stroke-width="0.3" x1="143.8653032363475" x2="146.44561519142675" y1="172.8068346515853" y2="177.08958963109032" /><path d="M 144.38136562736335 173.6633856474863 a86.0,86.0 0 0,1 -40.68145358897372,12.25698825130547" fill="none" id="id54" stroke="none" /><text fill="#e1ed5e" style="font-size:6.75px; font-family:Arial;" text-anchor="middle"><textPath startOffset="21.466115282336833" xlink:href="#id54">June</textPath></text><path d="M 110.8373102113329 117.98757091392108 l 14.570703789567089 24.184189856123094 a49.23438414274892,49.23438414274892 0 0,0 -0.7296820093025815,0.43110899278126913 l -14.152253909236125 -24.431417421198113" fill="red" stroke="none" /><path d="M 110.21172684928248 118.3499491758327 l 13.95507225462924 25.076548795026987 a49.6980372343004,49.6980372343004 0 0,0 -0.7510963482414028,0.4095576158374612 l -13.521353094519188 -25.313047062624218" fill="red" stroke="none" /><path d="M 109.89434966115114 118.52300852407294 l 13.098578897482207 24.521580182671343 a48.80073135348684,48.80073135348684 0 0,0 -0.7443484864705866,0.38940794803936035 l -12.674539508485125 -24.74341754965542" fill="red" stroke="none" /><path d="M 109.57404056367764 118.69057910512821 l 9.80115468492812 19.133954545297986 a42.49815921653335,42.49815921653335 0 0,0 -0.6539578134046966,0.3279080235826258 l -9.470342963840663 -19.299830409789916" fill="red" stroke="none" /><path d="M 109.2508944713604 118.85261126421891 l 3.419761235916222 6.969210317636718 a28.763031583223743,28.763031583223743 0 0,0 -0.4463575058515156,0.21427872790968777 l -3.2992910620644738 -7.027043322045966" fill="red" stroke="none" /><path d="M 108.92500713936063 119.00905698771935 l 13.540506931757188 28.83944672416479 a52.85999082430665,52.85999082430665 0 0,0 -0.8269618442488229,0.3796176227775063 l -13.042077091740946 -29.06825141727637" fill="red" stroke="none" /><path d="M 108.59647513512805 119.15986991738527 l 11.12317858441079 24.791400125649513 a48.1723871238938,48.1723871238938 0 0,0 -0.7594705442430604,0.3329295678142282 l -10.694787365509974 -24.979194246758194" fill="red" stroke="none" /><path d="M 108.2653958097858 119.30500536409082 l 12.471660117374652 29.129332823962446 a52.68691112829538,52.68691112829538 0 0,0 -0.836789932009873,0.3497782594457998 l -11.968398725867319 -29.33969612642822" fill="red" stroke="none" /><path d="M 107.93186726928326 119.44442032107085 l 10.553080716252929 25.870142573320116 a48.939788642143654,48.939788642143654 0 0,0 -0.7827544546600812,0.3114741517201204 l -10.10620518555098 -26.047963569446306" fill="red" stroke="none" /><path d="M 107.59598834532513 119.57807347666477 l 7.050573314287959 18.172308345456425 a40.49213622624505,40.49213622624505 0 0,0 -0.6519808134821485,0.24652335587838636 l -6.736722280045536 -18.29097995144144" fill="red" stroke="none" /><path d="M 106.91757812671514 119.82793768551818 l 2.567589851812821 7.359513785193557 a28.794546863133622,28.794546863133622 0 0,0 -0.4693926151241936,0.15924346030030284 l -2.4405275037514 -7.402620232391983" fill="red" stroke="none" /><path d="M 106.57524785965236 119.94407469862006 l 8.663473162248204 26.27809013217998 a48.66936551907126,48.66936551907126 0 0,0 -0.7978963664849152,0.25546121981168846 l -8.209855450672348 -26.423324198651375" fill="red" stroke="none" /><path d="M 106.2309692047433 120.05430185196036 l 5.813996497171302 18.71228004653841 a40.59469264390742,40.59469264390742 0 0,0 -0.6690875728077533,0.20159059707792393 l -5.4910339499233025 -18.809586012722058" fill="red" stroke="none" /><path d="M 105.88484417918355 120.15858648285463 l 7.7212471020552735 26.449201155206513 a48.55318309305795,48.55318309305795 0 0,0 -0.8042923374945369,0.22730104843496876 l -7.2648235964561305 -26.578190996980002" fill="red" stroke="none" /><path d="M 105.53697534728816 120.25689768951611 l 5.101840538948977 18.66496694379028 a40.349671002310274,40.349671002310274 0 0,0 -0.6715521735580584,0.1773630326794079 l -4.779797922579421 -18.75002132577327" fill="red" stroke="none" /><path d="M 104.83641907484287 120.43548508189849 l 6.54877329001966 27.670753258138642 a49.43513702229805,49.43513702229805 0 0,0 -0.8297566529696672,0.18884991276016636 l -6.0714964876571305 -27.779379904476492" fill="red" stroke="none" /><path d="M 104.48393922423573 120.51570834832081 l 4.193229705264636 19.18560296396246 a40.638496287952364,40.638496287952364 0 0,0 -0.6846784276832415,0.14348102152468212 l -3.862359816152016 -19.25493996621368" fill="red" stroke="none" /><path d="M 102.34483914955558 120.86867818915974 l 4.345763071917584 38.676568092685855 a59.91995087491001,59.91995087491001 0 0,0 -1.025964816552916,0.1063454481527537 l -3.6793656587590644 -38.74564290929437" fill="red" stroke="none" /><path d="M 101.62511606390274 120.93702456842531 l 2.4231493964885815 31.218409302661932 a52.31230959840286,52.31230959840286 0 0,0 -0.8983698528974224,0.06195684485185261 l -1.8854167828122286 -31.25549449203007" fill="red" stroke="none" /><path d="M 101.26447882468166 120.96189622390904 l 1.4310689802508 23.723544331258125 a44.766668131301145,44.766668131301145 0 0,0 -0.769585777751131,0.039778794187736076 l -1.0224951340861894 -23.744662932208062" fill="red" stroke="none" /><path d="M 100.90346689309514 120.98055641714683 l 0.8485104940404049 19.704343819138842 a40.72260468095763,40.72260468095763 0 0,0 -0.7005832522870729,0.024129503745697743 l -0.5092068900786797 -19.716030121310634" fill="red" stroke="none" /><line stroke="#e1ed5e" stroke-width="0.3" x1="102.19456741930631" x2="102.32365962044197" y1="184.97166512339345" y2="189.96999836594603" /><path d="M 102.22038585953345 185.97133177190398 a86.0,86.0 0 0,1 -42.740103519485714,-10.115201625700543" fill="none" id="id55" stroke="none" /><text fill="#e1ed5e" style="font-size:6.75px; font-family:Arial;" text-anchor="middle"><textPath startOffset="22.20632615414155" xlink:href="#id55">July</textPath></text><path d="M 100.18074693466247 120.99922214144158 l 0.36848357319057556 42.81050975138908 a63.81209554924275,63.81209554924275 0 0,0 -1.0984610157060326,0.0 l 0.3684835731905461 -42.81050975138908" fill="red" stroke="none" /><path d="M 99.81925306533755 120.99922214144158 l -0.5422408039873445 62.99766642432473 a84.0,84.0 0 0,0 -1.4457612404293283,-0.02489009088336136 l 1.6265617343093406 -62.97899885616221" fill="red" stroke="none" /><path d="M 99.09653310690486 120.98055641714683 l -1.7004028633299615 39.487222474477065 a60.52381697972081,60.52381697972081 0 0,0 -1.040467622611309,-0.05378029144431983 l 2.3798585543547595 -39.45210237627054" fill="red" stroke="none" /><path d="M 98.73552117531835 120.96189622390904 l -1.4103103900309995 23.379418826387514 a44.42191708754585,44.42191708754585 0 0,0 -0.7628665494933242,-0.0526117437013136 l 1.8125397003032537 -23.351678738169916" fill="red" stroke="none" /><path d="M 98.37488393609728 120.93702456842531 l -2.08795886211162 26.90001469120253 a47.98092590325214,47.98092590325214 0 0,0 -0.8228858620989672,-0.07100205470502893 l 2.5506890419521286 -26.860088384218837" fill="red" stroke="none" /><path d="M 98.01472825383883 120.90594882070398 l -2.2070190518806196 23.24106381615172 a44.34562015457719,44.34562015457719 0 0,0 -0.7592971186140947,-0.07870425092295415 l 2.606748767100308 -23.199630196773004" fill="red" stroke="none" /><path d="M 97.2962882734958 120.8252237178851 l -5.538269213341898 42.65828129792726 a64.01629213649802,64.01629213649802 0 0,0 -1.0915430434433921,-0.15127791965838353 l 6.27174084797212 -42.556628812776275" fill="red" stroke="none" /><path d="M 96.93821686468263 120.77559828337769 l -3.3709752377900895 22.873608047449537 a44.12067081989928,44.12067081989928 0 0,0 -0.7503962519239155,-0.11719646187214956 l 3.764207353322522 -22.812193278230282" fill="red" stroke="none" /><path d="M 96.58105272829116 120.7198165907248 l -3.847589704481878 23.317514620042534 a44.632825361981844,44.632825361981844 0 0,0 -0.7569536504180099,-0.1316060948113144 l 4.248392326371938 -23.247829946710215" fill="red" stroke="none" /><path d="M 95.86986931433489 120.58985236759428 l -5.472454059564378 27.281708437448014 a48.82515711905262,48.82515711905262 0 0,0 -0.8226074993225038,-0.17238539954593773 l 5.941253020316269 -27.183467057175534" fill="red" stroke="none" /><path d="M 95.51606077576429 120.51570834832081 l -4.443318947640493 20.329855305721264 a41.80975973004071,41.80975973004071 0 0,0 -0.7017665649316693,-0.15971978542266474 l 4.792605661965024 -20.250358786720913" fill="red" stroke="none" /><path d="M 95.16358092515715 120.4354850818985 l -8.232238705575822 34.78395661233894 a56.74483727357922,56.74483727357922 0 0,0 -0.9485756539367152,-0.23313681700664507 l 8.82976764425575 -34.63709853701826" fill="red" stroke="none" /><path d="M 94.81253420990036 120.34920634021253 l -7.19388268763676 28.21990719965621 a50.122415945121865,50.122415945121865 0 0,0 -0.8342030191522806,-0.22032059931137354 l 7.678576149600531 -28.091895251041255" fill="red" stroke="none" /><path d="M 94.46302465271185 120.25689768951611 l -1.8374517302175366 6.7222751364914055 a27.968874505368134,27.968874505368134 0 0,0 -0.4633095096957646,-0.13093589531362892 l 1.9528924080179153 -6.689650447839255" fill="red" stroke="none" /><path d="M 94.11515582081647 120.15858648285463 l -6.651826204667036 22.78589028576505 a44.736966696947974,44.736966696947974 0 0,0 -0.7373611305450947,-0.22216085996765078 l 7.043062309652377 -22.668014056691675" fill="red" stroke="none" /><path d="M 93.76903079525671 120.05430185196036 l -7.021181536290941 22.597591042337736 a44.66322275351131,44.66322275351131 0 0,0 -0.732218773975361,-0.2344333287201416 l 7.409121655357242 -22.47338486695789" fill="red" stroke="none" /><path d="M 93.42475214034765 119.94407469862007 l -9.871409912858752 29.942009926476423 a52.527269023892615,52.527269023892615 0 0,0 -0.8562701920489212,-0.2904933395635063 l 10.385349837844899 -29.767653600014793" fill="red" stroke="none" /><path d="M 93.08242187328487 119.8279376855182 l -3.6242268527551857 10.388165175481054 a32.00222686519911,32.00222686519911 0 0,0 -0.5185586580246248,-0.1859366853342889 l 3.8025050714095374 -10.324240949106809" fill="red" stroke="none" /><path d="M 92.7421414339146 119.70592522655815 l -13.839729850277564 37.57646681897679 a61.04408796472118,61.04408796472118 0 0,0 -0.9828963803524304,-0.3716473079492483 l 14.484496451390276 -37.33267126092091" fill="red" stroke="none" /><path d="M 92.40401165467489 119.57807347666478 l -14.209812524149893 36.6246946467018 a60.28469205601127,60.28469205601127 0 0,0 -0.9642074999486194,-0.38367806320449693 l 14.838141100140371 -36.37466973909124" fill="red" stroke="none" /><path d="M 91.7346041902142 119.30500536409082 l -10.957767055094408 25.593420647393952 a48.84054308500758,48.84054308500758 0 0,0 -0.7700044787587491,-0.33754733514210133 l 11.3966922085109 -25.4010087589574" fill="red" stroke="none" /><path d="M 91.40352486487194 119.15986991738527 l -12.755499010473452 28.42952465171848 a52.159920200938544,52.159920200938544 0 0,0 -0.8160096725821813,-0.37459001793544944 l 13.242976678823053 -28.205747563448956" fill="red" stroke="none" /><path d="M 91.07499286063937 119.00905698771935 l -8.959063601078771 19.081592640799684 a42.08013278700101,42.08013278700101 0 0,0 -0.6530182001976809,-0.31348841994556476 l 9.286194469276694 -18.924549944354556" fill="red" stroke="none" /><path d="M 90.7491055286396 118.85261126421891 l -9.5506520136174 19.463494075084878 a42.680464835793494,42.680464835793494 0 0,0 -0.6567631157128581,-0.32931466039705853 l 9.884269037013018 -19.296211573778518" fill="red" stroke="none" /><path d="M 90.42595943632237 118.69057910512821 l -12.330804572788962 24.072373285314292 a48.046772395238335,48.046772395238335 0 0,0 -0.7328484905920798,-0.38339169371909665 l 12.743343965907536 -23.85655217265048" fill="red" stroke="none" /><line stroke="#e1ed5e" stroke-width="0.3" x1="58.666819895761336" x2="56.23545636021788" y1="174.27360380694188" y2="178.64263932499728" /><path d="M 58.180547188652646 175.14741091055294 a86.0,86.0 0 0,1 -31.652253787137756,-30.449443065178592" fill="none" id="id56" stroke="none" /><text fill="#e1ed5e" style="font-size:6.75px; font-family:Arial;" text-anchor="middle"><textPath startOffset="22.20632615414155" xlink:href="#id56">August</textPath></text><path d="M 89.7882731507175 118.34994917583269 l -12.064488886910533 21.679267490665563 a45.81012960534903,45.81012960534903 0 0,0 -0.6857367013781323,-0.38937919567106455 l 12.435874355209874 -21.468385129199866" fill="red" stroke="none" /><path d="M 89.4739219176387 118.17145234162733 l -15.806093854265903 27.286485900325967 a52.53386934263777,52.53386934263777 0 0,0 -0.7785822856488553,-0.4600001379837074 l 16.27344401094314 -27.010367190048512" fill="red" stroke="none" /><path d="M 89.1626897886671 117.98757091392108 l -12.694581701119692 21.070236444156443 a45.59892819573774,45.59892819573774 0 0,0 -0.668829445003826,-0.4108496721380112 l 13.055390346055827 -20.848598305190052" fill="red" stroke="none" /><path d="M 88.8546689885994 117.79835938074946 l -14.767542517076945 23.582792527254234 a48.82496029426086,48.82496029426086 0 0,0 -0.7084692340951277,-0.4521785852611621 l 15.171293553218996 -23.32509951316927" fill="red" stroke="none" /><path d="M 88.54995079064634 117.60387380957326 l -13.457822316333065 20.690723810588686 a45.682362798242266,45.682362798242266 0 0,0 -0.6554881777357482,-0.43442182152539605 l 13.811985192808775 -20.45600396797197" fill="red" stroke="none" /><path d="M 87.95078237400918 117.19931262002967 l -13.588676259116706 19.396769012519595 a44.68304816952671,44.68304816952671 0 0,0 -0.6261428564144537,-0.44673630292777555 l 13.920546443380047 -19.1599884477476" fill="red" stroke="none" /><path d="M 87.65650970185807 116.9893568818739 l -12.262366100353342 16.877699002724952 a41.861983271148446,41.861983271148446 0 0,0 -0.5793200717467796,-0.4285671394913921 l 12.551071142518685 -16.664121914493794" fill="red" stroke="none" /><path d="M 87.36589467227662 116.77436683061367 l -19.175317963321092 25.459168596971388 a52.87259143282012,52.87259143282012 0 0,0 -0.7222679777227375,-0.5538042862312306 l 19.610714669537316 -25.12532496891279" fill="red" stroke="none" /><path d="M 87.07902340077011 116.55440617244103 l -15.714628454844679 20.133643946542207 a46.54042219776231,46.54042219776231 0 0,0 -0.6272817994689223,-0.4983505990552165 l 16.05886774703096 -19.86015943348186" fill="red" stroke="none" /><path d="M 86.79598089348748 116.32954008644616 l -17.24882455791802 21.331790706336946 a48.432959070592425,48.432959070592425 0 0,0 -0.6437659828368958,-0.529775576509784 l 17.613460669299606 -21.03172001096998" fill="red" stroke="none" /><path d="M 86.51685102203217 116.09983520530335 l -14.904477373456498 17.79700201532509 a44.21371849810715,44.21371849810715 0 0,0 -0.5792723984634709,-0.49366850501687826 l 15.208615248497024 -17.537809120085264" fill="red" stroke="none" /><path d="M 86.24171649860922 115.8653595955263 l -16.302298371952148 18.798989414518058 a45.88306522949525,45.88306522949525 0 0,0 -0.5922359858352638,-0.5225793994022767 l 16.623476710694 -18.51558687334349" fill="red" stroke="none" /><path d="M 85.70375840098266 115.38237550388516 l -26.455667465790487 28.465594145574546 a59.86119389726792,59.86119389726792 0 0,0 -0.7487328832093046,-0.7079736746246295 l 26.94173618339061 -28.005985834203987" fill="red" stroke="none" /><path d="M 85.44109423537348 115.13401014063109 l -17.718609474383737 18.418528136553576 a46.557607486279636,46.557607486279636 0 0,0 -0.5727695291118773,-0.5605755362417717 l 18.03302895587141 -18.110802497389233" fill="red" stroke="none" /><path d="M 82.05923443525364 110.91462005526583 l -23.33053096993709 14.193590585947545 a48.308820718967205,48.308820718967205 0 0,0 -0.4260817842675342,-0.71413757861083 l 23.571393629902857 -13.789890913450604" fill="red" stroke="none" /><line stroke="#e1ed5e" stroke-width="0.3" x1="26.63291911575756" x2="22.317208475507996" y1="142.92168965132927" y2="145.44649492493687" /><path d="M 25.769776987707644 143.4266507060508 a86.0,86.0 0 0,1 -11.730757126820373,-40.83630448921669" fill="none" id="id57" stroke="none" /><text fill="#e1ed5e" style="font-size:6.75px; font-family:Arial;" text-anchor="middle"><textPath startOffset="21.46611528233685" xlink:href="#id57">September</textPath></text><path d="M 81.87401531095188 110.60418214915194 l -16.647413384020922 9.739178690967886 a40.286989758722896,40.286989758722896 0 0,0 -0.34502546138742546,-0.6015809742116731 l 16.812590841560723 -9.451177870897906" fill="red" stroke="none" /><path d="M 81.69416730710424 110.29060199501025 l -27.277396106625577 15.333955657885046 a52.29195638619831,52.29195638619831 0 0,0 -0.4343309899850194,-0.7884369067869355 l 27.537303506062113 -14.862148232700287" fill="red" stroke="none" /><path d="M 81.35079622478065 109.6543875284942 l -42.5853973059505 22.045763111497937 a68.95343298319672,68.95343298319672 0 0,0 -0.5365934162341676,-1.0587497168606166 l 42.95856939197093 -21.309459182934635" fill="red" stroke="none" /><path d="M 81.18737489456691 109.33194174019688 l -28.23553276976141 14.006144561650611 a52.518524652561474,52.518524652561474 0 0,0 -0.3947560992288775,-0.8133144873058308 l 28.472442125605006 -13.518041118379495" fill="red" stroke="none" /><path d="M 81.02952815118164 109.00673069616217 l -21.060104009378094 9.99883855063144 a44.31318839728742,44.31318839728742 0 0,0 -0.32121867061076304,-0.6918764395411076 l 21.229097296828684 -9.634842043811506" fill="red" stroke="none" /><path d="M 80.87730276802145 108.67885076344099 l -21.81092414887182 9.898904605582379 a44.952134030567294,44.952134030567294 0 0,0 -0.31372076202543153,-0.7073574985049648 l 21.97808599562853 -9.521998770584718" fill="red" stroke="none" /><path d="M 80.73074385275274 108.34839909993369 l -18.83338088828857 8.159556282558306 a41.52497489429865,41.52497489429865 0 0,0 -0.278511998565527,-0.6583200934945345 l 18.971043868046404 -7.834161663397612" fill="red" stroke="none" /><path d="M 80.45479744820244 107.68017299344265 l -41.74194617122374 16.402253536558277 a65.8489017840892,65.8489017840892 0 0,0 -0.4054590325318056,-1.0585255901060258 l 42.018099483349054 -15.681304379619094" fill="red" stroke="none" /><path d="M 80.32549172779594 107.34259656027581 l -25.208147233814344 9.407770329458717 a47.90644587331269,47.90644587331269 0 0,0 -0.28168018127716676,-0.7750628820507236 l 25.366351676096738 -8.972459650401875" fill="red" stroke="none" /><path d="M 80.20201598880116 107.00284435728193 l -37.20325703759884 13.159350895065318 a60.46201781694778,60.46201781694778 0 0,0 -0.3386136988069974,-0.9841699102920967 l 37.42426156734906 -12.517008281683923" fill="red" stroke="none" /><path d="M 80.0844068197444 106.66101706037122 l -29.69285788829433 9.931144464287977 a52.30963813181175,52.30963813181175 0 0,0 -0.2782567583742505,-0.8563862443561867 l 29.85940689768483 -9.418559319953987" fill="red" stroke="none" /><path d="M 79.97269907076064 106.31721596034903 l -30.013298351278348 9.46710133518795 a52.47100388633265,52.47100388633265 0 0,0 -0.2642870205190848,-0.8637052746010416 l 30.171812144303562 -8.94906908803486" fill="red" stroke="none" /><path d="M 79.86692584326677 105.97154293290107 l -26.101043574981677 7.741664342372598 a48.22494889789613,48.22494889789613 0 0,0 -0.229200237419114,-0.7978760947022325 l 26.230436449286895 -7.291230772165769" fill="red" stroke="none" /><path d="M 79.76711848015287 105.62410040840567 l -31.465863238891824 8.746513645082903 a53.658873990268944,53.658873990268944 0 0,0 -0.23970677096959195,-0.8920380678854352 l 31.611758086203192 -8.203584644021928" fill="red" stroke="none" /><path d="M 79.67330655649465 105.27499134158121 l -23.08057872516276 5.989653618395952 a44.84510567719924,44.84510567719924 0 0,0 -0.18747108989050146,-0.7488538142988451 l 23.18026112934832 -5.591471964699714" fill="red" stroke="none" /><path d="M 79.58551787078972 104.9243191809786 l -30.547837590147388 7.368656311263532 a52.423995246746486,52.423995246746486 0 0,0 -0.20405274776801544,-0.8790538968280383 l 30.670150903845958 -6.841733757086919" fill="red" stroke="none" /><path d="M 79.50377843672027 104.57218783832718 l -30.778355291279127 6.86587141498392 a52.53485919935751,52.53485919935751 0 0,0 -0.18929050579978776,-0.8843022250424047 l 30.891979835803355 -6.335055370525351" fill="red" stroke="none" /><path d="M 79.4281124754447 104.21870165774334 l -31.002485596807944 6.357716919524382 a52.64766464700185,52.64766464700185 0 0,0 -0.17441435991269305,-0.88933506359303 l 31.107329889696302 -5.823118128863396" fill="red" stroke="none" /><path d="M 79.35854240842038 103.8639653848113 l -27.64425631130038 5.174850128766587 a49.12443743188593,49.12443743188593 0 0,0 -0.14843430110186145,-0.8324983887041736 l 27.729237054741432 -4.6982329893292" fill="red" stroke="none" /><path d="M 79.29508885075956 103.50808413554451 l -5.0683725679652305 0.8587468581993931 a26.140607615269793,26.140607615269793 0 0,0 -0.07134922706843559,-0.4442917050633114 l 5.082403549394956 -0.771375923442868" fill="red" stroke="none" /><path d="M 79.23777060512086 103.15116336523772 l -6.971514198731865 1.058093508431075 a28.05135250116628,28.05135250116628 0 0,0 -0.06834638433286055,-0.47801445283886995 l 6.988694634081324 -0.9379335836118045" fill="red" stroke="none" /><path d="M 79.18660465613746 102.79330883721812 l -5.2751618952892265 0.7079650434936271 a26.322456906760294,26.322456906760294 0 0,0 -0.05640337303424247,-0.4495903788566521 l 5.286566777570317 -0.6170569103495663" fill="red" stroke="none" /><path d="M 79.1416061653843 102.43462659150553 l -51.7943885291363 6.045527599279201 a73.1460169817482,73.1460169817482 0 0,0 -0.13520762064744957,-1.2518546448913568 l 51.890778451284795 -5.153076632503063" fill="red" stroke="none" /><path d="M 79.10278846688536 102.07522291339032 l -33.1148007248492 3.2885054126797515 a54.277684638443475,54.277684638443475 0 0,0 -0.08432530354641926,-0.9305226979205352 l 33.166500624672686 -2.7180013262106497" fill="red" stroke="none" /><path d="M 79.07016306316243 101.71520430193888 l -6.161447739659043 0.5049318683718131 a27.18210275232036,27.18210275232036 0 0,0 -0.034202128450283135,-0.4666608689865157 l 6.169226426773662 -0.39879786288853686" fill="red" stroke="none" /><path d="M 79.04373962182676 101.35467743843564 l -38.626595238269225 2.4969424958743627 a59.707216142843265,59.707216142843265 0 0,0 -0.05747146269494004,-1.0261915735631177 l 38.663853051851696 -1.8316792059758071" fill="red" stroke="none" /><path d="M 79.0235259727143 100.99374915477108 l -29.329534029412308 1.3894708716844109 a50.36242830022262,50.36242830022262 0 0,0 -0.03356983717321134,-0.8662883332222197 l 29.34910599943672 -0.8844052914481945" fill="red" stroke="none" /><path d="M 79.0095281055655 100.63252640178507 l -6.6399881493118995 0.2000892515948341 a27.643002207707465,27.643002207707465 0 0,0 -0.010238358969988056,-0.4757363104762586 l 6.642448570966895 -0.08576312532844665" fill="red" stroke="none" /><line stroke="#e1ed5e" stroke-width="0.3" x1="15.007084014347285" x2="10.007500721073583" y1="101.09737516637583" y2="101.16192664675087" /><path d="M 14.007167355692545 101.11028546245083 a86.0,86.0 0 0,1 10.666146001902534,-42.60595125391555" fill="none" id="id58" stroke="none" /><text fill="#e1ed5e" style="font-size:6.75px; font-family:Arial;" text-anchor="middle"><textPath startOffset="22.20632615414155" xlink:href="#id58">October</textPath></text><path d="M 79.00175016825051 100.2711162175752 l -27.457667238684866 0.3545161594341609 a48.459955788341105,48.459955788341105 0 0,0 -0.003589965931927924,-0.8341816525787736 l 27.4597015019063 0.11817497134828814" fill="red" stroke="none" /><path d="M 79.00019446554 99.90962569577889 l -44.51417520586723 -0.19157023171504062 a65.51458742269016,65.51458742269016 0 0,0 0.014559814913690343,-1.127673710544282 l 44.50428238383583 0.9577802003197946" fill="red" stroke="none" /><path d="M 79.00486145842228 99.54816195383935 l -19.639877463782167 -0.4226713647302768 a40.64442510930115,40.64442510930115 0 0,0 0.021073758060224893,-0.6993354348923638 l 19.629692011266297 0.760676947047635" fill="red" stroke="none" /><path d="M 79.01574976396665 99.18683210126434 l -29.97909015799736 -1.1617300344581483 a51.00159101404951,51.00159101404951 0 0,0 0.041545390314342755,-0.8769575266537629 l 29.95465115944952 1.6775986677349202" fill="red" stroke="none" /><path d="M 79.03285615573316 98.82574320788736 l -24.02262843508838 -1.3453780263931434 a45.06027262863449,45.06027262863449 0 0,0 0.05003709175617971,-0.7740516625270479 l 23.995910752327784 1.7586887531732032" fill="red" stroke="none" /><path d="M 79.05617556472873 98.46500227214037 l -3.84915210398101 -0.28210892199070564 a24.85947630689038,24.85947630689038 0 0,0 0.0349518509494248,-0.42650111137502755 l 3.8437257692120883 0.3483239505735116" fill="red" stroke="none" /><path d="M 79.12142395522702 97.74499172005258 l -6.11576021308682 -0.6605378589569302 a27.151327762937946,27.151327762937946 0 0,0 0.05418583628707549,-0.4642311545750901 l 6.103484023796156 0.7657127518568821" fill="red" stroke="none" /><path d="M 79.16333360222342 97.38593545837743 l -8.495317418747184 -1.0657802745522291 a29.5619101629773,29.5619101629773 0 0,0 0.06768832933946815,-0.5043566754727191 l 8.475713090349883 1.2118552920896075" fill="red" stroke="none" /><path d="M 79.21141760316559 97.0276538004421 l -44.218268676225456 -6.322316757434256 a65.66796361940172,65.66796361940172 0 0,0 0.16962381029499293,-1.117608975475142 l 44.10288897249116 7.0825248453014895" fill="red" stroke="none" /><path d="M 79.26566170972629 96.67025291283419 l -24.528552121446285 -3.9390634914591414 a45.84282774492979,45.84282774492979 0 0,0 0.1318268109602563,-0.7780493005753544 l 24.457113448965806 4.3606985803503235" fill="red" stroke="none" /><path d="M 79.32604984820605 96.31383870115002 l -30.57621195254381 -5.4517326557025285 a52.05843084117638,52.05843084117638 0 0,0 0.16488708770425622,-0.8808334157508805 l 30.477839140929692 5.9772441489159815" fill="red" stroke="none" /><path d="M 79.3925641242962 95.95851677861259 l -27.56601034073017 -5.406182940207643 a49.09113276619928,49.09113276619928 0 0,0 0.16976345837199389,-0.8278269132869339 l 27.46886758644318 5.87988550965798" fill="red" stroke="none" /><path d="M 79.46518482838121 95.60439243477599 l -24.015562561840998 -5.1406836437387335 a45.55959839831877,45.55959839831877 0 0,0 0.1707521961847936,-0.7654486143554083 l 23.923515978654166 5.553310427644101" fill="red" stroke="none" /><path d="M 79.54389044137918 95.25157060432595 l -50.39262046867391 -11.697522428337532 a72.73246783849841,72.73246783849841 0 0,0 0.2935870299423743,-1.217107777919347 l 50.18380063847072 12.563215437916275" fill="red" stroke="none" /><path d="M 79.62865764111835 94.90015583598534 l -43.28289517852879 -10.835614879430851 a65.61860110817969,65.61860110817969 0 0,0 0.2837337941981824,-1.0933420513445409 l 43.0899650524603 11.579053356324255" fill="red" stroke="none" /><path d="M 79.71946130924805 94.55025226153421 l -20.17412389652566 -5.421152157597983 a41.889810092679085,41.889810092679085 0 0,0 0.19311846644924366,-0.6947498741527249 l 20.077818659510054 5.76761333516965" fill="red" stroke="none" /><path d="M 79.81627453868168 94.20196356495316 l -26.876981852572744 -7.7207609835935225 a48.9639464966822,48.9639464966822 0 0,0 0.23967642638080122,-0.808069760222133 l 26.740099529080233 8.182260130562195" fill="red" stroke="none" /><path d="M 79.91906864156998 93.8553929516997 l -19.709990930103125 -6.031102194879245 a41.612082285635886,41.612082285635886 0 0,0 0.21548027416900803,-0.6831313544106342 l 19.603255172165913 6.369483715716294" fill="red" stroke="none" /><path d="M 80.02781315780177 93.51064311812611 l -37.49064834903123 -12.181450073141932 a60.4200005012071,60.4200005012071 0 0,0 0.3299009889418702,-0.9863619663457414 l 37.27541006631759 12.824985142409995" fill="red" stroke="none" /><path d="M 80.14247586403 93.16781622104843 l -28.327499197904707 -9.746365115458245 a50.957283651411274,50.957283651411274 0 0,0 0.2925115978322994,-0.8269696771073052 l 28.1555345192626 10.232532418992161" fill="red" stroke="none" /><path d="M 80.2630227832202 92.82701384747504 l -19.77066520039977 -7.185229336339703 a42.03584376919773,42.03584376919773 0 0,0 0.25300656051852577,-0.6779317952417425 l 19.644054051379616 7.524484268610787" fill="red" stroke="none" /><path d="M 80.38941819471856 92.48833698450439 l -19.1599283817322 -7.339044136153159 a41.51741758666307,41.51741758666307 0 0,0 0.26137478081962723,-0.6651703076757582 l 19.03076005103088 7.66776344872468" fill="red" stroke="none" /><path d="M 80.52162464483688 92.15188598940014 l -20.274465638721917 -8.16887008979945 a42.85827979232894,42.85827979232894 0 0,0 0.28159586422403915,-0.6819067212020989 l 20.130848087611678 8.51665138145486" fill="red" stroke="none" /><path d="M 80.803312248108 91.48605970444005 l -18.9582019023166 -8.408169221358833 a41.73911109531956,41.73911109531956 0 0,0 0.2969393566500002,-0.6542665115749962 l 18.81066022870325 8.7332577417759" fill="red" stroke="none" /><path d="M 81.26839172434947 90.50648371742162 l -3.689606196781997 -1.8699588412269166 a25.13641631792725,25.13641631792725 0 0,0 0.19892548934284235,-0.38426072869881267 l 3.6568712742790406 1.9331922921860647" fill="red" stroke="none" /><path d="M 81.43458229118936 90.18545643968196 l -25.91720402633629 -13.701039850959711 a50.315865287252365,50.315865287252365 0 0,0 0.4113726928874129,-0.7622111232360235 l 25.677523234230407 14.145131957528209" fill="red" stroke="none" /><path d="M 81.6062741919709 89.86733742301443 l -18.608194846109352 -10.250808428389378 a42.24485793942406,42.24485793942406 0 0,0 0.35635017993598883,-0.6339072074845218 l 18.428987024880936 10.569599145808684" fill="red" stroke="none" /><line stroke="#e1ed5e" stroke-width="0.3" x1="26.266209847984243" x2="21.928928074336255" y1="57.711370442889674" y2="55.22380399835377" /><path d="M 25.398753493254645 57.213857153982495 a86.0,86.0 0 0,1 29.58750427330803,-30.492523968695096" fill="none" id="id59" stroke="none" /><text fill="#e1ed5e" style="font-size:6.75px; font-family:Arial;" text-anchor="middle"><textPath startOffset="21.46611528233685" xlink:href="#id59">November</textPath></text><path d="M 81.78341655067845 89.55222093294921 l -32.77983063716381 -18.800255783703797 a58.7884494804144,58.7884494804144 0 0,0 0.5110125097876047,-0.8734860263658307 l 32.451358452905886 19.36172122242352" fill="red" stroke="none" /><path d="M 81.96595687620814 89.24020034530311 l -17.6787834328621 -10.547838139824455 a41.586312760909244,41.586312760909244 0 0,0 0.37206719882395917,-0.6115806463837455 l 17.494600435751924 10.850586559415275" fill="red" stroke="none" /><path d="M 82.15384107792192 88.93136811851018 l -16.860234820832282 -10.457137218272525 a40.83983964187679,40.83983964187679 0 0,0 0.37567285678813156,-0.5942242414071278 l 16.677734367798188 10.74580910739387" fill="red" stroke="none" /><path d="M 82.34701348167596 88.62581576622439 l -17.898303773346814 -11.532247213739746 a42.29182950715624,42.29182950715624 0 0,0 0.3995638700518565,-0.6085631865904239 l 17.69714326793704 11.838628464307837" fill="red" stroke="none" /><path d="M 82.54541684631803 88.32363383020206 l -3.355736897735666 -2.2448438007640403 a25.037362235006086,25.037362235006086 0 0,0 0.24271401882079358,-0.35615287328265044 l 3.3165984132461324 2.3022746973171064" fill="red" stroke="none" /><path d="M 82.7489923806493 88.02491185347247 l -32.833257502607275 -22.791778973555214 a60.96858750333705,60.96858750333705 0 0,0 0.605874990491877,-0.8569672068184631 l 32.43606989231152 23.35357268070546" fill="red" stroke="none" /><path d="M 82.95767976084542 87.72973835380427 l -25.81008967966816 -18.582948157123404 a52.80387856037136,52.80387856037136 0 0,0 0.5374363358400542,-0.7330625581027382 l 25.486390731314472 19.024473158897646" fill="red" stroke="none" /><path d="M 83.17141714833178 87.43820079747576 l -28.556165284751028 -21.31592526019362 a56.634579350234795,56.634579350234795 0 0,0 0.5898735771039622,-0.7762044832653149 l 28.185015767422957 21.80431451933996" fill="red" stroke="none" /><path d="M 83.39014120810768 87.1503855733568 l -30.364689067866358 -23.490539660544528 a59.39036071374972,59.39036071374972 0 0,0 0.6324958012229647,-0.8032054365989059 l 29.955839186049424 24.00973749109648" fill="red" stroke="none" /><path d="M 83.6137871275137 86.86637796730984 l -26.31101695099944 -21.088396362185094 a54.71928341653187,54.71928341653187 0 0,0 0.5954018463417514,-0.7298922625082154 l 25.944116612581297 21.53817279430139" fill="red" stroke="none" /><path d="M 83.84228863543731 86.58626213691792 l -21.1957340170641 -17.596181383959543 a48.547862708735366,48.547862708735366 0 0,0 0.5393191003729616,-0.6383837048405552 l 20.889704303204017 17.958424038429214" fill="red" stroke="none" /><path d="M 84.07557802195018 86.31012108654704 l -3.666208509638635 -3.1517596455058445 a25.834736156108818,25.834736156108818 0 0,0 0.29280368607016977,-0.3347252294132658 l 3.6114129599906217 3.2144004311220535" fill="red" stroke="none" /><path d="M 84.31358615837235 86.03803664274999 l -25.545006200653578 -22.7367736268548 a55.198073290030095,55.198073290030095 0 0,0 0.6378173099794014,-0.7042938041025872 l 25.14984525005813 23.17312021822694" fill="red" stroke="none" /><path d="M 84.5562425177563 85.77008943001954 l -24.177994748324974 -22.277655125424648 a53.87657749732154,53.87657749732154 0 0,0 0.6342881208442417,-0.6766143428563587 l 23.79093930551028 22.690538885159057" fill="red" stroke="none" /><path d="M 84.80347519578584 85.50635884689758 l -35.009128396483966 -33.38985396982448 a69.37893569734356,69.37893569734356 0 0,0 0.8316741648221326,-0.8571133330722176 l 34.42918996795871 33.98753149844682" fill="red" stroke="none" /><path d="M 85.05521093208273 85.24692304244772 l -22.6444923102276 -22.35400822315159 a52.819407845349446,52.819407845349446 0 0,0 0.6443067307781085,-0.6415398729161427 l 22.25634977928218 22.740483946717845" fill="red" stroke="none" /><path d="M 85.31137513191541 84.99185889309783 l -14.417941115307773 -14.731569270293623 a41.61300946416951,41.61300946416951 0 0,0 0.5162326785300378,-0.4966154277352759 l 14.162225193165307 14.977567784791212" fill="red" stroke="none" /><path d="M 85.57189188830299 84.74124197986013 l -17.238702154165335 -18.23116258315409 a46.090797936562765,46.090797936562765 0 0,0 0.5811657106288635,-0.540130190302295 l 16.922328559741615 18.525197359531035" fill="red" stroke="none" /><path d="M 85.83668400450813 84.49514656593479 l -21.1849605194605 -23.19158225130639 a52.41101780474822,52.41101780474822 0 0,0 0.6713327580185325,-0.6027291786313178 l 20.782616773845994 23.552810438706985" fill="red" stroke="none" /><path d="M 86.10567301691215 84.25364557470407 l -32.88339401923774 -37.26654609207282 a70.70023198997193,70.70023198997193 0 0,0 0.9194605615987189,-0.7973471385035766 l 32.23703965899225 37.827058223996076" fill="red" stroke="none" /><path d="M 86.37877921826538 84.01681056812374 l -17.789991267415875 -20.874839705984304 a48.4270436256858,48.4270436256858 0 0,0 0.6391042927719608,-0.5352314655410014 l 17.428029437684803 21.177972328919118" fill="red" stroke="none" /><path d="M 86.65592168130627 83.78471172551755 l -27.51006487200332 -33.42933259948932 a64.29346310136336,64.29346310136336 0 0,0 0.8606035224910443,-0.6958815308911073 l 26.930557950947776 33.89792022764456" fill="red" stroke="none" /><path d="M 86.93701828274178 83.55741782278169 l -18.763701107754958 -23.618168048525664 a51.16445493009219,51.16445493009219 0 0,0 0.6942954280042428,-0.5419085942889037 l 18.35437312459129 23.93765503203779" fill="red" stroke="none" /><path d="M 87.22198572758235 83.33499621200491 l -31.63280596605685 -41.255301489776 a72.98686674823283,72.98686674823283 0 0,0 1.003582785651243,-0.7558777476994014 l 30.91797702664722 41.79369582698126" fill="red" stroke="none" /><path d="M 87.51073957382395 83.11751280151077 l -28.64728845899369 -38.72426902610992 a69.16882962725303,69.16882962725303 0 0,0 0.9632737231817836,-0.6998593260016314 l 27.976469419458123 39.21164758692822" fill="red" stroke="none" /><path d="M 87.80319425747018 82.90503203632743 l -21.61238357572762 -30.291783983847715 a58.21138670821707,58.21138670821707 0 0,0 0.8206942345693664,-0.5749487584292279 l 21.087758201574594 30.65931758504089" fill="red" stroke="none" /><path d="M 88.09926311788651 82.69761687909137 l -15.897657711936557 -23.113473323690854 a49.052952960621894,49.052952960621894 0 0,0 0.6998111634523408,-0.47251562145274856 l 15.497441854077676 23.383700857442268" fill="red" stroke="none" /><path d="M 88.39885842347998 82.49532879139004 l -21.161330835773203 -31.92980071603817 a59.30553610781289,59.30553610781289 0 0,0 0.855787285438471,-0.5566278557212125 l 20.608576524550443 32.28932749591892" fill="red" stroke="none" /><path d="M 88.70189139769569 82.29822771554957 l -7.230018307382088 -11.327925955994292 a34.438566560075124,34.438566560075124 0 0,0 0.502443676845751,-0.3146301843465391 l 7.033955478164095 11.45070048166376" fill="red" stroke="none" /><path d="M 89.00827224532344 82.1063720568725 l -3.5800565999972234 -5.828037433735856 a27.839797189113877,27.839797189113877 0 0,0 0.41048844183604377,-0.24731469321969501 l 3.4792060919435306 5.88879873641417" fill="red" stroke="none" /><line stroke="#e1ed5e" stroke-width="0.3" x1="56.762969772571076" x2="54.21961505331055" y1="26.818313649435495" y2="22.513508569990535" /><path d="M 56.25429882871897 25.957352633546506 a86.0,86.0 0 0,1 42.265352541879196,-11.944610805530505" fill="none" id="id60" stroke="none" /><text fill="#e1ed5e" style="font-size:6.75px; font-family:Arial;" text-anchor="middle"><textPath startOffset="22.20632615414155" xlink:href="#id60">December</textPath></text><path d="M 89.3179101791058 81.91981866633112 l -3.645934836252616 -6.170998753563139 a28.167570470297324,28.167570470297324 0 0,0 0.41956705150582674,-0.2430403174114642 l 3.539171052281469 6.232843228364651" fill="red" stroke="none" /><path d="M 89.63071344664047 81.73862282372117 l -13.925553066570838 -24.52432726478624 a49.202192397049885,49.202192397049885 0 0,0 0.7400851115747907,-0.4118565633182249 l 13.501343865924001 24.760399225664653" fill="red" stroke="none" /><path d="M 89.94658935756843 81.56283822128135 l -13.616870725931093 -24.97226637040738 a49.44350991072126,49.44350991072126 0 0,0 0.7507289548600145,-0.4010134082960675 l 13.184996724542774 25.202958505205196" fill="red" stroke="none" /><path d="M 90.26544431104013 81.39251694778311 l -14.861251243553586 -28.407098329385335 a53.05963231260443,53.05963231260443 0 0,0 0.8129228680465155,-0.4164106671089207 l 14.370067887918307 28.658701521806762" fill="red" stroke="none" /><path d="M 90.58718382345135 81.22770947309562 l -18.96104595042111 -37.81464086827636 a63.302107837916274,63.302107837916274 0 0,0 0.9782548977242073,-0.4800254297988915 l 18.307319785686477 38.13542145821008" fill="red" stroke="none" /><path d="M 90.91171255644093 81.06846463323043 l -14.048064410772215 -29.263096031989246 a53.460389755309926,53.460389755309926 0 0,0 0.8330192552548857,-0.3911137099109048 l 13.54226694421772 29.500574724540158" fill="red" stroke="none" /><path d="M 91.23893434514133 80.91482961587045 l -11.774469566889618 -25.649591809897398 a49.223034804853384,49.223034804853384 0 0,0 0.7730779553320464,-0.34685754387598083 l 11.331209493090796 25.84846968428991" fill="red" stroke="none" /><path d="M 91.56875222667455 80.76684994638697 l -1.6096515727079472 -3.671896623637647 a25.009214761047694,25.009214761047694 0 0,0 0.39576039380983447,-0.16944394673723437 l 1.5462074211078045 3.6990600983376676" fill="red" stroke="none" /><path d="M 91.90106846888425 80.62456947434976 l -11.215318697954972 -26.830900770106386 a50.080588192675776,50.080588192675776 0 0,0 0.7982276518376322,-0.3256171014872938 l 10.75180717652896 27.019978757777256" fill="red" stroke="none" /><path d="M 92.23578459929587 80.48803036053334 l -21.488083194075717 -54.00092672018285 a79.11916900639648,79.11916900639648 0 0,0 1.2697377107805448,-0.492638505223947 l 20.555362318295497 54.36280792929734" fill="red" stroke="none" /><path d="M 92.57280143429618 80.3572730644239 l -5.4892335319895675 -14.517386925989843 a36.52050926766321,36.52050926766321 0 0,0 0.5899239150180017,-0.2172739564738457 l 5.238527291198997 14.609724150270011" fill="red" stroke="none" /><path d="M 92.91201910852362 80.23233633223022 l -2.474260675083591 -6.90046341832811 a28.33064535194205,28.33064535194205 0 0,0 0.46046471881517437,-0.1606470989328552 l 2.3551139522051314 6.942031370433175" fill="red" stroke="none" /><path d="M 93.25333710446033 80.11325718540243 l -7.8514750752500255 -23.14333292685297 a45.43889358830365,45.43889358830365 0 0,0 0.7428548908173281,-0.24490757804957458 l 7.451937362190288 23.27505422916178" fill="red" stroke="none" /><path d="M 93.94186890950719 79.89281104454417 l -5.940454194959068 -19.71661444677581 a41.59208297587244,41.59208297587244 0 0,0 0.6872790313279471,-0.20063559567657216 l 5.6001849459077 19.815948371371082" fill="red" stroke="none" /><path d="M 94.28887869178378 79.79150937346287 l -6.700355419643932 -23.708841466481257 a45.637449673866264,45.637449673866264 0 0,0 0.757803572939205,-0.20713634268009642 l 6.291253957481004 23.82066434998765" fill="red" stroke="none" /><path d="M 94.63758080256005 79.69619591428918 l -4.92271693236426 -18.63895314485148 a40.278063085594326,40.278063085594326 0 0,0 0.6718594038032637,-0.17127192160309937 l 4.601148639875996 18.720928062623443" fill="red" stroke="none" /><path d="M 94.98787191387505 79.60689891045804 l -4.232882735978381 -17.222545803238305 a38.735088953856,38.735088953856 0 0,0 0.6488612751126542,-0.15356449995216692 l 3.9357977739031926 17.29285621533134" fill="red" stroke="none" /><path d="M 95.33964822691252 79.52364482259891 l -6.470039314607454 -28.427644407169083 a50.1546287109443,50.1546287109443 0 0,0 0.843451049840414,-0.18434573069039645 l 5.979745540613519 28.53480363595535" fill="red" stroke="none" /><path d="M 95.692805502759 79.44645832069477 l -1.3774696972524547 -6.573160523072175 a27.715940889326173,27.715940889326173 0 0,0 0.4677838306857373,-0.09383303575376033 l 1.264119457099581 6.595897514903146" fill="red" stroke="none" /><path d="M 96.04723909329186 79.375362276772 l -0.7618533723737254 -3.9751834665136263 a25.04753062415104,25.04753062415104 0 0,0 0.42414400448918105,-0.07750960576014998 l 0.693314246781651 3.9877085536245125" fill="red" stroke="none" /><path d="M 96.40284397218896 79.31037775812273 l -3.7833000467409685 -21.76025954658957 a43.086698593918754,43.086698593918754 0 0,0 0.7317984282070267,-0.12075301094504941 l 3.4081724123950563 21.822158820474247" fill="red" stroke="none" /><path d="M 96.75951476605007 79.25152402106235 l -2.34802828635501 -15.034170804697446 a36.21642299025432,36.21642299025432 0 0,0 0.6167674418681894,-0.09089548835932845 l 2.088891864058172 15.072360777217744" fill="red" stroke="none" /><path d="M 97.11714578562143 79.19881850522333 l -0.5283004945717793 -3.8119424896887204 a24.848377184900023,24.848377184900023 0 0,0 0.42417986863181134,-0.05507072099215502 l 0.46260589743211017 3.820471533845012" fill="red" stroke="none" /><path d="M 97.47563105711357 79.15227682838746 l -0.5327654722846545 -4.399890559928982 a25.432028428136586,25.432028428136586 0 0,0 0.4350491146987653,-0.048882837086207956 l 0.4569496540761712 4.408409350485789" fill="red" stroke="none" /><path d="M 97.83486435360386 79.11191278185805 l -0.48721246192226125 -4.700368965490593 a25.725552284632926,25.725552284632926 0 0,0 0.440856183760274,-0.0418646067320754 l 0.4062311510717509 4.70805911673785" fill="red" stroke="none" /><path d="M 98.55514903715128 79.0497635885617 l -0.6018409904819686 -8.726651645669868 a29.74738026626812,29.74738026626812 0 0,0 0.5111420832223247,-0.030833486328449858 l 0.4515368584200209 8.735718401378623" fill="red" stroke="none" /><path d="M 98.91598698831166 79.02799685794201 l -0.3564863624305533 -6.896811230476138 a27.906018221480505,27.906018221480505 0 0,0 0.4799292529618216,-0.020666763190539707 l 0.23771627707940765 6.90192572019087" fill="red" stroke="none" /><path d="M 99.27714615592234 79.0124445844662 l -0.13265265825656722 -3.851477084873134 a24.853760820684826,24.853760820684826 0 0,0 0.4276898655158362,-0.011045967418263318 l 0.06633615754585198 3.8531898444337567" fill="red" stroke="none" /></svg>