<?xml version="1.0" encoding="utf-8" ?>
<svg baseProfile="full" height="200mm" version="1.1" viewBox="0,0,200,200" width="200mm" xmlns="http://www.w3.org/2000/svg" xmlns:ev="http://www.w3.org/2001/xml-events" xmlns:xlink="http://www.w3.org/1999/xlink"><defs /><rect fill="#1a1a1a" height="200" width="200" x="0" y="0" /><rect fill="#1a1a1a" height="200" width="180" x="10" y="0" /><text alignment-baseline="middle" fill="#e1ed5e" style="dominant-baseline: central; font-size:9.0px; font-family:Arial;" text-anchor="middle" x="100.0" y="100.0">2020</text><line stroke="#e1ed5e" stroke-width="0.3" x1="100.0" x2="100.0" y1="15.0" y2="10.0" /><path d="M 100.0 14.0 a86.0,86.0 0 0,1 42.35913384403234,11.155469271406648" fill="none" id="id25" stroke="none" /><text fill="#e1ed5e" style="font-size:6.75px; font-family:Arial;" text-anchor="middle"><textPath startOffset="22.145653131862478" xlink:href="#id25">January</textPath></text><path d="M 101.08105385017728 79.02784411241856 l 0.6924305369536359 -13.43296743259553 a34.450801987007246,34.450801987007246 0 0,0 0.5903483651709879,0.035513891684375555 l -0.9229232542570861 13.419101563086464" fill="red" stroke="none" /><path d="M 101.44090949804482 79.04949213459386 l 0.3451000860622259 -5.017679512286851 a26.02953295619219,26.02953295619219 0 0,0 0.4455152950464451,0.034485701472243294 l -0.43118437588390457 5.011016043819554" fill="red" stroke="none" /><path d="M 102.15924093988457 79.11130261209362 l 4.045989695212454 -39.1412800752095 a60.34983911707591,60.34983911707591 0 0,0 1.0295800333245797,0.11536659023246065 l -4.71730563013783 39.06605772447006" fill="red" stroke="none" /><path d="M 102.51750503828377 79.15144685158666 l 3.4540649462510356 -28.60461270777763 a49.812400677744186,49.812400677744186 0 0,0 0.8480494279597955,0.10979697699043046 l -3.9445921961016226 28.541104134586803" fill="red" stroke="none" /><path d="M 102.87502721639298 79.19773525538626 l 3.0531339139311218 -22.090956084247594 a43.300940953523735,43.300940953523735 0 0,0 0.7354456448421941,0.10808518333010388 l -3.4319046643809976 22.03528982761861" fill="red" stroke="none" /><path d="M 103.23170211078529 79.25015418208739 l 4.739639192511229 -30.431883603667224 a51.79876165274082,51.79876165274082 0 0,0 0.8774278492319917,0.1443804186906689 l -5.261344544796291 30.34603718648089" fill="red" stroke="none" /><path d="M 103.58742460773223 79.30868818359171 l 7.148573510459646 -41.23107234884572 a62.84618776268868,62.84618776268868 0 0,0 1.0613980918168806,0.19342208935975297 l -7.8553063358275805 41.102282085554606" fill="red" stroke="none" /><path d="M 103.94208987418118 79.37332000966035 l 4.200403511944653 -21.978286096071713 a43.376068675795935,43.376068675795935 0 0,0 0.7301710819402112,0.146054666021847 l -4.577071079415821 21.902942033387006" fill="red" stroke="none" /><path d="M 104.29559338865022 79.4440306129975 l 1.116671791872038 -5.343678763846794 a26.45910785952704,26.45910785952704 0 0,0 0.4438043909930229,0.09672510140278821 l -1.2082385994841949 5.323722204310287" fill="red" stroke="none" /><path d="M 104.9986988182912 79.60360301121754 l 0.9353929029301713 -3.816722247565908 a24.929672835989873,24.929672835989873 0 0,0 0.41477598716750147,0.10543443396909837 l -1.0007741833230672 3.8001025817615424" fill="red" stroke="none" /><path d="M 105.3480935250658 79.69241777938227 l 1.0828005978454835 -4.111570238295456 a25.251760454109743,25.251760454109743 0 0,0 0.41823961643243696,0.11399306728762375 l -1.1532216152126133 4.09237667686369" fill="red" stroke="none" /><path d="M 106.38641147887787 79.99465700312896 l 1.3969413244967133 -4.375898802557327 a25.593466598801964,25.593466598801964 0 0,0 0.41738954166007824,0.13720423275339344 l -1.4718536038045338 4.351273648401912" fill="red" stroke="none" /><path d="M 106.72888874123014 80.10723608172694 l 1.5750987318076324 -4.65649952388608 a25.915681420809662,25.915681420809662 0 0,0 0.4201971398717071,0.14616637754922643 l -1.6548016437243578 4.628774713768262" fill="red" stroke="none" /><path d="M 107.06938296918511 80.22567764915836 l 1.6243133055297763 -4.5434934056217005 a25.825114096210466,25.825114096210466 0 0,0 0.4161666080917908,0.15282214299947444 l -1.7020690652756918 4.514940413613504" fill="red" stroke="none" /><path d="M 107.74402155503746 80.48000691201159 l 10.060366901536433 -25.358696509938685 a48.28139422530869,48.28139422530869 0 0,0 0.7677788670975001,0.31224898123408684 l -10.494200229824372 25.182260272125305" fill="red" stroke="none" /><path d="M 108.73861861582097 80.90454125486305 l 2.2814529383900584 -4.985386407083291 a26.482618456360015,26.482618456360015 0 0,0 0.41175589582077743,0.19272255001812746 l -2.3666975480823407 4.94548762549463" fill="red" stroke="none" /><path d="M 109.06512990194946 81.05736502329252 l 2.0757671020065476 -4.337554887273273 a25.808657968901606,25.808657968901606 0 0,0 0.39799377921569823,0.19467870113700822 l -2.1499211304843127 4.3012824360390445" fill="red" stroke="none" /><path d="M 109.3889696526874 81.21577127319529 l 5.903614816483802 -11.811184307752413 a34.20442132973285,34.20442132973285 0 0,0 0.5229575517150786,0.26702585212580066 l -6.105499589912459 11.708100503953778" fill="red" stroke="none" /><path d="M 110.02825361518725 81.54914285379988 l 2.5730614986187734 -4.734143347502095 a26.388205518572267,26.388205518572267 0 0,0 0.3961445311362464,0.2197346936182714 l -2.6539502179111203 4.689275738450678" fill="red" stroke="none" /><line stroke="#e1ed5e" stroke-width="0.3" x1="143.13028292997686" x2="145.6673583964461" y1="26.7553504044142" y2="22.446841604673864" /><path d="M 143.63769802327073 25.89364864446614 a86.0,86.0 0 0,1 29.32050498858742,28.57503671076993" fill="none" id="id26" stroke="none" /><text fill="#e1ed5e" style="font-size:6.75px; font-family:Arial;" text-anchor="middle"><textPath startOffset="20.669276256404974" xlink:href="#id26">February</textPath></text><path d="M 110.65571695917076 81.90426304109057 l 2.5721696553142572 -4.368106404721712 a26.06916268220801,26.06916268220801 0 0,0 0.38367258328789683,0.2303843624556782 l -2.6467749951595883 4.323308041730113" fill="red" stroke="none" /><line stroke="#e1ed5e" stroke-width="0.3" x1="172.87174338648825" x2="177.1583165268699" y1="56.24261187166439" y2="53.66864786411523" /><path d="M 173.72905801456457 55.72781907015455 a86.0,86.0 0 0,1 12.242430191666344,42.057860355516425" fill="none" id="id27" stroke="none" /><text fill="#e1ed5e" style="font-size:6.75px; font-family:Arial;" text-anchor="middle"><textPath startOffset="22.145653131862474" xlink:href="#id27">March</textPath></text><path d="M 119.16976305983485 91.42560881287824 l 17.032587605762096 -7.618459790289345 a39.65877729445893,39.65877729445893 0 0,0 0.2726373200930741,0.6238475431748621 l -17.16085880787214 7.324950177338633" fill="red" stroke="none" /><path d="M 119.4528033332814 92.08871423366111 l 21.729817331567325 -8.83732753655377 a44.45811840816768,44.45811840816768 0 0,0 0.28144386522355935,0.7094223931036122 l -21.87831987175701 8.463004126236592" fill="red" stroke="none" /><path d="M 119.71291397450082 92.76114493625339 l 17.531719374160115 -6.437890193808199 a39.67639189891433,39.67639189891433 0 0,0 0.2292914368629577,0.641368957457752 l -17.639650981067017 6.13598627996953" fill="red" stroke="none" /><path d="M 119.94978838288452 93.4421083053983 l 17.647991116885084 -5.801245213764581 a39.57702980812275,39.57702980812275 0 0,0 0.2066209005574049,0.6472370281251608 l -17.744976733219744 5.497439151948033" fill="red" stroke="none" /><path d="M 120.05942366710727 93.78553927170692 l 21.893354388299752 -6.7826171536418824 a43.91992281454196,43.91992281454196 0 0,0 0.2169302866419494,0.7220903714790102 l -22.00656099494533 6.405789178572149" fill="red" stroke="none" /><path d="M 120.26092885502905 94.47779374421319 l 21.714192163514696 -5.918299632889456 a43.506274944083984,43.506274944083984 0 0,0 0.19020636623183357,0.7222445536964243 l -21.81258801055126 5.544674574820233" fill="red" stroke="none" /><path d="M 120.43855184770803 95.1765574152323 l 3.813470453563197 -0.8999686434992136 a24.918226698326848,24.918226698326848 0 0,0 0.09467637332239305,0.417161569821696 l -3.8283576884432566 0.8343727397384912" fill="red" stroke="none" /><path d="M 120.51834098615036 95.52812308129327 l 4.050828041892288 -0.8828591178212403 a25.145919445298112,25.145919445298112 0 0,0 0.08830084111058815,0.42255148997848346 l -4.0653865938272435 0.8131911765573524" fill="red" stroke="none" /><path d="M 120.592083275326 95.88100663000786 l 32.23951787353147 -6.448806495063904 a53.87816323836436,53.87816323836436 0 0,0 0.1736254795889194,0.9084818763533898 l -32.345469645402545 5.8944220536772" fill="red" stroke="none" /><path d="M 120.65975698304385 96.23510406497455 l 44.843004166050136 -8.171889158118141 a66.58151813014743,66.58151813014743 0 0,0 0.1952588069375828,1.1262009104072495 l -44.976677790479954 7.400895214790299" fill="red" stroke="none" /><path d="M 120.7213421655516 96.59031103205396 l 17.213343972254446 -2.832449200188868 a38.44482671678911,38.44482671678911 0 0,0 0.10156483910716271,0.6521191247675309 l -17.259430303499876 2.536541893489896" fill="red" stroke="none" /><path d="M 120.77682067341334 96.94652285012252 l 36.152998347943814 -5.313245760274879 a57.54134466676763,57.54134466676763 0 0,0 0.13523718495673615,0.9785089020186365 l -36.238880049455766 4.691848550056156" fill="red" stroke="none" /><path d="M 120.82617615685814 97.30363454192243 l 38.61809557285003 -4.999885633113753 a59.940418102763054,59.940418102763054 0 0,0 0.12335713424404328,1.021574030801582 l -38.69823479335374 4.336217925388759" fill="red" stroke="none" /><path d="M 120.86939407059847 97.66154086499901 l 34.867420168059084 -3.906967156309829 a56.08562927377044,56.08562927377044 0 0,0 0.09899809968280489,0.9577168105947674 l -34.929350660223555 3.30784582343213" fill="red" stroke="none" /><path d="M 120.9064616781168 98.02013634271609 l 16.948095372980003 -1.6050022526895293 a38.023923431534946,38.023923431534946 0 0,0 0.05596103448034445,0.6503520472765117 l -16.973150030158088 1.3138291580373556" fill="red" stroke="none" /><path d="M 120.93736805541906 98.37931529534042 l 19.614862206914285 -1.5183143878737584 a40.67353801370406,40.67353801370406 0 0,0 0.047909629326721166,0.6965954956922537 l -19.638035797406072 1.1813754680271706" fill="red" stroke="none" /><path d="M 120.96210409425399 98.7389718711861 l 27.632067886608752 -1.6622765875807597 a48.682021948256846,48.682021948256846 0 0,0 0.043021949971423355,0.8346143360393119 l -27.656531426036747 1.187690458164717" fill="red" stroke="none" /><path d="M 120.98066250479742 99.09900007780936 l 3.834278839825262 -0.1646604312685474 a24.837812824924804,24.837812824924804 0 0,0 0.014636938477244957,0.4261384934642555 l -3.836540465299355 0.09881567324017194" fill="red" stroke="none" /><path d="M 120.99303781780057 99.45929381324524 l 22.204031516703676 -0.571897088748123 a43.2113953158033,43.2113953158033 0 0,0 0.01273412741090148,0.7416990812791019 l -22.210577075713246 0.19065109149995466" fill="red" stroke="none" /><line stroke="#e1ed5e" stroke-width="0.3" x1="184.99686870605535" x2="189.99668451229388" y1="99.2704041080226" y2="99.22748670261217" /><path d="M 185.99683186730306 99.26182062694052 a86.0,86.0 0 0,1 -10.086455211305974,41.156179273409016" fill="none" id="id28" stroke="none" /><text fill="#e1ed5e" style="font-size:6.75px; font-family:Arial;" text-anchor="middle"><textPath startOffset="21.40746469413373" xlink:href="#id28">April</textPath></text><path d="M 120.99922638620191 100.18025310272382 l 4.661602615201478 0.04001425193490396 a25.66177434915196,25.66177434915196 0 0,0 -0.00756236408853641,0.440469795517029 l -4.6602288195142725 -0.12003096342100397" fill="red" stroke="none" /><path d="M 120.99303781780057 100.54070618675476 l 18.635403831293395 0.47998189836583066 a39.64158412201451,39.64158412201451 0 0,0 -0.023360810069085577,0.680124496281745 l -18.624418334227464 -0.7998126592116863" fill="red" stroke="none" /><path d="M 120.98066250479742 100.90099992219065 l 4.203116280334972 0.1804998979738654 a25.206990216197973,25.206990216197973 0 0,0 -0.022276270142683713,0.43215368961466916 l -4.199398420735715 -0.2526253809652652" fill="red" stroke="none" /><path d="M 120.96210409425399 101.26102812881392 l 9.681536524189168 0.5824171959192015 a30.69903908948259,30.69903908948259 0 0,0 -0.03616060110059979,0.5257672038416795 l -9.670111961923501 -0.7485278239152244" fill="red" stroke="none" /><path d="M 120.93736805541906 101.62068470465957 l 5.245678439788542 0.4060486872287352 a26.261370337665134,26.261370337665134 0 0,0 -0.03864970572048747,0.44916816630297823 l -5.237935111370314 -0.49603790090737077" fill="red" stroke="none" /><path d="M 120.9064616781168 101.97986365728391 l 4.218929943165719 0.3995370520227169 a25.23780600326151,25.23780600326151 0 0,0 -0.0445478613120357,0.4309601476319173 l -4.211449689372017 -0.4719017219375656" fill="red" stroke="none" /><path d="M 120.86939407059847 102.33845913500097 l 4.086379464700072 0.45788734239154993 a25.111953057592565,25.111953057592565 0 0,0 -0.051680296242590996,0.4279869897197582 l -4.077917082197818 -0.5279680090347167" fill="red" stroke="none" /><path d="M 120.82617615685814 102.69636545807757 l 18.422349369557868 2.385141954172675 a39.57610988435425,39.57610988435425 0 0,0 -0.0930141922003061,0.6730043597933849 l -18.37869066080235 -2.701034622166145" fill="red" stroke="none" /><path d="M 120.77682067341334 103.0534771498775 l 22.01824637442587 3.2359239770844552 a43.25476078034514,43.25476078034514 0 0,0 -0.11427188504808262,0.733707475127949 l -21.95945299723952 -3.6134196341438547" fill="red" stroke="none" /><path d="M 120.7213421655516 103.40968896794604 l 31.030276476708035 5.106020185837237 a52.44756747920445,52.44756747920445 0 0,0 -0.15380919120453151,0.8871305416657626 l -30.938052468011268 -5.637943760423588" fill="red" stroke="none" /><path d="M 120.65975698304385 103.76489593502545 l 8.828730291590434 1.6088887596076487 a29.974129573526245,29.974129573526245 0 0,0 -0.09659335637407152,0.5054172570164149 l -8.799810642934203 -1.7602085816573783" fill="red" stroke="none" /><path d="M 120.592083275326 104.11899336999214 l 22.25463488245207 4.4515502538906935 a43.69548574968526,43.69548574968526 0 0,0 -0.15343834027729295,0.7342580035312748 l -22.174938831350413 -4.832924708707377" fill="red" stroke="none" /><path d="M 120.51834098615036 104.47187691870673 l 18.127892335874503 3.9508897613270046 a39.55343662093942,39.55343662093942 0 0,0 -0.15028260144849026,0.662172870982926 l -18.057398872868347 -4.261496966248948" fill="red" stroke="none" /><path d="M 120.43855184770803 104.8234425847677 l 28.84007317873108 6.806178742732599 a50.63231158773458,50.63231158773458 0 0,0 -0.20689923312100567,0.844219475670147 l -28.718986419093778 -7.300254043010845" fill="red" stroke="none" /><path d="M 120.26092885502905 105.52220625578681 l 4.081342787237664 1.1123881255868444 a25.230220595770806,25.230220595770806 0 0,0 -0.11747852453073644,0.4168898392815041 l -4.061645770632348 -1.182285888771357" fill="red" stroke="none" /><path d="M 120.16314734710363 105.8691983318838 l 15.306370653803217 4.455461419885997 a36.94164731311356,36.94164731311356 0 0,0 -0.18246302878305548,0.6073600799348524 l -15.227631305016532 -4.717559103411573" fill="red" stroke="none" /><path d="M 120.05942366710727 106.21446072829308 l 51.70448458242888 16.018181491476287 a75.12888197837177,75.12888197837177 0 0,0 -0.3922274442398031,1.2286468826437247 l -51.42189242241183 -16.903397407811394" fill="red" stroke="none" /><path d="M 119.94978838288452 106.5578916946017 l 4.479694048468953 1.472564411761621 a25.715517438699067,25.715517438699067 0 0,0 -0.14145319790380093,0.41818124501648846 l -4.453755428992787 -1.5492473312522699" fill="red" stroke="none" /><path d="M 119.58574465831526 107.57618678355244 l 7.220660279422935 2.7931065135305304 a28.742052626194347,28.742052626194347 0 0,0 -0.1819526933485552,0.4586396475348539 l -7.171648911108256 -2.9166471782789487" fill="red" stroke="none" /><path d="M 119.31412917781788 108.2440532568976 l 38.28038254160381 16.339619014759545 a62.621759178091175,62.621759178091175 0 0,0 -0.4304981082766416,0.9850639197088638 l -37.994250551310195 -16.994345004244252" fill="red" stroke="none" /><path d="M 119.16976305983485 108.57439118712176 l 20.341681229882667 9.098575278386814 a43.2838072903764,43.2838072903764 0 0,0 -0.30920207208459244,0.6756623295943599 l -20.182494692943017 -9.446426590195863" fill="red" stroke="none" /><path d="M 119.0197475246899 108.90220220490707 l 16.799093174057628 7.862823841399726 a39.548140883429625,39.548140883429625 0 0,0 -0.2930719538373934,0.6124076658028222 l -16.661641962260322 -8.150044009267651" fill="red" stroke="none" /><path d="M 118.8641267826498 109.22738970284198 l 3.816466015258971 1.8668247736140489 a25.24858183174172,25.24858183174172 0 0,0 -0.19378898147241946,0.38770777703712017 l -3.7838571205748193 -1.9320644068149149" fill="red" stroke="none" /><path d="M 118.70294669586154 109.54985784667822 l 22.742426400693887 11.612444966398053 a46.53559939943846,46.53559939943846 0 0,0 -0.36938613930002806,0.7083466274959211 l -22.53973219241891 -12.001137836998478" fill="red" stroke="none" /><path d="M 118.5362547648365 109.86951160357373 l 3.9337281150990817 2.094488653173031 a25.456579361101017,25.456579361101017 0 0,0 -0.20868897713808207,0.3839642128047104 l -3.8971937883456604 -2.1617076994523448" fill="red" stroke="none" /><line stroke="#e1ed5e" stroke-width="0.3" x1="174.33088141563837" x2="178.70328620479359" y1="141.23008692659167" y2="143.65538615756765" /><path d="M 175.20536237346943 141.71514677278685 a86.0,86.0 0 0,1 -30.301960400862466,31.631185727798858" fill="none" id="id29" stroke="none" /><text fill="#e1ed5e" style="font-size:6.75px; font-family:Arial;" text-anchor="middle"><textPath startOffset="22.145653131862474" xlink:href="#id29">May</textPath></text><path d="M 118.36410011445183 110.18625677009912 l 30.14614250937734 16.72155707683496 a55.47318348034508,55.47318348034508 0 0,0 -0.4690565010550734,0.8287778932384502 l -29.854652643300888 -17.236591740172532" fill="red" stroke="none" /><path d="M 118.18653347947321 110.5 l 22.627911460611585 13.06423077298311 a47.12846154596623,47.12846154596623 0 0,0 -0.41052545799502976,0.6971619771131804 l -22.40031229248679 -13.45074391838984" fill="red" stroke="none" /><path d="M 118.00360718960297 110.81064883170644 l 28.03790944032863 16.835959024346167 a53.704340416121106,53.704340416121106 0 0,0 -0.48137511019554075,0.7862900657604334 l -27.744766365677684 -17.314786206231158" fill="red" stroke="none" /><path d="M 117.81537515405839 111.11811171558189 l 32.666358371986526 20.386223617538853 a59.505701950118414,59.505701950118414 0 0,0 -0.5482524083205093,0.8619438481844145 l -32.311588272040126 -20.94398114040194" fill="red" stroke="none" /><path d="M 117.62189284568427 111.42229804090321 l 7.296506047966054 4.729507066406455 a29.695242239247495,29.695242239247495 0 0,0 -0.28093899586987775,0.42537744681721357 l -7.21424261317545 -4.85406439156273" fill="red" stroke="none" /><path d="M 117.423217284605 111.72311816256416 l 18.55483078849022 12.484518230284223 a43.36392052015486,43.36392052015486 0 0,0 -0.4208577168539187,0.6140439863751145 l -18.337783334820983 -12.801196951729382" fill="red" stroke="none" /><path d="M 117.21940702142032 112.02048342749411 l 18.28847131552298 12.76677333249496 a43.3037818403519,43.3037818403519 0 0,0 -0.4307383906191422,0.6058874892523245 l -18.06661782637388 -13.078838048456788" fill="red" stroke="none" /><path d="M 117.01052211995028 112.31430620078461 l 20.80261293509912 15.059487513247591 a46.68144990239479,46.68144990239479 0 0,0 -0.4754794217629024,0.6450791540883786 l -20.54103149375239 -15.414372976604847" fill="red" stroke="none" /><path d="M 116.79662413953412 112.60449989151573 l 17.80242527499159 13.359271814578593 a43.25750410732195,43.25750410732195 0 0,0 -0.4508009161178792,0.5901128701021234 l -17.57047238151941 -13.662905597921593" fill="red" stroke="none" /><path d="M 116.57777611688842 112.89097897827486 l 16.78812076034579 13.054544245285511 a42.26645537263016,42.26645537263016 0 0,0 -0.45030594879274716,0.5689468559648879 l -16.561548380911482 -13.340811045165081" fill="red" stroke="none" /><path d="M 116.35404254752997 113.17365903436017 l 17.29160926590855 13.928896415820255 a43.20391646461283,43.20391646461283 0 0,0 -0.47020916806361385,0.5735787300963321 l -17.04995327860631 -14.22367742761508" fill="red" stroke="none" /><path d="M 116.1254893667686 113.45245675266167 l 17.276838292510977 14.4129529756595 a43.49938565526058,43.49938565526058 0 0,0 -0.4832687217844253,0.5692893391001365 l -17.026875007219438 -14.707409097209194" fill="red" stroke="none" /><path d="M 115.89218393027572 113.72728997021213 l 6.49716464008921 5.612096071251933 a29.585381218873565,29.585381218873565 0 0,0 -0.33528539993616024,0.38149323763539617 l -6.399868176194464 -5.722801586698623" fill="red" stroke="none" /><path d="M 115.6541949942343 113.99807769240083 l 16.652829518071954 14.891062841502512 a43.339661669495925,43.339661669495925 0 0,0 -0.500681026940703,0.5503361550141918 l -16.394750790289372 -15.174736572074375" fill="red" stroke="none" /><path d="M 115.41159269507618 114.26474011684316 l 16.62710750607684 15.389802479322906 a43.65627339990428,43.65627339990428 0 0,0 -0.5137806329333922,0.5456172276572743 l -16.360471039407187 -15.67296116692468" fill="red" stroke="none" /><path d="M 115.16444852881244 114.52719865689866 l 19.206254716123897 18.399157554988168 a47.59716561880062,47.59716561880062 0 0,0 -0.5702892903572022,0.5851670516508568 l -18.88757862461589 -18.72614729870676" fill="red" stroke="none" /><path d="M 114.91283532996324 114.78537596483092 l 6.113735523687724 6.061481687901682 a29.60925794167933,29.60925794167933 0 0,0 -0.36096234628694834,0.3578772165663792 l -6.008781257270812 -6.1655389146967225" fill="red" stroke="none" /><path d="M 114.65682725009322 115.03919595460226 l 15.633343530306005 16.041187684489508 a43.39913239984037,43.39913239984037 0 0,0 -0.5379994406310779,0.5153912940848697 l -15.355671603809617 -16.30719110887996" fill="red" stroke="none" /><path d="M 114.39649973595853 115.28858382429668 l 3.737757160483181 3.9693685764588738 a26.45222115165209,26.45222115165209 0 0,0 -0.3332604856831479,0.3084609302581574 l -3.669066903486066 -4.032947252849411" fill="red" stroke="none" /><path d="M 114.13192950727249 115.5334660781643 l 18.112994792181333 19.909354206269196 a47.91584970333051,47.91584970333051 0 0,0 -0.6131745040361705,0.548304422530767 l -17.768555261321787 -20.21735415868335" fill="red" stroke="none" /><path d="M 113.86319453409587 115.77377054828091 l 12.222665176415783 13.90714928706148 a39.51492223336036,39.51492223336036 0 0,0 -0.5133562686112227,0.4434249180710358 l -11.982129428041706 -14.114918337597235" fill="red" stroke="none" /><path d="M 113.59037401385872 116.0094264158162 l 8.985490206753248 10.584884869861577 a34.88448133578936,34.88448133578936 0 0,0 -0.4598533225331826,0.38362599690734855 l -8.802462550058172 -10.737573050680796" fill="red" stroke="none" /><path d="M 113.31354834802062 116.24036423190432 l 9.121224660759106 11.126410995741734 a35.38727774661359,35.38727774661359 0 0,0 -0.4730929031707848,0.38109015430492305 l -8.92888098723307 -11.281349443840062" fill="red" stroke="none" /><path d="M 112.7482090630111 116.68781488649013 l 2.606623012171711 3.4121531966555674 a25.293864572274018,25.293864572274018 0 0,0 -0.3473052499195748,0.2606243343048059 l -2.54766477334137 -3.4563965582243883" fill="red" stroke="none" /><path d="M 112.45986205192187 116.90419585922612 l 11.763492105651352 15.959436285389586 a40.82632979315969,40.82632979315969 0 0,0 -0.5677173131589364,0.410983553616301 l -11.487793782118448 -16.159020610378963" fill="red" stroke="none" /><path d="M 112.16784306229584 117.11559508785304 l 13.083901431708902 18.40414590556506 a43.58098897719056,43.58098897719056 0 0,0 -0.6134644891980883,0.42824585751348115 l -12.766041851337055 -18.626036578883664" fill="red" stroke="none" /><path d="M 111.8722381534696 117.32195027204791 l 2.472452237938069 3.6073817052819686 a25.373353728717586,25.373353728717586 0 0,0 -0.3613935373184367,0.2431617003889702 l -2.410162412522629 -3.6492930797280603" fill="red" stroke="none" /><path d="M 111.5731344415666 117.5232005979908 l 15.255649960823138 23.09899844903619 a48.68209863929647,48.68209863929647 0 0,0 -0.7012873471556506,0.45456598571293816 l -14.856876981410478 -23.357478276453023" fill="red" stroke="none" /><path d="M 111.27062007382361 117.71928675628689 l 2.2209618365506834 3.491720899013515 a25.138210520988792,25.138210520988792 0 0,0 -0.36610316739781723,0.22847545332942612 l -2.160694540363151 -3.529332149184489" fill="red" stroke="none" /><path d="M 110.96478420261333 117.91015095944535 l 1.995554579878197 3.259588434482157 a24.82193077429232,24.82193077429232 0 0,0 -0.3653164629206029,0.21936203958929337 l -1.9393053604001576 -3.2933644746073734" fill="red" stroke="none" /><line stroke="#e1ed5e" stroke-width="0.3" x1="143.1302829299769" x2="145.66735839644613" y1="173.24464959558577" y2="177.55315839532614" /><path d="M 143.63769802327073 174.10635135553383 a86.0,86.0 0 0,1 -40.68552437913181,11.842963189579606" fill="none" id="id30" stroke="none" /><text fill="#e1ed5e" style="font-size:6.75px; font-family:Arial;" text-anchor="middle"><textPath startOffset="21.407464694133747" xlink:href="#id30">June</textPath></text><path d="M 110.65571695917076 118.09573695890943 l 9.693620398358776 16.461886664252205 a40.1039260094401,40.1039260094401 0 0,0 -0.59622608421507,0.3442312902194484 l -9.409601846283309 -16.625864851747828" fill="red" stroke="none" /><path d="M 109.71004243097381 118.62028667847754 l 10.628663315185195 20.381863348656633 a43.98671001754875,43.98671001754875 0 0,0 -0.6725207234768275,0.34339387330713883 l -10.277215369994785 -20.56131517363661" fill="red" stroke="none" /><path d="M 109.06512990194946 118.94263497670748 l 10.086092541126193 21.07605422253889 a44.36513052263053,44.36513052263053 0 0,0 -0.6897959917239328,0.3228593539682639 l -9.722807835530753 -21.246089808077688" fill="red" stroke="none" /><path d="M 108.73861861582097 119.09545874513695 l 1.7367620148240153 3.795138438030715 a25.17365763569004,25.17365763569004 0 0,0 -0.39449111090508093,0.1764508561834848 l -1.6713575010633073 -3.82439304512405" fill="red" stroke="none" /><path d="M 108.4095320186766 119.2426549942271 l 10.719344712029727 24.527958464238196 a47.76798642929113,47.76798642929113 0 0,0 -0.7541994680803703,0.3219229054509651 l -10.296710168778926 -24.708356019348567" fill="red" stroke="none" /><path d="M 108.07796709384702 119.3841803445677 l 7.131597278015655 17.113237300407036 a39.53975648804059,39.53975648804059 0 0,0 -0.6287678707046417,0.2557144191822647 l -6.836774946120572 -17.233138976168593" fill="red" stroke="none" /><path d="M 107.74402155503746 119.51999308798841 l 9.858100490584059 24.84885302413972 a47.732894379355024,47.732894379355024 0 0,0 -0.7642439562764699,0.29562598011780994 l -9.430084271814058 -25.01441889239557" fill="red" stroke="none" /><path d="M 107.407793817531 119.65005319985036 l 9.187283496342701 24.37036098899036 a47.04459008653955,47.04459008653955 0 0,0 -0.7581142686318902,0.27839006041842707 l -8.767580076056683 -24.52448189841751" fill="red" stroke="none" /><path d="M 106.72888874123015 119.89276391827305 l 1.3085235575952876 3.8684173886315607 a25.083734442082253,25.083734442082253 0 0,0 -0.40907660482359853,0.13447160529933597 l -1.2419242151239547 -3.890309915332916" fill="red" stroke="none" /><path d="M 106.38641147887787 120.00534299687104 l 9.321611024634493 29.199813768340718 a51.65161588237017,51.65161588237017 0 0,0 -0.8469865598290929,0.2623986013157987 l -8.818983831933776 -29.35552895746316" fill="red" stroke="none" /><path d="M 106.0420521117495 120.11202640906438 l 1.111425240973044 3.6995731557300657 a24.862914392122935,24.862914392122935 0 0,0 -0.4098118514212668,0.11929025728681222 l -1.0477533771701704 -3.718107107319396" fill="red" stroke="none" /><path d="M 105.69591212413111 120.21278271476187 l 6.217194028371553 22.062628294174967 a43.92189060338062,43.92189060338062 0 0,0 -0.7274690694270203,0.19827492978359681 l -5.837543558009838 -22.166103718102704" fill="red" stroke="none" /><path d="M 105.3480935250658 120.30758222061773 l 6.772808105393123 25.71745554188765 a47.594331147472886,47.594331147472886 0 0,0 -0.7918670178764108,0.20128949937229487 l -6.330335794291315 -25.829930273095215" fill="red" stroke="none" /><path d="M 104.9986988182912 120.39639698878246 l 6.199750232614299 25.297096619020802 a47.04572902221926,47.04572902221926 0 0,0 -0.7860396960839683,0.18550322800068858 l -5.764578382790452 -25.399795990667716" fill="red" stroke="none" /><path d="M 104.64783097203109 120.47920084513623 l 4.926046714765932 21.7050707418756 a43.25704455101531,43.25704455101531 0 0,0 -0.7255598493737148,0.15813239217267674 l -4.552724448773081 -21.786434592181994" fill="red" stroke="none" /><path d="M 104.29559338865022 120.5559693870025 l 3.4345536137008974 16.43558236396275 a37.79060827272167,37.79060827272167 0 0,0 -0.6361482303966637,0.12724746244960036 l -3.151908897773275 -16.492119223075214" fill="red" stroke="none" /><path d="M 103.94208987418118 120.62667999033965 l 8.422425054263522 44.069686861971434 a65.8672992713725,65.8672992713725 0 0,0 -1.1124211069692185,0.20272018238657938 l -7.664669213743247 -44.20777521828938" fill="red" stroke="none" /><path d="M 103.58742460773223 120.69131181640829 l 0.6872117653625262 3.9636548431909997 a25.02278755670793,25.02278755670793 0 0,0 -0.4238651652497456,0.06974685164223117 l -0.6190690970597083 -3.9748676933289016" fill="red" stroke="none" /><path d="M 103.2317021107853 120.74984581791261 l 3.0604013816737767 19.64997225416497 a40.88686667643759,40.88686667643759 0 0,0 -0.6944437549452868,0.1020593174928833 l -2.7226325211208042 -19.699612644956737" fill="red" stroke="none" /><path d="M 102.875027216393 120.80226474461374 l 2.5989143124970138 18.80444931751168 a39.9831944029072,39.9831944029072 0 0,0 -0.6807085119377115,0.08813134512951844 l -2.275727978668527 -18.846292258841594" fill="red" stroke="none" /><path d="M 102.51750503828377 120.84855314841334 l 2.380118291601745 19.710793800753653 a40.85397580682131,40.85397580682131 0 0,0 -0.6969768004025522,0.07809770423959302 l -2.0414055895983934 -19.748747265500217" fill="red" stroke="none" /><path d="M 102.15924093988457 120.88869738790638 l 0.45246131064700573 4.377152740696959 a25.400475809844124,25.400475809844124 0 0,0 -0.4341067551610197,0.04111036105284044 l -0.37725499210097074 -4.384274857254983" fill="red" stroke="none" /><path d="M 101.80034050326958 120.92268563240118 l 2.9325470843653463 34.08064232125057 a55.20657851102673,55.20657851102673 0 0,0 -0.944902667106581,0.0731414424161738 l -2.3470754224835293 -34.125961530661804" fill="red" stroke="none" /><path d="M 101.44090949804482 120.95050786540614 l 2.2831148980439098 33.19598954271529 a54.274409616967404,54.274409616967404 0 0,0 -0.9300453731115128,0.055949220139994 l -1.712925172799932 -33.230290740679976" fill="red" stroke="none" /><path d="M 101.08105385017728 120.97215588758144 l 0.46009315574354004 8.925684306549993 a29.937534674179165,29.937534674179165 0 0,0 -0.5134632752742273,0.022050322336770494 l -0.3068041198684832 -8.932267197312594" fill="red" stroke="none" /><path d="M 100.72087961077811 120.9876233191556 l 0.8163203236625183 23.766275539832964 a44.78029082887943,44.78029082887943 0 0,0 -0.7684866955603867,0.01979349126765914 l -0.40822031403138775 -23.776786748450668" fill="red" stroke="none" /><line stroke="#e1ed5e" stroke-width="0.3" x1="101.45913802915013" x2="101.54496967792366" y1="184.9874750549273" y2="189.98673829345242" /><path d="M 101.47630435890484 185.9873277026323 a86.0,86.0 0 0,1 -42.54439059252881,-10.42667462771756" fill="none" id="id31" stroke="none" /><text fill="#e1ed5e" style="font-size:6.75px; font-family:Arial;" text-anchor="middle"><textPath startOffset="22.145653131862474" xlink:href="#id31">July</textPath></text><path d="M 100.36049292484886 120.99690560180557 l 0.15837029068907313 9.224275469825603 a30.225634888298977,30.225634888298977 0 0,0 -0.5188632155379242,0.004453816667809581 l -1.1298144236057492e-15 -9.225634888298977" fill="red" stroke="none" /><path d="M 100.0 121.0 l 2.723855552256149e-15 22.241968493712662 a43.24196849371266,43.24196849371266 0 0,0 -0.7423058904057329,-0.006371803296702655 l 0.38181296555687805 -22.238691088610395" fill="red" stroke="none" /><path d="M 99.63950707515114 120.99690560180557 l -0.38133701783152735 22.21096951969258 a43.21424283935605,43.21424283935605 0 0,0 -0.7416113219913149,-0.01910127697802817 l 0.7625616538935861 -22.2011505253645" fill="red" stroke="none" /><path d="M 99.27912038922189 120.98762331915562 l -0.9274531482311917 27.00178647060222 a48.017709783513496,48.017709783513496 0 0,0 -0.8235591475698398,-0.03536717335356743 l 1.3908380564018703 -26.981886728822822" fill="red" stroke="none" /><path d="M 98.55909050195518 120.95050786540614 l -2.4210452624794576 35.20146677005413 a56.284624454940705,56.284624454940705 0 0,0 -0.9633542450732222,-0.07456971124672675 l 3.024968502327916 -35.154719291812356" fill="red" stroke="none" /><path d="M 98.19965949673042 120.92268563240118 l -2.237337779348759 26.001256387775175 a47.09733729869238,47.09733729869238 0 0,0 -0.8049169009478048,-0.07622646738870417 l 2.683354243681579 -25.959018164881286" fill="red" stroke="none" /><path d="M 97.84075906011543 120.88869738790638 l -3.123264421371502 30.21475007968842 a51.375745308121026,51.375745308121026 0 0,0 -0.8764802415429022,-0.09821143922771804 l 3.641480564515203 -30.15668287995373" fill="red" stroke="none" /><path d="M 97.48249496171623 120.84855314841334 l -3.157183588119397 26.146009177831935 a47.33593750251474,47.33593750251474 0 0,0 -0.8058879751781103,-0.10433833282615106 l 3.6055493851883016 -26.087959248805387" fill="red" stroke="none" /><path d="M 96.76829788921471 120.74984581791261 l -5.002874071888898 32.122040361233104 a53.50929445478426,53.50929445478426 0 0,0 -0.9064028492059389,-0.1491482439100984 l 5.5535544241479 -32.03142611882733" fill="red" stroke="none" /><path d="M 96.41257539226777 120.69131181640829 l -0.695732148228255 4.012798147356895 a25.072664016771974,25.072664016771974 0 0,0 -0.42344776495682157,-0.07716628856234789 l 0.7645146467361338 -4.000263684863181" fill="red" stroke="none" /><path d="M 96.05791012581884 120.62667999033965 l -6.936877389740243 36.29667374849373 a57.95360324954636,57.95360324954636 0 0,0 -0.9755620202313869,-0.19513972625412263 l 7.5589358955025885 -36.172244625576745" fill="red" stroke="none" /><path d="M 95.70440661134978 120.55596938700252 l -5.541756437888956 26.519310693711848 a48.09215576668832,48.09215576668832 0 0,0 -0.8066602250873502,-0.17580784159117765 l 5.996179079595443 -26.42027139398695" fill="red" stroke="none" /><path d="M 95.35216902796893 120.47920084513623 l -4.919668125271421 21.676965499634065 a43.22822457451645,43.22822457451645 0 0,0 -0.7222568597194781,-0.1704506522903276 l 5.291057138730787 -21.58931870369751" fill="red" stroke="none" /><path d="M 94.30408787586889 120.21278271476187 l -9.494409855838112 33.692311123957886 a56.0045089579073,56.0045089579073 0 0,0 -0.9231142874887726,-0.2687051154762092 l 10.071384155708492 -33.524362314179164" fill="red" stroke="none" /><path d="M 93.95794788825049 120.11202640906438 l -6.397082243740598 21.2938062511702 a43.23395704537445,43.23395704537445 0 0,0 -0.7089532422190534,-0.2196355266772054 l 6.761676118831285 -21.180854136686342" fill="red" stroke="none" /><path d="M 93.61358852112213 120.00534299687104 l -6.759062610423056 21.172667358821382 a43.225363224454156,43.225363224454156 0 0,0 -0.7049382886329982,-0.2317272173272377 l 7.121523636703798 -21.05351922009212" fill="red" stroke="none" /><path d="M 93.27111125876986 119.89276391827306 l -7.127248008158546 21.070442307143935 a43.24322825465047,43.24322825465047 0 0,0 -0.7011461723261004,-0.2438950350130961 l 7.487899952529667 -20.944988839562246" fill="red" stroke="none" /><path d="M 92.93061703081489 119.77432235084164 l -4.017305343293958 11.237118032270125 a32.93363163049826,32.93363163049826 0 0,0 -0.5307189628184601,-0.1948873543705523 l 4.209613457766538 -11.166499828890853" fill="red" stroke="none" /><path d="M 92.59220618246901 119.65005319985036 l -9.918702353872217 26.310536406375185 a49.11805438461033,49.11805438461033 0 0,0 -0.7864215379265413,-0.3042047451287727 l 10.368896154292287 -26.13639177310837" fill="red" stroke="none" /><path d="M 92.25597844496254 119.51999308798841 l -9.31058001631199 23.46874376212837 a46.24814515984466,46.24814515984466 0 0,0 -0.735445797826049,-0.299099403441794 l 9.71208027532848 -23.305457102107283" fill="red" stroke="none" /><path d="M 91.92203290615298 119.3841803445677 l -2.894872656913026 6.946640535203775 a28.52569614222358,28.52569614222358 0 0,0 -0.45038668081464206,-0.19224329239226584 l 3.0136944128980994 -6.895922593152106" fill="red" stroke="none" /><path d="M 91.59046798132341 119.24265499422711 l -3.1625529081864974 7.236539961803875 a28.89742056090869,28.89742056090869 0 0,0 -0.45284541898281166,-0.2025519959498188 l 3.286311730024944 -7.181184214944202" fill="red" stroke="none" /><path d="M 91.26138138417905 119.09545874513695 l -9.30859335779624 20.34095642041646 a43.36972101743984,43.36972101743984 0 0,0 -0.6743192089732838,-0.3156154381723854 l 9.656401280641015 -20.17816475067355" fill="red" stroke="none" /><path d="M 90.93487009805054 118.94263497670748 l -4.878863900319869 10.194949103257745 a32.30222545235496,32.30222545235496 0 0,0 -0.49813069708433655,-0.24366068559150683 l 5.053154846666276 -10.109694667569016" fill="red" stroke="none" /><path d="M 90.6110303473126 118.78422872680471 l -11.311138039548513 22.629853110082777 a46.29925088878413,46.29925088878413 0 0,0 -0.7078775769258007,-0.36144733460573936 l 11.697942838187897 -22.4323478238042" fill="red" stroke="none" /><path d="M 90.28995756902619 118.62028667847754 l -11.653549878952568 22.347218471039373 a46.20324181873433,46.20324181873433 0 0,0 -0.700113728268538,-0.37277112624042885 l 12.035452423007667 -22.143876877076373" fill="red" stroke="none" /><path d="M 89.97174638481275 118.45085714620012 l -11.563863900311977 21.276207111438595 a45.21569609475988,45.21569609475988 0 0,0 -0.6787862371638317,-0.3765112834643542 l 11.927394325631912 -21.074562912541094" fill="red" stroke="none" /><line stroke="#e1ed5e" stroke-width="0.3" x1="58.13341422392154" x2="55.67067388415222" y1="173.97424548756322" y2="178.32567169271397" /><path d="M 57.64086615596768 174.84453072859336 a86.0,86.0 0 0,1 -31.369924170532247,-30.572349798747897" fill="none" id="id32" stroke="none" /><text fill="#e1ed5e" style="font-size:6.75px; font-family:Arial;" text-anchor="middle"><textPath startOffset="22.145653131862474" xlink:href="#id32">August</textPath></text><path d="M 89.65649057296885 118.27599006163327 l -16.120537748040068 28.483445560693735 a53.728862007332125,53.728862007332125 0 0,0 -0.7987883529513473,-0.46118067060200163 l 16.607118568851813 -28.20251799281556" fill="red" stroke="none" /><path d="M 89.34428304082925 118.09573695890944 l -18.82668449425986 31.97182617761818 a58.103122755075965,58.103122755075965 0 0,0 -0.8551319993007976,-0.5134821956421417 l 19.372749250118083 -31.64392998144012" fill="red" stroke="none" /><path d="M 88.72937992617639 117.7192867562869 l -15.439035497366 24.27272815749447 a49.766806379863446,49.766806379863446 0 0,0 -0.7169130460282004,-0.46469437493778704 l 15.853434175651211 -24.00411994085279" fill="red" stroke="none" /><path d="M 88.4268655584334 117.5232005979908 l -14.09207966206026 21.337204713896114 a46.57074528058506,46.57074528058506 0 0,0 -0.6633087037862784,-0.4463036984343109 l 14.456284653943547 -21.092151341404684" fill="red" stroke="none" /><path d="M 88.1277618465304 117.32195027204791 l -14.082420441588274 20.54667228251099 a45.909442133025955,45.909442133025955 0 0,0 -0.6462407836188776,-0.45112625655449246 l 14.433056316380917 -20.301901210151367" fill="red" stroke="none" /><path d="M 87.54013794807813 116.9041958592261 l -4.520016495944223 6.1322704710513705 a28.618089672203688,28.618089672203688 0 0,0 -0.3929495533363619,-0.29487667052938493 l 4.624619038191351 -6.05377477325797" fill="red" stroke="none" /><path d="M 87.2517909369889 116.68781488649013 l -18.12901610320081 23.731464028324908 a50.86375076573258,50.86375076573258 0 0,0 -0.6893008403085611,-0.5360045026227951 l 18.5337268881446 -23.41675847408132" fill="red" stroke="none" /><path d="M 86.96720088162412 116.46651593811092 l -15.745615744771186 19.894071124834106 a46.371213630844395,46.371213630844395 0 0,0 -0.619937262121483,-0.49937757530884364 l 16.08480377724793 -19.62084525573185" fill="red" stroke="none" /><path d="M 86.68645165197938 116.24036423190432 l -16.33897686647658 19.93089509662459 a46.77213115743265,46.77213115743265 0 0,0 -0.6165583976344561,-0.5143549439659556 l 16.678709598272928 -19.647477968746763" fill="red" stroke="none" /><path d="M 86.40962598614128 116.0094264158162 l -16.079268413022064 18.941337759794667 a45.84586784213086,45.84586784213086 0 0,0 -0.5956044531149138,-0.5144689409164303 l 16.40205234589984 -18.662524686413512" fill="red" stroke="none" /><path d="M 86.13680546590413 115.77377054828092 l -20.696484510933193 23.548800172182077 a52.351083883347,52.351083883347 0 0,0 -0.6699317677694626,-0.5990571177437288 l 21.097681305526024 -23.190047524554966" fill="red" stroke="none" /><path d="M 85.86807049272751 115.53346607816431 l -17.08206608631732 18.776182966396863 a46.383893093158974,46.383893093158974 0 0,0 -0.5843712953812173,-0.5408853468479824 l 17.401867153012503 -18.480179873416503" fill="red" stroke="none" /><path d="M 85.60350026404147 115.28858382429668 l -5.514836636863325 5.856565397587158 a29.044425485235426,29.044425485235426 0 0,0 -0.36005062314483083,-0.34492035229814816 l 5.61455974587347 -5.761032914983427" fill="red" stroke="none" /><path d="M 85.34317274990678 115.03919595460226 l -15.545717917148597 15.951276085994825 a43.273584227312526,43.273584227312526 0 0,0 -0.5275422479585057,-0.5230333669497957 l 15.817252085237065 -15.682062708816371" fill="red" stroke="none" /><path d="M 85.08716467003676 114.78537596483092 l -18.20077994890812 18.045218661877758 a46.63002745420998,46.63002745420998 0 0,0 -0.5587014461990166,-0.5732769027112111 l 18.50786819625795 -17.730119067098812" fill="red" stroke="none" /><path d="M 84.83555147118756 114.52719865689866 l -18.19342926757308 17.428893686315035 a46.1945867924651,46.1945867924651 0 0,0 -0.5436534589867661,-0.5773411337151394 l 18.4899385602961 -17.114011092655407" fill="red" stroke="none" /><path d="M 84.58840730492382 114.26474011684316 l -18.991382285630554 17.578139918704835 a46.87785934192638,46.87785934192638 0 0,0 -0.5415560217124905,-0.5952649345135441 l 19.290336008184923 -17.249537408633618" fill="red" stroke="none" /><path d="M 84.3458050057657 113.99807769240083 l -21.26830699982708 19.018251266134424 a49.531294465213406,49.531294465213406 0 0,0 -0.561328574787133,-0.6386888764425188 l 21.591646638572804 -18.650350111880606" fill="red" stroke="none" /><path d="M 84.1078160697243 113.72728997021213 l -19.225951298443764 16.606918821530098 a46.405254497348025,46.405254497348025 0 0,0 -0.5155522931460632,-0.6073193049882594 l 19.508198155096938 -16.274432734092283" fill="red" stroke="none" /><path d="M 83.8745106332314 113.45245675266167 l -3.093635938059488 2.580821128504138 a25.028798954351853,25.028798954351853 0 0,0 -0.2724005529359033,-0.33228438287144696 l 3.1374833102340216 -2.5273344639341957" fill="red" stroke="none" /><path d="M 83.64595745247003 113.17365903436017 l -32.42480720693505 26.119129454236493 a62.63624677914751,62.63624677914751 0 0,0 -0.6673252887197457,-0.8431437025001585 l 32.86839892629636 -25.558665807821654" fill="red" stroke="none" /><path d="M 83.4222238831116 112.89097897827486 l -15.647627066912246 12.167689451057159 a40.82172796207567,40.82172796207567 0 0,0 -0.4254168783562448,-0.5568843498335746 l 15.854195922622786 -11.897284187982715" fill="red" stroke="none" /><path d="M 83.20337586046588 112.60449989151573 l -23.214716575394448 17.42075610702114 a50.024227965894426,50.024227965894426 0 0,0 -0.5095276825610899,-0.6912721590189442 l 23.51034627753937 -17.019677638733317" fill="red" stroke="none" /><path d="M 82.98947788004972 112.3143062007846 l -6.806846768137501 4.927632131077189 a29.403256591591635,29.403256591591635 0 0,0 -0.2924712550491859,-0.4113974474054053 l 6.890433121716648 -4.81005745696228" fill="red" stroke="none" /><path d="M 82.78059297857968 112.02048342749411 l -24.536404261799674 17.128315767921904 a50.92347465024915,50.92347465024915 0 0,0 -0.4942250843212097,-0.7210891681202323 l 24.82681908293621 -16.70459186473162" fill="red" stroke="none" /><path d="M 82.576782715395 111.72311816256416 l -9.233367750671638 6.212621894762008 a32.12887015048784,32.12887015048784 0 0,0 -0.3039629192376804,-0.4602386013094411 l 9.338655108830045 -6.053203415113505" fill="red" stroke="none" /><path d="M 82.37810715431573 111.42229804090323 l -3.3574256755181193 2.1762427596046168 a25.00104232861386,25.00104232861386 0 0,0 -0.23034568483328788,-0.36214167595923946 l 3.3942890519772972 -2.1182874089667054" fill="red" stroke="none" /><path d="M 82.18462484594161 111.11811171558189 l -10.874243753779288 6.786332357948982 a33.818092061190434,33.818092061190434 0 0,0 -0.30312610985297117,-0.4951337196332778 l 10.989137828087664 -6.598661522191147" fill="red" stroke="none" /><path d="M 81.99639281039703 110.81064883170644 l -21.02997519086251 12.627895861847394 a45.530055247103604,45.530055247103604 0 0,0 -0.3966020992352028,-0.6735170700020218 l 21.24365100022748 -12.265027623551813" fill="red" stroke="none" /><line stroke="#e1ed5e" stroke-width="0.3" x1="26.387840678322732" x2="22.057713659400548" y1="142.50000000000003" y2="145.00000000000006" /><path d="M 25.521815274538298 143.00000000000003 a86.0,86.0 0 0,1 -11.493303480769221,-40.785679425670985" fill="none" id="id33" stroke="none" /><text fill="#e1ed5e" style="font-size:6.75px; font-family:Arial;" text-anchor="middle"><textPath startOffset="21.40746469413373" xlink:href="#id33">September</textPath></text><path d="M 81.81346652052679 110.50000000000001 l -19.795543188290043 11.428962188514134 a43.85792437702825,43.85792437702825 0 0,0 -0.37084304994170325,-0.655244135752253 l 19.988819603253127 -11.08746128266276" fill="red" stroke="none" /><path d="M 81.63589988554817 110.18625677009913 l -22.639904558224348 12.55797341788206 a46.88953407788058,46.88953407788058 0 0,0 -0.3843929212322676,-0.7072396799903483 l 22.852142829071944 -12.167478904417123" fill="red" stroke="none" /><path d="M 81.4637452351635 109.86951160357371 l -16.96641541249931 9.033660570007326 a40.2215055405033,40.2215055405033 0 0,0 -0.31926668701339395,-0.6122359692388063 l 17.118990168487652 -8.741078357664016" fill="red" stroke="none" /><path d="M 81.29705330413844 109.54985784667822 l -23.102243933838995 11.796170362623368 a46.939608902268255,46.939608902268255 0 0,0 -0.3602728684130819,-0.7207870740530395 l 23.301336715463812 -11.397851432406576" fill="red" stroke="none" /><path d="M 81.1358732173502 109.22738970284198 l -37.9655905414671 18.570872813835003 a63.26420923464642,63.26420923464642 0 0,0 -0.46882015169881264,-0.9796538052306842 l 38.27878995112582 -17.916406506539214" fill="red" stroke="none" /><path d="M 80.9802524753101 108.90220220490708 l -18.56503912420066 8.689375713905006 a41.49794936037513,41.49794936037513 0 0,0 -0.2964446228911647,-0.6477850007537083 l 18.71146821194688 -8.369401730936609" fill="red" stroke="none" /><path d="M 80.83023694016515 108.57439118712176 l -31.23773880239752 13.972243238315569 a55.22016812637639,55.22016812637639 0 0,0 -0.3796153003226342,-0.8686340974046092 l 31.47298798473712 -13.43394707113511" fill="red" stroke="none" /><path d="M 80.68587082218212 108.24405325689762 l -20.54251480757708 8.768378037917163 a43.3356076262848,43.3356076262848 0 0,0 -0.28616803757491815,-0.6866991143636221 l 20.690008689688483 -8.414446414112259" fill="red" stroke="none" /><path d="M 80.5471966667186 107.91128576633889 l -7.859962036835201 3.1965781342986106 a29.485111371641892,29.485111371641892 0 0,0 -0.18665665592940311,-0.4704967060943779 l 7.913677367730729 -3.0611804109906675" fill="red" stroke="none" /><path d="M 80.28708602549918 107.23885506374661 l -7.011076958639501 2.5745645727472852 a28.46884079755427,28.46884079755427 0 0,0 -0.16452255610653513,-0.4601988706250649 l 7.054239684789979 -2.453830745741299" fill="red" stroke="none" /><path d="M 80.16572619554312 106.89939002012753 l -22.111948085482037 7.691683368426215 a44.411540768927985,44.411540768927985 0 0,0 -0.24429430520211134,-0.7222127050767339 l 22.240727812256516 -7.31096898887532" fill="red" stroke="none" /><path d="M 80.05021161711548 106.5578916946017 l -4.4592919964439615 1.4658578520247618 a25.6940413666575,25.6940413666575 0 0,0 -0.1341415965744984,-0.4201966407106924 l 4.4837983087957145 -1.3890921776226777" fill="red" stroke="none" /><path d="M 79.94057633289273 106.21446072829308 l -3.8108022859472634 1.1805962894209079 a24.98948889723675,24.98948889723675 0 0,0 -0.1234286547452302,-0.41085384865252234 l 3.8305072606961232 -1.115004837177662" fill="red" stroke="none" /><path d="M 79.83685265289637 105.86919833188381 l -7.253018099383531 2.111247862112153 a28.554047860932457,28.554047860932457 0 0,0 -0.13295513605793954,-0.4718108737256276 l 7.288191727516045 -1.9864290644835296" fill="red" stroke="none" /><path d="M 79.73907114497094 105.5222062557868 l -4.678543130637725 1.275157734812497 a25.849205406444398,25.849205406444398 0 0,0 -0.11301090329289395,-0.4291208071980223 l 4.699743514735351 -1.1946564232416719" fill="red" stroke="none" /><path d="M 79.64726062577567 105.17358676015961 l -4.433817682908639 1.1270591166861978 a25.57482256462246,25.57482256462246 0 0,0 -0.10450660872272202,-0.4264226265563761 l 4.452511818147655 -1.0507806655217222" fill="red" stroke="none" /><path d="M 79.56144815229197 104.8234425847677 l -21.77736109072678 5.139397920731558 a43.375586407142954,43.375586407142954 0 0,0 -0.16480479375509202,-0.7261603298101206 l 21.862376746039537 -4.764803256982411" fill="red" stroke="none" /><path d="M 79.48165901384964 104.47187691870673 l -51.77498025640078 11.28411596879963 a73.99037510480568,73.99037510480568 0 0,0 -0.25981998272343576,-1.243332673224169 l 51.96105794994858 -10.393666844290053" fill="red" stroke="none" /><path d="M 79.407916724674 104.11899336999214 l -30.23610592009786 6.048067995553087 a51.83506490491321,51.83506490491321 0 0,0 -0.1670414777100249,-0.8740315963886394 l 30.33547369009004 -5.528133834131133" fill="red" stroke="none" /><path d="M 79.2786578344484 103.40968896794605 l -25.214567322144532 4.1490474575907115 a46.55364944676785,46.55364944676785 0 0,0 -0.12298700032499275,-0.7896647670075773 l 25.282075814607794 -3.715594508651684" fill="red" stroke="none" /><path d="M 79.22317932658666 103.0534771498775 l -25.15838298003477 3.6974159215661433 a46.42862793520629,46.42862793520629 0 0,0 -0.1091193989247748,-0.7895336128519183 l 25.218146895514757 -3.264994000514139" fill="red" stroke="none" /><path d="M 79.0935383218832 101.97986365728391 l -8.223048529032877 0.778731245170734 a29.2598395543155,29.2598395543155 0 0,0 -0.04306264957472584,-0.5004532630988199 l 8.235204801305342 -0.6374569346962521" fill="red" stroke="none" /><path d="M 79.06263194458094 101.62068470465958 l -28.862521373085972 2.2341416936195837 a49.94886058412341,49.94886058412341 0 0,0 -0.05883509310331317,-0.8554493411941863 l 28.896620427354353 -1.7383489282710543" fill="red" stroke="none" /><path d="M 79.03789590574601 101.26102812881392 l -22.305579713542286 1.341848285926039 a43.34590439386224,43.34590439386224 0 0,0 -0.038306242338925996,-0.7431308677802814 l 22.325327545337785 -0.9587456247690269" fill="red" stroke="none" /><path d="M 79.00696218219943 100.54070618675478 l -22.47864037452734 0.5789700388209882 a43.4860952455775,43.4860952455775 0 0,0 -0.012815079758770494,-0.7464141497015209 l 22.48526688588478 -0.19300897315041493" fill="red" stroke="none" /><line stroke="#e1ed5e" stroke-width="0.3" x1="15.003131293944662" x2="10.003315487706104" y1="100.72959589197737" y2="100.7725132973878" /><path d="M 14.003168132696942 100.73817937305945 a86.0,86.0 0 0,1 10.791469493833604,-42.45332614584628" fill="none" id="id34" stroke="none" /><text fill="#e1ed5e" style="font-size:6.75px; font-family:Arial;" text-anchor="middle"><textPath startOffset="22.145653131862435" xlink:href="#id34">October</textPath></text><path d="M 79.00696218219943 99.45929381324524 l -9.692999815688632 -0.2496572918146968 a30.696214425758956,30.696214425758956 0 0,0 0.01808929816812196,-0.5266501790093748 l 9.687285830523658 0.4160137353882102" fill="red" stroke="none" /><path d="M 79.03789590574601 98.7389718711861 l -11.921785655618425 -0.7171850206366437 a32.94333820890687,32.94333820890687 0 0,0 0.03880417587085522,-0.564204200816259 l 11.907717518582507 0.9217326456072277" fill="red" stroke="none" /><path d="M 79.06263194458094 98.37931529534042 l -4.336104849077234 -0.33564193876225396 a25.349075852781507,25.349075852781507 0 0,0 0.037307052503314,-0.43356450070459457 l 4.329704173876177 0.41002748684252915" fill="red" stroke="none" /><path d="M 79.0935383218832 98.0201363427161 l -42.73812271249015 -4.0473446555314485 a63.92933882263417,63.92933882263417 0 0,0 0.11284322097067338,-1.091655799773335 l 42.66234709903782 4.780404977587697" fill="red" stroke="none" /><path d="M 79.13060592940154 97.66154086499901 l -26.677381529734873 -2.989256244099774 a47.84433530888647,47.84433530888647 0 0,0 0.098463445540141,-0.8154185776402746 l 26.622135997935064 3.446768498663485" fill="red" stroke="none" /><path d="M 79.17382384314186 97.30363454192245 l -8.150364696697627 -1.0552278859733617 a29.2183909970572,29.2183909970572 0 0,0 0.06867084824470095,-0.4968680495538585 l 8.131049331897719 1.1949842437272873" fill="red" stroke="none" /><path d="M 79.22317932658666 96.9465228501225 l -27.273502690831805 -4.008265680905814 a48.566467724312034,48.566467724312034 0 0,0 0.12830453149808674,-0.8238071316783212 l 27.20067666719545 4.475860994515585" fill="red" stroke="none" /><path d="M 79.2786578344484 96.59031103205396 l -21.792317756082266 -3.5859175938138494 a43.085377926847485,43.085377926847485 0 0,0 0.12635337443052197,-0.7287726866126446 l 21.72754956415951 3.9594833133470866" fill="red" stroke="none" /><path d="M 79.34024301695615 96.23510406497455 l -18.219531866079286 -3.320205630538947 a39.51958711332791,39.51958711332791 0 0,0 0.12735414225890948,-0.6663706870367567 l 18.15985143153822 3.632478882609018" fill="red" stroke="none" /><path d="M 79.407916724674 95.88100663000787 l -22.105644022632056 -4.421747909194299 a43.543543470976175,43.543543470976175 0 0,0 0.15290478925564188,-0.7317047687450537 l 22.026481522552046 4.800569129224762" fill="red" stroke="none" /><path d="M 79.64726062577567 94.8264132398404 l -10.53789283998498 -2.678691151814776 a31.87302036206212,31.87302036206212 0 0,0 0.13934659751249884,-0.5291217277494316 l 10.490356761667757 2.8591933839369923" fill="red" stroke="none" /><path d="M 79.73907114497095 94.47779374421319 l -46.85235670161844 -12.769818162201997 a69.56142074107176,69.56142074107176 0 0,0 0.3238962196903067,-1.1493934190095472 l 46.62624198985355 13.572219505114557" fill="red" stroke="none" /><path d="M 79.83685265289637 94.1308016681162 l -34.79007067969784 -10.126882538937215 a57.23400016360053,57.23400016360053 0 0,0 0.2826914818038814,-0.9409880025035068 l 34.61110287789033 10.722608145031446" fill="red" stroke="none" /><path d="M 80.05021161711548 93.44210830539832 l -17.91601643340909 -5.889350458965259 a39.859164712963796,39.859164712963796 0 0,0 0.2192530765855085,-0.6481827622064629 l 17.812277935251217 6.196034895645883" fill="red" stroke="none" /><path d="M 80.16572619554312 93.10060997987247 l -17.511248033097523 -6.091321069308947 a39.5404422829141,39.5404422829141 0 0,0 0.2285057786591301,-0.6391713316327187 l 17.404102084394452 6.391027357322587" fill="red" stroke="none" /><path d="M 80.28708602549916 92.7611449362534 l -17.67818021926316 -6.491672644824119 a39.832415394534635,39.832415394534635 0 0,0 0.24121242989249064,-0.6398446280504565 l 17.564137105556235 6.794185553068719" fill="red" stroke="none" /><path d="M 80.41425534168474 92.42381321644754 l -7.142464213401905 -2.7628585953507767 a28.658210147131676,28.658210147131676 0 0,0 0.1814219252408925,-0.4573017651801526 l 7.093983613194881 2.8850613777445124" fill="red" stroke="none" /><path d="M 80.5471966667186 92.08871423366112 l -28.112450465653694 -11.433088867213472 a51.34840015930713,51.34840015930713 0 0,0 0.33908076316642227,-0.8136703935818306 l 27.912043857950792 11.913991770236567" fill="red" stroke="none" /><path d="M 80.68587082218212 91.75594674310238 l -36.355694675272694 -15.518084213637806 a60.5290712385607,60.5290712385607 0 0,0 0.41611176380137327,-0.9521451481588213 l 36.083949029454345 16.139891431572494" fill="red" stroke="none" /><path d="M 80.83023694016515 91.42560881287825 l -3.898207258150628 -1.7436185233761938 a25.27038937130548,25.27038937130548 0 0,0 0.18052147546941574,-0.3944720028399619 l 3.8677013178261657 1.8102795084308272" fill="red" stroke="none" /><path d="M 80.9802524753101 91.09779779509293 l -4.206790681208732 -1.9689904521195516 a25.64478322810038,25.64478322810038 0 0,0 0.1900409616863983,-0.39711251871567516 l 4.172370461562429 2.040915472900314" fill="red" stroke="none" /><path d="M 81.1358732173502 90.77261029715801 l -4.510684205494124 -2.20640167817521 a26.02140223116497,26.02140223116497 0 0,0 0.19972056523672801,-0.39957491797617595 l 4.472143727045652 2.2835084523151563" fill="red" stroke="none" /><path d="M 81.29705330413844 90.45014215332179 l -3.83733454240925 -1.9593703594452891 a25.30862722869361,25.30862722869361 0 0,0 0.2008925687783025,-0.38523798931047615 l 3.8031339046560078 2.024954591860252" fill="red" stroke="none" /><path d="M 81.46374523516351 90.13048839642627 l -13.981225658241884 -7.444215167346844 a36.839539461879504,36.839539461879504 0 0,0 0.3020046683995886,-0.5556545743605402 l 13.851375640226946 7.683124575182004" fill="red" stroke="none" /><path d="M 81.63589988554816 89.8137432299009 l -27.693104581606217 -15.360898289127475 a52.66804758138238,52.66804758138238 0 0,0 0.4453375228533569,-0.7868687314646151 l 27.425333693731492 15.834023790691194" fill="red" stroke="none" /><line stroke="#e1ed5e" stroke-width="0.3" x1="26.387840678322718" x2="22.05771365940052" y1="57.49999999999999" y2="54.99999999999999" /><path d="M 25.521815274538284 56.99999999999999 a86.0,86.0 0 0,1 29.574782752854787,-30.34633250058573" fill="none" id="id35" stroke="none" /><text fill="#e1ed5e" style="font-size:6.75px; font-family:Arial;" text-anchor="middle"><textPath startOffset="21.40746469413373" xlink:href="#id35">November</textPath></text><path d="M 81.81346652052679 89.5 l -4.000553805214648 -2.309720816348259 a25.619441632696518,25.619441632696518 0 0,0 0.2231652098293258,-0.3789833148651512 l 3.9603148852555425 2.3780552995069835" fill="red" stroke="none" /><path d="M 81.99639281039701 89.18935116829357 l -27.05922343823339 -16.24828620002077 a52.562768850625645,52.562768850625645 0 0,0 0.4711427130768537,-0.7695762140615428 l 26.776312760701142 16.710399530206857" fill="red" stroke="none" /><path d="M 82.18462484594161 88.88188828441811 l -15.742924641644858 -9.82474931805867 a39.557084238511266,39.557084238511266 0 0,0 0.3644569510007755,-0.5729868616637603 l 15.571949999018193 10.093549854401102" fill="red" stroke="none" /><path d="M 82.37810715431573 88.57770195909679 l -19.20522686925744 -12.448596025684369 a43.88685828396577,43.88685828396577 0 0,0 0.4152021996939691,-0.6286690499189986 l 18.988700230642742 12.776444953942429" fill="red" stroke="none" /><path d="M 82.576782715395 88.27688183743585 l -20.899307685791182 -14.061986917467848 a46.189691101964854,46.189691101964854 0 0,0 0.44828252856718265,-0.6540576062651924 l 20.654835420408688 14.418679258803076" fill="red" stroke="none" /><path d="M 82.78059297857968 87.97951657250589 l -6.259571715961103 -4.369667200579075 a28.633886920244287,28.633886920244287 0 0,0 0.28481841181138773,-0.4006327649996271 l 6.183638205619744 4.476477192288222" fill="red" stroke="none" /><path d="M 82.98947788004972 87.6856937992154 l -36.55792940911848 -26.46512162507737 a66.13186086693332,66.13186086693332 0 0,0 0.6735938800286155,-0.9138594657092098 l 36.098233509506045 27.088787400055445" fill="red" stroke="none" /><path d="M 83.2033758604659 87.39550010848427 l -25.235154788512958 -18.93693060890371 a52.55028332815163,52.55028332815163 0 0,0 0.5476440759922345,-0.7168836750848411 l 24.906358735166418 19.367335197229437" fill="red" stroke="none" /><path d="M 83.42222388311158 87.10902102172516 l -5.848221599336682 -4.547612488296313 a28.408270730653456,28.408270730653456 0 0,0 0.30266113380333093,-0.3824024554013329 l 5.76929403489179 4.647334887612328" fill="red" stroke="none" /><path d="M 83.64595745247003 86.82634096563983 l -8.846101849240087 -7.125793467053977 a32.359157119356965,32.359157119356965 0 0,0 0.35218039458980804,-0.4296028176684139 l 8.722474635411649 7.276598566420883" fill="red" stroke="none" /><path d="M 83.8745106332314 86.54754324733833 l -19.857484248703447 -16.565819616169218 a46.860124907721584,46.860124907721584 0 0,0 0.5206058045574818,-0.6132723287240378 l 19.570183880638847 16.904258727342814" fill="red" stroke="none" /><path d="M 84.10781606972428 86.27271002978789 l -5.33383529793129 -4.607239892848714 a28.048152837142112,28.048152837142112 0 0,0 0.3178642881732493,-0.36167121039858247 l 5.253959945799449 4.698123381058597" fill="red" stroke="none" /><path d="M 84.34580500576568 86.00192230759919 l -18.93503135266559 -16.931821794750984 a46.401220474922724,46.401220474922724 0 0,0 0.5360496557599876,-0.5892124737584069 l 18.641583996063737 17.25437184406705" fill="red" stroke="none" /><path d="M 84.58840730492382 85.73525988315684 l -34.481593329954215 -31.91564800590768 a67.98498554016317,67.98498554016317 0 0,0 0.800099646179774,-0.8496780976459403 l 33.928637850038164 32.502867563498135" fill="red" stroke="none" /><path d="M 84.83555147118756 85.47280134310135 l -36.34713652283331 -34.81973458338258 a71.33416583064323,71.33416583064323 0 0,0 0.8546960786612984,-0.8769934713214079 l 35.74405364302121 35.43855074677172" fill="red" stroke="none" /><path d="M 85.60350026404147 84.71141617570332 l -15.407881892311327 -16.362636625977096 a43.47529091605229,43.47529091605229 0 0,0 0.5477270314215411,-0.5069679631939988 l 15.124725089575833 16.624722335303463" fill="red" stroke="none" /><path d="M 85.86807049272753 84.46653392183569 l -35.58923377995149 -39.11880224029176 a73.88548241019548,73.88548241019548 0 0,0 0.9455053873164111,-0.8454767476138726 l 34.91246336581169 39.72397451778903" fill="red" stroke="none" /><path d="M 86.13680546590413 84.22622945171909 l -2.776965567524212 -3.159677055304364 a25.206554035910145,25.206554035910145 0 0,0 0.3274697707363274,-0.2828605885194073 l 2.722316317025036 3.206881776288482" fill="red" stroke="none" /><path d="M 86.40962598614128 83.9905735841838 l -13.507614965847692 -15.911936465353872 a41.87211978077576,41.87211978077576 0 0,0 0.5519655923031215,-0.46046932843583077 l 13.232475039382662 16.141467977701584" fill="red" stroke="none" /><path d="M 86.68645165197937 83.75963576809568 l -13.404653212736672 -16.351497353414096 a42.14370339965163,42.14370339965163 0 0,0 0.5634196316109149,-0.4538509728426738 l 13.121982810770513 16.57919662005017" fill="red" stroke="none" /><path d="M 87.83215693770416 82.88440491214696 l -13.326700460811955 -18.745673146553944 a44.00002623671632,44.00002623671632 0 0,0 0.6193630354312599,-0.4323635008884217 l 13.00294233420693 18.971681463247492" fill="red" stroke="none" /><path d="M 88.4268655584334 82.4767994020092 l -29.59511809962979 -44.8107808476163 a74.70174201554481,74.70174201554481 0 0,0 1.076111916911014,-0.6975227433263843 l 28.821520550461752 45.31221743264659" fill="red" stroke="none" /><path d="M 88.72937992617638 82.28071324371311 l -33.811860221470866 -53.157860268860674 a84.0,84.0 0 0,0 1.2233434848412057,-0.7634568126338559 l 32.89435260783996 53.73045287833607" fill="red" stroke="none" /><line stroke="#e1ed5e" stroke-width="0.3" x1="56.869717070023135" x2="54.33264160355391" y1="26.7553504044142" y2="22.446841604673864" /><path d="M 56.362301976729285 25.89364864446614 a86.0,86.0 0 0,1 42.16139366436587,-11.88097634709845" fill="none" id="id36" stroke="none" /><text fill="#e1ed5e" style="font-size:6.75px; font-family:Arial;" text-anchor="middle"><textPath startOffset="22.145653131862474" xlink:href="#id36">December</textPath></text><path d="M 89.34428304082924 81.90426304109057 l -11.740781116364772 -19.938413115507696 a44.138415217707475,44.138415217707475 0 0,0 0.6562069375082585,-0.37886125201449095 l 11.396781710996114 20.13702126479836" fill="red" stroke="none" /><path d="M 89.65649057296885 81.72400993836675 l -6.532780713416134 -11.542797561648422 a34.26323487686087,34.26323487686087 0 0,0 0.5143659013096625,-0.285310094797429 l 6.333670623950369 11.653240571878998" fill="red" stroke="none" /><path d="M 89.97174638481275 81.54914285379989 l -9.260270465059772 -17.037854649710457 a40.39177918992269,40.39177918992269 0 0,0 0.6120531375482383,-0.32588382171436237 l 8.966428511724972 17.194308939147398" fill="red" stroke="none" /><path d="M 90.28995756902619 81.37971332152246 l -10.009522916069663 -19.194579996630925 a42.64768925900378,42.64768925900378 0 0,0 0.65204819418496,-0.3329404539781695 l 9.678547500171122 19.363578402281927" fill="red" stroke="none" /><path d="M 90.61103034731259 81.2157712731953 l -3.807479332250223 -7.617509193790878 a29.51606394897321,29.51606394897321 0 0,0 0.45516546628575166,-0.22264423819274562 l 3.6761536167024182 7.681747182080838" fill="red" stroke="none" /><path d="M 90.93487009805054 81.0573650232925 l -14.780194981748139 -30.884922935700022 a55.23934328287594,55.23934328287594 0 0,0 0.8588699533421094,-0.4019945050503581 l 14.247836314534506 31.134093672320923" fill="red" stroke="none" /><path d="M 91.5904679813234 80.7573450057729 l -8.065596355037504 -18.455662888017237 a41.141135449585036,41.141135449585036 0 0,0 0.6495694039402272,-0.27726255275773526 l 7.7475918759268465 18.591400090434377" fill="red" stroke="none" /><path d="M 91.92203290615298 80.6158196554323 l -9.836626992900692 -23.604323884640035 a46.571924774026115,46.571924774026115 0 0,0 0.7405945958124003,-0.30119337475920743 l 9.42997793589785 23.769704515978535" fill="red" stroke="none" /><path d="M 92.25597844496254 80.48000691201159 l -1.3943915820024784 -3.514777670644784 a24.781268300190103,24.781268300190103 0 0,0 0.39676903681493997,-0.1534787870097121 l 1.3338502826940088 3.538196345792537" fill="red" stroke="none" /><path d="M 92.592206182469 80.34994680014964 l -2.6749866462351464 -7.095719886670561 a28.583191562108162,28.583191562108162 0 0,0 0.46061248118883913,-0.16914328324020217 l 2.55278501339218 7.140594018919485" fill="red" stroke="none" /><path d="M 92.93061703081487 80.22567764915836 l -13.795181454581016 -38.587577750464064 a61.97936295274641,61.97936295274641 0 0,0 1.0049340637018025,-0.34956823316780045 l 13.13074161883421 38.818704416200454" fill="red" stroke="none" /><path d="M 93.27111125876988 80.10723608172694 l -6.285549286640597 -18.582109597037658 a40.61639434022234,40.61639434022234 0 0,0 0.6623900733456344,-0.2177407738473378 l 5.965636475647202 18.687271292287026" fill="red" stroke="none" /><path d="M 93.95794788825049 79.88797359093562 l -8.330456012679333 -27.729378732227325 a49.953668891083325,49.953668891083325 0 0,0 0.8233791586405725,-0.23967367302384088 l 7.853216841657136 27.868296099553685" fill="red" stroke="none" /><path d="M 94.30408787586887 79.78721728523814 l -5.4853752379682525 -19.46566157933846 a41.22378110598136,41.22378110598136 0 0,0 0.682780847259902,-0.18609495611224677 l 5.150412989773673 19.556957029594844" fill="red" stroke="none" /><path d="M 95.00130118170881 79.60360301121753 l -1.905052496011165 -7.773264284483877 a29.003303233602423,29.003303233602423 0 0,0 0.48458697809535733,-0.11436120736857075 l 1.7713333641759017 7.80482163549868" fill="red" stroke="none" /><path d="M 95.35216902796891 79.52079915486377 l -10.667410916154633 -47.002580765983154 a69.1978864092282,69.1978864092282 0 0,0 1.1606712516119664,-0.2529628971364444 l 9.858977247923548 47.17877512125332" fill="red" stroke="none" /><path d="M 95.70440661134978 79.44403061299748 l -3.0509140221199766 -14.599728039152588 a35.91509755876865,35.91509755876865 0 0,0 0.6045768195010741,-0.12093229606155022 l 2.7998407170879256 14.649949731877005" fill="red" stroke="none" /><path d="M 96.41257539226777 79.30868818359171 l -0.7854450894199276 -4.530238551864082 a25.597823977197198,25.597823977197198 0 0,0 0.4336058029322147,-0.07134966986613701 l 0.70756178343464 4.543054220225888" fill="red" stroke="none" /><path d="M 96.76829788921471 79.25015418208739 l -0.7165380203354033 -4.600688100246666 a25.656152674723785,25.656152674723785 0 0,0 0.43575740694143894,-0.06404133268995087 l 0.6374555077862795 4.612310506235501" fill="red" stroke="none" /><path d="M 97.12497278360702 79.19773525538626 l -0.5964199022760298 -4.315397306627355 a25.35641717629035,25.35641717629035 0 0,0 0.4316895951387147,-0.055890860817494066 l 0.5222524852465211 4.324999763645244" fill="red" stroke="none" /><path d="M 97.84075906011542 79.11130261209362 l -1.2200436704063424 -11.802815776784497 a32.86570549181175,32.86570549181175 0 0,0 0.56169124050813,-0.053192744464301174 l 1.017252866513197 11.822020276753982" fill="red" stroke="none" /><path d="M 98.1996594967304 79.07731436759882 l -1.4420202754815845 -16.75846143807597 a37.82038799333652,37.82038799333652 0 0,0 0.6473247654493454,-0.050107030813718284 l 1.154126515257022 16.78074623588474" fill="red" stroke="none" /><path d="M 98.5590905019552 79.04949213459386 l -0.32451301781220127 -4.71834805817192 a25.729494380669493,25.729494380669493 0 0,0 0.44090018426949706,-0.02652346023391154 l 0.24346848141022043 4.723223496230526" fill="red" stroke="none" /></svg>