<?xml version="1.0" encoding="utf-8" ?>
<svg baseProfile="full" height="200mm" version="1.1" viewBox="0,0,200,200" width="200mm" xmlns="http://www.w3.org/2000/svg" xmlns:ev="http://www.w3.org/2001/xml-events" xmlns:xlink="http://www.w3.org/1999/xlink"><defs /><rect fill="#1a1a1a" height="200" width="200" x="0" y="0" /><rect fill="#1a1a1a" height="200" width="180" x="10" y="0" /><text alignment-baseline="middle" fill="#e1ed5e" style="dominant-baseline: central; font-size:9.0px; font-family:Arial;" text-anchor="middle" x="100.0" y="100.0">2018</text><line stroke="#e1ed5e" stroke-width="0.3" x1="100.0" x2="100.0" y1="15.0" y2="10.0" /><path d="M 100.0 14.0 a86.0,86.0 0 0,1 42.46469731375804,11.215312516191453" fill="none" id="id1" stroke="none" /><text fill="#e1ed5e" style="font-size:6.75px; font-family:Arial;" text-anchor="middle"><textPath startOffset="22.20632615414155" xlink:href="#id1">January</textPath></text><line stroke="#e1ed5e" stroke-width="0.3" x1="143.23703022742887" x2="145.7803849466894" y1="26.81831364943548" y2="22.513508569990506" /><path d="M 143.74570117128098 25.957352633546492 a86.0,86.0 0 0,1 28.547481713284135,27.462654790039103" fill="none" id="id2" stroke="none" /><text fill="#e1ed5e" style="font-size:6.75px; font-family:Arial;" text-anchor="middle"><textPath startOffset="19.985693538727396" xlink:href="#id2">February</textPath></text><path d="M 117.2510076193507 88.02491185347247 l 3.9782793053134533 -2.7615920416843465 a25.842839749132693,25.842839749132693 0 0,0 0.25052237669366595,0.36761067496033484 l -4.025226147675853 2.692703343453605" fill="red" stroke="none" /><path d="M 117.45458315368197 88.32363383020206 l 14.503377071469018 -9.702136103399353 a38.449337851222275,38.449337851222275 0 0,0 0.3632608570448758,0.5532712071742308 l -14.668234563871819 9.451046832247448" fill="red" stroke="none" /><path d="M 117.65298651832404 88.62581576622439 l 10.28775230896559 -6.628611537892589 a33.23831436476893,33.23831436476893 0 0,0 0.3057488134559522,0.48362119715094465 l -10.400328718667499 6.4505426930274385" fill="red" stroke="none" /><line stroke="#e1ed5e" stroke-width="0.3" x1="172.23445277983987" x2="176.4835382374775" y1="55.19839476539836" y2="52.563006222186495" /><path d="M 173.08426987136738 54.67131705675599 a86.0,86.0 0 0,1 12.851231095245387,41.99856678651699" fill="none" id="id3" stroke="none" /><text fill="#e1ed5e" style="font-size:6.75px; font-family:Arial;" text-anchor="middle"><textPath startOffset="22.20632615414155" xlink:href="#id3">March</textPath></text><path d="M 117.84615892207809 88.93136811851018 l 11.319237635565964 -7.0204728711782485 a34.319616360292166,34.319616360292166 0 0,0 0.3070530344274544,0.5047144544394147 l -11.438406468279643 6.824590643531753" fill="red" stroke="none" /><path d="M 118.03404312379186 89.2402003453031 l 13.555159563153275 -8.087526473448468 a36.78449984134041,36.78449984134041 0 0,0 0.31974545597545107,0.5465486312744324 l -13.692364693599053 7.85299842982014" fill="red" stroke="none" /><path d="M 118.21658344932153 89.55222093294921 l 14.318415631264745 -8.212058178847597 a37.506208702255776,37.506208702255776 0 0,0 0.3163780131283745,0.5628011829479966 l -14.457651285685552 7.964373485964807" fill="red" stroke="none" /><path d="M 118.3937258080291 89.86733742301442 l 9.542993227769951 -5.257006185731139 a31.895174793553274,31.895174793553274 0 0,0 0.26076872314592714,0.4831648400840246 l -9.632070050134343 5.091960362314657" fill="red" stroke="none" /><path d="M 118.56541770881063 90.18545643968196 l 12.831862798016662 -6.783519679785713 a35.514573438898026,35.514573438898026 0 0,0 0.2810565281374828,0.5429117538654522 l -12.946728759314261 6.561635203659916" fill="red" stroke="none" /><path d="M 118.89224826269711 90.83032412892265 l 17.861062380528928 -8.66917216337499 a40.85376778748511,40.85376778748511 0 0,0 0.3016210450543415,0.6352908438411163 l -18.007641619425023 8.360438903893334" fill="red" stroke="none" /><path d="M 119.04729006885535 91.15688171328212 l 9.050209850734836 -4.201756572213375 a30.978028694811222,30.978028694811222 0 0,0 0.2203831291451309,0.48558501218051875 l -9.121195296843313 4.045349551190793" fill="red" stroke="none" /><path d="M 119.196687751892 91.48605970444005 l 4.519371307214228 -2.004390443830411 a25.943915256534027,25.943915256534027 0 0,0 0.17754198311515001,0.40979137539833443 l -4.553204000172058 1.9262999238454737" fill="red" stroke="none" /><path d="M 119.47837535516314 92.15188598940014 l 22.527130853083495 -9.07650089101695 a45.28692020196422,45.28692020196422 0 0,0 0.2851058550805903,0.725563303197908 l -22.680030258045786 8.687388582923258" fill="red" stroke="none" /><path d="M 119.61058180528143 92.48833698450437 l 9.412272378175428 -3.605289175860679 a31.0791359432514,31.0791359432514 0 0,0 0.1870600084076757,0.5012278221475847 l -9.47293697508473 3.442738216683761" fill="red" stroke="none" /><path d="M 119.7369772167798 92.82701384747503 l 9.469738006609429 -3.441575619375994 a31.07573226409408,31.07573226409408 0 0,0 0.17838494219122586,0.5043182531492523 l -9.527576029610465 3.2780597398001268" fill="red" stroke="none" /><path d="M 119.85752413597 93.16781622104841 l 12.336773506594328 -4.244592793100295 a34.046553128403175,34.046553128403175 0 0,0 0.18589856759266268,0.555813055485764 l -12.40800936795876 4.031606634692217" fill="red" stroke="none" /><path d="M 119.97218684219823 93.5106431181261 l 12.380716465138441 -4.022738632998524 a34.0178556720978,34.0178556720978 0 0,0 0.17615501230025044,0.5584595276898006 l -12.448126961206897 3.809028938882305" fill="red" stroke="none" /><path d="M 120.18372546131832 94.20196356495316 l 12.355052549195419 -3.54914879190368 a33.854718224856256,33.854718224856256 0 0,0 0.15607545728162558,0.5614864611263733 l -12.414314777043408 3.335951027358355" fill="red" stroke="none" /><path d="M 120.28053869075195 94.5502522615342 l 2.65063469823639 -0.712273508730805 a23.74466716647655,23.74466716647655 0 0,0 0.10267156558261223,0.39563542455728545 l -2.6625025956893054 0.6665416586246691" fill="red" stroke="none" /><path d="M 120.37134235888165 94.90015583598534 l 3.841491587225167 -0.9616945269038789 a24.960039643463006,24.960039643463006 0 0,0 0.10075203171215685,0.41768221662283767 l -3.8574764191981434 0.8954270786216351" fill="red" stroke="none" /><path d="M 120.45610955862082 95.25157060432595 l 19.304665261763756 -4.481147294402105 a40.817940910772634,40.817940910772634 0 0,0 0.15298100289033184,0.6857838393971531 l -19.378940651656126 4.148185285454988" fill="red" stroke="none" /><path d="M 120.53481517161879 95.60439243477599 l 10.92175436833122 -2.337870865928551 a32.16917000801401,32.16917000801401 0 0,0 0.11124513218153056,0.5424707724216958 l -10.960378796427747 2.1495244373434432" fill="red" stroke="none" /><path d="M 120.6074358757038 95.95851677861258 l 11.47992946208094 -2.2514175263508758 a32.69861792402478,32.69861792402478 0 0,0 0.10356785239831466,0.553263608813409 l -11.516983038389114 2.053475840074904" fill="red" stroke="none" /><path d="M 120.67395015179393 96.31383870115 l 22.73054557504069 -4.052851863589812 a44.08903008719087,44.08903008719087 0 0,0 0.12678354544496837,0.7482836620212114 l -22.796940982005882 3.660982413252763" fill="red" stroke="none" /><path d="M 120.73433829027371 96.67025291283417 l 17.826824010954947 -2.8628266064193517 a39.05523277324284,39.05523277324284 0 0,0 0.10088172420498724,0.6646845170900397 l -17.873461628599237 2.55554297693723" fill="red" stroke="none" /><path d="M 120.78858239683441 97.02765380044208 l 15.662156975696615 -2.2393712026597927 a36.82143939452615,36.82143939452615 0 0,0 0.08431057745420109,0.6282117311350625 l -15.698383552208652 1.969441129460066" fill="red" stroke="none" /><path d="M 120.83666639777658 97.38593545837742 l 31.281354935430727 -3.924403222165397 a52.52656193190971,52.52656193190971 0 0,0 0.10482712707149813,0.8980948079009334 l -31.344272415505817 3.385364675939611" fill="red" stroke="none" /><path d="M 120.87857604477298 97.74499172005257 l 22.795862219709875 -2.4620863963017205 a43.928436574761264,43.928436574761264 0 0,0 0.07472619136839932,0.7524825492304706 l -22.834865536760503 2.069328316366815" fill="red" stroke="none" /><path d="M 120.91429891909075 98.10471618934814 l 10.545575237451294 -0.9556551763400707 a31.588788122576233,31.588788122576233 0 0,0 0.04441310832550841,0.5419524158493692 l -10.560462829596297 0.7739888432829328" fill="red" stroke="none" /><path d="M 120.94382443527127 98.46500227214037 l 27.890651706600895 -2.0441389360606657 a48.96546006431574,48.96546006431574 0 0,0 0.054373599518892264,0.8411355182324711 l -27.921705897124202 1.5637443535751592" fill="red" stroke="none" /><path d="M 120.96714384426684 98.82574320788733 l 27.22694648323426 -1.5248346209618853 a48.269611941173395,48.269611941173395 0 0,0 0.03931994725156233,0.8299819409321685 l -27.24916003871932 1.055941573406717" fill="red" stroke="none" /><path d="M 120.98425023603335 99.18683210126433 l 9.60367049235463 -0.3721551385718684 a30.610878543238826,30.610878543238826 0 0,0 0.01587145707428204,0.5266963919628449 l -9.608653643884557 0.20678859918402437" fill="red" stroke="none" /><line stroke="#e1ed5e" stroke-width="0.3" x1="184.98032266829074" x2="189.97916517819016" y1="98.17113171792111" y2="98.06355123074" /><path d="M 185.9800911702706 98.14961562048488 a86.0,86.0 0 0,1 -9.607161424134198,41.387399972396054" fill="none" id="id4" stroke="none" /><text fill="#e1ed5e" style="font-size:6.75px; font-family:Arial;" text-anchor="middle"><textPath startOffset="21.466115282336823" xlink:href="#id4">April</textPath></text><path d="M 120.99513854157772 99.54816195383933 l 16.7961862646101 -0.3614720602925713 a37.800075448814184,37.800075448814184 0 0,0 0.008400603955687187,0.6506360341583433 l -16.799919875683504 0.0722997680737653" fill="red" stroke="none" /><path d="M 120.99980553446 99.90962569577887 l 19.276555800371238 -0.08295816432107439 a40.27673430801632,40.27673430801632 0 0,0 -0.002983744034902284,0.6933170333931606 l -19.275127759046832 -0.248868347275771" fill="red" stroke="none" /><path d="M 120.99824983174949 100.27111621757518 l 22.251610391691667 0.2872988221728145 a43.25346502540363,43.25346502540363 0 0,0 -0.016020130458276754,0.7443925125022357 l -22.24336819854838 -0.6702811504651651" fill="red" stroke="none" /><path d="M 120.9904718944345 100.63252640178507 l 22.12017475982879 0.666568842189833 a43.13021566606943,43.13021566606943 0 0,0 -0.028749096618694982,0.7418864399893924 l -22.10542353035889 -1.0472325291932316" fill="red" stroke="none" /><path d="M 120.9764740272857 100.99374915477107 l 20.16179304887091 0.9551540823744986 a41.18440532358028,41.18440532358028 0 0,0 -0.03964224371983915,0.707838891770766 l -20.14236445426354 -1.3020646904806878" fill="red" stroke="none" /><path d="M 120.95626037817324 101.35467743843564 l 14.196114782927824 0.9176807341974524 a35.225744720751145,35.225744720751145 0 0,0 -0.04432311424446594,0.6047536789875173 l -14.17821511001902 -1.1619075496817401" fill="red" stroke="none" /><path d="M 120.92983693683757 101.71520430193887 l 19.68085639380009 1.6128500978941485 a40.74683250123065,40.74683250123065 0 0,0 -0.06330389813252563,0.6985532408636683 l -19.650177899390492 -1.9513847273063873" fill="red" stroke="none" /><path d="M 120.89721153311464 102.0752229133903 l 17.508884969822503 1.7387410382343547 a38.59500705554041,38.59500705554041 0 0,0 -0.07134139749746395,0.6605327377449356 l -17.47636127082399 -2.039870097864082" fill="red" stroke="none" /><path d="M 120.8583938346157 102.4346265915055 l 23.053765199796707 2.6908740066362578 a44.21027558662215,44.21027558662215 0 0,0 -0.09473312748471015,0.7551162348087044 l -23.004030563065147 -3.087307995732357" fill="red" stroke="none" /><path d="M 120.81339534386255 102.79330883721812 l 5.052370747152531 0.6780648531276295 a26.097668301461916,26.097668301461916 0 0,0 -0.06358628404277432,0.44472232249673743 l -5.039950412093154 -0.7649326476047763" fill="red" stroke="none" /><path d="M 120.76222939487914 103.15116336523771 l 31.6146880106711 4.7982827261901715 a52.976741784186295,52.976741784186295 0 0,0 -0.14459685232021835,0.9004047374264738 l -31.52740940398959 -5.34176669330985" fill="red" stroke="none" /><path d="M 120.70491114924044 103.5080841355445 l 23.914547044841772 4.051900657386771 a45.2553800072743,45.2553800072743 0 0,0 -0.13674356498826218,0.7669305320491291 l -23.84125703751432 -4.462949940169119" fill="red" stroke="none" /><path d="M 120.64145759157962 103.86396538481128 l 4.540403501229422 0.8499381346491358 a25.61927037384772,25.61927037384772 0 0,0 -0.08487306462015087,0.4327659279836837 l -4.525100503633607 -0.9279677897007644" fill="red" stroke="none" /><path d="M 120.5718875245553 104.21870165774334 l 30.638766189527434 6.283128544266336 a52.2763760356008,52.2763760356008 0 0,0 -0.18835915451124863,0.8799512618851733 l -30.52607299629174 -6.809593625567677" fill="red" stroke="none" /><path d="M 120.49622156327973 104.57218783832717 l 14.090554488204393 3.143245776659403 a35.4368874691723,35.4368874691723 0 0,0 -0.13793291080537273,0.5942113697098789 l -14.034361011468468 -3.3853258037178464" fill="red" stroke="none" /><path d="M 120.41448212921028 104.9243191809786 l 13.821533376955825 3.333988170157536 a35.217955619886226,35.217955619886226 0 0,0 -0.14722562081355653,0.5880931709158155 l -13.762096441847207 -3.5714091804707473" fill="red" stroke="none" /><path d="M 120.32669344350535 105.2749913415812 l 20.406464056098564 5.295692656918664 a42.082412954626065,42.082412954626065 0 0,0 -0.18799200530729454,0.6995881864909869 l -20.312283974449493 -5.6461717765851995" fill="red" stroke="none" /><path d="M 120.23288151984713 105.62410040840565 l 25.00225713365369 6.949835811498759 a46.95020384475096,46.95020384475096 0 0,0 -0.22314171635260527,0.7767855880664168 l -24.878922780414985 -7.3791788750697584" fill="red" stroke="none" /><path d="M 120.13307415673323 105.97154293290107 l 18.632194171072296 5.526376476862927 a40.43449244494346,40.43449244494346 0 0,0 -0.20366127466562206,0.6655768293697418 l -18.534306123900542 -5.846280278784726" fill="red" stroke="none" /><path d="M 120.02730092923936 106.31721596034902 l 13.31005656758489 4.198394086101597 a34.95650811394177,34.95650811394177 0 0,0 -0.18594823017813014,0.5722898067861099 l -13.235816086390512 -4.426882792865503" fill="red" stroke="none" /><path d="M 119.9155931802556 106.66101706037122 l 25.934937271642248 8.67426132189397 a48.34709821470139,48.34709821470139 0 0,0 -0.27076485939700196,0.786969423628928 l -25.781781581302017 -9.1194034486122" fill="red" stroke="none" /><path d="M 119.79798401119884 107.00284435728193 l 13.41784414981531 4.746093043527648 a35.232495944371614,35.232495944371614 0 0,0 -0.2071599273029351,0.5700151482891813 l -13.334159961507147 -4.976355988822961" fill="red" stroke="none" /><path d="M 119.67450827220406 107.3425965602758 l 26.296063081905782 9.813784398707437 a49.067655723837746,49.067655723837746 0 0,0 -0.3021299320013634,0.7887659144339247 l -26.12323887031091 -10.264973879974505" fill="red" stroke="none" /><path d="M 119.41010516605496 108.01547362559984 l 16.82325463951724 6.947224278600215 a39.201258798314214,39.201258798314214 0 0,0 -0.2629266113223297,0.621480841900583 l -16.701177047002602 -7.235779646166962" fill="red" stroke="none" /><path d="M 119.26925614724726 108.34839909993367 l 27.12823433247055 11.753298900245328 a50.56486314928486,50.56486314928486 0 0,0 -0.35289197589861054,0.7956782448905132 l -26.921901271840667 -12.218525481628529" fill="red" stroke="none" /><path d="M 119.12269723197855 108.67885076344098 l 24.818988227156204 11.264116788027025 a48.25550409796213,48.25550409796213 0 0,0 -0.3497958381380654,0.7534291160507589 l -24.621417772178308 -11.689665971356613" fill="red" stroke="none" /><path d="M 118.97047184881838 109.00673069616215 l 36.447492123254385 17.304405958942496 a61.34677369588026,61.34677369588026 0 0,0 -0.46111373548041934,0.9500308724666284 l -36.14422513115925 -17.929225787374403" fill="red" stroke="none" /><path d="M 118.81262510543309 109.33194174019688 l 8.159735655503125 4.047610438511918 a30.108481554553407,30.108481554553407 0 0,0 -0.23430324316003331,0.46230252710918385 l -8.088853742556823 -4.187467177323796" fill="red" stroke="none" /><path d="M 118.64920377521936 109.65438752849418 l 13.30894575807264 6.889823366876194 a35.98658410773025,35.98658410773025 0 0,0 -0.2895163391692834,0.5476558066271682 l -13.188376910678464 -7.117894188589497" fill="red" stroke="none" /><line stroke="#e1ed5e" stroke-width="0.3" x1="174.80103733775053" x2="179.2010983576182" y1="140.37084112569926" y2="142.7455964860345" /><path d="M 175.68104954172406 140.8457921977663 a86.0,86.0 0 0,1 -30.038265399797805,32.042727171017184" fill="none" id="id5" stroke="none" /><text fill="#e1ed5e" style="font-size:6.75px; font-family:Arial;" text-anchor="middle"><textPath startOffset="22.206326154141568" xlink:href="#id5">May</textPath></text><path d="M 118.48025628344425 109.97397251340804 l 10.008612493360003 5.401744671449984 a32.373265561736446,32.373265561736446 0 0,0 -0.26888862938370783,0.48811096631346673 l -9.914147454524786 -5.5732261561612555" fill="red" stroke="none" /><path d="M 118.30583269289576 110.29060199501025 l 24.3986964406536 13.715698077218793 a48.98958309351152,48.98958309351152 0 0,0 -0.4195561299378658,0.7315314770381058 l -24.158988314563356 -14.133649400115214" fill="red" stroke="none" /><path d="M 118.12598468904814 110.60418214915192 l 9.497962770499257 5.556560318904633 a32.00393835712539,32.00393835712539 0 0,0 -0.28227340174831816,0.47310645766591447 l -9.400908493052711 -5.719228870456651" fill="red" stroke="none" /><path d="M 117.94076556474637 110.91462005526583 l 16.660794915488065 10.135924560464971 a40.50177053273343,40.50177053273343 0 0,0 -0.36747711631142127,0.5924901187551224 l -16.48385315950868 -10.421211010585367" fill="red" stroke="none" /><path d="M 117.75023020441432 111.22182372390056 l 8.903786220510122 5.62903794999858 a31.53392031976083,31.53392031976083 0 0,0 -0.29400896367927526,0.4563084407130146 l -8.805572393453797 -5.781467990633048" fill="red" stroke="none" /><path d="M 117.55443506779139 111.5257021239791 l 27.241951004751325 17.886227118347293 a53.588970758131865,53.588970758131865 0 0,0 -0.5129150812676277,0.7667384532630038 l -26.930032818072977 -18.352502485816103" fill="red" stroke="none" /><path d="M 117.35343817320211 111.8261652097733 l 8.289490543374288 5.649190880351545 a31.031401251636723,31.031401251636723 0 0,0 -0.30460880492857834,0.4388117022978182 l -8.191020831283574 -5.791043844836383" fill="red" stroke="none" /><path d="M 117.14729908036423 112.12312394758627 l 21.308388295842303 15.065010018376936 a47.09601384541683,47.09601384541683 0 0,0 -0.47369665822430607,0.6579232275930258 l -21.045911845242394 -15.429566851421093" fill="red" stroke="none" /><path d="M 116.93607887273984 112.41649034213515 l 19.12510481956779 14.021349396684137 a44.714296811488,44.714296811488 0 0,0 -0.4604268049112309,0.6168169470517036 l -18.880916747961468 -14.348479223245155" fill="red" stroke="none" /><path d="M 116.71984013943494 112.70617746262583 l 8.857883500185768 6.73151410288719 a32.125438518109405,32.125438518109405 0 0,0 -0.33837752352789896,0.4373985629090103 l -8.740699159439801 -6.882990659909453" fill="red" stroke="none" /><path d="M 116.498646956653 112.99209946851258 l 13.305489606225438 10.477601278184427 a37.935648266481714,37.935648266481714 0 0,0 -0.40840812226851647,0.5095519281495233 l -13.123163571902067 -10.7050810399122" fill="red" stroke="none" /><path d="M 116.27256486870786 113.27417163493432 l 28.310256712593024 23.09379066324483 a57.53482998907607,57.53482998907607 0 0,0 -0.6326201138058374,0.7620316802540266 l -27.90854059889364 -23.577683600612627" fill="red" stroke="none" /><path d="M 116.0416608686014 113.55231037782055 l 2.9614305999188706 2.5018747735174496 a24.876783277473585,24.876783277473585 0 0,0 -0.2791619198629068,0.32472838074052623 l -2.917926170485185 -2.5524802534195037" fill="red" stroke="none" /><path d="M 115.80600337817218 113.82643327865902 l 16.7038659645683 14.611846064370186 a43.19290840721679,43.19290840721679 0 0,0 -0.49433491874402113,0.5553905216174011 l -16.449872196175942 -14.897210755728452" fill="red" stroke="none" /><path d="M 115.56566222782051 114.09645910891815 l 13.029123614340172 11.799337899438838 a38.577896262718426,38.577896262718426 0 0,0 -0.4499902029295853,0.48837549113561757 l -12.824087003414864 -12.021864645375791" fill="red" stroke="none" /><path d="M 115.32070863581623 114.36230785411682 l 14.065707287298904 13.185814249728308 a40.279777460342004,40.279777460342004 0 0,0 -0.4785495518223134,0.5017572918698001 l -13.836651184097626 -13.425978658180615" fill="red" stroke="none" /><path d="M 115.07121518719521 114.62390073753431 l 14.173677184625046 13.753001709504879 a40.74938431839344,40.74938431839344 0 0,0 -0.49279467480337896,0.49919840382580694 l -13.934841884766131 -13.994940607311351" fill="red" stroke="none" /><path d="M 114.81725581225074 114.88116024355365 l 6.130954445181286 6.157396261542413 a29.689196230408463,29.689196230408463 0 0,0 -0.3652478695262103,0.3574719148176354 l -6.0240566232792805 -6.2620182792826204" fill="red" stroke="none" /><path d="M 114.55890576462653 115.13401014063108 l 19.10464943961109 19.85931930782663 a48.55685384039056,48.55685384039056 0 0,0 -0.607340261837795,0.574278125835419 l -18.759973343382487 -20.18523207040797" fill="red" stroke="none" /><path d="M 114.29624159901734 115.38237550388516 l 11.714099314391524 12.604059122515082 a38.20704591472004,38.20704591472004 0 0,0 -0.48559417943709493,0.4435787695889186 l -11.495405585487566 -12.803830658690584" fill="red" stroke="none" /><path d="M 114.0293411484842 115.62618273729858 l 13.414565661211583 14.941432540916638 a41.07976539339341,41.07976539339341 0 0,0 -0.5302373595563143,0.46787282016777576 l -13.15538594874868 -15.170128502856702" fill="red" stroke="none" /><path d="M 113.75828350139079 115.86535959552629 l 13.23238328814845 15.258917956668483 a41.19729052850432,41.19729052850432 0 0,0 -0.5397522331369982,0.45998856275397465 l -12.967765578434404 -15.484430909645406" fill="red" stroke="none" /><path d="M 113.48314897796784 116.09983520530334 l 7.041862988161951 8.408483347101587 a31.967699236509446,31.967699236509446 0 0,0 -0.42491141802899324,0.34967316921580344 l -6.896081441588267 -8.52845163517457" fill="red" stroke="none" /><path d="M 113.20401910651253 116.32954008644616 l 9.045696225215028 11.186901346318752 a35.386499988918004,35.386499988918004 0 0,0 -0.4769468419438466,0.37891541664598305 l -8.851791890553832 -11.340950676969861" fill="red" stroke="none" /><path d="M 112.92097659922987 116.55440617244103 l 13.380847460801931 17.14359453377495 a42.74741162317318,42.74741162317318 0 0,0 -0.5839525869500807,0.4477499426575926 l -13.083766145358355 -17.371383818259915" fill="red" stroke="none" /><path d="M 112.34349029814194 116.9893568818739 l 2.389292933990231 3.288579597053678 a25.064907931377213,25.064907931377213 0 0,0 -0.3512341635327647,0.2505962498351898 l -2.3323314426085817 -3.329220108733087" fill="red" stroke="none" /><path d="M 112.04921762599082 117.19931262002967 l 6.560315544407738 9.364335630466336 a32.43365741319107,32.43365741319107 0 0,0 -0.46000674128661645,0.3163968312223469 l -6.398151918498238 -9.475873251053775" fill="red" stroke="none" /><path d="M 111.7513745106137 117.40417183066458 l 14.805734210261722 21.92777891997306 a47.458217133210795,47.458217133210795 0 0,0 -0.6809695988061399,0.451309517951433 l -14.426089912715618 -22.179386459015813" fill="red" stroke="none" /><path d="M 111.45004920935366 117.60387380957326 l 2.3286840362610106 3.5802343873961897 a25.270930532030583,25.270930532030583 0 0,0 -0.3666910672532173,0.23403958850837217 l -2.266711166960863 -3.6197884047283706" fill="red" stroke="none" /><path d="M 111.1453310114006 117.79835938074945 l 5.872089274977045 9.377339724139071 a32.064173387796174,32.064173387796174 0 0,0 -0.47030630192467393,0.2889005431707443 l -5.709803773120062 -9.477028734138194" fill="red" stroke="none" /><line stroke="#e1ed5e" stroke-width="0.3" x1="143.8653032363475" x2="146.44561519142675" y1="172.8068346515853" y2="177.08958963109032" /><path d="M 144.38136562736335 173.6633856474863 a86.0,86.0 0 0,1 -40.68145358897372,12.25698825130547" fill="none" id="id6" stroke="none" /><text fill="#e1ed5e" style="font-size:6.75px; font-family:Arial;" text-anchor="middle"><textPath startOffset="21.466115282336833" xlink:href="#id6">June</textPath></text><path d="M 110.8373102113329 117.98757091392108 l 14.390036768069347 23.884322010908217 a48.884296586199596,48.884296586199596 0 0,0 -0.7244935095144235,0.4280435356517223 l -13.97677538752654 -24.12848411885369" fill="red" stroke="none" /><path d="M 110.5260780823613 118.17145234162733 l 10.39571298217717 17.94639955497007 a41.739915751864494,41.739915751864494 0 0,0 -0.6248092373906604,0.35478299150984444 l -10.08525497786531 -18.122685712274546" fill="red" stroke="none" /><path d="M 110.21172684928248 118.3499491758327 l 1.643785404346985 2.953798027594339 a24.380377677621894,24.380377677621894 0 0,0 -0.36846551013828577,0.2009167747971374 l -1.5926970823400506 -2.9816554541512468" fill="red" stroke="none" /><path d="M 109.89434966115114 118.52300852407294 l 13.272781148223483 24.8477006338277 a49.17046230002195,49.17046230002195 0 0,0 -0.7499879238892859,0.39235823516055124 l -12.843102321807702 -25.072488287932966" fill="red" stroke="none" /><path d="M 109.57404056367764 118.69057910512821 l 12.371970911503167 24.152738801324876 a48.1370679300492,48.1370679300492 0 0,0 -0.740728828438329,0.37141681185721254 l -11.954388175382077 -24.362123454091392" fill="red" stroke="none" /><path d="M 108.92500713936063 119.00905698771935 l 6.229589150833443 13.268181563242358 a35.65784510026444,35.65784510026444 0 0,0 -0.557844919876418,0.2560792421497453 l -6.000276235189606 -13.373447875726178" fill="red" stroke="none" /><path d="M 108.59647513512805 119.15986991738527 l 10.56131941272778 23.53912538837419 a46.79984286361572,46.79984286361572 0 0,0 -0.7378314476861443,0.3234436237981048 l -10.15456729038388 -23.717433565466752" fill="red" stroke="none" /><path d="M 108.2653958097858 119.30500536409082 l 13.755666069815454 32.128311018091615 a55.949201963700105,55.949201963700105 0 0,0 -0.8886026511064132,0.3714359802302896 l -13.20059195921158 -32.36033204134188" fill="red" stroke="none" /><path d="M 107.93186726928326 119.44442032107085 l 4.9383472422215915 12.106014411135567 a34.07451178466636,34.07451178466636 0 0,0 -0.5449957310777374,0.21686504882586916 l -4.729230435101988 -12.189226304367503" fill="red" stroke="none" /><path d="M 107.2578585660854 119.70592522655815 l 8.984535417785166 24.394052533009155 a46.995993453927596,46.995993453927596 0 0,0 -0.7615151095783138,0.2730522248849354 l -8.563300747577117 -24.54509229893405" fill="red" stroke="none" /><path d="M 106.91757812671514 119.82793768551818 l 7.580110323782736 21.726961719287043 a44.01127849712141,44.01127849712141 0 0,0 -0.7174472724616024,0.24339706797383548 l -7.204993318383907 -21.854221774159" fill="red" stroke="none" /><path d="M 106.57524785965236 119.94407469862006 l 7.700352020950656 23.356746268669095 a45.59335311635131,45.59335311635131 0 0,0 -0.747467537318629,0.239315501202581 l -7.2971631385410864 -23.485834616531385" fill="red" stroke="none" /><path d="M 106.2309692047433 120.05430185196036 l 1.92712664804093 6.202434683411584 a27.49492210265654,27.49492210265654 0 0,0 -0.45317526740692593,0.1365379906163031 l -1.8200764061937582 -6.2346880431336125" fill="red" stroke="none" /><path d="M 105.88484417918355 120.15858648285463 l 1.854249624997777 6.351748710448325 a27.616868848064495,27.616868848064495 0 0,0 -0.45747847175164275,0.1292879857459564 l -1.7446399851415284 -6.382725489532801" fill="red" stroke="none" /><path d="M 105.53697534728816 120.25689768951611 l 6.606152407603845 24.16845751493596 a46.05505115308597,46.05505115308597 0 0,0 -0.7665085968956625,0.20244188712837072 l -6.189153367896685 -24.278590751367915" fill="red" stroke="none" /><path d="M 105.18746579009965 120.34920634021253 l 1.066229805875932 4.182568368405043 a25.316332257289822,25.316332257289822 0 0,0 -0.42320072767957523,0.10401244244109047 l -0.9940757934531458 -4.200302069160164" fill="red" stroke="none" /><path d="M 104.83641907484287 120.43548508189849 l 7.231208274672869 30.554268878360073 a52.39830759456344,52.39830759456344 0 0,0 -0.8794927444285039,0.20016968524938597 l -6.704195380851503 -30.674215297187143" fill="red" stroke="none" /><path d="M 104.48393922423573 120.51570834832081 l 4.9464328126403245 22.631790457862405 a44.16603412106951,44.16603412106951 0 0,0 -0.7441104755636108,0.1559355850049913 l -4.5561308756473355 -22.71358202359394" fill="red" stroke="none" /><path d="M 103.7750983002368 120.6578951692458 l 4.241000674563283 23.20738173687644 a44.59170731004334,44.59170731004334 0 0,0 -0.7562563058232974,0.13148485251491063 l -3.8408953972679356 -23.276945167912356" fill="red" stroke="none" /><path d="M 103.41894727170886 120.7198165907248 l 0.6142672675532074 3.7226386106348652 a24.77297793544791,24.77297793544791 0 0,0 -0.4213342509599768,0.06580374482343264 l -0.5500971529847135 -3.7326606628054035" fill="red" stroke="none" /><path d="M 103.06178313531738 120.77559828337769 l 3.455858059734579 23.449576798970877 a44.70286073409422,44.70286073409422 0 0,0 -0.7622293486207636,0.10563804226919528 l -3.051700119926985 -23.505589406732675" fill="red" stroke="none" /><path d="M 102.70371172650421 120.8252237178851 l 2.023147801567019 15.583209248589613 a36.713991775240125,36.713991775240125 0 0,0 -0.6274116589738501,0.07597081433213687 l -1.7546087195417885 -15.6157255916471" fill="red" stroke="none" /><path d="M 102.34483914955558 120.86867818915974 l 3.0281608958038126 26.95012800835588 a48.11971898965112,48.11971898965112 0 0,0 -0.823918209960806,0.08540249126074916 l -2.563810089237404 -26.998259868072388" fill="red" stroke="none" /><path d="M 101.98527174616119 120.90594882070398 l 2.0800745460736567 21.90427183963669 a43.00281425049815,43.00281425049815 0 0,0 -0.7375099002581864,0.06363545747409421 l -1.7027203280739285 -21.936831549389446" fill="red" stroke="none" /><path d="M 101.62511606390274 120.93702456842531 l 1.3732432872064577 17.692046175224817 a38.74526119819443,38.74526119819443 0 0,0 -0.6653801919721939,0.04588851372133505 l -1.0685003344553337 -17.71306303346244" fill="red" stroke="none" /><path d="M 101.26447882468166 120.96189622390904 l 0.8569592479281393 14.206240921204166 a35.23206451165485,35.23206451165485 0 0,0 -0.605675983958734,0.03130653009304993 l -0.6122951955559257 -14.218887258059418" fill="red" stroke="none" /><path d="M 100.90346689309514 120.98055641714683 l 0.3918983654402932 9.100771515533362 a30.10920559142114,30.10920559142114 0 0,0 -0.5179925336868677,0.017840710209725587 l -0.23518548007877316 -9.106169024169182" fill="red" stroke="none" /><line stroke="#e1ed5e" stroke-width="0.3" x1="102.19456741930631" x2="102.32365962044197" y1="184.97166512339345" y2="189.96999836594603" /><path d="M 102.22038585953345 185.97133177190398 a86.0,86.0 0 0,1 -42.740103519485714,-10.115201625700543" fill="none" id="id7" stroke="none" /><text fill="#e1ed5e" style="font-size:6.75px; font-family:Arial;" text-anchor="middle"><textPath startOffset="22.20632615414155" xlink:href="#id7">July</textPath></text><path d="M 100.54218724476979 120.99299961872073 l 0.7043756549073771 27.2727881327881 a48.2818825889852,48.2818825889852 0 0,0 -0.8310008864537431,0.014306433876900287 l -0.23481507856096595 -27.28087204394416" fill="red" stroke="none" /><path d="M 99.81925306533755 120.99922214144158 l -0.19249667733477432 22.364310058101076 a43.36513848259531,43.36513848259531 0 0,0 -0.7463766238569833,-0.012849550452397007 l 0.5774329910844255 -22.357683030369518" fill="red" stroke="none" /><path d="M 99.45781275523022 120.99299961872073 l -0.6731818948780586 26.064993964410696 a47.07368566636404,47.07368566636404 0 0,0 -0.8098459334724951,-0.027892731408250833 l 1.1217481800251967 -26.049544434576354" fill="red" stroke="none" /><path d="M 99.09653310690486 120.98055641714683 l -1.1039905501595648 25.637171874963958 a46.66093094338716,46.66093094338716 0 0,0 -0.8021501337855715,-0.04146199943138845 l 1.5451287523586252 -25.614370068770366" fill="red" stroke="none" /><path d="M 98.73552117531835 120.96189622390904 l -0.6303527435400237 10.449671862135764 a31.468666897346594,31.468666897346594 0 0,0 -0.5404177691345976,-0.03727037340964695 l 0.8101332734535514 -10.437273144209833" fill="red" stroke="none" /><path d="M 98.37488393609728 120.93702456842531 l -1.960892475979855 25.26296727818709 a46.338954497001374,46.338954497001374 0 0,0 -0.7947256081910088,-0.06857226950568145 l 2.3954624019124053 -25.225470756402746" fill="red" stroke="none" /><path d="M 97.65516085044442 120.86867818915974 l -2.5314362669324497 22.52936147922709 a43.67113358955,43.67113358955 0 0,0 -0.7463034404547066,-0.0903669533380269 l 2.918867130438546 -22.482448997163715" fill="red" stroke="none" /><path d="M 97.2962882734958 120.8252237178851 l -3.5835517103229866 27.602153491628975 a48.833805349538615,48.833805349538615 0 0,0 -0.8326661656770171,-0.11539994329144804 l 4.058146467186835 -27.53637898284492" fill="red" stroke="none" /><path d="M 96.93821686468263 120.77559828337769 l -3.8569800870594544 26.17137312941288 a47.454055773565756,47.454055773565756 0 0,0 -0.8070898499351845,-0.1260508359187784 l 4.306905800603156 -26.101103986146995" fill="red" stroke="none" /><path d="M 96.58105272829116 120.7198165907248 l -0.8685172136845463 5.2634673609449045 a26.33464251943827,26.33464251943827 0 0,0 -0.44662428662922976,-0.07765135709260804 l 0.958990471785826 -5.24773742533129" fill="red" stroke="none" /><path d="M 96.22490169976321 120.6578951692458 l -1.1867137982885991 6.493873083889147 a27.6014147929598,27.6014147929598 0 0,0 -0.46663791119717246,-0.08943226628852483 l 1.2983193240574666 -6.472483619252154" fill="red" stroke="none" /><path d="M 95.16358092515715 120.4354850818985 l -1.3662532956064433 5.772876255841691 a26.93234762408747,26.93234762408747 0 0,0 -0.45021486512332876,-0.1106518601740663 l 1.4654214454729826 -5.748503137353595" fill="red" stroke="none" /><path d="M 94.81253420990036 120.34920634021253 l -2.1663155242251797 8.497945506377425 a29.769720678554094,29.769720678554094 0 0,0 -0.49546675676129015,-0.13085727368793298 l 2.312272723797959 -8.45939688338591" fill="red" stroke="none" /><path d="M 94.46302465271185 120.25689768951611 l -3.9983272837094948 14.627788934435557 a36.16439349852315,36.16439349852315 0 0,0 -0.5990697772636353,-0.16930310300096874 l 4.249528229077744 -14.556797038096068" fill="red" stroke="none" /><path d="M 94.11515582081647 120.15858648285463 l -4.96771718733339 17.016959751875238 a38.7272426860544,38.7272426860544 0 0,0 -0.6383079935509229,-0.19231696233657963 l 5.259900155324559 -16.92892742043293" fill="red" stroke="none" /><path d="M 93.76903079525671 120.05430185196036 l -5.845775619519176 18.81456078188048 a40.70179661880712,40.70179661880712 0 0,0 -0.667274275824049,-0.2136401512917471 l 6.1687712404341655 -18.711147783929025" fill="red" stroke="none" /><path d="M 93.42475214034765 119.94407469862007 l -6.177431049659882 18.73741476059059 a40.72945428246053,40.72945428246053 0 0,0 -0.663948807706465,-0.2252474840778294 l 6.4990495903035725 -18.628304289614636" fill="red" stroke="none" /><path d="M 93.08242187328487 119.8279376855182 l -8.181167595873415 23.44977943354119 a45.83593482664787,45.83593482664787 0 0,0 -0.7427177162742358,-0.26631214842531153 l 8.583604872777379 -23.30547974407592" fill="red" stroke="none" /><path d="M 92.7421414339146 119.70592522655815 l -11.018883335730083 29.91754236004352 a52.88220711982513,52.88220711982513 0 0,0 -0.8514785247207364,-0.32195631992824303 l 11.532232081211102 -29.723437790008642" fill="red" stroke="none" /><path d="M 92.40401165467489 119.57807347666478 l -9.441241689200295 24.334071499184574 a47.10141912542919,47.10141912542919 0 0,0 -0.7533511415595524,-0.2997739666221933 l 9.858713906801706 -24.167950688156314" fill="red" stroke="none" /><path d="M 92.06813273071674 119.44442032107085 l -8.47409026344115 20.773642236695302 a43.435561449875934,43.435561449875934 0 0,0 -0.6898571150612101,-0.28836033004465544 l 8.830418837999822 -20.624696863630675" fill="red" stroke="none" /><path d="M 91.7346041902142 119.30500536409082 l -4.8464608911861875 11.31959747050885 a33.313467020467776,33.313467020467776 0 0,0 -0.52520953266419,-0.23023642463457736 l 5.040591098508121 -11.23449649257982" fill="red" stroke="none" /><path d="M 91.40352486487194 119.15986991738527 l -10.162168499543903 22.649495690876694 a45.824772378899354,45.824772378899354 0 0,0 -0.7169002053876954,-0.32909372255885716 l 10.550536700699018 -22.471214897983764" fill="red" stroke="none" /><path d="M 91.07499286063937 119.00905698771935 l -4.659935863507431 9.925032552397003 a31.964546202107176,31.964546202107176 0 0,0 -0.4960400323994144,-0.2381293598548487 l 4.830088563907088 -9.843348916042592" fill="red" stroke="none" /><path d="M 90.42595943632237 118.69057910512821 l -14.285343148177821 27.888051484540284 a52.333918434590345,52.333918434590345 0 0,0 -0.7982395324302679,-0.4176011962373382 l 14.763273583134584 -27.638020869358233" fill="red" stroke="none" /><path d="M 90.10565033884886 118.52300852407294 l -5.171050992803843 9.680618221347322 a31.975160022416958,31.975160022416958 0 0,0 -0.4832469703792834,-0.26350477873127 l 5.336920775051767 -9.590172790856286" fill="red" stroke="none" /><line stroke="#e1ed5e" stroke-width="0.3" x1="58.666819895761336" x2="56.23545636021788" y1="174.27360380694188" y2="178.64263932499728" /><path d="M 58.180547188652646 175.14741091055294 a86.0,86.0 0 0,1 -31.652253787137756,-30.449443065178592" fill="none" id="id8" stroke="none" /><text fill="#e1ed5e" style="font-size:6.75px; font-family:Arial;" text-anchor="middle"><textPath startOffset="22.20632615414155" xlink:href="#id8">August</textPath></text><path d="M 89.7882731507175 118.34994917583269 l -10.87602520034002 19.54365922697371 a43.36610247983555,43.36610247983555 0 0,0 -0.6491517994455999,-0.36860533354648356 l 11.210825766706828 -19.35355072763259" fill="red" stroke="none" /><path d="M 89.4739219176387 118.17145234162733 l -5.509396008892396 9.511018845138734 a31.991493249571853,31.991493249571853 0 0,0 -0.4741324072878757,-0.2801257834850546 l 5.672296287208654 -9.41477448935993" fill="red" stroke="none" /><path d="M 89.1626897886671 117.98757091392108 l -16.026919428874752 26.60119016036981 a52.05616628510027,52.05616628510027 0 0,0 -0.7635419994092076,-0.4690298587543197 l 16.48244062821627 -26.32137183478711" fill="red" stroke="none" /><path d="M 88.8546689885994 117.79835938074946 l -4.13882807890961 6.609435779719651 a28.79836772619815,28.79836772619815 0 0,0 -0.4178755579770066,-0.26670795219865573 l 4.25198543893354 -6.537213398697191" fill="red" stroke="none" /><path d="M 88.54995079064634 117.60387380957326 l -14.189424448521637 21.815525230947763 a47.02416006872118,47.02416006872118 0 0,0 -0.6747413904384604,-0.4471818010591535 l 14.562840537700058 -21.568045408797293" fill="red" stroke="none" /><path d="M 88.24862548938628 117.40417183066458 l -11.206239557969075 16.596809051258706 a41.02583021286593,41.02583021286593 0 0,0 -0.5818695753110639,-0.4002151996690047 l 11.49026601790303 -16.4014530622246" fill="red" stroke="none" /><path d="M 87.95078237400918 117.19931262002967 l -5.135548597762556 7.330592620200098 a29.95049984991414,29.95049984991414 0 0,0 -0.41969588681408315,-0.29944187162492014 l 5.260971812425526 -7.241106486730958" fill="red" stroke="none" /><path d="M 87.65650970185807 116.9893568818739 l -18.21157896431447 25.066088029715583 a51.983388734722226,51.983388734722226 0 0,0 -0.7193882883278367,-0.5321862575599317 l 18.640352223060873 -24.748891823415885" fill="red" stroke="none" /><path d="M 87.36589467227662 116.77436683061367 l -5.307641340188647 7.046982792702242 a29.82218924512057,29.82218924512057 0 0,0 -0.40738711180264775,-0.312367065452645 l 5.4281571804847815 -6.9545763854222304" fill="red" stroke="none" /><path d="M 87.07902340077011 116.55440617244103 l -16.764465381029726 21.478699156372873 a48.24668451319751,48.24668451319751 0 0,0 -0.6502791691757158,-0.5166211004148572 l 17.1317020429228 -21.186944141952885" fill="red" stroke="none" /><path d="M 86.79598089348748 116.32954008644616 l -15.616481196325894 19.313055642191525 a45.83683963779583,45.83683963779583 0 0,0 -0.6092586264769364,-0.5013783714743981 l 15.94660995134752 -19.04138215185995" fill="red" stroke="none" /><path d="M 86.51685102203217 116.09983520530335 l -8.766314630062277 10.467600790621413 a34.65353208898935,34.65353208898935 0 0,0 -0.4540182398202744,-0.3869241936902046 l 8.945198346459607 -10.315152206708257" fill="red" stroke="none" /><path d="M 86.24171649860922 115.8653595955263 l -14.779749991707838 17.043263305827228 a43.55911864256103,43.55911864256103 0 0,0 -0.5622396289864469,-0.49611110209980336 l 15.070931973600873 -16.786329061955136" fill="red" stroke="none" /><path d="M 85.97065885151581 115.62618273729859 l -17.653267433494904 19.662589989551865 a47.42452073691625,47.42452073691625 0 0,0 -0.6027440929048306,-0.5505924379440528 l 17.98911107586659 -19.355804785021235" fill="red" stroke="none" /><path d="M 85.70375840098266 115.38237550388516 l -13.678941619354513 14.718177153574201 a41.09323723419655,41.09323723419655 0 0,0 -0.5139867081095452,-0.48600651395032707 l 13.930264161854875 -14.480536002877942" fill="red" stroke="none" /><path d="M 85.44109423537348 115.13401014063109 l -14.75462402648582 15.337459644843285 a42.28230717098475,42.28230717098475 0 0,0 -0.5201731462516765,-0.5090989055418947 l 15.01644712511329 -15.081210636378822" fill="red" stroke="none" /><path d="M 85.18274418774928 114.88116024355367 l -5.812655310770963 5.83772435437131 a29.238081536344115,29.238081536344115 0 0,0 -0.35358499578787167,-0.3581797339520446 l 5.912280931614368 -5.7368041264386" fill="red" stroke="none" /><path d="M 84.9287848128048 114.62390073753433 l -19.117145172748376 18.54974731094223 a47.63753676404305,47.63753676404305 0 0,0 -0.5659644443367999,-0.5934114571911037 l 19.43361616846413 -18.217928737168627" fill="red" stroke="none" /><path d="M 84.67929136418377 114.36230785411682 l -12.520247056848678 11.73703168139916 a38.16142473848531,38.16142473848531 0 0,0 -0.445132288842506,-0.48310318484377446 l 12.720425753686913 -11.51977724175404" fill="red" stroke="none" /><path d="M 84.43433777217949 114.09645910891817 l -14.518920098900384 13.14851629723797 a40.58781564281699,40.58781564281699 0 0,0 -0.4645201096121812,-0.5218932674931619 l 14.743099058160904 -12.896648860003944" fill="red" stroke="none" /><path d="M 84.19399662182784 113.82643327865904 l -14.932285290160884 13.062141094277472 a40.83917019317006,40.83917019317006 0 0,0 -0.458288398044491,-0.5330929429137021 l 15.154916197776155 -12.80317105220224" fill="red" stroke="none" /><path d="M 83.95833913139862 113.55231037782056 l -12.691822867433267 10.722301398132757 a37.61475594075043,37.61475594075043 0 0,0 -0.4135903623689352,-0.4981962348253814 l 12.874509229695738 -10.502243906193614" fill="red" stroke="none" /><path d="M 83.72743513129214 113.27417163493432 l -12.542158097761353 10.231132006873711 a37.18585159611061,37.18585159611061 0 0,0 -0.40033595099365565,-0.4994806533310596 l 12.71641196080987 -10.01372351996439" fill="red" stroke="none" /><path d="M 83.50135304334701 112.99209946851258 l -26.286967890456204 20.700055129107792 a54.45888466793203,54.45888466793203 0 0,0 -0.5736159062120962,-0.741475882981436 l 26.639390613886366 -20.2445012520131" fill="red" stroke="none" /><path d="M 83.28015986056508 112.70617746262583 l -18.633980059207325 14.160820647375001 a44.40414609111083,44.40414609111083 0 0,0 -0.45723315734419984,-0.612538534237234 l 18.87497448324661 -13.83796923362846" fill="red" stroke="none" /><path d="M 83.06392112726016 112.41649034213515 l -14.076583411608146 10.320084317853498 a38.45435019906405,38.45435019906405 0 0,0 -0.38677789681463853,-0.5372006701247013 l 14.252141100798392 -10.076250042277659" fill="red" stroke="none" /><path d="M 82.85270091963577 112.12312394758628 l -16.271298846686573 11.503792625421976 a40.92717769597333,40.92717769597333 0 0,0 -0.40174720393629,-0.5787468109925757 l 16.466906957784996 -11.222004552242389" fill="red" stroke="none" /><path d="M 82.6465618267979 111.8261652097733 l -18.825623610462785 12.829442371722273 a43.781542877780616,43.781542877780616 0 0,0 -0.41904543613146944,-0.626416070185149 l 19.043672152004984 -12.503489387331303" fill="red" stroke="none" /><path d="M 82.44556493220864 111.52570212397912 l -9.756220712943223 6.405634437048646 a32.67116083090135,32.67116083090135 0 0,0 -0.3046121142150878,-0.47276476580968324 l 9.865037690535356 -6.236748071317514" fill="red" stroke="none" /><path d="M 82.24976979558568 111.22182372390057 l -24.72922332924279 15.633993578332216 a50.256729852717626,50.256729852717626 0 0,0 -0.45598495864751193,-0.7351929421114143 l 24.994672927558256 -15.206004304855538" fill="red" stroke="none" /><path d="M 82.05923443525364 110.91462005526583 l -9.066408741132015 5.515729321475915 a31.61240017192455,31.61240017192455 0 0,0 -0.278820051281949,-0.46731844364793323 l 9.160009668112197 -5.358848783941871" fill="red" stroke="none" /><line stroke="#e1ed5e" stroke-width="0.3" x1="26.63291911575756" x2="22.317208475507996" y1="142.92168965132927" y2="145.44649492493687" /><path d="M 25.769776987707644 143.4266507060508 a86.0,86.0 0 0,1 -11.730757126820373,-40.83630448921669" fill="none" id="id9" stroke="none" /><text fill="#e1ed5e" style="font-size:6.75px; font-family:Arial;" text-anchor="middle"><textPath startOffset="21.46611528233685" xlink:href="#id9">September</textPath></text><path d="M 81.87401531095188 110.60418214915194 l -17.376708492484283 10.165835686618099 a41.1319202571462,41.1319202571462 0 0,0 -0.3522616072698735,-0.614197804494273 l 17.549122095906533 -9.865218036265519" fill="red" stroke="none" /><path d="M 81.69416730710424 110.29060199501025 l -17.35271609504531 9.754808637348697 a40.9066081346506,40.9066081346506 0 0,0 -0.3397655937145504,-0.6167732441798969 l 17.518058098211377 -9.454664874770978" fill="red" stroke="none" /><path d="M 81.51974371655577 109.97397251340807 l -28.328207096867782 15.289006527004272 a53.19069800277418,53.19069800277418 0 0,0 -0.4279254768255361,-0.8094737342273811 l 28.587185081918204 -14.799117777690764" fill="red" stroke="none" /><path d="M 81.35079622478065 109.6543875284942 l -21.4759415421048 11.11774339997678 a45.18305777662597,45.18305777662597 0 0,0 -0.35161311452286587,-0.6937660324984425 l 21.664133326413932 -10.746423155775652" fill="red" stroke="none" /><path d="M 81.18737489456691 109.33194174019688 l -19.873830050257354 9.858349015311767 a43.18459299095232,43.18459299095232 0 0,0 -0.32459749371622176,-0.6687669796572309 l 20.040580800588295 -9.514793079689252" fill="red" stroke="none" /><path d="M 81.02952815118164 109.00673069616217 l -3.3755279580587993 1.6026207211865156 a24.736653873669997,24.736653873669997 0 0,0 -0.17931174352476195,-0.3862215432307552 l 3.402614318423388 -1.5442791106769334" fill="red" stroke="none" /><path d="M 80.73074385275274 108.34839909993369 l -25.48696825096322 11.042220892204819 a48.776180314396214,48.776180314396214 0 0,0 -0.3271465304033256,-0.7732777603506346 l 25.673265762558852 -10.601868606188026" fill="red" stroke="none" /><path d="M 80.58989483394504 108.01547362559985 l -20.40305753308837 8.425516922189102 a43.07428576657938,43.07428576657938 0 0,0 -0.27710587618071836,-0.6877540593930341 l 20.545066023526473 -8.073063494953262" fill="red" stroke="none" /><path d="M 80.45479744820244 107.68017299344265 l -7.660857184634893 3.010289010826487 a29.231073607499496,29.231073607499496 0 0,0 -0.17998785862251834,-0.4698915031455761 l 7.71153932285092 -2.877973940847753" fill="red" stroke="none" /><path d="M 80.32549172779594 107.34259656027581 l -30.605609948460586 11.422122638266822 a53.667541166744044,53.667541166744044 0 0,0 -0.3155542526474411,-0.8682697781269614 l 30.79768846211325 -10.893605063133744" fill="red" stroke="none" /><path d="M 80.20201598880116 107.00284435728193 l -7.434902346412968 2.6298366497351 a28.88630545344187,28.88630545344187 0 0,0 -0.16177592292854223,-0.4701965576612827 l 7.479069100284739 -2.5014673889845205" fill="red" stroke="none" /><path d="M 80.0844068197444 106.66101706037122 l -33.676902190247496 11.263657476799926 a56.510614200350965,56.510614200350965 0 0,0 -0.3006035002862087,-0.9251624440481251 l 33.86579794154996 -10.682296132773999" fill="red" stroke="none" /><path d="M 79.97269907076064 106.31721596034903 l -34.70243580530526 10.946196999127437 a57.387886439927215,57.387886439927215 0 0,0 -0.2890524746572751,-0.9446402116442345 l 34.88571505246866 -10.347229814931154" fill="red" stroke="none" /><path d="M 79.86692584326677 105.97154293290107 l -29.25390471367737 8.676814409601658 a51.513571559153576,51.513571559153576 0 0,0 -0.24483017818562394,-0.8522859689660459 l 29.3989275287491 -8.171970965131015" fill="red" stroke="none" /><path d="M 79.76711848015287 105.62410040840567 l -22.37122978006362 6.218493516070548 a44.219422548414435,44.219422548414435 0 0,0 -0.1975385282058406,-0.7351143495901665 l 22.474956384611232 -5.832488233304842" fill="red" stroke="none" /><path d="M 79.67330655649465 105.27499134158121 l -7.588559050248223 1.9693111128178653 a28.83992440768227,28.83992440768227 0 0,0 -0.12056281236096614,-0.48158850493608735 l 7.6213331769042485 -1.838394768484386" fill="red" stroke="none" /><path d="M 79.58551787078972 104.9243191809786 l -16.1891270130857 3.905091893551779 a37.65345538147879,37.65345538147879 0 0,0 -0.1465605777924366,-0.6313791332831277 l 16.253948156808693 -3.6258441029200768" fill="red" stroke="none" /><path d="M 79.50377843672027 104.57218783832718 l -28.68292954118708 6.398435009639198 a50.387929795024334,50.387929795024334 0 0,0 -0.18155481641075757,-0.8481636595604587 l 28.788818396322277 -5.903757530662575" fill="red" stroke="none" /><path d="M 79.4281124754447 104.21870165774334 l -38.22165760835873 7.83816118582279 a60.017071662357566,60.017071662357566 0 0,0 -0.19882817610259265,-1.0138205863714373 l 38.35091571743699 -7.179076872383398" fill="red" stroke="none" /><path d="M 79.35854240842038 103.8639653848113 l -22.384987589801547 4.190344446494315 a43.77381513879119,43.77381513879119 0 0,0 -0.1322668715687134,-0.7418228579412559 l 22.453800903709446 -3.804402837819846" fill="red" stroke="none" /><path d="M 79.29508885075956 103.50808413554451 l -31.340186146270145 5.310044995231744 a52.78685019837997,52.78685019837997 0 0,0 -0.14407855457926147,-0.897177296898796 l 31.4269464552107 -4.769788468639734" fill="red" stroke="none" /><path d="M 79.23777060512086 103.15116336523772 l -27.980793138205318 4.246752532709935 a49.30123127563739,49.30123127563739 0 0,0 -0.12012115639371981,-0.8401270880442063 l 28.049748345615637 -3.7644799726853275" fill="red" stroke="none" /><path d="M 79.18660465613746 102.79330883721812 l -3.9052943407494634 0.5241188673798077 a24.9403076624844,24.9403076624844 0 0,0 -0.05344172398719368,-0.4259831219591836 l 3.9137375739835054 -0.4568179911332156" fill="red" stroke="none" /><path d="M 79.1416061653843 102.43462659150553 l -7.1436014280164475 0.8338130986338322 a28.192098834541415,28.192098834541415 0 0,0 -0.052112018695798824,-0.48249257213913965 l 7.156895748213299 -0.7107242046099105" fill="red" stroke="none" /><path d="M 79.10278846688536 102.07522291339032 l -16.270392357118045 1.615751028592355 a37.35042258906364,37.35042258906364 0 0,0 -0.05802726743762125,-0.6403260608399505 l 16.295794220832743 -1.3354435792038384" fill="red" stroke="none" /><path d="M 79.07016306316243 101.71520430193888 l -7.775106582963405 0.6371715316931251 a28.801171061913784,28.801171061913784 0 0,0 -0.03623933590252006,-0.4944569461034304 l 7.784922477530261 -0.5032414490929341" fill="red" stroke="none" /><path d="M 79.04373962182676 101.35467743843564 l -31.2411468869702 2.0195242889190324 a52.306352984127386,52.306352984127386 0 0,0 -0.05034772693209827,-0.8989924860625647 l 31.271280964789828 -1.48146008652103" fill="red" stroke="none" /><path d="M 79.0235259727143 100.99374915477108 l -23.98808590468854 1.1364226447853996 a45.014989523176936,45.014989523176936 0 0,0 -0.0300054210976198,-0.7743065924380031 l 24.00409345863736 -0.7233388053333998" fill="red" stroke="none" /><path d="M 79.0095281055655 100.63252640178507 l -11.61158249089202 0.34990316220293743 a32.61685328157801,32.61685328157801 0 0,0 -0.01208056382078203,-0.5613363310876881 l 11.615885117397811 -0.1499770153251205" fill="red" stroke="none" /><line stroke="#e1ed5e" stroke-width="0.3" x1="15.007084014347285" x2="10.007500721073583" y1="101.09737516637583" y2="101.16192664675087" /><path d="M 14.007167355692545 101.11028546245083 a86.0,86.0 0 0,1 10.666146001902534,-42.60595125391555" fill="none" id="id10" stroke="none" /><text fill="#e1ed5e" style="font-size:6.75px; font-family:Arial;" text-anchor="middle"><textPath startOffset="22.20632615414155" xlink:href="#id10">October</textPath></text><path d="M 79.00175016825051 100.2711162175752 l -3.6936619776317694 0.047690244301348064 a24.69396983804743,24.69396983804743 0 0,0 -0.0018293559909514868,-0.42507790676087936 l 3.6939356309122235 0.0158971406632067" fill="red" stroke="none" /><path d="M 79.00019446554 99.90962569577889 l -10.517550302173413 -0.04526309965631773 a31.51764769836576,31.51764769836576 0 0,0 0.007004411308315326,-0.5424993749610971 l 10.515212883747383 0.22629873267788686" fill="red" stroke="none" /><path d="M 79.00486145842228 99.54816195383935 l -38.6564245214415 -0.8319279862209549 a59.665375479311734,59.665375479311734 0 0,0 0.03093594469701948,-1.0266133964653363 l 38.636376882288836 1.4972115301112856" fill="red" stroke="none" /><path d="M 79.01574976396665 99.18683210126434 l -41.287682765234614 -1.5999531963366707 a62.318671304304054,62.318671304304054 0 0,0 0.05076417169996386,-1.0715514313331234 l 41.25402498530115 2.3104157342928033" fill="red" stroke="none" /><path d="M 79.03285615573316 98.82574320788736 l -3.316467138303034 -0.1857374610436311 a24.321664143750667,24.321664143750667 0 0,0 0.027007944458162892,-0.41780094676859936 l 3.3127786028404578 0.24279747206524221" fill="red" stroke="none" /><path d="M 79.05617556472873 98.46500227214037 l -27.997138018174805 -2.0519434441064277 a49.07223199367198,49.07223199367198 0 0,0 0.06899442760678834,-0.8419067732795813 l 27.957669106748522 2.5335641345937874" fill="red" stroke="none" /><path d="M 79.08570108090925 98.10471618934814 l -22.195835640634233 -2.011418509237428 a43.28678810877314,43.28678810877314 0 0,0 0.07363469005855719,-0.7414912799970569 l 22.157923824893448 2.3931853199389153" fill="red" stroke="none" /><path d="M 79.12142395522702 97.74499172005258 l -25.73773375410322 -2.7798257217409823 a46.88741721069054,46.88741721069054 0 0,0 0.09357310018445193,-0.8016771782510992 l 25.68607030091518 3.2224466383169434" fill="red" stroke="none" /><path d="M 79.16333360222342 97.38593545837743 l -33.064911761755 -4.14815939163405 a54.3240996300132,54.3240996300132 0 0,0 0.12438666941866104,-0.926825165775512 l 32.988609093278505 4.716702899474222" fill="red" stroke="none" /><path d="M 79.21141760316559 97.0276538004421 l -29.465065436821614 -4.2129075277493655 a50.7647219209847,50.7647219209847 0 0,0 0.13112795168600402,-0.8639693654156454 l 29.38818159169631 4.719476005557103" fill="red" stroke="none" /><path d="M 79.26566170972629 96.67025291283419 l -21.359047576033618 -3.4300697449455497 a42.63271346388285,42.63271346388285 0 0,0 0.12259572402026714,-0.7235669029136663 l 21.296839990493126 3.797222436175044" fill="red" stroke="none" /><path d="M 79.32604984820605 96.31383870115002 l -42.16606719358269 -7.518201595363973 a63.83107023881453,63.83107023881453 0 0,0 0.20217511566635835,-1.0800275521370066 l 42.03040635400647 8.242907224963552" fill="red" stroke="none" /><path d="M 79.3925641242962 95.95851677861259 l -48.61634137233369 -9.534525747241652 a70.54246491300265,70.54246491300265 0 0,0 0.2439449271368592,-1.1895620999968222 l 48.44501714928184 10.369963503401877" fill="red" stroke="none" /><path d="M 79.46518482838121 95.60439243477599 l -5.947888003772139 -1.27318319098486 a27.08262830881708,27.08262830881708 0 0,0 0.1015026125067342,-0.45501630920547304 l 5.925091004263367 1.3753776697402924" fill="red" stroke="none" /><path d="M 79.54389044137918 95.25157060432595 l -20.918088581511046 -4.855667517673262 a42.47426219794594,42.47426219794594 0 0,0 0.17144877464322897,-0.710765857653772 l 20.831407006607 5.2150186069864315" fill="red" stroke="none" /><path d="M 79.62865764111835 94.90015583598534 l -26.88999543975977 -6.731750117294084 a48.71981808006665,48.71981808006665 0 0,0 0.2106637234419701,-0.8117732615630673 l 26.770135384447492 7.193619804406015" fill="red" stroke="none" /><path d="M 79.71946130924805 94.55025226153421 l -17.15493907043088 -4.609842560307883 a38.7635183153851,38.7635183153851 0 0,0 0.17870578058678355,-0.6428997747124487 l 17.073046519277735 4.904453638439275" fill="red" stroke="none" /><path d="M 79.81627453868168 94.20196356495316 l -9.622896703986424 -2.764301655179235 a31.012067949051257,31.012067949051257 0 0,0 0.15180274778731,-0.5118034003505091 l 9.573888059087407 2.929534442276283" fill="red" stroke="none" /><path d="M 79.91906864156998 93.8553929516997 l -30.476558201704748 -9.325587095118205 a52.87141626113487,52.87141626113487 0 0,0 0.27378459922890624,-0.8679719979440956 l 30.31151811870764 9.848809259488716" fill="red" stroke="none" /><path d="M 80.02781315780177 93.51064311812611 l -11.930304326358328 -3.876390857686473 a33.54426432283215,33.54426432283215 0 0,0 0.18315600598528187,-0.5476131453595237 l 11.861811026601274 4.081177105968319" fill="red" stroke="none" /><path d="M 80.14247586403 93.16781622104843 l -21.727590039476794 -7.47559903273771 a43.97765762260897,43.97765762260897 0 0,0 0.252446244743167,-0.7136995286658562 l 21.59569071392382 7.848496187830177" fill="red" stroke="none" /><path d="M 80.2630227832202 92.82701384747504 l -41.049459480579486 -14.918556230206342 a64.67632589448849,64.67632589448849 0 0,0 0.38927575360174815,-1.0430654839244444 l 40.786579138476114 15.622944851160128" fill="red" stroke="none" /><path d="M 80.38941819471856 92.48833698450439 l -32.7164582871867 -12.531755159231416 a56.03443349375226,56.03443349375226 0 0,0 0.35276731126664074,-0.8977543290035768 l 32.49589742603836 13.093058493130757" fill="red" stroke="none" /><path d="M 80.52162464483688 92.15188598940014 l -35.70764117127279 -14.387115652715648 a59.497074367034585,59.497074367034585 0 0,0 0.3909193312557028,-0.9466421680788911 l 35.45470015313089 14.999632391247852" fill="red" stroke="none" /><path d="M 80.65960295795068 91.81776055985345 l -16.842445065125595 -7.125444114758968 a39.28769831346544,39.28769831346544 0 0,0 0.2688574874544299,-0.6205601494190527 l 16.717296867828484 7.414303408764621" fill="red" stroke="none" /><path d="M 80.803312248108 91.48605970444005 l -14.14167083290153 -6.271985183429284 a36.47012126931442,36.47012126931442 0 0,0 0.25945483893815063,-0.5716743455580467 l 14.031613677000028 6.514481537829401" fill="red" stroke="none" /><path d="M 80.95270993114464 91.15688171328213 l -8.283362178057729 -3.845730877594151 a30.132564533347594,30.132564533347594 0 0,0 0.22246701092524718,-0.46857226116979833 l 8.21593697329073 3.9877455544044818" fill="red" stroke="none" /><path d="M 81.10775173730289 90.83032412892265 l -13.099268258701674 -6.357953929588998 a35.56071451145875,35.56071451145875 0 0,0 0.27202251040419617,-0.5483807819362739 l 12.987885735344065 6.5824943000242335" fill="red" stroke="none" /><path d="M 81.26839172434947 90.50648371742162 l -17.899345730319244 -9.071710642122328 a41.06695072869551,41.06695072869551 0 0,0 0.3249971342851226,-0.6277910189286691 l 17.740539162874008 9.378474383311332" fill="red" stroke="none" /><path d="M 81.43458229118936 90.18545643968196 l -3.196586753362651 -1.689864479608481 a24.615772231656194,24.615772231656194 0 0,0 0.20125374874562915,-0.3728926312783949 l 3.16702490539855 1.7446380942193487" fill="red" stroke="none" /><line stroke="#e1ed5e" stroke-width="0.3" x1="26.266209847984243" x2="21.928928074336255" y1="57.711370442889674" y2="55.22380399835377" /><path d="M 25.398753493254645 57.213857153982495 a86.0,86.0 0 0,1 29.58750427330803,-30.492523968695096" fill="none" id="id11" stroke="none" /><text fill="#e1ed5e" style="font-size:6.75px; font-family:Arial;" text-anchor="middle"><textPath startOffset="21.46611528233685" xlink:href="#id11">November</textPath></text><path d="M 81.78341655067845 89.55222093294921 l -12.032686541452392 -6.901121218361732 a34.87122991934645,34.87122991934645 0 0,0 0.303114555290364,-0.5181210310179537 l 11.912112311691704 7.107221661733577" fill="red" stroke="none" /><path d="M 81.96595687620814 89.24020034530311 l -21.451603877499462 -12.798847069923262 a45.97962760403832,45.97962760403832 0 0,0 0.4113736013086554,-0.6761900371459344 l 21.22811447790459 13.166204880276272" fill="red" stroke="none" /><path d="M 82.15384107792192 88.93136811851018 l -15.197289802304894 -9.425737333871316 a38.88301265509746,38.88301265509746 0 0,0 0.3576726199897062,-0.5657521895582359 l 15.032789586069226 9.685937171143769" fill="red" stroke="none" /><path d="M 82.34701348167596 88.62581576622439 l -29.318545196062463 -18.890544904690202 a55.87735338596772,55.87735338596772 0 0,0 0.5279169009081193,-0.8040536583797996 l 28.98903165979642 19.39241662704767" fill="red" stroke="none" /><path d="M 82.54541684631803 88.32363383020206 l -5.869741045890345 -3.9266045582561375 a28.062016942965215,28.062016942965215 0 0,0 0.2720352425512859,-0.39917815105817395 l 5.801281337670319 4.027060732584727" fill="red" stroke="none" /><path d="M 82.7489923806493 88.02491185347247 l -5.771802295480655 -4.006597340736215 a28.026131509508648,28.026131509508648 0 0,0 0.278509521988159,-0.3939319676106318 l 5.701980153688618 4.105355808678634" fill="red" stroke="none" /><path d="M 82.95767976084542 87.72973835380427 l -28.8899830666007 -20.800433638544266 a56.59900505828722,56.59900505828722 0 0,0 0.5760630226421886,-0.7857493154913061 l 28.527657431444876 21.294645397707075" fill="red" stroke="none" /><path d="M 83.17141714833178 87.43820079747576 l -26.834427610955256 -20.030723581105136 a54.48606265881731,54.48606265881731 0 0,0 0.5674958488542908,-0.7467580159765682 l 26.485655821876858 20.48966637296273" fill="red" stroke="none" /><path d="M 83.39014120810768 87.1503855733568 l -24.54287765357209 -18.9867065530152 a52.029790029075585,52.029790029075585 0 0,0 0.554107153693107,-0.7036598147277784 l 24.212416419285013 19.406358761696026" fill="red" stroke="none" /><path d="M 83.6137871275137 86.86637796730984 l -15.410342615993974 -12.35145770945994 a40.74935865011564,40.74935865011564 0 0,0 0.4433947570700629,-0.5435495445816771 l 15.19544936684752 12.6148914236497" fill="red" stroke="none" /><path d="M 83.84228863543731 86.58626213691792 l -29.853222232232305 -24.783416930553408 a59.799905056593765,59.799905056593765 0 0,0 0.66431824591338,-0.7863432664003307 l 29.422193372831803 25.293619146582856" fill="red" stroke="none" /><path d="M 84.07557802195018 86.31012108654704 l -31.095379650329676 -26.732020965510422 a62.006384630916024,62.006384630916024 0 0,0 0.7027630501085603,-0.8033796511509125 l 30.630624736643274 27.26331617286428" fill="red" stroke="none" /><path d="M 84.31358615837235 86.03803664274999 l -15.484351176357443 -13.78211399481102 a41.729491009639574,41.729491009639574 0 0,0 0.48218696987355336,-0.5324428954615735 l 15.244820565867844 14.04660967754215" fill="red" stroke="none" /><path d="M 84.5562425177563 85.77008943001954 l -16.283700971897893 -15.003836264900144 a43.14213223712028,43.14213223712028 0 0,0 0.5079116613756177,-0.5418047472390477 l 16.02302198855182 15.281910429017241" fill="red" stroke="none" /><path d="M 84.80347519578584 85.50635884689758 l -14.919620968549815 -14.229544928489027 a41.61734800397663,41.61734800397663 0 0,0 0.4988844639287911,-0.5141442932610539 l 14.672472240917905 14.484253417300206" fill="red" stroke="none" /><path d="M 85.05521093208273 85.24692304244772 l -8.002849708964256 -7.90018896215365 a32.24538078955104,32.24538078955104 0 0,0 0.39333867467883965,-0.3916495534071496 l 7.865675234118102 8.036774366210908" fill="red" stroke="none" /><path d="M 85.31137513191541 84.99185889309783 l -20.24519409412824 -20.685580333764808 a49.9441033313102,49.9441033313102 0 0,0 0.6195845619313659,-0.5960398576817626 l 19.886126288584446 21.031003278208885" fill="red" stroke="none" /><path d="M 85.57189188830299 84.74124197986013 l -22.326233234188756 -23.611591192992638 a53.49566015781803,53.49566015781803 0 0,0 0.6745347171895161,-0.6269065061784865 l 21.916490633204383 23.99240228524577" fill="red" stroke="none" /><path d="M 85.83668400450813 84.49514656593479 l -29.091127087653984 -31.846614300592332 a64.13351965282601,64.13351965282601 0 0,0 0.821486291114668,-0.7375385032034486 l 28.538629808943345 32.34265181256506" fill="red" stroke="none" /><path d="M 86.10567301691215 84.25364557470407 l -15.37283631604307 -17.421939864314226 a44.234631157727335,44.234631157727335 0 0,0 0.5752739087499043,-0.4988718648246836 l 15.070668608646393 17.68397672255859" fill="red" stroke="none" /><path d="M 86.37877921826538 84.01681056812374 l -14.643812711262804 -17.183102478075003 a43.57654228385227,43.57654228385227 0 0,0 0.5750909647310615,-0.4816221442315099 l 14.345864209572632 17.432625779700327" fill="red" stroke="none" /><path d="M 86.65592168130627 83.78471172551755 l -27.905159482433582 -33.90943866982361 a64.91523604220501,64.91523604220501 0 0,0 0.8689262968022416,-0.7026113022406052 l 27.317329787066843 34.38475606932835" fill="red" stroke="none" /><path d="M 86.93701828274178 83.55741782278169 l -32.527897630613765 -40.943380418032845 a73.29172519934147,73.29172519934147 0 0,0 0.9945597932387559,-0.7762696940688818 l 31.818305282215583 41.49722850132495" fill="red" stroke="none" /><path d="M 87.22198572758235 83.33499621200491 l -33.812309368634274 -44.097795768273066 a76.5687669150626,76.5687669150626 0 0,0 1.0528345689857934,-0.7929731698104342 l 33.04822864589009 44.67328552758936" fill="red" stroke="none" /><path d="M 87.51073957382395 83.11751280151077 l -23.932435888883546 -32.35091820776847 a61.2410660452882,61.2410660452882 0 0,0 0.8528684093539011,-0.6196451701878961 l 23.372022163175863 32.75808261277304" fill="red" stroke="none" /><path d="M 87.80319425747018 82.90503203632743 l -16.996585402103502 -23.822309633712173 a50.26407954498917,50.26407954498917 0 0,0 0.7086489881314856,-0.49645390295950603 l 16.584005274388357 24.111348379435622" fill="red" stroke="none" /><path d="M 88.09926311788651 82.69761687909137 l -11.889709283350346 -17.286350186091767 a41.98054073656783,41.98054073656783 0 0,0 0.5989129967119408,-0.40438872886991817 l 11.590391592231866 17.48845082726035" fill="red" stroke="none" /><path d="M 88.39885842347998 82.49532879139004 l -9.391657266811745 -14.17083581603925 a38.000465109590344,38.000465109590344 0 0,0 0.5483520935114089,-0.3566634550256338 l 9.146338147516047 14.33039819522442" fill="red" stroke="none" /><path d="M 88.70189139769569 82.29822771554957 l -9.890349847914969 -15.49610886070185 a39.38337319255838,39.38337319255838 0 0,0 0.574586250532207,-0.35980585737062576 l 9.62214444501052 15.664059059395408" fill="red" stroke="none" /><path d="M 89.00827224532344 82.1063720568725 l -14.033369985525251 -22.845171106280777 a47.81114163973416,47.81114163973416 0 0,0 0.7049591956715525,-0.424730027549838 l 13.638048723636048 23.083347743289234" fill="red" stroke="none" /><line stroke="#e1ed5e" stroke-width="0.3" x1="56.762969772571076" x2="54.21961505331055" y1="26.818313649435495" y2="22.513508569990535" /><path d="M 56.25429882871897 25.957352633546506 a86.0,86.0 0 0,1 42.265352541879196,-11.944610805530505" fill="none" id="id12" stroke="none" /><text fill="#e1ed5e" style="font-size:6.75px; font-family:Arial;" text-anchor="middle"><textPath startOffset="22.20632615414155" xlink:href="#id12">December</textPath></text><path d="M 89.3179101791058 81.91981866633112 l -24.071241690754924 -40.74225380918837 a68.3218334596945,68.3218334596945 0 0,0 1.0176806071501268,-0.5895062943993434 l 23.366364351139477 41.15056426097776" fill="red" stroke="none" /><path d="M 89.63071344664047 81.73862282372117 l -16.282730615501734 -28.67555869917431 a53.97597584616396,53.97597584616396 0 0,0 0.8118909780301099,-0.4518164502580482 l 15.786715548399581 28.95159054699254" fill="red" stroke="none" /><path d="M 89.94658935756843 81.56283822128135 l -11.822927801453904 -21.682316611389695 a45.69624415644891,45.69624415644891 0 0,0 0.6938320859207485,-0.3706210713720652 l 11.44795066900485 21.88261640926351" fill="red" stroke="none" /><path d="M 90.26544431104013 81.39251694778311 l -22.327607437465826 -42.67894604171591 a69.16652872185495,69.16652872185495 0 0,0 1.059695486959399,-0.5428171872166186 l 21.58965146291766 43.05695575424504" fill="red" stroke="none" /><path d="M 90.58718382345135 81.22770947309562 l -19.166168603588115 -38.22372375767709 a63.759736632074514,63.759736632074514 0 0,0 0.9853269783312415,-0.4834956690390544 l 18.50537035824645 38.54797458685098" fill="red" stroke="none" /><path d="M 90.91171255644093 81.06846463323043 l -2.797280441079369 -5.826929873196044 a27.463581794422474,27.463581794422474 0 0,0 0.4279372551852586,-0.20092227932160325 l 2.6965649745945015 5.874217135157655" fill="red" stroke="none" /><path d="M 91.23893434514133 80.91482961587045 l -7.285024212721584 -15.869750762019999 a38.46197488912907,38.46197488912907 0 0,0 0.6040689084531747,-0.2710281110368992 l 7.010773185801635 15.992799203573428" fill="red" stroke="none" /><path d="M 91.56875222667455 80.76684994638697 l -6.039390427778848 -13.776905323233116 a36.04251830726743,36.04251830726743 0 0,0 0.5703578211259587,-0.24419745324609196 l 5.801348848862581 13.878822304441995" fill="red" stroke="none" /><path d="M 91.90106846888425 80.62456947434976 l -21.93103244121813 -52.46657460778206 a77.86573339904905,77.86573339904905 0 0,0 1.2410912845234523,-0.506272296903429 l 21.024657287106297 52.836307790869064" fill="red" stroke="none" /><path d="M 92.23578459929587 80.48803036053334 l -17.15741102222877 -43.11767070851972 a67.40592936591224,67.40592936591224 0 0,0 1.0817587131026245,-0.4197055745538647 l 16.412669144126472 43.40661898696413" fill="red" stroke="none" /><path d="M 92.57280143429618 80.3572730644239 l -11.498134022451017 -30.40913809879544 a53.5103485971753,53.5103485971753 0 0,0 0.8643645713444217,-0.31835276629883924 l 10.972987125334027 30.602554132900604" fill="red" stroke="none" /><path d="M 92.91201910852362 80.23233633223022 l -16.25551426413942 -45.33498941942132 a69.16121893858879,69.16121893858879 0 0,0 1.124093744983785,-0.39217423546557895 l 15.472738515092349 45.60808450805911" fill="red" stroke="none" /><path d="M 93.25333710446033 80.11325718540243 l -14.31842419631819 -42.205579841663905 a65.56824251904911,65.56824251904911 0 0,0 1.071938284388819,-0.3534011989332627 l 13.589803089686962 42.4457947648564" fill="red" stroke="none" /><path d="M 93.59665428221793 80.00007090966166 l -8.867851493658833 -27.69745830906947 a50.08243433580189,50.08243433580189 0 0,0 0.823294709665393,-0.25580167388632846 l 8.389771411282712 27.846000117838326" fill="red" stroke="none" /><path d="M 93.94186890950719 79.89281104454417 l -18.17439327147842 -60.321566866367455 a84.0,84.0 0 0,0 1.3880391291063148,-0.4052066843252047 l 17.133363924648684 60.625471879611354" fill="red" stroke="none" /><path d="M 94.28887869178378 79.79150937346287 l -6.558748884698602 -23.20777448161749 a45.11675731358076,45.11675731358076 0 0,0 0.7491575479346032,-0.20477305744085206 l 6.158293447540276 23.317234079884642" fill="red" stroke="none" /><path d="M 94.63758080256005 79.69619591428918 l -11.338743181216989 -42.93204459649992 a65.40413888553017,65.40413888553017 0 0,0 1.0909756426101433,-0.2781139828873044 l 10.598058649921848 43.12086157555609" fill="red" stroke="none" /><path d="M 94.98787191387505 79.60689891045804 l -6.914100469146633 -28.131753097229552 a49.968954375692235,49.968954375692235 0 0,0 0.837042596981827,-0.19810093894393765 l 6.428834185202272 28.246599948314362" fill="red" stroke="none" /><path d="M 95.33964822691252 79.52364482259891 l -4.597138358711401 -20.198612125424702 a41.71515418437646,41.71515418437646 0 0,0 0.7015242958700115,-0.15332603942302497 l 4.248771338687869 20.274751662943594" fill="red" stroke="none" /><path d="M 95.692805502759 79.44645832069477 l -3.279146985900616 -15.647792151120315 a36.987689143832,36.987689143832 0 0,0 0.6242704508934188,-0.12522277961773134 l 3.0093101255400607 15.701918886815257" fill="red" stroke="none" /><path d="M 96.04723909329186 79.375362276772 l -4.570937806256419 -23.850148929942883 a45.28421455203194,45.28421455203194 0 0,0 0.7668232205583769,-0.14013204214637062 l 4.159719464595149 23.92529645343999" fill="red" stroke="none" /><path d="M 96.40284397218896 79.31037775812273 l -7.820514323452299 -44.98094768157173 a66.6557345644073,66.6557345644073 0 0,0 1.1321025601182317,-0.18680662264855444 l 7.045082557195181 45.10890056715991" fill="red" stroke="none" /><path d="M 96.75951476605007 79.25152402106235 l -7.113603940868829 -45.54763556533278 a67.09978814072699,67.09978814072699 0 0,0 1.1427126497995168,-0.1684061403165102 l 6.328522310640664 45.66333618981026" fill="red" stroke="none" /><path d="M 97.11714578562143 79.19881850522333 l -2.8167253897192785 -20.324030178239962 a41.518288052542246,41.518288052542246 0 0,0 0.7087473697335511,-0.09201574977712883 l 2.4664632914778695 20.369504251181226" fill="red" stroke="none" /><path d="M 97.47563105711357 79.15227682838746 l -2.169672277332551 -17.918429530047597 a39.04931008693427,39.04931008693427 0 0,0 0.6679910661047914,-0.07505657949000202 l 1.8609145077180418 17.9531220630082" fill="red" stroke="none" /><path d="M 97.83486435360386 79.11191278185805 l -4.530777671000779 -43.71055426268595 a64.94474371588998,64.94474371588998 0 0,0 1.1129514948053847,-0.10568815490912811 l 3.777701049105158 43.78206796211026" fill="red" stroke="none" /><path d="M 98.19473922651362 79.07773832637324 l -2.7722913082619183 -32.12976487322678 a53.249145568630226,53.249145568630226 0 0,0 0.9138816414765486,-0.07093480409384957 l 2.2188194774230356 32.172724939509095" fill="red" stroke="none" /><path d="M 98.55514903715128 79.0497635885617 l -1.6876088711575479 -24.470208851909888 a45.52833351367554,45.52833351367554 0 0,0 0.7823024088010005,-0.047190617674083 l 1.2661444135169244 24.49563273896428" fill="red" stroke="none" /><path d="M 98.91598698831166 79.02799685794201 l -0.9843701606680305 -19.044249358524713 a40.06967273559991,40.06967273559991 0 0,0 0.6891204596010218,-0.029674976593817144 l 0.6564088686776846 19.05837206164272" fill="red" stroke="none" /><path d="M 99.27714615592234 79.0124445844662 l -1.1075380204754486 -32.15659122515747 a53.17565849658205,53.17565849658205 0 0,0 0.9150603160303751,-0.02363330827216666 l 0.5538510692501944 32.17089132557199" fill="red" stroke="none" /><path d="M 99.63851952072746 79.00311137660856 l -0.051627246047363726 -2.998810716889704 a23.999255088895737,23.999255088895737 0 0,0 0.4131077253198987,-0.0035557486145917903 l 7.346056288885148e-16 2.9992550888957368" fill="red" stroke="none" /></svg>