<?xml version="1.0" encoding="utf-8" ?>
<svg baseProfile="full" height="200mm" version="1.1" viewBox="0,0,200,200" width="200mm" xmlns="http://www.w3.org/2000/svg" xmlns:ev="http://www.w3.org/2001/xml-events" xmlns:xlink="http://www.w3.org/1999/xlink"><defs /><rect fill="#1a1a1a" height="200" width="200" x="0" y="0" /><text alignment-baseline="middle" fill="#e1ed5e" style="dominant-baseline: central; font-size:9.0px; font-family:Arial;" text-anchor="middle" x="100.0" y="100.0">2023</text><line stroke="#e1ed5e" stroke-width="0.3" x1="100.0" x2="100.0" y1="15.0" y2="10.0" /><path d="M 100.0 14.0 a86.0,86.0 0 0,1 42.46469731375804,11.215312516191453" fill="none" id="id61" stroke="none" /><text fill="#e1ed5e" style="font-size:6.75px; font-family:Arial;" text-anchor="middle"><textPath startOffset="22.20632615414155" xlink:href="#id61">January</textPath></text><path d="M 109.41281617654863 81.2277094730956 l 8.098153097621683 -16.15041448048826 a39.066985677862384,39.066985677862384 0 0,0 0.5985425201605958,0.3065967263438671 l -8.374956105371034 16.008625228831892" fill="#ffc312" stroke="none" /><path d="M 109.73455568895987 81.39251694778311 l 5.938118963347583 -11.350641108135063 a33.8100862756093,33.8100862756093 0 0,0 0.5133577850611043,0.27421795007368294 l -6.132621794936998 11.246744431559627" fill="#ff7a0b" stroke="none" /><path d="M 110.36928655335952 81.73862282372117 l 7.114708931953036 -12.529732169831917 a35.40879146334394,35.40879146334394 0 0,0 0.5274278890089416,0.30552027642860125 l -7.329333553427306 12.405407736013267" fill="#ff910d" stroke="none" /><line stroke="#e1ed5e" stroke-width="0.3" x1="143.23703022742887" x2="145.7803849466894" y1="26.81831364943548" y2="22.513508569990506" /><path d="M 143.74570117128098 25.957352633546492 a86.0,86.0 0 0,1 28.547481713284135,27.462654790039103" fill="none" id="id62" stroke="none" /><text fill="#e1ed5e" style="font-size:6.75px; font-family:Arial;" text-anchor="middle"><textPath startOffset="19.985693538727396" xlink:href="#id62">February</textPath></text><path d="M 110.68208982089419 81.91981866633111 l 8.013408124497092 -13.563251612826704 a36.75361876149738,36.75361876149738 0 0,0 0.5419197415397486,0.3265005806963243 l -8.245689932254479 13.423304422671764" fill="#ffa40f" stroke="none" /><path d="M 111.2981086023043 82.29822771554956 l 8.520875184656749 -13.350428597602175 a36.83790572178573,36.83790572178573 0 0,0 0.5315761968929055,0.3457519452130403 l -8.749418407333936 13.201777728229606" fill="#ffa50f" stroke="none" /><path d="M 111.60114157652 82.49532879139004 l 7.730147407627006 -11.66382531168018 a34.99285531423211,34.99285531423211 0 0,0 0.49922358006928735,0.33707798974882536 l -7.929775682102835 11.529035409632685" fill="#ff8b0c" stroke="none" /><path d="M 111.90073688211348 82.69761687909136 l 9.658044245277425 -14.041750808022242 a38.04255216798029,38.04255216798029 0 0,0 0.5363435746525445,0.37574294950394355 l -9.89831895951362 13.873423015754362" fill="#ffb510" stroke="none" /><path d="M 112.19680574252982 82.90503203632743 l 9.846617937092814 -13.800959180498635 a37.953535298009896,37.953535298009896 0 0,0 0.5285566266111809,0.3840188676920706 l -10.082719880057784 13.629421077989889" fill="#ffb410" stroke="none" /><path d="M 113.6212207817346 84.01681056812373 l 9.283701718912022 -10.893528970720507 a35.31279466217751,35.31279466217751 0 0,0 0.45924491473114865,0.39825266458031466 l -9.469840432289935 10.732111312720521" fill="#ff8f0d" stroke="none" /><path d="M 114.42810811169701 84.74124197986012 l 10.461385924020272 -11.063665113550886 a36.226466471118385,36.226466471118385 0 0,0 0.44940959716377366,0.4323316764047931 l -10.650278764796463 10.881950350383791" fill="#ff9c0e" stroke="none" /><path d="M 114.94478906791727 85.2469230424477 l 10.18501394506919 -10.054360343427025 a35.31169699849504,35.31169699849504 0 0,0 0.42329600208613627,0.4362437389188178 l -10.356574210858435 9.877552408958094" fill="#ff8f0d" stroke="none" /><path d="M 115.19652480421416 85.50635884689758 l 11.959291720742742 -11.406139553540998 a37.52648413839672,37.52648413839672 0 0,0 0.44179872240803647,0.47128007353979967 l -12.153857765121241 11.198590063123143" fill="#ffae10" stroke="none" /><path d="M 115.4437574822437 85.77008943001954 l 12.230865919281575 -11.269545538053432 a37.63119772504986,37.63119772504986 0 0,0 0.4348309256770819,0.4801511686731237 l -12.423040485574692 11.05734158211076" fill="#ffb010" stroke="none" /><path d="M 115.68641384162765 86.03803664274999 l 10.283581287680564 -9.15307900005014 a34.76702216463287,34.76702216463287 0 0,0 0.3940397216358055,0.4504555184830438 l -10.439612872894218 8.974707925364148" fill="#ff880c" stroke="none" /><path d="M 116.38621287248628 86.86637796730983 l 10.906929920374452 -8.74195253204364 a34.97794170686313,34.97794170686313 0 0,0 0.3725082824743874,0.47304768993411295 l -11.055792283442804 8.552912448156489" fill="#ff8b0c" stroke="none" /><path d="M 116.60985879189232 87.15038557335679 l 11.088728569625388 -8.578392410592915 a35.01958336188863,35.01958336188863 0 0,0 0.3647440687891604,0.47996043970737157 l -11.234748578638662 8.386247195004511" fill="#ff8b0c" stroke="none" /><path d="M 116.82858285166822 87.43820079747576 l 12.846675159065173 -9.589479707867122 a37.03106932522399,37.03106932522399 0 0,0 0.3769011434952459,0.514092736157491 l -13.009838915074045 9.366924528038137" fill="#ffa80f" stroke="none" /><path d="M 117.04232023915458 87.72973835380427 l 12.83829044488183 -9.243411732554632 a36.8196827403293,36.8196827403293 0 0,0 0.365895387177691,0.5175330767207653 l -12.995498451863403 9.021052155502074" fill="#ffa50f" stroke="none" /><path d="M 117.2510076193507 88.02491185347247 l 21.41652228191665 -14.866652880631895 a47.07076513117774,47.07076513117774 0 0,0 0.45630743633147913,0.6695748574361828 l -21.669254183916863 14.495799999925305" fill="#d3ff1c" stroke="none" /><path d="M 117.65298651832404 88.62581576622439 l 11.678802132417898 -7.524893702606422 a34.89310780508431,34.89310780508431 0 0,0 0.3209707385312925,0.5076986270669192 l -11.806600467195146 7.3227474278252975" fill="#ff8a0c" stroke="none" /><line stroke="#e1ed5e" stroke-width="0.3" x1="172.23445277983987" x2="176.4835382374775" y1="55.19839476539836" y2="52.563006222186495" /><path d="M 173.08426987136738 54.67131705675599 a86.0,86.0 0 0,1 12.851231095245387,41.99856678651699" fill="none" id="id63" stroke="none" /><text fill="#e1ed5e" style="font-size:6.75px; font-family:Arial;" text-anchor="middle"><textPath startOffset="22.20632615414155" xlink:href="#id63">March</textPath></text><path d="M 117.84615892207809 88.93136811851018 l 11.518649230000827 -7.1441529045869965 a34.55426873010556,34.55426873010556 0 0,0 0.3091524379123418,0.5081653217675912 l -11.639917466199392 6.944819809612324" fill="#ff850c" stroke="none" /><path d="M 118.03404312379186 89.2402003453031 l 13.742055158220255 -8.199035531370873 a37.00213309581726,37.00213309581726 0 0,0 0.32163721050489325,0.5497822529864895 l -13.881152043195476 7.9612738660304885" fill="#ffa70f" stroke="none" /><path d="M 118.3937258080291 89.86733742301442 l 22.96393071274826 -12.650278893033402 a47.21777393013048,47.21777393013048 0 0,0 0.38604330270175813,0.7152796100896844 l -23.178282114668484 12.253118299611259" fill="#d1ff1c" stroke="none" /><path d="M 118.56541770881063 90.18545643968196 l 14.114213827252586 -7.461430095455048 a36.965086001358415,36.965086001358415 0 0,0 0.2925356474214668,0.5650857585918251 l -14.240558907834169 7.217371614602879" fill="#ffa70f" stroke="none" /><path d="M 119.04729006885535 91.15688171328212 l 14.580968139027839 -6.769531283566818 a37.07579502452475,37.07579502452475 0 0,0 0.2637637082574222,0.5811683679407857 l -14.695334164248608 6.517540906783969" fill="#ffa80f" stroke="none" /><path d="M 119.196687751892 91.48605970444005 l 14.411728799388925 -6.39175883567236 a36.76554813511195,36.76554813511195 0 0,0 0.2515976583210329,0.5807220841028126 l -14.519617167552639 6.142737606982944" fill="#ffa40f" stroke="none" /><path d="M 119.34039704204932 91.81776055985345 l 11.658039190660267 -4.932104953853991 a33.658417635976534,33.658417635976534 0 0,0 0.22114912797580502,0.5355301547848942 l -11.741210005522268 4.7307002286157935" fill="#ff780b" stroke="none" /><path d="M 119.47837535516314 92.15188598940014 l 25.1516837081474 -10.133970503231144 a48.11649961766906,48.11649961766906 0 0,0 0.30291960031288306,0.7708973417760173 l -25.322396858341982 9.699524156559342" fill="#c6ff1e" stroke="none" /><path d="M 119.7369772167798 92.82701384747503 l 15.449806662378112 -5.614904857579163 a37.43848175667477,37.43848175667477 0 0,0 0.2149092207107282,0.6075773069361262 l -15.54416896389865 5.348129924216423" fill="#ffad10" stroke="none" /><path d="M 119.85752413597 93.16781622104841 l 15.473763518165214 -5.323906212287577 a37.36402562859564,37.36402562859564 0 0,0 0.20401239495979603,0.6099710937420276 l -15.56311320689678 5.056762015623235" fill="#ffac0f" stroke="none" /><path d="M 119.97218684219823 93.5106431181261 l 15.134234767148872 -4.917410963259502 a36.91307615041047,36.91307615041047 0 0,0 0.19114736231446441,0.6059893742639488 l -15.216637613231542 4.656171422569134" fill="#ffa60f" stroke="none" /><path d="M 120.08093135843002 93.85539295169968 l 13.594737267553558 -4.1598826739145585 a35.216944300184345,35.216944300184345 0 0,0 0.1723854378954571,0.5811979991918185 l -13.664328602560717 3.92525528797621" fill="#ff8e0d" stroke="none" /><path d="M 120.18372546131832 94.20196356495316 l 15.415639312402579 -4.42834196165353 a37.03908189203588,37.03908189203588 0 0,0 0.17075586348690172,0.6142996930826609 l -15.489581946455843 4.162330965151917" fill="#ffa80f" stroke="none" /><path d="M 120.37134235888165 94.90015583598534 l 15.536285288671216 -3.889416439233917 a37.015733539515594,37.015733539515594 0 0,0 0.14941524183030494,0.6194226393688582 l -15.600933330762341 3.621408568205653" fill="#ffa70f" stroke="none" /><path d="M 120.53481517161879 95.60439243477599 l 13.309059430410732 -2.8488886717219826 a34.61055581473698,34.61055581473698 0 0,0 0.11968775866854751,0.5836400175101594 l -13.356126484994277 2.6193729980484113" fill="#ff860c" stroke="none" /><path d="M 120.6074358757038 95.95851677861258 l 15.29959538055954 -3.0005216756466675 a36.59104708269667,36.59104708269667 0 0,0 0.11589652419456305,0.6191238665276982 l -15.348977628663961 2.7367197316564065" fill="#ffa10e" stroke="none" /><path d="M 120.83666639777658 97.38593545837742 l 15.901640136576564 -1.9949406897018218 a37.026289258234755,37.026289258234755 0 0,0 0.07389327201902983,0.6330724287983063 l -15.933623761599183 1.720924522578663" fill="#ffa70f" stroke="none" /><path d="M 120.98425023603335 99.18683210126433 l 17.668510379626685 -0.6846785230629358 a38.68177150952131,38.68177150952131 0 0,0 0.02005614034250437,0.6655656569940575 l -17.677678214424837 0.3804427186438792" fill="#ffbe11" stroke="none" /><line stroke="#e1ed5e" stroke-width="0.3" x1="184.98032266829074" x2="189.97916517819016" y1="98.17113171792111" y2="98.06355123074" /><path d="M 185.9800911702706 98.14961562048488 a86.0,86.0 0 0,1 -9.607161424134198,41.387399972396054" fill="none" id="id64" stroke="none" /><text fill="#e1ed5e" style="font-size:6.75px; font-family:Arial;" text-anchor="middle"><textPath startOffset="21.466115282336823" xlink:href="#id64">April</textPath></text><path d="M 120.99513854157772 99.54816195383933 l 25.7806733326804 -0.5548279209625723 a46.78664288945457,46.78664288945457 0 0,0 0.010397758540527085,0.8053178576957664 l -25.786404098338643 0.11097380520634322" fill="#d6ff1c" stroke="none" /><path d="M 120.99980553446 99.90962569577887 l 16.191997431310536 -0.06968352632617103 a37.19214737486688,37.19214737486688 0 0,0 -0.0027552344990611328,0.6402194648221945 l -16.190797899521975 -0.20904541669970822" fill="#ffaa0f" stroke="none" /><path d="M 120.99824983174949 100.27111621757518 l 15.842979663046421 0.20455460601631772 a36.84430014833552,36.84430014833552 0 0,0 -0.013646316998501152,0.6340907287473447 l -15.837111283362912 -0.4772351505537773" fill="#ffa50f" stroke="none" /><path d="M 120.9904718944345 100.63252640178507 l 15.743309288659322 0.47440852338271994 a36.75045557453641,36.75045557453641 0 0,0 -0.024496571180481888,0.6321476541011193 l -15.732810584627638 -0.7453334244978455" fill="#ffa40f" stroke="none" /><path d="M 120.9764740272857 100.99374915477107 l 26.031633906441133 1.2332346302903898 a47.060829447512276,47.060829447512276 0 0,0 -0.04529862349494483,0.8088373523962845 l -26.006548932058656 -1.6811436990220976" fill="#d3ff1c" stroke="none" /><path d="M 120.95626037817324 101.35467743843564 l 13.296864289574556 0.8595504030761333 a34.32461732399064,34.32461732399064 0 0,0 -0.04318926248712025,0.5892831726079508 l -13.280098468423098 -1.0883067121808545" fill="#ff810b" stroke="none" /><path d="M 120.89721153311464 102.0752229133903 l 16.55212148397784 1.6437284809190535 a37.6335374752139,37.6335374752139 0 0,0 -0.06956415767436754,0.6440777042418293 l -16.52137502480242 -1.9284025070456743" fill="#ffb010" stroke="none" /><path d="M 120.8583938346157 102.4346265915055 l 26.511198120304776 3.094431355939255 a47.6911807755047,47.6911807755047 0 0,0 -0.10219195986349727,0.8145704676782782 l -26.45400465119443 -3.5503195779049284" fill="#cbff1d" stroke="none" /><path d="M 120.76222939487914 103.15116336523771 l 14.772105802008248 2.2420192815220883 a35.94127706337188,35.94127706337188 0 0,0 -0.09809956891844474,0.6108661092985065 l -14.731324478728515 -2.4959646205137997" fill="#ff980e" stroke="none" /><path d="M 120.70491114924044 103.5080841355445 l 13.296704100419536 2.2528933533444544 a34.48621030518423,34.48621030518423 0 0,0 -0.10420346352870818,0.584428362185044 l -13.25595419455164 -2.4814404662627165" fill="#ff840c" stroke="none" /><path d="M 120.5718875245553 104.21870165774334 l 15.336953227023654 3.1451674002371535 a36.65612379433127,36.65612379433127 0 0,0 -0.13207718302542334,0.617020628336488 l -15.280542005273787 -3.4087018479898106" fill="#ffa20f" stroke="none" /><path d="M 120.49622156327973 104.57218783832717 l 16.003097303753528 3.569885631938879 a37.396438843191746,37.396438843191746 0 0,0 -0.14556017844072308,0.6270694390588281 l -15.939276559382252 -3.844823728346272" fill="#ffad10" stroke="none" /><path d="M 120.41448212921028 104.9243191809786 l 17.692717628393645 4.267783440681745 a39.20017122377228,39.20017122377228 0 0,0 -0.16387292910207354,0.6545908923348691 l -17.61663338499651 -4.5717021724140094" fill="#ffc512" stroke="none" /><path d="M 120.32669344350535 105.2749913415812 l 13.393381624041698 3.4757237962816037 a34.837027398804125,34.837027398804125 0 0,0 -0.1556251692769537,0.5791391488635412 l -13.331568378422967 -3.705753878320693" fill="#ff890c" stroke="none" /><path d="M 120.13307415673323 105.97154293290107 l 15.354782949384706 4.5542844025617 a37.01595660090686,37.01595660090686 0 0,0 -0.18644272373575432,0.6093056086722447 l -15.274113453142819 -4.817916983786002" fill="#ffa70f" stroke="none" /><path d="M 120.02730092923936 106.31721596034902 l 13.154641786744866 4.149371567417447 a34.793545046218775,34.793545046218775 0 0,0 -0.18508136172751954,0.569621860026769 l -13.0812681740011 -4.3751923274220115" fill="#ff880c" stroke="none" /><path d="M 119.9155931802556 106.66101706037122 l 13.751933597308499 4.599504693416743 a35.50072829514245,35.50072829514245 0 0,0 -0.1988195788429447,0.5778627614995111 l -13.670723187522324 -4.835540158005554" fill="#ff920d" stroke="none" /><path d="M 119.41010516605496 108.01547362559984 l 12.379235899330315 5.1120505534245915 a34.393227479291056,34.393227479291056 0 0,0 -0.23067868305180303,0.5452562653530721 l -12.289406235086203 -5.324381344443827" fill="#ff820c" stroke="none" /><path d="M 119.26925614724726 108.34839909993367 l 14.994736958879438 6.496465020479489 a37.341548097665,37.341548097665 0 0,0 -0.26060651350708486,0.5875988898481768 l -14.88068936064108 -6.753612246820353" fill="#ffac0f" stroke="none" /><path d="M 119.12269723197855 108.67885076344098 l 12.750386626547074 5.7867727217331675 a35.00211047161911,35.00211047161911 0 0,0 -0.25372427037889383,0.5464995060254006 l -12.64888773932835 -6.005392295037399" fill="#ff8b0c" stroke="none" /><line stroke="#e1ed5e" stroke-width="0.3" x1="174.80103733775053" x2="179.2010983576182" y1="140.37084112569926" y2="142.7455964860345" /><path d="M 175.68104954172406 140.8457921977663 a86.0,86.0 0 0,1 -30.038265399797805,32.042727171017184" fill="none" id="id65" stroke="none" /><text fill="#e1ed5e" style="font-size:6.75px; font-family:Arial;" text-anchor="middle"><textPath startOffset="22.206326154141568" xlink:href="#id65">May</textPath></text><path d="M 118.30583269289576 110.29060199501025 l 13.998214255694508 7.869079432924926 a37.05840631787635,37.05840631787635 0 0,0 -0.3173752572401956,0.5533705126383264 l -13.860687002301933 -8.108869791421567" fill="#ffa80f" stroke="none" /><path d="M 118.12598468904814 110.60418214915192 l 15.23501419354188 8.9128876761573 a38.650643733451176,38.650643733451176 0 0,0 -0.3408970660004585,0.5713630909793692 l -15.079336251843195 -9.173812861022775" fill="#ffbe11" stroke="none" /><path d="M 117.94076556474637 110.91462005526583 l 11.606219288410427 7.060873369864379 a34.58529568746776,34.58529568746776 0 0,0 -0.3137962750477009,0.505939510286042 l -11.482958373694764 -7.259609211515695" fill="#ff850c" stroke="none" /><path d="M 117.75023020441432 111.22182372390056 l 13.149621691843388 8.313285797563788 a36.5570971389451,36.5570971389451 0 0,0 -0.3408429442313428,0.528995818576127 l -13.004573884234993 -8.538403216061369" fill="#ffa10e" stroke="none" /><path d="M 117.55443506779139 111.5257021239791 l 13.773821857086729 9.043467774409434 a37.47733224577152,37.47733224577152 0 0,0 -0.35870606661384397,0.5362168997094633 l -13.616112685062163 -9.279221588324704" fill="#ffae10" stroke="none" /><path d="M 117.14729908036423 112.12312394758627 l 12.926859948242658 9.139277542845864 a36.8313013402767,36.8313013402767 0 0,0 -0.3704531007699992,0.5145269562257093 l -12.767627055097057 -9.360438104522704" fill="#ffa50f" stroke="none" /><line stroke="#e1ed5e" stroke-width="0.3" x1="143.8653032363475" x2="146.44561519142675" y1="172.8068346515853" y2="177.08958963109032" /><path d="M 144.38136562736335 173.6633856474863 a86.0,86.0 0 0,1 -40.68145358897372,12.25698825130547" fill="none" id="id66" stroke="none" /><text fill="#e1ed5e" style="font-size:6.75px; font-family:Arial;" text-anchor="middle"><textPath startOffset="21.466115282336833" xlink:href="#id66">June</textPath></text><path d="M 109.2508944713604 118.85261126421891 l 6.527135898673536 13.301800830976791 a35.81692978949174,35.81692978949174 0 0,0 -0.5558230328343071,0.2668288330705474 l -6.297200197838997 -13.4121839405469" fill="#ff970d" stroke="none" /><path d="M 108.92500713936063 119.00905698771935 l 6.158899756199219 13.117622722218773 a35.49151724594016,35.49151724594016 0 0,0 -0.5552428235268533,0.25488474734042665 l -5.932188936904946 -13.221694539893273" fill="#ff920d" stroke="none" /><path d="M 108.59647513512805 119.15986991738527 l 6.840736807578445 15.246670910113684 a37.71097405634589,37.71097405634589 0 0,0 -0.5945392308844737,0.2606285269223332 l -6.577276902036217 -15.362163990330473" fill="#ffb110" stroke="none" /><path d="M 108.2653958097858 119.30500536409082 l 6.824187609748842 15.938859002467733 a38.338303343568434,38.338303343568434 0 0,0 -0.608900874263047,0.2545206148252767 l -6.548815275988334 -16.05396466031298" fill="#ffba11" stroke="none" /><path d="M 107.93186726928326 119.44442032107085 l 6.28203249505948 15.399965248737661 a37.63198310278455,37.63198310278455 0 0,0 -0.6018947614749498,0.23950634728307854 l -6.0160166575426635 -15.50581844042681" fill="#ffb010" stroke="none" /><path d="M 107.59598834532513 119.57807347666477 l 5.564720633724394 14.342637783431929 a36.38432235485617,36.38432235485617 0 0,0 -0.5858391850302149,0.2215142515120376 l -5.317011227933905 -14.436300285050597" fill="#ff9f0e" stroke="none" /><path d="M 107.2578585660854 119.70592522655815 l 4.928017346843809 13.380136918879561 a35.258801455198025,35.258801455198025 0 0,0 -0.5713276405163681,0.20485776502535918 l -4.696970145697707 -13.462982224944879" fill="#ff8f0d" stroke="none" /><path d="M 106.91757812671514 119.82793768551818 l 5.482108683657254 15.713434293572714 a37.64228148175175,37.64228148175175 0 0,0 -0.6136234415476264,0.20817438750622588 l -5.2108155091724 -15.805471667977063" fill="#ffb010" stroke="none" /><path d="M 106.57524785965236 119.94407469862006 l 4.530104095618763 13.74073440332971 a35.468228124410764,35.468228124410764 0 0,0 -0.581473993841896,0.1861696104846635 l -4.292908756685927 -13.81667686047408" fill="#ff920d" stroke="none" /><path d="M 105.18746579009965 120.34920634021253 l 3.448071266748573 13.525971355172404 a34.958549228394816,34.958549228394816 0 0,0 -0.584384946512893,0.14362760183775924 l -3.2147330354924692 -13.583320215324193" fill="#ff8a0c" stroke="none" /><path d="M 104.48393922423573 120.51570834832081 l 3.9681078119324575 18.15558563423115 a39.584164477560456,39.584164477560456 0 0,0 -0.666915018302133,0.1397585263784765 l -3.6550013322009463 -18.22120014133617" fill="#ffca12" stroke="none" /><path d="M 104.13013068566511 120.58985236759428 l 2.776658406303064 13.842415897261857 a35.11815532490209,35.11815532490209 0 0,0 -0.5937182122305424,0.11378750843523813 l -2.537972579500817 -13.888160604045563" fill="#ff8d0d" stroke="none" /><path d="M 103.7750983002368 120.6578951692458 l 3.4163474095975515 18.694757337779407 a40.00435164749171,40.00435164749171 0 0,0 -0.6784567135641888,0.117958396159915 l -3.0940417245613125 -18.75079431246033" fill="#ffd013" stroke="none" /><path d="M 103.41894727170886 120.7198165907248 l 2.323038612873533 14.078290820745394 a35.268664297347016,35.268664297347016 0 0,0 -0.5998429535925273,0.09368313295774834 l -2.080359795672489 -14.116192261050248" fill="#ff8f0d" stroke="none" /><path d="M 103.06178313531738 120.77559828337769 l 2.8577188184818314 19.390928604573762 a40.60037420543756,40.60037420543756 0 0,0 -0.6922777709563284,0.09594339100513188 l -2.523512456338673 -19.437246561071497" fill="#ffd814" stroke="none" /><path d="M 102.70371172650421 120.8252237178851 l 2.284356355676303 17.59515694368819 a38.74282479856963,38.74282479856963 0 0,0 -0.6620827320824557,0.0801689984432479 l -1.981146200542467 -17.631871470856787" fill="#ffbf11" stroke="none" /><path d="M 101.98527174616119 120.90594882070398 l 1.5809486909240862 16.648215784326364 a37.72311237673263,37.72311237673263 0 0,0 -0.6469615845216492,0.05582256778490348 l -1.2941427886608952 -16.67296260438993" fill="#ffb110" stroke="none" /><line stroke="#e1ed5e" stroke-width="0.3" x1="102.19456741930631" x2="102.32365962044197" y1="184.97166512339345" y2="189.96999836594603" /><path d="M 102.22038585953345 185.97133177190398 a86.0,86.0 0 0,1 -42.740103519485714,-10.115201625700543" fill="none" id="id67" stroke="none" /><text fill="#e1ed5e" style="font-size:6.75px; font-family:Arial;" text-anchor="middle"><textPath startOffset="22.20632615414155" xlink:href="#id67">July</textPath></text><path d="M 100.54218724476979 120.99299961872073 l 0.42733666040029894 16.546088893437293 a37.55160639608286,37.55160639608286 0 0,0 -0.6463173457537459,0.01112693923827043 l -0.14245962475388513 -16.550993309954723" fill="#ffaf10" stroke="none" /><path d="M 100.18074693466247 120.99922214144158 l 0.1632503706640813 18.966467147283087 a39.96716970801101,39.96716970801101 0 0,0 -0.6879946106530604,0.0 l 0.16325037066406825 -18.966467147283087" fill="#ffd013" stroke="none" /><path d="M 99.45781275523022 120.99299961872073 l -0.42467647809138503 16.44308904101504 a37.44857219705689,37.44857219705689 0 0,0 -0.6442574758875931,-0.022189530119188516 l 0.7076543056536211 -16.433342712469756" fill="#ffad10" stroke="none" /><path d="M 98.01472825383883 120.90594882070398 l -1.548971083321634 16.311474867503332 a37.38485653797919,37.38485653797919 0 0,0 -0.6401131329349325,-0.06635034349339365 l 1.82951681286216 -16.282395155554177" fill="#ffac10" stroke="none" /><path d="M 97.65516085044442 120.86867818915974 l -1.8142625575543696 16.146634822017482 a37.24824189576618,37.24824189576618 0 0,0 -0.6365415502828006,-0.07707631702337325 l 2.0919315308885595 -16.113012976268763" fill="#ffab0f" stroke="none" /><path d="M 97.2962882734958 120.8252237178851 l -2.106429695736417 16.22468446975516 a37.36085059543649,37.36085059543649 0 0,0 -0.6370405908174412,-0.08828802116020983 l 2.3853988777406894 -16.186021883102345" fill="#ffac0f" stroke="none" /><path d="M 96.93821686468263 120.77559828337769 l -2.067750490347319 14.030632360008848 a35.18218024536633,35.18218024536633 0 0,0 -0.5983720487478931,-0.09345340787170246 l 2.308958402703729 -13.99296064479004" fill="#ff8e0d" stroke="none" /><path d="M 96.22490169976321 120.6578951692458 l -2.9519798710788767 16.15366961825764 a37.421182274582875,37.421182274582875 0 0,0 -0.6326538861186933,-0.12124962300358394 l 3.2296013717692653 -16.10046279690559" fill="#ffad10" stroke="none" /><path d="M 95.51606077576429 120.51570834832081 l -4.006822493567442 18.332719863198555 a39.765480118490785,39.765480118490785 0 0,0 -0.6674538329279391,-0.15191031933128035 l 4.321796475888244 -18.26103281028959" fill="#ffcd13" stroke="none" /><path d="M 95.16358092515715 120.4354850818985 l -4.311790312177106 18.218753428358106 a39.72203280040644,39.72203280040644 0 0,0 -0.6640137684716728,-0.16319842891561412 l 4.624757365391989 -18.141833741128462" fill="#ffcc13" stroke="none" /><path d="M 94.81253420990036 120.34920634021253 l -4.164199552221825 16.335173928608192 a37.85759369508606,37.85759369508606 0 0,0 -0.6300757527900993,-0.16640873298126804 l 4.444765747823413 -16.26107384632334" fill="#ffb310" stroke="none" /><path d="M 94.46302465271185 120.25689768951611 l -4.478840415593588 16.385735239147266 a37.9868281558326,37.9868281558326 0 0,0 -0.6292587399038214,-0.17783480539248256 l 4.760230323602023 -16.306211640416265" fill="#ffb510" stroke="none" /><path d="M 94.11515582081647 120.15858648285463 l -4.625923826699635 15.846143531460546 a37.507556938265466,37.507556938265466 0 0,0 -0.618204957330527,-0.18626008243109504 l 4.898003758470408 -15.764168079923726" fill="#ffae10" stroke="none" /><path d="M 93.76903079525671 120.05430185196036 l -4.83505358089976 15.56156366620342 a37.29539833411488,37.29539833411488 0 0,0 -0.6114290272746026,-0.19576026624103832 l 5.1022039532653025 -15.476030553302673" fill="#ffab0f" stroke="none" /><path d="M 93.08242187328487 119.8279376855182 l -7.820510788225189 22.4160244723518 a44.74107289348612,44.74107289348612 0 0,0 -0.7249767591472802,-0.2599508723926063 l 8.205207108002195 -22.278086058919236" fill="#f0ff19" stroke="none" /><path d="M 92.7421414339146 119.70592522655815 l -6.35193105123247 17.24622727215144 a39.37877534555312,39.37877534555312 0 0,0 -0.6340541244915376,-0.23974501602793982 l 6.647855396484291 -17.134334006016868" fill="#ffc812" stroke="none" /><path d="M 92.40401165467489 119.57807347666478 l -5.86510352157518 15.116851484417268 a37.214766051988605,37.214766051988605 0 0,0 -0.595221694137901,-0.2368509960732507 l 6.124446291754939 -15.01365364393795" fill="#ffaa0f" stroke="none" /><path d="M 92.06813273071674 119.44442032107085 l -6.204987837939788 15.211095636366633 a37.4280036683607,37.4280036683607 0 0,0 -0.5944432113062844,-0.24847731053679967 l 6.465902508743534 -15.10203328280986" fill="#ffad10" stroke="none" /><path d="M 91.7346041902142 119.30500536409082 l -6.344124283473927 14.817602948659877 a37.11860012743965,37.11860012743965 0 0,0 -0.5852000518019868,-0.2565345052657408 l 6.598245009933657 -14.706203890099683" fill="#ffa90f" stroke="none" /><path d="M 91.40352486487194 119.15986991738527 l -5.663532935307067 12.622912601688599 a34.835227784867755,34.835227784867755 0 0,0 -0.5449755810505277,-0.25017155989598855 l 5.8799765121250145 -12.523553971458536" fill="#ff890c" stroke="none" /><path d="M 90.7491055286396 118.85261126421891 l -9.746742655741246 19.863111718541607 a43.1256005464374,43.1256005464374 0 0,0 -0.6636128235912121,-0.3327492461248682 l 10.087209387015218 -19.692394631507437" fill="#fff917" stroke="none" /><path d="M 90.42595943632237 118.69057910512821 l -7.9532101233362225 15.526370706415925 a38.44481982076594,38.44481982076594 0 0,0 -0.5863916923486205,-0.30677241885387707 l 8.219292718211339 -15.387168868617332" fill="#ffbb11" stroke="none" /><path d="M 90.10565033884886 118.52300852407294 l -6.5686587706183035 12.297051000493314 a34.94147558020866,34.94147558020866 0 0,0 -0.5280774889908184,-0.28794995192680806 l 6.779359071477763 -12.18216039680674" fill="#ff8a0c" stroke="none" /><line stroke="#e1ed5e" stroke-width="0.3" x1="58.666819895761336" x2="56.23545636021788" y1="174.27360380694188" y2="178.64263932499728" /><path d="M 58.180547188652646 175.14741091055294 a86.0,86.0 0 0,1 -31.652253787137756,-30.449443065178592" fill="none" id="id68" stroke="none" /><text fill="#e1ed5e" style="font-size:6.75px; font-family:Arial;" text-anchor="middle"><textPath startOffset="22.20632615414155" xlink:href="#id68">August</textPath></text><path d="M 89.4739219176387 118.17145234162733 l -2.319924420562557 4.004948064661617 a25.628353737319497,25.628353737319497 0 0,0 -0.3798270045573175,-0.22440848928472046 l 2.388519296148257 -3.9644210030831473" fill="#ff0000" stroke="none" /><path d="M 88.8546689885994 117.79835938074946 l -9.120439999116332 14.564741832143703 a38.18470629409993,38.18470629409993 0 0,0 -0.5540749948240776,-0.3536368768477764 l 9.369796795987334 -14.405590526472121" fill="#ffb711" stroke="none" /><path d="M 88.54995079064634 117.60387380957326 l -12.57832703873455 19.33854412997107 a44.06932162332042,44.06932162332042 0 0,0 -0.632342934022502,-0.4190824160638209 l 12.909344671497013 -19.119163692815928" fill="#f9ff18" stroke="none" /><path d="M 88.24862548938628 117.40417183066458 l -10.541866936444377 15.612851365784422 a39.83857973085486,39.83857973085486 0 0,0 -0.5650307952017709,-0.38863333316563853 l 10.809054616269037 -15.429077243253682" fill="#ffce13" stroke="none" /><path d="M 87.95078237400918 117.19931262002967 l -14.625516700074492 20.87677737776447 a46.490107344318815,46.490107344318815 0 0,0 -0.6514651484192755,-0.4648030859246638 l 14.982709176342654 -20.621930029995585" fill="#daff1c" stroke="none" /><path d="M 87.65650970185807 116.9893568818739 l -8.662784282474405 11.923299667339622 a35.7380089049324,35.7380089049324 0 0,0 -0.4945715483375496,-0.36587220792429004 l 8.866740801230518 -11.772417510675565" fill="#ff950d" stroke="none" /><path d="M 87.36589467227662 116.77436683061367 l -12.953517383557523 17.198451865184772 a42.53091635683917,42.53091635683917 0 0,0 -0.5809951454106483,-0.4454823025969312 l 13.247641257461659 -16.972930220760475" fill="#fff116" stroke="none" /><path d="M 87.07902340077011 116.55440617244103 l -11.471595059693172 14.697452828391272 a39.644372149696096,39.644372149696096 0 0,0 -0.5343353568045773,-0.42450832366791263 l 11.722887909215107 -14.49781059071823" fill="#ffcb12" stroke="none" /><path d="M 86.79598089348748 116.32954008644616 l -11.661420614687884 14.421793383995723 a39.54661303751524,39.54661303751524 0 0,0 -0.5256495720787888,-0.43257381178016696 l 11.907940315311361 -14.218924453358376" fill="#ffca12" stroke="none" /><path d="M 86.51685102203217 116.09983520530335 l -10.760743895072578 12.849090644940272 a37.759854998693555,37.759854998693555 0 0,0 -0.4947161766469047,-0.4216078583767431 l 10.98032554829654 -12.661958396340578" fill="#ffb210" stroke="none" /><path d="M 86.24171649860922 115.8653595955263 l -13.602544403419763 15.685769111572151 a41.76228712999985,41.76228712999985 0 0,0 -0.5390470136522502,-0.475646315626521 l 13.8705337699786 -15.449299654173343" fill="#ffe715" stroke="none" /><path d="M 85.97065885151581 115.62618273729859 l -11.007276120385725 12.26014153313496 a37.47638303763647,37.47638303763647 0 0,0 -0.47630778652847144,-0.435095869845139 l 11.216683456381052 -12.068852896703245" fill="#ffae10" stroke="none" /><path d="M 85.70375840098266 115.38237550388516 l -14.256577608470904 15.339698105609399 a41.941736868693354,41.941736868693354 0 0,0 -0.52459958661025,-0.49604165299521963 l 14.518513029471972 -15.092021815868248" fill="#ffea16" stroke="none" /><path d="M 85.44109423537348 115.13401014063109 l -19.563725711468145 20.336529962660926 a49.21903284373448,49.21903284373448 0 0,0 -0.6055114037712453,-0.5926203518470917 l 19.910887067615185 -19.996759507891266" fill="#b9ff1f" stroke="none" /><path d="M 85.18274418774928 114.88116024355367 l -11.342652631002519 11.391571659939824 a37.07556137716915,37.07556137716915 0 0,0 -0.4483660187171948,-0.4541924097752421 l 11.537059274775247 -11.194638756183917" fill="#ffa80f" stroke="none" /><path d="M 84.9287848128048 114.62390073753433 l -11.596909193590282 11.252712326299497 a37.158955335752104,37.158955335752104 0 0,0 -0.44147218637486096,-0.4628818224314993 l 11.7888879313441 -11.051423387285496" fill="#ffa90f" stroke="none" /><path d="M 84.67929136418377 114.36230785411682 l -11.875188460387815 11.132325308701937 a37.27724693394106,37.27724693394106 0 0,0 -0.43481883507138386,-0.4719099677070796 l 12.065053703454927 -10.926264086193513" fill="#ffab0f" stroke="none" /><path d="M 84.43433777217949 114.09645910891817 l -24.071408115381438 21.799369357128022 a53.475301276904936,53.475301276904936 0 0,0 -0.6120150202044293,-0.6876053631263659 l 24.443081985234205 -21.381789824260792" fill="#87ff25" stroke="none" /><path d="M 84.19399662182784 113.82643327865904 l -12.083080315986633 10.569775280472404 a37.05369052281341,37.05369052281341 0 0,0 -0.4158085580832013,-0.48367929204212023 l 12.263231383640614 -10.360218889268754" fill="#ffa80f" stroke="none" /><path d="M 83.72743513129214 113.27417163493432 l -18.091613434742033 14.758041146141643 a44.347510684082536,44.347510684082536 0 0,0 -0.47743703860127346,-0.5956761149557351 l 18.34296838539817 -14.444437197607648" fill="#f5ff19" stroke="none" /><path d="M 83.50135304334701 112.99209946851258 l -16.253584696567906 12.799121628125492 a41.68807699956804,41.68807699956804 0 0,0 -0.4391008778853662,-0.5675970760608413 l 16.47149239167134 -12.517446557951398" fill="#ffe615" stroke="none" /><path d="M 82.85270091963577 112.12312394758628 l -17.064711279596406 12.064734451924345 a41.898856151747516,41.898856151747516 0 0,0 -0.4112853427650228,-0.5924872113633746 l 17.269857529523563 -11.769205978373957" fill="#ffe915" stroke="none" /><path d="M 82.6465618267979 111.8261652097733 l -16.964309865291654 11.560978817819286 a41.52910228021912,41.52910228021912 0 0,0 -0.39748669492400945,-0.5941886772084152 l 17.160799665626392 -11.26725322640505" fill="#ffe415" stroke="none" /><path d="M 82.44556493220864 111.52570212397912 l -22.91940309250691 15.048175112642708 a48.41799796370214,48.41799796370214 0 0,0 -0.4514289774434755,-0.7006277979150658 l 23.175036933327434 -14.651425714806194" fill="#c2ff1e" stroke="none" /><path d="M 82.24976979558568 111.22182372390057 l -33.176680276455244 20.9745368662318 a60.25077465374475,60.25077465374475 0 0,0 -0.546662050425526,-0.8813932862721495 l 33.532806966548726 -20.400347248594386" fill="#3cff2e" stroke="none" /><path d="M 82.05923443525364 110.91462005526583 l -19.814643747697907 12.05463096076239 a44.19340928902767,44.19340928902767 0 0,0 -0.38978402706777765,-0.6533004497009446 l 20.01920865046392 -11.711768417175334" fill="#f7ff18" stroke="none" /><line stroke="#e1ed5e" stroke-width="0.3" x1="26.63291911575756" x2="22.317208475507996" y1="142.92168965132927" y2="145.44649492493687" /><path d="M 25.769776987707644 143.4266507060508 a86.0,86.0 0 0,1 -11.730757126820373,-40.83630448921669" fill="none" id="id69" stroke="none" /><text fill="#e1ed5e" style="font-size:6.75px; font-family:Arial;" text-anchor="middle"><textPath startOffset="21.46611528233685" xlink:href="#id69">September</textPath></text><path d="M 81.87401531095188 110.60418214915194 l -15.795128400735567 9.240569354107665 a39.29956838791006,39.29956838791006 0 0,0 -0.33656899650660776,-0.5868364148944211 l 15.951849393394552 -8.967313093354937" fill="#ffc712" stroke="none" /><path d="M 81.51974371655577 109.97397251340807 l -30.22822397123607 16.314463955153578 a55.349778144832555,55.349778144832555 0 0,0 -0.44529553275611805,-0.8423313339715512 l 30.50457201221707 -15.7917176060959" fill="#71ff27" stroke="none" /><path d="M 81.35079622478065 109.6543875284942 l -18.29498451942259 9.471014017928514 a41.601130189718006,41.601130189718006 0 0,0 -0.3237386682856388,-0.638767105622993 l 18.455301857494497 -9.154692700602835" fill="#ffe515" stroke="none" /><path d="M 81.18737489456691 109.33194174019688 l -16.34181535144535 8.106304565900311 a39.24190512791554,39.24190512791554 0 0,0 -0.2949622346988394,-0.6077095684076503 l 16.47893084275891 -7.823806041527376" fill="#ffc612" stroke="none" /><path d="M 81.02952815118164 109.00673069616217 l -18.963420354185132 9.003382813533145 a41.99219411153934,41.99219411153934 0 0,0 -0.30439418277930713,-0.6556379895288548 l 19.115589153804265 -8.675624756725464" fill="#ffea16" stroke="none" /><path d="M 79.97269907076064 106.31721596034903 l -17.548002633934175 5.535170350862953 a39.40028552098127,39.40028552098127 0 0,0 -0.1984521601778176,-0.648553141826253 l 17.64068156661812 -5.232290236484652" fill="#ffc812" stroke="none" /><path d="M 79.86692584326677 105.97154293290107 l -20.355287890648068 6.037452333622622 a42.23178220950679,42.23178220950679 0 0,0 -0.20071632485386734,-0.6987198583243396 l 20.456196852388036 -5.686174999793686" fill="#ffee16" stroke="none" /><path d="M 79.76711848015287 105.62410040840567 l -36.62289859552248 10.180006181820106 a59.01143548196803,59.01143548196803 0 0,0 -0.2636179181141267,-0.9810203415753215 l 36.79270458997838 -9.548094907069247" fill="#4aff2c" stroke="none" /><path d="M 79.67330655649465 105.27499134158121 l -25.898430856720523 6.720915967441347 a47.756297058482176,47.756297058482176 0 0,0 -0.19964107394756728,-0.7974668510418059 l 26.01028324496315 -6.27412127700215" fill="#caff1d" stroke="none" /><path d="M 79.58551787078972 104.9243191809786 l -20.699829099108303 4.993149707670846 a42.293531147639754,42.293531147639754 0 0,0 -0.16462139527650055,-0.7091846623089658 l 20.78271106031536 -4.636096388013306" fill="#ffee16" stroke="none" /><path d="M 79.50377843672027 104.57218783832718 l -20.854164309363497 4.652035797884448 a42.36674065239546,42.36674065239546 0 0,0 -0.15265334083694362,-0.7131455874762483 l 20.93115168892488 -4.292376390992035" fill="#ffef16" stroke="none" /><path d="M 79.4281124754447 104.21870165774334 l -21.18436372870767 4.34430288780557 a42.62522217622702,42.62522217622702 0 0,0 -0.1412114077965344,-0.7200339260807206 l 21.25600506947987 -3.979005234656895" fill="#fff316" stroke="none" /><path d="M 79.23777060512086 103.15116336523772 l -13.879662712843214 2.106569763329703 a35.038613649148736,35.038613649148736 0 0,0 -0.08537066278197342,-0.5970822166608197 l 13.913867426641787 -1.8673420746884828" fill="#ff8c0c" stroke="none" /><path d="M 79.18660465613746 102.79330883721812 l -26.547849683824634 3.5629142629452306 a47.785867185514945,47.785867185514945 0 0,0 -0.10239485250851132,-0.8161877216868633 l 26.605246045579996 -3.105408786970959" fill="#caff1d" stroke="none" /><path d="M 79.10278846688536 102.07522291339032 l -21.290789925239633 2.114307692536987 a42.395514311635665,42.395514311635665 0 0,0 -0.06586527478372114,-0.7268178187735458 l 21.32402979630043 -1.7475084852148752" fill="#fff016" stroke="none" /><path d="M 79.07016306316243 101.71520430193888 l -21.20340885625526 1.7376235751750242 a42.27448901418147,42.27448901418147 0 0,0 -0.05319226097435352,-0.7257661395469045 l 21.230177675893948 -1.372384299131359" fill="#ffee16" stroke="none" /><path d="M 79.04373962182676 101.35467743843564 l -21.4563586517767 1.3870053364492028 a42.501142071922864,42.501142071922864 0 0,0 -0.040909674891476934,-0.7304697267525163 l 21.47705467755571 -1.017463893361249" fill="#fff116" stroke="none" /><path d="M 79.0235259727143 100.99374915477108 l -21.405173422075585 1.0140585576130035 a42.42918019867767,42.42918019867767 0 0,0 -0.02828181084064519,-0.729827870395503 l 21.41945736576743 -0.6454534402035037" fill="#fff016" stroke="none" /><path d="M 79.0095281055655 100.63252640178507 l -27.819470243676165 0.8383112824378705 a48.83209820414275,48.83209820414275 0 0,0 -0.01808633327578011,-0.840400838443512 l 27.829778639636952 -0.35932062820422955" fill="#bdff1f" stroke="none" /><line stroke="#e1ed5e" stroke-width="0.3" x1="15.007084014347285" x2="10.007500721073583" y1="101.09737516637583" y2="101.16192664675087" /><path d="M 14.007167355692545 101.11028546245083 a86.0,86.0 0 0,1 10.666146001902534,-42.60595125391555" fill="none" id="id70" stroke="none" /><text fill="#e1ed5e" style="font-size:6.75px; font-family:Arial;" text-anchor="middle"><textPath startOffset="22.20632615414155" xlink:href="#id70">October</textPath></text><path d="M 79.00486145842228 99.54816195383935 l -18.3960737691138 -0.3959033665056688 a39.400333409867535,39.400333409867535 0 0,0 0.020428708034099703,-0.6779293648758812 l 18.386533366624057 0.7125028788065444" fill="#ffc812" stroke="none" /><path d="M 79.12142395522702 97.74499172005258 l -27.789120351280967 -3.0013874677187258 a48.950734098219264,48.950734098219264 0 0,0 0.09769085648912156,-0.8369555995981108 l 27.733339141788257 3.4792868056416983" fill="#bcff1f" stroke="none" /><path d="M 79.16333360222342 97.38593545837743 l -26.47059037241893 -3.3208686249226314 a47.67808694581366,47.67808694581366 0 0,0 0.10916919893443729,-0.8134373351491161 l 26.40950517442666 3.7760243021364066" fill="#cbff1d" stroke="none" /><path d="M 79.21141760316559 97.0276538004421 l -16.266288934495243 -2.325749835771393 a37.43171530909275,37.43171530909275 0 0,0 0.09668809304648236,-0.6370537274360126 l 16.22384494800946 2.605402675599498" fill="#ffad10" stroke="none" /><path d="M 79.26566170972629 96.67025291283419 l -17.524181499792665 -2.814224957990175 a38.74871261111212,38.74871261111212 0 0,0 0.11142679157490092,-0.6576472313840982 l 17.47314284669754 3.115457977690101" fill="#ffbf11" stroke="none" /><path d="M 79.32604984820605 96.31383870115002 l -13.69421339715047 -2.4416755903993894 a34.91018548601878,34.91018548601878 0 0,0 0.11057265313214262,-0.5906835344300183 l 13.650155020108466 2.6770372022919804" fill="#ff8a0c" stroke="none" /><path d="M 79.46518482838121 95.60439243477599 l -27.389216939621186 -5.86283578299525 a49.00967775580436,49.00967775580436 0 0,0 0.18368270145729454,-0.82341353407474 l 27.284239851161853 6.33342748661995" fill="#bbff1f" stroke="none" /><path d="M 79.54389044137918 95.25157060432595 l -25.953957216524206 -6.024632055662452 a47.64402534534308,47.64402534534308 0 0,0 0.1923166958489286,-0.7972768633117888 l 25.846407720414465 6.4704941506336375" fill="#ccff1d" stroke="none" /><path d="M 79.62865764111835 94.90015583598534 l -26.993013294095462 -6.757540023229965 a48.82601505535367,48.82601505535367 0 0,0 0.2111229174848434,-0.8135427235272971 l 26.87269404474031 7.221179172306126" fill="#bdff1f" stroke="none" /><path d="M 79.71946130924805 94.55025226153421 l -15.606603062066867 -4.1937766565054995 a37.16025438480364,37.16025438480364 0 0,0 0.17131448731278065,-0.6163093602049422 l 15.532101804187727 4.461797320129384" fill="#ffa90f" stroke="none" /><path d="M 79.81627453868168 94.20196356495316 l -21.84705763633971 -6.27585013563658 a43.73060101032348,43.73060101032348 0 0,0 0.21405942379152781,-0.7217019623852486 l 21.735792315436473 6.650981484768368" fill="#fdff18" stroke="none" /><path d="M 79.91906864156998 93.8553929516997 l -13.715619514850744 -4.196871690783276 a35.34335911371714,35.34335911371714 0 0,0 0.1830188804203721,-0.5802198653516881 l 13.641345150662168 4.432341722561378" fill="#ff900d" stroke="none" /><path d="M 80.02781315780177 93.51064311812611 l -20.289892242912916 -6.592585624165662 a42.334055227287976,42.334055227287976 0 0,0 0.23114939704648022,-0.6911072759183897 l 20.173405552094664 6.940866003006374" fill="#ffef16" stroke="none" /><path d="M 80.14247586403 93.16781622104843 l -28.778106180447583 -9.901401045201125 a51.43381569884107,51.43381569884107 0 0,0 0.2952470487948259,-0.8347031653381558 l 28.60340605084295 10.39530183696589" fill="#9eff22" stroke="none" /><path d="M 80.2630227832202 92.82701384747504 l -19.52827442988034 -7.097137546936534 a41.77794175487203,41.77794175487203 0 0,0 0.2514542923648612,-0.6737724883290929 l 19.40321554901385 7.432233172294969" fill="#ffe815" stroke="none" /><path d="M 80.52162464483688 92.15188598940014 l -14.863761300631728 -5.988820483571733 a37.02489846415901,37.02489846415901 0 0,0 0.24326823968068545,-0.5890933382504602 l 14.758471374064841 6.243788392275505" fill="#ffa70f" stroke="none" /><path d="M 80.803312248108 91.48605970444005 l -13.001427387901984 -5.766274784916764 a35.222764816239305,35.222764816239305 0 0,0 0.25058092636623475,-0.552121855487516 l 12.900244144572397 5.98921864924635" fill="#ff8e0d" stroke="none" /><path d="M 81.10775173730289 90.83032412892265 l -24.648975938502797 -11.963802124934988 a48.39898859632393,48.39898859632393 0 0,0 0.3702291857705428,-0.7463594468222672 l 24.439386739778843 12.386321160256218" fill="#c3ff1e" stroke="none" /><path d="M 81.26839172434947 90.50648371742162 l -27.06025348404361 -13.714623607381872 a51.33724145852504,51.33724145852504 0 0,0 0.40627453609468434,-0.7847930891473399 l 26.820169514788812 14.178389418789548" fill="#9fff22" stroke="none" /><path d="M 81.43458229118936 90.18545643968196 l -18.695537161829055 -9.883330757014834 a42.14718271122389,42.14718271122389 0 0,0 0.3445871386798282,-0.6384676342571977 l 18.522641923930756 10.203679374604503" fill="#ffec16" stroke="none" /><path d="M 81.6062741919709 89.86733742301443 l -18.332328666161807 -10.098840363464202 a41.929903272851305,41.929903272851305 0 0,0 0.3536934269587196,-0.6291811403864234 l 18.155777597910657 10.412905013785409" fill="#ffea16" stroke="none" /><line stroke="#e1ed5e" stroke-width="0.3" x1="26.266209847984243" x2="21.928928074336255" y1="57.711370442889674" y2="55.22380399835377" /><path d="M 25.398753493254645 57.213857153982495 a86.0,86.0 0 0,1 29.58750427330803,-30.492523968695096" fill="none" id="id71" stroke="none" /><text fill="#e1ed5e" style="font-size:6.75px; font-family:Arial;" text-anchor="middle"><textPath startOffset="21.46611528233685" xlink:href="#id71">November</textPath></text><path d="M 81.78341655067845 89.55222093294921 l -18.556992144786104 -10.643014076546994 a42.39242169777023,42.39242169777023 0 0,0 0.3684917360334399,-0.629871825232376 l 18.37104073428234 10.960865314133262" fill="#fff016" stroke="none" /><path d="M 81.96595687620814 89.24020034530311 l -20.186501887578423 -12.044038851884212 a44.506461458988326,44.506461458988326 0 0,0 0.39819338011082256,-0.6545252190025183 l 19.976192709181387 12.389731844093804" fill="#f3ff19" stroke="none" /><path d="M 82.15384107792192 88.93136811851018 l -14.76632750535201 -9.158443792409493 a38.375889061974334,38.375889061974334 0 0,0 0.3530077493476119,-0.5583734844735507 l 14.606492159758435 9.411264924597258" fill="#ffba11" stroke="none" /><path d="M 82.34701348167596 88.62581576622439 l -23.49983817431544 -15.141431654135376 a48.955417127202125,48.955417127202125 0 0,0 0.46251997502349523,-0.7044496536323247 l 23.235721563934025 15.543699371745367" fill="#bcff1f" stroke="none" /><path d="M 82.54541684631803 88.32363383020206 l -46.332862931852944 -30.994694546644112 a76.74410531618247,76.74410531618247 0 0,0 0.7439629641198242,-1.091673849637782 l 45.79247550206438 31.78764641955231" fill="#43ffe3" stroke="none" /><path d="M 82.7489923806493 88.02491185347247 l -13.324694271970598 -9.249569181883183 a37.22041946103519,37.22041946103519 0 0,0 0.36987770605353243,-0.5231657843539358 l 13.163503946113186 9.477561466568906" fill="#ffaa0f" stroke="none" /><path d="M 82.95767976084542 87.72973835380427 l -17.019345655079626 -12.253720227312842 a41.971690106816226,41.971690106816226 0 0,0 0.42718663770563237,-0.5826820937484882 l 16.80589640486036 12.54486476473283" fill="#ffea16" stroke="none" /><path d="M 83.17141714833178 87.43820079747576 l -10.995631167102498 -8.207756532063925 a34.72119426480778,34.72119426480778 0 0,0 0.3616362176126736,-0.47587087185733645 l 10.852719009265716 8.39581217980229" fill="#ff870c" stroke="none" /><path d="M 83.39014120810768 87.1503855733568 l -10.836179098267188 -8.38301667794734 a34.7002827004579,34.7002827004579 0 0,0 0.3695512680091918,-0.4692925818528343 l 10.690273749664025 8.568301653753224" fill="#ff870c" stroke="none" /><path d="M 83.84228863543731 86.58626213691792 l -43.58170795740503 -36.18047092041562 a77.64266717332069,77.64266717332069 0 0,0 0.8625338186708278,-1.0209679841351305 l 42.95246352524708 36.92529785417987" fill="#45ffec" stroke="none" /><path d="M 84.07557802195018 86.31012108654704 l -16.011379725137605 -13.764634595628392 a42.11467371885527,42.11467371885527 0 0,0 0.477315952754853,-0.5456546464042508 l 15.772071908804907 14.038204798235585" fill="#ffec16" stroke="none" /><path d="M 84.5562425177563 85.77008943001954 l -18.94385800657284 -17.454910541937377 a46.75934118334998,46.75934118334998 0 0,0 0.5504970068407984,-0.587231824603957 l 18.640593677761583 17.778411783419386" fill="#d7ff1c" stroke="none" /><path d="M 84.80347519578584 85.50635884689758 l -18.24346032272378 -17.399647005813826 a46.210544628661296,46.210544628661296 0 0,0 0.5539450227036171,-0.5708890390382694 l 17.941251036317045 17.711100240402217" fill="#deff1b" stroke="none" /><path d="M 85.05521093208273 85.24692304244772 l -14.81412464929478 -14.624088705206205 a41.816394010072514,41.816394010072514 0 0,0 0.5100887195942182,-0.5078982365266195 l 14.560200129533248 14.876922792382933" fill="#ffe815" stroke="none" /><path d="M 85.31137513191541 84.99185889309783 l -14.494367598069822 -14.809658230145086 a41.72227470529431,41.72227470529431 0 0,0 0.5175881750159301,-0.4979194142807459 l 14.237296179441465 15.056960731188145" fill="#ffe715" stroke="none" /><path d="M 85.57189188830299 84.74124197986013 l -43.28432433509105 -45.776274060419595 a84.0,84.0 0 0,0 1.0591684648205755,-0.98438165570141 l 42.48994798647562 46.514560302195655" fill="#4dd2ff" stroke="none" /><path d="M 86.10567301691215 84.25364557470407 l -9.263773390304769 -10.498576814617781 a35.001343241251845,35.001343241251845 0 0,0 0.45519447118470097,-0.39474015985056665 l 9.081685120473294 10.656481967888029" fill="#ff8b0c" stroke="none" /><path d="M 86.37877921826538 84.01681056812374 l -9.151308307829101 -10.738178066218003 a35.10868214705921,35.10868214705921 0 0,0 0.4633384116359857,-0.38803259484576025 l 8.965112359234006 10.894111818457576" fill="#ff8d0d" stroke="none" /><path d="M 86.65592168130627 83.78471172551755 l -17.38155798968784 -21.12150174265556 a48.35391003154545,48.35391003154545 0 0,0 0.6472437988564445,-0.5233594725528045 l 17.01541079226689 21.4175673124725" fill="#c3ff1e" stroke="none" /><path d="M 86.93701828274178 83.55741782278169 l -12.768945170305091 -16.072473714156235 a41.52730795926492,41.52730795926492 0 0,0 0.5635205162028271,-0.4398367013106203 l 12.49039209894284 16.289888804690076" fill="#ffe415" stroke="none" /><path d="M 87.22198572758235 83.33499621200491 l -9.733200794079789 -12.693977690476226 a36.99600785521761,36.99600785521761 0 0,0 0.5087018839894716,-0.38314371252480617 l 9.513252756331928 12.859637992506887" fill="#ffa70f" stroke="none" /><path d="M 87.51073957382395 83.11751280151077 l -8.231296332306728 -11.126740112319679 a34.84046909744572,34.84046909744572 0 0,0 0.48520277942758727,-0.3525204539605478 l 8.03854823652536 11.266779801096893" fill="#ff890c" stroke="none" /><path d="M 87.80319425747018 82.90503203632743 l -7.784539457421469 -10.910762657515502 a34.40312636412813,34.40312636412813 0 0,0 0.48503306749460706,-0.3397966602013137 l 7.5955752503432015 11.043144160480757" fill="#ff830c" stroke="none" /><path d="M 88.09926311788651 82.69761687909137 l -8.932999739495186 -12.987614585784666 a36.76314108846037,36.76314108846037 0 0,0 0.5244792613796566,-0.35413073850852417 l 8.708115783708989 13.139457236591856" fill="#ffa40f" stroke="none" /><path d="M 88.39885842347998 82.49532879139004 l -8.864906045735797 -13.376034125804715 a37.04695759745178,37.04695759745178 0 0,0 0.5345928450666292,-0.34771405709875397 l 8.633346174884881 13.526647107063004" fill="#ffa80f" stroke="none" /><path d="M 88.70189139769569 82.29822771554957 l -11.09177860266445 -17.378496345296266 a41.61649067600984,41.61649067600984 0 0,0 0.6071664613623129,-0.3802075824035238 l 10.790992988929894 17.56684826902272" fill="#ffe515" stroke="none" /><line stroke="#e1ed5e" stroke-width="0.3" x1="56.762969772571076" x2="54.21961505331055" y1="26.818313649435495" y2="22.513508569990535" /><path d="M 56.25429882871897 25.957352633546506 a86.0,86.0 0 0,1 42.265352541879196,-11.944610805530505" fill="none" id="id72" stroke="none" /><text fill="#e1ed5e" style="font-size:6.75px; font-family:Arial;" text-anchor="middle"><textPath startOffset="22.20632615414155" xlink:href="#id72">December</textPath></text><path d="M 89.94658935756843 81.56283822128135 l -12.985668032512782 -23.814690440444014 a48.125026359891336,48.125026359891336 0 0,0 0.7307096686098682,-0.3903197988930271 l 12.57381331737461 24.03468896583879" fill="#c6ff1e" stroke="none" /><path d="M 90.26544431104013 81.39251694778311 l -7.45928031687745 -14.258322260711484 a37.091631879211505,37.091631879211505 0 0,0 0.5682782645406942,-0.2910941991452869 l 7.212741564747992 14.384608985169278" fill="#ffa80f" stroke="none" /><path d="M 90.58718382345135 81.22770947309562 l -12.527347227633358 -24.983702781155493 a48.948521127580435,48.948521127580435 0 0,0 0.7564381687260511,-0.371180924218974 l 12.095437791896881 25.1956388655093" fill="#bcff1f" stroke="none" /><path d="M 90.91171255644093 81.06846463323043 l -9.35079317188958 -19.47835307150564 a42.60656315385883,42.60656315385883 0 0,0 0.663895038361042,-0.3117076223710816 l 9.014119922228929 19.63642567651673" fill="#fff216" stroke="none" /><path d="M 91.56875222667455 80.76684994638697 l -13.003423287186065 -29.66308167153442 a53.38807545128074,53.38807545128074 0 0,0 0.8448440291798623,-0.3617181226841244 l 12.490895500215894 29.88251932218133" fill="#88ff25" stroke="none" /><path d="M 91.90106846888425 80.62456947434976 l -21.539799024301043 -51.53060967714071 a76.85129072550703,76.85129072550703 0 0,0 1.2249222213704807,-0.49967653006233426 l 20.64959293334218 51.893747093386615" fill="#44ffe4" stroke="none" /></svg>