<?xml version="1.0" encoding="utf-8" ?>
<svg baseProfile="full" height="200mm" version="1.1" viewBox="0,0,200,200" width="200mm" xmlns="http://www.w3.org/2000/svg" xmlns:ev="http://www.w3.org/2001/xml-events" xmlns:xlink="http://www.w3.org/1999/xlink"><defs /><rect fill="#1a1a1a" height="200" width="200" x="0" y="0" /><text alignment-baseline="middle" fill="#e1ed5e" style="dominant-baseline: central; font-size:9.0px; font-family:Arial;" text-anchor="middle" x="100.0" y="100.0">2021</text><line stroke="#e1ed5e" stroke-width="0.3" x1="100.0" x2="100.0" y1="15.0" y2="10.0" /><path d="M 100.0 14.0 a86.0,86.0 0 0,1 42.46469731375804,11.215312516191453" fill="none" id="id37" stroke="none" /><text fill="#e1ed5e" style="font-size:6.75px; font-family:Arial;" text-anchor="middle"><textPath startOffset="22.20632615414155" xlink:href="#id37">January</textPath></text><path d="M 100.0 79.0 l 0.0 -42.657131179622525 a63.657131179622525,63.657131179622525 0 0,0 1.0957528708535313,0.009431490900963856 l -0.734272391581003 42.65081106533012" fill="#31ff40" stroke="none" /><path d="M 100.36148047927253 79.00311137660856 l 0.5620885542708546 -32.64937236516821 a53.65421043881251,53.65421043881251 0 0,0 0.9232953601064917,0.023845995164905442 l -1.1240105495722141 32.63485957786095" fill="#93ff23" stroke="none" /><path d="M 103.59715602781102 79.31037775812273 l 5.482316252866322 -31.53242489493342 a53.00546220961446,53.00546220961446 0 0,0 0.8975714747587958,0.16402544987968642 l -6.024282848728018 31.433383963702994" fill="#9bff22" stroke="none" /><path d="M 103.95276090670814 79.375362276772 l 5.892306692097496 -30.744761382461324 a52.304306902057775,52.304306902057775 0 0,0 0.8827811093157026,0.17707758575523216 l -6.420654210880324 30.638779840628885" fill="#a3ff21" stroke="none" /><path d="M 105.71112130821622 79.79150937346287 l 8.654290693618034 -30.62273464752088 a52.82214047957993,52.82214047957993 0 0,0 0.8728475936762656,0.25480814765106874 l -9.180128505017727 30.46922817095111" fill="#9dff22" stroke="none" /><line stroke="#e1ed5e" stroke-width="0.3" x1="143.23703022742887" x2="145.7803849466894" y1="26.81831364943548" y2="22.513508569990506" /><path d="M 143.74570117128098 25.957352633546492 a86.0,86.0 0 0,1 28.547481713284135,27.462654790039103" fill="none" id="id38" stroke="none" /><text fill="#e1ed5e" style="font-size:6.75px; font-family:Arial;" text-anchor="middle"><textPath startOffset="19.985693538727396" xlink:href="#id38">February</textPath></text><path d="M 112.19680574252982 82.90503203632743 l 19.7031273410364 -27.615782180139526 a54.92410135048544,54.92410135048544 0 0,0 0.7648957469051745,0.5557292896170308 l -20.175568404295362 27.272533655705818" fill="#84ff25" stroke="none" /><path d="M 113.06298171725822 83.55741782278167 l 19.352888260955076 -24.359787258744383 a52.11162996906941,52.11162996906941 0 0,0 0.6975429561700106,0.5640312263617776 l -19.769334615689576 24.023049935118475" fill="#a6ff21" stroke="none" /><path d="M 113.34407831869373 83.78471172551755 l 20.45781259755452 -24.859665899140097 a53.19510964251449,53.19510964251449 0 0,0 0.702029700383632,0.5879296847779282 l -20.88269983489727 24.50383505696835" fill="#98ff23" stroke="none" /><path d="M 114.94478906791727 85.2469230424477 l 23.851231680200677 -23.54526751172464 a54.51508428844069,54.51508428844069 0 0,0 0.6534949944113185,0.6734840355726159 l -24.252990938315104 23.131219280601908" fill="#88ff25" stroke="none" /><path d="M 115.19652480421416 85.50635884689758 l 27.682703713855968 -26.40229782436971 a59.254586853289275,59.254586853289275 0 0,0 0.6976033425367861,0.7441546068318061 l -28.133074378363215 25.921873800659853" fill="#52ff2b" stroke="none" /><path d="M 115.4437574822437 85.77008943001954 l 24.203744021539265 -22.301380559827702 a53.91159065640035,53.91159065640035 0 0,0 0.6229519198705075,0.6878790690594047 l -24.58403958202581 21.881448703498748" fill="#90ff24" stroke="none" /><path d="M 116.82858285166822 87.43820079747576 l 30.742269321346466 -22.94775606767114 a59.36256810443662,59.36256810443662 0 0,0 0.6041904867202006,0.8241151448834277 l -31.132722420580293 22.415178479116218" fill="#50ff2b" stroke="none" /><path d="M 117.04232023915458 87.72973835380427 l 27.217418694902733 -19.596207795299758 a54.53802678110637,54.53802678110637 0 0,0 0.5419713300007029,0.7665800109513121 l -27.55070264470732 19.124801284016655" fill="#88ff25" stroke="none" /><line stroke="#e1ed5e" stroke-width="0.3" x1="172.23445277983987" x2="176.4835382374775" y1="55.19839476539836" y2="52.563006222186495" /><path d="M 173.08426987136738 54.67131705675599 a86.0,86.0 0 0,1 12.851231095245387,41.99856678651699" fill="none" id="id39" stroke="none" /><text fill="#e1ed5e" style="font-size:6.75px; font-family:Arial;" text-anchor="middle"><textPath startOffset="22.20632615414155" xlink:href="#id39">March</textPath></text><path d="M 117.84615892207809 88.93136811851018 l 26.879571389652977 -16.671379098626225 a52.629831475073686,52.629831475073686 0 0,0 0.4708720891916564,0.7739899071515733 l -27.162559277130857 16.206221418267567" fill="#9fff22" stroke="none" /><path d="M 118.21658344932153 89.55222093294921 l 28.34894845687409 -16.25900658510486 a53.68054732933626,53.68054732933626 0 0,0 0.4528142271729434,0.8055059837714101 l -28.624620325339468 15.768617091398657" fill="#92ff23" stroke="none" /><path d="M 118.3937258080291 89.86733742301442 l 29.076662734010778 -16.017636417083878 a54.19664127795616,54.19664127795616 0 0,0 0.44310115985653825,0.8209991538108043 l -29.34807199308578 15.514756279940613" fill="#8cff24" stroke="none" /><path d="M 118.56541770881063 90.18545643968196 l 30.023649755383104 -15.871898116469431 a54.96081115717794,54.96081115717794 0 0,0 0.4349508742948192,0.840186647054862 l -30.29241006283804 15.352738747154223" fill="#83ff25" stroke="none" /><path d="M 119.04729006885535 91.15688171328212 l 27.67687802478373 -12.849592004713639 a51.51428504629196,51.51428504629196 0 0,0 0.36648165853360576,0.8074937555940834 l -27.89396200028068 12.371276240277494" fill="#adff20" stroke="none" /><path d="M 119.196687751892 91.48605970444005 l 34.32625469269425 -15.224068172645001 a58.55081907166682,58.55081907166682 0 0,0 0.40068079271042234,0.9248265129155684 l -34.583226195247356 14.630942515142829" fill="#5aff2a" stroke="none" /><path d="M 119.47837535516314 92.15188598940014 l 35.85790840301164 -14.4476604540782 a59.65908027404568,59.65908027404568 0 0,0 0.3755864390644881,0.9558265202478546 l -36.10128839195783 13.82828492893456" fill="#4dff2c" stroke="none" /><path d="M 119.61058180528143 92.48833698450437 l 39.89032855706604 -15.279643851126538 a63.71657557211191,63.71657557211191 0 0,0 0.3834991804144941,1.0275871397141083 l -40.147432325982166 14.590733574383096" fill="#31ff41" stroke="none" /><path d="M 119.85752413597 93.16781622104841 l 36.28621599436851 -12.484642829525031 a59.373894482718015,59.373894482718015 0 0,0 0.32418911527132466,0.969284191091817 l -36.495742403411604 11.8581855355109" fill="#50ff2b" stroke="none" /><path d="M 119.97218684219823 93.5106431181261 l 35.852983471315895 -11.649340498543372 a58.69805774632764,58.69805774632764 0 0,0 0.303956756827157,0.9636259828161378 l -36.048195711911255 11.030464349300816" fill="#58ff2a" stroke="none" /><path d="M 120.08093135843002 93.85539295169968 l 35.61587049726896 -10.898176234091766 a58.24594577276238,58.24594577276238 0 0,0 0.28511141631388315,0.9612539593330773 l -35.79818781069454 10.283492888012159" fill="#5dff2a" stroke="none" /><path d="M 120.18372546131832 94.20196356495316 l 41.35880961659974 -11.88085348895488 a64.03145143413309,64.03145143413309 0 0,0 0.29519483803150026,1.0619728933422332 l -41.557191225197606 11.167169292193694" fill="#32ff45" stroke="none" /><path d="M 120.28053869075195 94.5502522615342 l 35.34466895501468 -9.497752137730405 a57.59853711843331,57.59853711843331 0 0,0 0.24905516425039384,0.9597111438522397 l -35.502920451135374 8.887944568329313" fill="#64ff29" stroke="none" /><path d="M 120.6074358757038 95.95851677861258 l 36.158581151373866 -7.091338287493877 a57.847388911402746,57.847388911402746 0 0,0 0.1832227236736565,0.9787831162747834 l -36.27528959895738 6.467877093756531" fill="#62ff29" stroke="none" /><path d="M 120.67395015179393 96.31383870115 l 32.06295492048233 -5.716818638280324 a53.56862130296386,53.56862130296386 0 0,0 0.15404330101971966,0.90917228250968 l -32.15661008302227 5.164060567454806" fill="#94ff23" stroke="none" /><path d="M 120.73433829027371 96.67025291283417 l 30.4556039021259 -4.890894368620882 a51.84582073422904,51.84582073422904 0 0,0 0.13392048688735597,0.8823686832940214 l -30.535280282452558 4.365926572934778" fill="#a9ff21" stroke="none" /><path d="M 120.78858239683441 97.02765380044208 l 31.462936326607494 -4.498562597109314 a52.782910938620276,52.782910938620276 0 0,0 0.12085778758584598,0.9005308972258113 l -31.535710113251177 3.956313357818838" fill="#9dff22" stroke="none" /><path d="M 120.87857604477298 97.74499172005257 l 32.19821530200119 -3.4775955002793464 a53.385471111249664,53.385471111249664 0 0,0 0.09081345118581827,0.9144790601708573 l -32.253305878869234 2.922840909404054" fill="#96ff23" stroke="none" /><path d="M 120.91429891909075 98.10471618934814 l 35.15358315107396 -3.185668201950475 a56.29763292704469,56.29763292704469 0 0,0 0.07915317485293348,0.9658692208457079 l -35.20321080974639 2.5800850638969988" fill="#73ff27" stroke="none" /><path d="M 120.94382443527127 98.46500227214037 l 37.28794328411578 -2.7328775790005446 a58.38795707472178,58.38795707472178 0 0,0 0.06483679292581276,1.0029964891185117 l -37.329460668046 2.090622025628998" fill="#5bff2a" stroke="none" /><path d="M 120.96714384426684 98.82574320788733 l 33.05669881798243 -1.8513276486369232 a54.108499676146735,54.108499676146735 0 0,0 0.044076247302756916,0.9303799176356953 l -33.08366867351868 1.2820366243782282" fill="#8dff24" stroke="none" /><line stroke="#e1ed5e" stroke-width="0.3" x1="184.98032266829074" x2="189.97916517819016" y1="98.17113171792111" y2="98.06355123074" /><path d="M 185.9800911702706 98.14961562048488 a86.0,86.0 0 0,1 -9.607161424134198,41.387399972396054" fill="none" id="id40" stroke="none" /><text fill="#e1ed5e" style="font-size:6.75px; font-family:Arial;" text-anchor="middle"><textPath startOffset="21.466115282336823" xlink:href="#id40">April</textPath></text><path d="M 120.99824983174949 100.27111621757518 l 31.904647936223498 0.4119327820577788 a52.90730713412375,52.90730713412375 0 0,0 -0.01959570087591773,0.9105352198758397 l -31.892830172662574 -0.9610578177237333" fill="#9cff22" stroke="none" /><path d="M 120.9764740272857 100.99374915477107 l 37.768856744287675 1.7892792381352338 a58.811216060351015,58.811216060351015 0 0,0 -0.05660901358674461,1.0107919653756705 l -37.7324613798134 -2.4391429198463275" fill="#57ff2a" stroke="none" /><path d="M 120.89721153311464 102.0752229133903 l 32.643597848110225 3.2417120400273727 a53.80416402561731,53.80416402561731 0 0,0 -0.09945494367306493,0.9208292594628976 l -32.58296060293611 -3.803137621375062" fill="#91ff24" stroke="none" /><path d="M 120.8583938346157 102.4346265915055 l 36.29459276311227 4.236365530805721 a57.540994194886935,57.540994194886935 0 0,0 -0.12329799500979931,0.9828063342075247 l -36.21629325885563 -4.860489619300641" fill="#65ff29" stroke="none" /><path d="M 120.76222939487914 103.15116336523771 l 36.482706731171625 5.537120640056784 a57.90050941945406,57.90050941945406 0 0,0 -0.15803598197670482,0.984090210626066 l -36.38198899483363 -6.164290080376055" fill="#61ff29" stroke="none" /><path d="M 120.70491114924044 103.5080841355445 l 36.27862137542595 6.146776249809031 a57.795668592467905,57.795668592467905 0 0,0 -0.17463527569415724,0.9794473686141131 l -36.167439657392606 -6.770342369156363" fill="#62ff29" stroke="none" /><path d="M 120.64145759157962 103.86396538481128 l 37.68068552240623 7.053613529401689 a59.335199559421014,59.335199559421014 0 0,0 -0.19656922905958404,1.0023022640661299 l -37.55368636037098 -7.701179520535764" fill="#51ff2b" stroke="none" /><path d="M 120.5718875245553 104.21870165774334 l 36.186709678559644 7.42085197223615 a57.939775328962185,57.939775328962185 0 0,0 -0.20876518077884385,0.9752814230914343 l -36.05361045905636 -8.042647214743754" fill="#60ff29" stroke="none" /><path d="M 120.49622156327973 104.57218783832717 l 35.957305433742064 8.021164003111194 a57.841103213940585,57.841103213940585 0 0,0 -0.22513804965047549,0.9698888254840541 l -35.81390681816104 -8.638921485943811" fill="#62ff29" stroke="none" /><path d="M 120.41448212921028 104.9243191809786 l 35.58209660750171 8.58300493320094 a57.602644339841575,57.602644339841575 0 0,0 -0.24080287808208303,0.9618877974797908 l -35.42908241512457 -9.194220570078127" fill="#64ff29" stroke="none" /><path d="M 120.23288151984713 105.62410040840565 l 37.605187057875625 10.453051271165032 a60.0309668665205,60.0309668665205 0 0,0 -0.2853110718154927,0.993205270285937 l -37.41968334917403 -11.09881401695555" fill="#49ff2c" stroke="none" /><path d="M 120.13307415673323 105.97154293290107 l 31.387890384099755 9.309762311641801 a53.73944619359845,53.73944619359845 0 0,0 -0.2706759365538062,0.8845846218627145 l -31.222987675039814 -9.848673906056574" fill="#92ff23" stroke="none" /><path d="M 120.02730092923936 106.31721596034902 l 34.98268286318912 11.034595390561188 a57.68174472049905,57.68174472049905 0 0,0 -0.3068332314372585,0.9443355850527416 l -34.78755738073561 -11.635129875591725" fill="#63ff29" stroke="none" /><path d="M 119.9155931802556 106.66101706037122 l 34.99891594853379 11.70582136909718 a57.90461179172252,57.90461179172252 0 0,0 -0.32429110844663267,0.9425417584489493 l -34.79223400914393 -12.306535830635429" fill="#61ff29" stroke="none" /><path d="M 119.79798401119884 107.00284435728193 l 36.08954285986269 12.765413459780339 a59.28068552982048,59.28068552982048 0 0,0 -0.34855840256720694,0.9590830239877749 l -35.86446019629025 -13.384744280774246" fill="#51ff2b" stroke="none" /><path d="M 119.67450827220406 107.3425965602758 l 36.29048645628171 13.543738798345993 a59.735413614306346,59.735413614306346 0 0,0 -0.36781574719893934,0.9602508505554473 l -36.05197642948927 -14.166413215734584" fill="#4cff2c" stroke="none" /><path d="M 119.26925614724726 108.34839909993367 l 36.36667666845035 15.755851105328803 a60.633092434995554,60.633092434995554 0 0,0 -0.4231581074600672,0.954109821844615 l -36.09007747625901 -16.379509263666108" fill="#42ff2d" stroke="none" /><path d="M 119.12269723197855 108.67885076344098 l 34.71530043818318 15.75556565352973 a59.12335155224429,59.12335155224429 0 0,0 -0.42857499255970183,0.9231124061523763 l -34.438950828783646 -16.35079812696094" fill="#53ff2b" stroke="none" /><path d="M 118.81262510543309 109.33194174019688 l 38.1657369064702 18.93199015484567 a63.603329973572194,63.603329973572194 0 0,0 -0.494959085252573,0.9766012319839112 l -37.83419915143136 -19.586145598532276" fill="#31ff3f" stroke="none" /><line stroke="#e1ed5e" stroke-width="0.3" x1="174.80103733775053" x2="179.2010983576182" y1="140.37084112569926" y2="142.7455964860345" /><path d="M 175.68104954172406 140.8457921977663 a86.0,86.0 0 0,1 -30.038265399797805,32.042727171017184" fill="none" id="id41" stroke="none" /><text fill="#e1ed5e" style="font-size:6.75px; font-family:Arial;" text-anchor="middle"><textPath startOffset="22.206326154141568" xlink:href="#id41">May</textPath></text><path d="M 118.48025628344425 109.97397251340804 l 32.13683577177645 17.344560147835125 a57.51862511300228,57.51862511300228 0 0,0 -0.4777431007439252,0.8672424977143287 l -31.83351626158101 -17.89517316394726" fill="#65ff29" stroke="none" /><path d="M 117.94076556474637 110.91462005526583 l 43.884913249362576 26.698256133300365 a72.36810772710427,72.36810772710427 0 0,0 -0.6566039753491186,1.0586546755199777 l -43.4188446343455 -27.449707140185616" fill="#3dffad" stroke="none" /><path d="M 117.75023020441432 111.22182372390056 l 37.991059328740526 24.018222071584706 a65.94658585921562,65.94658585921562 0 0,0 -0.6148581327677239,0.9542734762638561 l -37.57199633259575 -24.668617147770014" fill="#34ff5e" stroke="none" /><path d="M 117.35343817320211 111.8261652097733 l 37.55786537948899 25.59524611037369 a66.45008113649982,66.45008113649982 0 0,0 -0.6522837830705008,0.9396634391364346 l -37.11172068925635 -26.237950811697143" fill="#35ff64" stroke="none" /><path d="M 116.93607887273984 112.41649034213515 l 29.462127133162927 21.599817747453315 a57.53175415900329,57.53175415900329 0 0,0 -0.5924092211501067,0.7936289618618884 l -29.085956645317726 -22.10375958882452" fill="#65ff29" stroke="none" /><path d="M 116.71984013943494 112.70617746262583 l 34.17993887398513 25.974911564509476 a63.92975951730277,63.92975951730277 0 0,0 -0.67337271343408,0.8704250036687897 l -33.72775934333298 -26.55941456229152" fill="#31ff44" stroke="none" /><path d="M 116.498646956653 112.99209946851258 l 26.81097229254917 21.112690015581588 a55.12585405474679,55.12585405474679 0 0,0 -0.5934746754503119,0.7404509085272201 l -26.443579705044005 -21.571068757687062" fill="#81ff25" stroke="none" /><path d="M 116.0416608686014 113.55231037782055 l 27.968392441635487 23.628247613663774 a57.61318152062097,57.61318152062097 0 0,0 -0.6465227510853677,0.7520520211888605 l -27.557527180979342 -24.106176734014163" fill="#64ff29" stroke="none" /><path d="M 115.80600337817218 113.82643327865902 l 32.175814395147974 28.14606199157197 a63.74907996231526,63.74907996231526 0 0,0 -0.7295965339049008,0.8197094402419081 l -31.686559011594735 -28.695745601554744" fill="#31ff41" stroke="none" /><path d="M 115.56566222782051 114.09645910891815 l 24.41863183364268 22.11381951507681 a53.94374893925067,53.94374893925067 0 0,0 -0.6292245270879244,0.6828989508005532 l -24.034360898559033 -22.530869720678695" fill="#8fff24" stroke="none" /><path d="M 115.32070863581623 114.36230785411682 l 24.78711880031721 23.236538171248636 a54.97554951144917,54.97554951144917 0 0,0 -0.6531447351165683,0.6848196435314823 l -24.383467513821675 -23.659764931362623" fill="#83ff25" stroke="none" /><path d="M 114.81725581225074 114.88116024355365 l 34.82056441699929 34.97073988774166 a70.35001879041671,70.35001879041671 0 0,0 -0.8654728907079966,0.8470473814548567 l -34.2134415739155 -35.56493737211909" fill="#3aff95" stroke="none" /><path d="M 114.55890576462653 115.13401014063108 l 22.735584057541608 23.633682726074806 a53.79417237306511,53.79417237306511 0 0,0 -0.6728476857622959,0.6362194839232778 l -22.325400537388504 -24.021536846744006" fill="#91ff24" stroke="none" /><path d="M 113.48314897796784 116.09983520530334 l 33.48518168389666 39.983679466221496 a73.1531592145779,73.1531592145779 0 0,0 -0.9723443775292796,0.8001732258384058 l -32.79196717782269 -40.55414781091708" fill="#3effb6" stroke="none" /><path d="M 113.20401910651253 116.32954008644616 l 23.80311758769004 29.437549256412638 a58.857069526273676,58.857069526273676 0 0,0 -0.793288215715509,0.6302361360714921 l -23.29287187925718 -29.842919306489254" fill="#56ff2a" stroke="none" /><path d="M 112.63410532772338 116.77436683061366 l 22.232847935033572 29.518666916061527 a57.95471855938984,57.95471855938984 0 0,0 -0.8020243927867076,0.5933184720883562 l -21.7214385718283 -29.896995336889653" fill="#60ff29" stroke="none" /><path d="M 112.34349029814194 116.9893568818739 l 22.07121447706739 30.37842056907717 a58.54979287245723,58.54979287245723 0 0,0 -0.8204573334510629,0.5853745229240394 l -21.54502981576744 -30.75383935384543" fill="#5aff2a" stroke="none" /><path d="M 111.7513745106137 117.40417183066458 l 27.73378682171349 41.0746496866531 a70.56097031287342,70.56097031287342 0 0,0 -1.0124669350822395,0.6710078764379788 l -27.02264518789129 -41.5459555841824" fill="#3bff98" stroke="none" /><path d="M 111.45004920935366 117.60387380957326 l 20.612281069977236 31.69034370497849 a58.80402114917686,58.80402114917686 0 0,0 -0.853269302712922,0.544596840031166 l -20.063729965217384 -32.04045497383346" fill="#57ff2a" stroke="none" /><path d="M 111.1453310114006 117.79835938074945 l 3.6667662013676856 5.855584060300265 a27.90891012119386,27.90891012119386 0 0,0 -0.40935832497844854,0.25146131777048025 l -3.5654286764569285 -5.917833844899123" fill="#ff0000" stroke="none" /><line stroke="#e1ed5e" stroke-width="0.3" x1="143.8653032363475" x2="146.44561519142675" y1="172.8068346515853" y2="177.08958963109032" /><path d="M 144.38136562736335 173.6633856474863 a86.0,86.0 0 0,1 -40.68145358897372,12.25698825130547" fill="none" id="id42" stroke="none" /><text fill="#e1ed5e" style="font-size:6.75px; font-family:Arial;" text-anchor="middle"><textPath startOffset="21.466115282336833" xlink:href="#id42">June</textPath></text><path d="M 110.8373102113329 117.98757091392108 l 25.186414527889017 41.80395398426957 a69.80497972020464,69.80497972020464 0 0,0 -1.0345501167209477,0.6112304443789092 l -24.463096540139684 -42.231303000942226" fill="#3aff8e" stroke="none" /><path d="M 110.5260780823613 118.17145234162733 l 16.463945671006936 28.42215322506244 a53.84631335487737,53.84631335487737 0 0,0 -0.8060311904692002,0.4576855460702871 l -15.972265713616535 -28.701341936927356" fill="#90ff24" stroke="none" /><path d="M 110.21172684928248 118.3499491758327 l 20.80729996070513 37.389650389255394 a63.7893641911808,63.7893641911808 0 0,0 -0.9640613828420797,0.5256831329325897 l -20.160615765994404 -37.742274173947756" fill="#31ff42" stroke="none" /><path d="M 109.57404056367764 118.69057910512821 l 13.892771474754682 27.1216674413825 a51.47283944844499,51.47283944844499 0 0,0 -0.7920593775351262,0.3971550147790661 l -13.423858189536794 -27.35679029707087" fill="#adff20" stroke="none" /><path d="M 109.2508944713604 118.85261126421891 l 21.966785001888756 44.7666179359608 a70.86571692800067,70.86571692800067 0 0,0 -1.0997256866627085,0.5279351598180209 l -21.192946647225813 -45.138107372278384" fill="#3bff9b" stroke="none" /><path d="M 108.92500713936063 119.00905698771935 l 15.53461909206148 33.08663567351099 a57.552015683503576,57.552015683503576 0 0,0 -0.9003656695298257,0.41331371873373685 l -14.962785426764235 -33.349136462578805" fill="#65ff29" stroke="none" /><path d="M 108.59647513512805 119.15986991738527 l 13.075230809908525 29.14214460226015 a52.9409807731607,52.9409807731607 0 0,0 -0.8346506760635655,0.3658863282639225 l -12.571659459187206 -29.362895483818527" fill="#9bff22" stroke="none" /><path d="M 106.91757812671514 119.82793768551818 l 16.606384934747073 47.599081591327014 a71.4127423271022,71.4127423271022 0 0,0 -1.1641306263105662,0.3949363138706491 l -15.78458457549928 -47.87788089209579" fill="#3cffa2" stroke="none" /><path d="M 106.57524785965236 119.94407469862006 l 12.568758197017571 38.123620234669716 a61.142049055976386,61.142049055976386 0 0,0 -1.002376305113109,0.32092923889680247 l -11.91066054681352 -38.33432232022623" fill="#3dff2e" stroke="none" /><path d="M 105.53697534728816 120.25689768951611 l 16.281425911882774 59.56522437795889 a82.7503099985799,82.7503099985799 0 0,0 -1.3772392478483322,0.36374140288947876 l -15.253696221222945 -59.836657130151956" fill="#4bdfff" stroke="none" /><path d="M 105.18746579009965 120.34920634021253 l 12.161559450800313 47.70693296048572 a70.23266172747142,70.23266172747142 0 0,0 -1.1740450096747637,0.28855169900488675 l -11.338561156382339 -47.90920591780464" fill="#3aff94" stroke="none" /><path d="M 104.83641907484287 120.43548508189849 l 7.095743696950392 29.981885816773687 a51.81011288104713,51.81011288104713 0 0,0 -0.8696200403928783,0.19792268995364232 l -6.578603507164652 -30.099585240305014" fill="#a9ff21" stroke="none" /><path d="M 104.48393922423573 120.51570834832081 l 6.887221088340268 31.511626744422934 a53.25548688827235,53.25548688827235 0 0,0 -0.8972498088955505,0.18802742125054756 l -6.343779818015339 -31.62551014640002" fill="#98ff23" stroke="none" /><path d="M 104.13013068566511 120.58985236759428 l 6.359726779446825 31.70501019290597 a53.336570567106904,53.336570567106904 0 0,0 -0.9017242799525994,0.1728176043747899 l -5.813034884922521 -31.809784995629226" fill="#97ff23" stroke="none" /><path d="M 103.06178313531738 120.77559828337769 l 7.115742756412112 48.28356760144889 a69.80508882585008,69.80508882585008 0 0,0 -1.1902479284857417,0.1649575173242992 l -6.2835662367395395 -48.39889968426579" fill="#3aff8e" stroke="none" /><path d="M 102.34483914955558 120.86867818915974 l 5.504169757838712 48.98619480854856 a70.29445370976512,70.29445370976512 0 0,0 -1.2035997234975193,0.1247580325628763 l -4.66013743773559 -49.073682209567195" fill="#3aff94" stroke="none" /><path d="M 101.98527174616119 120.90594882070398 l 5.289665734782033 55.702944115241486 a76.95353917931772,76.95353917931772 0 0,0 -1.319774019301437,0.11387565570478421 l -4.330047397739054 -55.78574402322493" fill="#43ffe2" stroke="none" /><path d="M 101.62511606390274 120.93702456842531 l 2.4263116163184115 31.25914945392775 a52.353172289937,52.353172289937 0 0,0 -0.8990715961479945,0.06200524117499425 l -1.8878772593914865 -31.29628303961903" fill="#a3ff22" stroke="none" /><path d="M 100.90346689309514 120.98055641714683 l 1.1245138495129885 26.11376957128377 a47.13797032326444,47.13797032326444 0 0,0 -0.8109518733885549,0.027930822215104217 l -0.6748416244497812 -26.129257191924967" fill="#e5ff1a" stroke="none" /><line stroke="#e1ed5e" stroke-width="0.3" x1="102.19456741930631" x2="102.32365962044197" y1="184.97166512339345" y2="189.96999836594603" /><path d="M 102.22038585953345 185.97133177190398 a86.0,86.0 0 0,1 -42.740103519485714,-10.115201625700543" fill="none" id="id43" stroke="none" /><text fill="#e1ed5e" style="font-size:6.75px; font-family:Arial;" text-anchor="middle"><textPath startOffset="22.20632615414155" xlink:href="#id43">July</textPath></text><path d="M 100.18074693466247 120.99922214144158 l 0.3367107379977266 39.11913415199634 a60.12058321297076,60.12058321297076 0 0,0 -1.0349153453203372,0.0 l 0.3367107379976997 -39.11913415199634" fill="#48ff2c" stroke="none" /><path d="M 99.81925306533755 120.99922214144158 l -0.33988512464959325 39.48793515318859 a60.489397875384036,60.489397875384036 0 0,0 -1.0411098441087905,-0.017923650126168027 l 1.0195546586510515 -39.47623402578326" fill="#44ff2d" stroke="none" /><path d="M 99.45781275523022 120.99299961872073 l -1.056333018303789 40.90025883937866 a61.9138975480671,61.9138975480671 0 0,0 -1.0651538634579933,-0.036686052734132224 l 1.7602072334364254 -40.876015988218434" fill="#35ff2f" stroke="none" /><path d="M 99.09653310690486 120.98055641714683 l -1.6560938125336857 38.45826552306435 a59.4939064497023,59.4939064497023 0 0,0 -1.0227623850016294,-0.05286513289632991 l 2.317844265948804 -38.42406058340582" fill="#4fff2b" stroke="none" /><path d="M 98.73552117531835 120.96189622390904 l -2.6213714560572923 43.45578221922735 a64.5347745669545,64.5347745669545 0 0,0 -1.1082687111228853,-0.0764326990356426 l 3.3690029279591074 -43.404221175675424" fill="#32ff4c" stroke="none" /><path d="M 98.37488393609728 120.93702456842531 l -3.299925367971847 42.51426715780245 a63.64214370079422,63.64214370079422 0 0,0 -1.0914799849976375,-0.09417748581385389 l 4.031249670711026 -42.45116541970994" fill="#31ff40" stroke="none" /><path d="M 98.01472825383883 120.90594882070398 l -3.556940341139253 37.45644034573264 a58.62494847788966,58.62494847788966 0 0,0 -1.003791452301222,-0.1040470882866398 l 4.201164390046068 -37.389663888990235" fill="#59ff2a" stroke="none" /><path d="M 96.93821686468263 120.77559828337769 l -6.408749138229648 43.48629269623344 a64.95599752001137,64.95599752001137 0 0,0 -1.1047596551277221,-0.1725407376011159 l 7.156344656965888 -43.369533651285224" fill="#33ff51" stroke="none" /><path d="M 96.58105272829116 120.7198165907248 l -5.30672024745438 32.16027083406394 a53.59515761436177,53.59515761436177 0 0,0 -0.9089509765939303,-0.15803277827961904 l 5.85952019552036 -32.06415947726332" fill="#93ff23" stroke="none" /><path d="M 96.22490169976321 120.6578951692458 l -6.717769234793985 36.760624912695384 a58.369398810575284,58.369398810575284 0 0,0 -0.9868108045587909,-0.18912463932319687 l 7.349547653924471 -36.639543075023724" fill="#5cff2a" stroke="none" /><path d="M 95.86986931433489 120.58985236759428 l -7.204587306828186 35.91687535019189 a57.63233562282006,57.63233562282006 0 0,0 -0.9709910686248122,-0.20348061919965799 l 7.8217698368823845 -35.78753875026569" fill="#64ff29" stroke="none" /><path d="M 95.51606077576429 120.51570834832081 l -8.351701975226094 38.21217758923538 a60.11421023099224,60.11421023099224 0 0,0 -1.009002278170771,-0.2296456334822781 l 9.008224402789727 -38.06275522217542" fill="#48ff2c" stroke="none" /><path d="M 94.81253420990036 120.34920634021253 l -15.35794467907231 60.2455992736308 a83.17233063513342,83.17233063513342 0 0,0 -1.3842630690772326,-0.36559645791454987 l 16.39269819096103 -59.97231146641267" fill="#4cdaff" stroke="none" /><path d="M 94.46302465271185 120.25689768951611 l -8.300740853245903 30.36807059177942 a52.48209030830138,52.48209030830138 0 0,0 -0.8693754024274745,-0.24569417268218105 l 8.822247423777993 -30.22068762575872" fill="#a1ff22" stroke="none" /><path d="M 94.11515582081647 120.15858648285463 l -11.935974224904129 40.88678669198617 a63.59338923698785,63.59338923698785 0 0,0 -1.04815540357542,-0.3158006249473906 l 12.638004602919795 -40.67527069793305" fill="#31ff3f" stroke="none" /><path d="M 92.7421414339146 119.70592522655815 l -21.11279719638876 57.3236856418825 a82.08809328359501,82.08809328359501 0 0,0 -1.3217347076281563,-0.49976697008178816 l 22.0964021247772 -56.95177042169407" fill="#4ae5ff" stroke="none" /><path d="M 92.40401165467489 119.57807347666478 l -17.989442965895762 46.3664002864532 a70.73392336973652,70.73392336973652 0 0,0 -1.131334955655465,-0.45018152694784563 l 18.784898997593086 -46.04987191509929" fill="#3bff9a" stroke="none" /><path d="M 92.06813273071674 119.44442032107085 l -19.27046124194253 47.24019394781105 a72.01947275995718,72.01947275995718 0 0,0 -1.143835697018609,-0.4781234141216021 l 20.080768398458602 -46.90148549066947" fill="#3dffa9" stroke="none" /><path d="M 91.7346041902142 119.30500536409082 l -15.861748064855142 37.04736452104905 a61.30015222835293,61.30015222835293 0 0,0 -0.9664387163400343,-0.423658332227623 l 16.49710745585292 -36.76884163552697" fill="#3bff2e" stroke="none" /><path d="M 91.07499286063937 119.00905698771935 l -15.890863083973167 33.84538714990106 a58.39023617042648,58.39023617042648 0 0,0 -0.9061256324007643,-0.4349953687163711 l 16.471101384374176 -33.566837504685125" fill="#5bff2a" stroke="none" /><line stroke="#e1ed5e" stroke-width="0.3" x1="58.666819895761336" x2="56.23545636021788" y1="174.27360380694188" y2="178.64263932499728" /><path d="M 58.180547188652646 175.14741091055294 a86.0,86.0 0 0,1 -31.652253787137756,-30.449443065178592" fill="none" id="id44" stroke="none" /><text fill="#e1ed5e" style="font-size:6.75px; font-family:Arial;" text-anchor="middle"><textPath startOffset="22.20632615414155" xlink:href="#id44">August</textPath></text><path d="M 89.7882731507175 118.34994917583269 l -24.39345759186981 43.83379164368191 a71.16415117539685,71.16415117539685 0 0,0 -1.0652637463329342,-0.6048845568438322 l 25.14437010512395 -43.407403921043446" fill="#3bff9f" stroke="none" /><path d="M 89.4739219176387 118.17145234162733 l -18.770143566938135 32.40340482023152 a58.447282057143646,58.447282057143646 0 0,0 -0.8662224774880695,-0.5117795081055948 l 19.325133915454586 -32.07550673983218" fill="#5bff2a" stroke="none" /><path d="M 89.1626897886671 117.98757091392108 l -22.38911773233606 37.161051502371876 a64.3845173027699,64.3845173027699 0 0,0 -0.9443700253129188,-0.5801092014939003 l 23.025466957581287 -36.7701538340496" fill="#32ff4a" stroke="none" /><path d="M 88.8546689885994 117.79835938074946 l -20.019385822691472 31.969640299572124 a58.720468045900574,58.720468045900574 0 0,0 -0.8520569145670494,-0.5438230365543109 l 20.566724539305444 -31.620302834194007" fill="#58ff2a" stroke="none" /><path d="M 88.24862548938628 117.40417183066458 l -22.378850413863333 33.1438128896188 a60.99156509450627,60.99156509450627 0 0,0 -0.8650437028320729,-0.594984946697505 l 22.946051001318295 -32.7536871535562" fill="#3eff2d" stroke="none" /><path d="M 87.95078237400918 117.19931262002967 l -18.00093654052498 25.694924319897126 a52.37296371306428,52.37296371306428 0 0,0 -0.7339015228722241,-0.5236192502753491 l 18.44056539124609 -25.381260807777558" fill="#a2ff22" stroke="none" /><path d="M 87.65650970185807 116.9893568818739 l -22.232593299979513 30.60053946328036 a58.82434692477945,58.82434692477945 0 0,0 -0.8140590153168293,-0.6022213981289563 l 22.756037285714907 -30.213308116411635" fill="#56ff2a" stroke="none" /><path d="M 87.07902340077011 116.55440617244103 l -26.204926912519863 33.57385569871249 a63.58992816345758,63.58992816345758 0 0,0 -0.8570787002527674,-0.6809151549910293 l 26.778963105489986 -33.11780662971633" fill="#31ff3f" stroke="none" /><path d="M 86.79598089348748 116.32954008644616 l -31.49527930637919 38.950521187421714 a71.09087461163585,71.09087461163585 0 0,0 -0.9449326996186459,-0.7776152810954706 l 32.161082134542525 -38.402610787469065" fill="#3bff9e" stroke="none" /><path d="M 86.51685102203217 116.09983520530335 l -24.727333653623926 29.52618839563536 a59.5128138519142,59.5128138519142 0 0,0 -0.7797156988907028,-0.6644906341655029 l 25.231914829091686 -29.096173371246906" fill="#4fff2b" stroke="none" /><path d="M 85.97065885151581 115.62618273729859 l -42.08802344545257 46.878548211895755 a84.0,84.0 0 0,0 -1.0676018021325815,-0.9752289336536961 l 42.888724797052014 -46.14712651165548" fill="#4dd2ff" stroke="none" /><path d="M 85.70375840098266 115.38237550388516 l -21.35656790384081 22.979098715964735 a52.37103712709249,52.37103712709249 0 0,0 -0.6550473699559665,-0.6193881742886986 l 21.748951108187594 -22.608075904930107" fill="#a2ff22" stroke="none" /><path d="M 84.67929136418377 114.36230785411682 l -33.67391668792293 31.567414381551856 a67.15662808136857,67.15662808136857 0 0,0 -0.7833455845441013,-0.8501669193906976 l 34.21230868046276 -30.983096207359814" fill="#36ff6d" stroke="none" /><path d="M 84.43433777217949 114.09645910891817 l -25.592073790054783 23.17650328099383 a55.52686700541372,55.52686700541372 0 0,0 -0.6354948138811839,-0.7139851602297836 l 25.987227453584307 -22.73254395102318" fill="#7cff26" stroke="none" /><path d="M 83.95833913139862 113.55231037782056 l -28.62053399111833 24.179189611581435 a58.46689440305357,58.46689440305357 0 0,0 -0.6428685614984418,-0.7743765957013236 l 29.032498552510305 -23.68295175876635" fill="#5bff2a" stroke="none" /><path d="M 83.50135304334701 112.99209946851258 l -29.05033684243112 22.87611019511308 a57.976188125842114,57.976188125842114 0 0,0 -0.610663694148526,-0.7893651429813429 l 29.43980735379771 -22.372667058018482" fill="#60ff29" stroke="none" /><path d="M 82.05923443525364 110.91462005526583 l -42.73035577168489 25.995858225288025 a71.0166767113134,71.0166767113134 0 0,0 -0.6263641272043446,-1.049822305591767 l 43.17150077458747 -25.256473825810147" fill="#3bff9d" stroke="none" /><line stroke="#e1ed5e" stroke-width="0.3" x1="26.63291911575756" x2="22.317208475507996" y1="142.92168965132927" y2="145.44649492493687" /><path d="M 25.769776987707644 143.4266507060508 a86.0,86.0 0 0,1 -11.730757126820373,-40.83630448921669" fill="none" id="id45" stroke="none" /><text fill="#e1ed5e" style="font-size:6.75px; font-family:Arial;" text-anchor="middle"><textPath startOffset="21.46611528233685" xlink:href="#id45">September</textPath></text><path d="M 81.87401531095188 110.60418214915194 l -33.986063289459395 19.88274909400021 a60.37481694497266,60.37481694497266 0 0,0 -0.5170614433437601,-0.9015402097086204 l 34.323276728955534 -19.294789038433283" fill="#45ff2d" stroke="none" /><path d="M 81.69416730710424 110.29060199501025 l -33.81163963944809 19.007172859353382 a59.787879488485025,59.787879488485025 0 0,0 -0.49659126722198016,-0.9014573946920225 l 34.13380731612158 -18.42234494626354" fill="#4cff2c" stroke="none" /><path d="M 81.18737489456691 109.33194174019688 l -55.885415333002285 27.721779235566014 a83.38330458486169,83.38330458486169 0 0,0 -0.6267515753058758,-1.2912938828146443 l 56.35432016492288 -26.755696396786085" fill="#4cd8ff" stroke="none" /><path d="M 80.87730276802145 108.67885076344099 l -45.345498879920704 20.58008934610392 a70.7971319069935,70.7971319069935 0 0,0 -0.494092897925022,-1.1140490481053353 l 45.693032862577006 -19.79649196150589" fill="#3bff9a" stroke="none" /><path d="M 80.73074385275274 108.34839909993369 l -34.59932983368041 14.990148651019426 a58.70700440925355,58.70700440925355 0 0,0 -0.3937535222943949,-0.9307170137937926 l 34.852234337167104 -14.392357111559475" fill="#58ff2a" stroke="none" /><path d="M 80.45479744820244 107.68017299344265 l -34.01478092860358 13.365909162282042 a57.546584646930675,57.546584646930675 0 0,0 -0.354338218319261,-0.9250652755259342 l 34.23981342651635 -12.77842031992295" fill="#65ff29" stroke="none" /><path d="M 80.32549172779594 107.34259656027581 l -45.85875685696978 17.114651390410042 a69.94830816976146,69.94830816976146 0 0,0 -0.41128185917598076,-1.131671037922451 l 46.14656297715098 -16.322732555481473" fill="#3aff90" stroke="none" /><path d="M 80.20201598880116 107.00284435728193 l -36.27865200501782 12.832304205288118 a59.48127625895792,59.48127625895792 0 0,0 -0.33312111786915777,-0.9682058990665888 l 36.4941639538302 -12.205925603132233" fill="#4fff2b" stroke="none" /><path d="M 79.97269907076064 106.31721596034903 l -38.29355098881201 12.078943255492906 a61.15341725808854,61.15341725808854 0 0,0 -0.3080187769365396,-1.0066231848757767 l 38.49579653825467 -11.417993098065082" fill="#3dff2e" stroke="none" /><path d="M 79.86692584326677 105.97154293290107 l -38.660546847641484 11.46685863832253 a61.32526168036549,61.32526168036549 0 0,0 -0.2914625076469965,-1.0146192254079738 l 38.852201992174585 -10.79968193740996" fill="#3bff2e" stroke="none" /><path d="M 79.50377843672027 104.57218783832718 l -37.039022655424766 8.262467714149711 a58.94940805857761,58.94940805857761 0 0,0 -0.2124030298751178,-0.9922762429668864 l 37.175759724024324 -7.62367765176666" fill="#55ff2b" stroke="none" /><path d="M 79.4281124754447 104.21870165774334 l -47.98283573892949 9.839897696962746 a69.98138536460337,69.98138536460337 0 0,0 -0.23183855572719864,-1.1821398008981225 l 48.14510422763235 -9.012494168996668" fill="#3aff91" stroke="none" /><path d="M 79.35854240842038 103.8639653848113 l -36.00162257194829 6.739302338406405 a57.62697126191936,57.62697126191936 0 0,0 -0.1741255401802912,-0.9765885011501455 l 36.11229455446777 -6.118595086523046" fill="#64ff29" stroke="none" /><path d="M 79.23777060512086 103.15116336523772 l -39.52046820469584 5.998173376043883 a60.97305956475507,60.97305956475507 0 0,0 -0.14855925976438702,-1.0390231167836355 l 39.617861515476825 -5.3170047872798465" fill="#3fff2d" stroke="none" /><path d="M 79.18660465613746 102.79330883721812 l -40.75491062091869 5.469605036403463 a62.120303001963904,62.120303001963904 0 0,0 -0.13311047048651742,-1.0610214183376687 l 40.84302260065206 -4.767265863778385" fill="#32ff2f" stroke="none" /><path d="M 79.1416061653843 102.43462659150553 l -31.63536791774467 3.6925330193345265 a52.850138200484224,52.850138200484224 0 0,0 -0.09769146334733986,-0.9045016218167435 l 31.694241682593063 -3.147435075633001" fill="#9cff22" stroke="none" /><path d="M 79.10278846688536 102.07522291339032 l -31.360432244358503 3.114285724877156 a52.514686832160876,52.514686832160876 0 0,0 -0.08158632663248591,-0.9002983159105454 l 31.409393167268064 -2.574006020418044" fill="#a1ff22" stroke="none" /><line stroke="#e1ed5e" stroke-width="0.3" x1="15.007084014347285" x2="10.007500721073583" y1="101.09737516637583" y2="101.16192664675087" /><path d="M 14.007167355692545 101.11028546245083 a86.0,86.0 0 0,1 10.666146001902534,-42.60595125391555" fill="none" id="id46" stroke="none" /><text fill="#e1ed5e" style="font-size:6.75px; font-family:Arial;" text-anchor="middle"><textPath startOffset="22.20632615414155" xlink:href="#id46">October</textPath></text><line stroke="#e1ed5e" stroke-width="0.3" x1="26.266209847984243" x2="21.928928074336255" y1="57.711370442889674" y2="55.22380399835377" /><path d="M 25.398753493254645 57.213857153982495 a86.0,86.0 0 0,1 29.58750427330803,-30.492523968695096" fill="none" id="id47" stroke="none" /><text fill="#e1ed5e" style="font-size:6.75px; font-family:Arial;" text-anchor="middle"><textPath startOffset="21.46611528233685" xlink:href="#id47">November</textPath></text><line stroke="#e1ed5e" stroke-width="0.3" x1="56.762969772571076" x2="54.21961505331055" y1="26.818313649435495" y2="22.513508569990535" /><path d="M 56.25429882871897 25.957352633546506 a86.0,86.0 0 0,1 42.265352541879196,-11.944610805530505" fill="none" id="id48" stroke="none" /><text fill="#e1ed5e" style="font-size:6.75px; font-family:Arial;" text-anchor="middle"><textPath startOffset="22.20632615414155" xlink:href="#id48">December</textPath></text></svg>